<?xml version="1.0" encoding="UTF-8" standalone="no"?><svg xmlns="http://www.w3.org/2000/svg" xmlns:xlink="http://www.w3.org/1999/xlink" clip-rule="evenodd" stroke-miterlimit="10" viewBox="0 0 191 129"><desc>SVG generated by Keynote</desc><defs></defs><g transform="matrix(1.00, 0.00, -0.00, -1.00, 0.0, 129.0)"><g><clipPath id="clip0x7f8756150390"><path d="M 36.0 129.0 L 191.0 129.0 L 191.0 28.0 L 36.0 28.0 Z M 35.7 128.6 "></path></clipPath><g clip-path="url(#clip0x7f8756150390)"><g><clipPath id="clip0x7f8756150b30"><path d="M 35.7 27.8 L 190.8 27.8 L 190.8 128.6 L 35.7 128.6 Z M 35.7 27.8 "></path></clipPath><g clip-path="url(#clip0x7f8756150b30)"><image xlink:href="../../BF6DC8B6-E505-4222-AA15-A9E26ADAED33/assets/80853EFD8D24BCE501047C376B8C7833.png" width="260.00" height="194.00" transform="matrix(0.66, 0.00, -0.00, -0.66, 20.2, 128.6)"></image></g></g></g></g><g><clipPath id="clip0x7f8756152340"><path d="M 0.2 1.0 L 40.8 1.0 L 40.8 41.4 L 0.2 41.4 Z M 0.2 1.0 "></path></clipPath><g clip-path="url(#clip0x7f8756152340)"><path d="M 20.5 40.2 L 26.3 27.8 L 39.4 25.8 L 30.0 16.1 L 32.2 2.4 L 20.5 8.9 L 8.8 2.4 L 11.1 16.1 L 1.6 25.8 L 14.7 27.8 Z M 20.5 40.2 " fill="#C3D69B"></path><path d="M 19.9 0.0 L 25.7 12.4 L 38.8 14.4 L 29.3 24.1 L 31.6 37.8 L 19.9 31.3 L 8.2 37.8 L 10.4 24.1 L 1.0 14.4 L 14.0 12.4 Z M 19.9 0.0 " fill="none" stroke="#000000" stroke-width="1.00" stroke-linejoin="bevel" transform="matrix(1.00, 0.00, 0.00, -1.00, 0.6, 40.2)"></path></g></g></g></svg>