<?xml version="1.0" encoding="UTF-8" standalone="no"?><svg xmlns="http://www.w3.org/2000/svg" xmlns:xlink="http://www.w3.org/1999/xlink" clip-rule="evenodd" stroke-miterlimit="10" viewBox="0 0 1338 96"><desc>SVG generated by Keynote</desc><defs></defs><g transform="matrix(1.00, 0.00, -0.00, -1.00, 0.0, 96.0)"><path d="M 2.5 93.5 L 1334.5 93.5 L 1334.5 3.5 L 2.5 3.5 Z M 2.6 93.4 " fill="#FFFFFF"></path><path d="M -0.1 -0.1 L 1331.9 -0.1 L 1331.9 89.9 L -0.1 89.9 Z M 0.0 0.0 " fill="none" stroke="#000000" stroke-width="3.00" stroke-linejoin="bevel" transform="matrix(1.00, 0.00, 0.00, -1.00, 2.6, 93.4)"></path><g><clipPath id="clip0x7f875aff79e0"><path d="M -4.7 -4.2 L 1341.9 -4.2 L 1341.9 100.7 L -4.7 100.7 Z M -4.7 -4.2 "></path></clipPath><g clip-path="url(#clip0x7f875aff79e0)"><text xml:space="preserve" font-family="ComicSansMS,Comic Sans MS" font-size="50.0" fill="#000000" transform="matrix(1.00, 0.00, -0.00, -1.00, 239.1, 27.8)">o</text><text xml:space="preserve" font-family="ComicSansMS,Comic Sans MS" font-size="50.0" fill="#000000" transform="matrix(1.00, 0.00, -0.00, -1.00, 265.4, 27.8)">c</text><text xml:space="preserve" font-family="ComicSansMS,Comic Sans MS" font-size="50.0" fill="#000000" transform="matrix(1.00, 0.00, -0.00, -1.00, 291.1, 27.8)">h</text><text xml:space="preserve" font-family="ComicSansMS,Comic Sans MS" font-size="50.0" fill="#000000" transform="matrix(1.00, 0.00, -0.00, -1.00, 320.0, 27.8)">o</text><text xml:space="preserve" font-family="ComicSansMS,Comic Sans MS" font-size="50.0" fill="#000000" transform="matrix(1.00, 0.00, -0.00, -1.00, 346.2, 27.8)">c</text><text xml:space="preserve" font-family="ComicSansMS,Comic Sans MS" font-size="50.0" fill="#000000" transform="matrix(1.00, 0.00, -0.00, -1.00, 371.9, 27.8)">i</text><text xml:space="preserve" font-family="ComicSansMS,Comic Sans MS" font-size="50.0" fill="#000000" transform="matrix(1.00, 0.00, -0.00, -1.00, 385.9, 27.8)">e</text><text xml:space="preserve" font-family="ComicSansMS,Comic Sans MS" font-size="50.0" fill="#000000" transform="matrix(1.00, 0.00, -0.00, -1.00, 413.3, 27.8)">n</text><text xml:space="preserve" font-family="ComicSansMS,Comic Sans MS" font-size="50.0" fill="#000000" transform="matrix(1.00, 0.00, -0.00, -1.00, 439.5, 27.8)">t</text><text xml:space="preserve" font-family="ComicSansMS,Comic Sans MS" font-size="50.0" fill="#000000" transform="matrix(1.00, 0.00, -0.00, -1.00, 463.1, 27.8)">o</text><text xml:space="preserve" font-family="ComicSansMS,Comic Sans MS" font-size="50.0" fill="#000000" transform="matrix(1.00, 0.00, -0.00, -1.00, 489.4, 27.8)">s</text><text xml:space="preserve" font-family="ComicSansMS,Comic Sans MS" font-size="50.0" fill="#000000" transform="matrix(1.00, 0.00, -0.00, -1.00, 513.7, 27.8)"> </text><text xml:space="preserve" font-family="ComicSansMS-Bold,Comic Sans MS" font-weight="bold" font-size="50.0" fill="#000000" transform="matrix(1.00, 0.00, -0.00, -1.00, 528.7, 27.8)">m</text><text xml:space="preserve" font-family="ComicSansMS-Bold,Comic Sans MS" font-weight="bold" font-size="50.0" fill="#000000" transform="matrix(1.00, 0.00, -0.00, -1.00, 567.5, 27.8)">i</text><text xml:space="preserve" font-family="ComicSansMS-Bold,Comic Sans MS" font-weight="bold" font-size="50.0" fill="#000000" transform="matrix(1.00, 0.00, -0.00, -1.00, 581.5, 27.8)">l</text><text xml:space="preserve" font-family="ComicSansMS-Bold,Comic Sans MS" font-weight="bold" font-size="50.0" fill="#000000" transform="matrix(1.00, 0.00, -0.00, -1.00, 595.2, 27.8)">l</text><text xml:space="preserve" font-family="ComicSansMS-Bold,Comic Sans MS" font-weight="bold" font-size="50.0" fill="#000000" transform="matrix(1.00, 0.00, -0.00, -1.00, 608.9, 27.8)">o</text><text xml:space="preserve" font-family="ComicSansMS-Bold,Comic Sans MS" font-weight="bold" font-size="50.0" fill="#000000" transform="matrix(1.00, 0.00, -0.00, -1.00, 635.2, 27.8)">n</text><text xml:space="preserve" font-family="ComicSansMS-Bold,Comic Sans MS" font-weight="bold" font-size="50.0" fill="#000000" transform="matrix(1.00, 0.00, -0.00, -1.00, 661.4, 27.8)">e</text><text xml:space="preserve" font-family="ComicSansMS-Bold,Comic Sans MS" font-weight="bold" font-size="50.0" fill="#000000" transform="matrix(1.00, 0.00, -0.00, -1.00, 689.3, 27.8)">s</text><text xml:space="preserve" font-family="ComicSansMS,Comic Sans MS" font-size="50.0" fill="#000000" transform="matrix(1.00, 0.00, -0.00, -1.00, 713.7, 27.8)"> </text><text xml:space="preserve" font-family="ComicSansMS,Comic Sans MS" font-size="50.0" fill="#000000" transform="matrix(1.00, 0.00, -0.00, -1.00, 728.6, 27.8)">t</text><text xml:space="preserve" font-family="ComicSansMS,Comic Sans MS" font-size="50.0" fill="#000000" transform="matrix(1.00, 0.00, -0.00, -1.00, 752.1, 27.8)">r</text><text xml:space="preserve" font-family="ComicSansMS,Comic Sans MS" font-size="50.0" fill="#000000" transform="matrix(1.00, 0.00, -0.00, -1.00, 776.2, 27.8)">e</text><text xml:space="preserve" font-family="ComicSansMS,Comic Sans MS" font-size="50.0" fill="#000000" transform="matrix(1.00, 0.00, -0.00, -1.00, 803.6, 27.8)">i</text><text xml:space="preserve" font-family="ComicSansMS,Comic Sans MS" font-size="50.0" fill="#000000" transform="matrix(1.00, 0.00, -0.00, -1.00, 817.6, 27.8)">n</text><text xml:space="preserve" font-family="ComicSansMS,Comic Sans MS" font-size="50.0" fill="#000000" transform="matrix(1.00, 0.00, -0.00, -1.00, 843.9, 27.8)">t</text><text xml:space="preserve" font-family="ComicSansMS,Comic Sans MS" font-size="50.0" fill="#000000" transform="matrix(1.00, 0.00, -0.00, -1.00, 867.4, 27.8)">a</text><text xml:space="preserve" font-family="ComicSansMS,Comic Sans MS" font-size="50.0" fill="#000000" transform="matrix(1.00, 0.00, -0.00, -1.00, 893.0, 27.8)"> </text><text xml:space="preserve" font-family="ComicSansMS-Bold,Comic Sans MS" font-weight="bold" font-size="50.0" fill="#000000" transform="matrix(1.00, 0.00, -0.00, -1.00, 907.9, 27.8)">m</text><text xml:space="preserve" font-family="ComicSansMS-Bold,Comic Sans MS" font-weight="bold" font-size="50.0" fill="#000000" transform="matrix(1.00, 0.00, -0.00, -1.00, 946.7, 27.8)">i</text><text xml:space="preserve" font-family="ComicSansMS-Bold,Comic Sans MS" font-weight="bold" font-size="50.0" fill="#000000" transform="matrix(1.00, 0.00, -0.00, -1.00, 960.7, 27.8)">l</text><text xml:space="preserve" font-family="ComicSansMS,Comic Sans MS" font-size="50.0" fill="#000000" transform="matrix(1.00, 0.00, -0.00, -1.00, 974.4, 27.8)"> </text><text xml:space="preserve" font-family="ComicSansMS,Comic Sans MS" font-size="50.0" fill="#000000" transform="matrix(1.00, 0.00, -0.00, -1.00, 989.3, 27.8)">d</text><text xml:space="preserve" font-family="ComicSansMS,Comic Sans MS" font-size="50.0" fill="#000000" transform="matrix(1.00, 0.00, -0.00, -1.00, 1018.8, 27.8)">o</text><text xml:space="preserve" font-family="ComicSansMS,Comic Sans MS" font-size="50.0" fill="#000000" transform="matrix(1.00, 0.00, -0.00, -1.00, 1045.0, 27.8)">c</text><text xml:space="preserve" font-family="ComicSansMS,Comic Sans MS" font-size="50.0" fill="#000000" transform="matrix(1.00, 0.00, -0.00, -1.00, 1070.7, 27.8)">e</text><path d="M 524.6 70.7 L 709.6 70.7 " fill="none" stroke="#000000" stroke-width="4.27" transform="matrix(1.00, 0.00, 0.00, -1.00, 4.1, 91.9)"></path><path d="M 903.8 70.7 L 970.3 70.7 " fill="none" stroke="#000000" stroke-width="4.27" transform="matrix(1.00, 0.00, 0.00, -1.00, 4.1, 91.9)"></path></g></g></g></svg>