<?xml version="1.0" encoding="UTF-8" standalone="no"?><svg xmlns="http://www.w3.org/2000/svg" xmlns:xlink="http://www.w3.org/1999/xlink" clip-rule="evenodd" stroke-miterlimit="10" viewBox="0 0 1920 1080"><desc>SVG generated by Keynote</desc><defs></defs><g transform="matrix(1.00, 0.00, -0.00, -1.00, 0.0, 1080.0)"><path d="M 0.0 1080.0 L 1920.0 1080.0 L 1920.0 0.0 L 0.0 0.0 Z M 0.0 1080.0 " fill="#FFFFFF"></path><g><clipPath id="clip0x7f86388500f0"><path d="M 1373.0 255.0 L 1489.0 255.0 L 1489.0 180.0 L 1373.0 180.0 Z M 1372.9 255.2 "></path></clipPath><g clip-path="url(#clip0x7f86388500f0)"><g><clipPath id="clip0x7f863884b4e0"><path d="M 1372.9 179.6 L 1489.2 179.6 L 1489.2 255.2 L 1372.9 255.2 Z M 1372.9 179.6 "></path></clipPath><g clip-path="url(#clip0x7f863884b4e0)"><image xlink:href="../../6F083B67-27ED-4BFB-8679-2898A1AACFB0/assets/E7D0403A97A29682D38DB5ABD2A1FFCE.png" width="260.00" height="194.00" transform="matrix(0.49, 0.00, -0.00, -0.49, 1361.2, 255.2)"></image></g></g></g></g><g><clipPath id="clip0x7f8638854320"><path d="M 1371.8 150.1 L 1402.3 150.1 L 1402.3 180.6 L 1371.8 180.6 Z M 1371.8 150.1 "></path></clipPath><g clip-path="url(#clip0x7f8638854320)"><path d="M 1387.1 179.6 L 1391.4 170.2 L 1401.2 168.7 L 1394.2 161.5 L 1395.8 151.2 L 1387.1 156.0 L 1378.3 151.2 L 1380.0 161.5 L 1372.9 168.7 L 1382.7 170.2 Z M 1387.1 179.6 " fill="#FF0000"></path><path d="M 14.9 0.0 L 19.3 9.3 L 29.1 10.8 L 22.0 18.1 L 23.7 28.4 L 14.9 23.5 L 6.1 28.4 L 7.8 18.1 L 0.7 10.8 L 10.5 9.3 Z M 14.9 0.0 " fill="none" stroke="#000000" stroke-width="0.25" stroke-linejoin="bevel" transform="matrix(1.00, 0.00, 0.00, -1.00, 1372.2, 179.6)"></path></g></g><text xml:space="preserve" font-family="ArialRoundedMTBold,Arial Rounded MT Bold" font-size="60.0" fill="#000000" transform="matrix(1.00, 0.00, -0.00, -1.00, 575.5, 845.6)">c</text><text xml:space="preserve" font-family="ArialRoundedMTBold,Arial Rounded MT Bold" font-size="60.0" fill="#000000" transform="matrix(1.00, 0.00, -0.00, -1.00, 611.2, 845.6)">o</text><text xml:space="preserve" font-family="ArialRoundedMTBold,Arial Rounded MT Bold" font-size="60.0" fill="#000000" transform="matrix(1.00, 0.00, -0.00, -1.00, 647.4, 845.6)">m</text><text xml:space="preserve" font-family="ArialRoundedMTBold,Arial Rounded MT Bold" font-size="60.0" fill="#000000" transform="matrix(1.00, 0.00, -0.00, -1.00, 700.5, 845.6)">m</text><text xml:space="preserve" font-family="ArialRoundedMTBold,Arial Rounded MT Bold" font-size="60.0" fill="#000000" transform="matrix(1.00, 0.00, -0.00, -1.00, 753.6, 845.6)">o</text><text xml:space="preserve" font-family="ArialRoundedMTBold,Arial Rounded MT Bold" font-size="60.0" fill="#000000" transform="matrix(1.00, 0.00, -0.00, -1.00, 789.8, 845.6)">n</text><text xml:space="preserve" font-family="ArialRoundedMTBold,Arial Rounded MT Bold" font-size="60.0" fill="#000000" transform="matrix(1.00, 0.00, -0.00, -1.00, 826.1, 845.6)"> </text><text xml:space="preserve" font-family="ArialRoundedMTBold,Arial Rounded MT Bold" font-size="60.0" fill="#000000" transform="matrix(1.00, 0.00, -0.00, -1.00, 841.1, 845.6)"> </text><text xml:space="preserve" font-family="ArialRoundedMTBold,Arial Rounded MT Bold" font-size="60.0" fill="#000000" transform="matrix(1.00, 0.00, -0.00, -1.00, 519.7, 775.6)">p</text><text xml:space="preserve" font-family="ArialRoundedMTBold,Arial Rounded MT Bold" font-size="60.0" fill="#000000" transform="matrix(1.00, 0.00, -0.00, -1.00, 557.2, 775.6)">r</text><text xml:space="preserve" font-family="ArialRoundedMTBold,Arial Rounded MT Bold" font-size="60.0" fill="#000000" transform="matrix(1.00, 0.00, -0.00, -1.00, 582.0, 775.6)">e</text><text xml:space="preserve" font-family="ArialRoundedMTBold,Arial Rounded MT Bold" font-size="60.0" fill="#000000" transform="matrix(1.00, 0.00, -0.00, -1.00, 616.9, 775.6)">p</text><text xml:space="preserve" font-family="ArialRoundedMTBold,Arial Rounded MT Bold" font-size="60.0" fill="#000000" transform="matrix(1.00, 0.00, -0.00, -1.00, 654.4, 775.6)">o</text><text xml:space="preserve" font-family="ArialRoundedMTBold,Arial Rounded MT Bold" font-size="60.0" fill="#000000" transform="matrix(1.00, 0.00, -0.00, -1.00, 690.6, 775.6)">s</text><text xml:space="preserve" font-family="ArialRoundedMTBold,Arial Rounded MT Bold" font-size="60.0" fill="#000000" transform="matrix(1.00, 0.00, -0.00, -1.00, 723.1, 775.6)">i</text><text xml:space="preserve" font-family="ArialRoundedMTBold,Arial Rounded MT Bold" font-size="60.0" fill="#000000" transform="matrix(1.00, 0.00, -0.00, -1.00, 739.4, 775.6)">t</text><text xml:space="preserve" font-family="ArialRoundedMTBold,Arial Rounded MT Bold" font-size="60.0" fill="#000000" transform="matrix(1.00, 0.00, -0.00, -1.00, 760.6, 775.6)">i</text><text xml:space="preserve" font-family="ArialRoundedMTBold,Arial Rounded MT Bold" font-size="60.0" fill="#000000" transform="matrix(1.00, 0.00, -0.00, -1.00, 776.9, 775.6)">o</text><text xml:space="preserve" font-family="ArialRoundedMTBold,Arial Rounded MT Bold" font-size="60.0" fill="#000000" transform="matrix(1.00, 0.00, -0.00, -1.00, 813.1, 775.6)">n</text><text xml:space="preserve" font-family="ArialRoundedMTBold,Arial Rounded MT Bold" font-size="60.0" fill="#000000" transform="matrix(1.00, 0.00, -0.00, -1.00, 849.4, 775.6)">s</text><text xml:space="preserve" font-family="Avenir-Medium,Avenir" font-size="38.0" fill="#000000" transform="matrix(1.00, 0.00, -0.00, -1.00, 1055.0, 876.9)">a</text><text xml:space="preserve" font-family="Avenir-Medium,Avenir" font-size="38.0" fill="#000000" transform="matrix(1.00, 0.00, -0.00, -1.00, 1074.7, 876.9)">t</text><text xml:space="preserve" font-family="LucidaGrande,Lucida Grande" font-size="38.0" fill="#000000" transform="matrix(1.00, 0.00, -0.00, -1.00, 931.7, 873.7)">■</text><text xml:space="preserve" font-family="Wingdings-Regular,Wingdings" font-size="38.0" fill="#000000" transform="matrix(1.00, 0.00, -0.00, -1.00, 952.3, 873.7)"> </text><text xml:space="preserve" font-family="LucidaGrande,Lucida Grande" font-size="38.0" fill="#000000" transform="matrix(1.00, 0.00, -0.00, -1.00, 931.7, 815.2)">■</text><text xml:space="preserve" font-family="Wingdings-Regular,Wingdings" font-size="38.0" fill="#000000" transform="matrix(1.00, 0.00, -0.00, -1.00, 952.3, 815.2)"> </text><text xml:space="preserve" font-family="LucidaGrande,Lucida Grande" font-size="38.0" fill="#000000" transform="matrix(1.00, 0.00, -0.00, -1.00, 931.7, 756.7)">■</text><text xml:space="preserve" font-family="Wingdings-Regular,Wingdings" font-size="38.0" fill="#000000" transform="matrix(1.00, 0.00, -0.00, -1.00, 952.3, 756.7)"> </text><text xml:space="preserve" font-family="LucidaGrande,Lucida Grande" font-size="38.0" fill="#000000" transform="matrix(1.00, 0.00, -0.00, -1.00, 931.7, 698.2)">■</text><text xml:space="preserve" font-family="Wingdings-Regular,Wingdings" font-size="38.0" fill="#000000" transform="matrix(1.00, 0.00, -0.00, -1.00, 952.3, 698.2)"> </text><text xml:space="preserve" font-family="LucidaGrande,Lucida Grande" font-size="38.0" fill="#000000" transform="matrix(1.00, 0.00, -0.00, -1.00, 931.7, 639.7)">■</text><text xml:space="preserve" font-family="Wingdings-Regular,Wingdings" font-size="38.0" fill="#000000" transform="matrix(1.00, 0.00, -0.00, -1.00, 952.3, 639.7)"> </text><text xml:space="preserve" font-family="LucidaGrande,Lucida Grande" font-size="38.0" fill="#000000" transform="matrix(1.00, 0.00, -0.00, -1.00, 931.7, 581.2)">■</text><text xml:space="preserve" font-family="Wingdings-Regular,Wingdings" font-size="38.0" fill="#000000" transform="matrix(1.00, 0.00, -0.00, -1.00, 952.3, 581.2)"> </text><text xml:space="preserve" font-family="LucidaGrande,Lucida Grande" font-size="38.0" fill="#000000" transform="matrix(1.00, 0.00, -0.00, -1.00, 931.7, 522.7)">■</text><text xml:space="preserve" font-family="Wingdings-Regular,Wingdings" font-size="38.0" fill="#000000" transform="matrix(1.00, 0.00, -0.00, -1.00, 952.3, 522.7)"> </text><text xml:space="preserve" font-family="LucidaGrande,Lucida Grande" font-size="38.0" fill="#000000" transform="matrix(1.00, 0.00, -0.00, -1.00, 931.7, 464.2)">■</text><text xml:space="preserve" font-family="Wingdings-Regular,Wingdings" font-size="38.0" fill="#000000" transform="matrix(1.00, 0.00, -0.00, -1.00, 952.3, 464.2)"> </text><text xml:space="preserve" font-family="LucidaGrande,Lucida Grande" font-size="38.0" fill="#000000" transform="matrix(1.00, 0.00, -0.00, -1.00, 931.7, 405.7)">■</text><text xml:space="preserve" font-family="Wingdings-Regular,Wingdings" font-size="38.0" fill="#000000" transform="matrix(1.00, 0.00, -0.00, -1.00, 952.3, 405.7)"> </text><text xml:space="preserve" font-family="LucidaGrande,Lucida Grande" font-size="38.0" fill="#000000" transform="matrix(1.00, 0.00, -0.00, -1.00, 931.7, 347.2)">■</text><text xml:space="preserve" font-family="Wingdings-Regular,Wingdings" font-size="38.0" fill="#000000" transform="matrix(1.00, 0.00, -0.00, -1.00, 952.3, 347.2)"> </text><text xml:space="preserve" font-family="LucidaGrande,Lucida Grande" font-size="38.0" fill="#000000" transform="matrix(1.00, 0.00, -0.00, -1.00, 931.7, 288.7)">■</text><text xml:space="preserve" font-family="Avenir-Medium,Avenir" font-size="38.0" fill="#000000" transform="matrix(1.00, 0.00, -0.00, -1.00, 1066.0, 820.8)">a</text><text xml:space="preserve" font-family="Avenir-Medium,Avenir" font-size="38.0" fill="#000000" transform="matrix(1.00, 0.00, -0.00, -1.00, 1085.7, 820.8)">b</text><text xml:space="preserve" font-family="Avenir-Medium,Avenir" font-size="38.0" fill="#000000" transform="matrix(1.00, 0.00, -0.00, -1.00, 1108.9, 820.8)">o</text><text xml:space="preserve" font-family="Avenir-Medium,Avenir" font-size="38.0" fill="#000000" transform="matrix(1.00, 0.00, -0.00, -1.00, 1131.5, 820.8)">u</text><text xml:space="preserve" font-family="Avenir-Medium,Avenir" font-size="38.0" fill="#000000" transform="matrix(1.00, 0.00, -0.00, -1.00, 1152.6, 820.8)">t</text><text xml:space="preserve" font-family="Avenir-Medium,Avenir" font-size="38.0" fill="#000000" transform="matrix(1.00, 0.00, -0.00, -1.00, 1066.0, 762.5)">a</text><text xml:space="preserve" font-family="Avenir-Medium,Avenir" font-size="38.0" fill="#000000" transform="matrix(1.00, 0.00, -0.00, -1.00, 1085.7, 762.5)">l</text><text xml:space="preserve" font-family="Avenir-Medium,Avenir" font-size="38.0" fill="#000000" transform="matrix(1.00, 0.00, -0.00, -1.00, 1094.8, 762.5)">o</text><text xml:space="preserve" font-family="Avenir-Medium,Avenir" font-size="38.0" fill="#000000" transform="matrix(1.00, 0.00, -0.00, -1.00, 1117.4, 762.5)">n</text><text xml:space="preserve" font-family="Avenir-Medium,Avenir" font-size="38.0" fill="#000000" transform="matrix(1.00, 0.00, -0.00, -1.00, 1138.5, 762.5)">g</text><text xml:space="preserve" font-family="Avenir-Medium,Avenir" font-size="38.0" fill="#000000" transform="matrix(1.00, 0.00, -0.00, -1.00, 1066.0, 703.5)">a</text><text xml:space="preserve" font-family="Avenir-Medium,Avenir" font-size="38.0" fill="#000000" transform="matrix(1.00, 0.00, -0.00, -1.00, 1085.7, 703.5)">m</text><text xml:space="preserve" font-family="Avenir-Medium,Avenir" font-size="38.0" fill="#000000" transform="matrix(1.00, 0.00, -0.00, -1.00, 1118.1, 703.5)">o</text><text xml:space="preserve" font-family="Avenir-Medium,Avenir" font-size="38.0" fill="#000000" transform="matrix(1.00, 0.00, -0.00, -1.00, 1140.7, 703.5)">n</text><text xml:space="preserve" font-family="Avenir-Medium,Avenir" font-size="38.0" fill="#000000" transform="matrix(1.00, 0.00, -0.00, -1.00, 1161.8, 703.5)">g</text><text xml:space="preserve" font-family="Avenir-Medium,Avenir" font-size="38.0" fill="#000000" transform="matrix(1.00, 0.00, -0.00, -1.00, 1066.0, 642.0)">b</text><text xml:space="preserve" font-family="Avenir-Medium,Avenir" font-size="38.0" fill="#000000" transform="matrix(1.00, 0.00, -0.00, -1.00, 1089.2, 642.0)">e</text><text xml:space="preserve" font-family="Avenir-Medium,Avenir" font-size="38.0" fill="#000000" transform="matrix(1.00, 0.00, -0.00, -1.00, 1110.3, 642.0)">s</text><text xml:space="preserve" font-family="Avenir-Medium,Avenir" font-size="38.0" fill="#000000" transform="matrix(1.00, 0.00, -0.00, -1.00, 1127.2, 642.0)">i</text><text xml:space="preserve" font-family="Avenir-Medium,Avenir" font-size="38.0" fill="#000000" transform="matrix(1.00, 0.00, -0.00, -1.00, 1136.3, 642.0)">d</text><text xml:space="preserve" font-family="Avenir-Medium,Avenir" font-size="38.0" fill="#000000" transform="matrix(1.00, 0.00, -0.00, -1.00, 1159.5, 642.0)">e</text><text xml:space="preserve" font-family="Avenir-Medium,Avenir" font-size="38.0" fill="#000000" transform="matrix(1.00, 0.00, -0.00, -1.00, 1066.0, 586.3)">b</text><text xml:space="preserve" font-family="Avenir-Medium,Avenir" font-size="38.0" fill="#000000" transform="matrix(1.00, 0.00, -0.00, -1.00, 1089.2, 586.3)">y</text><text xml:space="preserve" font-family="Avenir-Medium,Avenir" font-size="38.0" fill="#000000" transform="matrix(1.00, 0.00, -0.00, -1.00, 1066.0, 527.2)">f</text><text xml:space="preserve" font-family="Avenir-Medium,Avenir" font-size="38.0" fill="#000000" transform="matrix(1.00, 0.00, -0.00, -1.00, 1078.6, 527.2)">r</text><text xml:space="preserve" font-family="Avenir-Medium,Avenir" font-size="38.0" fill="#000000" transform="matrix(1.00, 0.00, -0.00, -1.00, 1092.0, 527.2)">o</text><text xml:space="preserve" font-family="Avenir-Medium,Avenir" font-size="38.0" fill="#000000" transform="matrix(1.00, 0.00, -0.00, -1.00, 1114.6, 527.2)">m</text><text xml:space="preserve" font-family="Avenir-Medium,Avenir" font-size="38.0" fill="#000000" transform="matrix(1.00, 0.00, -0.00, -1.00, 1066.0, 471.7)">i</text><text xml:space="preserve" font-family="Avenir-Medium,Avenir" font-size="38.0" fill="#000000" transform="matrix(1.00, 0.00, -0.00, -1.00, 1075.1, 471.7)">n</text><text xml:space="preserve" font-family="Avenir-Medium,Avenir" font-size="38.0" fill="#000000" transform="matrix(1.00, 0.00, -0.00, -1.00, 1066.0, 412.4)">o</text><text xml:space="preserve" font-family="Avenir-Medium,Avenir" font-size="38.0" fill="#000000" transform="matrix(1.00, 0.00, -0.00, -1.00, 1088.6, 412.4)">f</text><text xml:space="preserve" font-family="Avenir-Medium,Avenir" font-size="38.0" fill="#000000" transform="matrix(1.00, 0.00, -0.00, -1.00, 1066.0, 351.9)">o</text><text xml:space="preserve" font-family="Avenir-Medium,Avenir" font-size="38.0" fill="#000000" transform="matrix(1.00, 0.00, -0.00, -1.00, 1088.6, 351.9)">n</text><text xml:space="preserve" font-family="Avenir-Medium,Avenir" font-size="38.0" fill="#000000" transform="matrix(1.00, 0.00, -0.00, -1.00, 1066.0, 294.4)">u</text><text xml:space="preserve" font-family="Avenir-Medium,Avenir" font-size="38.0" fill="#000000" transform="matrix(1.00, 0.00, -0.00, -1.00, 1087.1, 294.4)">n</text><text xml:space="preserve" font-family="Avenir-Medium,Avenir" font-size="38.0" fill="#000000" transform="matrix(1.00, 0.00, -0.00, -1.00, 1108.2, 294.4)">d</text><text xml:space="preserve" font-family="Avenir-Medium,Avenir" font-size="38.0" fill="#000000" transform="matrix(1.00, 0.00, -0.00, -1.00, 1131.5, 294.4)">e</text><text xml:space="preserve" font-family="Avenir-Medium,Avenir" font-size="38.0" fill="#000000" transform="matrix(1.00, 0.00, -0.00, -1.00, 1152.6, 294.4)">r</text></g></svg>