<?xml version="1.0" encoding="UTF-8" standalone="no"?><svg xmlns="http://www.w3.org/2000/svg" xmlns:xlink="http://www.w3.org/1999/xlink" clip-rule="evenodd" stroke-miterlimit="10" viewBox="0 0 1920 1080"><desc>SVG generated by Keynote</desc><defs></defs><g transform="matrix(1.00, 0.00, -0.00, -1.00, 0.0, 1080.0)"><path d="M 0.0 1080.0 L 1920.0 1080.0 L 1920.0 0.0 L 0.0 0.0 Z M 0.0 1080.0 " fill="#FFFFFF"></path><text xml:space="preserve" font-family="ComicSansMS,Comic Sans MS" font-size="126.0" fill="#000000" transform="matrix(1.00, 0.00, -0.00, -1.00, 583.7, 881.7)">4</text><text xml:space="preserve" font-family="ComicSansMS,Comic Sans MS" font-size="126.0" fill="#000000" transform="matrix(1.00, 0.00, -0.00, -1.00, 660.7, 881.7)">6</text><text xml:space="preserve" font-family="ComicSansMS,Comic Sans MS" font-size="126.0" fill="#000000" transform="matrix(1.00, 0.00, -0.00, -1.00, 737.6, 881.7)">5</text><text xml:space="preserve" font-family="ComicSansMS,Comic Sans MS" font-size="126.0" fill="#000000" transform="matrix(1.00, 0.00, -0.00, -1.00, 814.6, 881.7)">,</text><text xml:space="preserve" font-family="ComicSansMS,Comic Sans MS" font-size="126.0" fill="#000000" transform="matrix(1.00, 0.00, -0.00, -1.00, 849.4, 881.7)">1</text><text xml:space="preserve" font-family="ComicSansMS,Comic Sans MS" font-size="126.0" fill="#000000" transform="matrix(1.00, 0.00, -0.00, -1.00, 906.2, 881.7)">0</text><text xml:space="preserve" font-family="ComicSansMS,Comic Sans MS" font-size="126.0" fill="#000000" transform="matrix(1.00, 0.00, -0.00, -1.00, 983.1, 881.7)">2</text><text xml:space="preserve" font-family="ComicSansMS,Comic Sans MS" font-size="126.0" fill="#000000" transform="matrix(1.00, 0.00, -0.00, -1.00, 1060.1, 881.7)">,</text><text xml:space="preserve" font-family="ComicSansMS,Comic Sans MS" font-size="126.0" fill="#000000" transform="matrix(1.00, 0.00, -0.00, -1.00, 1094.9, 881.7)">3</text><text xml:space="preserve" font-family="ComicSansMS,Comic Sans MS" font-size="126.0" fill="#000000" transform="matrix(1.00, 0.00, -0.00, -1.00, 1171.9, 881.7)">9</text><text xml:space="preserve" font-family="ComicSansMS,Comic Sans MS" font-size="126.0" fill="#000000" transform="matrix(1.00, 0.00, -0.00, -1.00, 1248.8, 881.7)">8</text></g></svg>