<?xml version="1.0" encoding="UTF-8" standalone="no"?><svg xmlns="http://www.w3.org/2000/svg" xmlns:xlink="http://www.w3.org/1999/xlink" clip-rule="evenodd" stroke-miterlimit="10" viewBox="0 0 513 61"><desc>SVG generated by Keynote</desc><defs></defs><g transform="matrix(1.00, 0.00, -0.00, -1.00, 0.0, 61.0)"><text xml:space="preserve" font-family="ArialRoundedMTBold,Arial Rounded MT Bold" font-size="64.0" fill="#000000" transform="matrix(1.00, 0.00, -0.00, -1.00, -1.6, 12.7)">3</text><text xml:space="preserve" font-family="ArialRoundedMTBold,Arial Rounded MT Bold" font-size="64.0" fill="#000000" transform="matrix(1.00, 0.00, -0.00, -1.00, 55.4, 12.7)">7</text><text xml:space="preserve" font-family="ArialRoundedMTBold,Arial Rounded MT Bold" font-size="64.0" fill="#000000" transform="matrix(1.00, 0.00, -0.00, -1.00, 112.4, 12.7)">,</text><text xml:space="preserve" font-family="ArialRoundedMTBold,Arial Rounded MT Bold" font-size="64.0" fill="#000000" transform="matrix(1.00, 0.00, -0.00, -1.00, 151.5, 12.7)">8</text><text xml:space="preserve" font-family="ArialRoundedMTBold,Arial Rounded MT Bold" font-size="64.0" fill="#000000" transform="matrix(1.00, 0.00, -0.00, -1.00, 208.5, 12.7)">3</text><text xml:space="preserve" font-family="ArialRoundedMTBold,Arial Rounded MT Bold" font-size="64.0" fill="#000000" transform="matrix(1.00, 0.00, -0.00, -1.00, 265.5, 12.7)">2</text><text xml:space="preserve" font-family="ArialRoundedMTBold,Arial Rounded MT Bold" font-size="64.0" fill="#000000" transform="matrix(1.00, 0.00, -0.00, -1.00, 322.5, 12.7)">,</text><text xml:space="preserve" font-family="ArialRoundedMTBold,Arial Rounded MT Bold" font-size="64.0" fill="#000000" transform="matrix(1.00, 0.00, -0.00, -1.00, 361.5, 12.7)">1</text><text xml:space="preserve" font-family="ArialRoundedMTBold,Arial Rounded MT Bold" font-size="64.0" fill="#000000" transform="matrix(1.00, 0.00, -0.00, -1.00, 418.5, 12.7)">4</text><text xml:space="preserve" font-family="ArialRoundedMTBold,Arial Rounded MT Bold" font-size="64.0" fill="#000000" transform="matrix(1.00, 0.00, -0.00, -1.00, 475.5, 12.7)">8</text></g></svg>