<?xml version="1.0" encoding="UTF-8" standalone="no"?><svg xmlns="http://www.w3.org/2000/svg" xmlns:xlink="http://www.w3.org/1999/xlink" clip-rule="evenodd" stroke-miterlimit="10" viewBox="0 0 1335 772"><desc>SVG generated by Keynote</desc><defs></defs><g transform="matrix(1.00, 0.00, -0.00, -1.00, 0.0, 772.0)"><text xml:space="preserve" font-family="Avenir-Light,Avenir" font-size="86.0" fill="#000000" transform="matrix(1.00, 0.00, -0.00, -1.00, 463.7, 705.7)">R</text><text xml:space="preserve" font-family="Avenir-Light,Avenir" font-size="86.0" fill="#000000" transform="matrix(1.00, 0.00, -0.00, -1.00, 514.7, 705.7)">e</text><text xml:space="preserve" font-family="Avenir-Light,Avenir" font-size="86.0" fill="#000000" transform="matrix(1.00, 0.00, -0.00, -1.00, 562.5, 705.7)">d</text><text xml:space="preserve" font-family="Avenir-Light,Avenir" font-size="86.0" fill="#000000" transform="matrix(1.00, 0.00, -0.00, -1.00, 615.1, 705.7)">o</text><text xml:space="preserve" font-family="Avenir-Light,Avenir" font-size="86.0" fill="#000000" transform="matrix(1.00, 0.00, -0.00, -1.00, 666.2, 705.7)">n</text><text xml:space="preserve" font-family="Avenir-Light,Avenir" font-size="86.0" fill="#000000" transform="matrix(1.00, 0.00, -0.00, -1.00, 714.0, 705.7)">d</text><text xml:space="preserve" font-family="Avenir-Light,Avenir" font-size="86.0" fill="#000000" transform="matrix(1.00, 0.00, -0.00, -1.00, 766.5, 705.7)">e</text><text xml:space="preserve" font-family="Avenir-Light,Avenir" font-size="86.0" fill="#000000" transform="matrix(1.00, 0.00, -0.00, -1.00, 814.3, 705.7)">o</text><text xml:space="preserve" font-family="Avenir-Light,Avenir" font-size="86.0" fill="#000000" transform="matrix(1.00, 0.00, -0.00, -1.00, 865.4, 705.7)"> </text><text xml:space="preserve" font-family="Avenir-Light,Avenir" font-size="86.0" fill="#000000" transform="matrix(1.00, 0.00, -0.00, -1.00, 887.8, 705.7)"> </text><text xml:space="preserve" font-family="Avenir-Light,Avenir" font-size="86.0" fill="#000000" transform="matrix(1.00, 0.00, -0.00, -1.00, 546.6, 588.7)">s</text><text xml:space="preserve" font-family="Avenir-Light,Avenir" font-size="86.0" fill="#000000" transform="matrix(1.00, 0.00, -0.00, -1.00, 583.3, 588.7)">e</text><text xml:space="preserve" font-family="Avenir-Light,Avenir" font-size="86.0" fill="#000000" transform="matrix(1.00, 0.00, -0.00, -1.00, 631.1, 588.7)"> </text><text xml:space="preserve" font-family="Avenir-Light,Avenir" font-size="86.0" fill="#000000" transform="matrix(1.00, 0.00, -0.00, -1.00, 653.4, 588.7)">u</text><text xml:space="preserve" font-family="Avenir-Light,Avenir" font-size="86.0" fill="#000000" transform="matrix(1.00, 0.00, -0.00, -1.00, 701.3, 588.7)">s</text><text xml:space="preserve" font-family="Avenir-Light,Avenir" font-size="86.0" fill="#000000" transform="matrix(1.00, 0.00, -0.00, -1.00, 737.9, 588.7)">a</text><text xml:space="preserve" font-family="Avenir-Light,Avenir" font-size="86.0" fill="#000000" transform="matrix(1.00, 0.00, -0.00, -1.00, 782.5, 588.7)"> </text><text xml:space="preserve" font-family="Avenir-Light,Avenir" font-size="86.0" fill="#000000" transform="matrix(1.00, 0.00, -0.00, -1.00, 804.9, 588.7)"> </text><text xml:space="preserve" font-family="Avenir-Light,Avenir" font-size="86.0" fill="#000000" transform="matrix(1.00, 0.00, -0.00, -1.00, -3.9, 471.7)">p</text><text xml:space="preserve" font-family="Avenir-Light,Avenir" font-size="86.0" fill="#000000" transform="matrix(1.00, 0.00, -0.00, -1.00, 48.7, 471.7)">a</text><text xml:space="preserve" font-family="Avenir-Light,Avenir" font-size="86.0" fill="#000000" transform="matrix(1.00, 0.00, -0.00, -1.00, 93.3, 471.7)">r</text><text xml:space="preserve" font-family="Avenir-Light,Avenir" font-size="86.0" fill="#000000" transform="matrix(1.00, 0.00, -0.00, -1.00, 122.0, 471.7)">a</text><text xml:space="preserve" font-family="Avenir-Light,Avenir" font-size="86.0" fill="#000000" transform="matrix(1.00, 0.00, -0.00, -1.00, 166.6, 471.7)"> </text><text xml:space="preserve" font-family="Avenir-Light,Avenir" font-size="86.0" fill="#000000" transform="matrix(1.00, 0.00, -0.00, -1.00, 189.0, 471.7)">l</text><text xml:space="preserve" font-family="Avenir-Light,Avenir" font-size="86.0" fill="#000000" transform="matrix(1.00, 0.00, -0.00, -1.00, 209.7, 471.7)">i</text><text xml:space="preserve" font-family="Avenir-Light,Avenir" font-size="86.0" fill="#000000" transform="matrix(1.00, 0.00, -0.00, -1.00, 230.3, 471.7)">m</text><text xml:space="preserve" font-family="Avenir-Light,Avenir" font-size="86.0" fill="#000000" transform="matrix(1.00, 0.00, -0.00, -1.00, 303.6, 471.7)">i</text><text xml:space="preserve" font-family="Avenir-Light,Avenir" font-size="86.0" fill="#000000" transform="matrix(1.00, 0.00, -0.00, -1.00, 324.2, 471.7)">t</text><text xml:space="preserve" font-family="Avenir-Light,Avenir" font-size="86.0" fill="#000000" transform="matrix(1.00, 0.00, -0.00, -1.00, 352.9, 471.7)">a</text><text xml:space="preserve" font-family="Avenir-Light,Avenir" font-size="86.0" fill="#000000" transform="matrix(1.00, 0.00, -0.00, -1.00, 397.5, 471.7)">r</text><text xml:space="preserve" font-family="Avenir-Light,Avenir" font-size="86.0" fill="#000000" transform="matrix(1.00, 0.00, -0.00, -1.00, 426.1, 471.7)"> </text><text xml:space="preserve" font-family="Avenir-Light,Avenir" font-size="86.0" fill="#000000" transform="matrix(1.00, 0.00, -0.00, -1.00, 448.5, 471.7)">e</text><text xml:space="preserve" font-family="Avenir-Light,Avenir" font-size="86.0" fill="#000000" transform="matrix(1.00, 0.00, -0.00, -1.00, 496.3, 471.7)">l</text><text xml:space="preserve" font-family="Avenir-Light,Avenir" font-size="86.0" fill="#000000" transform="matrix(1.00, 0.00, -0.00, -1.00, 517.0, 471.7)"> </text><text xml:space="preserve" font-family="Avenir-Light,Avenir" font-size="86.0" fill="#000000" transform="matrix(1.00, 0.00, -0.00, -1.00, 539.3, 471.7)">n</text><text xml:space="preserve" font-family="Avenir-Light,Avenir" font-size="86.0" fill="#000000" transform="matrix(1.00, 0.00, -0.00, -1.00, 587.1, 471.7)">ú</text><text xml:space="preserve" font-family="Avenir-Light,Avenir" font-size="86.0" fill="#000000" transform="matrix(1.00, 0.00, -0.00, -1.00, 634.9, 471.7)">m</text><text xml:space="preserve" font-family="Avenir-Light,Avenir" font-size="86.0" fill="#000000" transform="matrix(1.00, 0.00, -0.00, -1.00, 708.2, 471.7)">e</text><text xml:space="preserve" font-family="Avenir-Light,Avenir" font-size="86.0" fill="#000000" transform="matrix(1.00, 0.00, -0.00, -1.00, 756.0, 471.7)">r</text><text xml:space="preserve" font-family="Avenir-Light,Avenir" font-size="86.0" fill="#000000" transform="matrix(1.00, 0.00, -0.00, -1.00, 783.1, 471.7)">o</text><text xml:space="preserve" font-family="Avenir-Light,Avenir" font-size="86.0" fill="#000000" transform="matrix(1.00, 0.00, -0.00, -1.00, 834.2, 471.7)"> </text><text xml:space="preserve" font-family="Avenir-Light,Avenir" font-size="86.0" fill="#000000" transform="matrix(1.00, 0.00, -0.00, -1.00, 856.6, 471.7)">d</text><text xml:space="preserve" font-family="Avenir-Light,Avenir" font-size="86.0" fill="#000000" transform="matrix(1.00, 0.00, -0.00, -1.00, 909.1, 471.7)">e</text><text xml:space="preserve" font-family="Avenir-Light,Avenir" font-size="86.0" fill="#000000" transform="matrix(1.00, 0.00, -0.00, -1.00, 956.9, 471.7)"> </text><text xml:space="preserve" font-family="Avenir-Light,Avenir" font-size="86.0" fill="#000000" transform="matrix(1.00, 0.00, -0.00, -1.00, 979.3, 471.7)">p</text><text xml:space="preserve" font-family="Avenir-Light,Avenir" font-size="86.0" fill="#000000" transform="matrix(1.00, 0.00, -0.00, -1.00, 1031.8, 471.7)">l</text><text xml:space="preserve" font-family="Avenir-Light,Avenir" font-size="86.0" fill="#000000" transform="matrix(1.00, 0.00, -0.00, -1.00, 1052.5, 471.7)">a</text><text xml:space="preserve" font-family="Avenir-Light,Avenir" font-size="86.0" fill="#000000" transform="matrix(1.00, 0.00, -0.00, -1.00, 1097.1, 471.7)">z</text><text xml:space="preserve" font-family="Avenir-Light,Avenir" font-size="86.0" fill="#000000" transform="matrix(1.00, 0.00, -0.00, -1.00, 1133.7, 471.7)">a</text><text xml:space="preserve" font-family="Avenir-Light,Avenir" font-size="86.0" fill="#000000" transform="matrix(1.00, 0.00, -0.00, -1.00, 1178.4, 471.7)">s</text><text xml:space="preserve" font-family="Avenir-Light,Avenir" font-size="86.0" fill="#000000" transform="matrix(1.00, 0.00, -0.00, -1.00, 1215.0, 471.7)"> </text><text xml:space="preserve" font-family="Avenir-Light,Avenir" font-size="86.0" fill="#000000" transform="matrix(1.00, 0.00, -0.00, -1.00, 1237.4, 471.7)">e</text><text xml:space="preserve" font-family="Avenir-Light,Avenir" font-size="86.0" fill="#000000" transform="matrix(1.00, 0.00, -0.00, -1.00, 1285.2, 471.7)">n</text><text xml:space="preserve" font-family="Avenir-Light,Avenir" font-size="86.0" fill="#000000" transform="matrix(1.00, 0.00, -0.00, -1.00, 1333.0, 471.7)"> </text><text xml:space="preserve" font-family="Avenir-Light,Avenir" font-size="86.0" fill="#000000" transform="matrix(1.00, 0.00, -0.00, -1.00, 458.1, 354.7)">u</text><text xml:space="preserve" font-family="Avenir-Light,Avenir" font-size="86.0" fill="#000000" transform="matrix(1.00, 0.00, -0.00, -1.00, 505.9, 354.7)">n</text><text xml:space="preserve" font-family="Avenir-Light,Avenir" font-size="86.0" fill="#000000" transform="matrix(1.00, 0.00, -0.00, -1.00, 553.8, 354.7)"> </text><text xml:space="preserve" font-family="Avenir-Light,Avenir" font-size="86.0" fill="#000000" transform="matrix(1.00, 0.00, -0.00, -1.00, 576.1, 354.7)">n</text><text xml:space="preserve" font-family="Avenir-Light,Avenir" font-size="86.0" fill="#000000" transform="matrix(1.00, 0.00, -0.00, -1.00, 623.9, 354.7)">ú</text><text xml:space="preserve" font-family="Avenir-Light,Avenir" font-size="86.0" fill="#000000" transform="matrix(1.00, 0.00, -0.00, -1.00, 671.8, 354.7)">m</text><text xml:space="preserve" font-family="Avenir-Light,Avenir" font-size="86.0" fill="#000000" transform="matrix(1.00, 0.00, -0.00, -1.00, 745.0, 354.7)">e</text><text xml:space="preserve" font-family="Avenir-Light,Avenir" font-size="86.0" fill="#000000" transform="matrix(1.00, 0.00, -0.00, -1.00, 792.8, 354.7)">r</text><text xml:space="preserve" font-family="Avenir-Light,Avenir" font-size="86.0" fill="#000000" transform="matrix(1.00, 0.00, -0.00, -1.00, 819.9, 354.7)">o</text><text xml:space="preserve" font-family="Avenir-Light,Avenir" font-size="86.0" fill="#000000" transform="matrix(1.00, 0.00, -0.00, -1.00, 871.0, 354.7)"> </text><text xml:space="preserve" font-family="Avenir-Light,Avenir" font-size="86.0" fill="#000000" transform="matrix(1.00, 0.00, -0.00, -1.00, 893.4, 354.7)"> </text><text xml:space="preserve" font-family="Avenir-Light,Avenir" font-size="86.0" fill="#000000" transform="matrix(1.00, 0.00, -0.00, -1.00, 409.6, 237.7)">m</text><text xml:space="preserve" font-family="Avenir-Light,Avenir" font-size="86.0" fill="#000000" transform="matrix(1.00, 0.00, -0.00, -1.00, 482.9, 237.7)">a</text><text xml:space="preserve" font-family="Avenir-Light,Avenir" font-size="86.0" fill="#000000" transform="matrix(1.00, 0.00, -0.00, -1.00, 527.5, 237.7)">n</text><text xml:space="preserve" font-family="Avenir-Light,Avenir" font-size="86.0" fill="#000000" transform="matrix(1.00, 0.00, -0.00, -1.00, 575.4, 237.7)">t</text><text xml:space="preserve" font-family="Avenir-Light,Avenir" font-size="86.0" fill="#000000" transform="matrix(1.00, 0.00, -0.00, -1.00, 604.0, 237.7)">e</text><text xml:space="preserve" font-family="Avenir-Light,Avenir" font-size="86.0" fill="#000000" transform="matrix(1.00, 0.00, -0.00, -1.00, 651.8, 237.7)">n</text><text xml:space="preserve" font-family="Avenir-Light,Avenir" font-size="86.0" fill="#000000" transform="matrix(1.00, 0.00, -0.00, -1.00, 699.6, 237.7)">i</text><text xml:space="preserve" font-family="Avenir-Light,Avenir" font-size="86.0" fill="#000000" transform="matrix(1.00, 0.00, -0.00, -1.00, 720.3, 237.7)">e</text><text xml:space="preserve" font-family="Avenir-Light,Avenir" font-size="86.0" fill="#000000" transform="matrix(1.00, 0.00, -0.00, -1.00, 768.1, 237.7)">n</text><text xml:space="preserve" font-family="Avenir-Light,Avenir" font-size="86.0" fill="#000000" transform="matrix(1.00, 0.00, -0.00, -1.00, 815.9, 237.7)">d</text><text xml:space="preserve" font-family="Avenir-Light,Avenir" font-size="86.0" fill="#000000" transform="matrix(1.00, 0.00, -0.00, -1.00, 868.4, 237.7)">o</text><text xml:space="preserve" font-family="Avenir-Light,Avenir" font-size="86.0" fill="#000000" transform="matrix(1.00, 0.00, -0.00, -1.00, 919.5, 237.7)"> </text><text xml:space="preserve" font-family="Avenir-Light,Avenir" font-size="86.0" fill="#000000" transform="matrix(1.00, 0.00, -0.00, -1.00, 941.9, 237.7)"> </text><text xml:space="preserve" font-family="Avenir-Light,Avenir" font-size="86.0" fill="#000000" transform="matrix(1.00, 0.00, -0.00, -1.00, 315.7, 120.7)">a</text><text xml:space="preserve" font-family="Avenir-Light,Avenir" font-size="86.0" fill="#000000" transform="matrix(1.00, 0.00, -0.00, -1.00, 360.3, 120.7)">p</text><text xml:space="preserve" font-family="Avenir-Light,Avenir" font-size="86.0" fill="#000000" transform="matrix(1.00, 0.00, -0.00, -1.00, 412.9, 120.7)">r</text><text xml:space="preserve" font-family="Avenir-Light,Avenir" font-size="86.0" fill="#000000" transform="matrix(1.00, 0.00, -0.00, -1.00, 439.9, 120.7)">o</text><text xml:space="preserve" font-family="Avenir-Light,Avenir" font-size="86.0" fill="#000000" transform="matrix(1.00, 0.00, -0.00, -1.00, 491.0, 120.7)">x</text><text xml:space="preserve" font-family="Avenir-Light,Avenir" font-size="86.0" fill="#000000" transform="matrix(1.00, 0.00, -0.00, -1.00, 532.4, 120.7)">i</text><text xml:space="preserve" font-family="Avenir-Light,Avenir" font-size="86.0" fill="#000000" transform="matrix(1.00, 0.00, -0.00, -1.00, 553.0, 120.7)">m</text><text xml:space="preserve" font-family="Avenir-Light,Avenir" font-size="86.0" fill="#000000" transform="matrix(1.00, 0.00, -0.00, -1.00, 626.3, 120.7)">a</text><text xml:space="preserve" font-family="Avenir-Light,Avenir" font-size="86.0" fill="#000000" transform="matrix(1.00, 0.00, -0.00, -1.00, 670.9, 120.7)">d</text><text xml:space="preserve" font-family="Avenir-Light,Avenir" font-size="86.0" fill="#000000" transform="matrix(1.00, 0.00, -0.00, -1.00, 723.5, 120.7)">a</text><text xml:space="preserve" font-family="Avenir-Light,Avenir" font-size="86.0" fill="#000000" transform="matrix(1.00, 0.00, -0.00, -1.00, 768.1, 120.7)">m</text><text xml:space="preserve" font-family="Avenir-Light,Avenir" font-size="86.0" fill="#000000" transform="matrix(1.00, 0.00, -0.00, -1.00, 841.4, 120.7)">e</text><text xml:space="preserve" font-family="Avenir-Light,Avenir" font-size="86.0" fill="#000000" transform="matrix(1.00, 0.00, -0.00, -1.00, 889.2, 120.7)">n</text><text xml:space="preserve" font-family="Avenir-Light,Avenir" font-size="86.0" fill="#000000" transform="matrix(1.00, 0.00, -0.00, -1.00, 937.0, 120.7)">t</text><text xml:space="preserve" font-family="Avenir-Light,Avenir" font-size="86.0" fill="#000000" transform="matrix(1.00, 0.00, -0.00, -1.00, 965.7, 120.7)">e</text><text xml:space="preserve" font-family="Avenir-Light,Avenir" font-size="86.0" fill="#000000" transform="matrix(1.00, 0.00, -0.00, -1.00, 1013.5, 120.7)"> </text><text xml:space="preserve" font-family="Avenir-Light,Avenir" font-size="86.0" fill="#000000" transform="matrix(1.00, 0.00, -0.00, -1.00, 1035.8, 120.7)"> </text><text xml:space="preserve" font-family="Avenir-Light,Avenir" font-size="86.0" fill="#000000" transform="matrix(1.00, 0.00, -0.00, -1.00, 285.3, 3.7)">e</text><text xml:space="preserve" font-family="Avenir-Light,Avenir" font-size="86.0" fill="#000000" transform="matrix(1.00, 0.00, -0.00, -1.00, 333.1, 3.7)">l</text><text xml:space="preserve" font-family="Avenir-Light,Avenir" font-size="86.0" fill="#000000" transform="matrix(1.00, 0.00, -0.00, -1.00, 353.7, 3.7)"> </text><text xml:space="preserve" font-family="Avenir-Light,Avenir" font-size="86.0" fill="#000000" transform="matrix(1.00, 0.00, -0.00, -1.00, 376.1, 3.7)">v</text><text xml:space="preserve" font-family="Avenir-Light,Avenir" font-size="86.0" fill="#000000" transform="matrix(1.00, 0.00, -0.00, -1.00, 415.9, 3.7)">a</text><text xml:space="preserve" font-family="Avenir-Light,Avenir" font-size="86.0" fill="#000000" transform="matrix(1.00, 0.00, -0.00, -1.00, 460.5, 3.7)">l</text><text xml:space="preserve" font-family="Avenir-Light,Avenir" font-size="86.0" fill="#000000" transform="matrix(1.00, 0.00, -0.00, -1.00, 481.2, 3.7)">o</text><text xml:space="preserve" font-family="Avenir-Light,Avenir" font-size="86.0" fill="#000000" transform="matrix(1.00, 0.00, -0.00, -1.00, 532.3, 3.7)">r</text><text xml:space="preserve" font-family="Avenir-Light,Avenir" font-size="86.0" fill="#000000" transform="matrix(1.00, 0.00, -0.00, -1.00, 560.9, 3.7)"> </text><text xml:space="preserve" font-family="Avenir-Light,Avenir" font-size="86.0" fill="#000000" transform="matrix(1.00, 0.00, -0.00, -1.00, 583.3, 3.7)">d</text><text xml:space="preserve" font-family="Avenir-Light,Avenir" font-size="86.0" fill="#000000" transform="matrix(1.00, 0.00, -0.00, -1.00, 635.8, 3.7)">e</text><text xml:space="preserve" font-family="Avenir-Light,Avenir" font-size="86.0" fill="#000000" transform="matrix(1.00, 0.00, -0.00, -1.00, 683.6, 3.7)">l</text><text xml:space="preserve" font-family="Avenir-Light,Avenir" font-size="86.0" fill="#000000" transform="matrix(1.00, 0.00, -0.00, -1.00, 704.3, 3.7)"> </text><text xml:space="preserve" font-family="Avenir-Light,Avenir" font-size="86.0" fill="#000000" transform="matrix(1.00, 0.00, -0.00, -1.00, 726.6, 3.7)">n</text><text xml:space="preserve" font-family="Avenir-Light,Avenir" font-size="86.0" fill="#000000" transform="matrix(1.00, 0.00, -0.00, -1.00, 774.4, 3.7)">ú</text><text xml:space="preserve" font-family="Avenir-Light,Avenir" font-size="86.0" fill="#000000" transform="matrix(1.00, 0.00, -0.00, -1.00, 822.3, 3.7)">m</text><text xml:space="preserve" font-family="Avenir-Light,Avenir" font-size="86.0" fill="#000000" transform="matrix(1.00, 0.00, -0.00, -1.00, 895.5, 3.7)">e</text><text xml:space="preserve" font-family="Avenir-Light,Avenir" font-size="86.0" fill="#000000" transform="matrix(1.00, 0.00, -0.00, -1.00, 943.3, 3.7)">r</text><text xml:space="preserve" font-family="Avenir-Light,Avenir" font-size="86.0" fill="#000000" transform="matrix(1.00, 0.00, -0.00, -1.00, 970.4, 3.7)">o</text><text xml:space="preserve" font-family="Avenir-Light,Avenir" font-size="86.0" fill="#000000" transform="matrix(1.00, 0.00, -0.00, -1.00, 1021.5, 3.7)">.</text><text xml:space="preserve" font-family="Avenir-Light,Avenir" font-size="86.0" fill="#000000" transform="matrix(1.00, 0.00, -0.00, -1.00, 1043.9, 3.7)"> </text></g></svg>