<?xml version="1.0" encoding="UTF-8" standalone="no"?><svg xmlns="http://www.w3.org/2000/svg" xmlns:xlink="http://www.w3.org/1999/xlink" clip-rule="evenodd" stroke-miterlimit="10" viewBox="0 0 1429 205"><desc>SVG generated by Keynote</desc><defs></defs><g transform="matrix(1.00, 0.00, -0.00, -1.00, 0.0, 205.0)"><path d="M 2.0 203.0 L 1428.0 203.0 L 1428.0 2.0 L 2.0 2.0 Z M 2.0 203.2 " fill="#FFFFFF"></path><g><clipPath id="clip0x7f8761073b80"><path d="M -12.4 -12.4 L 1442.0 -12.4 L 1442.0 217.6 L -12.4 217.6 Z M -12.4 -12.4 "></path></clipPath><g clip-path="url(#clip0x7f8761073b80)"><text xml:space="preserve" font-family="ComicSansMS,Comic Sans MS" font-size="66.0" fill="#000000" transform="matrix(1.00, 0.00, -0.00, -1.00, 34.7, 121.8)">C</text><text xml:space="preserve" font-family="ComicSansMS,Comic Sans MS" font-size="66.0" fill="#000000" transform="matrix(1.00, 0.00, -0.00, -1.00, 74.4, 121.8)">u</text><text xml:space="preserve" font-family="ComicSansMS,Comic Sans MS" font-size="66.0" fill="#000000" transform="matrix(1.00, 0.00, -0.00, -1.00, 108.8, 121.8)">a</text><text xml:space="preserve" font-family="ComicSansMS,Comic Sans MS" font-size="66.0" fill="#000000" transform="matrix(1.00, 0.00, -0.00, -1.00, 142.5, 121.8)">n</text><text xml:space="preserve" font-family="ComicSansMS,Comic Sans MS" font-size="66.0" fill="#000000" transform="matrix(1.00, 0.00, -0.00, -1.00, 177.1, 121.8)">d</text><text xml:space="preserve" font-family="ComicSansMS,Comic Sans MS" font-size="66.0" fill="#000000" transform="matrix(1.00, 0.00, -0.00, -1.00, 215.9, 121.8)">o</text><text xml:space="preserve" font-family="ComicSansMS,Comic Sans MS" font-size="66.0" fill="#000000" transform="matrix(1.00, 0.00, -0.00, -1.00, 250.6, 121.8)"> </text><text xml:space="preserve" font-family="ComicSansMS,Comic Sans MS" font-size="66.0" fill="#000000" transform="matrix(1.00, 0.00, -0.00, -1.00, 270.3, 121.8)">h</text><text xml:space="preserve" font-family="ComicSansMS,Comic Sans MS" font-size="66.0" fill="#000000" transform="matrix(1.00, 0.00, -0.00, -1.00, 308.4, 121.8)">a</text><text xml:space="preserve" font-family="ComicSansMS,Comic Sans MS" font-size="66.0" fill="#000000" transform="matrix(1.00, 0.00, -0.00, -1.00, 342.1, 121.8)">y</text><text xml:space="preserve" font-family="ComicSansMS,Comic Sans MS" font-size="66.0" fill="#000000" transform="matrix(1.00, 0.00, -0.00, -1.00, 376.5, 121.8)"> </text><text xml:space="preserve" font-family="ComicSansMS,Comic Sans MS" font-size="66.0" fill="#000000" transform="matrix(1.00, 0.00, -0.00, -1.00, 396.2, 121.8)">n</text><text xml:space="preserve" font-family="ComicSansMS,Comic Sans MS" font-size="66.0" fill="#000000" transform="matrix(1.00, 0.00, -0.00, -1.00, 430.7, 121.8)">a</text><text xml:space="preserve" font-family="ComicSansMS,Comic Sans MS" font-size="66.0" fill="#000000" transform="matrix(1.00, 0.00, -0.00, -1.00, 464.5, 121.8)">d</text><text xml:space="preserve" font-family="ComicSansMS,Comic Sans MS" font-size="66.0" fill="#000000" transform="matrix(1.00, 0.00, -0.00, -1.00, 503.3, 121.8)">a</text><text xml:space="preserve" font-family="ComicSansMS,Comic Sans MS" font-size="66.0" fill="#000000" transform="matrix(1.00, 0.00, -0.00, -1.00, 537.1, 121.8)"> </text><text xml:space="preserve" font-family="ComicSansMS,Comic Sans MS" font-size="66.0" fill="#000000" transform="matrix(1.00, 0.00, -0.00, -1.00, 556.8, 121.8)">m</text><text xml:space="preserve" font-family="ComicSansMS,Comic Sans MS" font-size="66.0" fill="#000000" transform="matrix(1.00, 0.00, -0.00, -1.00, 608.0, 121.8)">á</text><text xml:space="preserve" font-family="ComicSansMS,Comic Sans MS" font-size="66.0" fill="#000000" transform="matrix(1.00, 0.00, -0.00, -1.00, 641.8, 121.8)">s</text><text xml:space="preserve" font-family="ComicSansMS,Comic Sans MS" font-size="66.0" fill="#000000" transform="matrix(1.00, 0.00, -0.00, -1.00, 673.9, 121.8)"> </text><text xml:space="preserve" font-family="ComicSansMS,Comic Sans MS" font-size="66.0" fill="#000000" transform="matrix(1.00, 0.00, -0.00, -1.00, 693.6, 121.8)">u</text><text xml:space="preserve" font-family="ComicSansMS,Comic Sans MS" font-size="66.0" fill="#000000" transform="matrix(1.00, 0.00, -0.00, -1.00, 727.9, 121.8)">n</text><text xml:space="preserve" font-family="ComicSansMS,Comic Sans MS" font-size="66.0" fill="#000000" transform="matrix(1.00, 0.00, -0.00, -1.00, 762.5, 121.8)">a</text><text xml:space="preserve" font-family="ComicSansMS,Comic Sans MS" font-size="66.0" fill="#000000" transform="matrix(1.00, 0.00, -0.00, -1.00, 796.3, 121.8)"> </text><text xml:space="preserve" font-family="ComicSansMS,Comic Sans MS" font-size="66.0" fill="#000000" transform="matrix(1.00, 0.00, -0.00, -1.00, 816.0, 121.8)">c</text><text xml:space="preserve" font-family="ComicSansMS,Comic Sans MS" font-size="66.0" fill="#000000" transform="matrix(1.00, 0.00, -0.00, -1.00, 849.8, 121.8)">o</text><text xml:space="preserve" font-family="ComicSansMS,Comic Sans MS" font-size="66.0" fill="#000000" transform="matrix(1.00, 0.00, -0.00, -1.00, 884.5, 121.8)">m</text><text xml:space="preserve" font-family="ComicSansMS,Comic Sans MS" font-size="66.0" fill="#000000" transform="matrix(1.00, 0.00, -0.00, -1.00, 935.8, 121.8)">a</text><text xml:space="preserve" font-family="ComicSansMS,Comic Sans MS" font-size="66.0" fill="#000000" transform="matrix(1.00, 0.00, -0.00, -1.00, 969.6, 121.8)"> </text><text xml:space="preserve" font-family="ComicSansMS,Comic Sans MS" font-size="66.0" fill="#000000" transform="matrix(1.00, 0.00, -0.00, -1.00, 989.3, 121.8)">e</text><text xml:space="preserve" font-family="ComicSansMS,Comic Sans MS" font-size="66.0" fill="#000000" transform="matrix(1.00, 0.00, -0.00, -1.00, 1025.4, 121.8)">n</text><text xml:space="preserve" font-family="ComicSansMS,Comic Sans MS" font-size="66.0" fill="#000000" transform="matrix(1.00, 0.00, -0.00, -1.00, 1060.0, 121.8)"> </text><text xml:space="preserve" font-family="ComicSansMS,Comic Sans MS" font-size="66.0" fill="#000000" transform="matrix(1.00, 0.00, -0.00, -1.00, 1079.7, 121.8)">e</text><text xml:space="preserve" font-family="ComicSansMS,Comic Sans MS" font-size="66.0" fill="#000000" transform="matrix(1.00, 0.00, -0.00, -1.00, 1115.9, 121.8)">l</text><text xml:space="preserve" font-family="ComicSansMS,Comic Sans MS" font-size="66.0" fill="#000000" transform="matrix(1.00, 0.00, -0.00, -1.00, 1133.9, 121.8)"> </text><text xml:space="preserve" font-family="ComicSansMS,Comic Sans MS" font-size="66.0" fill="#000000" transform="matrix(1.00, 0.00, -0.00, -1.00, 1153.6, 121.8)">n</text><text xml:space="preserve" font-family="ComicSansMS,Comic Sans MS" font-size="66.0" fill="#000000" transform="matrix(1.00, 0.00, -0.00, -1.00, 1188.2, 121.8)">ú</text><text xml:space="preserve" font-family="ComicSansMS,Comic Sans MS" font-size="66.0" fill="#000000" transform="matrix(1.00, 0.00, -0.00, -1.00, 1222.5, 121.8)">m</text><text xml:space="preserve" font-family="ComicSansMS,Comic Sans MS" font-size="66.0" fill="#000000" transform="matrix(1.00, 0.00, -0.00, -1.00, 1273.8, 121.8)">e</text><text xml:space="preserve" font-family="ComicSansMS,Comic Sans MS" font-size="66.0" fill="#000000" transform="matrix(1.00, 0.00, -0.00, -1.00, 1310.0, 121.8)">r</text><text xml:space="preserve" font-family="ComicSansMS,Comic Sans MS" font-size="66.0" fill="#000000" transform="matrix(1.00, 0.00, -0.00, -1.00, 1341.7, 121.8)">o</text><text xml:space="preserve" font-family="ComicSansMS,Comic Sans MS" font-size="66.0" fill="#000000" transform="matrix(1.00, 0.00, -0.00, -1.00, 1376.4, 121.8)">,</text><text xml:space="preserve" font-family="ComicSansMS,Comic Sans MS" font-size="66.0" fill="#000000" transform="matrix(1.00, 0.00, -0.00, -1.00, 1394.7, 121.8)"> </text><text xml:space="preserve" font-family="ComicSansMS-Bold,Comic Sans MS" font-weight="bold" font-size="66.0" fill="#000000" transform="matrix(1.00, 0.00, -0.00, -1.00, 583.9, 29.8)">d</text><text xml:space="preserve" font-family="ComicSansMS-Bold,Comic Sans MS" font-weight="bold" font-size="66.0" fill="#000000" transform="matrix(1.00, 0.00, -0.00, -1.00, 622.7, 29.8)">i</text><text xml:space="preserve" font-family="ComicSansMS-Bold,Comic Sans MS" font-weight="bold" font-size="66.0" fill="#000000" transform="matrix(1.00, 0.00, -0.00, -1.00, 641.2, 29.8)">g</text><text xml:space="preserve" font-family="ComicSansMS-Bold,Comic Sans MS" font-weight="bold" font-size="66.0" fill="#000000" transform="matrix(1.00, 0.00, -0.00, -1.00, 676.2, 29.8)">a</text><text xml:space="preserve" font-family="ComicSansMS-Bold,Comic Sans MS" font-weight="bold" font-size="66.0" fill="#000000" transform="matrix(1.00, 0.00, -0.00, -1.00, 712.8, 29.8)"> </text><text xml:space="preserve" font-family="ComicSansMS-Bold,Comic Sans MS" font-weight="bold" font-size="66.0" fill="#000000" transform="matrix(1.00, 0.00, -0.00, -1.00, 741.4, 29.8)">m</text><text xml:space="preserve" font-family="ComicSansMS-Bold,Comic Sans MS" font-weight="bold" font-size="66.0" fill="#000000" transform="matrix(1.00, 0.00, -0.00, -1.00, 792.6, 29.8)">i</text><text xml:space="preserve" font-family="ComicSansMS-Bold,Comic Sans MS" font-weight="bold" font-size="66.0" fill="#000000" transform="matrix(1.00, 0.00, -0.00, -1.00, 811.1, 29.8)">l</text><text xml:space="preserve" font-family="ComicSansMS,Comic Sans MS" font-size="66.0" fill="#000000" transform="matrix(1.00, 0.00, -0.00, -1.00, 829.3, 29.8)">.</text><path d="M 581.9 182.2 L 827.3 182.2 " fill="none" stroke="#000000" stroke-width="5.64" transform="matrix(1.00, 0.00, 0.00, -1.00, 2.0, 203.2)"></path></g></g></g></svg>