<?xml version="1.0" encoding="UTF-8" standalone="no"?><svg xmlns="http://www.w3.org/2000/svg" xmlns:xlink="http://www.w3.org/1999/xlink" clip-rule="evenodd" stroke-miterlimit="10" viewBox="0 0 152 52"><desc>SVG generated by Keynote</desc><defs></defs><g transform="matrix(1.00, 0.00, -0.00, -1.00, 0.0, 52.0)"><path d="M 0.0 0.0 L 146.9 0.0 L 146.9 45.5 L 0.0 45.5 Z M 0.0 0.0 " fill="none" stroke="#FFFFFF" stroke-width="1.00" stroke-linejoin="bevel" transform="matrix(1.00, 0.01, 0.01, -1.00, 2.3, 47.8)"></path><g><clipPath id="clip0x7f875edde210"><path d="M 2.8 47.3 L 148.7 49.1 L 149.2 4.6 L 3.4 2.8 Z M 2.8 47.3 "></path></clipPath><g clip-path="url(#clip0x7f875edde210)"><text xml:space="preserve" font-family="Arial-BoldMT,Arial" font-weight="bold" font-size="24.0" fill="#000000" transform="matrix(1.00, 0.01, 0.01, -1.00, 22.8, 16.8)">1</text><text xml:space="preserve" font-family="ArialMT,Arial" font-size="24.0" fill="#000000" transform="matrix(1.00, 0.01, 0.01, -1.00, 36.1, 16.9)">,</text><text xml:space="preserve" font-family="ArialMT,Arial" font-size="24.0" fill="#000000" transform="matrix(1.00, 0.01, 0.01, -1.00, 42.8, 17.0)">0</text><text xml:space="preserve" font-family="ArialMT,Arial" font-size="24.0" fill="#000000" transform="matrix(1.00, 0.01, 0.01, -1.00, 56.1, 17.2)">0</text><text xml:space="preserve" font-family="ArialMT,Arial" font-size="24.0" fill="#000000" transform="matrix(1.00, 0.01, 0.01, -1.00, 69.5, 17.4)">0</text><text xml:space="preserve" font-family="ArialMT,Arial" font-size="24.0" fill="#000000" transform="matrix(1.00, 0.01, 0.01, -1.00, 82.8, 17.5)">,</text><text xml:space="preserve" font-family="ArialMT,Arial" font-size="24.0" fill="#000000" transform="matrix(1.00, 0.01, 0.01, -1.00, 89.5, 17.6)">0</text><text xml:space="preserve" font-family="ArialMT,Arial" font-size="24.0" fill="#000000" transform="matrix(1.00, 0.01, 0.01, -1.00, 102.8, 17.8)">0</text><text xml:space="preserve" font-family="ArialMT,Arial" font-size="24.0" fill="#000000" transform="matrix(1.00, 0.01, 0.01, -1.00, 116.1, 17.9)">0</text></g></g></g></svg>