<?xml version="1.0" encoding="UTF-8" standalone="no"?><svg xmlns="http://www.w3.org/2000/svg" xmlns:xlink="http://www.w3.org/1999/xlink" clip-rule="evenodd" stroke-miterlimit="10" viewBox="0 0 1920 1080"><desc>SVG generated by Keynote</desc><defs></defs><g transform="matrix(1.00, 0.00, -0.00, -1.00, 0.0, 1080.0)"><path d="M 0.0 1080.0 L 1920.0 1080.0 L 1920.0 0.0 L 0.0 0.0 Z M 0.0 1080.0 " fill="#FFFFFF"></path><path d="M 398.5 583.5 L 1521.5 583.5 L 1521.5 393.5 L 398.5 393.5 Z M 398.4 583.2 " fill="#FFF430"></path><path d="M 0.1 -0.3 L 1123.1 -0.3 L 1123.1 189.7 L 0.1 189.7 Z M 0.0 0.0 " fill="none" stroke="#331D04" stroke-width="5.00" stroke-linejoin="bevel" transform="matrix(1.00, 0.00, 0.00, -1.00, 398.4, 583.2)"></path><g><clipPath id="clip0x7f8759d5d910"><path d="M 399.7 394.9 L 1520.3 394.9 L 1520.3 581.9 L 399.7 581.9 Z M 399.7 394.9 "></path></clipPath><g clip-path="url(#clip0x7f8759d5d910)"><text xml:space="preserve" font-family="ArialRoundedMTBold,Arial Rounded MT Bold" font-size="64.0" fill="#000000" transform="matrix(1.00, 0.00, -0.00, -1.00, 591.0, 501.9)">A</text><text xml:space="preserve" font-family="ArialRoundedMTBold,Arial Rounded MT Bold" font-size="64.0" fill="#000000" transform="matrix(1.00, 0.00, -0.00, -1.00, 637.1, 501.9)">l</text><text xml:space="preserve" font-family="ArialRoundedMTBold,Arial Rounded MT Bold" font-size="64.0" fill="#000000" transform="matrix(1.00, 0.00, -0.00, -1.00, 654.4, 501.9)"> </text><text xml:space="preserve" font-family="ArialRoundedMTBold,Arial Rounded MT Bold" font-size="64.0" fill="#000000" transform="matrix(1.00, 0.00, -0.00, -1.00, 670.4, 501.9)">r</text><text xml:space="preserve" font-family="ArialRoundedMTBold,Arial Rounded MT Bold" font-size="64.0" fill="#000000" transform="matrix(1.00, 0.00, -0.00, -1.00, 696.8, 501.9)">e</text><text xml:space="preserve" font-family="ArialRoundedMTBold,Arial Rounded MT Bold" font-size="64.0" fill="#000000" transform="matrix(1.00, 0.00, -0.00, -1.00, 734.9, 501.9)">d</text><text xml:space="preserve" font-family="ArialRoundedMTBold,Arial Rounded MT Bold" font-size="64.0" fill="#000000" transform="matrix(1.00, 0.00, -0.00, -1.00, 774.9, 501.9)">o</text><text xml:space="preserve" font-family="ArialRoundedMTBold,Arial Rounded MT Bold" font-size="64.0" fill="#000000" transform="matrix(1.00, 0.00, -0.00, -1.00, 813.5, 501.9)">n</text><text xml:space="preserve" font-family="ArialRoundedMTBold,Arial Rounded MT Bold" font-size="64.0" fill="#000000" transform="matrix(1.00, 0.00, -0.00, -1.00, 852.2, 501.9)">d</text><text xml:space="preserve" font-family="ArialRoundedMTBold,Arial Rounded MT Bold" font-size="64.0" fill="#000000" transform="matrix(1.00, 0.00, -0.00, -1.00, 892.2, 501.9)">e</text><text xml:space="preserve" font-family="ArialRoundedMTBold,Arial Rounded MT Bold" font-size="64.0" fill="#000000" transform="matrix(1.00, 0.00, -0.00, -1.00, 930.2, 501.9)">贸</text><text xml:space="preserve" font-family="ArialRoundedMTBold,Arial Rounded MT Bold" font-size="64.0" fill="#000000" transform="matrix(1.00, 0.00, -0.00, -1.00, 968.9, 501.9)"> </text><text xml:space="preserve" font-family="ArialRoundedMTBold,Arial Rounded MT Bold" font-size="64.0" fill="#000000" transform="matrix(1.00, 0.00, -0.00, -1.00, 984.9, 501.9)">l</text><text xml:space="preserve" font-family="ArialRoundedMTBold,Arial Rounded MT Bold" font-size="64.0" fill="#000000" transform="matrix(1.00, 0.00, -0.00, -1.00, 1002.2, 501.9)">a</text><text xml:space="preserve" font-family="ArialRoundedMTBold,Arial Rounded MT Bold" font-size="64.0" fill="#000000" transform="matrix(1.00, 0.00, -0.00, -1.00, 1040.3, 501.9)"> </text><text xml:space="preserve" font-family="ArialRoundedMTBold,Arial Rounded MT Bold" font-size="64.0" fill="#000000" transform="matrix(1.00, 0.00, -0.00, -1.00, 1056.3, 501.9)">c</text><text xml:space="preserve" font-family="ArialRoundedMTBold,Arial Rounded MT Bold" font-size="64.0" fill="#000000" transform="matrix(1.00, 0.00, -0.00, -1.00, 1094.3, 501.9)">a</text><text xml:space="preserve" font-family="ArialRoundedMTBold,Arial Rounded MT Bold" font-size="64.0" fill="#000000" transform="matrix(1.00, 0.00, -0.00, -1.00, 1132.4, 501.9)">n</text><text xml:space="preserve" font-family="ArialRoundedMTBold,Arial Rounded MT Bold" font-size="64.0" fill="#000000" transform="matrix(1.00, 0.00, -0.00, -1.00, 1171.0, 501.9)">t</text><text xml:space="preserve" font-family="ArialRoundedMTBold,Arial Rounded MT Bold" font-size="64.0" fill="#000000" transform="matrix(1.00, 0.00, -0.00, -1.00, 1193.7, 501.9)">i</text><text xml:space="preserve" font-family="ArialRoundedMTBold,Arial Rounded MT Bold" font-size="64.0" fill="#000000" transform="matrix(1.00, 0.00, -0.00, -1.00, 1211.0, 501.9)">d</text><text xml:space="preserve" font-family="ArialRoundedMTBold,Arial Rounded MT Bold" font-size="64.0" fill="#000000" transform="matrix(1.00, 0.00, -0.00, -1.00, 1251.0, 501.9)">a</text><text xml:space="preserve" font-family="ArialRoundedMTBold,Arial Rounded MT Bold" font-size="64.0" fill="#000000" transform="matrix(1.00, 0.00, -0.00, -1.00, 1289.1, 501.9)">d</text><text xml:space="preserve" font-family="ArialRoundedMTBold,Arial Rounded MT Bold" font-size="64.0" fill="#000000" transform="matrix(1.00, 0.00, -0.00, -1.00, 1329.1, 501.9)"> </text><text xml:space="preserve" font-family="ArialRoundedMTBold,Arial Rounded MT Bold" font-size="64.0" fill="#000000" transform="matrix(1.00, 0.00, -0.00, -1.00, 1345.1, 501.9)"> </text><text xml:space="preserve" font-family="ArialRoundedMTBold,Arial Rounded MT Bold" font-size="64.0" fill="#000000" transform="matrix(1.00, 0.00, -0.00, -1.00, 469.8, 426.9)">q</text><text xml:space="preserve" font-family="ArialRoundedMTBold,Arial Rounded MT Bold" font-size="64.0" fill="#000000" transform="matrix(1.00, 0.00, -0.00, -1.00, 509.8, 426.9)">u</text><text xml:space="preserve" font-family="ArialRoundedMTBold,Arial Rounded MT Bold" font-size="64.0" fill="#000000" transform="matrix(1.00, 0.00, -0.00, -1.00, 548.5, 426.9)">e</text><text xml:space="preserve" font-family="ArialRoundedMTBold,Arial Rounded MT Bold" font-size="64.0" fill="#000000" transform="matrix(1.00, 0.00, -0.00, -1.00, 586.5, 426.9)"> </text><text xml:space="preserve" font-family="ArialRoundedMTBold,Arial Rounded MT Bold" font-size="64.0" fill="#000000" transform="matrix(1.00, 0.00, -0.00, -1.00, 602.5, 426.9)">l</text><text xml:space="preserve" font-family="ArialRoundedMTBold,Arial Rounded MT Bold" font-size="64.0" fill="#000000" transform="matrix(1.00, 0.00, -0.00, -1.00, 619.9, 426.9)">a</text><text xml:space="preserve" font-family="ArialRoundedMTBold,Arial Rounded MT Bold" font-size="64.0" fill="#000000" transform="matrix(1.00, 0.00, -0.00, -1.00, 657.9, 426.9)"> </text><text xml:space="preserve" font-family="ArialRoundedMTBold,Arial Rounded MT Bold" font-size="64.0" fill="#000000" transform="matrix(1.00, 0.00, -0.00, -1.00, 673.9, 426.9)">p</text><text xml:space="preserve" font-family="ArialRoundedMTBold,Arial Rounded MT Bold" font-size="64.0" fill="#000000" transform="matrix(1.00, 0.00, -0.00, -1.00, 713.9, 426.9)">a</text><text xml:space="preserve" font-family="ArialRoundedMTBold,Arial Rounded MT Bold" font-size="64.0" fill="#000000" transform="matrix(1.00, 0.00, -0.00, -1.00, 751.1, 426.9)">g</text><text xml:space="preserve" font-family="ArialRoundedMTBold,Arial Rounded MT Bold" font-size="64.0" fill="#000000" transform="matrix(1.00, 0.00, -0.00, -1.00, 791.1, 426.9)">贸</text><text xml:space="preserve" font-family="ArialRoundedMTBold,Arial Rounded MT Bold" font-size="64.0" fill="#000000" transform="matrix(1.00, 0.00, -0.00, -1.00, 829.8, 426.9)"> </text><text xml:space="preserve" font-family="ArialRoundedMTBold,Arial Rounded MT Bold" font-size="64.0" fill="#000000" transform="matrix(1.00, 0.00, -0.00, -1.00, 845.8, 426.9)">d</text><text xml:space="preserve" font-family="ArialRoundedMTBold,Arial Rounded MT Bold" font-size="64.0" fill="#000000" transform="matrix(1.00, 0.00, -0.00, -1.00, 885.8, 426.9)">e</text><text xml:space="preserve" font-family="ArialRoundedMTBold,Arial Rounded MT Bold" font-size="64.0" fill="#000000" transform="matrix(1.00, 0.00, -0.00, -1.00, 923.8, 426.9)"> </text><text xml:space="preserve" font-family="ArialRoundedMTBold,Arial Rounded MT Bold" font-size="64.0" fill="#000000" transform="matrix(1.00, 0.00, -0.00, -1.00, 939.8, 426.9)">$</text><text xml:space="preserve" font-family="ArialRoundedMTBold,Arial Rounded MT Bold" font-size="64.0" fill="#000000" transform="matrix(1.00, 0.00, -0.00, -1.00, 977.9, 426.9)">2</text><text xml:space="preserve" font-family="ArialRoundedMTBold,Arial Rounded MT Bold" font-size="64.0" fill="#000000" transform="matrix(1.00, 0.00, -0.00, -1.00, 1015.9, 426.9)">1</text><text xml:space="preserve" font-family="ArialRoundedMTBold,Arial Rounded MT Bold" font-size="64.0" fill="#000000" transform="matrix(1.00, 0.00, -0.00, -1.00, 1053.9, 426.9)">.</text><text xml:space="preserve" font-family="ArialRoundedMTBold,Arial Rounded MT Bold" font-size="64.0" fill="#000000" transform="matrix(1.00, 0.00, -0.00, -1.00, 1074.0, 426.9)">0</text><text xml:space="preserve" font-family="ArialRoundedMTBold,Arial Rounded MT Bold" font-size="64.0" fill="#000000" transform="matrix(1.00, 0.00, -0.00, -1.00, 1112.0, 426.9)">0</text><text xml:space="preserve" font-family="ArialRoundedMTBold,Arial Rounded MT Bold" font-size="64.0" fill="#000000" transform="matrix(1.00, 0.00, -0.00, -1.00, 1150.1, 426.9)"> </text><text xml:space="preserve" font-family="ArialRoundedMTBold,Arial Rounded MT Bold" font-size="64.0" fill="#000000" transform="matrix(1.00, 0.00, -0.00, -1.00, 1166.1, 426.9)">a</text><text xml:space="preserve" font-family="ArialRoundedMTBold,Arial Rounded MT Bold" font-size="64.0" fill="#000000" transform="matrix(1.00, 0.00, -0.00, -1.00, 1204.1, 426.9)"> </text><text xml:space="preserve" font-family="ArialRoundedMTBold,Arial Rounded MT Bold" font-size="64.0" fill="#000000" transform="matrix(1.00, 0.00, -0.00, -1.00, 1220.1, 426.9)">$</text><text xml:space="preserve" font-family="ArialRoundedMTBold,Arial Rounded MT Bold" font-size="64.0" fill="#000000" transform="matrix(1.00, 0.00, -0.00, -1.00, 1258.1, 426.9)">2</text><text xml:space="preserve" font-family="ArialRoundedMTBold,Arial Rounded MT Bold" font-size="64.0" fill="#000000" transform="matrix(1.00, 0.00, -0.00, -1.00, 1296.2, 426.9)">0</text><text xml:space="preserve" font-family="ArialRoundedMTBold,Arial Rounded MT Bold" font-size="64.0" fill="#000000" transform="matrix(1.00, 0.00, -0.00, -1.00, 1334.2, 426.9)">.</text><text xml:space="preserve" font-family="ArialRoundedMTBold,Arial Rounded MT Bold" font-size="64.0" fill="#000000" transform="matrix(1.00, 0.00, -0.00, -1.00, 1354.3, 426.9)">0</text><text xml:space="preserve" font-family="ArialRoundedMTBold,Arial Rounded MT Bold" font-size="64.0" fill="#000000" transform="matrix(1.00, 0.00, -0.00, -1.00, 1392.3, 426.9)">0</text><text xml:space="preserve" font-family="ArialRoundedMTBold,Arial Rounded MT Bold" font-size="64.0" fill="#000000" transform="matrix(1.00, 0.00, -0.00, -1.00, 1430.4, 426.9)">.</text><text xml:space="preserve" font-family="ArialRoundedMTBold,Arial Rounded MT Bold" font-size="64.0" fill="#000000" transform="matrix(1.00, 0.00, -0.00, -1.00, 1450.4, 426.9)"> </text></g></g><text xml:space="preserve" font-family="Helvetica-Bold,Helvetica" font-weight="bold" font-size="72.0" fill="#000000" transform="matrix(1.00, 0.00, -0.00, -1.00, 452.1, 845.3)"> </text><text xml:space="preserve" font-family="ArialRoundedMTBold,Arial Rounded MT Bold" font-size="72.0" fill="#000000" transform="matrix(1.00, 0.00, -0.00, -1.00, 472.1, 845.3)">M</text><text xml:space="preserve" font-family="ArialRoundedMTBold,Arial Rounded MT Bold" font-size="72.0" fill="#000000" transform="matrix(1.00, 0.00, -0.00, -1.00, 532.0, 845.3)">a</text><text xml:space="preserve" font-family="ArialRoundedMTBold,Arial Rounded MT Bold" font-size="72.0" fill="#000000" transform="matrix(1.00, 0.00, -0.00, -1.00, 574.8, 845.3)">x</text><text xml:space="preserve" font-family="ArialRoundedMTBold,Arial Rounded MT Bold" font-size="72.0" fill="#000000" transform="matrix(1.00, 0.00, -0.00, -1.00, 612.4, 845.3)"> </text><text xml:space="preserve" font-family="ArialRoundedMTBold,Arial Rounded MT Bold" font-size="72.0" fill="#000000" transform="matrix(1.00, 0.00, -0.00, -1.00, 630.4, 845.3)">p</text><text xml:space="preserve" font-family="ArialRoundedMTBold,Arial Rounded MT Bold" font-size="72.0" fill="#000000" transform="matrix(1.00, 0.00, -0.00, -1.00, 675.4, 845.3)">r</text><text xml:space="preserve" font-family="ArialRoundedMTBold,Arial Rounded MT Bold" font-size="72.0" fill="#000000" transform="matrix(1.00, 0.00, -0.00, -1.00, 705.1, 845.3)">e</text><text xml:space="preserve" font-family="ArialRoundedMTBold,Arial Rounded MT Bold" font-size="72.0" fill="#000000" transform="matrix(1.00, 0.00, -0.00, -1.00, 747.9, 845.3)">s</text><text xml:space="preserve" font-family="ArialRoundedMTBold,Arial Rounded MT Bold" font-size="72.0" fill="#000000" transform="matrix(1.00, 0.00, -0.00, -1.00, 786.9, 845.3)">t</text><text xml:space="preserve" font-family="ArialRoundedMTBold,Arial Rounded MT Bold" font-size="72.0" fill="#000000" transform="matrix(1.00, 0.00, -0.00, -1.00, 812.4, 845.3)">贸</text><text xml:space="preserve" font-family="ArialRoundedMTBold,Arial Rounded MT Bold" font-size="72.0" fill="#000000" transform="matrix(1.00, 0.00, -0.00, -1.00, 855.9, 845.3)"> </text><text xml:space="preserve" font-family="ArialRoundedMTBold,Arial Rounded MT Bold" font-size="72.0" fill="#000000" transform="matrix(1.00, 0.00, -0.00, -1.00, 873.9, 845.3)">a</text><text xml:space="preserve" font-family="ArialRoundedMTBold,Arial Rounded MT Bold" font-size="72.0" fill="#000000" transform="matrix(1.00, 0.00, -0.00, -1.00, 916.7, 845.3)"> </text><text xml:space="preserve" font-family="ArialRoundedMTBold,Arial Rounded MT Bold" font-size="72.0" fill="#000000" transform="matrix(1.00, 0.00, -0.00, -1.00, 934.7, 845.3)">A</text><text xml:space="preserve" font-family="ArialRoundedMTBold,Arial Rounded MT Bold" font-size="72.0" fill="#000000" transform="matrix(1.00, 0.00, -0.00, -1.00, 986.5, 845.3)">l</text><text xml:space="preserve" font-family="ArialRoundedMTBold,Arial Rounded MT Bold" font-size="72.0" fill="#000000" transform="matrix(1.00, 0.00, -0.00, -1.00, 1006.0, 845.3)">f</text><text xml:space="preserve" font-family="ArialRoundedMTBold,Arial Rounded MT Bold" font-size="72.0" fill="#000000" transform="matrix(1.00, 0.00, -0.00, -1.00, 1030.0, 845.3)">r</text><text xml:space="preserve" font-family="ArialRoundedMTBold,Arial Rounded MT Bold" font-size="72.0" fill="#000000" transform="matrix(1.00, 0.00, -0.00, -1.00, 1059.7, 845.3)">e</text><text xml:space="preserve" font-family="ArialRoundedMTBold,Arial Rounded MT Bold" font-size="72.0" fill="#000000" transform="matrix(1.00, 0.00, -0.00, -1.00, 1102.5, 845.3)">d</text><text xml:space="preserve" font-family="ArialRoundedMTBold,Arial Rounded MT Bold" font-size="72.0" fill="#000000" transform="matrix(1.00, 0.00, -0.00, -1.00, 1147.5, 845.3)">o</text><text xml:space="preserve" font-family="ArialRoundedMTBold,Arial Rounded MT Bold" font-size="72.0" fill="#000000" transform="matrix(1.00, 0.00, -0.00, -1.00, 1191.0, 845.3)"> </text><text xml:space="preserve" font-family="ArialRoundedMTBold,Arial Rounded MT Bold" font-size="72.0" fill="#000000" transform="matrix(1.00, 0.00, -0.00, -1.00, 1209.0, 845.3)">$</text><text xml:space="preserve" font-family="ArialRoundedMTBold,Arial Rounded MT Bold" font-size="72.0" fill="#000000" transform="matrix(1.00, 0.00, -0.00, -1.00, 1251.8, 845.3)">2</text><text xml:space="preserve" font-family="ArialRoundedMTBold,Arial Rounded MT Bold" font-size="72.0" fill="#000000" transform="matrix(1.00, 0.00, -0.00, -1.00, 1294.6, 845.3)">1</text><text xml:space="preserve" font-family="ArialRoundedMTBold,Arial Rounded MT Bold" font-size="72.0" fill="#000000" transform="matrix(1.00, 0.00, -0.00, -1.00, 1337.4, 845.3)">.</text><text xml:space="preserve" font-family="ArialRoundedMTBold,Arial Rounded MT Bold" font-size="72.0" fill="#000000" transform="matrix(1.00, 0.00, -0.00, -1.00, 1359.9, 845.3)">0</text><text xml:space="preserve" font-family="ArialRoundedMTBold,Arial Rounded MT Bold" font-size="72.0" fill="#000000" transform="matrix(1.00, 0.00, -0.00, -1.00, 1402.7, 845.3)">0</text><text xml:space="preserve" font-family="ArialRoundedMTBold,Arial Rounded MT Bold" font-size="72.0" fill="#000000" transform="matrix(1.00, 0.00, -0.00, -1.00, 1445.5, 845.3)">.</text><text xml:space="preserve" font-family="ArialRoundedMTBold,Arial Rounded MT Bold" font-size="72.0" fill="#000000" transform="matrix(1.00, 0.00, -0.00, -1.00, 1468.1, 845.3)"> </text><text xml:space="preserve" font-family="ArialRoundedMTBold,Arial Rounded MT Bold" font-size="72.0" fill="#000000" transform="matrix(1.00, 0.00, -0.00, -1.00, 1486.1, 845.3)"> </text><text xml:space="preserve" font-family="ArialRoundedMTBold,Arial Rounded MT Bold" font-size="72.0" fill="#000000" transform="matrix(1.00, 0.00, -0.00, -1.00, 1504.1, 845.3)"> </text><text xml:space="preserve" font-family="ArialRoundedMTBold,Arial Rounded MT Bold" font-size="72.0" fill="#000000" transform="matrix(1.00, 0.00, -0.00, -1.00, 650.9, 760.9)">E</text><text xml:space="preserve" font-family="ArialRoundedMTBold,Arial Rounded MT Bold" font-size="72.0" fill="#000000" transform="matrix(1.00, 0.00, -0.00, -1.00, 698.9, 760.9)">l</text><text xml:space="preserve" font-family="ArialRoundedMTBold,Arial Rounded MT Bold" font-size="72.0" fill="#000000" transform="matrix(1.00, 0.00, -0.00, -1.00, 718.5, 760.9)"> </text><text xml:space="preserve" font-family="ArialRoundedMTBold,Arial Rounded MT Bold" font-size="72.0" fill="#000000" transform="matrix(1.00, 0.00, -0.00, -1.00, 736.5, 760.9)">l</text><text xml:space="preserve" font-family="ArialRoundedMTBold,Arial Rounded MT Bold" font-size="72.0" fill="#000000" transform="matrix(1.00, 0.00, -0.00, -1.00, 756.0, 760.9)">a</text><text xml:space="preserve" font-family="ArialRoundedMTBold,Arial Rounded MT Bold" font-size="72.0" fill="#000000" transform="matrix(1.00, 0.00, -0.00, -1.00, 798.8, 760.9)"> </text><text xml:space="preserve" font-family="ArialRoundedMTBold,Arial Rounded MT Bold" font-size="72.0" fill="#000000" transform="matrix(1.00, 0.00, -0.00, -1.00, 816.8, 760.9)">p</text><text xml:space="preserve" font-family="ArialRoundedMTBold,Arial Rounded MT Bold" font-size="72.0" fill="#000000" transform="matrix(1.00, 0.00, -0.00, -1.00, 861.8, 760.9)">a</text><text xml:space="preserve" font-family="ArialRoundedMTBold,Arial Rounded MT Bold" font-size="72.0" fill="#000000" transform="matrix(1.00, 0.00, -0.00, -1.00, 903.6, 760.9)">g</text><text xml:space="preserve" font-family="ArialRoundedMTBold,Arial Rounded MT Bold" font-size="72.0" fill="#000000" transform="matrix(1.00, 0.00, -0.00, -1.00, 948.6, 760.9)">贸</text><text xml:space="preserve" font-family="ArialRoundedMTBold,Arial Rounded MT Bold" font-size="72.0" fill="#000000" transform="matrix(1.00, 0.00, -0.00, -1.00, 992.1, 760.9)"> </text><text xml:space="preserve" font-family="ArialRoundedMTBold,Arial Rounded MT Bold" font-size="72.0" fill="#000000" transform="matrix(1.00, 0.00, -0.00, -1.00, 1010.1, 760.9)">$</text><text xml:space="preserve" font-family="ArialRoundedMTBold,Arial Rounded MT Bold" font-size="72.0" fill="#000000" transform="matrix(1.00, 0.00, -0.00, -1.00, 1052.9, 760.9)">2</text><text xml:space="preserve" font-family="ArialRoundedMTBold,Arial Rounded MT Bold" font-size="72.0" fill="#000000" transform="matrix(1.00, 0.00, -0.00, -1.00, 1095.7, 760.9)">0</text><text xml:space="preserve" font-family="ArialRoundedMTBold,Arial Rounded MT Bold" font-size="72.0" fill="#000000" transform="matrix(1.00, 0.00, -0.00, -1.00, 1138.5, 760.9)">.</text><text xml:space="preserve" font-family="ArialRoundedMTBold,Arial Rounded MT Bold" font-size="72.0" fill="#000000" transform="matrix(1.00, 0.00, -0.00, -1.00, 1161.0, 760.9)">0</text><text xml:space="preserve" font-family="ArialRoundedMTBold,Arial Rounded MT Bold" font-size="72.0" fill="#000000" transform="matrix(1.00, 0.00, -0.00, -1.00, 1203.8, 760.9)">0</text><text xml:space="preserve" font-family="ArialRoundedMTBold,Arial Rounded MT Bold" font-size="72.0" fill="#000000" transform="matrix(1.00, 0.00, -0.00, -1.00, 1246.6, 760.9)">.</text><text xml:space="preserve" font-family="ArialRoundedMTBold,Arial Rounded MT Bold" font-size="72.0" fill="#000000" transform="matrix(1.00, 0.00, -0.00, -1.00, 1269.2, 760.9)"> </text><g><clipPath id="clip0x7f8759d505b0"><path d="M 1493.0 137.0 L 1648.0 137.0 L 1648.0 36.0 L 1493.0 36.0 Z M 1492.8 136.8 "></path></clipPath><g clip-path="url(#clip0x7f8759d505b0)"><g><clipPath id="clip0x7f8759d50cf0"><path d="M 1492.8 36.0 L 1647.9 36.0 L 1647.9 136.8 L 1492.8 136.8 Z M 1492.8 36.0 "></path></clipPath><g clip-path="url(#clip0x7f8759d50cf0)"><image xlink:href="../../3B3F4AB4-FD2B-40DB-A32E-96238FDE2279/assets/E7D0403A97A29682D38DB5ABD2A1FFCE.png" width="260.00" height="194.00" transform="matrix(0.66, 0.00, -0.00, -0.66, 1477.3, 136.8)"></image></g></g></g></g><g><clipPath id="clip0x7f8759d37240"><path d="M 1477.0 25.6 L 1517.6 25.6 L 1517.6 66.0 L 1477.0 66.0 Z M 1477.0 25.6 "></path></clipPath><g clip-path="url(#clip0x7f8759d37240)"><path d="M 1497.3 64.8 L 1503.1 52.4 L 1516.2 50.4 L 1506.8 40.7 L 1509.0 27.0 L 1497.3 33.5 L 1485.6 27.0 L 1487.9 40.7 L 1478.4 50.4 L 1491.5 52.4 Z M 1497.3 64.8 " fill="#E36C09"></path><path d="M 19.9 0.0 L 25.7 12.4 L 38.8 14.4 L 29.3 24.1 L 31.6 37.8 L 19.9 31.3 L 8.2 37.8 L 10.4 24.1 L 1.0 14.4 L 14.0 12.4 Z M 19.9 0.0 " fill="none" stroke="#000000" stroke-width="1.00" stroke-linejoin="bevel" transform="matrix(1.00, 0.00, 0.00, -1.00, 1477.4, 64.8)"></path></g></g></g></svg>