<?xml version="1.0" encoding="UTF-8" standalone="no"?><svg xmlns="http://www.w3.org/2000/svg" xmlns:xlink="http://www.w3.org/1999/xlink" clip-rule="evenodd" stroke-miterlimit="10" viewBox="0 0 998 315"><desc>SVG generated by Keynote</desc><defs></defs><g transform="matrix(1.00, 0.00, -0.00, -1.00, 0.0, 315.0)"><text xml:space="preserve" font-family="ComicSansMS,Comic Sans MS" font-size="66.0" fill="#FFFFFF" transform="matrix(1.00, 0.00, -0.00, -1.00, 186.3, 259.4)">E</text><text xml:space="preserve" font-family="ComicSansMS,Comic Sans MS" font-size="66.0" fill="#FFFFFF" transform="matrix(1.00, 0.00, -0.00, -1.00, 227.5, 259.4)">n</text><text xml:space="preserve" font-family="ComicSansMS,Comic Sans MS" font-size="66.0" fill="#FFFFFF" transform="matrix(1.00, 0.00, -0.00, -1.00, 262.1, 259.4)"> </text><text xml:space="preserve" font-family="ComicSansMS,Comic Sans MS" font-size="66.0" fill="#FFFFFF" transform="matrix(1.00, 0.00, -0.00, -1.00, 281.8, 259.4)">l</text><text xml:space="preserve" font-family="ComicSansMS,Comic Sans MS" font-size="66.0" fill="#FFFFFF" transform="matrix(1.00, 0.00, -0.00, -1.00, 299.9, 259.4)">u</text><text xml:space="preserve" font-family="ComicSansMS,Comic Sans MS" font-size="66.0" fill="#FFFFFF" transform="matrix(1.00, 0.00, -0.00, -1.00, 334.2, 259.4)">g</text><text xml:space="preserve" font-family="ComicSansMS,Comic Sans MS" font-size="66.0" fill="#FFFFFF" transform="matrix(1.00, 0.00, -0.00, -1.00, 369.2, 259.4)">a</text><text xml:space="preserve" font-family="ComicSansMS,Comic Sans MS" font-size="66.0" fill="#FFFFFF" transform="matrix(1.00, 0.00, -0.00, -1.00, 403.0, 259.4)">r</text><text xml:space="preserve" font-family="ComicSansMS,Comic Sans MS" font-size="66.0" fill="#FFFFFF" transform="matrix(1.00, 0.00, -0.00, -1.00, 434.7, 259.4)"> </text><text xml:space="preserve" font-family="ComicSansMS,Comic Sans MS" font-size="66.0" fill="#FFFFFF" transform="matrix(1.00, 0.00, -0.00, -1.00, 454.4, 259.4)">d</text><text xml:space="preserve" font-family="ComicSansMS,Comic Sans MS" font-size="66.0" fill="#FFFFFF" transform="matrix(1.00, 0.00, -0.00, -1.00, 493.2, 259.4)">e</text><text xml:space="preserve" font-family="ComicSansMS,Comic Sans MS" font-size="66.0" fill="#FFFFFF" transform="matrix(1.00, 0.00, -0.00, -1.00, 529.4, 259.4)"> </text><text xml:space="preserve" font-family="ComicSansMS,Comic Sans MS" font-size="66.0" fill="#FFFFFF" transform="matrix(1.00, 0.00, -0.00, -1.00, 549.1, 259.4)">p</text><text xml:space="preserve" font-family="ComicSansMS,Comic Sans MS" font-size="66.0" fill="#FFFFFF" transform="matrix(1.00, 0.00, -0.00, -1.00, 584.3, 259.4)">o</text><text xml:space="preserve" font-family="ComicSansMS,Comic Sans MS" font-size="66.0" fill="#FFFFFF" transform="matrix(1.00, 0.00, -0.00, -1.00, 619.0, 259.4)">s</text><text xml:space="preserve" font-family="ComicSansMS,Comic Sans MS" font-size="66.0" fill="#FFFFFF" transform="matrix(1.00, 0.00, -0.00, -1.00, 651.2, 259.4)">i</text><text xml:space="preserve" font-family="ComicSansMS,Comic Sans MS" font-size="66.0" fill="#FFFFFF" transform="matrix(1.00, 0.00, -0.00, -1.00, 669.7, 259.4)">c</text><text xml:space="preserve" font-family="ComicSansMS,Comic Sans MS" font-size="66.0" fill="#FFFFFF" transform="matrix(1.00, 0.00, -0.00, -1.00, 703.6, 259.4)">i</text><text xml:space="preserve" font-family="ComicSansMS,Comic Sans MS" font-size="66.0" fill="#FFFFFF" transform="matrix(1.00, 0.00, -0.00, -1.00, 722.1, 259.4)">รณ</text><text xml:space="preserve" font-family="ComicSansMS,Comic Sans MS" font-size="66.0" fill="#FFFFFF" transform="matrix(1.00, 0.00, -0.00, -1.00, 756.8, 259.4)">n</text><text xml:space="preserve" font-family="ComicSansMS,Comic Sans MS" font-size="66.0" fill="#FFFFFF" transform="matrix(1.00, 0.00, -0.00, -1.00, 791.4, 259.4)">,</text><text xml:space="preserve" font-family="ComicSansMS,Comic Sans MS" font-size="66.0" fill="#FFFFFF" transform="matrix(1.00, 0.00, -0.00, -1.00, 809.6, 259.4)"> </text><text xml:space="preserve" font-family="ComicSansMS,Comic Sans MS" font-size="66.0" fill="#FFFFFF" transform="matrix(1.00, 0.00, -0.00, -1.00, -0.9, 139.8)">u</text><text xml:space="preserve" font-family="ComicSansMS,Comic Sans MS" font-size="66.0" fill="#FFFFFF" transform="matrix(1.00, 0.00, -0.00, -1.00, 33.4, 139.8)">n</text><text xml:space="preserve" font-family="ComicSansMS,Comic Sans MS" font-size="66.0" fill="#FFFFFF" transform="matrix(1.00, 0.00, -0.00, -1.00, 68.0, 139.8)"> </text><text xml:space="preserve" font-family="ComicSansMS,Comic Sans MS" font-size="66.0" fill="#FFFFFF" transform="matrix(1.00, 0.00, -0.00, -1.00, 87.7, 139.8)">c</text><text xml:space="preserve" font-family="ComicSansMS,Comic Sans MS" font-size="66.0" fill="#FFFFFF" transform="matrix(1.00, 0.00, -0.00, -1.00, 121.6, 139.8)">e</text><text xml:space="preserve" font-family="ComicSansMS,Comic Sans MS" font-size="66.0" fill="#FFFFFF" transform="matrix(1.00, 0.00, -0.00, -1.00, 157.7, 139.8)">r</text><text xml:space="preserve" font-family="ComicSansMS,Comic Sans MS" font-size="66.0" fill="#FFFFFF" transform="matrix(1.00, 0.00, -0.00, -1.00, 189.5, 139.8)">o</text><text xml:space="preserve" font-family="ComicSansMS,Comic Sans MS" font-size="66.0" fill="#FFFFFF" transform="matrix(1.00, 0.00, -0.00, -1.00, 224.2, 139.8)"> </text><text xml:space="preserve" font-family="ComicSansMS,Comic Sans MS" font-size="66.0" fill="#FFFFFF" transform="matrix(1.00, 0.00, -0.00, -1.00, 243.9, 139.8)">e</text><text xml:space="preserve" font-family="ComicSansMS,Comic Sans MS" font-size="66.0" fill="#FFFFFF" transform="matrix(1.00, 0.00, -0.00, -1.00, 280.0, 139.8)">s</text><text xml:space="preserve" font-family="ComicSansMS,Comic Sans MS" font-size="66.0" fill="#FFFFFF" transform="matrix(1.00, 0.00, -0.00, -1.00, 312.1, 139.8)"> </text><text xml:space="preserve" font-family="ComicSansMS,Comic Sans MS" font-size="66.0" fill="#FFFFFF" transform="matrix(1.00, 0.00, -0.00, -1.00, 331.9, 139.8)">a</text><text xml:space="preserve" font-family="ComicSansMS,Comic Sans MS" font-size="66.0" fill="#FFFFFF" transform="matrix(1.00, 0.00, -0.00, -1.00, 365.6, 139.8)">g</text><text xml:space="preserve" font-family="ComicSansMS,Comic Sans MS" font-size="66.0" fill="#FFFFFF" transform="matrix(1.00, 0.00, -0.00, -1.00, 400.6, 139.8)">r</text><text xml:space="preserve" font-family="ComicSansMS,Comic Sans MS" font-size="66.0" fill="#FFFFFF" transform="matrix(1.00, 0.00, -0.00, -1.00, 432.4, 139.8)">e</text><text xml:space="preserve" font-family="ComicSansMS,Comic Sans MS" font-size="66.0" fill="#FFFFFF" transform="matrix(1.00, 0.00, -0.00, -1.00, 468.5, 139.8)">g</text><text xml:space="preserve" font-family="ComicSansMS,Comic Sans MS" font-size="66.0" fill="#FFFFFF" transform="matrix(1.00, 0.00, -0.00, -1.00, 503.5, 139.8)">a</text><text xml:space="preserve" font-family="ComicSansMS,Comic Sans MS" font-size="66.0" fill="#FFFFFF" transform="matrix(1.00, 0.00, -0.00, -1.00, 537.3, 139.8)">d</text><text xml:space="preserve" font-family="ComicSansMS,Comic Sans MS" font-size="66.0" fill="#FFFFFF" transform="matrix(1.00, 0.00, -0.00, -1.00, 576.1, 139.8)">o</text><text xml:space="preserve" font-family="ComicSansMS,Comic Sans MS" font-size="66.0" fill="#FFFFFF" transform="matrix(1.00, 0.00, -0.00, -1.00, 610.8, 139.8)"> </text><text xml:space="preserve" font-family="ComicSansMS,Comic Sans MS" font-size="66.0" fill="#FFFFFF" transform="matrix(1.00, 0.00, -0.00, -1.00, 630.5, 139.8)">a</text><text xml:space="preserve" font-family="ComicSansMS,Comic Sans MS" font-size="66.0" fill="#FFFFFF" transform="matrix(1.00, 0.00, -0.00, -1.00, 664.3, 139.8)"> </text><text xml:space="preserve" font-family="ComicSansMS,Comic Sans MS" font-size="66.0" fill="#FFFFFF" transform="matrix(1.00, 0.00, -0.00, -1.00, 684.0, 139.8)">c</text><text xml:space="preserve" font-family="ComicSansMS,Comic Sans MS" font-size="66.0" fill="#FFFFFF" transform="matrix(1.00, 0.00, -0.00, -1.00, 717.8, 139.8)">a</text><text xml:space="preserve" font-family="ComicSansMS,Comic Sans MS" font-size="66.0" fill="#FFFFFF" transform="matrix(1.00, 0.00, -0.00, -1.00, 751.6, 139.8)">d</text><text xml:space="preserve" font-family="ComicSansMS,Comic Sans MS" font-size="66.0" fill="#FFFFFF" transform="matrix(1.00, 0.00, -0.00, -1.00, 790.4, 139.8)">a</text><text xml:space="preserve" font-family="ComicSansMS,Comic Sans MS" font-size="66.0" fill="#FFFFFF" transform="matrix(1.00, 0.00, -0.00, -1.00, 824.1, 139.8)"> </text><text xml:space="preserve" font-family="ComicSansMS,Comic Sans MS" font-size="66.0" fill="#FFFFFF" transform="matrix(1.00, 0.00, -0.00, -1.00, 843.9, 139.8)">l</text><text xml:space="preserve" font-family="ComicSansMS,Comic Sans MS" font-size="66.0" fill="#FFFFFF" transform="matrix(1.00, 0.00, -0.00, -1.00, 861.9, 139.8)">u</text><text xml:space="preserve" font-family="ComicSansMS,Comic Sans MS" font-size="66.0" fill="#FFFFFF" transform="matrix(1.00, 0.00, -0.00, -1.00, 896.2, 139.8)">g</text><text xml:space="preserve" font-family="ComicSansMS,Comic Sans MS" font-size="66.0" fill="#FFFFFF" transform="matrix(1.00, 0.00, -0.00, -1.00, 931.3, 139.8)">a</text><text xml:space="preserve" font-family="ComicSansMS,Comic Sans MS" font-size="66.0" fill="#FFFFFF" transform="matrix(1.00, 0.00, -0.00, -1.00, 965.0, 139.8)">r</text><text xml:space="preserve" font-family="ComicSansMS,Comic Sans MS" font-size="66.0" fill="#FFFFFF" transform="matrix(1.00, 0.00, -0.00, -1.00, 996.8, 139.8)"> </text><text xml:space="preserve" font-family="ComicSansMS,Comic Sans MS" font-size="66.0" fill="#FFFFFF" transform="matrix(1.00, 0.00, -0.00, -1.00, 286.5, 20.2)">a</text><text xml:space="preserve" font-family="ComicSansMS,Comic Sans MS" font-size="66.0" fill="#FFFFFF" transform="matrix(1.00, 0.00, -0.00, -1.00, 320.2, 20.2)"> </text><text xml:space="preserve" font-family="ComicSansMS,Comic Sans MS" font-size="66.0" fill="#FFFFFF" transform="matrix(1.00, 0.00, -0.00, -1.00, 339.9, 20.2)">l</text><text xml:space="preserve" font-family="ComicSansMS,Comic Sans MS" font-size="66.0" fill="#FFFFFF" transform="matrix(1.00, 0.00, -0.00, -1.00, 358.0, 20.2)">a</text><text xml:space="preserve" font-family="ComicSansMS,Comic Sans MS" font-size="66.0" fill="#FFFFFF" transform="matrix(1.00, 0.00, -0.00, -1.00, 391.8, 20.2)"> </text><text xml:space="preserve" font-family="ComicSansMS,Comic Sans MS" font-size="66.0" fill="#FFFFFF" transform="matrix(1.00, 0.00, -0.00, -1.00, 411.5, 20.2)">i</text><text xml:space="preserve" font-family="ComicSansMS,Comic Sans MS" font-size="66.0" fill="#FFFFFF" transform="matrix(1.00, 0.00, -0.00, -1.00, 430.0, 20.2)">z</text><text xml:space="preserve" font-family="ComicSansMS,Comic Sans MS" font-size="66.0" fill="#FFFFFF" transform="matrix(1.00, 0.00, -0.00, -1.00, 465.5, 20.2)">q</text><text xml:space="preserve" font-family="ComicSansMS,Comic Sans MS" font-size="66.0" fill="#FFFFFF" transform="matrix(1.00, 0.00, -0.00, -1.00, 499.8, 20.2)">u</text><text xml:space="preserve" font-family="ComicSansMS,Comic Sans MS" font-size="66.0" fill="#FFFFFF" transform="matrix(1.00, 0.00, -0.00, -1.00, 534.1, 20.2)">i</text><text xml:space="preserve" font-family="ComicSansMS,Comic Sans MS" font-size="66.0" fill="#FFFFFF" transform="matrix(1.00, 0.00, -0.00, -1.00, 552.7, 20.2)">e</text><text xml:space="preserve" font-family="ComicSansMS,Comic Sans MS" font-size="66.0" fill="#FFFFFF" transform="matrix(1.00, 0.00, -0.00, -1.00, 588.8, 20.2)">r</text><text xml:space="preserve" font-family="ComicSansMS,Comic Sans MS" font-size="66.0" fill="#FFFFFF" transform="matrix(1.00, 0.00, -0.00, -1.00, 620.6, 20.2)">d</text><text xml:space="preserve" font-family="ComicSansMS,Comic Sans MS" font-size="66.0" fill="#FFFFFF" transform="matrix(1.00, 0.00, -0.00, -1.00, 659.4, 20.2)">a</text><text xml:space="preserve" font-family="ComicSansMS,Comic Sans MS" font-size="66.0" fill="#FFFFFF" transform="matrix(1.00, 0.00, -0.00, -1.00, 693.1, 20.2)">.</text></g></svg>