<?xml version="1.0" encoding="UTF-8" standalone="no"?><svg xmlns="http://www.w3.org/2000/svg" xmlns:xlink="http://www.w3.org/1999/xlink" clip-rule="evenodd" stroke-miterlimit="10" viewBox="0 0 278 114"><desc>SVG generated by Keynote</desc><defs></defs><g transform="matrix(1.00, 0.00, -0.00, -1.00, 0.0, 114.0)"><path d="M 0.2 0.4 L 273.2 0.4 L 273.2 110.4 L 0.2 110.4 Z M 0.0 0.0 " fill="none" stroke="#FFFFFF" stroke-width="1.00" stroke-linejoin="bevel" transform="matrix(1.00, 0.00, 0.00, -1.00, 2.3, 111.9)"></path><g><clipPath id="clip0x7f8757ac37f0"><path d="M -11.6 -12.3 L 289.6 -12.3 L 289.6 125.7 L -11.6 125.7 Z M -11.6 -12.3 "></path></clipPath><g clip-path="url(#clip0x7f8757ac37f0)"><text xml:space="preserve" font-family="ComicSansMS,Comic Sans MS" font-size="66.0" fill="#FFFFFF" transform="matrix(1.00, 0.00, -0.00, -1.00, 34.5, 30.0)">1</text><text xml:space="preserve" font-family="ComicSansMS,Comic Sans MS" font-size="66.0" fill="#FFFFFF" transform="matrix(1.00, 0.00, -0.00, -1.00, 64.2, 30.0)">0</text><text xml:space="preserve" font-family="ComicSansMS,Comic Sans MS" font-size="66.0" fill="#FFFFFF" transform="matrix(1.00, 0.00, -0.00, -1.00, 104.5, 30.0)">,</text><text xml:space="preserve" font-family="ComicSansMS,Comic Sans MS" font-size="66.0" fill="#FFFFFF" transform="matrix(1.00, 0.00, -0.00, -1.00, 122.8, 30.0)">0</text><text xml:space="preserve" font-family="ComicSansMS,Comic Sans MS" font-size="66.0" fill="#FFFFFF" transform="matrix(1.00, 0.00, -0.00, -1.00, 163.1, 30.0)">0</text><text xml:space="preserve" font-family="ComicSansMS,Comic Sans MS" font-size="66.0" fill="#FFFFFF" transform="matrix(1.00, 0.00, -0.00, -1.00, 203.4, 30.0)">0</text></g></g></g></svg>