<?xml version="1.0" encoding="UTF-8" standalone="no"?><svg xmlns="http://www.w3.org/2000/svg" xmlns:xlink="http://www.w3.org/1999/xlink" clip-rule="evenodd" stroke-miterlimit="10" viewBox="0 0 691 494"><desc>SVG generated by Keynote</desc><defs></defs><g transform="matrix(1.00, 0.00, -0.00, -1.00, 0.0, 494.0)"><text xml:space="preserve" font-family="ComicSansMS,Comic Sans MS" font-size="128.0" fill="#FFFFFF" transform="matrix(1.00, 0.00, -0.00, -1.00, 121.9, 392.9)">e</text><text xml:space="preserve" font-family="ComicSansMS,Comic Sans MS" font-size="128.0" fill="#FFFFFF" transform="matrix(1.00, 0.00, -0.00, -1.00, 192.0, 392.9)">s</text><text xml:space="preserve" font-family="ComicSansMS,Comic Sans MS" font-size="128.0" fill="#FFFFFF" transform="matrix(1.00, 0.00, -0.00, -1.00, 254.3, 392.9)">c</text><text xml:space="preserve" font-family="ComicSansMS,Comic Sans MS" font-size="128.0" fill="#FFFFFF" transform="matrix(1.00, 0.00, -0.00, -1.00, 320.0, 392.9)">r</text><text xml:space="preserve" font-family="ComicSansMS,Comic Sans MS" font-size="128.0" fill="#FFFFFF" transform="matrix(1.00, 0.00, -0.00, -1.00, 381.7, 392.9)">i</text><text xml:space="preserve" font-family="ComicSansMS,Comic Sans MS" font-size="128.0" fill="#FFFFFF" transform="matrix(1.00, 0.00, -0.00, -1.00, 417.5, 392.9)">b</text><text xml:space="preserve" font-family="ComicSansMS,Comic Sans MS" font-size="128.0" fill="#FFFFFF" transform="matrix(1.00, 0.00, -0.00, -1.00, 493.5, 392.9)">a</text><text xml:space="preserve" font-family="ComicSansMS,Comic Sans MS" font-size="128.0" fill="#FFFFFF" transform="matrix(1.00, 0.00, -0.00, -1.00, 558.9, 392.9)"> </text><text xml:space="preserve" font-family="ComicSansMS,Comic Sans MS" font-size="128.0" fill="#FFFFFF" transform="matrix(1.00, 0.00, -0.00, -1.00, 597.2, 392.9)"> </text><text xml:space="preserve" font-family="ComicSansMS,Comic Sans MS" font-size="128.0" fill="#FFFFFF" transform="matrix(1.00, 0.00, -0.00, -1.00, -8.2, 214.9)">l</text><text xml:space="preserve" font-family="ComicSansMS,Comic Sans MS" font-size="128.0" fill="#FFFFFF" transform="matrix(1.00, 0.00, -0.00, -1.00, 26.9, 214.9)">o</text><text xml:space="preserve" font-family="ComicSansMS,Comic Sans MS" font-size="128.0" fill="#FFFFFF" transform="matrix(1.00, 0.00, -0.00, -1.00, 94.2, 214.9)">s</text><text xml:space="preserve" font-family="ComicSansMS,Comic Sans MS" font-size="128.0" fill="#FFFFFF" transform="matrix(1.00, 0.00, -0.00, -1.00, 156.4, 214.9)"> </text><text xml:space="preserve" font-family="ComicSansMS,Comic Sans MS" font-size="128.0" fill="#FFFFFF" transform="matrix(1.00, 0.00, -0.00, -1.00, 194.7, 214.9)">n</text><text xml:space="preserve" font-family="ComicSansMS,Comic Sans MS" font-size="128.0" fill="#FFFFFF" transform="matrix(1.00, 0.00, -0.00, -1.00, 261.7, 214.9)">ú</text><text xml:space="preserve" font-family="ComicSansMS,Comic Sans MS" font-size="128.0" fill="#FFFFFF" transform="matrix(1.00, 0.00, -0.00, -1.00, 328.3, 214.9)">m</text><text xml:space="preserve" font-family="ComicSansMS,Comic Sans MS" font-size="128.0" fill="#FFFFFF" transform="matrix(1.00, 0.00, -0.00, -1.00, 427.7, 214.9)">e</text><text xml:space="preserve" font-family="ComicSansMS,Comic Sans MS" font-size="128.0" fill="#FFFFFF" transform="matrix(1.00, 0.00, -0.00, -1.00, 497.8, 214.9)">r</text><text xml:space="preserve" font-family="ComicSansMS,Comic Sans MS" font-size="128.0" fill="#FFFFFF" transform="matrix(1.00, 0.00, -0.00, -1.00, 559.4, 214.9)">o</text><text xml:space="preserve" font-family="ComicSansMS,Comic Sans MS" font-size="128.0" fill="#FFFFFF" transform="matrix(1.00, 0.00, -0.00, -1.00, 626.7, 214.9)">s</text><text xml:space="preserve" font-family="ComicSansMS,Comic Sans MS" font-size="128.0" fill="#FFFFFF" transform="matrix(1.00, 0.00, -0.00, -1.00, 689.0, 214.9)"> </text><text xml:space="preserve" font-family="ComicSansMS,Comic Sans MS" font-size="128.0" fill="#FFFFFF" transform="matrix(1.00, 0.00, -0.00, -1.00, 59.1, 36.9)">s</text><text xml:space="preserve" font-family="ComicSansMS,Comic Sans MS" font-size="128.0" fill="#FFFFFF" transform="matrix(1.00, 0.00, -0.00, -1.00, 121.4, 36.9)">i</text><text xml:space="preserve" font-family="ComicSansMS,Comic Sans MS" font-size="128.0" fill="#FFFFFF" transform="matrix(1.00, 0.00, -0.00, -1.00, 157.3, 36.9)">g</text><text xml:space="preserve" font-family="ComicSansMS,Comic Sans MS" font-size="128.0" fill="#FFFFFF" transform="matrix(1.00, 0.00, -0.00, -1.00, 225.2, 36.9)">u</text><text xml:space="preserve" font-family="ComicSansMS,Comic Sans MS" font-size="128.0" fill="#FFFFFF" transform="matrix(1.00, 0.00, -0.00, -1.00, 291.8, 36.9)">e</text><text xml:space="preserve" font-family="ComicSansMS,Comic Sans MS" font-size="128.0" fill="#FFFFFF" transform="matrix(1.00, 0.00, -0.00, -1.00, 361.9, 36.9)">n</text><text xml:space="preserve" font-family="ComicSansMS,Comic Sans MS" font-size="128.0" fill="#FFFFFF" transform="matrix(1.00, 0.00, -0.00, -1.00, 429.0, 36.9)">t</text><text xml:space="preserve" font-family="ComicSansMS,Comic Sans MS" font-size="128.0" fill="#FFFFFF" transform="matrix(1.00, 0.00, -0.00, -1.00, 489.3, 36.9)">e</text><text xml:space="preserve" font-family="ComicSansMS,Comic Sans MS" font-size="128.0" fill="#FFFFFF" transform="matrix(1.00, 0.00, -0.00, -1.00, 559.4, 36.9)">s</text></g></svg>