<?xml version="1.0" encoding="UTF-8" standalone="no"?><svg xmlns="http://www.w3.org/2000/svg" xmlns:xlink="http://www.w3.org/1999/xlink" clip-rule="evenodd" stroke-miterlimit="10" viewBox="0 0 1198 854"><desc>SVG generated by Keynote</desc><defs></defs><g transform="matrix(1.00, 0.00, -0.00, -1.00, 0.0, 854.0)"><text xml:space="preserve" font-family="ComicSansMS,Comic Sans MS" font-size="86.0" fill="#FFFFFF" transform="matrix(1.00, 0.00, -0.00, -1.00, 483.5, 786.6)">N</text><text xml:space="preserve" font-family="ComicSansMS,Comic Sans MS" font-size="86.0" fill="#FFFFFF" transform="matrix(1.00, 0.00, -0.00, -1.00, 559.2, 786.6)">o</text><text xml:space="preserve" font-family="ComicSansMS,Comic Sans MS" font-size="86.0" fill="#FFFFFF" transform="matrix(1.00, 0.00, -0.00, -1.00, 611.6, 786.6)">t</text><text xml:space="preserve" font-family="ComicSansMS,Comic Sans MS" font-size="86.0" fill="#FFFFFF" transform="matrix(1.00, 0.00, -0.00, -1.00, 659.3, 786.6)">a</text><text xml:space="preserve" font-family="ComicSansMS,Comic Sans MS" font-size="86.0" fill="#FFFFFF" transform="matrix(1.00, 0.00, -0.00, -1.00, 710.4, 786.6)"> </text><text xml:space="preserve" font-family="ComicSansMS,Comic Sans MS" font-size="86.0" fill="#FFFFFF" transform="matrix(1.00, 0.00, -0.00, -1.00, 215.5, 630.6)">c</text><text xml:space="preserve" font-family="ComicSansMS,Comic Sans MS" font-size="86.0" fill="#FFFFFF" transform="matrix(1.00, 0.00, -0.00, -1.00, 266.8, 630.6)">o</text><text xml:space="preserve" font-family="ComicSansMS,Comic Sans MS" font-size="86.0" fill="#FFFFFF" transform="matrix(1.00, 0.00, -0.00, -1.00, 319.1, 630.6)">m</text><text xml:space="preserve" font-family="ComicSansMS,Comic Sans MS" font-size="86.0" fill="#FFFFFF" transform="matrix(1.00, 0.00, -0.00, -1.00, 393.1, 630.6)">o</text><text xml:space="preserve" font-family="ComicSansMS,Comic Sans MS" font-size="86.0" fill="#FFFFFF" transform="matrix(1.00, 0.00, -0.00, -1.00, 445.5, 630.6)"> </text><text xml:space="preserve" font-family="ComicSansMS,Comic Sans MS" font-size="86.0" fill="#FFFFFF" transform="matrix(1.00, 0.00, -0.00, -1.00, 478.3, 630.6)">l</text><text xml:space="preserve" font-family="ComicSansMS,Comic Sans MS" font-size="86.0" fill="#FFFFFF" transform="matrix(1.00, 0.00, -0.00, -1.00, 509.0, 630.6)">o</text><text xml:space="preserve" font-family="ComicSansMS,Comic Sans MS" font-size="86.0" fill="#FFFFFF" transform="matrix(1.00, 0.00, -0.00, -1.00, 561.3, 630.6)">s</text><text xml:space="preserve" font-family="ComicSansMS,Comic Sans MS" font-size="86.0" fill="#FFFFFF" transform="matrix(1.00, 0.00, -0.00, -1.00, 610.4, 630.6)"> </text><text xml:space="preserve" font-family="ComicSansMS,Comic Sans MS" font-size="86.0" fill="#FFFFFF" transform="matrix(1.00, 0.00, -0.00, -1.00, 643.2, 630.6)">v</text><text xml:space="preserve" font-family="ComicSansMS,Comic Sans MS" font-size="86.0" fill="#FFFFFF" transform="matrix(1.00, 0.00, -0.00, -1.00, 692.2, 630.6)">a</text><text xml:space="preserve" font-family="ComicSansMS,Comic Sans MS" font-size="86.0" fill="#FFFFFF" transform="matrix(1.00, 0.00, -0.00, -1.00, 743.4, 630.6)">l</text><text xml:space="preserve" font-family="ComicSansMS,Comic Sans MS" font-size="86.0" fill="#FFFFFF" transform="matrix(1.00, 0.00, -0.00, -1.00, 774.1, 630.6)">o</text><text xml:space="preserve" font-family="ComicSansMS,Comic Sans MS" font-size="86.0" fill="#FFFFFF" transform="matrix(1.00, 0.00, -0.00, -1.00, 826.4, 630.6)">r</text><text xml:space="preserve" font-family="ComicSansMS,Comic Sans MS" font-size="86.0" fill="#FFFFFF" transform="matrix(1.00, 0.00, -0.00, -1.00, 875.0, 630.6)">e</text><text xml:space="preserve" font-family="ComicSansMS,Comic Sans MS" font-size="86.0" fill="#FFFFFF" transform="matrix(1.00, 0.00, -0.00, -1.00, 929.2, 630.6)">s</text><text xml:space="preserve" font-family="ComicSansMS,Comic Sans MS" font-size="86.0" fill="#FFFFFF" transform="matrix(1.00, 0.00, -0.00, -1.00, 978.2, 630.6)"> </text><text xml:space="preserve" font-family="ComicSansMS,Comic Sans MS" font-size="86.0" fill="#FFFFFF" transform="matrix(1.00, 0.00, -0.00, -1.00, 1011.1, 630.6)"> </text><text xml:space="preserve" font-family="ComicSansMS,Comic Sans MS" font-size="86.0" fill="#FFFFFF" transform="matrix(1.00, 0.00, -0.00, -1.00, -2.3, 474.6)">d</text><text xml:space="preserve" font-family="ComicSansMS,Comic Sans MS" font-size="86.0" fill="#FFFFFF" transform="matrix(1.00, 0.00, -0.00, -1.00, 55.4, 474.6)">e</text><text xml:space="preserve" font-family="ComicSansMS,Comic Sans MS" font-size="86.0" fill="#FFFFFF" transform="matrix(1.00, 0.00, -0.00, -1.00, 109.6, 474.6)"> </text><text xml:space="preserve" font-family="ComicSansMS,Comic Sans MS" font-size="86.0" fill="#FFFFFF" transform="matrix(1.00, 0.00, -0.00, -1.00, 142.4, 474.6)">l</text><text xml:space="preserve" font-family="ComicSansMS,Comic Sans MS" font-size="86.0" fill="#FFFFFF" transform="matrix(1.00, 0.00, -0.00, -1.00, 173.2, 474.6)">o</text><text xml:space="preserve" font-family="ComicSansMS,Comic Sans MS" font-size="86.0" fill="#FFFFFF" transform="matrix(1.00, 0.00, -0.00, -1.00, 225.5, 474.6)">s</text><text xml:space="preserve" font-family="ComicSansMS,Comic Sans MS" font-size="86.0" fill="#FFFFFF" transform="matrix(1.00, 0.00, -0.00, -1.00, 274.5, 474.6)"> </text><text xml:space="preserve" font-family="ComicSansMS,Comic Sans MS" font-size="86.0" fill="#FFFFFF" transform="matrix(1.00, 0.00, -0.00, -1.00, 307.3, 474.6)">n</text><text xml:space="preserve" font-family="ComicSansMS,Comic Sans MS" font-size="86.0" fill="#FFFFFF" transform="matrix(1.00, 0.00, -0.00, -1.00, 359.5, 474.6)">ú</text><text xml:space="preserve" font-family="ComicSansMS,Comic Sans MS" font-size="86.0" fill="#FFFFFF" transform="matrix(1.00, 0.00, -0.00, -1.00, 411.4, 474.6)">m</text><text xml:space="preserve" font-family="ComicSansMS,Comic Sans MS" font-size="86.0" fill="#FFFFFF" transform="matrix(1.00, 0.00, -0.00, -1.00, 485.3, 474.6)">e</text><text xml:space="preserve" font-family="ComicSansMS,Comic Sans MS" font-size="86.0" fill="#FFFFFF" transform="matrix(1.00, 0.00, -0.00, -1.00, 539.6, 474.6)">r</text><text xml:space="preserve" font-family="ComicSansMS,Comic Sans MS" font-size="86.0" fill="#FFFFFF" transform="matrix(1.00, 0.00, -0.00, -1.00, 588.1, 474.6)">o</text><text xml:space="preserve" font-family="ComicSansMS,Comic Sans MS" font-size="86.0" fill="#FFFFFF" transform="matrix(1.00, 0.00, -0.00, -1.00, 640.4, 474.6)">s</text><text xml:space="preserve" font-family="ComicSansMS,Comic Sans MS" font-size="86.0" fill="#FFFFFF" transform="matrix(1.00, 0.00, -0.00, -1.00, 689.4, 474.6)"> </text><text xml:space="preserve" font-family="ComicSansMS,Comic Sans MS" font-size="86.0" fill="#FFFFFF" transform="matrix(1.00, 0.00, -0.00, -1.00, 722.2, 474.6)">s</text><text xml:space="preserve" font-family="ComicSansMS,Comic Sans MS" font-size="86.0" fill="#FFFFFF" transform="matrix(1.00, 0.00, -0.00, -1.00, 771.2, 474.6)">i</text><text xml:space="preserve" font-family="ComicSansMS,Comic Sans MS" font-size="86.0" fill="#FFFFFF" transform="matrix(1.00, 0.00, -0.00, -1.00, 802.5, 474.6)">g</text><text xml:space="preserve" font-family="ComicSansMS,Comic Sans MS" font-size="86.0" fill="#FFFFFF" transform="matrix(1.00, 0.00, -0.00, -1.00, 855.3, 474.6)">u</text><text xml:space="preserve" font-family="ComicSansMS,Comic Sans MS" font-size="86.0" fill="#FFFFFF" transform="matrix(1.00, 0.00, -0.00, -1.00, 907.2, 474.6)">i</text><text xml:space="preserve" font-family="ComicSansMS,Comic Sans MS" font-size="86.0" fill="#FFFFFF" transform="matrix(1.00, 0.00, -0.00, -1.00, 938.5, 474.6)">e</text><text xml:space="preserve" font-family="ComicSansMS,Comic Sans MS" font-size="86.0" fill="#FFFFFF" transform="matrix(1.00, 0.00, -0.00, -1.00, 992.7, 474.6)">n</text><text xml:space="preserve" font-family="ComicSansMS,Comic Sans MS" font-size="86.0" fill="#FFFFFF" transform="matrix(1.00, 0.00, -0.00, -1.00, 1044.9, 474.6)">t</text><text xml:space="preserve" font-family="ComicSansMS,Comic Sans MS" font-size="86.0" fill="#FFFFFF" transform="matrix(1.00, 0.00, -0.00, -1.00, 1092.6, 474.6)">e</text><text xml:space="preserve" font-family="ComicSansMS,Comic Sans MS" font-size="86.0" fill="#FFFFFF" transform="matrix(1.00, 0.00, -0.00, -1.00, 1146.9, 474.6)">s</text><text xml:space="preserve" font-family="ComicSansMS,Comic Sans MS" font-size="86.0" fill="#FFFFFF" transform="matrix(1.00, 0.00, -0.00, -1.00, 1195.8, 474.6)"> </text><text xml:space="preserve" font-family="ComicSansMS,Comic Sans MS" font-size="86.0" fill="#FFFFFF" transform="matrix(1.00, 0.00, -0.00, -1.00, 41.3, 318.6)">c</text><text xml:space="preserve" font-family="ComicSansMS,Comic Sans MS" font-size="86.0" fill="#FFFFFF" transform="matrix(1.00, 0.00, -0.00, -1.00, 92.6, 318.6)">a</text><text xml:space="preserve" font-family="ComicSansMS,Comic Sans MS" font-size="86.0" fill="#FFFFFF" transform="matrix(1.00, 0.00, -0.00, -1.00, 143.7, 318.6)">m</text><text xml:space="preserve" font-family="ComicSansMS,Comic Sans MS" font-size="86.0" fill="#FFFFFF" transform="matrix(1.00, 0.00, -0.00, -1.00, 217.7, 318.6)">b</text><text xml:space="preserve" font-family="ComicSansMS,Comic Sans MS" font-size="86.0" fill="#FFFFFF" transform="matrix(1.00, 0.00, -0.00, -1.00, 275.9, 318.6)">i</text><text xml:space="preserve" font-family="ComicSansMS,Comic Sans MS" font-size="86.0" fill="#FFFFFF" transform="matrix(1.00, 0.00, -0.00, -1.00, 307.2, 318.6)">a</text><text xml:space="preserve" font-family="ComicSansMS,Comic Sans MS" font-size="86.0" fill="#FFFFFF" transform="matrix(1.00, 0.00, -0.00, -1.00, 358.4, 318.6)">n</text><text xml:space="preserve" font-family="ComicSansMS,Comic Sans MS" font-size="86.0" fill="#FFFFFF" transform="matrix(1.00, 0.00, -0.00, -1.00, 410.6, 318.6)"> </text><text xml:space="preserve" font-family="ComicSansMS,Comic Sans MS" font-size="86.0" fill="#FFFFFF" transform="matrix(1.00, 0.00, -0.00, -1.00, 443.5, 318.6)">c</text><text xml:space="preserve" font-family="ComicSansMS,Comic Sans MS" font-size="86.0" fill="#FFFFFF" transform="matrix(1.00, 0.00, -0.00, -1.00, 494.8, 318.6)">u</text><text xml:space="preserve" font-family="ComicSansMS,Comic Sans MS" font-size="86.0" fill="#FFFFFF" transform="matrix(1.00, 0.00, -0.00, -1.00, 546.6, 318.6)">a</text><text xml:space="preserve" font-family="ComicSansMS,Comic Sans MS" font-size="86.0" fill="#FFFFFF" transform="matrix(1.00, 0.00, -0.00, -1.00, 597.8, 318.6)">n</text><text xml:space="preserve" font-family="ComicSansMS,Comic Sans MS" font-size="86.0" fill="#FFFFFF" transform="matrix(1.00, 0.00, -0.00, -1.00, 650.0, 318.6)">d</text><text xml:space="preserve" font-family="ComicSansMS,Comic Sans MS" font-size="86.0" fill="#FFFFFF" transform="matrix(1.00, 0.00, -0.00, -1.00, 707.8, 318.6)">o</text><text xml:space="preserve" font-family="ComicSansMS,Comic Sans MS" font-size="86.0" fill="#FFFFFF" transform="matrix(1.00, 0.00, -0.00, -1.00, 760.1, 318.6)"> </text><text xml:space="preserve" font-family="ComicSansMS,Comic Sans MS" font-size="86.0" fill="#FFFFFF" transform="matrix(1.00, 0.00, -0.00, -1.00, 793.0, 318.6)">a</text><text xml:space="preserve" font-family="ComicSansMS,Comic Sans MS" font-size="86.0" fill="#FFFFFF" transform="matrix(1.00, 0.00, -0.00, -1.00, 844.1, 318.6)">g</text><text xml:space="preserve" font-family="ComicSansMS,Comic Sans MS" font-size="86.0" fill="#FFFFFF" transform="matrix(1.00, 0.00, -0.00, -1.00, 896.9, 318.6)">r</text><text xml:space="preserve" font-family="ComicSansMS,Comic Sans MS" font-size="86.0" fill="#FFFFFF" transform="matrix(1.00, 0.00, -0.00, -1.00, 945.4, 318.6)">e</text><text xml:space="preserve" font-family="ComicSansMS,Comic Sans MS" font-size="86.0" fill="#FFFFFF" transform="matrix(1.00, 0.00, -0.00, -1.00, 999.7, 318.6)">g</text><text xml:space="preserve" font-family="ComicSansMS,Comic Sans MS" font-size="86.0" fill="#FFFFFF" transform="matrix(1.00, 0.00, -0.00, -1.00, 1052.5, 318.6)">a</text><text xml:space="preserve" font-family="ComicSansMS,Comic Sans MS" font-size="86.0" fill="#FFFFFF" transform="matrix(1.00, 0.00, -0.00, -1.00, 1103.6, 318.6)">s</text><text xml:space="preserve" font-family="ComicSansMS,Comic Sans MS" font-size="86.0" fill="#FFFFFF" transform="matrix(1.00, 0.00, -0.00, -1.00, 1152.6, 318.6)"> </text><text xml:space="preserve" font-family="ComicSansMS,Comic Sans MS" font-size="86.0" fill="#FFFFFF" transform="matrix(1.00, 0.00, -0.00, -1.00, 1185.5, 318.6)"> </text><text xml:space="preserve" font-family="ComicSansMS,Comic Sans MS" font-size="86.0" fill="#FFFFFF" transform="matrix(1.00, 0.00, -0.00, -1.00, 238.4, 162.6)">u</text><text xml:space="preserve" font-family="ComicSansMS,Comic Sans MS" font-size="86.0" fill="#FFFFFF" transform="matrix(1.00, 0.00, -0.00, -1.00, 290.3, 162.6)">n</text><text xml:space="preserve" font-family="ComicSansMS,Comic Sans MS" font-size="86.0" fill="#FFFFFF" transform="matrix(1.00, 0.00, -0.00, -1.00, 342.5, 162.6)"> </text><text xml:space="preserve" font-family="ComicSansMS,Comic Sans MS" font-size="86.0" fill="#FFFFFF" transform="matrix(1.00, 0.00, -0.00, -1.00, 375.4, 162.6)">c</text><text xml:space="preserve" font-family="ComicSansMS,Comic Sans MS" font-size="86.0" fill="#FFFFFF" transform="matrix(1.00, 0.00, -0.00, -1.00, 426.8, 162.6)">e</text><text xml:space="preserve" font-family="ComicSansMS,Comic Sans MS" font-size="86.0" fill="#FFFFFF" transform="matrix(1.00, 0.00, -0.00, -1.00, 481.0, 162.6)">r</text><text xml:space="preserve" font-family="ComicSansMS,Comic Sans MS" font-size="86.0" fill="#FFFFFF" transform="matrix(1.00, 0.00, -0.00, -1.00, 529.5, 162.6)">o</text><text xml:space="preserve" font-family="ComicSansMS,Comic Sans MS" font-size="86.0" fill="#FFFFFF" transform="matrix(1.00, 0.00, -0.00, -1.00, 581.9, 162.6)"> </text><text xml:space="preserve" font-family="ComicSansMS,Comic Sans MS" font-size="86.0" fill="#FFFFFF" transform="matrix(1.00, 0.00, -0.00, -1.00, 614.8, 162.6)">o</text><text xml:space="preserve" font-family="ComicSansMS,Comic Sans MS" font-size="86.0" fill="#FFFFFF" transform="matrix(1.00, 0.00, -0.00, -1.00, 667.2, 162.6)"> </text><text xml:space="preserve" font-family="ComicSansMS,Comic Sans MS" font-size="86.0" fill="#FFFFFF" transform="matrix(1.00, 0.00, -0.00, -1.00, 700.1, 162.6)">c</text><text xml:space="preserve" font-family="ComicSansMS,Comic Sans MS" font-size="86.0" fill="#FFFFFF" transform="matrix(1.00, 0.00, -0.00, -1.00, 751.4, 162.6)">e</text><text xml:space="preserve" font-family="ComicSansMS,Comic Sans MS" font-size="86.0" fill="#FFFFFF" transform="matrix(1.00, 0.00, -0.00, -1.00, 805.7, 162.6)">r</text><text xml:space="preserve" font-family="ComicSansMS,Comic Sans MS" font-size="86.0" fill="#FFFFFF" transform="matrix(1.00, 0.00, -0.00, -1.00, 854.2, 162.6)">o</text><text xml:space="preserve" font-family="ComicSansMS,Comic Sans MS" font-size="86.0" fill="#FFFFFF" transform="matrix(1.00, 0.00, -0.00, -1.00, 906.6, 162.6)">s</text><text xml:space="preserve" font-family="ComicSansMS,Comic Sans MS" font-size="86.0" fill="#FFFFFF" transform="matrix(1.00, 0.00, -0.00, -1.00, 955.6, 162.6)"> </text><text xml:space="preserve" font-family="ComicSansMS,Comic Sans MS" font-size="86.0" fill="#FFFFFF" transform="matrix(1.00, 0.00, -0.00, -1.00, 988.5, 162.6)"> </text><text xml:space="preserve" font-family="ComicSansMS,Comic Sans MS" font-size="86.0" fill="#FFFFFF" transform="matrix(1.00, 0.00, -0.00, -1.00, 358.7, 6.6)">a</text><text xml:space="preserve" font-family="ComicSansMS,Comic Sans MS" font-size="86.0" fill="#FFFFFF" transform="matrix(1.00, 0.00, -0.00, -1.00, 409.9, 6.6)">l</text><text xml:space="preserve" font-family="ComicSansMS,Comic Sans MS" font-size="86.0" fill="#FFFFFF" transform="matrix(1.00, 0.00, -0.00, -1.00, 440.6, 6.6)"> </text><text xml:space="preserve" font-family="ComicSansMS,Comic Sans MS" font-size="86.0" fill="#FFFFFF" transform="matrix(1.00, 0.00, -0.00, -1.00, 473.4, 6.6)">n</text><text xml:space="preserve" font-family="ComicSansMS,Comic Sans MS" font-size="86.0" fill="#FFFFFF" transform="matrix(1.00, 0.00, -0.00, -1.00, 525.7, 6.6)">ú</text><text xml:space="preserve" font-family="ComicSansMS,Comic Sans MS" font-size="86.0" fill="#FFFFFF" transform="matrix(1.00, 0.00, -0.00, -1.00, 577.5, 6.6)">m</text><text xml:space="preserve" font-family="ComicSansMS,Comic Sans MS" font-size="86.0" fill="#FFFFFF" transform="matrix(1.00, 0.00, -0.00, -1.00, 651.5, 6.6)">e</text><text xml:space="preserve" font-family="ComicSansMS,Comic Sans MS" font-size="86.0" fill="#FFFFFF" transform="matrix(1.00, 0.00, -0.00, -1.00, 705.8, 6.6)">r</text><text xml:space="preserve" font-family="ComicSansMS,Comic Sans MS" font-size="86.0" fill="#FFFFFF" transform="matrix(1.00, 0.00, -0.00, -1.00, 754.3, 6.6)">o</text><text xml:space="preserve" font-family="ComicSansMS,Comic Sans MS" font-size="86.0" fill="#FFFFFF" transform="matrix(1.00, 0.00, -0.00, -1.00, 806.7, 6.6)">.</text></g></svg>