<?xml version="1.0" encoding="UTF-8" standalone="no"?><svg xmlns="http://www.w3.org/2000/svg" xmlns:xlink="http://www.w3.org/1999/xlink" clip-rule="evenodd" stroke-miterlimit="10" viewBox="0 0 1920 1080"><desc>SVG generated by Keynote</desc><defs></defs><g transform="matrix(1.00, 0.00, -0.00, -1.00, 0.0, 1080.0)"><path d="M 0.0 1080.0 L 1920.0 1080.0 L 1920.0 0.0 L 0.0 0.0 Z M 0.0 1080.0 " fill="#FFFFFF"></path><text xml:space="preserve" font-family="ArialRoundedMTBold,Arial Rounded MT Bold" font-size="174.0" fill="#000000" transform="matrix(1.00, 0.00, -0.00, -1.00, 585.0, 771.8)">R</text><text xml:space="preserve" font-family="ArialRoundedMTBold,Arial Rounded MT Bold" font-size="174.0" fill="#000000" transform="matrix(1.00, 0.00, -0.00, -1.00, 710.2, 771.8)">E</text><text xml:space="preserve" font-family="ArialRoundedMTBold,Arial Rounded MT Bold" font-size="174.0" fill="#000000" transform="matrix(1.00, 0.00, -0.00, -1.00, 826.2, 771.8)">G</text><text xml:space="preserve" font-family="ArialRoundedMTBold,Arial Rounded MT Bold" font-size="174.0" fill="#000000" transform="matrix(1.00, 0.00, -0.00, -1.00, 964.0, 771.8)">L</text><text xml:space="preserve" font-family="ArialRoundedMTBold,Arial Rounded MT Bold" font-size="174.0" fill="#000000" transform="matrix(1.00, 0.00, -0.00, -1.00, 1066.8, 771.8)">A</text><text xml:space="preserve" font-family="ArialRoundedMTBold,Arial Rounded MT Bold" font-size="174.0" fill="#000000" transform="matrix(1.00, 0.00, -0.00, -1.00, 1192.0, 771.8)">S</text><text xml:space="preserve" font-family="ArialRoundedMTBold,Arial Rounded MT Bold" font-size="174.0" fill="#000000" transform="matrix(1.00, 0.00, -0.00, -1.00, 1308.1, 771.8)"> </text><text xml:space="preserve" font-family="ArialRoundedMTBold,Arial Rounded MT Bold" font-size="92.0" fill="#000000" transform="matrix(1.00, 0.00, -0.00, -1.00, 844.1, 567.7)">p</text><text xml:space="preserve" font-family="ArialRoundedMTBold,Arial Rounded MT Bold" font-size="92.0" fill="#000000" transform="matrix(1.00, 0.00, -0.00, -1.00, 901.6, 567.7)">a</text><text xml:space="preserve" font-family="ArialRoundedMTBold,Arial Rounded MT Bold" font-size="92.0" fill="#000000" transform="matrix(1.00, 0.00, -0.00, -1.00, 956.3, 567.7)">r</text><text xml:space="preserve" font-family="ArialRoundedMTBold,Arial Rounded MT Bold" font-size="92.0" fill="#000000" transform="matrix(1.00, 0.00, -0.00, -1.00, 994.3, 567.7)">a</text><text xml:space="preserve" font-family="ArialRoundedMTBold,Arial Rounded MT Bold" font-size="92.0" fill="#000000" transform="matrix(1.00, 0.00, -0.00, -1.00, 1049.0, 567.7)"> </text><text xml:space="preserve" font-family="ArialRoundedMTBold,Arial Rounded MT Bold" font-size="92.0" fill="#000000" transform="matrix(1.00, 0.00, -0.00, -1.00, 1072.0, 567.7)"> </text><text xml:space="preserve" font-family="ArialRoundedMTBold,Arial Rounded MT Bold" font-size="92.0" fill="#000000" transform="matrix(1.00, 0.00, -0.00, -1.00, 506.1, 419.3)">r</text><text xml:space="preserve" font-family="ArialRoundedMTBold,Arial Rounded MT Bold" font-size="92.0" fill="#000000" transform="matrix(1.00, 0.00, -0.00, -1.00, 544.1, 419.3)">e</text><text xml:space="preserve" font-family="ArialRoundedMTBold,Arial Rounded MT Bold" font-size="92.0" fill="#000000" transform="matrix(1.00, 0.00, -0.00, -1.00, 598.8, 419.3)">d</text><text xml:space="preserve" font-family="ArialRoundedMTBold,Arial Rounded MT Bold" font-size="92.0" fill="#000000" transform="matrix(1.00, 0.00, -0.00, -1.00, 656.3, 419.3)">o</text><text xml:space="preserve" font-family="ArialRoundedMTBold,Arial Rounded MT Bold" font-size="92.0" fill="#000000" transform="matrix(1.00, 0.00, -0.00, -1.00, 711.8, 419.3)">n</text><text xml:space="preserve" font-family="ArialRoundedMTBold,Arial Rounded MT Bold" font-size="92.0" fill="#000000" transform="matrix(1.00, 0.00, -0.00, -1.00, 767.4, 419.3)">d</text><text xml:space="preserve" font-family="ArialRoundedMTBold,Arial Rounded MT Bold" font-size="92.0" fill="#000000" transform="matrix(1.00, 0.00, -0.00, -1.00, 824.9, 419.3)">e</text><text xml:space="preserve" font-family="ArialRoundedMTBold,Arial Rounded MT Bold" font-size="92.0" fill="#000000" transform="matrix(1.00, 0.00, -0.00, -1.00, 879.6, 419.3)">a</text><text xml:space="preserve" font-family="ArialRoundedMTBold,Arial Rounded MT Bold" font-size="92.0" fill="#000000" transform="matrix(1.00, 0.00, -0.00, -1.00, 934.3, 419.3)">r</text><text xml:space="preserve" font-family="ArialRoundedMTBold,Arial Rounded MT Bold" font-size="92.0" fill="#000000" transform="matrix(1.00, 0.00, -0.00, -1.00, 974.6, 419.3)"> </text><text xml:space="preserve" font-family="ArialRoundedMTBold,Arial Rounded MT Bold" font-size="92.0" fill="#000000" transform="matrix(1.00, 0.00, -0.00, -1.00, 997.6, 419.3)">n</text><text xml:space="preserve" font-family="ArialRoundedMTBold,Arial Rounded MT Bold" font-size="92.0" fill="#000000" transform="matrix(1.00, 0.00, -0.00, -1.00, 1053.1, 419.3)">ú</text><text xml:space="preserve" font-family="ArialRoundedMTBold,Arial Rounded MT Bold" font-size="92.0" fill="#000000" transform="matrix(1.00, 0.00, -0.00, -1.00, 1108.7, 419.3)">m</text><text xml:space="preserve" font-family="ArialRoundedMTBold,Arial Rounded MT Bold" font-size="92.0" fill="#000000" transform="matrix(1.00, 0.00, -0.00, -1.00, 1190.1, 419.3)">e</text><text xml:space="preserve" font-family="ArialRoundedMTBold,Arial Rounded MT Bold" font-size="92.0" fill="#000000" transform="matrix(1.00, 0.00, -0.00, -1.00, 1244.8, 419.3)">r</text><text xml:space="preserve" font-family="ArialRoundedMTBold,Arial Rounded MT Bold" font-size="92.0" fill="#000000" transform="matrix(1.00, 0.00, -0.00, -1.00, 1281.6, 419.3)">o</text><text xml:space="preserve" font-family="ArialRoundedMTBold,Arial Rounded MT Bold" font-size="92.0" fill="#000000" transform="matrix(1.00, 0.00, -0.00, -1.00, 1337.1, 419.3)">s</text><text xml:space="preserve" font-family="ArialRoundedMTBold,Arial Rounded MT Bold" font-size="92.0" fill="#000000" transform="matrix(1.00, 0.00, -0.00, -1.00, 1387.0, 419.3)"> </text></g></svg>