<?xml version="1.0" encoding="UTF-8" standalone="no"?><svg xmlns="http://www.w3.org/2000/svg" xmlns:xlink="http://www.w3.org/1999/xlink" clip-rule="evenodd" stroke-miterlimit="10" viewBox="0 0 1335 135"><desc>SVG generated by Keynote</desc><defs><linearGradient id="gradSh1.13" x1="0.0" y1="0.0" x2="100.0" y2="0.0" gradientUnits="userSpaceOnUse" gradientTransform="matrix(0.00, 1.12, 13.19, 0.00, 667.0, 11.5)"><stop offset="0.00000" stop-color="#C8B2E9"></stop><stop offset="0.00147" stop-color="#C8B3E9"></stop><stop offset="1.00000" stop-color="#F0EAF9"></stop></linearGradient></defs><g transform="matrix(1.00, 0.00, -0.00, -1.00, 0.0, 135.0)"><image xlink:href="DED91437FAD79827B4ECB3F4F4E461AB.png" width="1332.00" height="125.00" transform="matrix(1.00, 0.00, -0.00, -1.00, 1.3, 127.2)" opacity="0.38"></image><g><clipPath id="clip0x7f875d30b430"><path d="M 8.5 122.5 L 1325.5 122.5 L 1325.5 12.5 L 8.5 12.5 Z M 8.8 122.7 "></path></clipPath><g clip-path="url(#clip0x7f875d30b430)"><path d="M 8.5 122.5 L 1325.5 122.5 L 1325.5 12.5 L 8.5 12.5 Z M 8.8 122.7 " fill="url(#gradSh1.13)"></path></g></g><path d="M -0.3 0.2 L 1316.7 0.2 L 1316.7 110.2 L -0.3 110.2 Z M 0.0 0.0 " fill="none" stroke="#7C609F" stroke-width="1.00" stroke-linejoin="bevel" transform="matrix(1.00, 0.00, 0.00, -1.00, 8.8, 122.7)"></path><g><clipPath id="clip0x7f875d7cf0c0"><path d="M -5.1 -1.5 L 1339.4 -1.5 L 1339.4 136.5 L -5.1 136.5 Z M -5.1 -1.5 "></path></clipPath><g clip-path="url(#clip0x7f875d7cf0c0)"><text xml:space="preserve" font-family="ComicSansMS-Bold,Comic Sans MS" font-weight="bold" font-size="66.0" fill="#000000" transform="matrix(1.00, 0.00, -0.00, -1.00, 117.2, 40.8)">¿</text><text xml:space="preserve" font-family="ComicSansMS-Bold,Comic Sans MS" font-weight="bold" font-size="66.0" fill="#000000" transform="matrix(1.00, 0.00, -0.00, -1.00, 154.6, 40.8)">Q</text><text xml:space="preserve" font-family="ComicSansMS-Bold,Comic Sans MS" font-weight="bold" font-size="66.0" fill="#000000" transform="matrix(1.00, 0.00, -0.00, -1.00, 212.4, 40.8)">u</text><text xml:space="preserve" font-family="ComicSansMS-Bold,Comic Sans MS" font-weight="bold" font-size="66.0" fill="#000000" transform="matrix(1.00, 0.00, -0.00, -1.00, 246.8, 40.8)">é</text><text xml:space="preserve" font-family="ComicSansMS-Bold,Comic Sans MS" font-weight="bold" font-size="66.0" fill="#000000" transform="matrix(1.00, 0.00, -0.00, -1.00, 283.7, 40.8)"> </text><text xml:space="preserve" font-family="ComicSansMS-Bold,Comic Sans MS" font-weight="bold" font-size="66.0" fill="#000000" transform="matrix(1.00, 0.00, -0.00, -1.00, 312.3, 40.8)">v</text><text xml:space="preserve" font-family="ComicSansMS-Bold,Comic Sans MS" font-weight="bold" font-size="66.0" fill="#000000" transform="matrix(1.00, 0.00, -0.00, -1.00, 344.4, 40.8)">a</text><text xml:space="preserve" font-family="ComicSansMS-Bold,Comic Sans MS" font-weight="bold" font-size="66.0" fill="#000000" transform="matrix(1.00, 0.00, -0.00, -1.00, 381.0, 40.8)">l</text><text xml:space="preserve" font-family="ComicSansMS-Bold,Comic Sans MS" font-weight="bold" font-size="66.0" fill="#000000" transform="matrix(1.00, 0.00, -0.00, -1.00, 399.1, 40.8)">o</text><text xml:space="preserve" font-family="ComicSansMS-Bold,Comic Sans MS" font-weight="bold" font-size="66.0" fill="#000000" transform="matrix(1.00, 0.00, -0.00, -1.00, 433.8, 40.8)">r</text><text xml:space="preserve" font-family="ComicSansMS-Bold,Comic Sans MS" font-weight="bold" font-size="66.0" fill="#000000" transform="matrix(1.00, 0.00, -0.00, -1.00, 465.6, 40.8)"> </text><text xml:space="preserve" font-family="ComicSansMS-Bold,Comic Sans MS" font-weight="bold" font-size="66.0" fill="#000000" transform="matrix(1.00, 0.00, -0.00, -1.00, 494.1, 40.8)">d</text><text xml:space="preserve" font-family="ComicSansMS-Bold,Comic Sans MS" font-weight="bold" font-size="66.0" fill="#000000" transform="matrix(1.00, 0.00, -0.00, -1.00, 532.9, 40.8)">e</text><text xml:space="preserve" font-family="ComicSansMS-Bold,Comic Sans MS" font-weight="bold" font-size="66.0" fill="#000000" transform="matrix(1.00, 0.00, -0.00, -1.00, 569.8, 40.8)"> </text><text xml:space="preserve" font-family="ComicSansMS-Bold,Comic Sans MS" font-weight="bold" font-size="66.0" fill="#000000" transform="matrix(1.00, 0.00, -0.00, -1.00, 598.4, 40.8)">p</text><text xml:space="preserve" font-family="ComicSansMS-Bold,Comic Sans MS" font-weight="bold" font-size="66.0" fill="#000000" transform="matrix(1.00, 0.00, -0.00, -1.00, 633.7, 40.8)">o</text><text xml:space="preserve" font-family="ComicSansMS-Bold,Comic Sans MS" font-weight="bold" font-size="66.0" fill="#000000" transform="matrix(1.00, 0.00, -0.00, -1.00, 668.4, 40.8)">s</text><text xml:space="preserve" font-family="ComicSansMS-Bold,Comic Sans MS" font-weight="bold" font-size="66.0" fill="#000000" transform="matrix(1.00, 0.00, -0.00, -1.00, 700.5, 40.8)">i</text><text xml:space="preserve" font-family="ComicSansMS-Bold,Comic Sans MS" font-weight="bold" font-size="66.0" fill="#000000" transform="matrix(1.00, 0.00, -0.00, -1.00, 719.0, 40.8)">c</text><text xml:space="preserve" font-family="ComicSansMS-Bold,Comic Sans MS" font-weight="bold" font-size="66.0" fill="#000000" transform="matrix(1.00, 0.00, -0.00, -1.00, 752.9, 40.8)">i</text><text xml:space="preserve" font-family="ComicSansMS-Bold,Comic Sans MS" font-weight="bold" font-size="66.0" fill="#000000" transform="matrix(1.00, 0.00, -0.00, -1.00, 771.4, 40.8)">ó</text><text xml:space="preserve" font-family="ComicSansMS-Bold,Comic Sans MS" font-weight="bold" font-size="66.0" fill="#000000" transform="matrix(1.00, 0.00, -0.00, -1.00, 806.1, 40.8)">n</text><text xml:space="preserve" font-family="ComicSansMS-Bold,Comic Sans MS" font-weight="bold" font-size="66.0" fill="#000000" transform="matrix(1.00, 0.00, -0.00, -1.00, 840.7, 40.8)"> </text><text xml:space="preserve" font-family="ComicSansMS-Bold,Comic Sans MS" font-weight="bold" font-size="66.0" fill="#000000" transform="matrix(1.00, 0.00, -0.00, -1.00, 869.3, 40.8)">t</text><text xml:space="preserve" font-family="ComicSansMS-Bold,Comic Sans MS" font-weight="bold" font-size="66.0" fill="#000000" transform="matrix(1.00, 0.00, -0.00, -1.00, 900.4, 40.8)">i</text><text xml:space="preserve" font-family="ComicSansMS-Bold,Comic Sans MS" font-weight="bold" font-size="66.0" fill="#000000" transform="matrix(1.00, 0.00, -0.00, -1.00, 918.9, 40.8)">e</text><text xml:space="preserve" font-family="ComicSansMS-Bold,Comic Sans MS" font-weight="bold" font-size="66.0" fill="#000000" transform="matrix(1.00, 0.00, -0.00, -1.00, 955.8, 40.8)">n</text><text xml:space="preserve" font-family="ComicSansMS-Bold,Comic Sans MS" font-weight="bold" font-size="66.0" fill="#000000" transform="matrix(1.00, 0.00, -0.00, -1.00, 990.4, 40.8)">e</text><text xml:space="preserve" font-family="ComicSansMS-Bold,Comic Sans MS" font-weight="bold" font-size="66.0" fill="#000000" transform="matrix(1.00, 0.00, -0.00, -1.00, 1027.3, 40.8)"> </text><text xml:space="preserve" font-family="ComicSansMS-Bold,Comic Sans MS" font-weight="bold" font-size="66.0" fill="#000000" transform="matrix(1.00, 0.00, -0.00, -1.00, 1055.9, 40.8)">e</text><text xml:space="preserve" font-family="ComicSansMS-Bold,Comic Sans MS" font-weight="bold" font-size="66.0" fill="#000000" transform="matrix(1.00, 0.00, -0.00, -1.00, 1092.8, 40.8)">l</text><text xml:space="preserve" font-family="ComicSansMS-Bold,Comic Sans MS" font-weight="bold" font-size="66.0" fill="#000000" transform="matrix(1.00, 0.00, -0.00, -1.00, 1110.9, 40.8)"> </text><text xml:space="preserve" font-family="ComicSansMS-Bold,Comic Sans MS" font-weight="bold" font-size="66.0" fill="#000000" transform="matrix(1.00, 0.00, -0.00, -1.00, 1139.5, 40.8)">8</text><text xml:space="preserve" font-family="ComicSansMS-Bold,Comic Sans MS" font-weight="bold" font-size="66.0" fill="#000000" transform="matrix(1.00, 0.00, -0.00, -1.00, 1179.8, 40.8)">?</text></g></g></g></svg>