<?xml version="1.0" encoding="UTF-8" standalone="no"?><svg xmlns="http://www.w3.org/2000/svg" xmlns:xlink="http://www.w3.org/1999/xlink" clip-rule="evenodd" stroke-miterlimit="10" viewBox="0 0 735 122"><desc>SVG generated by Keynote</desc><defs></defs><g transform="matrix(1.00, 0.00, -0.00, -1.00, 0.0, 122.0)"><text xml:space="preserve" font-family="ComicSansMS,Comic Sans MS" font-size="126.0" fill="#000000" transform="matrix(1.00, 0.00, -0.00, -1.00, -1.3, 23.7)">4</text><text xml:space="preserve" font-family="ComicSansMS,Comic Sans MS" font-size="126.0" fill="#000000" transform="matrix(1.00, 0.00, -0.00, -1.00, 75.7, 23.7)">6</text><text xml:space="preserve" font-family="ComicSansMS,Comic Sans MS" font-size="126.0" fill="#000000" transform="matrix(1.00, 0.00, -0.00, -1.00, 152.6, 23.7)">5</text><text xml:space="preserve" font-family="ComicSansMS,Comic Sans MS" font-size="126.0" fill="#000000" transform="matrix(1.00, 0.00, -0.00, -1.00, 229.6, 23.7)">,</text><text xml:space="preserve" font-family="ComicSansMS,Comic Sans MS" font-size="126.0" fill="#000000" transform="matrix(1.00, 0.00, -0.00, -1.00, 264.4, 23.7)">1</text><text xml:space="preserve" font-family="ComicSansMS,Comic Sans MS" font-size="126.0" fill="#000000" transform="matrix(1.00, 0.00, -0.00, -1.00, 321.2, 23.7)">0</text><text xml:space="preserve" font-family="ComicSansMS,Comic Sans MS" font-size="126.0" fill="#000000" transform="matrix(1.00, 0.00, -0.00, -1.00, 398.1, 23.7)">2</text><text xml:space="preserve" font-family="ComicSansMS,Comic Sans MS" font-size="126.0" fill="#000000" transform="matrix(1.00, 0.00, -0.00, -1.00, 475.1, 23.7)">,</text><text xml:space="preserve" font-family="ComicSansMS,Comic Sans MS" font-size="126.0" fill="#000000" transform="matrix(1.00, 0.00, -0.00, -1.00, 509.9, 23.7)">3</text><text xml:space="preserve" font-family="ComicSansMS,Comic Sans MS" font-size="126.0" fill="#000000" transform="matrix(1.00, 0.00, -0.00, -1.00, 586.9, 23.7)">9</text><text xml:space="preserve" font-family="ComicSansMS,Comic Sans MS" font-size="126.0" fill="#000000" transform="matrix(1.00, 0.00, -0.00, -1.00, 663.8, 23.7)">8</text></g></svg>