<?xml version="1.0" encoding="UTF-8" standalone="no"?><svg xmlns="http://www.w3.org/2000/svg" xmlns:xlink="http://www.w3.org/1999/xlink" clip-rule="evenodd" stroke-miterlimit="10" viewBox="0 0 1443 205"><desc>SVG generated by Keynote</desc><defs></defs><g transform="matrix(1.00, 0.00, -0.00, -1.00, 0.0, 205.0)"><path d="M 2.0 203.0 L 1442.0 203.0 L 1442.0 2.0 L 2.0 2.0 Z M 2.0 203.0 " fill="#FFFFFF"></path><g><clipPath id="clip0x7f87610dacd0"><path d="M -12.4 -12.6 L 1456.1 -12.6 L 1456.1 217.4 L -12.4 217.4 Z M -12.4 -12.6 "></path></clipPath><g clip-path="url(#clip0x7f87610dacd0)"><text xml:space="preserve" font-family="ComicSansMS,Comic Sans MS" font-size="66.0" fill="#000000" transform="matrix(1.00, 0.00, -0.00, -1.00, 41.8, 121.6)">C</text><text xml:space="preserve" font-family="ComicSansMS,Comic Sans MS" font-size="66.0" fill="#000000" transform="matrix(1.00, 0.00, -0.00, -1.00, 81.5, 121.6)">u</text><text xml:space="preserve" font-family="ComicSansMS,Comic Sans MS" font-size="66.0" fill="#000000" transform="matrix(1.00, 0.00, -0.00, -1.00, 115.8, 121.6)">a</text><text xml:space="preserve" font-family="ComicSansMS,Comic Sans MS" font-size="66.0" fill="#000000" transform="matrix(1.00, 0.00, -0.00, -1.00, 149.6, 121.6)">n</text><text xml:space="preserve" font-family="ComicSansMS,Comic Sans MS" font-size="66.0" fill="#000000" transform="matrix(1.00, 0.00, -0.00, -1.00, 184.1, 121.6)">d</text><text xml:space="preserve" font-family="ComicSansMS,Comic Sans MS" font-size="66.0" fill="#000000" transform="matrix(1.00, 0.00, -0.00, -1.00, 222.9, 121.6)">o</text><text xml:space="preserve" font-family="ComicSansMS,Comic Sans MS" font-size="66.0" fill="#000000" transform="matrix(1.00, 0.00, -0.00, -1.00, 257.6, 121.6)"> </text><text xml:space="preserve" font-family="ComicSansMS,Comic Sans MS" font-size="66.0" fill="#000000" transform="matrix(1.00, 0.00, -0.00, -1.00, 277.3, 121.6)">h</text><text xml:space="preserve" font-family="ComicSansMS,Comic Sans MS" font-size="66.0" fill="#000000" transform="matrix(1.00, 0.00, -0.00, -1.00, 315.4, 121.6)">a</text><text xml:space="preserve" font-family="ComicSansMS,Comic Sans MS" font-size="66.0" fill="#000000" transform="matrix(1.00, 0.00, -0.00, -1.00, 349.2, 121.6)">y</text><text xml:space="preserve" font-family="ComicSansMS,Comic Sans MS" font-size="66.0" fill="#000000" transform="matrix(1.00, 0.00, -0.00, -1.00, 383.5, 121.6)"> </text><text xml:space="preserve" font-family="ComicSansMS,Comic Sans MS" font-size="66.0" fill="#000000" transform="matrix(1.00, 0.00, -0.00, -1.00, 403.2, 121.6)">n</text><text xml:space="preserve" font-family="ComicSansMS,Comic Sans MS" font-size="66.0" fill="#000000" transform="matrix(1.00, 0.00, -0.00, -1.00, 437.8, 121.6)">a</text><text xml:space="preserve" font-family="ComicSansMS,Comic Sans MS" font-size="66.0" fill="#000000" transform="matrix(1.00, 0.00, -0.00, -1.00, 471.6, 121.6)">d</text><text xml:space="preserve" font-family="ComicSansMS,Comic Sans MS" font-size="66.0" fill="#000000" transform="matrix(1.00, 0.00, -0.00, -1.00, 510.3, 121.6)">a</text><text xml:space="preserve" font-family="ComicSansMS,Comic Sans MS" font-size="66.0" fill="#000000" transform="matrix(1.00, 0.00, -0.00, -1.00, 544.1, 121.6)"> </text><text xml:space="preserve" font-family="ComicSansMS,Comic Sans MS" font-size="66.0" fill="#000000" transform="matrix(1.00, 0.00, -0.00, -1.00, 563.8, 121.6)">m</text><text xml:space="preserve" font-family="ComicSansMS,Comic Sans MS" font-size="66.0" fill="#000000" transform="matrix(1.00, 0.00, -0.00, -1.00, 615.1, 121.6)">á</text><text xml:space="preserve" font-family="ComicSansMS,Comic Sans MS" font-size="66.0" fill="#000000" transform="matrix(1.00, 0.00, -0.00, -1.00, 648.8, 121.6)">s</text><text xml:space="preserve" font-family="ComicSansMS,Comic Sans MS" font-size="66.0" fill="#000000" transform="matrix(1.00, 0.00, -0.00, -1.00, 680.9, 121.6)"> </text><text xml:space="preserve" font-family="ComicSansMS,Comic Sans MS" font-size="66.0" fill="#000000" transform="matrix(1.00, 0.00, -0.00, -1.00, 700.7, 121.6)">u</text><text xml:space="preserve" font-family="ComicSansMS,Comic Sans MS" font-size="66.0" fill="#000000" transform="matrix(1.00, 0.00, -0.00, -1.00, 735.0, 121.6)">n</text><text xml:space="preserve" font-family="ComicSansMS,Comic Sans MS" font-size="66.0" fill="#000000" transform="matrix(1.00, 0.00, -0.00, -1.00, 769.6, 121.6)">a</text><text xml:space="preserve" font-family="ComicSansMS,Comic Sans MS" font-size="66.0" fill="#000000" transform="matrix(1.00, 0.00, -0.00, -1.00, 803.3, 121.6)"> </text><text xml:space="preserve" font-family="ComicSansMS,Comic Sans MS" font-size="66.0" fill="#000000" transform="matrix(1.00, 0.00, -0.00, -1.00, 823.0, 121.6)">c</text><text xml:space="preserve" font-family="ComicSansMS,Comic Sans MS" font-size="66.0" fill="#000000" transform="matrix(1.00, 0.00, -0.00, -1.00, 856.9, 121.6)">o</text><text xml:space="preserve" font-family="ComicSansMS,Comic Sans MS" font-size="66.0" fill="#000000" transform="matrix(1.00, 0.00, -0.00, -1.00, 891.6, 121.6)">m</text><text xml:space="preserve" font-family="ComicSansMS,Comic Sans MS" font-size="66.0" fill="#000000" transform="matrix(1.00, 0.00, -0.00, -1.00, 942.9, 121.6)">a</text><text xml:space="preserve" font-family="ComicSansMS,Comic Sans MS" font-size="66.0" fill="#000000" transform="matrix(1.00, 0.00, -0.00, -1.00, 976.6, 121.6)"> </text><text xml:space="preserve" font-family="ComicSansMS,Comic Sans MS" font-size="66.0" fill="#000000" transform="matrix(1.00, 0.00, -0.00, -1.00, 996.3, 121.6)">e</text><text xml:space="preserve" font-family="ComicSansMS,Comic Sans MS" font-size="66.0" fill="#000000" transform="matrix(1.00, 0.00, -0.00, -1.00, 1032.5, 121.6)">n</text><text xml:space="preserve" font-family="ComicSansMS,Comic Sans MS" font-size="66.0" fill="#000000" transform="matrix(1.00, 0.00, -0.00, -1.00, 1067.1, 121.6)"> </text><text xml:space="preserve" font-family="ComicSansMS,Comic Sans MS" font-size="66.0" fill="#000000" transform="matrix(1.00, 0.00, -0.00, -1.00, 1086.8, 121.6)">e</text><text xml:space="preserve" font-family="ComicSansMS,Comic Sans MS" font-size="66.0" fill="#000000" transform="matrix(1.00, 0.00, -0.00, -1.00, 1122.9, 121.6)">l</text><text xml:space="preserve" font-family="ComicSansMS,Comic Sans MS" font-size="66.0" fill="#000000" transform="matrix(1.00, 0.00, -0.00, -1.00, 1141.0, 121.6)"> </text><text xml:space="preserve" font-family="ComicSansMS,Comic Sans MS" font-size="66.0" fill="#000000" transform="matrix(1.00, 0.00, -0.00, -1.00, 1160.7, 121.6)">n</text><text xml:space="preserve" font-family="ComicSansMS,Comic Sans MS" font-size="66.0" fill="#000000" transform="matrix(1.00, 0.00, -0.00, -1.00, 1195.3, 121.6)">ú</text><text xml:space="preserve" font-family="ComicSansMS,Comic Sans MS" font-size="66.0" fill="#000000" transform="matrix(1.00, 0.00, -0.00, -1.00, 1229.6, 121.6)">m</text><text xml:space="preserve" font-family="ComicSansMS,Comic Sans MS" font-size="66.0" fill="#000000" transform="matrix(1.00, 0.00, -0.00, -1.00, 1280.9, 121.6)">e</text><text xml:space="preserve" font-family="ComicSansMS,Comic Sans MS" font-size="66.0" fill="#000000" transform="matrix(1.00, 0.00, -0.00, -1.00, 1317.0, 121.6)">r</text><text xml:space="preserve" font-family="ComicSansMS,Comic Sans MS" font-size="66.0" fill="#000000" transform="matrix(1.00, 0.00, -0.00, -1.00, 1348.8, 121.6)">o</text><text xml:space="preserve" font-family="ComicSansMS,Comic Sans MS" font-size="66.0" fill="#000000" transform="matrix(1.00, 0.00, -0.00, -1.00, 1383.5, 121.6)">,</text><text xml:space="preserve" font-family="ComicSansMS,Comic Sans MS" font-size="66.0" fill="#000000" transform="matrix(1.00, 0.00, -0.00, -1.00, 1401.7, 121.6)"> </text><text xml:space="preserve" font-family="ComicSansMS-Bold,Comic Sans MS" font-weight="bold" font-size="66.0" fill="#000000" transform="matrix(1.00, 0.00, -0.00, -1.00, 590.9, 29.6)">d</text><text xml:space="preserve" font-family="ComicSansMS-Bold,Comic Sans MS" font-weight="bold" font-size="66.0" fill="#000000" transform="matrix(1.00, 0.00, -0.00, -1.00, 629.7, 29.6)">i</text><text xml:space="preserve" font-family="ComicSansMS-Bold,Comic Sans MS" font-weight="bold" font-size="66.0" fill="#000000" transform="matrix(1.00, 0.00, -0.00, -1.00, 648.2, 29.6)">g</text><text xml:space="preserve" font-family="ComicSansMS-Bold,Comic Sans MS" font-weight="bold" font-size="66.0" fill="#000000" transform="matrix(1.00, 0.00, -0.00, -1.00, 683.2, 29.6)">a</text><text xml:space="preserve" font-family="ComicSansMS-Bold,Comic Sans MS" font-weight="bold" font-size="66.0" fill="#000000" transform="matrix(1.00, 0.00, -0.00, -1.00, 719.9, 29.6)"> </text><text xml:space="preserve" font-family="ComicSansMS-Bold,Comic Sans MS" font-weight="bold" font-size="66.0" fill="#000000" transform="matrix(1.00, 0.00, -0.00, -1.00, 748.4, 29.6)">m</text><text xml:space="preserve" font-family="ComicSansMS-Bold,Comic Sans MS" font-weight="bold" font-size="66.0" fill="#000000" transform="matrix(1.00, 0.00, -0.00, -1.00, 799.7, 29.6)">i</text><text xml:space="preserve" font-family="ComicSansMS-Bold,Comic Sans MS" font-weight="bold" font-size="66.0" fill="#000000" transform="matrix(1.00, 0.00, -0.00, -1.00, 818.2, 29.6)">l</text><text xml:space="preserve" font-family="ComicSansMS,Comic Sans MS" font-size="66.0" fill="#000000" transform="matrix(1.00, 0.00, -0.00, -1.00, 836.4, 29.6)">.</text><path d="M 588.9 182.2 L 834.4 182.2 " fill="none" stroke="#000000" stroke-width="5.64" transform="matrix(1.00, 0.00, 0.00, -1.00, 2.0, 203.0)"></path></g></g></g></svg>