<?xml version="1.0" encoding="UTF-8" standalone="no"?><svg xmlns="http://www.w3.org/2000/svg" xmlns:xlink="http://www.w3.org/1999/xlink" clip-rule="evenodd" stroke-miterlimit="10" viewBox="0 0 1346 263"><desc>SVG generated by Keynote</desc><defs></defs><g transform="matrix(1.00, 0.00, -0.00, -1.00, 0.0, 263.0)"><path d="M 3.5 259.5 L 1342.5 259.5 L 1342.5 2.5 L 3.5 2.5 Z M 3.4 260.0 " fill="#D7E3BC"></path><path d="M 0.1 0.5 L 1339.1 0.5 L 1339.1 257.5 L 0.1 257.5 Z M 0.0 0.0 " fill="none" stroke="#000000" stroke-width="3.00" stroke-linejoin="bevel" transform="matrix(1.00, 0.00, 0.00, -1.00, 3.4, 260.0)"></path><g><clipPath id="clip0x7f87610cf9d0"><path d="M -45.7 -46.4 L 1391.7 -46.4 L 1391.7 309.1 L -45.7 309.1 Z M -45.7 -46.4 "></path></clipPath><g clip-path="url(#clip0x7f87610cf9d0)"><text xml:space="preserve" font-family="ComicSansMS,Comic Sans MS" font-size="170.0" fill="#0033CC" transform="matrix(1.00, 0.00, -0.00, -1.00, 406.0, 62.4)">2</text><text xml:space="preserve" font-family="ComicSansMS,Comic Sans MS" font-size="170.0" fill="#0033CC" transform="matrix(1.00, 0.00, -0.00, -1.00, 524.2, 62.4)">,</text><text xml:space="preserve" font-family="ComicSansMS,Comic Sans MS" font-size="170.0" fill="#0033CC" transform="matrix(1.00, 0.00, -0.00, -1.00, 585.6, 62.4)">8</text><text xml:space="preserve" font-family="ComicSansMS,Comic Sans MS" font-size="170.0" fill="#0033CC" transform="matrix(1.00, 0.00, -0.00, -1.00, 703.7, 62.4)">9</text><text xml:space="preserve" font-family="ComicSansMS,Comic Sans MS" font-size="170.0" fill="#0033CC" transform="matrix(1.00, 0.00, -0.00, -1.00, 821.9, 62.4)">6</text></g></g></g></svg>