<?xml version="1.0" encoding="UTF-8" standalone="no"?><svg xmlns="http://www.w3.org/2000/svg" xmlns:xlink="http://www.w3.org/1999/xlink" clip-rule="evenodd" stroke-miterlimit="10" viewBox="0 0 1920 1080"><desc>SVG generated by Keynote</desc><defs></defs><g transform="matrix(1.00, 0.00, -0.00, -1.00, 0.0, 1080.0)"><path d="M 0.0 1080.0 L 1920.0 1080.0 L 1920.0 0.0 L 0.0 0.0 Z M 0.0 1080.0 " fill="#FFFFFF"></path><path d="M 395.0 653.0 L 1542.0 653.0 L 1542.0 546.0 L 395.0 546.0 Z M 395.4 653.4 " fill="#FFFFFF"></path><g><clipPath id="clip0x7f875983f870"><path d="M 381.7 532.5 L 1555.7 532.5 L 1555.7 667.1 L 381.7 667.1 Z M 381.7 532.5 "></path></clipPath><g clip-path="url(#clip0x7f875983f870)"><text xml:space="preserve" font-family="ComicSansMS,Comic Sans MS" font-size="64.0" fill="#000000" transform="matrix(1.00, 0.00, -0.00, -1.00, 716.4, 573.4)">L</text><text xml:space="preserve" font-family="ComicSansMS,Comic Sans MS" font-size="64.0" fill="#000000" transform="matrix(1.00, 0.00, -0.00, -1.00, 751.6, 573.4)">e</text><text xml:space="preserve" font-family="ComicSansMS,Comic Sans MS" font-size="64.0" fill="#000000" transform="matrix(1.00, 0.00, -0.00, -1.00, 786.7, 573.4)">a</text><text xml:space="preserve" font-family="ComicSansMS,Comic Sans MS" font-size="64.0" fill="#000000" transform="matrix(1.00, 0.00, -0.00, -1.00, 819.4, 573.4)"> </text><text xml:space="preserve" font-family="ComicSansMS,Comic Sans MS" font-size="64.0" fill="#000000" transform="matrix(1.00, 0.00, -0.00, -1.00, 838.5, 573.4)">e</text><text xml:space="preserve" font-family="ComicSansMS,Comic Sans MS" font-size="64.0" fill="#000000" transform="matrix(1.00, 0.00, -0.00, -1.00, 873.6, 573.4)">s</text><text xml:space="preserve" font-family="ComicSansMS,Comic Sans MS" font-size="64.0" fill="#000000" transform="matrix(1.00, 0.00, -0.00, -1.00, 904.7, 573.4)">t</text><text xml:space="preserve" font-family="ComicSansMS,Comic Sans MS" font-size="64.0" fill="#000000" transform="matrix(1.00, 0.00, -0.00, -1.00, 934.9, 573.4)">e</text><text xml:space="preserve" font-family="ComicSansMS,Comic Sans MS" font-size="64.0" fill="#000000" transform="matrix(1.00, 0.00, -0.00, -1.00, 969.9, 573.4)"> </text><text xml:space="preserve" font-family="ComicSansMS,Comic Sans MS" font-size="64.0" fill="#000000" transform="matrix(1.00, 0.00, -0.00, -1.00, 989.0, 573.4)">n</text><text xml:space="preserve" font-family="ComicSansMS,Comic Sans MS" font-size="64.0" fill="#000000" transform="matrix(1.00, 0.00, -0.00, -1.00, 1022.6, 573.4)">ú</text><text xml:space="preserve" font-family="ComicSansMS,Comic Sans MS" font-size="64.0" fill="#000000" transform="matrix(1.00, 0.00, -0.00, -1.00, 1055.9, 573.4)">m</text><text xml:space="preserve" font-family="ComicSansMS,Comic Sans MS" font-size="64.0" fill="#000000" transform="matrix(1.00, 0.00, -0.00, -1.00, 1105.6, 573.4)">e</text><text xml:space="preserve" font-family="ComicSansMS,Comic Sans MS" font-size="64.0" fill="#000000" transform="matrix(1.00, 0.00, -0.00, -1.00, 1140.6, 573.4)">r</text><text xml:space="preserve" font-family="ComicSansMS,Comic Sans MS" font-size="64.0" fill="#000000" transform="matrix(1.00, 0.00, -0.00, -1.00, 1171.4, 573.4)">o</text><text xml:space="preserve" font-family="ComicSansMS,Comic Sans MS" font-size="64.0" fill="#000000" transform="matrix(1.00, 0.00, -0.00, -1.00, 1205.1, 573.4)">.</text></g></g><path d="M 290.5 539.5 L 1629.5 539.5 L 1629.5 282.5 L 290.5 282.5 Z M 290.4 540.0 " fill="#D7E3BC"></path><path d="M 0.1 0.5 L 1339.1 0.5 L 1339.1 257.5 L 0.1 257.5 Z M 0.0 0.0 " fill="none" stroke="#000000" stroke-width="3.00" stroke-linejoin="bevel" transform="matrix(1.00, 0.00, 0.00, -1.00, 290.4, 540.0)"></path><g><clipPath id="clip0x7f8760671540"><path d="M 241.3 233.6 L 1678.7 233.6 L 1678.7 589.1 L 241.3 589.1 Z M 241.3 233.6 "></path></clipPath><g clip-path="url(#clip0x7f8760671540)"><text xml:space="preserve" font-family="ComicSansMS,Comic Sans MS" font-size="170.0" fill="#0033CC" transform="matrix(1.00, 0.00, -0.00, -1.00, 693.0, 342.4)">2</text><text xml:space="preserve" font-family="ComicSansMS,Comic Sans MS" font-size="170.0" fill="#0033CC" transform="matrix(1.00, 0.00, -0.00, -1.00, 811.2, 342.4)">,</text><text xml:space="preserve" font-family="ComicSansMS,Comic Sans MS" font-size="170.0" fill="#0033CC" transform="matrix(1.00, 0.00, -0.00, -1.00, 872.6, 342.4)">8</text><text xml:space="preserve" font-family="ComicSansMS,Comic Sans MS" font-size="170.0" fill="#0033CC" transform="matrix(1.00, 0.00, -0.00, -1.00, 990.7, 342.4)">9</text><text xml:space="preserve" font-family="ComicSansMS,Comic Sans MS" font-size="170.0" fill="#0033CC" transform="matrix(1.00, 0.00, -0.00, -1.00, 1108.9, 342.4)">6</text></g></g><path d="M 706.0 281.0 L 986.0 281.0 L 986.0 164.0 L 706.0 164.0 Z M 705.6 280.8 " fill="#FFFFFF"></path><g><clipPath id="clip0x7f87606749b0"><path d="M 701.7 159.6 L 989.6 159.6 L 989.6 284.7 L 701.7 284.7 Z M 701.7 159.6 "></path></clipPath><g clip-path="url(#clip0x7f87606749b0)"><text xml:space="preserve" font-family="ComicSansMS-Bold,Comic Sans MS" font-weight="bold" font-size="36.0" fill="#042433" transform="matrix(1.00, 0.00, -0.00, -1.00, 810.5, 232.7)">d</text><text xml:space="preserve" font-family="ComicSansMS-Bold,Comic Sans MS" font-weight="bold" font-size="36.0" fill="#042433" transform="matrix(1.00, 0.00, -0.00, -1.00, 831.7, 232.7)">i</text><text xml:space="preserve" font-family="ComicSansMS-Bold,Comic Sans MS" font-weight="bold" font-size="36.0" fill="#042433" transform="matrix(1.00, 0.00, -0.00, -1.00, 841.8, 232.7)">g</text><text xml:space="preserve" font-family="ComicSansMS-Bold,Comic Sans MS" font-weight="bold" font-size="36.0" fill="#042433" transform="matrix(1.00, 0.00, -0.00, -1.00, 860.9, 232.7)">a</text><text xml:space="preserve" font-family="ComicSansMS-Bold,Comic Sans MS" font-weight="bold" font-size="36.0" fill="#042433" transform="matrix(1.00, 0.00, -0.00, -1.00, 880.8, 232.7)"> </text><text xml:space="preserve" font-family="ComicSansMS-Bold,Comic Sans MS" font-weight="bold" font-size="36.0" fill="#042433" transform="matrix(1.00, 0.00, -0.00, -1.00, 896.4, 232.7)"> </text><text xml:space="preserve" font-family="ComicSansMS-Bold,Comic Sans MS" font-weight="bold" font-size="36.0" fill="#042433" transform="matrix(1.00, 0.00, -0.00, -1.00, 821.7, 182.7)">m</text><text xml:space="preserve" font-family="ComicSansMS-Bold,Comic Sans MS" font-weight="bold" font-size="36.0" fill="#042433" transform="matrix(1.00, 0.00, -0.00, -1.00, 849.7, 182.7)">i</text><text xml:space="preserve" font-family="ComicSansMS-Bold,Comic Sans MS" font-weight="bold" font-size="36.0" fill="#042433" transform="matrix(1.00, 0.00, -0.00, -1.00, 859.8, 182.7)">l</text></g></g><path d="M 240.0 972.0 L 1680.0 972.0 L 1680.0 771.0 L 240.0 771.0 Z M 240.0 972.0 " fill="#FFFFFF"></path><g><clipPath id="clip0x7f876067a9a0"><path d="M 225.6 756.4 L 1694.1 756.4 L 1694.1 986.4 L 225.6 986.4 Z M 225.6 756.4 "></path></clipPath><g clip-path="url(#clip0x7f876067a9a0)"><text xml:space="preserve" font-family="ComicSansMS,Comic Sans MS" font-size="66.0" fill="#000000" transform="matrix(1.00, 0.00, -0.00, -1.00, 279.8, 890.6)">C</text><text xml:space="preserve" font-family="ComicSansMS,Comic Sans MS" font-size="66.0" fill="#000000" transform="matrix(1.00, 0.00, -0.00, -1.00, 319.5, 890.6)">u</text><text xml:space="preserve" font-family="ComicSansMS,Comic Sans MS" font-size="66.0" fill="#000000" transform="matrix(1.00, 0.00, -0.00, -1.00, 353.8, 890.6)">a</text><text xml:space="preserve" font-family="ComicSansMS,Comic Sans MS" font-size="66.0" fill="#000000" transform="matrix(1.00, 0.00, -0.00, -1.00, 387.6, 890.6)">n</text><text xml:space="preserve" font-family="ComicSansMS,Comic Sans MS" font-size="66.0" fill="#000000" transform="matrix(1.00, 0.00, -0.00, -1.00, 422.1, 890.6)">d</text><text xml:space="preserve" font-family="ComicSansMS,Comic Sans MS" font-size="66.0" fill="#000000" transform="matrix(1.00, 0.00, -0.00, -1.00, 460.9, 890.6)">o</text><text xml:space="preserve" font-family="ComicSansMS,Comic Sans MS" font-size="66.0" fill="#000000" transform="matrix(1.00, 0.00, -0.00, -1.00, 495.6, 890.6)"> </text><text xml:space="preserve" font-family="ComicSansMS,Comic Sans MS" font-size="66.0" fill="#000000" transform="matrix(1.00, 0.00, -0.00, -1.00, 515.3, 890.6)">h</text><text xml:space="preserve" font-family="ComicSansMS,Comic Sans MS" font-size="66.0" fill="#000000" transform="matrix(1.00, 0.00, -0.00, -1.00, 553.4, 890.6)">a</text><text xml:space="preserve" font-family="ComicSansMS,Comic Sans MS" font-size="66.0" fill="#000000" transform="matrix(1.00, 0.00, -0.00, -1.00, 587.2, 890.6)">y</text><text xml:space="preserve" font-family="ComicSansMS,Comic Sans MS" font-size="66.0" fill="#000000" transform="matrix(1.00, 0.00, -0.00, -1.00, 621.5, 890.6)"> </text><text xml:space="preserve" font-family="ComicSansMS,Comic Sans MS" font-size="66.0" fill="#000000" transform="matrix(1.00, 0.00, -0.00, -1.00, 641.2, 890.6)">n</text><text xml:space="preserve" font-family="ComicSansMS,Comic Sans MS" font-size="66.0" fill="#000000" transform="matrix(1.00, 0.00, -0.00, -1.00, 675.8, 890.6)">a</text><text xml:space="preserve" font-family="ComicSansMS,Comic Sans MS" font-size="66.0" fill="#000000" transform="matrix(1.00, 0.00, -0.00, -1.00, 709.6, 890.6)">d</text><text xml:space="preserve" font-family="ComicSansMS,Comic Sans MS" font-size="66.0" fill="#000000" transform="matrix(1.00, 0.00, -0.00, -1.00, 748.3, 890.6)">a</text><text xml:space="preserve" font-family="ComicSansMS,Comic Sans MS" font-size="66.0" fill="#000000" transform="matrix(1.00, 0.00, -0.00, -1.00, 782.1, 890.6)"> </text><text xml:space="preserve" font-family="ComicSansMS,Comic Sans MS" font-size="66.0" fill="#000000" transform="matrix(1.00, 0.00, -0.00, -1.00, 801.8, 890.6)">m</text><text xml:space="preserve" font-family="ComicSansMS,Comic Sans MS" font-size="66.0" fill="#000000" transform="matrix(1.00, 0.00, -0.00, -1.00, 853.1, 890.6)">á</text><text xml:space="preserve" font-family="ComicSansMS,Comic Sans MS" font-size="66.0" fill="#000000" transform="matrix(1.00, 0.00, -0.00, -1.00, 886.8, 890.6)">s</text><text xml:space="preserve" font-family="ComicSansMS,Comic Sans MS" font-size="66.0" fill="#000000" transform="matrix(1.00, 0.00, -0.00, -1.00, 918.9, 890.6)"> </text><text xml:space="preserve" font-family="ComicSansMS,Comic Sans MS" font-size="66.0" fill="#000000" transform="matrix(1.00, 0.00, -0.00, -1.00, 938.7, 890.6)">u</text><text xml:space="preserve" font-family="ComicSansMS,Comic Sans MS" font-size="66.0" fill="#000000" transform="matrix(1.00, 0.00, -0.00, -1.00, 973.0, 890.6)">n</text><text xml:space="preserve" font-family="ComicSansMS,Comic Sans MS" font-size="66.0" fill="#000000" transform="matrix(1.00, 0.00, -0.00, -1.00, 1007.6, 890.6)">a</text><text xml:space="preserve" font-family="ComicSansMS,Comic Sans MS" font-size="66.0" fill="#000000" transform="matrix(1.00, 0.00, -0.00, -1.00, 1041.3, 890.6)"> </text><text xml:space="preserve" font-family="ComicSansMS,Comic Sans MS" font-size="66.0" fill="#000000" transform="matrix(1.00, 0.00, -0.00, -1.00, 1061.0, 890.6)">c</text><text xml:space="preserve" font-family="ComicSansMS,Comic Sans MS" font-size="66.0" fill="#000000" transform="matrix(1.00, 0.00, -0.00, -1.00, 1094.9, 890.6)">o</text><text xml:space="preserve" font-family="ComicSansMS,Comic Sans MS" font-size="66.0" fill="#000000" transform="matrix(1.00, 0.00, -0.00, -1.00, 1129.6, 890.6)">m</text><text xml:space="preserve" font-family="ComicSansMS,Comic Sans MS" font-size="66.0" fill="#000000" transform="matrix(1.00, 0.00, -0.00, -1.00, 1180.9, 890.6)">a</text><text xml:space="preserve" font-family="ComicSansMS,Comic Sans MS" font-size="66.0" fill="#000000" transform="matrix(1.00, 0.00, -0.00, -1.00, 1214.6, 890.6)"> </text><text xml:space="preserve" font-family="ComicSansMS,Comic Sans MS" font-size="66.0" fill="#000000" transform="matrix(1.00, 0.00, -0.00, -1.00, 1234.3, 890.6)">e</text><text xml:space="preserve" font-family="ComicSansMS,Comic Sans MS" font-size="66.0" fill="#000000" transform="matrix(1.00, 0.00, -0.00, -1.00, 1270.5, 890.6)">n</text><text xml:space="preserve" font-family="ComicSansMS,Comic Sans MS" font-size="66.0" fill="#000000" transform="matrix(1.00, 0.00, -0.00, -1.00, 1305.1, 890.6)"> </text><text xml:space="preserve" font-family="ComicSansMS,Comic Sans MS" font-size="66.0" fill="#000000" transform="matrix(1.00, 0.00, -0.00, -1.00, 1324.8, 890.6)">e</text><text xml:space="preserve" font-family="ComicSansMS,Comic Sans MS" font-size="66.0" fill="#000000" transform="matrix(1.00, 0.00, -0.00, -1.00, 1360.9, 890.6)">l</text><text xml:space="preserve" font-family="ComicSansMS,Comic Sans MS" font-size="66.0" fill="#000000" transform="matrix(1.00, 0.00, -0.00, -1.00, 1379.0, 890.6)"> </text><text xml:space="preserve" font-family="ComicSansMS,Comic Sans MS" font-size="66.0" fill="#000000" transform="matrix(1.00, 0.00, -0.00, -1.00, 1398.7, 890.6)">n</text><text xml:space="preserve" font-family="ComicSansMS,Comic Sans MS" font-size="66.0" fill="#000000" transform="matrix(1.00, 0.00, -0.00, -1.00, 1433.3, 890.6)">ú</text><text xml:space="preserve" font-family="ComicSansMS,Comic Sans MS" font-size="66.0" fill="#000000" transform="matrix(1.00, 0.00, -0.00, -1.00, 1467.6, 890.6)">m</text><text xml:space="preserve" font-family="ComicSansMS,Comic Sans MS" font-size="66.0" fill="#000000" transform="matrix(1.00, 0.00, -0.00, -1.00, 1518.9, 890.6)">e</text><text xml:space="preserve" font-family="ComicSansMS,Comic Sans MS" font-size="66.0" fill="#000000" transform="matrix(1.00, 0.00, -0.00, -1.00, 1555.0, 890.6)">r</text><text xml:space="preserve" font-family="ComicSansMS,Comic Sans MS" font-size="66.0" fill="#000000" transform="matrix(1.00, 0.00, -0.00, -1.00, 1586.8, 890.6)">o</text><text xml:space="preserve" font-family="ComicSansMS,Comic Sans MS" font-size="66.0" fill="#000000" transform="matrix(1.00, 0.00, -0.00, -1.00, 1621.5, 890.6)">,</text><text xml:space="preserve" font-family="ComicSansMS,Comic Sans MS" font-size="66.0" fill="#000000" transform="matrix(1.00, 0.00, -0.00, -1.00, 1639.7, 890.6)"> </text><text xml:space="preserve" font-family="ComicSansMS-Bold,Comic Sans MS" font-weight="bold" font-size="66.0" fill="#000000" transform="matrix(1.00, 0.00, -0.00, -1.00, 828.9, 798.6)">d</text><text xml:space="preserve" font-family="ComicSansMS-Bold,Comic Sans MS" font-weight="bold" font-size="66.0" fill="#000000" transform="matrix(1.00, 0.00, -0.00, -1.00, 867.7, 798.6)">i</text><text xml:space="preserve" font-family="ComicSansMS-Bold,Comic Sans MS" font-weight="bold" font-size="66.0" fill="#000000" transform="matrix(1.00, 0.00, -0.00, -1.00, 886.2, 798.6)">g</text><text xml:space="preserve" font-family="ComicSansMS-Bold,Comic Sans MS" font-weight="bold" font-size="66.0" fill="#000000" transform="matrix(1.00, 0.00, -0.00, -1.00, 921.2, 798.6)">a</text><text xml:space="preserve" font-family="ComicSansMS-Bold,Comic Sans MS" font-weight="bold" font-size="66.0" fill="#000000" transform="matrix(1.00, 0.00, -0.00, -1.00, 957.9, 798.6)"> </text><text xml:space="preserve" font-family="ComicSansMS-Bold,Comic Sans MS" font-weight="bold" font-size="66.0" fill="#000000" transform="matrix(1.00, 0.00, -0.00, -1.00, 986.4, 798.6)">m</text><text xml:space="preserve" font-family="ComicSansMS-Bold,Comic Sans MS" font-weight="bold" font-size="66.0" fill="#000000" transform="matrix(1.00, 0.00, -0.00, -1.00, 1037.7, 798.6)">i</text><text xml:space="preserve" font-family="ComicSansMS-Bold,Comic Sans MS" font-weight="bold" font-size="66.0" fill="#000000" transform="matrix(1.00, 0.00, -0.00, -1.00, 1056.2, 798.6)">l</text><text xml:space="preserve" font-family="ComicSansMS,Comic Sans MS" font-size="66.0" fill="#000000" transform="matrix(1.00, 0.00, -0.00, -1.00, 1074.4, 798.6)">.</text><path d="M 588.9 182.2 L 834.4 182.2 " fill="none" stroke="#000000" stroke-width="5.64" transform="matrix(1.00, 0.00, 0.00, -1.00, 240.0, 972.0)"></path></g></g><g><clipPath id="clip0x7f8760692330"><path d="M 1484.0 166.0 L 1639.0 166.0 L 1639.0 65.0 L 1484.0 65.0 Z M 1483.7 165.6 "></path></clipPath><g clip-path="url(#clip0x7f8760692330)"><g><clipPath id="clip0x7f8760692ab0"><path d="M 1483.7 64.8 L 1638.8 64.8 L 1638.8 165.6 L 1483.7 165.6 Z M 1483.7 64.8 "></path></clipPath><g clip-path="url(#clip0x7f8760692ab0)"><image xlink:href="../../BF6DC8B6-E505-4222-AA15-A9E26ADAED33/assets/80853EFD8D24BCE501047C376B8C7833.png" width="260.00" height="194.00" transform="matrix(0.66, 0.00, -0.00, -0.66, 1468.2, 165.6)"></image></g></g></g></g><g><clipPath id="clip0x7f8760694170"><path d="M 1448.2 38.0 L 1488.8 38.0 L 1488.8 78.4 L 1448.2 78.4 Z M 1448.2 38.0 "></path></clipPath><g clip-path="url(#clip0x7f8760694170)"><path d="M 1468.5 77.2 L 1474.3 64.8 L 1487.4 62.8 L 1478.0 53.1 L 1480.2 39.4 L 1468.5 45.9 L 1456.8 39.4 L 1459.0 53.1 L 1449.6 62.8 L 1462.7 64.8 Z M 1468.5 77.2 " fill="#C3D69B"></path><path d="M 19.9 0.0 L 25.7 12.4 L 38.8 14.4 L 29.3 24.1 L 31.6 37.8 L 19.9 31.3 L 8.2 37.8 L 10.4 24.1 L 1.0 14.4 L 14.0 12.4 Z M 19.9 0.0 " fill="none" stroke="#000000" stroke-width="1.00" stroke-linejoin="bevel" transform="matrix(1.00, 0.00, 0.00, -1.00, 1448.6, 77.2)"></path></g></g></g></svg>