<?xml version="1.0" encoding="UTF-8" standalone="no"?><svg xmlns="http://www.w3.org/2000/svg" xmlns:xlink="http://www.w3.org/1999/xlink" clip-rule="evenodd" stroke-miterlimit="10" viewBox="0 0 1920 1080"><desc>SVG generated by Keynote</desc><defs></defs><g transform="matrix(1.00, 0.00, -0.00, -1.00, 0.0, 1080.0)"><path d="M 0.0 1080.0 L 1920.0 1080.0 L 1920.0 0.0 L 0.0 0.0 Z M 0.0 1080.0 " fill="#FFFFFF"></path><text xml:space="preserve" font-family="ArialRoundedMTBold,Arial Rounded MT Bold" font-size="74.0" fill="#000000" transform="matrix(1.00, 0.00, -0.00, -1.00, 611.8, 751.0)">S</text><text xml:space="preserve" font-family="ArialRoundedMTBold,Arial Rounded MT Bold" font-size="74.0" fill="#000000" transform="matrix(1.00, 0.00, -0.00, -1.00, 661.1, 751.0)">u</text><text xml:space="preserve" font-family="ArialRoundedMTBold,Arial Rounded MT Bold" font-size="74.0" fill="#000000" transform="matrix(1.00, 0.00, -0.00, -1.00, 705.8, 751.0)">b</text><text xml:space="preserve" font-family="ArialRoundedMTBold,Arial Rounded MT Bold" font-size="74.0" fill="#000000" transform="matrix(1.00, 0.00, -0.00, -1.00, 752.1, 751.0)">j</text><text xml:space="preserve" font-family="ArialRoundedMTBold,Arial Rounded MT Bold" font-size="74.0" fill="#000000" transform="matrix(1.00, 0.00, -0.00, -1.00, 772.1, 751.0)">e</text><text xml:space="preserve" font-family="ArialRoundedMTBold,Arial Rounded MT Bold" font-size="74.0" fill="#000000" transform="matrix(1.00, 0.00, -0.00, -1.00, 816.1, 751.0)">c</text><text xml:space="preserve" font-family="ArialRoundedMTBold,Arial Rounded MT Bold" font-size="74.0" fill="#000000" transform="matrix(1.00, 0.00, -0.00, -1.00, 860.1, 751.0)">t</text><text xml:space="preserve" font-family="ArialRoundedMTBold,Arial Rounded MT Bold" font-size="74.0" fill="#000000" transform="matrix(1.00, 0.00, -0.00, -1.00, 886.3, 751.0)">s</text><text xml:space="preserve" font-family="ArialRoundedMTBold,Arial Rounded MT Bold" font-size="74.0" fill="#000000" transform="matrix(1.00, 0.00, -0.00, -1.00, 926.4, 751.0)"> </text><text xml:space="preserve" font-family="ArialRoundedMTBold,Arial Rounded MT Bold" font-size="74.0" fill="#000000" transform="matrix(1.00, 0.00, -0.00, -1.00, 944.9, 751.0)">a</text><text xml:space="preserve" font-family="ArialRoundedMTBold,Arial Rounded MT Bold" font-size="74.0" fill="#000000" transform="matrix(1.00, 0.00, -0.00, -1.00, 988.9, 751.0)">n</text><text xml:space="preserve" font-family="ArialRoundedMTBold,Arial Rounded MT Bold" font-size="74.0" fill="#000000" transform="matrix(1.00, 0.00, -0.00, -1.00, 1033.6, 751.0)">d</text><text xml:space="preserve" font-family="ArialRoundedMTBold,Arial Rounded MT Bold" font-size="74.0" fill="#000000" transform="matrix(1.00, 0.00, -0.00, -1.00, 1079.8, 751.0)"> </text><text xml:space="preserve" font-family="ArialRoundedMTBold,Arial Rounded MT Bold" font-size="74.0" fill="#000000" transform="matrix(1.00, 0.00, -0.00, -1.00, 1098.3, 751.0)">V</text><text xml:space="preserve" font-family="ArialRoundedMTBold,Arial Rounded MT Bold" font-size="74.0" fill="#000000" transform="matrix(1.00, 0.00, -0.00, -1.00, 1145.6, 751.0)">e</text><text xml:space="preserve" font-family="ArialRoundedMTBold,Arial Rounded MT Bold" font-size="74.0" fill="#000000" transform="matrix(1.00, 0.00, -0.00, -1.00, 1189.5, 751.0)">r</text><text xml:space="preserve" font-family="ArialRoundedMTBold,Arial Rounded MT Bold" font-size="74.0" fill="#000000" transform="matrix(1.00, 0.00, -0.00, -1.00, 1222.0, 751.0)">b</text><text xml:space="preserve" font-family="ArialRoundedMTBold,Arial Rounded MT Bold" font-size="74.0" fill="#000000" transform="matrix(1.00, 0.00, -0.00, -1.00, 1268.2, 751.0)">s</text><text xml:space="preserve" font-family="ArialRoundedMTBold,Arial Rounded MT Bold" font-size="74.0" fill="#000000" transform="matrix(1.00, 0.00, -0.00, -1.00, 1308.3, 751.0)"> </text><text xml:space="preserve" font-family="ArialRoundedMTBold,Arial Rounded MT Bold" font-size="74.0" fill="#000000" transform="matrix(1.00, 0.00, -0.00, -1.00, 1326.8, 751.0)"> </text><image xlink:href="DB68D8704AFE07CC997B8FC2797492EE.png" width="1284.00" height="116.00" transform="matrix(0.77, 0.00, -0.00, -1.01, 461.2, 550.8)"></image><text xml:space="preserve" font-family="ArialRoundedMTBold,Arial Rounded MT Bold" font-size="74.0" fill="#000000" transform="matrix(1.00, 0.00, -0.00, -1.00, 867.1, 648.6)">R</text><text xml:space="preserve" font-family="ArialRoundedMTBold,Arial Rounded MT Bold" font-size="74.0" fill="#000000" transform="matrix(1.00, 0.00, -0.00, -1.00, 928.6, 648.6)">u</text><text xml:space="preserve" font-family="ArialRoundedMTBold,Arial Rounded MT Bold" font-size="74.0" fill="#000000" transform="matrix(1.00, 0.00, -0.00, -1.00, 983.4, 648.6)">l</text><text xml:space="preserve" font-family="ArialRoundedMTBold,Arial Rounded MT Bold" font-size="74.0" fill="#000000" transform="matrix(1.00, 0.00, -0.00, -1.00, 1013.5, 648.6)">e</text><text xml:space="preserve" font-family="ArialRoundedMTBold,Arial Rounded MT Bold" font-size="74.0" fill="#000000" transform="matrix(1.00, 0.00, -0.00, -1.00, 1067.6, 648.6)">s</text></g></svg>