<?xml version="1.0" encoding="UTF-8" standalone="no"?><svg xmlns="http://www.w3.org/2000/svg" xmlns:xlink="http://www.w3.org/1999/xlink" clip-rule="evenodd" stroke-miterlimit="10" viewBox="0 0 572 50"><desc>SVG generated by Keynote</desc><defs></defs><g transform="matrix(1.00, 0.00, -0.00, -1.00, 0.0, 50.0)"><text xml:space="preserve" font-family="Avenir-Medium,Avenir" font-size="46.0" fill="#000000" transform="matrix(1.00, 0.00, -0.00, -1.00, -1.8, 13.2)">I</text><text xml:space="preserve" font-family="Avenir-Medium,Avenir" font-size="46.0" fill="#000000" transform="matrix(1.00, 0.00, -0.00, -1.00, 11.0, 13.2)">f</text><text xml:space="preserve" font-family="Avenir-Medium,Avenir" font-size="46.0" fill="#000000" transform="matrix(1.00, 0.00, -0.00, -1.00, 26.3, 13.2)"> </text><text xml:space="preserve" font-family="Avenir-Medium,Avenir" font-size="46.0" fill="#000000" transform="matrix(1.00, 0.00, -0.00, -1.00, 39.1, 13.2)">c</text><text xml:space="preserve" font-family="Avenir-Medium,Avenir" font-size="46.0" fill="#000000" transform="matrix(1.00, 0.00, -0.00, -1.00, 61.2, 13.2)">h</text><text xml:space="preserve" font-family="Avenir-Medium,Avenir" font-size="46.0" fill="#000000" transform="matrix(1.00, 0.00, -0.00, -1.00, 86.8, 13.2)">i</text><text xml:space="preserve" font-family="Avenir-Medium,Avenir" font-size="46.0" fill="#000000" transform="matrix(1.00, 0.00, -0.00, -1.00, 97.9, 13.2)">l</text><text xml:space="preserve" font-family="Avenir-Medium,Avenir" font-size="46.0" fill="#000000" transform="matrix(1.00, 0.00, -0.00, -1.00, 108.9, 13.2)">d</text><text xml:space="preserve" font-family="Avenir-Medium,Avenir" font-size="46.0" fill="#000000" transform="matrix(1.00, 0.00, -0.00, -1.00, 137.0, 13.2)">r</text><text xml:space="preserve" font-family="Avenir-Medium,Avenir" font-size="46.0" fill="#000000" transform="matrix(1.00, 0.00, -0.00, -1.00, 153.2, 13.2)">e</text><text xml:space="preserve" font-family="Avenir-Medium,Avenir" font-size="46.0" fill="#000000" transform="matrix(1.00, 0.00, -0.00, -1.00, 178.8, 13.2)">n</text><text xml:space="preserve" font-family="Avenir-Medium,Avenir" font-size="46.0" fill="#000000" transform="matrix(1.00, 0.00, -0.00, -1.00, 204.3, 13.2)"> </text><text xml:space="preserve" font-family="Avenir-Medium,Avenir" font-size="46.0" fill="#000000" transform="matrix(1.00, 0.00, -0.00, -1.00, 217.1, 13.2)">l</text><text xml:space="preserve" font-family="Avenir-Medium,Avenir" font-size="46.0" fill="#000000" transform="matrix(1.00, 0.00, -0.00, -1.00, 228.2, 13.2)">i</text><text xml:space="preserve" font-family="Avenir-Medium,Avenir" font-size="46.0" fill="#000000" transform="matrix(1.00, 0.00, -0.00, -1.00, 239.2, 13.2)">v</text><text xml:space="preserve" font-family="Avenir-Medium,Avenir" font-size="46.0" fill="#000000" transform="matrix(1.00, 0.00, -0.00, -1.00, 262.2, 13.2)">e</text><text xml:space="preserve" font-family="Avenir-Medium,Avenir" font-size="46.0" fill="#000000" transform="matrix(1.00, 0.00, -0.00, -1.00, 287.8, 13.2)"> </text><text xml:space="preserve" font-family="Avenir-Medium,Avenir" font-size="46.0" fill="#000000" transform="matrix(1.00, 0.00, -0.00, -1.00, 300.6, 13.2)">w</text><text xml:space="preserve" font-family="Avenir-Medium,Avenir" font-size="46.0" fill="#000000" transform="matrix(1.00, 0.00, -0.00, -1.00, 335.5, 13.2)">i</text><text xml:space="preserve" font-family="Avenir-Medium,Avenir" font-size="46.0" fill="#000000" transform="matrix(1.00, 0.00, -0.00, -1.00, 346.5, 13.2)">t</text><text xml:space="preserve" font-family="Avenir-Medium,Avenir" font-size="46.0" fill="#000000" transform="matrix(1.00, 0.00, -0.00, -1.00, 363.6, 13.2)">h</text><text xml:space="preserve" font-family="Avenir-Medium,Avenir" font-size="46.0" fill="#000000" transform="matrix(1.00, 0.00, -0.00, -1.00, 389.1, 13.2)"> </text><text xml:space="preserve" font-family="Avenir-Medium,Avenir" font-size="46.0" fill="#000000" transform="matrix(1.00, 0.00, -0.00, -1.00, 401.9, 13.2)">s</text><text xml:space="preserve" font-family="Avenir-Medium,Avenir" font-size="46.0" fill="#000000" transform="matrix(1.00, 0.00, -0.00, -1.00, 422.3, 13.2)">e</text><text xml:space="preserve" font-family="Avenir-Medium,Avenir" font-size="46.0" fill="#000000" transform="matrix(1.00, 0.00, -0.00, -1.00, 447.9, 13.2)">c</text><text xml:space="preserve" font-family="Avenir-Medium,Avenir" font-size="46.0" fill="#000000" transform="matrix(1.00, 0.00, -0.00, -1.00, 470.1, 13.2)">u</text><text xml:space="preserve" font-family="Avenir-Medium,Avenir" font-size="46.0" fill="#000000" transform="matrix(1.00, 0.00, -0.00, -1.00, 495.7, 13.2)">r</text><text xml:space="preserve" font-family="Avenir-Medium,Avenir" font-size="46.0" fill="#000000" transform="matrix(1.00, 0.00, -0.00, -1.00, 512.7, 13.2)">i</text><text xml:space="preserve" font-family="Avenir-Medium,Avenir" font-size="46.0" fill="#000000" transform="matrix(1.00, 0.00, -0.00, -1.00, 523.7, 13.2)">t</text><text xml:space="preserve" font-family="Avenir-Medium,Avenir" font-size="46.0" fill="#000000" transform="matrix(1.00, 0.00, -0.00, -1.00, 540.7, 13.2)">y</text><text xml:space="preserve" font-family="Avenir-Medium,Avenir" font-size="46.0" fill="#000000" transform="matrix(1.00, 0.00, -0.00, -1.00, 560.3, 13.2)">,</text></g></svg>