<?xml version="1.0" encoding="UTF-8" standalone="no"?><svg xmlns="http://www.w3.org/2000/svg" xmlns:xlink="http://www.w3.org/1999/xlink" clip-rule="evenodd" stroke-miterlimit="10" viewBox="0 0 171 112"><desc>SVG generated by Keynote</desc><defs></defs><g transform="matrix(1.00, 0.00, -0.00, -1.00, 0.0, 112.0)"><g><clipPath id="clip0x7f8757c371b0"><path d="M 16.0 112.0 L 171.0 112.0 L 171.0 11.0 L 16.0 11.0 Z M 15.8 111.8 "></path></clipPath><g clip-path="url(#clip0x7f8757c371b0)"><g><clipPath id="clip0x7f8757c37950"><path d="M 15.8 11.0 L 170.9 11.0 L 170.9 111.8 L 15.8 111.8 Z M 15.8 11.0 "></path></clipPath><g clip-path="url(#clip0x7f8757c37950)"><image xlink:href="../../3B3F4AB4-FD2B-40DB-A32E-96238FDE2279/assets/E7D0403A97A29682D38DB5ABD2A1FFCE.png" width="260.00" height="194.00" transform="matrix(0.66, 0.00, -0.00, -0.66, 0.3, 111.8)"></image></g></g></g></g><g><clipPath id="clip0x7f8759c7abe0"><path d="M 0.0 0.6 L 40.6 0.6 L 40.6 41.0 L 0.0 41.0 Z M 0.0 0.6 "></path></clipPath><g clip-path="url(#clip0x7f8759c7abe0)"><path d="M 20.3 39.8 L 26.1 27.4 L 39.2 25.4 L 29.8 15.7 L 32.0 2.0 L 20.3 8.5 L 8.6 2.0 L 10.9 15.7 L 1.4 25.4 L 14.5 27.4 Z M 20.3 39.8 " fill="#E36C09"></path><path d="M 19.9 0.0 L 25.7 12.4 L 38.8 14.4 L 29.3 24.1 L 31.6 37.8 L 19.9 31.3 L 8.2 37.8 L 10.4 24.1 L 1.0 14.4 L 14.0 12.4 Z M 19.9 0.0 " fill="none" stroke="#000000" stroke-width="1.00" stroke-linejoin="bevel" transform="matrix(1.00, 0.00, 0.00, -1.00, 0.4, 39.8)"></path></g></g></g></svg>