<?xml version="1.0" encoding="UTF-8" standalone="no"?><svg xmlns="http://www.w3.org/2000/svg" xmlns:xlink="http://www.w3.org/1999/xlink" clip-rule="evenodd" stroke-miterlimit="10" viewBox="0 0 1920 1080"><desc>SVG generated by Keynote</desc><defs></defs><g transform="matrix(1.00, 0.00, -0.00, -1.00, 0.0, 1080.0)"><path d="M 0.0 1080.0 L 1920.0 1080.0 L 1920.0 0.0 L 0.0 0.0 Z M 0.0 1080.0 " fill="#FFFFFF"></path><path d="M 0.2 0.4 L 207.2 0.4 L 207.2 904.4 L 0.2 904.4 Z M 0.0 0.0 " fill="none" stroke="#000000" stroke-width="9.00" stroke-linejoin="bevel" transform="matrix(1.00, 0.00, 0.00, -1.00, 281.3, 939.9)"></path><text xml:space="preserve" font-family="ArialRoundedMTBold,Arial Rounded MT Bold" font-size="96.0" fill="#14A3E6" transform="matrix(1.00, 0.00, -0.00, -1.00, 355.4, 101.6)">4</text><text xml:space="preserve" font-family="ArialRoundedMTBold,Arial Rounded MT Bold" font-size="96.0" fill="#FF3300" transform="matrix(1.00, 0.00, -0.00, -1.00, 355.4, 823.4)">0</text><text xml:space="preserve" font-family="ArialRoundedMTBold,Arial Rounded MT Bold" font-size="96.0" fill="#E68B1B" transform="matrix(1.00, 0.00, -0.00, -1.00, 355.4, 643.4)">1</text><text xml:space="preserve" font-family="ArialRoundedMTBold,Arial Rounded MT Bold" font-size="96.0" fill="#FFF430" transform="matrix(1.00, 0.00, -0.00, -1.00, 355.4, 463.4)">2</text><text xml:space="preserve" font-family="ArialRoundedMTBold,Arial Rounded MT Bold" font-size="96.0" fill="#006600" transform="matrix(1.00, 0.00, -0.00, -1.00, 355.4, 283.4)">3</text><text xml:space="preserve" font-family="ArialRoundedMTBold,Arial Rounded MT Bold" font-size="78.0" fill="#000000" transform="matrix(1.00, 0.00, -0.00, -1.00, 565.4, 767.1)">S</text><text xml:space="preserve" font-family="ArialRoundedMTBold,Arial Rounded MT Bold" font-size="78.0" fill="#000000" transform="matrix(1.00, 0.00, -0.00, -1.00, 617.5, 767.1)">i</text><text xml:space="preserve" font-family="ArialRoundedMTBold,Arial Rounded MT Bold" font-size="78.0" fill="#000000" transform="matrix(1.00, 0.00, -0.00, -1.00, 638.6, 767.1)"> </text><text xml:space="preserve" font-family="ArialRoundedMTBold,Arial Rounded MT Bold" font-size="78.0" fill="#000000" transform="matrix(1.00, 0.00, -0.00, -1.00, 658.1, 767.1)">e</text><text xml:space="preserve" font-family="ArialRoundedMTBold,Arial Rounded MT Bold" font-size="78.0" fill="#000000" transform="matrix(1.00, 0.00, -0.00, -1.00, 704.5, 767.1)">s</text><text xml:space="preserve" font-family="ArialRoundedMTBold,Arial Rounded MT Bold" font-size="78.0" fill="#000000" transform="matrix(1.00, 0.00, -0.00, -1.00, 746.7, 767.1)">t</text><text xml:space="preserve" font-family="ArialRoundedMTBold,Arial Rounded MT Bold" font-size="78.0" fill="#000000" transform="matrix(1.00, 0.00, -0.00, -1.00, 774.4, 767.1)">o</text><text xml:space="preserve" font-family="ArialRoundedMTBold,Arial Rounded MT Bold" font-size="78.0" fill="#000000" transform="matrix(1.00, 0.00, -0.00, -1.00, 821.5, 767.1)">s</text><text xml:space="preserve" font-family="ArialRoundedMTBold,Arial Rounded MT Bold" font-size="78.0" fill="#000000" transform="matrix(1.00, 0.00, -0.00, -1.00, 863.7, 767.1)"> </text><text xml:space="preserve" font-family="ArialRoundedMTBold,Arial Rounded MT Bold" font-size="78.0" fill="#000000" transform="matrix(1.00, 0.00, -0.00, -1.00, 883.2, 767.1)">n</text><text xml:space="preserve" font-family="ArialRoundedMTBold,Arial Rounded MT Bold" font-size="78.0" fill="#000000" transform="matrix(1.00, 0.00, -0.00, -1.00, 930.4, 767.1)">ú</text><text xml:space="preserve" font-family="ArialRoundedMTBold,Arial Rounded MT Bold" font-size="78.0" fill="#000000" transform="matrix(1.00, 0.00, -0.00, -1.00, 977.5, 767.1)">m</text><text xml:space="preserve" font-family="ArialRoundedMTBold,Arial Rounded MT Bold" font-size="78.0" fill="#000000" transform="matrix(1.00, 0.00, -0.00, -1.00, 1046.5, 767.1)">e</text><text xml:space="preserve" font-family="ArialRoundedMTBold,Arial Rounded MT Bold" font-size="78.0" fill="#000000" transform="matrix(1.00, 0.00, -0.00, -1.00, 1092.8, 767.1)">r</text><text xml:space="preserve" font-family="ArialRoundedMTBold,Arial Rounded MT Bold" font-size="78.0" fill="#000000" transform="matrix(1.00, 0.00, -0.00, -1.00, 1124.0, 767.1)">o</text><text xml:space="preserve" font-family="ArialRoundedMTBold,Arial Rounded MT Bold" font-size="78.0" fill="#000000" transform="matrix(1.00, 0.00, -0.00, -1.00, 1171.1, 767.1)">s</text><text xml:space="preserve" font-family="ArialRoundedMTBold,Arial Rounded MT Bold" font-size="78.0" fill="#000000" transform="matrix(1.00, 0.00, -0.00, -1.00, 1213.4, 767.1)"> </text><text xml:space="preserve" font-family="ArialRoundedMTBold,Arial Rounded MT Bold" font-size="78.0" fill="#000000" transform="matrix(1.00, 0.00, -0.00, -1.00, 1232.9, 767.1)">e</text><text xml:space="preserve" font-family="ArialRoundedMTBold,Arial Rounded MT Bold" font-size="78.0" fill="#000000" transform="matrix(1.00, 0.00, -0.00, -1.00, 1279.3, 767.1)">s</text><text xml:space="preserve" font-family="ArialRoundedMTBold,Arial Rounded MT Bold" font-size="78.0" fill="#000000" transform="matrix(1.00, 0.00, -0.00, -1.00, 1321.6, 767.1)">t</text><text xml:space="preserve" font-family="ArialRoundedMTBold,Arial Rounded MT Bold" font-size="78.0" fill="#000000" transform="matrix(1.00, 0.00, -0.00, -1.00, 1349.2, 767.1)">á</text><text xml:space="preserve" font-family="ArialRoundedMTBold,Arial Rounded MT Bold" font-size="78.0" fill="#000000" transform="matrix(1.00, 0.00, -0.00, -1.00, 1395.5, 767.1)">n</text><text xml:space="preserve" font-family="ArialRoundedMTBold,Arial Rounded MT Bold" font-size="78.0" fill="#000000" transform="matrix(1.00, 0.00, -0.00, -1.00, 1442.6, 767.1)"> </text><text xml:space="preserve" font-family="ArialRoundedMTBold,Arial Rounded MT Bold" font-size="78.0" fill="#000000" transform="matrix(1.00, 0.00, -0.00, -1.00, 565.4, 677.1)">a</text><text xml:space="preserve" font-family="ArialRoundedMTBold,Arial Rounded MT Bold" font-size="78.0" fill="#000000" transform="matrix(1.00, 0.00, -0.00, -1.00, 611.8, 677.1)"> </text><text xml:space="preserve" font-family="ArialRoundedMTBold,Arial Rounded MT Bold" font-size="78.0" fill="#000000" transform="matrix(1.00, 0.00, -0.00, -1.00, 631.3, 677.1)">l</text><text xml:space="preserve" font-family="ArialRoundedMTBold,Arial Rounded MT Bold" font-size="78.0" fill="#000000" transform="matrix(1.00, 0.00, -0.00, -1.00, 652.4, 677.1)">a</text><text xml:space="preserve" font-family="ArialRoundedMTBold,Arial Rounded MT Bold" font-size="78.0" fill="#000000" transform="matrix(1.00, 0.00, -0.00, -1.00, 698.8, 677.1)"> </text><text xml:space="preserve" font-family="ArialRoundedMTBold,Arial Rounded MT Bold" font-size="78.0" fill="#000000" transform="matrix(1.00, 0.00, -0.00, -1.00, 718.3, 677.1)">d</text><text xml:space="preserve" font-family="ArialRoundedMTBold,Arial Rounded MT Bold" font-size="78.0" fill="#000000" transform="matrix(1.00, 0.00, -0.00, -1.00, 767.1, 677.1)">e</text><text xml:space="preserve" font-family="ArialRoundedMTBold,Arial Rounded MT Bold" font-size="78.0" fill="#000000" transform="matrix(1.00, 0.00, -0.00, -1.00, 813.4, 677.1)">r</text><text xml:space="preserve" font-family="ArialRoundedMTBold,Arial Rounded MT Bold" font-size="78.0" fill="#000000" transform="matrix(1.00, 0.00, -0.00, -1.00, 845.6, 677.1)">e</text><text xml:space="preserve" font-family="ArialRoundedMTBold,Arial Rounded MT Bold" font-size="78.0" fill="#000000" transform="matrix(1.00, 0.00, -0.00, -1.00, 892.0, 677.1)">c</text><text xml:space="preserve" font-family="ArialRoundedMTBold,Arial Rounded MT Bold" font-size="78.0" fill="#000000" transform="matrix(1.00, 0.00, -0.00, -1.00, 936.4, 677.1)">h</text><text xml:space="preserve" font-family="ArialRoundedMTBold,Arial Rounded MT Bold" font-size="78.0" fill="#000000" transform="matrix(1.00, 0.00, -0.00, -1.00, 983.5, 677.1)">a</text><text xml:space="preserve" font-family="ArialRoundedMTBold,Arial Rounded MT Bold" font-size="78.0" fill="#000000" transform="matrix(1.00, 0.00, -0.00, -1.00, 1029.9, 677.1)"> </text><text xml:space="preserve" font-family="ArialRoundedMTBold,Arial Rounded MT Bold" font-size="78.0" fill="#000000" transform="matrix(1.00, 0.00, -0.00, -1.00, 565.4, 587.1)">d</text><text xml:space="preserve" font-family="ArialRoundedMTBold,Arial Rounded MT Bold" font-size="78.0" fill="#000000" transform="matrix(1.00, 0.00, -0.00, -1.00, 614.2, 587.1)">e</text><text xml:space="preserve" font-family="ArialRoundedMTBold,Arial Rounded MT Bold" font-size="78.0" fill="#000000" transform="matrix(1.00, 0.00, -0.00, -1.00, 660.6, 587.1)">l</text><text xml:space="preserve" font-family="ArialRoundedMTBold,Arial Rounded MT Bold" font-size="78.0" fill="#000000" transform="matrix(1.00, 0.00, -0.00, -1.00, 681.7, 587.1)"> </text><text xml:space="preserve" font-family="ArialRoundedMTBold,Arial Rounded MT Bold" font-size="78.0" fill="#000000" transform="matrix(1.00, 0.00, -0.00, -1.00, 701.2, 587.1)">n</text><text xml:space="preserve" font-family="ArialRoundedMTBold,Arial Rounded MT Bold" font-size="78.0" fill="#000000" transform="matrix(1.00, 0.00, -0.00, -1.00, 748.3, 587.1)">ú</text><text xml:space="preserve" font-family="ArialRoundedMTBold,Arial Rounded MT Bold" font-size="78.0" fill="#000000" transform="matrix(1.00, 0.00, -0.00, -1.00, 795.4, 587.1)">m</text><text xml:space="preserve" font-family="ArialRoundedMTBold,Arial Rounded MT Bold" font-size="78.0" fill="#000000" transform="matrix(1.00, 0.00, -0.00, -1.00, 864.4, 587.1)">e</text><text xml:space="preserve" font-family="ArialRoundedMTBold,Arial Rounded MT Bold" font-size="78.0" fill="#000000" transform="matrix(1.00, 0.00, -0.00, -1.00, 910.8, 587.1)">r</text><text xml:space="preserve" font-family="ArialRoundedMTBold,Arial Rounded MT Bold" font-size="78.0" fill="#000000" transform="matrix(1.00, 0.00, -0.00, -1.00, 942.0, 587.1)">o</text><text xml:space="preserve" font-family="ArialRoundedMTBold,Arial Rounded MT Bold" font-size="78.0" fill="#000000" transform="matrix(1.00, 0.00, -0.00, -1.00, 989.1, 587.1)"> </text><text xml:space="preserve" font-family="ArialRoundedMTBold,Arial Rounded MT Bold" font-size="78.0" fill="#000000" transform="matrix(1.00, 0.00, -0.00, -1.00, 1008.6, 587.1)">q</text><text xml:space="preserve" font-family="ArialRoundedMTBold,Arial Rounded MT Bold" font-size="78.0" fill="#000000" transform="matrix(1.00, 0.00, -0.00, -1.00, 1057.3, 587.1)">u</text><text xml:space="preserve" font-family="ArialRoundedMTBold,Arial Rounded MT Bold" font-size="78.0" fill="#000000" transform="matrix(1.00, 0.00, -0.00, -1.00, 1104.4, 587.1)">e</text><text xml:space="preserve" font-family="ArialRoundedMTBold,Arial Rounded MT Bold" font-size="78.0" fill="#000000" transform="matrix(1.00, 0.00, -0.00, -1.00, 1150.8, 587.1)"> </text><text xml:space="preserve" font-family="ArialRoundedMTBold,Arial Rounded MT Bold" font-size="78.0" fill="#000000" transform="matrix(1.00, 0.00, -0.00, -1.00, 1170.3, 587.1)">e</text><text xml:space="preserve" font-family="ArialRoundedMTBold,Arial Rounded MT Bold" font-size="78.0" fill="#000000" transform="matrix(1.00, 0.00, -0.00, -1.00, 1216.7, 587.1)">s</text><text xml:space="preserve" font-family="ArialRoundedMTBold,Arial Rounded MT Bold" font-size="78.0" fill="#000000" transform="matrix(1.00, 0.00, -0.00, -1.00, 1259.0, 587.1)">t</text><text xml:space="preserve" font-family="ArialRoundedMTBold,Arial Rounded MT Bold" font-size="78.0" fill="#000000" transform="matrix(1.00, 0.00, -0.00, -1.00, 1286.6, 587.1)">á</text><text xml:space="preserve" font-family="ArialRoundedMTBold,Arial Rounded MT Bold" font-size="78.0" fill="#000000" transform="matrix(1.00, 0.00, -0.00, -1.00, 1332.9, 587.1)">s</text><text xml:space="preserve" font-family="ArialRoundedMTBold,Arial Rounded MT Bold" font-size="78.0" fill="#000000" transform="matrix(1.00, 0.00, -0.00, -1.00, 1375.2, 587.1)"> </text><text xml:space="preserve" font-family="ArialRoundedMTBold,Arial Rounded MT Bold" font-size="78.0" fill="#000000" transform="matrix(1.00, 0.00, -0.00, -1.00, 565.4, 497.1)">r</text><text xml:space="preserve" font-family="ArialRoundedMTBold,Arial Rounded MT Bold" font-size="78.0" fill="#000000" transform="matrix(1.00, 0.00, -0.00, -1.00, 597.7, 497.1)">e</text><text xml:space="preserve" font-family="ArialRoundedMTBold,Arial Rounded MT Bold" font-size="78.0" fill="#000000" transform="matrix(1.00, 0.00, -0.00, -1.00, 644.0, 497.1)">d</text><text xml:space="preserve" font-family="ArialRoundedMTBold,Arial Rounded MT Bold" font-size="78.0" fill="#000000" transform="matrix(1.00, 0.00, -0.00, -1.00, 692.8, 497.1)">o</text><text xml:space="preserve" font-family="ArialRoundedMTBold,Arial Rounded MT Bold" font-size="78.0" fill="#000000" transform="matrix(1.00, 0.00, -0.00, -1.00, 739.9, 497.1)">n</text><text xml:space="preserve" font-family="ArialRoundedMTBold,Arial Rounded MT Bold" font-size="78.0" fill="#000000" transform="matrix(1.00, 0.00, -0.00, -1.00, 787.0, 497.1)">d</text><text xml:space="preserve" font-family="ArialRoundedMTBold,Arial Rounded MT Bold" font-size="78.0" fill="#000000" transform="matrix(1.00, 0.00, -0.00, -1.00, 835.8, 497.1)">e</text><text xml:space="preserve" font-family="ArialRoundedMTBold,Arial Rounded MT Bold" font-size="78.0" fill="#000000" transform="matrix(1.00, 0.00, -0.00, -1.00, 882.1, 497.1)">a</text><text xml:space="preserve" font-family="ArialRoundedMTBold,Arial Rounded MT Bold" font-size="78.0" fill="#000000" transform="matrix(1.00, 0.00, -0.00, -1.00, 928.5, 497.1)">n</text><text xml:space="preserve" font-family="ArialRoundedMTBold,Arial Rounded MT Bold" font-size="78.0" fill="#000000" transform="matrix(1.00, 0.00, -0.00, -1.00, 975.6, 497.1)">d</text><text xml:space="preserve" font-family="ArialRoundedMTBold,Arial Rounded MT Bold" font-size="78.0" fill="#000000" transform="matrix(1.00, 0.00, -0.00, -1.00, 1024.3, 497.1)">o</text><text xml:space="preserve" font-family="ArialRoundedMTBold,Arial Rounded MT Bold" font-size="78.0" fill="#000000" transform="matrix(1.00, 0.00, -0.00, -1.00, 1068.5, 497.1)">,</text><text xml:space="preserve" font-family="ArialRoundedMTBold,Arial Rounded MT Bold" font-size="78.0" fill="#000000" transform="matrix(1.00, 0.00, -0.00, -1.00, 1092.9, 497.1)"> </text><text xml:space="preserve" font-family="ArialRoundedMTBold,Arial Rounded MT Bold" font-size="78.0" fill="#000000" transform="matrix(1.00, 0.00, -0.00, -1.00, 565.4, 381.9)">e</text><text xml:space="preserve" font-family="ArialRoundedMTBold,Arial Rounded MT Bold" font-size="78.0" fill="#000000" transform="matrix(1.00, 0.00, -0.00, -1.00, 611.8, 381.9)">l</text><text xml:space="preserve" font-family="ArialRoundedMTBold,Arial Rounded MT Bold" font-size="78.0" fill="#000000" transform="matrix(1.00, 0.00, -0.00, -1.00, 632.9, 381.9)"> </text><text xml:space="preserve" font-family="ArialRoundedMTBold,Arial Rounded MT Bold" font-size="78.0" fill="#000000" transform="matrix(1.00, 0.00, -0.00, -1.00, 652.4, 381.9)">n</text><text xml:space="preserve" font-family="ArialRoundedMTBold,Arial Rounded MT Bold" font-size="78.0" fill="#000000" transform="matrix(1.00, 0.00, -0.00, -1.00, 699.6, 381.9)">ú</text><text xml:space="preserve" font-family="ArialRoundedMTBold,Arial Rounded MT Bold" font-size="78.0" fill="#000000" transform="matrix(1.00, 0.00, -0.00, -1.00, 746.7, 381.9)">m</text><text xml:space="preserve" font-family="ArialRoundedMTBold,Arial Rounded MT Bold" font-size="78.0" fill="#000000" transform="matrix(1.00, 0.00, -0.00, -1.00, 815.7, 381.9)">e</text><text xml:space="preserve" font-family="ArialRoundedMTBold,Arial Rounded MT Bold" font-size="78.0" fill="#000000" transform="matrix(1.00, 0.00, -0.00, -1.00, 862.0, 381.9)">r</text><text xml:space="preserve" font-family="ArialRoundedMTBold,Arial Rounded MT Bold" font-size="78.0" fill="#000000" transform="matrix(1.00, 0.00, -0.00, -1.00, 893.2, 381.9)">o</text><text xml:space="preserve" font-family="ArialRoundedMTBold,Arial Rounded MT Bold" font-size="78.0" fill="#000000" transform="matrix(1.00, 0.00, -0.00, -1.00, 940.3, 381.9)"> </text><text xml:space="preserve" font-family="ArialRoundedMTBold,Arial Rounded MT Bold" font-size="78.0" fill="#000000" transform="matrix(1.00, 0.00, -0.00, -1.00, 959.8, 381.9)"> </text><text xml:space="preserve" font-family="ArialRoundedMTBold,Arial Rounded MT Bold" font-size="78.0" fill="#000000" transform="matrix(1.00, 0.00, -0.00, -1.00, 565.4, 291.9)">q</text><text xml:space="preserve" font-family="ArialRoundedMTBold,Arial Rounded MT Bold" font-size="78.0" fill="#000000" transform="matrix(1.00, 0.00, -0.00, -1.00, 614.2, 291.9)">u</text><text xml:space="preserve" font-family="ArialRoundedMTBold,Arial Rounded MT Bold" font-size="78.0" fill="#000000" transform="matrix(1.00, 0.00, -0.00, -1.00, 661.3, 291.9)">e</text><text xml:space="preserve" font-family="ArialRoundedMTBold,Arial Rounded MT Bold" font-size="78.0" fill="#000000" transform="matrix(1.00, 0.00, -0.00, -1.00, 707.7, 291.9)"> </text><text xml:space="preserve" font-family="ArialRoundedMTBold,Arial Rounded MT Bold" font-size="78.0" fill="#000000" transform="matrix(1.00, 0.00, -0.00, -1.00, 727.2, 291.9)">e</text><text xml:space="preserve" font-family="ArialRoundedMTBold,Arial Rounded MT Bold" font-size="78.0" fill="#000000" transform="matrix(1.00, 0.00, -0.00, -1.00, 773.5, 291.9)">s</text><text xml:space="preserve" font-family="ArialRoundedMTBold,Arial Rounded MT Bold" font-size="78.0" fill="#000000" transform="matrix(1.00, 0.00, -0.00, -1.00, 815.8, 291.9)">t</text><text xml:space="preserve" font-family="ArialRoundedMTBold,Arial Rounded MT Bold" font-size="78.0" fill="#000000" transform="matrix(1.00, 0.00, -0.00, -1.00, 843.4, 291.9)">á</text><text xml:space="preserve" font-family="ArialRoundedMTBold,Arial Rounded MT Bold" font-size="78.0" fill="#000000" transform="matrix(1.00, 0.00, -0.00, -1.00, 889.8, 291.9)">s</text><text xml:space="preserve" font-family="ArialRoundedMTBold,Arial Rounded MT Bold" font-size="78.0" fill="#000000" transform="matrix(1.00, 0.00, -0.00, -1.00, 932.1, 291.9)"> </text><text xml:space="preserve" font-family="ArialRoundedMTBold,Arial Rounded MT Bold" font-size="78.0" fill="#000000" transform="matrix(1.00, 0.00, -0.00, -1.00, 951.6, 291.9)">r</text><text xml:space="preserve" font-family="ArialRoundedMTBold,Arial Rounded MT Bold" font-size="78.0" fill="#000000" transform="matrix(1.00, 0.00, -0.00, -1.00, 983.8, 291.9)">e</text><text xml:space="preserve" font-family="ArialRoundedMTBold,Arial Rounded MT Bold" font-size="78.0" fill="#000000" transform="matrix(1.00, 0.00, -0.00, -1.00, 1030.2, 291.9)">d</text><text xml:space="preserve" font-family="ArialRoundedMTBold,Arial Rounded MT Bold" font-size="78.0" fill="#000000" transform="matrix(1.00, 0.00, -0.00, -1.00, 1078.9, 291.9)">o</text><text xml:space="preserve" font-family="ArialRoundedMTBold,Arial Rounded MT Bold" font-size="78.0" fill="#000000" transform="matrix(1.00, 0.00, -0.00, -1.00, 1126.0, 291.9)">n</text><text xml:space="preserve" font-family="ArialRoundedMTBold,Arial Rounded MT Bold" font-size="78.0" fill="#000000" transform="matrix(1.00, 0.00, -0.00, -1.00, 1173.1, 291.9)">d</text><text xml:space="preserve" font-family="ArialRoundedMTBold,Arial Rounded MT Bold" font-size="78.0" fill="#000000" transform="matrix(1.00, 0.00, -0.00, -1.00, 1221.9, 291.9)">e</text><text xml:space="preserve" font-family="ArialRoundedMTBold,Arial Rounded MT Bold" font-size="78.0" fill="#000000" transform="matrix(1.00, 0.00, -0.00, -1.00, 1268.2, 291.9)">a</text><text xml:space="preserve" font-family="ArialRoundedMTBold,Arial Rounded MT Bold" font-size="78.0" fill="#000000" transform="matrix(1.00, 0.00, -0.00, -1.00, 1314.6, 291.9)">n</text><text xml:space="preserve" font-family="ArialRoundedMTBold,Arial Rounded MT Bold" font-size="78.0" fill="#000000" transform="matrix(1.00, 0.00, -0.00, -1.00, 1361.7, 291.9)">d</text><text xml:space="preserve" font-family="ArialRoundedMTBold,Arial Rounded MT Bold" font-size="78.0" fill="#000000" transform="matrix(1.00, 0.00, -0.00, -1.00, 1410.5, 291.9)">o</text><text xml:space="preserve" font-family="ArialRoundedMTBold,Arial Rounded MT Bold" font-size="78.0" fill="#000000" transform="matrix(1.00, 0.00, -0.00, -1.00, 1457.6, 291.9)"> </text><text xml:space="preserve" font-family="ArialRoundedMTBold,Arial Rounded MT Bold" font-size="78.0" fill="#000000" transform="matrix(1.00, 0.00, -0.00, -1.00, 1477.1, 291.9)"> </text><text xml:space="preserve" font-family="ArialRoundedMTBold,Arial Rounded MT Bold" font-size="78.0" fill="#000000" transform="matrix(1.00, 0.00, -0.00, -1.00, 565.4, 201.9)">S</text><text xml:space="preserve" font-family="ArialRoundedMTBold,Arial Rounded MT Bold" font-size="78.0" fill="#000000" transform="matrix(1.00, 0.00, -0.00, -1.00, 617.5, 201.9)">E</text><text xml:space="preserve" font-family="ArialRoundedMTBold,Arial Rounded MT Bold" font-size="78.0" fill="#000000" transform="matrix(1.00, 0.00, -0.00, -1.00, 669.5, 201.9)"> </text><text xml:space="preserve" font-family="ArialRoundedMTBold,Arial Rounded MT Bold" font-size="78.0" fill="#000000" transform="matrix(1.00, 0.00, -0.00, -1.00, 689.0, 201.9)">Q</text><text xml:space="preserve" font-family="ArialRoundedMTBold,Arial Rounded MT Bold" font-size="78.0" fill="#000000" transform="matrix(1.00, 0.00, -0.00, -1.00, 750.8, 201.9)">U</text><text xml:space="preserve" font-family="ArialRoundedMTBold,Arial Rounded MT Bold" font-size="78.0" fill="#000000" transform="matrix(1.00, 0.00, -0.00, -1.00, 810.0, 201.9)">E</text><text xml:space="preserve" font-family="ArialRoundedMTBold,Arial Rounded MT Bold" font-size="78.0" fill="#000000" transform="matrix(1.00, 0.00, -0.00, -1.00, 862.0, 201.9)">D</text><text xml:space="preserve" font-family="ArialRoundedMTBold,Arial Rounded MT Bold" font-size="78.0" fill="#000000" transform="matrix(1.00, 0.00, -0.00, -1.00, 916.8, 201.9)">A</text><text xml:space="preserve" font-family="ArialRoundedMTBold,Arial Rounded MT Bold" font-size="78.0" fill="#000000" transform="matrix(1.00, 0.00, -0.00, -1.00, 972.9, 201.9)"> </text><text xml:space="preserve" font-family="ArialRoundedMTBold,Arial Rounded MT Bold" font-size="78.0" fill="#000000" transform="matrix(1.00, 0.00, -0.00, -1.00, 992.4, 201.9)">L</text><text xml:space="preserve" font-family="ArialRoundedMTBold,Arial Rounded MT Bold" font-size="78.0" fill="#000000" transform="matrix(1.00, 0.00, -0.00, -1.00, 1035.7, 201.9)">O</text><text xml:space="preserve" font-family="ArialRoundedMTBold,Arial Rounded MT Bold" font-size="78.0" fill="#000000" transform="matrix(1.00, 0.00, -0.00, -1.00, 1097.4, 201.9)"> </text><text xml:space="preserve" font-family="ArialRoundedMTBold,Arial Rounded MT Bold" font-size="78.0" fill="#000000" transform="matrix(1.00, 0.00, -0.00, -1.00, 1116.9, 201.9)">M</text><text xml:space="preserve" font-family="ArialRoundedMTBold,Arial Rounded MT Bold" font-size="78.0" fill="#000000" transform="matrix(1.00, 0.00, -0.00, -1.00, 1181.9, 201.9)">I</text><text xml:space="preserve" font-family="ArialRoundedMTBold,Arial Rounded MT Bold" font-size="78.0" fill="#000000" transform="matrix(1.00, 0.00, -0.00, -1.00, 1206.3, 201.9)">S</text><text xml:space="preserve" font-family="ArialRoundedMTBold,Arial Rounded MT Bold" font-size="78.0" fill="#000000" transform="matrix(1.00, 0.00, -0.00, -1.00, 1258.4, 201.9)">M</text><text xml:space="preserve" font-family="ArialRoundedMTBold,Arial Rounded MT Bold" font-size="78.0" fill="#000000" transform="matrix(1.00, 0.00, -0.00, -1.00, 1323.3, 201.9)">O</text><text xml:space="preserve" font-family="ArialRoundedMTBold,Arial Rounded MT Bold" font-size="78.0" fill="#000000" transform="matrix(1.00, 0.00, -0.00, -1.00, 1381.1, 201.9)">.</text><g><clipPath id="clip0x7f875daf7190"><path d="M 564.4 191.1 L 1381.1 191.1 L 1381.1 197.0 L 564.4 197.0 Z M 564.4 191.1 "></path></clipPath><g clip-path="url(#clip0x7f875daf7190)"><path d="M 8.6 270.0 L 824.3 270.0 " fill="none" stroke="#000000" stroke-width="3.88" transform="matrix(1.00, 0.00, 0.00, -1.00, 556.8, 464.1)"></path></g></g><text xml:space="preserve" font-family="ArialRoundedMTBold,Arial Rounded MT Bold" font-size="78.0" fill="#000000" transform="matrix(1.00, 0.00, -0.00, -1.00, 286.5, 998.4)">l</text><text xml:space="preserve" font-family="ArialRoundedMTBold,Arial Rounded MT Bold" font-size="78.0" fill="#000000" transform="matrix(1.00, 0.00, -0.00, -1.00, 307.6, 998.4)">a</text><text xml:space="preserve" font-family="ArialRoundedMTBold,Arial Rounded MT Bold" font-size="78.0" fill="#000000" transform="matrix(1.00, 0.00, -0.00, -1.00, 354.0, 998.4)"> </text><text xml:space="preserve" font-family="ArialRoundedMTBold,Arial Rounded MT Bold" font-size="78.0" fill="#000000" transform="matrix(1.00, 0.00, -0.00, -1.00, 373.5, 998.4)">r</text><text xml:space="preserve" font-family="ArialRoundedMTBold,Arial Rounded MT Bold" font-size="78.0" fill="#000000" transform="matrix(1.00, 0.00, -0.00, -1.00, 405.7, 998.4)">e</text><text xml:space="preserve" font-family="ArialRoundedMTBold,Arial Rounded MT Bold" font-size="78.0" fill="#000000" transform="matrix(1.00, 0.00, -0.00, -1.00, 451.1, 998.4)">g</text><text xml:space="preserve" font-family="ArialRoundedMTBold,Arial Rounded MT Bold" font-size="78.0" fill="#000000" transform="matrix(1.00, 0.00, -0.00, -1.00, 498.8, 998.4)">l</text><text xml:space="preserve" font-family="ArialRoundedMTBold,Arial Rounded MT Bold" font-size="78.0" fill="#000000" transform="matrix(1.00, 0.00, -0.00, -1.00, 519.9, 998.4)">a</text><text xml:space="preserve" font-family="ArialRoundedMTBold,Arial Rounded MT Bold" font-size="78.0" fill="#000000" transform="matrix(1.00, 0.00, -0.00, -1.00, 566.3, 998.4)"> </text><text xml:space="preserve" font-family="ArialRoundedMTBold,Arial Rounded MT Bold" font-size="78.0" fill="#000000" transform="matrix(1.00, 0.00, -0.00, -1.00, 585.8, 998.4)">p</text><text xml:space="preserve" font-family="ArialRoundedMTBold,Arial Rounded MT Bold" font-size="78.0" fill="#000000" transform="matrix(1.00, 0.00, -0.00, -1.00, 634.5, 998.4)">a</text><text xml:space="preserve" font-family="ArialRoundedMTBold,Arial Rounded MT Bold" font-size="78.0" fill="#000000" transform="matrix(1.00, 0.00, -0.00, -1.00, 680.9, 998.4)">r</text><text xml:space="preserve" font-family="ArialRoundedMTBold,Arial Rounded MT Bold" font-size="78.0" fill="#000000" transform="matrix(1.00, 0.00, -0.00, -1.00, 713.1, 998.4)">a</text><text xml:space="preserve" font-family="ArialRoundedMTBold,Arial Rounded MT Bold" font-size="78.0" fill="#000000" transform="matrix(1.00, 0.00, -0.00, -1.00, 759.5, 998.4)"> </text><text xml:space="preserve" font-family="ArialRoundedMTBold,Arial Rounded MT Bold" font-size="78.0" fill="#000000" transform="matrix(1.00, 0.00, -0.00, -1.00, 779.0, 998.4)">r</text><text xml:space="preserve" font-family="ArialRoundedMTBold,Arial Rounded MT Bold" font-size="78.0" fill="#000000" transform="matrix(1.00, 0.00, -0.00, -1.00, 811.2, 998.4)">e</text><text xml:space="preserve" font-family="ArialRoundedMTBold,Arial Rounded MT Bold" font-size="78.0" fill="#000000" transform="matrix(1.00, 0.00, -0.00, -1.00, 857.6, 998.4)">d</text><text xml:space="preserve" font-family="ArialRoundedMTBold,Arial Rounded MT Bold" font-size="78.0" fill="#000000" transform="matrix(1.00, 0.00, -0.00, -1.00, 906.3, 998.4)">o</text><text xml:space="preserve" font-family="ArialRoundedMTBold,Arial Rounded MT Bold" font-size="78.0" fill="#000000" transform="matrix(1.00, 0.00, -0.00, -1.00, 953.4, 998.4)">n</text><text xml:space="preserve" font-family="ArialRoundedMTBold,Arial Rounded MT Bold" font-size="78.0" fill="#000000" transform="matrix(1.00, 0.00, -0.00, -1.00, 1000.5, 998.4)">d</text><text xml:space="preserve" font-family="ArialRoundedMTBold,Arial Rounded MT Bold" font-size="78.0" fill="#000000" transform="matrix(1.00, 0.00, -0.00, -1.00, 1049.3, 998.4)">e</text><text xml:space="preserve" font-family="ArialRoundedMTBold,Arial Rounded MT Bold" font-size="78.0" fill="#000000" transform="matrix(1.00, 0.00, -0.00, -1.00, 1095.7, 998.4)">a</text><text xml:space="preserve" font-family="ArialRoundedMTBold,Arial Rounded MT Bold" font-size="78.0" fill="#000000" transform="matrix(1.00, 0.00, -0.00, -1.00, 1142.0, 998.4)">r</text><text xml:space="preserve" font-family="ArialRoundedMTBold,Arial Rounded MT Bold" font-size="78.0" fill="#000000" transform="matrix(1.00, 0.00, -0.00, -1.00, 1176.2, 998.4)"> </text><text xml:space="preserve" font-family="ArialRoundedMTBold,Arial Rounded MT Bold" font-size="78.0" fill="#000000" transform="matrix(1.00, 0.00, -0.00, -1.00, 1195.7, 998.4)">h</text><text xml:space="preserve" font-family="ArialRoundedMTBold,Arial Rounded MT Bold" font-size="78.0" fill="#000000" transform="matrix(1.00, 0.00, -0.00, -1.00, 1242.8, 998.4)">a</text><text xml:space="preserve" font-family="ArialRoundedMTBold,Arial Rounded MT Bold" font-size="78.0" fill="#000000" transform="matrix(1.00, 0.00, -0.00, -1.00, 1289.2, 998.4)">c</text><text xml:space="preserve" font-family="ArialRoundedMTBold,Arial Rounded MT Bold" font-size="78.0" fill="#000000" transform="matrix(1.00, 0.00, -0.00, -1.00, 1335.5, 998.4)">i</text><text xml:space="preserve" font-family="ArialRoundedMTBold,Arial Rounded MT Bold" font-size="78.0" fill="#000000" transform="matrix(1.00, 0.00, -0.00, -1.00, 1356.7, 998.4)">a</text><text xml:space="preserve" font-family="ArialRoundedMTBold,Arial Rounded MT Bold" font-size="78.0" fill="#000000" transform="matrix(1.00, 0.00, -0.00, -1.00, 1403.0, 998.4)"> </text><text xml:space="preserve" font-family="ArialRoundedMTBold,Arial Rounded MT Bold" font-size="78.0" fill="#000000" transform="matrix(1.00, 0.00, -0.00, -1.00, 1422.5, 998.4)">a</text><text xml:space="preserve" font-family="ArialRoundedMTBold,Arial Rounded MT Bold" font-size="78.0" fill="#000000" transform="matrix(1.00, 0.00, -0.00, -1.00, 1467.9, 998.4)">b</text><text xml:space="preserve" font-family="ArialRoundedMTBold,Arial Rounded MT Bold" font-size="78.0" fill="#000000" transform="matrix(1.00, 0.00, -0.00, -1.00, 1516.6, 998.4)">a</text><text xml:space="preserve" font-family="ArialRoundedMTBold,Arial Rounded MT Bold" font-size="78.0" fill="#000000" transform="matrix(1.00, 0.00, -0.00, -1.00, 1563.0, 998.4)">j</text><text xml:space="preserve" font-family="ArialRoundedMTBold,Arial Rounded MT Bold" font-size="78.0" fill="#000000" transform="matrix(1.00, 0.00, -0.00, -1.00, 1584.1, 998.4)">o</text><text xml:space="preserve" font-family="ArialRoundedMTBold,Arial Rounded MT Bold" font-size="78.0" fill="#000000" transform="matrix(1.00, 0.00, -0.00, -1.00, 1631.2, 998.4)"> </text><g><clipPath id="clip0x7f875daf88a0"><path d="M 285.5 987.6 L 1631.0 987.6 L 1631.0 993.5 L 285.5 993.5 Z M 285.5 987.6 "></path></clipPath><g clip-path="url(#clip0x7f875daf88a0)"><path d="M 46.5 90.0 L 1391.0 90.0 " fill="none" stroke="#000000" stroke-width="3.88" transform="matrix(1.00, 0.00, 0.00, -1.00, 240.0, 1080.6)"></path></g></g><g><clipPath id="clip0x7f875dac7500"><path d="M 1493.0 137.0 L 1648.0 137.0 L 1648.0 36.0 L 1493.0 36.0 Z M 1492.8 136.8 "></path></clipPath><g clip-path="url(#clip0x7f875dac7500)"><g><clipPath id="clip0x7f875dac64c0"><path d="M 1492.8 36.0 L 1647.9 36.0 L 1647.9 136.8 L 1492.8 136.8 Z M 1492.8 36.0 "></path></clipPath><g clip-path="url(#clip0x7f875dac64c0)"><image xlink:href="../../3B3F4AB4-FD2B-40DB-A32E-96238FDE2279/assets/E7D0403A97A29682D38DB5ABD2A1FFCE.png" width="260.00" height="194.00" transform="matrix(0.66, 0.00, -0.00, -0.66, 1477.3, 136.8)"></image></g></g></g></g><g><clipPath id="clip0x7f875dac70f0"><path d="M 1477.0 25.6 L 1517.6 25.6 L 1517.6 66.0 L 1477.0 66.0 Z M 1477.0 25.6 "></path></clipPath><g clip-path="url(#clip0x7f875dac70f0)"><path d="M 1497.3 64.8 L 1503.1 52.4 L 1516.2 50.4 L 1506.8 40.7 L 1509.0 27.0 L 1497.3 33.5 L 1485.6 27.0 L 1487.9 40.7 L 1478.4 50.4 L 1491.5 52.4 Z M 1497.3 64.8 " fill="#E36C09"></path><path d="M 19.9 0.0 L 25.7 12.4 L 38.8 14.4 L 29.3 24.1 L 31.6 37.8 L 19.9 31.3 L 8.2 37.8 L 10.4 24.1 L 1.0 14.4 L 14.0 12.4 Z M 19.9 0.0 " fill="none" stroke="#000000" stroke-width="1.00" stroke-linejoin="bevel" transform="matrix(1.00, 0.00, 0.00, -1.00, 1477.4, 64.8)"></path></g></g></g></svg>