<?xml version="1.0" encoding="UTF-8" standalone="no"?><svg xmlns="http://www.w3.org/2000/svg" xmlns:xlink="http://www.w3.org/1999/xlink" clip-rule="evenodd" stroke-miterlimit="10" viewBox="0 0 1365 92"><desc>SVG generated by Keynote</desc><defs></defs><g transform="matrix(1.00, 0.00, -0.00, -1.00, 0.0, 92.0)"><text xml:space="preserve" font-family="ArialRoundedMTBold,Arial Rounded MT Bold" font-size="78.0" fill="#000000" transform="matrix(1.00, 0.00, -0.00, -1.00, 0.5, 18.4)">l</text><text xml:space="preserve" font-family="ArialRoundedMTBold,Arial Rounded MT Bold" font-size="78.0" fill="#000000" transform="matrix(1.00, 0.00, -0.00, -1.00, 21.6, 18.4)">a</text><text xml:space="preserve" font-family="ArialRoundedMTBold,Arial Rounded MT Bold" font-size="78.0" fill="#000000" transform="matrix(1.00, 0.00, -0.00, -1.00, 68.0, 18.4)"> </text><text xml:space="preserve" font-family="ArialRoundedMTBold,Arial Rounded MT Bold" font-size="78.0" fill="#000000" transform="matrix(1.00, 0.00, -0.00, -1.00, 87.5, 18.4)">r</text><text xml:space="preserve" font-family="ArialRoundedMTBold,Arial Rounded MT Bold" font-size="78.0" fill="#000000" transform="matrix(1.00, 0.00, -0.00, -1.00, 119.7, 18.4)">e</text><text xml:space="preserve" font-family="ArialRoundedMTBold,Arial Rounded MT Bold" font-size="78.0" fill="#000000" transform="matrix(1.00, 0.00, -0.00, -1.00, 165.1, 18.4)">g</text><text xml:space="preserve" font-family="ArialRoundedMTBold,Arial Rounded MT Bold" font-size="78.0" fill="#000000" transform="matrix(1.00, 0.00, -0.00, -1.00, 212.8, 18.4)">l</text><text xml:space="preserve" font-family="ArialRoundedMTBold,Arial Rounded MT Bold" font-size="78.0" fill="#000000" transform="matrix(1.00, 0.00, -0.00, -1.00, 233.9, 18.4)">a</text><text xml:space="preserve" font-family="ArialRoundedMTBold,Arial Rounded MT Bold" font-size="78.0" fill="#000000" transform="matrix(1.00, 0.00, -0.00, -1.00, 280.3, 18.4)"> </text><text xml:space="preserve" font-family="ArialRoundedMTBold,Arial Rounded MT Bold" font-size="78.0" fill="#000000" transform="matrix(1.00, 0.00, -0.00, -1.00, 299.8, 18.4)">p</text><text xml:space="preserve" font-family="ArialRoundedMTBold,Arial Rounded MT Bold" font-size="78.0" fill="#000000" transform="matrix(1.00, 0.00, -0.00, -1.00, 348.5, 18.4)">a</text><text xml:space="preserve" font-family="ArialRoundedMTBold,Arial Rounded MT Bold" font-size="78.0" fill="#000000" transform="matrix(1.00, 0.00, -0.00, -1.00, 394.9, 18.4)">r</text><text xml:space="preserve" font-family="ArialRoundedMTBold,Arial Rounded MT Bold" font-size="78.0" fill="#000000" transform="matrix(1.00, 0.00, -0.00, -1.00, 427.1, 18.4)">a</text><text xml:space="preserve" font-family="ArialRoundedMTBold,Arial Rounded MT Bold" font-size="78.0" fill="#000000" transform="matrix(1.00, 0.00, -0.00, -1.00, 473.5, 18.4)"> </text><text xml:space="preserve" font-family="ArialRoundedMTBold,Arial Rounded MT Bold" font-size="78.0" fill="#000000" transform="matrix(1.00, 0.00, -0.00, -1.00, 493.0, 18.4)">r</text><text xml:space="preserve" font-family="ArialRoundedMTBold,Arial Rounded MT Bold" font-size="78.0" fill="#000000" transform="matrix(1.00, 0.00, -0.00, -1.00, 525.2, 18.4)">e</text><text xml:space="preserve" font-family="ArialRoundedMTBold,Arial Rounded MT Bold" font-size="78.0" fill="#000000" transform="matrix(1.00, 0.00, -0.00, -1.00, 571.6, 18.4)">d</text><text xml:space="preserve" font-family="ArialRoundedMTBold,Arial Rounded MT Bold" font-size="78.0" fill="#000000" transform="matrix(1.00, 0.00, -0.00, -1.00, 620.3, 18.4)">o</text><text xml:space="preserve" font-family="ArialRoundedMTBold,Arial Rounded MT Bold" font-size="78.0" fill="#000000" transform="matrix(1.00, 0.00, -0.00, -1.00, 667.4, 18.4)">n</text><text xml:space="preserve" font-family="ArialRoundedMTBold,Arial Rounded MT Bold" font-size="78.0" fill="#000000" transform="matrix(1.00, 0.00, -0.00, -1.00, 714.5, 18.4)">d</text><text xml:space="preserve" font-family="ArialRoundedMTBold,Arial Rounded MT Bold" font-size="78.0" fill="#000000" transform="matrix(1.00, 0.00, -0.00, -1.00, 763.3, 18.4)">e</text><text xml:space="preserve" font-family="ArialRoundedMTBold,Arial Rounded MT Bold" font-size="78.0" fill="#000000" transform="matrix(1.00, 0.00, -0.00, -1.00, 809.7, 18.4)">a</text><text xml:space="preserve" font-family="ArialRoundedMTBold,Arial Rounded MT Bold" font-size="78.0" fill="#000000" transform="matrix(1.00, 0.00, -0.00, -1.00, 856.0, 18.4)">r</text><text xml:space="preserve" font-family="ArialRoundedMTBold,Arial Rounded MT Bold" font-size="78.0" fill="#000000" transform="matrix(1.00, 0.00, -0.00, -1.00, 890.2, 18.4)"> </text><text xml:space="preserve" font-family="ArialRoundedMTBold,Arial Rounded MT Bold" font-size="78.0" fill="#000000" transform="matrix(1.00, 0.00, -0.00, -1.00, 909.7, 18.4)">h</text><text xml:space="preserve" font-family="ArialRoundedMTBold,Arial Rounded MT Bold" font-size="78.0" fill="#000000" transform="matrix(1.00, 0.00, -0.00, -1.00, 956.8, 18.4)">a</text><text xml:space="preserve" font-family="ArialRoundedMTBold,Arial Rounded MT Bold" font-size="78.0" fill="#000000" transform="matrix(1.00, 0.00, -0.00, -1.00, 1003.2, 18.4)">c</text><text xml:space="preserve" font-family="ArialRoundedMTBold,Arial Rounded MT Bold" font-size="78.0" fill="#000000" transform="matrix(1.00, 0.00, -0.00, -1.00, 1049.5, 18.4)">i</text><text xml:space="preserve" font-family="ArialRoundedMTBold,Arial Rounded MT Bold" font-size="78.0" fill="#000000" transform="matrix(1.00, 0.00, -0.00, -1.00, 1070.7, 18.4)">a</text><text xml:space="preserve" font-family="ArialRoundedMTBold,Arial Rounded MT Bold" font-size="78.0" fill="#000000" transform="matrix(1.00, 0.00, -0.00, -1.00, 1117.0, 18.4)"> </text><text xml:space="preserve" font-family="ArialRoundedMTBold,Arial Rounded MT Bold" font-size="78.0" fill="#000000" transform="matrix(1.00, 0.00, -0.00, -1.00, 1136.5, 18.4)">a</text><text xml:space="preserve" font-family="ArialRoundedMTBold,Arial Rounded MT Bold" font-size="78.0" fill="#000000" transform="matrix(1.00, 0.00, -0.00, -1.00, 1181.9, 18.4)">b</text><text xml:space="preserve" font-family="ArialRoundedMTBold,Arial Rounded MT Bold" font-size="78.0" fill="#000000" transform="matrix(1.00, 0.00, -0.00, -1.00, 1230.6, 18.4)">a</text><text xml:space="preserve" font-family="ArialRoundedMTBold,Arial Rounded MT Bold" font-size="78.0" fill="#000000" transform="matrix(1.00, 0.00, -0.00, -1.00, 1277.0, 18.4)">j</text><text xml:space="preserve" font-family="ArialRoundedMTBold,Arial Rounded MT Bold" font-size="78.0" fill="#000000" transform="matrix(1.00, 0.00, -0.00, -1.00, 1298.1, 18.4)">o</text><text xml:space="preserve" font-family="ArialRoundedMTBold,Arial Rounded MT Bold" font-size="78.0" fill="#000000" transform="matrix(1.00, 0.00, -0.00, -1.00, 1345.2, 18.4)"> </text><g><clipPath id="clip0x7f8757c1dd50"><path d="M -0.5 7.6 L 1345.0 7.6 L 1345.0 13.5 L -0.5 13.5 Z M -0.5 7.6 "></path></clipPath><g clip-path="url(#clip0x7f8757c1dd50)"><path d="M 46.5 90.0 L 1391.0 90.0 " fill="none" stroke="#000000" stroke-width="3.88" transform="matrix(1.00, 0.00, 0.00, -1.00, -46.0, 100.6)"></path></g></g></g></svg>