<?xml version="1.0" encoding="UTF-8" standalone="no"?><svg xmlns="http://www.w3.org/2000/svg" xmlns:xlink="http://www.w3.org/1999/xlink" clip-rule="evenodd" stroke-miterlimit="10" viewBox="0 0 469 7"><desc>SVG generated by Keynote</desc><defs></defs><g transform="matrix(1.00, 0.00, -0.00, -1.00, 0.0, 7.0)"><text xml:space="preserve" font-family="Arial-BoldMT,Arial" font-weight="bold" font-size="38.0" fill="#000000" transform="matrix(1.00, 0.00, -0.00, -1.00, 2.1, 9.0)">_</text><text xml:space="preserve" font-family="Arial-BoldMT,Arial" font-weight="bold" font-size="38.0" fill="#000000" transform="matrix(1.00, 0.00, -0.00, -1.00, 23.2, 9.0)">_</text><text xml:space="preserve" font-family="Arial-BoldMT,Arial" font-weight="bold" font-size="38.0" fill="#000000" transform="matrix(1.00, 0.00, -0.00, -1.00, 44.4, 9.0)">_</text><text xml:space="preserve" font-family="Arial-BoldMT,Arial" font-weight="bold" font-size="38.0" fill="#000000" transform="matrix(1.00, 0.00, -0.00, -1.00, 65.5, 9.0)">_</text><text xml:space="preserve" font-family="Arial-BoldMT,Arial" font-weight="bold" font-size="38.0" fill="#000000" transform="matrix(1.00, 0.00, -0.00, -1.00, 86.6, 9.0)">_</text><text xml:space="preserve" font-family="Arial-BoldMT,Arial" font-weight="bold" font-size="38.0" fill="#000000" transform="matrix(1.00, 0.00, -0.00, -1.00, 107.8, 9.0)">_</text><text xml:space="preserve" font-family="Arial-BoldMT,Arial" font-weight="bold" font-size="38.0" fill="#000000" transform="matrix(1.00, 0.00, -0.00, -1.00, 128.9, 9.0)">_</text><text xml:space="preserve" font-family="Arial-BoldMT,Arial" font-weight="bold" font-size="38.0" fill="#000000" transform="matrix(1.00, 0.00, -0.00, -1.00, 150.1, 9.0)">_</text><text xml:space="preserve" font-family="Arial-BoldMT,Arial" font-weight="bold" font-size="38.0" fill="#000000" transform="matrix(1.00, 0.00, -0.00, -1.00, 171.2, 9.0)">_</text><text xml:space="preserve" font-family="Arial-BoldMT,Arial" font-weight="bold" font-size="38.0" fill="#000000" transform="matrix(1.00, 0.00, -0.00, -1.00, 192.4, 9.0)">_</text><text xml:space="preserve" font-family="Arial-BoldMT,Arial" font-weight="bold" font-size="38.0" fill="#000000" transform="matrix(1.00, 0.00, -0.00, -1.00, 213.5, 9.0)">_</text><text xml:space="preserve" font-family="Arial-BoldMT,Arial" font-weight="bold" font-size="38.0" fill="#000000" transform="matrix(1.00, 0.00, -0.00, -1.00, 234.6, 9.0)">_</text><text xml:space="preserve" font-family="Arial-BoldMT,Arial" font-weight="bold" font-size="38.0" fill="#000000" transform="matrix(1.00, 0.00, -0.00, -1.00, 255.8, 9.0)">_</text><text xml:space="preserve" font-family="Arial-BoldMT,Arial" font-weight="bold" font-size="38.0" fill="#000000" transform="matrix(1.00, 0.00, -0.00, -1.00, 276.9, 9.0)">_</text><text xml:space="preserve" font-family="Arial-BoldMT,Arial" font-weight="bold" font-size="38.0" fill="#000000" transform="matrix(1.00, 0.00, -0.00, -1.00, 298.1, 9.0)">_</text><text xml:space="preserve" font-family="Arial-BoldMT,Arial" font-weight="bold" font-size="38.0" fill="#000000" transform="matrix(1.00, 0.00, -0.00, -1.00, 319.2, 9.0)">_</text><text xml:space="preserve" font-family="Arial-BoldMT,Arial" font-weight="bold" font-size="38.0" fill="#000000" transform="matrix(1.00, 0.00, -0.00, -1.00, 340.3, 9.0)">_</text><text xml:space="preserve" font-family="Arial-BoldMT,Arial" font-weight="bold" font-size="38.0" fill="#000000" transform="matrix(1.00, 0.00, -0.00, -1.00, 361.5, 9.0)">_</text><text xml:space="preserve" font-family="Arial-BoldMT,Arial" font-weight="bold" font-size="38.0" fill="#000000" transform="matrix(1.00, 0.00, -0.00, -1.00, 382.6, 9.0)">_</text><text xml:space="preserve" font-family="Arial-BoldMT,Arial" font-weight="bold" font-size="38.0" fill="#000000" transform="matrix(1.00, 0.00, -0.00, -1.00, 403.8, 9.0)">_</text><text xml:space="preserve" font-family="Arial-BoldMT,Arial" font-weight="bold" font-size="38.0" fill="#000000" transform="matrix(1.00, 0.00, -0.00, -1.00, 424.9, 9.0)">_</text><text xml:space="preserve" font-family="Arial-BoldMT,Arial" font-weight="bold" font-size="38.0" fill="#000000" transform="matrix(1.00, 0.00, -0.00, -1.00, 446.0, 9.0)">_</text></g></svg>