<?xml version="1.0" encoding="UTF-8" standalone="no"?><svg xmlns="http://www.w3.org/2000/svg" xmlns:xlink="http://www.w3.org/1999/xlink" clip-rule="evenodd" stroke-miterlimit="10" viewBox="0 0 493 223"><desc>SVG generated by Keynote</desc><defs></defs><g transform="matrix(1.00, 0.00, -0.00, -1.00, 0.0, 223.0)"><path d="M 1.5 221.5 L 491.5 221.5 L 491.5 1.5 L 1.5 1.5 Z M 1.8 221.2 " fill="#FFFF00"></path><path d="M -0.3 -0.3 L 489.7 -0.3 L 489.7 219.7 L -0.3 219.7 Z M 0.0 0.0 " fill="none" stroke="#000000" stroke-width="1.00" stroke-linejoin="bevel" transform="matrix(1.00, 0.00, 0.00, -1.00, 1.8, 221.2)"></path><g><clipPath id="clip0x7f87588bb240"><path d="M -5.8 -5.7 L 499.0 -5.7 L 499.0 228.8 L -5.8 228.8 Z M -5.8 -5.7 "></path></clipPath><g clip-path="url(#clip0x7f87588bb240)"><text xml:space="preserve" font-family="ComicSansMS,Comic Sans MS" font-size="48.0" fill="#000000" transform="matrix(1.00, 0.00, -0.00, -1.00, 33.2, 159.1)"> </text><text xml:space="preserve" font-family="ComicSansMS,Comic Sans MS" font-size="48.0" fill="#000000" transform="matrix(1.00, 0.00, -0.00, -1.00, 47.5, 159.1)"> </text><text xml:space="preserve" font-family="ComicSansMS,Comic Sans MS" font-size="48.0" fill="#000000" transform="matrix(1.00, 0.00, -0.00, -1.00, 61.8, 159.1)"> </text><text xml:space="preserve" font-family="ComicSansMS,Comic Sans MS" font-size="48.0" fill="#000000" transform="matrix(1.00, 0.00, -0.00, -1.00, 76.2, 159.1)">C</text><text xml:space="preserve" font-family="ComicSansMS,Comic Sans MS" font-size="48.0" fill="#000000" transform="matrix(1.00, 0.00, -0.00, -1.00, 105.1, 159.1)">o</text><text xml:space="preserve" font-family="ComicSansMS,Comic Sans MS" font-size="48.0" fill="#000000" transform="matrix(1.00, 0.00, -0.00, -1.00, 130.3, 159.1)">l</text><text xml:space="preserve" font-family="ComicSansMS,Comic Sans MS" font-size="48.0" fill="#000000" transform="matrix(1.00, 0.00, -0.00, -1.00, 143.4, 159.1)">o</text><text xml:space="preserve" font-family="ComicSansMS,Comic Sans MS" font-size="48.0" fill="#000000" transform="matrix(1.00, 0.00, -0.00, -1.00, 168.7, 159.1)">q</text><text xml:space="preserve" font-family="ComicSansMS,Comic Sans MS" font-size="48.0" fill="#000000" transform="matrix(1.00, 0.00, -0.00, -1.00, 193.6, 159.1)">u</text><text xml:space="preserve" font-family="ComicSansMS,Comic Sans MS" font-size="48.0" fill="#000000" transform="matrix(1.00, 0.00, -0.00, -1.00, 218.6, 159.1)">e</text><text xml:space="preserve" font-family="ComicSansMS,Comic Sans MS" font-size="48.0" fill="#000000" transform="matrix(1.00, 0.00, -0.00, -1.00, 244.9, 159.1)"> </text><text xml:space="preserve" font-family="ComicSansMS,Comic Sans MS" font-size="48.0" fill="#000000" transform="matrix(1.00, 0.00, -0.00, -1.00, 259.2, 159.1)">u</text><text xml:space="preserve" font-family="ComicSansMS,Comic Sans MS" font-size="48.0" fill="#000000" transform="matrix(1.00, 0.00, -0.00, -1.00, 284.2, 159.1)">n</text><text xml:space="preserve" font-family="ComicSansMS,Comic Sans MS" font-size="48.0" fill="#000000" transform="matrix(1.00, 0.00, -0.00, -1.00, 309.3, 159.1)">a</text><text xml:space="preserve" font-family="ComicSansMS,Comic Sans MS" font-size="48.0" fill="#000000" transform="matrix(1.00, 0.00, -0.00, -1.00, 333.9, 159.1)"> </text><text xml:space="preserve" font-family="ComicSansMS,Comic Sans MS" font-size="48.0" fill="#000000" transform="matrix(1.00, 0.00, -0.00, -1.00, 348.2, 159.1)">c</text><text xml:space="preserve" font-family="ComicSansMS,Comic Sans MS" font-size="48.0" fill="#000000" transform="matrix(1.00, 0.00, -0.00, -1.00, 372.9, 159.1)">o</text><text xml:space="preserve" font-family="ComicSansMS,Comic Sans MS" font-size="48.0" fill="#000000" transform="matrix(1.00, 0.00, -0.00, -1.00, 398.1, 159.1)">m</text><text xml:space="preserve" font-family="ComicSansMS,Comic Sans MS" font-size="48.0" fill="#000000" transform="matrix(1.00, 0.00, -0.00, -1.00, 435.4, 159.1)">a</text><text xml:space="preserve" font-family="ComicSansMS,Comic Sans MS" font-size="48.0" fill="#000000" transform="matrix(1.00, 0.00, -0.00, -1.00, 459.9, 159.1)"> </text><text xml:space="preserve" font-family="ComicSansMS,Comic Sans MS" font-size="48.0" fill="#000000" transform="matrix(1.00, 0.00, -0.00, -1.00, 105.7, 92.1)">e</text><text xml:space="preserve" font-family="ComicSansMS,Comic Sans MS" font-size="48.0" fill="#000000" transform="matrix(1.00, 0.00, -0.00, -1.00, 132.0, 92.1)">n</text><text xml:space="preserve" font-family="ComicSansMS,Comic Sans MS" font-size="48.0" fill="#000000" transform="matrix(1.00, 0.00, -0.00, -1.00, 157.1, 92.1)"> </text><text xml:space="preserve" font-family="ComicSansMS,Comic Sans MS" font-size="48.0" fill="#000000" transform="matrix(1.00, 0.00, -0.00, -1.00, 171.5, 92.1)">l</text><text xml:space="preserve" font-family="ComicSansMS,Comic Sans MS" font-size="48.0" fill="#000000" transform="matrix(1.00, 0.00, -0.00, -1.00, 184.6, 92.1)">a</text><text xml:space="preserve" font-family="ComicSansMS,Comic Sans MS" font-size="48.0" fill="#000000" transform="matrix(1.00, 0.00, -0.00, -1.00, 209.2, 92.1)"> </text><text xml:space="preserve" font-family="ComicSansMS,Comic Sans MS" font-size="48.0" fill="#000000" transform="matrix(1.00, 0.00, -0.00, -1.00, 223.5, 92.1)">p</text><text xml:space="preserve" font-family="ComicSansMS,Comic Sans MS" font-size="48.0" fill="#000000" transform="matrix(1.00, 0.00, -0.00, -1.00, 249.2, 92.1)">a</text><text xml:space="preserve" font-family="ComicSansMS,Comic Sans MS" font-size="48.0" fill="#000000" transform="matrix(1.00, 0.00, -0.00, -1.00, 273.7, 92.1)">l</text><text xml:space="preserve" font-family="ComicSansMS,Comic Sans MS" font-size="48.0" fill="#000000" transform="matrix(1.00, 0.00, -0.00, -1.00, 286.9, 92.1)">a</text><text xml:space="preserve" font-family="ComicSansMS,Comic Sans MS" font-size="48.0" fill="#000000" transform="matrix(1.00, 0.00, -0.00, -1.00, 311.4, 92.1)">b</text><text xml:space="preserve" font-family="ComicSansMS,Comic Sans MS" font-size="48.0" fill="#000000" transform="matrix(1.00, 0.00, -0.00, -1.00, 339.9, 92.1)">r</text><text xml:space="preserve" font-family="ComicSansMS,Comic Sans MS" font-size="48.0" fill="#000000" transform="matrix(1.00, 0.00, -0.00, -1.00, 363.0, 92.1)">a</text><text xml:space="preserve" font-family="ComicSansMS,Comic Sans MS" font-size="48.0" fill="#000000" transform="matrix(1.00, 0.00, -0.00, -1.00, 387.6, 92.1)"> </text><text xml:space="preserve" font-family="ComicSansMS-Bold,Comic Sans MS" font-weight="bold" font-size="48.0" fill="#000000" transform="matrix(1.00, 0.00, -0.00, -1.00, 208.7, 25.1)">m</text><text xml:space="preserve" font-family="ComicSansMS-Bold,Comic Sans MS" font-weight="bold" font-size="48.0" fill="#000000" transform="matrix(1.00, 0.00, -0.00, -1.00, 246.0, 25.1)">i</text><text xml:space="preserve" font-family="ComicSansMS-Bold,Comic Sans MS" font-weight="bold" font-size="48.0" fill="#000000" transform="matrix(1.00, 0.00, -0.00, -1.00, 259.4, 25.1)">l</text><text xml:space="preserve" font-family="ComicSansMS,Comic Sans MS" font-size="48.0" fill="#000000" transform="matrix(1.00, 0.00, -0.00, -1.00, 272.6, 25.1)">.</text><path d="M 206.4 202.0 L 270.3 202.0 " fill="none" stroke="#000000" stroke-width="4.10" transform="matrix(1.00, 0.00, 0.00, -1.00, 2.3, 220.7)"></path></g></g></g></svg>