<?xml version="1.0" encoding="UTF-8" standalone="no"?><svg xmlns="http://www.w3.org/2000/svg" xmlns:xlink="http://www.w3.org/1999/xlink" clip-rule="evenodd" stroke-miterlimit="10" viewBox="0 0 1920 1080"><desc>SVG generated by Keynote</desc><defs></defs><g transform="matrix(1.00, 0.00, -0.00, -1.00, 0.0, 1080.0)"><path d="M 0.0 1080.0 L 1920.0 1080.0 L 1920.0 0.0 L 0.0 0.0 Z M 0.0 1080.0 " fill="#FFFFFF"></path><path d="M 324.5 734.5 L 720.5 734.5 L 720.5 599.5 L 324.5 599.5 Z M 324.6 734.4 " fill="#B18ECA"></path><path d="M -0.1 -0.1 L 395.9 -0.1 L 395.9 134.9 L -0.1 134.9 Z M 0.0 0.0 " fill="none" stroke="#000000" stroke-width="5.00" stroke-linejoin="bevel" transform="matrix(1.00, 0.00, 0.00, -1.00, 324.6, 734.4)"></path><path d="M 1510.5 484.5 L 1618.5 484.5 L 1618.5 482.5 L 1510.5 482.5 Z M 1510.8 484.2 " fill="#FFAA00"></path><path d="M -0.3 -0.3 L 107.7 -0.3 L 107.7 1.7 L -0.3 1.7 Z M 0.0 0.0 " fill="none" stroke="#000000" stroke-width="5.00" stroke-linejoin="bevel" transform="matrix(1.00, 0.00, 0.00, -1.00, 1510.8, 484.2)"></path><path d="M 715.5 554.5 L 756.5 554.5 L 756.5 461.5 L 715.5 461.5 Z M 715.2 554.4 " fill="#FFFFFF"></path><path d="M 0.3 -0.1 L 41.3 -0.1 L 41.3 92.9 L 0.3 92.9 Z M 0.0 0.0 " fill="none" stroke="#FFFFFF" stroke-width="1.00" stroke-linejoin="bevel" transform="matrix(1.00, 0.00, 0.00, -1.00, 715.2, 554.4)"></path><g><clipPath id="clip0x7f87609d6a40"><path d="M 705.8 451.7 L 766.0 451.7 L 766.0 563.8 L 705.8 563.8 Z M 705.8 451.7 "></path></clipPath><g clip-path="url(#clip0x7f87609d6a40)"><text xml:space="preserve" font-family="ArialRoundedMTBold,Arial Rounded MT Bold" font-size="64.0" fill="#000000" transform="matrix(1.00, 0.00, -0.00, -1.00, 724.3, 483.8)">,</text></g></g><path d="M 1370.5 484.5 L 1478.5 484.5 L 1478.5 482.5 L 1370.5 482.5 Z M 1370.4 484.2 " fill="#FFAA00"></path><path d="M 0.1 -0.3 L 108.1 -0.3 L 108.1 1.7 L 0.1 1.7 Z M 0.0 0.0 " fill="none" stroke="#000000" stroke-width="5.00" stroke-linejoin="bevel" transform="matrix(1.00, 0.00, 0.00, -1.00, 1370.4, 484.2)"></path><path d="M 1156.5 554.5 L 1237.5 554.5 L 1237.5 461.5 L 1156.5 461.5 Z M 1156.2 554.4 " fill="#FFFFFF"></path><path d="M 0.3 -0.1 L 81.3 -0.1 L 81.3 92.9 L 0.3 92.9 Z M 0.0 0.0 " fill="none" stroke="#FFFFFF" stroke-width="1.00" stroke-linejoin="bevel" transform="matrix(1.00, 0.00, 0.00, -1.00, 1156.2, 554.4)"></path><g><clipPath id="clip0x7f87609d3ac0"><path d="M 1146.8 451.7 L 1246.6 451.7 L 1246.6 563.8 L 1146.8 563.8 Z M 1146.8 451.7 "></path></clipPath><g clip-path="url(#clip0x7f87609d3ac0)"><text xml:space="preserve" font-family="ArialRoundedMTBold,Arial Rounded MT Bold" font-size="64.0" fill="#000000" transform="matrix(1.00, 0.00, -0.00, -1.00, 1186.7, 483.8)">,</text></g></g><path d="M 1222.5 734.5 L 1618.5 734.5 L 1618.5 599.5 L 1222.5 599.5 Z M 1222.8 734.4 " fill="#FF99CC" fill-opacity="0.38"></path><path d="M -0.3 -0.1 L 395.7 -0.1 L 395.7 134.9 L -0.3 134.9 Z M 0.0 0.0 " fill="none" stroke="#000000" stroke-width="3.00" stroke-linejoin="bevel" transform="matrix(1.00, 0.00, 0.00, -1.00, 1222.8, 734.4)"></path><text xml:space="preserve" font-family="ComicSansMS-Bold,Comic Sans MS" font-weight="bold" font-size="48.0" fill="#000000" transform="matrix(1.00, 0.00, -0.00, -1.00, 1326.0, 644.0)">u</text><text xml:space="preserve" font-family="ComicSansMS-Bold,Comic Sans MS" font-weight="bold" font-size="48.0" fill="#000000" transform="matrix(1.00, 0.00, -0.00, -1.00, 1351.0, 644.0)">n</text><text xml:space="preserve" font-family="ComicSansMS-Bold,Comic Sans MS" font-weight="bold" font-size="48.0" fill="#000000" transform="matrix(1.00, 0.00, -0.00, -1.00, 1376.1, 644.0)">i</text><text xml:space="preserve" font-family="ComicSansMS-Bold,Comic Sans MS" font-weight="bold" font-size="48.0" fill="#000000" transform="matrix(1.00, 0.00, -0.00, -1.00, 1389.6, 644.0)">d</text><text xml:space="preserve" font-family="ComicSansMS-Bold,Comic Sans MS" font-weight="bold" font-size="48.0" fill="#000000" transform="matrix(1.00, 0.00, -0.00, -1.00, 1417.8, 644.0)">a</text><text xml:space="preserve" font-family="ComicSansMS-Bold,Comic Sans MS" font-weight="bold" font-size="48.0" fill="#000000" transform="matrix(1.00, 0.00, -0.00, -1.00, 1444.4, 644.0)">d</text><text xml:space="preserve" font-family="ComicSansMS-Bold,Comic Sans MS" font-weight="bold" font-size="48.0" fill="#000000" transform="matrix(1.00, 0.00, -0.00, -1.00, 1472.7, 644.0)">e</text><text xml:space="preserve" font-family="ComicSansMS-Bold,Comic Sans MS" font-weight="bold" font-size="48.0" fill="#000000" transform="matrix(1.00, 0.00, -0.00, -1.00, 1499.5, 644.0)">s</text><path d="M 1062.5 484.5 L 1170.5 484.5 L 1170.5 482.5 L 1062.5 482.5 Z M 1062.6 484.2 " fill="#FFAA00"></path><path d="M -0.1 -0.3 L 107.9 -0.3 L 107.9 1.7 L -0.1 1.7 Z M 0.0 0.0 " fill="none" stroke="#000000" stroke-width="5.00" stroke-linejoin="bevel" transform="matrix(1.00, 0.00, 0.00, -1.00, 1062.6, 484.2)"></path><path d="M 781.5 484.5 L 889.5 484.5 L 889.5 482.5 L 781.5 482.5 Z M 781.8 484.2 " fill="#FFAA00"></path><path d="M -0.3 -0.3 L 107.7 -0.3 L 107.7 1.7 L -0.3 1.7 Z M 0.0 0.0 " fill="none" stroke="#000000" stroke-width="5.00" stroke-linejoin="bevel" transform="matrix(1.00, 0.00, 0.00, -1.00, 781.8, 484.2)"></path><path d="M 922.5 484.5 L 1030.5 484.5 L 1030.5 482.5 L 922.5 482.5 Z M 922.2 484.2 " fill="#FFAA00"></path><path d="M 0.3 -0.3 L 108.3 -0.3 L 108.3 1.7 L 0.3 1.7 Z M 0.0 0.0 " fill="none" stroke="#000000" stroke-width="5.00" stroke-linejoin="bevel" transform="matrix(1.00, 0.00, 0.00, -1.00, 922.2, 484.2)"></path><path d="M 774.5 732.5 L 1170.5 732.5 L 1170.5 597.5 L 774.5 597.5 Z M 774.6 732.6 " fill="#993366" fill-opacity="0.48"></path><path d="M -0.1 0.1 L 395.9 0.1 L 395.9 135.1 L -0.1 135.1 Z M 0.0 0.0 " fill="none" stroke="#000000" stroke-width="3.00" stroke-linejoin="bevel" transform="matrix(1.00, 0.00, 0.00, -1.00, 774.6, 732.6)"></path><text xml:space="preserve" font-family="ComicSansMS-Bold,Comic Sans MS" font-weight="bold" font-size="48.0" fill="#000000" transform="matrix(1.00, 0.00, -0.00, -1.00, 913.8, 638.6)">m</text><text xml:space="preserve" font-family="ComicSansMS-Bold,Comic Sans MS" font-weight="bold" font-size="48.0" fill="#000000" transform="matrix(1.00, 0.00, -0.00, -1.00, 951.0, 638.6)">i</text><text xml:space="preserve" font-family="ComicSansMS-Bold,Comic Sans MS" font-weight="bold" font-size="48.0" fill="#000000" transform="matrix(1.00, 0.00, -0.00, -1.00, 964.5, 638.6)">l</text><text xml:space="preserve" font-family="ComicSansMS-Bold,Comic Sans MS" font-weight="bold" font-size="48.0" fill="#000000" transform="matrix(1.00, 0.00, -0.00, -1.00, 977.6, 638.6)">e</text><text xml:space="preserve" font-family="ComicSansMS-Bold,Comic Sans MS" font-weight="bold" font-size="48.0" fill="#000000" transform="matrix(1.00, 0.00, -0.00, -1.00, 1004.5, 638.6)">s</text><path d="M 601.5 484.5 L 709.5 484.5 L 709.5 482.5 L 601.5 482.5 Z M 601.8 484.2 " fill="#FFAA00"></path><path d="M -0.3 -0.3 L 107.7 -0.3 L 107.7 1.7 L -0.3 1.7 Z M 0.0 0.0 " fill="none" stroke="#000000" stroke-width="5.00" stroke-linejoin="bevel" transform="matrix(1.00, 0.00, 0.00, -1.00, 601.8, 484.2)"></path><path d="M 328.5 484.5 L 436.5 484.5 L 436.5 482.5 L 328.5 482.5 Z M 328.2 484.2 " fill="#FFAA00"></path><path d="M 0.3 -0.3 L 108.3 -0.3 L 108.3 1.7 L 0.3 1.7 Z M 0.0 0.0 " fill="none" stroke="#000000" stroke-width="5.00" stroke-linejoin="bevel" transform="matrix(1.00, 0.00, 0.00, -1.00, 328.2, 484.2)"></path><path d="M 463.5 484.5 L 571.5 484.5 L 571.5 482.5 L 463.5 482.5 Z M 463.2 484.2 " fill="#FFAA00"></path><path d="M 0.3 -0.3 L 108.3 -0.3 L 108.3 1.7 L 0.3 1.7 Z M 0.0 0.0 " fill="none" stroke="#000000" stroke-width="5.00" stroke-linejoin="bevel" transform="matrix(1.00, 0.00, 0.00, -1.00, 463.2, 484.2)"></path><text xml:space="preserve" font-family="ComicSansMS-Bold,Comic Sans MS" font-weight="bold" font-size="64.0" fill="#000000" transform="matrix(1.00, 0.00, -0.00, -1.00, 524.9, 893.7)">A</text><text xml:space="preserve" font-family="ComicSansMS-Bold,Comic Sans MS" font-weight="bold" font-size="64.0" fill="#000000" transform="matrix(1.00, 0.00, -0.00, -1.00, 571.8, 893.7)">h</text><text xml:space="preserve" font-family="ComicSansMS-Bold,Comic Sans MS" font-weight="bold" font-size="64.0" fill="#000000" transform="matrix(1.00, 0.00, -0.00, -1.00, 608.7, 893.7)">o</text><text xml:space="preserve" font-family="ComicSansMS-Bold,Comic Sans MS" font-weight="bold" font-size="64.0" fill="#000000" transform="matrix(1.00, 0.00, -0.00, -1.00, 642.3, 893.7)">r</text><text xml:space="preserve" font-family="ComicSansMS-Bold,Comic Sans MS" font-weight="bold" font-size="64.0" fill="#000000" transform="matrix(1.00, 0.00, -0.00, -1.00, 673.1, 893.7)">a</text><text xml:space="preserve" font-family="ComicSansMS-Bold,Comic Sans MS" font-weight="bold" font-size="64.0" fill="#000000" transform="matrix(1.00, 0.00, -0.00, -1.00, 708.7, 893.7)">,</text><text xml:space="preserve" font-family="ComicSansMS-Bold,Comic Sans MS" font-weight="bold" font-size="64.0" fill="#000000" transform="matrix(1.00, 0.00, -0.00, -1.00, 736.4, 893.7)"> </text><text xml:space="preserve" font-family="ComicSansMS-Bold,Comic Sans MS" font-weight="bold" font-size="64.0" fill="#000000" transform="matrix(1.00, 0.00, -0.00, -1.00, 764.1, 893.7)">e</text><text xml:space="preserve" font-family="ComicSansMS-Bold,Comic Sans MS" font-weight="bold" font-size="64.0" fill="#000000" transform="matrix(1.00, 0.00, -0.00, -1.00, 799.9, 893.7)">n</text><text xml:space="preserve" font-family="ComicSansMS-Bold,Comic Sans MS" font-weight="bold" font-size="64.0" fill="#000000" transform="matrix(1.00, 0.00, -0.00, -1.00, 833.4, 893.7)">c</text><text xml:space="preserve" font-family="ComicSansMS-Bold,Comic Sans MS" font-weight="bold" font-size="64.0" fill="#000000" transform="matrix(1.00, 0.00, -0.00, -1.00, 866.3, 893.7)">u</text><text xml:space="preserve" font-family="ComicSansMS-Bold,Comic Sans MS" font-weight="bold" font-size="64.0" fill="#000000" transform="matrix(1.00, 0.00, -0.00, -1.00, 899.6, 893.7)">e</text><text xml:space="preserve" font-family="ComicSansMS-Bold,Comic Sans MS" font-weight="bold" font-size="64.0" fill="#000000" transform="matrix(1.00, 0.00, -0.00, -1.00, 935.4, 893.7)">n</text><text xml:space="preserve" font-family="ComicSansMS-Bold,Comic Sans MS" font-weight="bold" font-size="64.0" fill="#000000" transform="matrix(1.00, 0.00, -0.00, -1.00, 968.9, 893.7)">t</text><text xml:space="preserve" font-family="ComicSansMS-Bold,Comic Sans MS" font-weight="bold" font-size="64.0" fill="#000000" transform="matrix(1.00, 0.00, -0.00, -1.00, 999.1, 893.7)">r</text><text xml:space="preserve" font-family="ComicSansMS-Bold,Comic Sans MS" font-weight="bold" font-size="64.0" fill="#000000" transform="matrix(1.00, 0.00, -0.00, -1.00, 1029.8, 893.7)">a</text><text xml:space="preserve" font-family="ComicSansMS-Bold,Comic Sans MS" font-weight="bold" font-size="64.0" fill="#000000" transform="matrix(1.00, 0.00, -0.00, -1.00, 1065.4, 893.7)"> </text><text xml:space="preserve" font-family="ComicSansMS-Bold,Comic Sans MS" font-weight="bold" font-size="64.0" fill="#000000" transform="matrix(1.00, 0.00, -0.00, -1.00, 1093.1, 893.7)">e</text><text xml:space="preserve" font-family="ComicSansMS-Bold,Comic Sans MS" font-weight="bold" font-size="64.0" fill="#000000" transform="matrix(1.00, 0.00, -0.00, -1.00, 1128.9, 893.7)">l</text><text xml:space="preserve" font-family="ComicSansMS-Bold,Comic Sans MS" font-weight="bold" font-size="64.0" fill="#000000" transform="matrix(1.00, 0.00, -0.00, -1.00, 1146.4, 893.7)"> </text><text xml:space="preserve" font-family="ComicSansMS-Bold,Comic Sans MS" font-weight="bold" font-size="64.0" fill="#000000" transform="matrix(1.00, 0.00, -0.00, -1.00, 1174.2, 893.7)">V</text><text xml:space="preserve" font-family="ComicSansMS-Bold,Comic Sans MS" font-weight="bold" font-size="64.0" fill="#000000" transform="matrix(1.00, 0.00, -0.00, -1.00, 1217.3, 893.7)">A</text><text xml:space="preserve" font-family="ComicSansMS-Bold,Comic Sans MS" font-weight="bold" font-size="64.0" fill="#000000" transform="matrix(1.00, 0.00, -0.00, -1.00, 1264.2, 893.7)">L</text><text xml:space="preserve" font-family="ComicSansMS-Bold,Comic Sans MS" font-weight="bold" font-size="64.0" fill="#000000" transform="matrix(1.00, 0.00, -0.00, -1.00, 1299.4, 893.7)">O</text><text xml:space="preserve" font-family="ComicSansMS-Bold,Comic Sans MS" font-weight="bold" font-size="64.0" fill="#000000" transform="matrix(1.00, 0.00, -0.00, -1.00, 1350.6, 893.7)">R</text><text xml:space="preserve" font-family="ComicSansMS-Bold,Comic Sans MS" font-weight="bold" font-size="64.0" fill="#000000" transform="matrix(1.00, 0.00, -0.00, -1.00, 1391.5, 893.7)"> </text><text xml:space="preserve" font-family="ComicSansMS-Bold,Comic Sans MS" font-weight="bold" font-size="64.0" fill="#000000" transform="matrix(1.00, 0.00, -0.00, -1.00, 1419.2, 893.7)"> </text><g><clipPath id="clip0x7f87609bcb90"><path d="M 1173.2 881.5 L 1391.5 881.5 L 1391.5 888.9 L 1173.2 888.9 Z M 1173.2 881.5 "></path></clipPath><g clip-path="url(#clip0x7f87609bcb90)"><path d="M 862.2 88.5 L 1079.5 88.5 " fill="none" stroke="#000000" stroke-width="5.47" transform="matrix(1.00, 0.00, 0.00, -1.00, 312.0, 973.7)"></path></g></g><text xml:space="preserve" font-family="ComicSansMS-Bold,Comic Sans MS" font-weight="bold" font-size="64.0" fill="#000000" transform="matrix(1.00, 0.00, -0.00, -1.00, 702.2, 803.7)">d</text><text xml:space="preserve" font-family="ComicSansMS-Bold,Comic Sans MS" font-weight="bold" font-size="64.0" fill="#000000" transform="matrix(1.00, 0.00, -0.00, -1.00, 739.9, 803.7)">e</text><text xml:space="preserve" font-family="ComicSansMS-Bold,Comic Sans MS" font-weight="bold" font-size="64.0" fill="#000000" transform="matrix(1.00, 0.00, -0.00, -1.00, 775.7, 803.7)"> </text><text xml:space="preserve" font-family="ComicSansMS-Bold,Comic Sans MS" font-weight="bold" font-size="64.0" fill="#000000" transform="matrix(1.00, 0.00, -0.00, -1.00, 803.4, 803.7)">c</text><text xml:space="preserve" font-family="ComicSansMS-Bold,Comic Sans MS" font-weight="bold" font-size="64.0" fill="#000000" transform="matrix(1.00, 0.00, -0.00, -1.00, 836.2, 803.7)">a</text><text xml:space="preserve" font-family="ComicSansMS-Bold,Comic Sans MS" font-weight="bold" font-size="64.0" fill="#000000" transform="matrix(1.00, 0.00, -0.00, -1.00, 871.7, 803.7)">d</text><text xml:space="preserve" font-family="ComicSansMS-Bold,Comic Sans MS" font-weight="bold" font-size="64.0" fill="#000000" transform="matrix(1.00, 0.00, -0.00, -1.00, 909.4, 803.7)">a</text><text xml:space="preserve" font-family="ComicSansMS-Bold,Comic Sans MS" font-weight="bold" font-size="64.0" fill="#000000" transform="matrix(1.00, 0.00, -0.00, -1.00, 944.9, 803.7)"> </text><text xml:space="preserve" font-family="ComicSansMS-Bold,Comic Sans MS" font-weight="bold" font-size="64.0" fill="#000000" transform="matrix(1.00, 0.00, -0.00, -1.00, 972.7, 803.7)">L</text><text xml:space="preserve" font-family="ComicSansMS-Bold,Comic Sans MS" font-weight="bold" font-size="64.0" fill="#000000" transform="matrix(1.00, 0.00, -0.00, -1.00, 1008.0, 803.7)">U</text><text xml:space="preserve" font-family="ComicSansMS-Bold,Comic Sans MS" font-weight="bold" font-size="64.0" fill="#000000" transform="matrix(1.00, 0.00, -0.00, -1.00, 1055.1, 803.7)">G</text><text xml:space="preserve" font-family="ComicSansMS-Bold,Comic Sans MS" font-weight="bold" font-size="64.0" fill="#000000" transform="matrix(1.00, 0.00, -0.00, -1.00, 1098.6, 803.7)">A</text><text xml:space="preserve" font-family="ComicSansMS-Bold,Comic Sans MS" font-weight="bold" font-size="64.0" fill="#000000" transform="matrix(1.00, 0.00, -0.00, -1.00, 1145.4, 803.7)">R</text><text xml:space="preserve" font-family="ComicSansMS-Bold,Comic Sans MS" font-weight="bold" font-size="64.0" fill="#000000" transform="matrix(1.00, 0.00, -0.00, -1.00, 1186.4, 803.7)">.</text><g><clipPath id="clip0x7f87609c4840"><path d="M 971.7 791.5 L 1186.4 791.5 L 1186.4 798.9 L 971.7 798.9 Z M 971.7 791.5 "></path></clipPath><g clip-path="url(#clip0x7f87609c4840)"><path d="M 660.7 178.5 L 874.4 178.5 " fill="none" stroke="#000000" stroke-width="5.47" transform="matrix(1.00, 0.00, 0.00, -1.00, 312.0, 973.7)"></path></g></g><text xml:space="preserve" font-family="ComicSansMS-Bold,Comic Sans MS" font-weight="bold" font-size="48.0" fill="#000000" transform="matrix(1.00, 0.00, -0.00, -1.00, 430.2, 640.4)">m</text><text xml:space="preserve" font-family="ComicSansMS-Bold,Comic Sans MS" font-weight="bold" font-size="48.0" fill="#000000" transform="matrix(1.00, 0.00, -0.00, -1.00, 467.5, 640.4)">i</text><text xml:space="preserve" font-family="ComicSansMS-Bold,Comic Sans MS" font-weight="bold" font-size="48.0" fill="#000000" transform="matrix(1.00, 0.00, -0.00, -1.00, 480.9, 640.4)">l</text><text xml:space="preserve" font-family="ComicSansMS-Bold,Comic Sans MS" font-weight="bold" font-size="48.0" fill="#000000" transform="matrix(1.00, 0.00, -0.00, -1.00, 494.1, 640.4)">l</text><text xml:space="preserve" font-family="ComicSansMS-Bold,Comic Sans MS" font-weight="bold" font-size="48.0" fill="#000000" transform="matrix(1.00, 0.00, -0.00, -1.00, 507.2, 640.4)">o</text><text xml:space="preserve" font-family="ComicSansMS-Bold,Comic Sans MS" font-weight="bold" font-size="48.0" fill="#000000" transform="matrix(1.00, 0.00, -0.00, -1.00, 532.5, 640.4)">n</text><text xml:space="preserve" font-family="ComicSansMS-Bold,Comic Sans MS" font-weight="bold" font-size="48.0" fill="#000000" transform="matrix(1.00, 0.00, -0.00, -1.00, 557.6, 640.4)">e</text><text xml:space="preserve" font-family="ComicSansMS-Bold,Comic Sans MS" font-weight="bold" font-size="48.0" fill="#000000" transform="matrix(1.00, 0.00, -0.00, -1.00, 584.5, 640.4)">s</text><path d="M 1231.5 484.5 L 1339.5 484.5 L 1339.5 482.5 L 1231.5 482.5 Z M 1231.8 484.2 " fill="#FFAA00"></path><path d="M -0.3 -0.3 L 107.7 -0.3 L 107.7 1.7 L -0.3 1.7 Z M 0.0 0.0 " fill="none" stroke="#000000" stroke-width="5.00" stroke-linejoin="bevel" transform="matrix(1.00, 0.00, 0.00, -1.00, 1231.8, 484.2)"></path></g></svg>