<?xml version="1.0" encoding="UTF-8" standalone="no"?><svg xmlns="http://www.w3.org/2000/svg" xmlns:xlink="http://www.w3.org/1999/xlink" clip-rule="evenodd" stroke-miterlimit="10" viewBox="0 0 928 192"><desc>SVG generated by Keynote</desc><defs></defs><g transform="matrix(1.00, 0.00, -0.00, -1.00, 0.0, 192.0)"><text xml:space="preserve" font-family="ComicSansMS-Bold,Comic Sans MS" font-weight="bold" font-size="76.0" fill="#000000" transform="matrix(1.00, 0.00, -0.00, -1.00, 242.7, 129.9)">C</text><text xml:space="preserve" font-family="ComicSansMS-Bold,Comic Sans MS" font-weight="bold" font-size="76.0" fill="#000000" transform="matrix(1.00, 0.00, -0.00, -1.00, 296.8, 129.9)">a</text><text xml:space="preserve" font-family="ComicSansMS-Bold,Comic Sans MS" font-weight="bold" font-size="76.0" fill="#000000" transform="matrix(1.00, 0.00, -0.00, -1.00, 346.1, 129.9)">d</text><text xml:space="preserve" font-family="ComicSansMS-Bold,Comic Sans MS" font-weight="bold" font-size="76.0" fill="#000000" transform="matrix(1.00, 0.00, -0.00, -1.00, 397.9, 129.9)">a</text><text xml:space="preserve" font-family="ComicSansMS-Bold,Comic Sans MS" font-weight="bold" font-size="76.0" fill="#000000" transform="matrix(1.00, 0.00, -0.00, -1.00, 447.3, 129.9)"> </text><text xml:space="preserve" font-family="ComicSansMS-Bold,Comic Sans MS" font-weight="bold" font-size="76.0" fill="#000000" transform="matrix(1.00, 0.00, -0.00, -1.00, 487.3, 129.9)">l</text><text xml:space="preserve" font-family="ComicSansMS-Bold,Comic Sans MS" font-weight="bold" font-size="76.0" fill="#000000" transform="matrix(1.00, 0.00, -0.00, -1.00, 515.2, 129.9)">u</text><text xml:space="preserve" font-family="ComicSansMS-Bold,Comic Sans MS" font-weight="bold" font-size="76.0" fill="#000000" transform="matrix(1.00, 0.00, -0.00, -1.00, 561.9, 129.9)">g</text><text xml:space="preserve" font-family="ComicSansMS-Bold,Comic Sans MS" font-weight="bold" font-size="76.0" fill="#000000" transform="matrix(1.00, 0.00, -0.00, -1.00, 609.3, 129.9)">a</text><text xml:space="preserve" font-family="ComicSansMS-Bold,Comic Sans MS" font-weight="bold" font-size="76.0" fill="#000000" transform="matrix(1.00, 0.00, -0.00, -1.00, 658.6, 129.9)">r</text><text xml:space="preserve" font-family="ComicSansMS-Bold,Comic Sans MS" font-weight="bold" font-size="76.0" fill="#000000" transform="matrix(1.00, 0.00, -0.00, -1.00, 702.3, 129.9)"> </text><text xml:space="preserve" font-family="ComicSansMS-Bold,Comic Sans MS" font-weight="bold" font-size="76.0" fill="#000000" transform="matrix(1.00, 0.00, -0.00, -1.00, 742.4, 129.9)"> </text><text xml:space="preserve" font-family="ComicSansMS-Bold,Comic Sans MS" font-weight="bold" font-size="76.0" fill="#000000" transform="matrix(1.00, 0.00, -0.00, -1.00, 1.3, 23.9)">t</text><text xml:space="preserve" font-family="ComicSansMS-Bold,Comic Sans MS" font-weight="bold" font-size="76.0" fill="#000000" transform="matrix(1.00, 0.00, -0.00, -1.00, 44.3, 23.9)">i</text><text xml:space="preserve" font-family="ComicSansMS-Bold,Comic Sans MS" font-weight="bold" font-size="76.0" fill="#000000" transform="matrix(1.00, 0.00, -0.00, -1.00, 72.7, 23.9)">e</text><text xml:space="preserve" font-family="ComicSansMS-Bold,Comic Sans MS" font-weight="bold" font-size="76.0" fill="#000000" transform="matrix(1.00, 0.00, -0.00, -1.00, 122.3, 23.9)">n</text><text xml:space="preserve" font-family="ComicSansMS-Bold,Comic Sans MS" font-weight="bold" font-size="76.0" fill="#000000" transform="matrix(1.00, 0.00, -0.00, -1.00, 169.3, 23.9)">e</text><text xml:space="preserve" font-family="ComicSansMS-Bold,Comic Sans MS" font-weight="bold" font-size="76.0" fill="#000000" transform="matrix(1.00, 0.00, -0.00, -1.00, 218.9, 23.9)"> </text><text xml:space="preserve" font-family="ComicSansMS-Bold,Comic Sans MS" font-weight="bold" font-size="76.0" fill="#000000" transform="matrix(1.00, 0.00, -0.00, -1.00, 258.9, 23.9)">s</text><text xml:space="preserve" font-family="ComicSansMS-Bold,Comic Sans MS" font-weight="bold" font-size="76.0" fill="#000000" transform="matrix(1.00, 0.00, -0.00, -1.00, 303.0, 23.9)">u</text><text xml:space="preserve" font-family="ComicSansMS-Bold,Comic Sans MS" font-weight="bold" font-size="76.0" fill="#000000" transform="matrix(1.00, 0.00, -0.00, -1.00, 349.7, 23.9)"> </text><text xml:space="preserve" font-family="ComicSansMS-Bold,Comic Sans MS" font-weight="bold" font-size="76.0" fill="#000000" transform="matrix(1.00, 0.00, -0.00, -1.00, 389.7, 23.9)">p</text><text xml:space="preserve" font-family="ComicSansMS-Bold,Comic Sans MS" font-weight="bold" font-size="76.0" fill="#000000" transform="matrix(1.00, 0.00, -0.00, -1.00, 437.4, 23.9)">r</text><text xml:space="preserve" font-family="ComicSansMS-Bold,Comic Sans MS" font-weight="bold" font-size="76.0" fill="#000000" transform="matrix(1.00, 0.00, -0.00, -1.00, 481.1, 23.9)">o</text><text xml:space="preserve" font-family="ComicSansMS-Bold,Comic Sans MS" font-weight="bold" font-size="76.0" fill="#000000" transform="matrix(1.00, 0.00, -0.00, -1.00, 528.2, 23.9)">p</text><text xml:space="preserve" font-family="ComicSansMS-Bold,Comic Sans MS" font-weight="bold" font-size="76.0" fill="#000000" transform="matrix(1.00, 0.00, -0.00, -1.00, 575.8, 23.9)">i</text><text xml:space="preserve" font-family="ComicSansMS-Bold,Comic Sans MS" font-weight="bold" font-size="76.0" fill="#000000" transform="matrix(1.00, 0.00, -0.00, -1.00, 604.3, 23.9)">o</text><text xml:space="preserve" font-family="ComicSansMS-Bold,Comic Sans MS" font-weight="bold" font-size="76.0" fill="#000000" transform="matrix(1.00, 0.00, -0.00, -1.00, 651.4, 23.9)"> </text><text xml:space="preserve" font-family="ComicSansMS-Bold,Comic Sans MS" font-weight="bold" font-size="76.0" fill="#000000" transform="matrix(1.00, 0.00, -0.00, -1.00, 691.4, 23.9)">v</text><text xml:space="preserve" font-family="ComicSansMS-Bold,Comic Sans MS" font-weight="bold" font-size="76.0" fill="#000000" transform="matrix(1.00, 0.00, -0.00, -1.00, 735.5, 23.9)">a</text><text xml:space="preserve" font-family="ComicSansMS-Bold,Comic Sans MS" font-weight="bold" font-size="76.0" fill="#000000" transform="matrix(1.00, 0.00, -0.00, -1.00, 784.8, 23.9)">l</text><text xml:space="preserve" font-family="ComicSansMS-Bold,Comic Sans MS" font-weight="bold" font-size="76.0" fill="#000000" transform="matrix(1.00, 0.00, -0.00, -1.00, 812.7, 23.9)">o</text><text xml:space="preserve" font-family="ComicSansMS-Bold,Comic Sans MS" font-weight="bold" font-size="76.0" fill="#000000" transform="matrix(1.00, 0.00, -0.00, -1.00, 859.8, 23.9)">r</text><text xml:space="preserve" font-family="ComicSansMS-Bold,Comic Sans MS" font-weight="bold" font-size="76.0" fill="#000000" transform="matrix(1.00, 0.00, -0.00, -1.00, 903.5, 23.9)">.</text></g></svg>