<?xml version="1.0" encoding="UTF-8" standalone="no"?><svg xmlns="http://www.w3.org/2000/svg" xmlns:xlink="http://www.w3.org/1999/xlink" clip-rule="evenodd" stroke-miterlimit="10" viewBox="0 0 156 45"><desc>SVG generated by Keynote</desc><defs></defs><g transform="matrix(1.00, 0.00, -0.00, -1.00, 0.0, 45.0)"><path d="M 2.5 42.5 L 153.5 42.5 L 153.5 2.5 L 2.5 2.5 Z M 2.4 42.8 " fill="#FFFFFF"></path><path d="M 0.1 0.3 L 151.1 0.3 L 151.1 40.3 L 0.1 40.3 Z M 0.0 0.0 " fill="none" stroke="#FFFFFF" stroke-width="1.00" stroke-linejoin="bevel" transform="matrix(1.00, 0.00, 0.00, -1.00, 2.4, 42.8)"></path><g><clipPath id="clip0x7f875a045af0"><path d="M 2.9 2.7 L 153.1 2.7 L 153.1 42.3 L 2.9 42.3 Z M 2.9 2.7 "></path></clipPath><g clip-path="url(#clip0x7f875a045af0)"><text xml:space="preserve" font-family="Arial-BoldMT,Arial" font-weight="bold" font-size="20.0" fill="#000000" transform="matrix(1.00, 0.00, -0.00, -1.00, 41.9, 15.5)">1</text><text xml:space="preserve" font-family="Arial-BoldMT,Arial" font-weight="bold" font-size="20.0" fill="#000000" transform="matrix(1.00, 0.00, -0.00, -1.00, 53.0, 15.5)">0</text><text xml:space="preserve" font-family="Arial-BoldMT,Arial" font-weight="bold" font-size="20.0" fill="#000000" transform="matrix(1.00, 0.00, -0.00, -1.00, 64.1, 15.5)">0</text><text xml:space="preserve" font-family="ArialMT,Arial" font-size="20.0" fill="#000000" transform="matrix(1.00, 0.00, -0.00, -1.00, 75.2, 15.5)">,</text><text xml:space="preserve" font-family="ArialMT,Arial" font-size="20.0" fill="#000000" transform="matrix(1.00, 0.00, -0.00, -1.00, 80.8, 15.5)">0</text><text xml:space="preserve" font-family="ArialMT,Arial" font-size="20.0" fill="#000000" transform="matrix(1.00, 0.00, -0.00, -1.00, 91.9, 15.5)">0</text><text xml:space="preserve" font-family="ArialMT,Arial" font-size="20.0" fill="#000000" transform="matrix(1.00, 0.00, -0.00, -1.00, 103.0, 15.5)">0</text></g></g></g></svg>