<?xml version="1.0" encoding="UTF-8" standalone="no"?><svg xmlns="http://www.w3.org/2000/svg" xmlns:xlink="http://www.w3.org/1999/xlink" clip-rule="evenodd" stroke-miterlimit="10" viewBox="0 0 1920 1080"><desc>SVG generated by Keynote</desc><defs></defs><g transform="matrix(1.00, 0.00, -0.00, -1.00, 0.0, 1080.0)"><path d="M 0.0 1080.0 L 1920.0 1080.0 L 1920.0 0.0 L 0.0 0.0 Z M 0.0 1080.0 " fill="#FFFFFF"></path><text xml:space="preserve" font-family="ComicSansMS-Bold,Comic Sans MS" font-weight="bold" font-size="96.0" fill="#000000" transform="matrix(1.00, 0.00, -0.00, -1.00, 470.0, 795.3)">1</text><text xml:space="preserve" font-family="ComicSansMS-Bold,Comic Sans MS" font-weight="bold" font-size="96.0" fill="#000000" transform="matrix(1.00, 0.00, -0.00, -1.00, 535.8, 795.3)">0</text><text xml:space="preserve" font-family="ComicSansMS-Bold,Comic Sans MS" font-weight="bold" font-size="96.0" fill="#000000" transform="matrix(1.00, 0.00, -0.00, -1.00, 601.6, 795.3)">0</text><text xml:space="preserve" font-family="ComicSansMS-Bold,Comic Sans MS" font-weight="bold" font-size="96.0" fill="#000000" transform="matrix(1.00, 0.00, -0.00, -1.00, 667.5, 795.3)"> </text><text xml:space="preserve" font-family="ComicSansMS-Bold,Comic Sans MS" font-weight="bold" font-size="96.0" fill="#000000" transform="matrix(1.00, 0.00, -0.00, -1.00, 716.2, 795.3)"> </text><text xml:space="preserve" font-family="ComicSansMS-Bold,Comic Sans MS" font-weight="bold" font-size="96.0" fill="#000000" transform="matrix(1.00, 0.00, -0.00, -1.00, 765.0, 795.3)"> </text><text xml:space="preserve" font-family="ComicSansMS-Bold,Comic Sans MS" font-weight="bold" font-size="96.0" fill="#000000" transform="matrix(1.00, 0.00, -0.00, -1.00, 813.8, 795.3)"> </text><text xml:space="preserve" font-family="ComicSansMS-Bold,Comic Sans MS" font-weight="bold" font-size="96.0" fill="#000000" transform="matrix(1.00, 0.00, -0.00, -1.00, 862.5, 795.3)"> </text><text xml:space="preserve" font-family="ComicSansMS-Bold,Comic Sans MS" font-weight="bold" font-size="96.0" fill="#000000" transform="matrix(1.00, 0.00, -0.00, -1.00, 911.3, 795.3)"> </text><text xml:space="preserve" font-family="ComicSansMS-Bold,Comic Sans MS" font-weight="bold" font-size="96.0" fill="#000000" transform="matrix(1.00, 0.00, -0.00, -1.00, 960.1, 795.3)">1</text><text xml:space="preserve" font-family="ComicSansMS-Bold,Comic Sans MS" font-weight="bold" font-size="96.0" fill="#000000" transform="matrix(1.00, 0.00, -0.00, -1.00, 1025.9, 795.3)">0</text><text xml:space="preserve" font-family="ComicSansMS-Bold,Comic Sans MS" font-weight="bold" font-size="96.0" fill="#000000" transform="matrix(1.00, 0.00, -0.00, -1.00, 1091.7, 795.3)"> </text><text xml:space="preserve" font-family="ComicSansMS-Bold,Comic Sans MS" font-weight="bold" font-size="96.0" fill="#000000" transform="matrix(1.00, 0.00, -0.00, -1.00, 1140.5, 795.3)"> </text><text xml:space="preserve" font-family="ComicSansMS-Bold,Comic Sans MS" font-weight="bold" font-size="96.0" fill="#000000" transform="matrix(1.00, 0.00, -0.00, -1.00, 1189.3, 795.3)"> </text><text xml:space="preserve" font-family="ComicSansMS-Bold,Comic Sans MS" font-weight="bold" font-size="96.0" fill="#000000" transform="matrix(1.00, 0.00, -0.00, -1.00, 1238.0, 795.3)"> </text><text xml:space="preserve" font-family="ComicSansMS-Bold,Comic Sans MS" font-weight="bold" font-size="96.0" fill="#000000" transform="matrix(1.00, 0.00, -0.00, -1.00, 1286.8, 795.3)"> </text><text xml:space="preserve" font-family="ComicSansMS-Bold,Comic Sans MS" font-weight="bold" font-size="96.0" fill="#000000" transform="matrix(1.00, 0.00, -0.00, -1.00, 1335.6, 795.3)"> </text><text xml:space="preserve" font-family="ComicSansMS-Bold,Comic Sans MS" font-weight="bold" font-size="96.0" fill="#000000" transform="matrix(1.00, 0.00, -0.00, -1.00, 1384.3, 795.3)">1</text><text xml:space="preserve" font-family="ComicSansMS-Bold,Comic Sans MS" font-weight="bold" font-size="96.0" fill="#000000" transform="matrix(1.00, 0.00, -0.00, -1.00, 1450.2, 795.3)"> </text><path d="M 326.5 678.5 L 722.5 678.5 L 722.5 543.5 L 326.5 543.5 Z M 326.4 678.6 " fill="#B18ECA"></path><path d="M 0.1 0.1 L 396.1 0.1 L 396.1 135.1 L 0.1 135.1 Z M 0.0 0.0 " fill="none" stroke="#000000" stroke-width="5.00" stroke-linejoin="bevel" transform="matrix(1.00, 0.00, 0.00, -1.00, 326.4, 678.6)"></path><path d="M 1510.5 435.5 L 1618.5 435.5 L 1618.5 433.5 L 1510.5 433.5 Z M 1510.8 435.6 " fill="#FFAA00"></path><path d="M -0.3 0.1 L 107.7 0.1 L 107.7 2.1 L -0.3 2.1 Z M 0.0 0.0 " fill="none" stroke="#000000" stroke-width="5.00" stroke-linejoin="bevel" transform="matrix(1.00, 0.00, 0.00, -1.00, 1510.8, 435.6)"></path><path d="M 724.5 508.5 L 765.5 508.5 L 765.5 418.5 L 724.5 418.5 Z M 724.2 508.8 " fill="#FFFFFF"></path><path d="M 0.3 0.3 L 41.3 0.3 L 41.3 90.3 L 0.3 90.3 Z M 0.0 0.0 " fill="none" stroke="#FFFFFF" stroke-width="1.00" stroke-linejoin="bevel" transform="matrix(1.00, 0.00, 0.00, -1.00, 724.2, 508.8)"></path><g><clipPath id="clip0x7f8760009710"><path d="M 715.5 407.8 L 774.3 407.8 L 774.3 517.5 L 715.5 517.5 Z M 715.5 407.8 "></path></clipPath><g clip-path="url(#clip0x7f8760009710)"><text xml:space="preserve" font-family="Arial-BoldMT,Arial" font-weight="bold" font-size="64.0" fill="#000000" transform="matrix(1.00, 0.00, -0.00, -1.00, 733.3, 441.3)">,</text></g></g><path d="M 1370.5 435.5 L 1478.5 435.5 L 1478.5 433.5 L 1370.5 433.5 Z M 1370.4 435.6 " fill="#FFAA00"></path><path d="M 0.1 0.1 L 108.1 0.1 L 108.1 2.1 L 0.1 2.1 Z M 0.0 0.0 " fill="none" stroke="#000000" stroke-width="5.00" stroke-linejoin="bevel" transform="matrix(1.00, 0.00, 0.00, -1.00, 1370.4, 435.6)"></path><path d="M 1165.5 508.5 L 1246.5 508.5 L 1246.5 418.5 L 1165.5 418.5 Z M 1165.2 508.8 " fill="#FFFFFF"></path><path d="M 0.3 0.3 L 81.3 0.3 L 81.3 90.3 L 0.3 90.3 Z M 0.0 0.0 " fill="none" stroke="#FFFFFF" stroke-width="1.00" stroke-linejoin="bevel" transform="matrix(1.00, 0.00, 0.00, -1.00, 1165.2, 508.8)"></path><g><clipPath id="clip0x7f876000cb40"><path d="M 1156.5 407.8 L 1254.9 407.8 L 1254.9 517.5 L 1156.5 517.5 Z M 1156.5 407.8 "></path></clipPath><g clip-path="url(#clip0x7f876000cb40)"><text xml:space="preserve" font-family="Arial-BoldMT,Arial" font-weight="bold" font-size="64.0" fill="#000000" transform="matrix(1.00, 0.00, -0.00, -1.00, 1196.8, 441.3)">,</text></g></g><path d="M 1545.5 487.5 L 1584.5 487.5 L 1584.5 447.5 L 1545.5 447.5 Z M 1545.0 487.8 " fill="#FFFFFF"></path><path d="M 0.5 0.3 L 39.5 0.3 L 39.5 40.3 L 0.5 40.3 Z M 0.0 0.0 " fill="none" stroke="#FFFFFF" stroke-width="1.00" stroke-linejoin="bevel" transform="matrix(1.00, 0.00, 0.00, -1.00, 1545.0, 487.8)"></path><g><clipPath id="clip0x7f876000ed80"><path d="M 1545.5 447.7 L 1584.1 447.7 L 1584.1 487.3 L 1545.5 487.3 Z M 1545.5 447.7 "></path></clipPath><g clip-path="url(#clip0x7f876000ed80)"><text xml:space="preserve" font-family="Arial-BoldMT,Arial" font-weight="bold" font-size="20.0" fill="#000000" transform="matrix(1.00, 0.00, -0.00, -1.00, 1559.2, 460.5)">1</text></g></g><path d="M 1386.5 487.5 L 1471.5 487.5 L 1471.5 447.5 L 1386.5 447.5 Z M 1386.6 487.8 " fill="#FFFFFF"></path><path d="M -0.1 0.3 L 84.9 0.3 L 84.9 40.3 L -0.1 40.3 Z M 0.0 0.0 " fill="none" stroke="#FFFFFF" stroke-width="1.00" stroke-linejoin="bevel" transform="matrix(1.00, 0.00, 0.00, -1.00, 1386.6, 487.8)"></path><g><clipPath id="clip0x7f8760011020"><path d="M 1387.1 447.7 L 1470.7 447.7 L 1470.7 487.3 L 1387.1 487.3 Z M 1387.1 447.7 "></path></clipPath><g clip-path="url(#clip0x7f8760011020)"><text xml:space="preserve" font-family="Arial-BoldMT,Arial" font-weight="bold" font-size="20.0" fill="#000000" transform="matrix(1.00, 0.00, -0.00, -1.00, 1417.8, 460.5)">1</text><text xml:space="preserve" font-family="Arial-BoldMT,Arial" font-weight="bold" font-size="20.0" fill="#000000" transform="matrix(1.00, 0.00, -0.00, -1.00, 1428.9, 460.5)">0</text></g></g><path d="M 1240.5 487.5 L 1330.5 487.5 L 1330.5 447.5 L 1240.5 447.5 Z M 1240.8 487.8 " fill="#FFFFFF"></path><path d="M -0.3 0.3 L 89.7 0.3 L 89.7 40.3 L -0.3 40.3 Z M 0.0 0.0 " fill="none" stroke="#FFFFFF" stroke-width="1.00" stroke-linejoin="bevel" transform="matrix(1.00, 0.00, 0.00, -1.00, 1240.8, 487.8)"></path><g><clipPath id="clip0x7f87600139b0"><path d="M 1241.3 447.7 L 1330.3 447.7 L 1330.3 487.3 L 1241.3 487.3 Z M 1241.3 447.7 "></path></clipPath><g clip-path="url(#clip0x7f87600139b0)"><text xml:space="preserve" font-family="Arial-BoldMT,Arial" font-weight="bold" font-size="20.0" fill="#000000" transform="matrix(1.00, 0.00, -0.00, -1.00, 1269.1, 460.5)">1</text><text xml:space="preserve" font-family="Arial-BoldMT,Arial" font-weight="bold" font-size="20.0" fill="#000000" transform="matrix(1.00, 0.00, -0.00, -1.00, 1280.2, 460.5)">0</text><text xml:space="preserve" font-family="Arial-BoldMT,Arial" font-weight="bold" font-size="20.0" fill="#000000" transform="matrix(1.00, 0.00, -0.00, -1.00, 1291.4, 460.5)">0</text></g></g><path d="M 1224.5 678.5 L 1620.5 678.5 L 1620.5 543.5 L 1224.5 543.5 Z M 1224.6 678.6 " fill="#FF99CC" fill-opacity="0.38"></path><path d="M -0.1 0.1 L 395.9 0.1 L 395.9 135.1 L -0.1 135.1 Z M 0.0 0.0 " fill="none" stroke="#000000" stroke-width="3.00" stroke-linejoin="bevel" transform="matrix(1.00, 0.00, 0.00, -1.00, 1224.6, 678.6)"></path><text xml:space="preserve" font-family="ComicSansMS-Bold,Comic Sans MS" font-weight="bold" font-size="56.0" fill="#000000" transform="matrix(1.00, 0.00, -0.00, -1.00, 1311.4, 575.7)">u</text><text xml:space="preserve" font-family="ComicSansMS-Bold,Comic Sans MS" font-weight="bold" font-size="56.0" fill="#000000" transform="matrix(1.00, 0.00, -0.00, -1.00, 1340.5, 575.7)">n</text><text xml:space="preserve" font-family="ComicSansMS-Bold,Comic Sans MS" font-weight="bold" font-size="56.0" fill="#000000" transform="matrix(1.00, 0.00, -0.00, -1.00, 1369.9, 575.7)">i</text><text xml:space="preserve" font-family="ComicSansMS-Bold,Comic Sans MS" font-weight="bold" font-size="56.0" fill="#000000" transform="matrix(1.00, 0.00, -0.00, -1.00, 1385.6, 575.7)">d</text><text xml:space="preserve" font-family="ComicSansMS-Bold,Comic Sans MS" font-weight="bold" font-size="56.0" fill="#000000" transform="matrix(1.00, 0.00, -0.00, -1.00, 1418.5, 575.7)">a</text><text xml:space="preserve" font-family="ComicSansMS-Bold,Comic Sans MS" font-weight="bold" font-size="56.0" fill="#000000" transform="matrix(1.00, 0.00, -0.00, -1.00, 1449.6, 575.7)">d</text><text xml:space="preserve" font-family="ComicSansMS-Bold,Comic Sans MS" font-weight="bold" font-size="56.0" fill="#000000" transform="matrix(1.00, 0.00, -0.00, -1.00, 1482.5, 575.7)">e</text><text xml:space="preserve" font-family="ComicSansMS-Bold,Comic Sans MS" font-weight="bold" font-size="56.0" fill="#000000" transform="matrix(1.00, 0.00, -0.00, -1.00, 1513.8, 575.7)">s</text><path d="M 1062.5 437.5 L 1170.5 437.5 L 1170.5 435.5 L 1062.5 435.5 Z M 1062.6 437.4 " fill="#FFAA00"></path><path d="M -0.1 -0.1 L 107.9 -0.1 L 107.9 1.9 L -0.1 1.9 Z M 0.0 0.0 " fill="none" stroke="#000000" stroke-width="5.00" stroke-linejoin="bevel" transform="matrix(1.00, 0.00, 0.00, -1.00, 1062.6, 437.4)"></path><path d="M 781.5 437.5 L 889.5 437.5 L 889.5 435.5 L 781.5 435.5 Z M 781.8 437.4 " fill="#FFAA00"></path><path d="M -0.3 -0.1 L 107.7 -0.1 L 107.7 1.9 L -0.3 1.9 Z M 0.0 0.0 " fill="none" stroke="#000000" stroke-width="5.00" stroke-linejoin="bevel" transform="matrix(1.00, 0.00, 0.00, -1.00, 781.8, 437.4)"></path><path d="M 922.5 437.5 L 1030.5 437.5 L 1030.5 435.5 L 922.5 435.5 Z M 922.2 437.4 " fill="#FFAA00"></path><path d="M 0.3 -0.1 L 108.3 -0.1 L 108.3 1.9 L 0.3 1.9 Z M 0.0 0.0 " fill="none" stroke="#000000" stroke-width="5.00" stroke-linejoin="bevel" transform="matrix(1.00, 0.00, 0.00, -1.00, 922.2, 437.4)"></path><path d="M 1065.5 487.5 L 1171.5 487.5 L 1171.5 447.5 L 1065.5 447.5 Z M 1065.0 487.8 " fill="#FFFFFF"></path><path d="M 0.5 0.3 L 106.5 0.3 L 106.5 40.3 L 0.5 40.3 Z M 0.0 0.0 " fill="none" stroke="#FFFFFF" stroke-width="1.00" stroke-linejoin="bevel" transform="matrix(1.00, 0.00, 0.00, -1.00, 1065.0, 487.8)"></path><g><clipPath id="clip0x7f876001dd20"><path d="M 1065.5 447.7 L 1170.7 447.7 L 1170.7 487.3 L 1065.5 487.3 Z M 1065.5 447.7 "></path></clipPath><g clip-path="url(#clip0x7f876001dd20)"><text xml:space="preserve" font-family="Arial-BoldMT,Arial" font-weight="bold" font-size="20.0" fill="#000000" transform="matrix(1.00, 0.00, -0.00, -1.00, 1093.1, 460.5)">1</text><text xml:space="preserve" font-family="ArialMT,Arial" font-size="20.0" fill="#000000" transform="matrix(1.00, 0.00, -0.00, -1.00, 1104.2, 460.5)">,</text><text xml:space="preserve" font-family="ArialMT,Arial" font-size="20.0" fill="#000000" transform="matrix(1.00, 0.00, -0.00, -1.00, 1109.8, 460.5)">0</text><text xml:space="preserve" font-family="ArialMT,Arial" font-size="20.0" fill="#000000" transform="matrix(1.00, 0.00, -0.00, -1.00, 1120.9, 460.5)">0</text><text xml:space="preserve" font-family="ArialMT,Arial" font-size="20.0" fill="#000000" transform="matrix(1.00, 0.00, -0.00, -1.00, 1132.0, 460.5)">0</text></g></g><path d="M 909.5 487.5 L 1046.5 487.5 L 1046.5 447.5 L 909.5 447.5 Z M 909.6 487.8 " fill="#FFFFFF"></path><path d="M -0.1 0.3 L 136.9 0.3 L 136.9 40.3 L -0.1 40.3 Z M 0.0 0.0 " fill="none" stroke="#FFFFFF" stroke-width="1.00" stroke-linejoin="bevel" transform="matrix(1.00, 0.00, 0.00, -1.00, 909.6, 487.8)"></path><g><clipPath id="clip0x7f8760022060"><path d="M 910.1 447.7 L 1045.9 447.7 L 1045.9 487.3 L 910.1 487.3 Z M 910.1 447.7 "></path></clipPath><g clip-path="url(#clip0x7f8760022060)"><text xml:space="preserve" font-family="Arial-BoldMT,Arial" font-weight="bold" font-size="20.0" fill="#000000" transform="matrix(1.00, 0.00, -0.00, -1.00, 947.4, 460.5)">1</text><text xml:space="preserve" font-family="Arial-BoldMT,Arial" font-weight="bold" font-size="20.0" fill="#000000" transform="matrix(1.00, 0.00, -0.00, -1.00, 958.5, 460.5)">0</text><text xml:space="preserve" font-family="ArialMT,Arial" font-size="20.0" fill="#000000" transform="matrix(1.00, 0.00, -0.00, -1.00, 969.7, 460.5)">,</text><text xml:space="preserve" font-family="ArialMT,Arial" font-size="20.0" fill="#000000" transform="matrix(1.00, 0.00, -0.00, -1.00, 975.2, 460.5)">0</text><text xml:space="preserve" font-family="ArialMT,Arial" font-size="20.0" fill="#000000" transform="matrix(1.00, 0.00, -0.00, -1.00, 986.3, 460.5)">0</text><text xml:space="preserve" font-family="ArialMT,Arial" font-size="20.0" fill="#000000" transform="matrix(1.00, 0.00, -0.00, -1.00, 997.5, 460.5)">0</text></g></g><path d="M 758.5 487.5 L 909.5 487.5 L 909.5 447.5 L 758.5 447.5 Z M 758.4 487.8 " fill="#FFFFFF"></path><path d="M 0.1 0.3 L 151.1 0.3 L 151.1 40.3 L 0.1 40.3 Z M 0.0 0.0 " fill="none" stroke="#FFFFFF" stroke-width="1.00" stroke-linejoin="bevel" transform="matrix(1.00, 0.00, 0.00, -1.00, 758.4, 487.8)"></path><g><clipPath id="clip0x7f87600266e0"><path d="M 758.9 447.7 L 909.1 447.7 L 909.1 487.3 L 758.9 487.3 Z M 758.9 447.7 "></path></clipPath><g clip-path="url(#clip0x7f87600266e0)"><text xml:space="preserve" font-family="Arial-BoldMT,Arial" font-weight="bold" font-size="20.0" fill="#000000" transform="matrix(1.00, 0.00, -0.00, -1.00, 797.9, 460.5)">1</text><text xml:space="preserve" font-family="Arial-BoldMT,Arial" font-weight="bold" font-size="20.0" fill="#000000" transform="matrix(1.00, 0.00, -0.00, -1.00, 809.0, 460.5)">0</text><text xml:space="preserve" font-family="Arial-BoldMT,Arial" font-weight="bold" font-size="20.0" fill="#000000" transform="matrix(1.00, 0.00, -0.00, -1.00, 820.1, 460.5)">0</text><text xml:space="preserve" font-family="ArialMT,Arial" font-size="20.0" fill="#000000" transform="matrix(1.00, 0.00, -0.00, -1.00, 831.2, 460.5)">,</text><text xml:space="preserve" font-family="ArialMT,Arial" font-size="20.0" fill="#000000" transform="matrix(1.00, 0.00, -0.00, -1.00, 836.8, 460.5)">0</text><text xml:space="preserve" font-family="ArialMT,Arial" font-size="20.0" fill="#000000" transform="matrix(1.00, 0.00, -0.00, -1.00, 847.9, 460.5)">0</text><text xml:space="preserve" font-family="ArialMT,Arial" font-size="20.0" fill="#000000" transform="matrix(1.00, 0.00, -0.00, -1.00, 859.0, 460.5)">0</text></g></g><path d="M 776.5 676.5 L 1172.5 676.5 L 1172.5 541.5 L 776.5 541.5 Z M 776.4 676.8 " fill="#993366" fill-opacity="0.48"></path><path d="M 0.1 0.3 L 396.1 0.3 L 396.1 135.3 L 0.1 135.3 Z M 0.0 0.0 " fill="none" stroke="#000000" stroke-width="3.00" stroke-linejoin="bevel" transform="matrix(1.00, 0.00, 0.00, -1.00, 776.4, 676.8)"></path><text xml:space="preserve" font-family="ComicSansMS-Bold,Comic Sans MS" font-weight="bold" font-size="56.0" fill="#000000" transform="matrix(1.00, 0.00, -0.00, -1.00, 906.0, 575.7)">m</text><text xml:space="preserve" font-family="ComicSansMS-Bold,Comic Sans MS" font-weight="bold" font-size="56.0" fill="#000000" transform="matrix(1.00, 0.00, -0.00, -1.00, 949.5, 575.7)">i</text><text xml:space="preserve" font-family="ComicSansMS-Bold,Comic Sans MS" font-weight="bold" font-size="56.0" fill="#000000" transform="matrix(1.00, 0.00, -0.00, -1.00, 965.2, 575.7)">l</text><text xml:space="preserve" font-family="ComicSansMS-Bold,Comic Sans MS" font-weight="bold" font-size="56.0" fill="#000000" transform="matrix(1.00, 0.00, -0.00, -1.00, 980.6, 575.7)">e</text><text xml:space="preserve" font-family="ComicSansMS-Bold,Comic Sans MS" font-weight="bold" font-size="56.0" fill="#000000" transform="matrix(1.00, 0.00, -0.00, -1.00, 1011.9, 575.7)">s</text><path d="M 601.5 437.5 L 709.5 437.5 L 709.5 435.5 L 601.5 435.5 Z M 601.8 437.4 " fill="#FFAA00"></path><path d="M -0.3 -0.1 L 107.7 -0.1 L 107.7 1.9 L -0.3 1.9 Z M 0.0 0.0 " fill="none" stroke="#000000" stroke-width="5.00" stroke-linejoin="bevel" transform="matrix(1.00, 0.00, 0.00, -1.00, 601.8, 437.4)"></path><path d="M 328.5 437.5 L 436.5 437.5 L 436.5 435.5 L 328.5 435.5 Z M 328.2 437.4 " fill="#FFAA00"></path><path d="M 0.3 -0.1 L 108.3 -0.1 L 108.3 1.9 L 0.3 1.9 Z M 0.0 0.0 " fill="none" stroke="#000000" stroke-width="5.00" stroke-linejoin="bevel" transform="matrix(1.00, 0.00, 0.00, -1.00, 328.2, 437.4)"></path><path d="M 463.5 437.5 L 571.5 437.5 L 571.5 435.5 L 463.5 435.5 Z M 463.2 437.4 " fill="#FFAA00"></path><path d="M 0.3 -0.1 L 108.3 -0.1 L 108.3 1.9 L 0.3 1.9 Z M 0.0 0.0 " fill="none" stroke="#000000" stroke-width="5.00" stroke-linejoin="bevel" transform="matrix(1.00, 0.00, 0.00, -1.00, 463.2, 437.4)"></path><path d="M 589.5 487.5 L 729.5 487.5 L 729.5 447.5 L 589.5 447.5 Z M 589.2 487.8 " fill="#FFFFFF"></path><path d="M 0.3 0.3 L 140.3 0.3 L 140.3 40.3 L 0.3 40.3 Z M 0.0 0.0 " fill="none" stroke="#FFFFFF" stroke-width="1.00" stroke-linejoin="bevel" transform="matrix(1.00, 0.00, 0.00, -1.00, 589.2, 487.8)"></path><g><clipPath id="clip0x7f87600311f0"><path d="M 589.7 447.7 L 729.1 447.7 L 729.1 487.3 L 589.7 487.3 Z M 589.7 447.7 "></path></clipPath><g clip-path="url(#clip0x7f87600311f0)"><text xml:space="preserve" font-family="Arial-BoldMT,Arial" font-weight="bold" font-size="20.0" fill="#000000" transform="matrix(1.00, 0.00, -0.00, -1.00, 614.9, 460.5)">1</text><text xml:space="preserve" font-family="ArialMT,Arial" font-size="20.0" fill="#000000" transform="matrix(1.00, 0.00, -0.00, -1.00, 626.0, 460.5)">,</text><text xml:space="preserve" font-family="ArialMT,Arial" font-size="20.0" fill="#000000" transform="matrix(1.00, 0.00, -0.00, -1.00, 631.6, 460.5)">0</text><text xml:space="preserve" font-family="ArialMT,Arial" font-size="20.0" fill="#000000" transform="matrix(1.00, 0.00, -0.00, -1.00, 642.7, 460.5)">0</text><text xml:space="preserve" font-family="ArialMT,Arial" font-size="20.0" fill="#000000" transform="matrix(1.00, 0.00, -0.00, -1.00, 653.8, 460.5)">0</text><text xml:space="preserve" font-family="ArialMT,Arial" font-size="20.0" fill="#000000" transform="matrix(1.00, 0.00, -0.00, -1.00, 664.9, 460.5)">,</text><text xml:space="preserve" font-family="ArialMT,Arial" font-size="20.0" fill="#000000" transform="matrix(1.00, 0.00, -0.00, -1.00, 670.5, 460.5)">0</text><text xml:space="preserve" font-family="ArialMT,Arial" font-size="20.0" fill="#000000" transform="matrix(1.00, 0.00, -0.00, -1.00, 681.6, 460.5)">0</text><text xml:space="preserve" font-family="ArialMT,Arial" font-size="20.0" fill="#000000" transform="matrix(1.00, 0.00, -0.00, -1.00, 692.7, 460.5)">0</text></g></g><path d="M 446.5 487.5 L 588.5 487.5 L 588.5 447.5 L 446.5 447.5 Z M 446.4 487.8 " fill="#FFFFFF"></path><path d="M 0.1 0.3 L 142.1 0.3 L 142.1 40.3 L 0.1 40.3 Z M 0.0 0.0 " fill="none" stroke="#FFFFFF" stroke-width="1.00" stroke-linejoin="bevel" transform="matrix(1.00, 0.00, 0.00, -1.00, 446.4, 487.8)"></path><g><clipPath id="clip0x7f8760036b10"><path d="M 446.9 447.7 L 588.1 447.7 L 588.1 487.3 L 446.9 487.3 Z M 446.9 447.7 "></path></clipPath><g clip-path="url(#clip0x7f8760036b10)"><text xml:space="preserve" font-family="Arial-BoldMT,Arial" font-weight="bold" font-size="20.0" fill="#000000" transform="matrix(1.00, 0.00, -0.00, -1.00, 467.5, 460.5)">1</text><text xml:space="preserve" font-family="Arial-BoldMT,Arial" font-weight="bold" font-size="20.0" fill="#000000" transform="matrix(1.00, 0.00, -0.00, -1.00, 478.6, 460.5)">0</text><text xml:space="preserve" font-family="ArialMT,Arial" font-size="20.0" fill="#000000" transform="matrix(1.00, 0.00, -0.00, -1.00, 489.7, 460.5)">,</text><text xml:space="preserve" font-family="ArialMT,Arial" font-size="20.0" fill="#000000" transform="matrix(1.00, 0.00, -0.00, -1.00, 495.2, 460.5)">0</text><text xml:space="preserve" font-family="ArialMT,Arial" font-size="20.0" fill="#000000" transform="matrix(1.00, 0.00, -0.00, -1.00, 506.4, 460.5)">0</text><text xml:space="preserve" font-family="ArialMT,Arial" font-size="20.0" fill="#000000" transform="matrix(1.00, 0.00, -0.00, -1.00, 517.5, 460.5)">0</text><text xml:space="preserve" font-family="ArialMT,Arial" font-size="20.0" fill="#000000" transform="matrix(1.00, 0.00, -0.00, -1.00, 528.6, 460.5)">,</text><text xml:space="preserve" font-family="ArialMT,Arial" font-size="20.0" fill="#000000" transform="matrix(1.00, 0.00, -0.00, -1.00, 534.2, 460.5)">0</text><text xml:space="preserve" font-family="ArialMT,Arial" font-size="20.0" fill="#000000" transform="matrix(1.00, 0.00, -0.00, -1.00, 545.3, 460.5)">0</text><text xml:space="preserve" font-family="ArialMT,Arial" font-size="20.0" fill="#000000" transform="matrix(1.00, 0.00, -0.00, -1.00, 556.4, 460.5)">0</text></g></g><path d="M 296.5 487.5 L 465.5 487.5 L 465.5 447.5 L 296.5 447.5 Z M 296.4 487.8 " fill="#FFFFFF"></path><path d="M 0.1 0.3 L 169.1 0.3 L 169.1 40.3 L 0.1 40.3 Z M 0.0 0.0 " fill="none" stroke="#FFFFFF" stroke-width="1.00" stroke-linejoin="bevel" transform="matrix(1.00, 0.00, 0.00, -1.00, 296.4, 487.8)"></path><g><clipPath id="clip0x7f87609f8ab0"><path d="M 296.9 447.7 L 465.1 447.7 L 465.1 487.3 L 296.9 487.3 Z M 296.9 447.7 "></path></clipPath><g clip-path="url(#clip0x7f87609f8ab0)"><text xml:space="preserve" font-family="Arial-BoldMT,Arial" font-weight="bold" font-size="20.0" fill="#000000" transform="matrix(1.00, 0.00, -0.00, -1.00, 325.4, 460.5)">1</text><text xml:space="preserve" font-family="Arial-BoldMT,Arial" font-weight="bold" font-size="20.0" fill="#000000" transform="matrix(1.00, 0.00, -0.00, -1.00, 336.5, 460.5)">0</text><text xml:space="preserve" font-family="Arial-BoldMT,Arial" font-weight="bold" font-size="20.0" fill="#000000" transform="matrix(1.00, 0.00, -0.00, -1.00, 347.6, 460.5)">0</text><text xml:space="preserve" font-family="ArialMT,Arial" font-size="20.0" fill="#000000" transform="matrix(1.00, 0.00, -0.00, -1.00, 358.8, 460.5)">,</text><text xml:space="preserve" font-family="ArialMT,Arial" font-size="20.0" fill="#000000" transform="matrix(1.00, 0.00, -0.00, -1.00, 364.3, 460.5)">0</text><text xml:space="preserve" font-family="ArialMT,Arial" font-size="20.0" fill="#000000" transform="matrix(1.00, 0.00, -0.00, -1.00, 375.4, 460.5)">0</text><text xml:space="preserve" font-family="ArialMT,Arial" font-size="20.0" fill="#000000" transform="matrix(1.00, 0.00, -0.00, -1.00, 386.5, 460.5)">0</text><text xml:space="preserve" font-family="ArialMT,Arial" font-size="20.0" fill="#000000" transform="matrix(1.00, 0.00, -0.00, -1.00, 397.7, 460.5)">,</text><text xml:space="preserve" font-family="ArialMT,Arial" font-size="20.0" fill="#000000" transform="matrix(1.00, 0.00, -0.00, -1.00, 403.2, 460.5)">0</text><text xml:space="preserve" font-family="ArialMT,Arial" font-size="20.0" fill="#000000" transform="matrix(1.00, 0.00, -0.00, -1.00, 414.3, 460.5)">0</text><text xml:space="preserve" font-family="ArialMT,Arial" font-size="20.0" fill="#000000" transform="matrix(1.00, 0.00, -0.00, -1.00, 425.5, 460.5)">0</text></g></g><text xml:space="preserve" font-family="ComicSansMS-Bold,Comic Sans MS" font-weight="bold" font-size="56.0" fill="#000000" transform="matrix(1.00, 0.00, -0.00, -1.00, 409.3, 575.7)">m</text><text xml:space="preserve" font-family="ComicSansMS-Bold,Comic Sans MS" font-weight="bold" font-size="56.0" fill="#000000" transform="matrix(1.00, 0.00, -0.00, -1.00, 452.8, 575.7)">i</text><text xml:space="preserve" font-family="ComicSansMS-Bold,Comic Sans MS" font-weight="bold" font-size="56.0" fill="#000000" transform="matrix(1.00, 0.00, -0.00, -1.00, 468.5, 575.7)">l</text><text xml:space="preserve" font-family="ComicSansMS-Bold,Comic Sans MS" font-weight="bold" font-size="56.0" fill="#000000" transform="matrix(1.00, 0.00, -0.00, -1.00, 483.9, 575.7)">l</text><text xml:space="preserve" font-family="ComicSansMS-Bold,Comic Sans MS" font-weight="bold" font-size="56.0" fill="#000000" transform="matrix(1.00, 0.00, -0.00, -1.00, 499.2, 575.7)">i</text><text xml:space="preserve" font-family="ComicSansMS-Bold,Comic Sans MS" font-weight="bold" font-size="56.0" fill="#000000" transform="matrix(1.00, 0.00, -0.00, -1.00, 514.9, 575.7)">o</text><text xml:space="preserve" font-family="ComicSansMS-Bold,Comic Sans MS" font-weight="bold" font-size="56.0" fill="#000000" transform="matrix(1.00, 0.00, -0.00, -1.00, 544.3, 575.7)">n</text><text xml:space="preserve" font-family="ComicSansMS-Bold,Comic Sans MS" font-weight="bold" font-size="56.0" fill="#000000" transform="matrix(1.00, 0.00, -0.00, -1.00, 573.7, 575.7)">e</text><text xml:space="preserve" font-family="ComicSansMS-Bold,Comic Sans MS" font-weight="bold" font-size="56.0" fill="#000000" transform="matrix(1.00, 0.00, -0.00, -1.00, 605.0, 575.7)">s</text><path d="M 1231.5 435.5 L 1339.5 435.5 L 1339.5 433.5 L 1231.5 433.5 Z M 1231.8 435.6 " fill="#FFAA00"></path><path d="M -0.3 0.1 L 107.7 0.1 L 107.7 2.1 L -0.3 2.1 Z M 0.0 0.0 " fill="none" stroke="#000000" stroke-width="5.00" stroke-linejoin="bevel" transform="matrix(1.00, 0.00, 0.00, -1.00, 1231.8, 435.6)"></path><g><clipPath id="clip0x7f87609f03c0"><path d="M 1498.0 180.0 L 1653.0 180.0 L 1653.0 79.0 L 1498.0 79.0 Z M 1498.1 180.0 "></path></clipPath><g clip-path="url(#clip0x7f87609f03c0)"><g><clipPath id="clip0x7f87609ec640"><path d="M 1498.1 79.2 L 1653.2 79.2 L 1653.2 180.0 L 1498.1 180.0 Z M 1498.1 79.2 "></path></clipPath><g clip-path="url(#clip0x7f87609ec640)"><image xlink:href="../../BF6DC8B6-E505-4222-AA15-A9E26ADAED33/assets/80853EFD8D24BCE501047C376B8C7833.png" width="260.00" height="194.00" transform="matrix(0.66, 0.00, -0.00, -0.66, 1482.6, 180.0)"></image></g></g></g></g><g><clipPath id="clip0x7f875edb6f90"><path d="M 1462.6 52.4 L 1503.2 52.4 L 1503.2 92.8 L 1462.6 92.8 Z M 1462.6 52.4 "></path></clipPath><g clip-path="url(#clip0x7f875edb6f90)"><path d="M 1482.9 91.6 L 1488.7 79.2 L 1501.8 77.2 L 1492.4 67.5 L 1494.6 53.8 L 1482.9 60.3 L 1471.2 53.8 L 1473.5 67.5 L 1464.0 77.2 L 1477.1 79.2 Z M 1482.9 91.6 " fill="#C3D69B"></path><path d="M 19.9 0.0 L 25.7 12.4 L 38.8 14.4 L 29.3 24.1 L 31.6 37.8 L 19.9 31.3 L 8.2 37.8 L 10.4 24.1 L 1.0 14.4 L 14.0 12.4 Z M 19.9 0.0 " fill="none" stroke="#000000" stroke-width="1.00" stroke-linejoin="bevel" transform="matrix(1.00, 0.00, 0.00, -1.00, 1463.0, 91.6)"></path></g></g></g></svg>