<?xml version="1.0" encoding="UTF-8" standalone="no"?><svg xmlns="http://www.w3.org/2000/svg" xmlns:xlink="http://www.w3.org/1999/xlink" clip-rule="evenodd" stroke-miterlimit="10" viewBox="0 0 94 45"><desc>SVG generated by Keynote</desc><defs></defs><g transform="matrix(1.00, 0.00, -0.00, -1.00, 0.0, 45.0)"><path d="M 1.5 42.5 L 91.5 42.5 L 91.5 2.5 L 1.5 2.5 Z M 1.8 42.8 " fill="#FFFFFF"></path><path d="M -0.3 0.3 L 89.7 0.3 L 89.7 40.3 L -0.3 40.3 Z M 0.0 0.0 " fill="none" stroke="#FFFFFF" stroke-width="1.00" stroke-linejoin="bevel" transform="matrix(1.00, 0.00, 0.00, -1.00, 1.8, 42.8)"></path><g><clipPath id="clip0x7f875a04cd10"><path d="M 2.3 2.7 L 91.3 2.7 L 91.3 42.3 L 2.3 42.3 Z M 2.3 2.7 "></path></clipPath><g clip-path="url(#clip0x7f875a04cd10)"><text xml:space="preserve" font-family="Arial-BoldMT,Arial" font-weight="bold" font-size="20.0" fill="#000000" transform="matrix(1.00, 0.00, -0.00, -1.00, 30.1, 15.5)">1</text><text xml:space="preserve" font-family="Arial-BoldMT,Arial" font-weight="bold" font-size="20.0" fill="#000000" transform="matrix(1.00, 0.00, -0.00, -1.00, 41.2, 15.5)">0</text><text xml:space="preserve" font-family="Arial-BoldMT,Arial" font-weight="bold" font-size="20.0" fill="#000000" transform="matrix(1.00, 0.00, -0.00, -1.00, 52.4, 15.5)">0</text></g></g></g></svg>