<?xml version="1.0" encoding="UTF-8" standalone="no"?><svg xmlns="http://www.w3.org/2000/svg" xmlns:xlink="http://www.w3.org/1999/xlink" clip-rule="evenodd" stroke-miterlimit="10" viewBox="0 0 1920 1080"><desc>SVG generated by Keynote</desc><defs></defs><g transform="matrix(1.00, 0.00, -0.00, -1.00, 0.0, 1080.0)"><path d="M 0.0 1080.0 L 1920.0 1080.0 L 1920.0 0.0 L 0.0 0.0 Z M 0.0 1080.0 " fill="#FFFFFF"></path><path d="M 403.0 657.0 L 1549.0 657.0 L 1549.0 550.0 L 403.0 550.0 Z M 402.6 657.3 " fill="#FFFFFF"></path><g><clipPath id="clip0x7f876065c310"><path d="M 388.9 536.4 L 1562.9 536.4 L 1562.9 670.9 L 388.9 670.9 Z M 388.9 536.4 "></path></clipPath><g clip-path="url(#clip0x7f876065c310)"><text xml:space="preserve" font-family="ComicSansMS,Comic Sans MS" font-size="64.0" fill="#000000" transform="matrix(1.00, 0.00, -0.00, -1.00, 723.6, 577.3)">L</text><text xml:space="preserve" font-family="ComicSansMS,Comic Sans MS" font-size="64.0" fill="#000000" transform="matrix(1.00, 0.00, -0.00, -1.00, 758.8, 577.3)">e</text><text xml:space="preserve" font-family="ComicSansMS,Comic Sans MS" font-size="64.0" fill="#000000" transform="matrix(1.00, 0.00, -0.00, -1.00, 793.9, 577.3)">a</text><text xml:space="preserve" font-family="ComicSansMS,Comic Sans MS" font-size="64.0" fill="#000000" transform="matrix(1.00, 0.00, -0.00, -1.00, 826.6, 577.3)"> </text><text xml:space="preserve" font-family="ComicSansMS,Comic Sans MS" font-size="64.0" fill="#000000" transform="matrix(1.00, 0.00, -0.00, -1.00, 845.7, 577.3)">e</text><text xml:space="preserve" font-family="ComicSansMS,Comic Sans MS" font-size="64.0" fill="#000000" transform="matrix(1.00, 0.00, -0.00, -1.00, 880.8, 577.3)">s</text><text xml:space="preserve" font-family="ComicSansMS,Comic Sans MS" font-size="64.0" fill="#000000" transform="matrix(1.00, 0.00, -0.00, -1.00, 911.9, 577.3)">t</text><text xml:space="preserve" font-family="ComicSansMS,Comic Sans MS" font-size="64.0" fill="#000000" transform="matrix(1.00, 0.00, -0.00, -1.00, 942.1, 577.3)">e</text><text xml:space="preserve" font-family="ComicSansMS,Comic Sans MS" font-size="64.0" fill="#000000" transform="matrix(1.00, 0.00, -0.00, -1.00, 977.1, 577.3)"> </text><text xml:space="preserve" font-family="ComicSansMS,Comic Sans MS" font-size="64.0" fill="#000000" transform="matrix(1.00, 0.00, -0.00, -1.00, 996.2, 577.3)">n</text><text xml:space="preserve" font-family="ComicSansMS,Comic Sans MS" font-size="64.0" fill="#000000" transform="matrix(1.00, 0.00, -0.00, -1.00, 1029.8, 577.3)">ú</text><text xml:space="preserve" font-family="ComicSansMS,Comic Sans MS" font-size="64.0" fill="#000000" transform="matrix(1.00, 0.00, -0.00, -1.00, 1063.1, 577.3)">m</text><text xml:space="preserve" font-family="ComicSansMS,Comic Sans MS" font-size="64.0" fill="#000000" transform="matrix(1.00, 0.00, -0.00, -1.00, 1112.8, 577.3)">e</text><text xml:space="preserve" font-family="ComicSansMS,Comic Sans MS" font-size="64.0" fill="#000000" transform="matrix(1.00, 0.00, -0.00, -1.00, 1147.8, 577.3)">r</text><text xml:space="preserve" font-family="ComicSansMS,Comic Sans MS" font-size="64.0" fill="#000000" transform="matrix(1.00, 0.00, -0.00, -1.00, 1178.6, 577.3)">o</text><text xml:space="preserve" font-family="ComicSansMS,Comic Sans MS" font-size="64.0" fill="#000000" transform="matrix(1.00, 0.00, -0.00, -1.00, 1212.3, 577.3)">.</text></g></g><path d="M 297.5 543.5 L 1636.5 543.5 L 1636.5 286.5 L 297.5 286.5 Z M 297.6 543.9 " fill="#C6D9F0"></path><path d="M -0.1 0.4 L 1338.9 0.4 L 1338.9 257.4 L -0.1 257.4 Z M 0.0 0.0 " fill="none" stroke="#000000" stroke-width="3.00" stroke-linejoin="bevel" transform="matrix(1.00, 0.00, 0.00, -1.00, 297.6, 543.9)"></path><g><clipPath id="clip0x7f875dece180"><path d="M 248.5 237.5 L 1685.9 237.5 L 1685.9 593.0 L 248.5 593.0 Z M 248.5 237.5 "></path></clipPath><g clip-path="url(#clip0x7f875dece180)"><text xml:space="preserve" font-family="ComicSansMS,Comic Sans MS" font-size="170.0" fill="#0033CC" transform="matrix(1.00, 0.00, -0.00, -1.00, 505.9, 346.3)">5</text><text xml:space="preserve" font-family="ComicSansMS,Comic Sans MS" font-size="170.0" fill="#0033CC" transform="matrix(1.00, 0.00, -0.00, -1.00, 624.1, 346.3)">,</text><text xml:space="preserve" font-family="ComicSansMS,Comic Sans MS" font-size="170.0" fill="#0033CC" transform="matrix(1.00, 0.00, -0.00, -1.00, 685.5, 346.3)">4</text><text xml:space="preserve" font-family="ComicSansMS,Comic Sans MS" font-size="170.0" fill="#0033CC" transform="matrix(1.00, 0.00, -0.00, -1.00, 803.7, 346.3)">3</text><text xml:space="preserve" font-family="ComicSansMS,Comic Sans MS" font-size="170.0" fill="#0033CC" transform="matrix(1.00, 0.00, -0.00, -1.00, 921.8, 346.3)">2</text><text xml:space="preserve" font-family="ComicSansMS,Comic Sans MS" font-size="170.0" fill="#0033CC" transform="matrix(1.00, 0.00, -0.00, -1.00, 1040.0, 346.3)">,</text><text xml:space="preserve" font-family="ComicSansMS,Comic Sans MS" font-size="170.0" fill="#0033CC" transform="matrix(1.00, 0.00, -0.00, -1.00, 1101.4, 346.3)">0</text><text xml:space="preserve" font-family="ComicSansMS,Comic Sans MS" font-size="170.0" fill="#0033CC" transform="matrix(1.00, 0.00, -0.00, -1.00, 1219.6, 346.3)">7</text><text xml:space="preserve" font-family="ComicSansMS,Comic Sans MS" font-size="170.0" fill="#0033CC" transform="matrix(1.00, 0.00, -0.00, -1.00, 1337.8, 346.3)">1</text></g></g><path d="M 907.0 285.0 L 1187.0 285.0 L 1187.0 167.0 L 907.0 167.0 Z M 907.2 284.7 " fill="#FFFFFF"></path><g><clipPath id="clip0x7f875ded3070"><path d="M 903.3 163.5 L 1191.2 163.5 L 1191.2 288.6 L 903.3 288.6 Z M 903.3 163.5 "></path></clipPath><g clip-path="url(#clip0x7f875ded3070)"><text xml:space="preserve" font-family="ComicSansMS-Bold,Comic Sans MS" font-weight="bold" font-size="36.0" fill="#042433" transform="matrix(1.00, 0.00, -0.00, -1.00, 1012.1, 236.5)">d</text><text xml:space="preserve" font-family="ComicSansMS-Bold,Comic Sans MS" font-weight="bold" font-size="36.0" fill="#042433" transform="matrix(1.00, 0.00, -0.00, -1.00, 1033.3, 236.5)">i</text><text xml:space="preserve" font-family="ComicSansMS-Bold,Comic Sans MS" font-weight="bold" font-size="36.0" fill="#042433" transform="matrix(1.00, 0.00, -0.00, -1.00, 1043.4, 236.5)">g</text><text xml:space="preserve" font-family="ComicSansMS-Bold,Comic Sans MS" font-weight="bold" font-size="36.0" fill="#042433" transform="matrix(1.00, 0.00, -0.00, -1.00, 1062.4, 236.5)">a</text><text xml:space="preserve" font-family="ComicSansMS-Bold,Comic Sans MS" font-weight="bold" font-size="36.0" fill="#042433" transform="matrix(1.00, 0.00, -0.00, -1.00, 1082.4, 236.5)"> </text><text xml:space="preserve" font-family="ComicSansMS-Bold,Comic Sans MS" font-weight="bold" font-size="36.0" fill="#042433" transform="matrix(1.00, 0.00, -0.00, -1.00, 1023.3, 186.5)">m</text><text xml:space="preserve" font-family="ComicSansMS-Bold,Comic Sans MS" font-weight="bold" font-size="36.0" fill="#042433" transform="matrix(1.00, 0.00, -0.00, -1.00, 1051.3, 186.5)">i</text><text xml:space="preserve" font-family="ComicSansMS-Bold,Comic Sans MS" font-weight="bold" font-size="36.0" fill="#042433" transform="matrix(1.00, 0.00, -0.00, -1.00, 1061.4, 186.5)">l</text></g></g><path d="M 398.0 986.0 L 1536.0 986.0 L 1536.0 693.0 L 398.0 693.0 Z M 398.4 986.4 " fill="#FFFFFF"></path><g><clipPath id="clip0x7f875ded8f40"><path d="M 384.0 678.8 L 1550.4 678.8 L 1550.4 1000.8 L 384.0 1000.8 Z M 384.0 678.8 "></path></clipPath><g clip-path="url(#clip0x7f875ded8f40)"><text xml:space="preserve" font-family="ComicSansMS,Comic Sans MS" font-size="66.0" fill="#000000" transform="matrix(1.00, 0.00, -0.00, -1.00, 407.0, 905.0)">c</text><text xml:space="preserve" font-family="ComicSansMS,Comic Sans MS" font-size="66.0" fill="#000000" transform="matrix(1.00, 0.00, -0.00, -1.00, 440.9, 905.0)">u</text><text xml:space="preserve" font-family="ComicSansMS,Comic Sans MS" font-size="66.0" fill="#000000" transform="matrix(1.00, 0.00, -0.00, -1.00, 475.2, 905.0)">a</text><text xml:space="preserve" font-family="ComicSansMS,Comic Sans MS" font-size="66.0" fill="#000000" transform="matrix(1.00, 0.00, -0.00, -1.00, 509.0, 905.0)">n</text><text xml:space="preserve" font-family="ComicSansMS,Comic Sans MS" font-size="66.0" fill="#000000" transform="matrix(1.00, 0.00, -0.00, -1.00, 543.6, 905.0)">d</text><text xml:space="preserve" font-family="ComicSansMS,Comic Sans MS" font-size="66.0" fill="#000000" transform="matrix(1.00, 0.00, -0.00, -1.00, 582.4, 905.0)">o</text><text xml:space="preserve" font-family="ComicSansMS,Comic Sans MS" font-size="66.0" fill="#000000" transform="matrix(1.00, 0.00, -0.00, -1.00, 617.1, 905.0)"> </text><text xml:space="preserve" font-family="ComicSansMS,Comic Sans MS" font-size="66.0" fill="#000000" transform="matrix(1.00, 0.00, -0.00, -1.00, 636.8, 905.0)">u</text><text xml:space="preserve" font-family="ComicSansMS,Comic Sans MS" font-size="66.0" fill="#000000" transform="matrix(1.00, 0.00, -0.00, -1.00, 671.1, 905.0)">n</text><text xml:space="preserve" font-family="ComicSansMS,Comic Sans MS" font-size="66.0" fill="#000000" transform="matrix(1.00, 0.00, -0.00, -1.00, 705.7, 905.0)"> </text><text xml:space="preserve" font-family="ComicSansMS,Comic Sans MS" font-size="66.0" fill="#000000" transform="matrix(1.00, 0.00, -0.00, -1.00, 725.4, 905.0)">n</text><text xml:space="preserve" font-family="ComicSansMS,Comic Sans MS" font-size="66.0" fill="#000000" transform="matrix(1.00, 0.00, -0.00, -1.00, 760.0, 905.0)">ú</text><text xml:space="preserve" font-family="ComicSansMS,Comic Sans MS" font-size="66.0" fill="#000000" transform="matrix(1.00, 0.00, -0.00, -1.00, 794.3, 905.0)">m</text><text xml:space="preserve" font-family="ComicSansMS,Comic Sans MS" font-size="66.0" fill="#000000" transform="matrix(1.00, 0.00, -0.00, -1.00, 845.5, 905.0)">e</text><text xml:space="preserve" font-family="ComicSansMS,Comic Sans MS" font-size="66.0" fill="#000000" transform="matrix(1.00, 0.00, -0.00, -1.00, 881.7, 905.0)">r</text><text xml:space="preserve" font-family="ComicSansMS,Comic Sans MS" font-size="66.0" fill="#000000" transform="matrix(1.00, 0.00, -0.00, -1.00, 913.4, 905.0)">o</text><text xml:space="preserve" font-family="ComicSansMS,Comic Sans MS" font-size="66.0" fill="#000000" transform="matrix(1.00, 0.00, -0.00, -1.00, 948.1, 905.0)"> </text><text xml:space="preserve" font-family="ComicSansMS,Comic Sans MS" font-size="66.0" fill="#000000" transform="matrix(1.00, 0.00, -0.00, -1.00, 967.8, 905.0)">t</text><text xml:space="preserve" font-family="ComicSansMS,Comic Sans MS" font-size="66.0" fill="#000000" transform="matrix(1.00, 0.00, -0.00, -1.00, 999.0, 905.0)">i</text><text xml:space="preserve" font-family="ComicSansMS,Comic Sans MS" font-size="66.0" fill="#000000" transform="matrix(1.00, 0.00, -0.00, -1.00, 1017.5, 905.0)">e</text><text xml:space="preserve" font-family="ComicSansMS,Comic Sans MS" font-size="66.0" fill="#000000" transform="matrix(1.00, 0.00, -0.00, -1.00, 1053.6, 905.0)">n</text><text xml:space="preserve" font-family="ComicSansMS,Comic Sans MS" font-size="66.0" fill="#000000" transform="matrix(1.00, 0.00, -0.00, -1.00, 1088.2, 905.0)">e</text><text xml:space="preserve" font-family="ComicSansMS,Comic Sans MS" font-size="66.0" fill="#000000" transform="matrix(1.00, 0.00, -0.00, -1.00, 1124.4, 905.0)"> </text><text xml:space="preserve" font-family="ComicSansMS,Comic Sans MS" font-size="66.0" fill="#000000" transform="matrix(1.00, 0.00, -0.00, -1.00, 1144.1, 905.0)">d</text><text xml:space="preserve" font-family="ComicSansMS,Comic Sans MS" font-size="66.0" fill="#000000" transform="matrix(1.00, 0.00, -0.00, -1.00, 1182.9, 905.0)">o</text><text xml:space="preserve" font-family="ComicSansMS,Comic Sans MS" font-size="66.0" fill="#000000" transform="matrix(1.00, 0.00, -0.00, -1.00, 1217.6, 905.0)">s</text><text xml:space="preserve" font-family="ComicSansMS,Comic Sans MS" font-size="66.0" fill="#000000" transform="matrix(1.00, 0.00, -0.00, -1.00, 1249.7, 905.0)"> </text><text xml:space="preserve" font-family="ComicSansMS,Comic Sans MS" font-size="66.0" fill="#000000" transform="matrix(1.00, 0.00, -0.00, -1.00, 1269.4, 905.0)">c</text><text xml:space="preserve" font-family="ComicSansMS,Comic Sans MS" font-size="66.0" fill="#000000" transform="matrix(1.00, 0.00, -0.00, -1.00, 1303.3, 905.0)">o</text><text xml:space="preserve" font-family="ComicSansMS,Comic Sans MS" font-size="66.0" fill="#000000" transform="matrix(1.00, 0.00, -0.00, -1.00, 1338.0, 905.0)">m</text><text xml:space="preserve" font-family="ComicSansMS,Comic Sans MS" font-size="66.0" fill="#000000" transform="matrix(1.00, 0.00, -0.00, -1.00, 1389.2, 905.0)">a</text><text xml:space="preserve" font-family="ComicSansMS,Comic Sans MS" font-size="66.0" fill="#000000" transform="matrix(1.00, 0.00, -0.00, -1.00, 1423.0, 905.0)">s</text><text xml:space="preserve" font-family="ComicSansMS,Comic Sans MS" font-size="66.0" fill="#000000" transform="matrix(1.00, 0.00, -0.00, -1.00, 1455.1, 905.0)"> </text><text xml:space="preserve" font-family="ComicSansMS,Comic Sans MS" font-size="66.0" fill="#000000" transform="matrix(1.00, 0.00, -0.00, -1.00, 1474.8, 905.0)"> </text><text xml:space="preserve" font-family="ArialMT,Arial" font-size="66.0" fill="#000000" transform="matrix(1.00, 0.00, -0.00, -1.00, 407.0, 816.8)">•</text><text xml:space="preserve" font-family="ComicSansMS,Comic Sans MS" font-size="66.0" fill="#000000" transform="matrix(1.00, 0.00, -0.00, -1.00, 491.0, 813.0)">e</text><text xml:space="preserve" font-family="ComicSansMS,Comic Sans MS" font-size="66.0" fill="#000000" transform="matrix(1.00, 0.00, -0.00, -1.00, 527.2, 813.0)">n</text><text xml:space="preserve" font-family="ComicSansMS,Comic Sans MS" font-size="66.0" fill="#000000" transform="matrix(1.00, 0.00, -0.00, -1.00, 561.8, 813.0)"> </text><text xml:space="preserve" font-family="ComicSansMS,Comic Sans MS" font-size="66.0" fill="#000000" transform="matrix(1.00, 0.00, -0.00, -1.00, 581.5, 813.0)">e</text><text xml:space="preserve" font-family="ComicSansMS,Comic Sans MS" font-size="66.0" fill="#000000" transform="matrix(1.00, 0.00, -0.00, -1.00, 617.7, 813.0)">l</text><text xml:space="preserve" font-family="ComicSansMS,Comic Sans MS" font-size="66.0" fill="#000000" transform="matrix(1.00, 0.00, -0.00, -1.00, 635.7, 813.0)"> </text><text xml:space="preserve" font-family="ComicSansMS,Comic Sans MS" font-size="66.0" fill="#000000" transform="matrix(1.00, 0.00, -0.00, -1.00, 655.5, 813.0)">p</text><text xml:space="preserve" font-family="ComicSansMS,Comic Sans MS" font-size="66.0" fill="#000000" transform="matrix(1.00, 0.00, -0.00, -1.00, 690.7, 813.0)">r</text><text xml:space="preserve" font-family="ComicSansMS,Comic Sans MS" font-size="66.0" fill="#000000" transform="matrix(1.00, 0.00, -0.00, -1.00, 722.5, 813.0)">i</text><text xml:space="preserve" font-family="ComicSansMS,Comic Sans MS" font-size="66.0" fill="#000000" transform="matrix(1.00, 0.00, -0.00, -1.00, 741.0, 813.0)">m</text><text xml:space="preserve" font-family="ComicSansMS,Comic Sans MS" font-size="66.0" fill="#000000" transform="matrix(1.00, 0.00, -0.00, -1.00, 792.3, 813.0)">e</text><text xml:space="preserve" font-family="ComicSansMS,Comic Sans MS" font-size="66.0" fill="#000000" transform="matrix(1.00, 0.00, -0.00, -1.00, 828.4, 813.0)">r</text><text xml:space="preserve" font-family="ComicSansMS,Comic Sans MS" font-size="66.0" fill="#000000" transform="matrix(1.00, 0.00, -0.00, -1.00, 860.2, 813.0)">o</text><text xml:space="preserve" font-family="ComicSansMS,Comic Sans MS" font-size="66.0" fill="#000000" transform="matrix(1.00, 0.00, -0.00, -1.00, 894.9, 813.0)"> </text><text xml:space="preserve" font-family="ComicSansMS,Comic Sans MS" font-size="66.0" fill="#000000" transform="matrix(1.00, 0.00, -0.00, -1.00, 914.6, 813.0)">c</text><text xml:space="preserve" font-family="ComicSansMS,Comic Sans MS" font-size="66.0" fill="#000000" transform="matrix(1.00, 0.00, -0.00, -1.00, 948.5, 813.0)">o</text><text xml:space="preserve" font-family="ComicSansMS,Comic Sans MS" font-size="66.0" fill="#000000" transform="matrix(1.00, 0.00, -0.00, -1.00, 983.2, 813.0)">m</text><text xml:space="preserve" font-family="ComicSansMS,Comic Sans MS" font-size="66.0" fill="#000000" transform="matrix(1.00, 0.00, -0.00, -1.00, 1034.5, 813.0)">a</text><text xml:space="preserve" font-family="ComicSansMS,Comic Sans MS" font-size="66.0" fill="#000000" transform="matrix(1.00, 0.00, -0.00, -1.00, 1068.2, 813.0)"> </text><text xml:space="preserve" font-family="ComicSansMS-Bold,Comic Sans MS" font-weight="bold" font-size="66.0" fill="#000000" transform="matrix(1.00, 0.00, -0.00, -1.00, 1087.9, 813.0)">d</text><text xml:space="preserve" font-family="ComicSansMS-Bold,Comic Sans MS" font-weight="bold" font-size="66.0" fill="#000000" transform="matrix(1.00, 0.00, -0.00, -1.00, 1126.7, 813.0)">i</text><text xml:space="preserve" font-family="ComicSansMS-Bold,Comic Sans MS" font-weight="bold" font-size="66.0" fill="#000000" transform="matrix(1.00, 0.00, -0.00, -1.00, 1145.2, 813.0)">g</text><text xml:space="preserve" font-family="ComicSansMS-Bold,Comic Sans MS" font-weight="bold" font-size="66.0" fill="#000000" transform="matrix(1.00, 0.00, -0.00, -1.00, 1180.2, 813.0)">a</text><text xml:space="preserve" font-family="ComicSansMS-Bold,Comic Sans MS" font-weight="bold" font-size="66.0" fill="#000000" transform="matrix(1.00, 0.00, -0.00, -1.00, 1216.8, 813.0)"> </text><text xml:space="preserve" font-family="ComicSansMS-Bold,Comic Sans MS" font-weight="bold" font-size="66.0" fill="#000000" transform="matrix(1.00, 0.00, -0.00, -1.00, 1245.4, 813.0)">m</text><text xml:space="preserve" font-family="ComicSansMS-Bold,Comic Sans MS" font-weight="bold" font-size="66.0" fill="#000000" transform="matrix(1.00, 0.00, -0.00, -1.00, 1296.6, 813.0)">i</text><text xml:space="preserve" font-family="ComicSansMS-Bold,Comic Sans MS" font-weight="bold" font-size="66.0" fill="#000000" transform="matrix(1.00, 0.00, -0.00, -1.00, 1315.2, 813.0)">l</text><text xml:space="preserve" font-family="ComicSansMS-Bold,Comic Sans MS" font-weight="bold" font-size="66.0" fill="#000000" transform="matrix(1.00, 0.00, -0.00, -1.00, 1333.2, 813.0)">l</text><text xml:space="preserve" font-family="ComicSansMS-Bold,Comic Sans MS" font-weight="bold" font-size="66.0" fill="#000000" transform="matrix(1.00, 0.00, -0.00, -1.00, 1351.2, 813.0)">ó</text><text xml:space="preserve" font-family="ComicSansMS-Bold,Comic Sans MS" font-weight="bold" font-size="66.0" fill="#000000" transform="matrix(1.00, 0.00, -0.00, -1.00, 1385.9, 813.0)">n</text><text xml:space="preserve" font-family="ComicSansMS,Comic Sans MS" font-size="66.0" fill="#000000" transform="matrix(1.00, 0.00, -0.00, -1.00, 1420.6, 813.0)"> </text><text xml:space="preserve" font-family="ComicSansMS,Comic Sans MS" font-size="66.0" fill="#000000" transform="matrix(1.00, 0.00, -0.00, -1.00, 1440.4, 813.0)"> </text><text xml:space="preserve" font-family="ComicSansMS,Comic Sans MS" font-size="66.0" fill="#000000" transform="matrix(1.00, 0.00, -0.00, -1.00, 1460.1, 813.0)"> </text><path d="M 689.5 182.2 L 1022.2 182.2 " fill="none" stroke="#000000" stroke-width="5.64" transform="matrix(1.00, 0.00, 0.00, -1.00, 398.4, 986.4)"></path><text xml:space="preserve" font-family="ArialMT,Arial" font-size="66.0" fill="#000000" transform="matrix(1.00, 0.00, -0.00, -1.00, 407.0, 724.8)">•</text><text xml:space="preserve" font-family="ComicSansMS,Comic Sans MS" font-size="66.0" fill="#000000" transform="matrix(1.00, 0.00, -0.00, -1.00, 491.0, 721.0)">e</text><text xml:space="preserve" font-family="ComicSansMS,Comic Sans MS" font-size="66.0" fill="#000000" transform="matrix(1.00, 0.00, -0.00, -1.00, 527.2, 721.0)">n</text><text xml:space="preserve" font-family="ComicSansMS,Comic Sans MS" font-size="66.0" fill="#000000" transform="matrix(1.00, 0.00, -0.00, -1.00, 561.8, 721.0)"> </text><text xml:space="preserve" font-family="ComicSansMS,Comic Sans MS" font-size="66.0" fill="#000000" transform="matrix(1.00, 0.00, -0.00, -1.00, 581.5, 721.0)">e</text><text xml:space="preserve" font-family="ComicSansMS,Comic Sans MS" font-size="66.0" fill="#000000" transform="matrix(1.00, 0.00, -0.00, -1.00, 617.6, 721.0)">l</text><text xml:space="preserve" font-family="ComicSansMS,Comic Sans MS" font-size="66.0" fill="#000000" transform="matrix(1.00, 0.00, -0.00, -1.00, 635.7, 721.0)"> </text><text xml:space="preserve" font-family="ComicSansMS,Comic Sans MS" font-size="66.0" fill="#000000" transform="matrix(1.00, 0.00, -0.00, -1.00, 655.4, 721.0)">s</text><text xml:space="preserve" font-family="ComicSansMS,Comic Sans MS" font-size="66.0" fill="#000000" transform="matrix(1.00, 0.00, -0.00, -1.00, 687.5, 721.0)">e</text><text xml:space="preserve" font-family="ComicSansMS,Comic Sans MS" font-size="66.0" fill="#000000" transform="matrix(1.00, 0.00, -0.00, -1.00, 723.7, 721.0)">g</text><text xml:space="preserve" font-family="ComicSansMS,Comic Sans MS" font-size="66.0" fill="#000000" transform="matrix(1.00, 0.00, -0.00, -1.00, 758.7, 721.0)">u</text><text xml:space="preserve" font-family="ComicSansMS,Comic Sans MS" font-size="66.0" fill="#000000" transform="matrix(1.00, 0.00, -0.00, -1.00, 793.0, 721.0)">n</text><text xml:space="preserve" font-family="ComicSansMS,Comic Sans MS" font-size="66.0" fill="#000000" transform="matrix(1.00, 0.00, -0.00, -1.00, 827.6, 721.0)">d</text><text xml:space="preserve" font-family="ComicSansMS,Comic Sans MS" font-size="66.0" fill="#000000" transform="matrix(1.00, 0.00, -0.00, -1.00, 866.4, 721.0)">o</text><text xml:space="preserve" font-family="ComicSansMS,Comic Sans MS" font-size="66.0" fill="#000000" transform="matrix(1.00, 0.00, -0.00, -1.00, 901.1, 721.0)"> </text><text xml:space="preserve" font-family="ComicSansMS,Comic Sans MS" font-size="66.0" fill="#000000" transform="matrix(1.00, 0.00, -0.00, -1.00, 920.8, 721.0)">c</text><text xml:space="preserve" font-family="ComicSansMS,Comic Sans MS" font-size="66.0" fill="#000000" transform="matrix(1.00, 0.00, -0.00, -1.00, 954.7, 721.0)">o</text><text xml:space="preserve" font-family="ComicSansMS,Comic Sans MS" font-size="66.0" fill="#000000" transform="matrix(1.00, 0.00, -0.00, -1.00, 989.4, 721.0)">m</text><text xml:space="preserve" font-family="ComicSansMS,Comic Sans MS" font-size="66.0" fill="#000000" transform="matrix(1.00, 0.00, -0.00, -1.00, 1040.6, 721.0)">a</text><text xml:space="preserve" font-family="ComicSansMS,Comic Sans MS" font-size="66.0" fill="#000000" transform="matrix(1.00, 0.00, -0.00, -1.00, 1074.4, 721.0)"> </text><text xml:space="preserve" font-family="ComicSansMS-Bold,Comic Sans MS" font-weight="bold" font-size="66.0" fill="#000000" transform="matrix(1.00, 0.00, -0.00, -1.00, 1094.2, 721.0)">d</text><text xml:space="preserve" font-family="ComicSansMS-Bold,Comic Sans MS" font-weight="bold" font-size="66.0" fill="#000000" transform="matrix(1.00, 0.00, -0.00, -1.00, 1133.0, 721.0)">i</text><text xml:space="preserve" font-family="ComicSansMS-Bold,Comic Sans MS" font-weight="bold" font-size="66.0" fill="#000000" transform="matrix(1.00, 0.00, -0.00, -1.00, 1151.5, 721.0)">g</text><text xml:space="preserve" font-family="ComicSansMS-Bold,Comic Sans MS" font-weight="bold" font-size="66.0" fill="#000000" transform="matrix(1.00, 0.00, -0.00, -1.00, 1186.5, 721.0)">a</text><text xml:space="preserve" font-family="ComicSansMS-Bold,Comic Sans MS" font-weight="bold" font-size="66.0" fill="#000000" transform="matrix(1.00, 0.00, -0.00, -1.00, 1223.1, 721.0)"> </text><text xml:space="preserve" font-family="ComicSansMS-Bold,Comic Sans MS" font-weight="bold" font-size="66.0" fill="#000000" transform="matrix(1.00, 0.00, -0.00, -1.00, 1251.7, 721.0)">m</text><text xml:space="preserve" font-family="ComicSansMS-Bold,Comic Sans MS" font-weight="bold" font-size="66.0" fill="#000000" transform="matrix(1.00, 0.00, -0.00, -1.00, 1302.9, 721.0)">i</text><text xml:space="preserve" font-family="ComicSansMS-Bold,Comic Sans MS" font-weight="bold" font-size="66.0" fill="#000000" transform="matrix(1.00, 0.00, -0.00, -1.00, 1321.5, 721.0)">l</text><path d="M 695.8 274.2 L 941.2 274.2 " fill="none" stroke="#000000" stroke-width="5.64" transform="matrix(1.00, 0.00, 0.00, -1.00, 398.4, 986.4)"></path></g></g><path d="M 516.0 285.0 L 796.0 285.0 L 796.0 167.0 L 516.0 167.0 Z M 516.0 284.7 " fill="#FFFFFF"></path><g><clipPath id="clip0x7f875de8f120"><path d="M 512.1 163.5 L 800.0 163.5 L 800.0 288.6 L 512.1 288.6 Z M 512.1 163.5 "></path></clipPath><g clip-path="url(#clip0x7f875de8f120)"><text xml:space="preserve" font-family="ComicSansMS-Bold,Comic Sans MS" font-weight="bold" font-size="36.0" fill="#042433" transform="matrix(1.00, 0.00, -0.00, -1.00, 620.9, 236.5)">d</text><text xml:space="preserve" font-family="ComicSansMS-Bold,Comic Sans MS" font-weight="bold" font-size="36.0" fill="#042433" transform="matrix(1.00, 0.00, -0.00, -1.00, 642.1, 236.5)">i</text><text xml:space="preserve" font-family="ComicSansMS-Bold,Comic Sans MS" font-weight="bold" font-size="36.0" fill="#042433" transform="matrix(1.00, 0.00, -0.00, -1.00, 652.2, 236.5)">g</text><text xml:space="preserve" font-family="ComicSansMS-Bold,Comic Sans MS" font-weight="bold" font-size="36.0" fill="#042433" transform="matrix(1.00, 0.00, -0.00, -1.00, 671.3, 236.5)">a</text><text xml:space="preserve" font-family="ComicSansMS-Bold,Comic Sans MS" font-weight="bold" font-size="36.0" fill="#042433" transform="matrix(1.00, 0.00, -0.00, -1.00, 691.2, 236.5)"> </text><text xml:space="preserve" font-family="ComicSansMS-Bold,Comic Sans MS" font-weight="bold" font-size="36.0" fill="#042433" transform="matrix(1.00, 0.00, -0.00, -1.00, 706.8, 236.5)"> </text><text xml:space="preserve" font-family="ComicSansMS-Bold,Comic Sans MS" font-weight="bold" font-size="36.0" fill="#042433" transform="matrix(1.00, 0.00, -0.00, -1.00, 608.3, 186.5)">m</text><text xml:space="preserve" font-family="ComicSansMS-Bold,Comic Sans MS" font-weight="bold" font-size="36.0" fill="#042433" transform="matrix(1.00, 0.00, -0.00, -1.00, 636.3, 186.5)">i</text><text xml:space="preserve" font-family="ComicSansMS-Bold,Comic Sans MS" font-weight="bold" font-size="36.0" fill="#042433" transform="matrix(1.00, 0.00, -0.00, -1.00, 646.3, 186.5)">l</text><text xml:space="preserve" font-family="ComicSansMS-Bold,Comic Sans MS" font-weight="bold" font-size="36.0" fill="#042433" transform="matrix(1.00, 0.00, -0.00, -1.00, 656.2, 186.5)">l</text><text xml:space="preserve" font-family="ComicSansMS-Bold,Comic Sans MS" font-weight="bold" font-size="36.0" fill="#042433" transform="matrix(1.00, 0.00, -0.00, -1.00, 666.1, 186.5)">ó</text><text xml:space="preserve" font-family="ComicSansMS-Bold,Comic Sans MS" font-weight="bold" font-size="36.0" fill="#042433" transform="matrix(1.00, 0.00, -0.00, -1.00, 685.0, 186.5)">n</text></g></g><g><clipPath id="clip0x7f875de95190"><path d="M 1441.0 180.0 L 1596.0 180.0 L 1596.0 79.0 L 1441.0 79.0 Z M 1440.5 180.0 "></path></clipPath><g clip-path="url(#clip0x7f875de95190)"><g><clipPath id="clip0x7f875de958f0"><path d="M 1440.5 79.2 L 1595.6 79.2 L 1595.6 180.0 L 1440.5 180.0 Z M 1440.5 79.2 "></path></clipPath><g clip-path="url(#clip0x7f875de958f0)"><image xlink:href="../../BF6DC8B6-E505-4222-AA15-A9E26ADAED33/assets/80853EFD8D24BCE501047C376B8C7833.png" width="260.00" height="194.00" transform="matrix(0.66, 0.00, -0.00, -0.66, 1425.0, 180.0)"></image></g></g></g></g><g><clipPath id="clip0x7f875de97110"><path d="M 1405.0 52.4 L 1445.6 52.4 L 1445.6 92.8 L 1405.0 92.8 Z M 1405.0 52.4 "></path></clipPath><g clip-path="url(#clip0x7f875de97110)"><path d="M 1425.3 91.6 L 1431.1 79.2 L 1444.2 77.2 L 1434.8 67.5 L 1437.0 53.8 L 1425.3 60.3 L 1413.6 53.8 L 1415.9 67.5 L 1406.4 77.2 L 1419.5 79.2 Z M 1425.3 91.6 " fill="#C3D69B"></path><path d="M 19.9 0.0 L 25.7 12.4 L 38.8 14.4 L 29.3 24.1 L 31.6 37.8 L 19.9 31.3 L 8.2 37.8 L 10.4 24.1 L 1.0 14.4 L 14.0 12.4 Z M 19.9 0.0 " fill="none" stroke="#000000" stroke-width="1.00" stroke-linejoin="bevel" transform="matrix(1.00, 0.00, 0.00, -1.00, 1405.4, 91.6)"></path></g></g></g></svg>