<?xml version="1.0" encoding="UTF-8" standalone="no"?><svg xmlns="http://www.w3.org/2000/svg" xmlns:xlink="http://www.w3.org/1999/xlink" clip-rule="evenodd" stroke-miterlimit="10" viewBox="0 0 784 154"><desc>SVG generated by Keynote</desc><defs></defs><g transform="matrix(1.00, 0.00, -0.00, -1.00, 0.0, 154.0)"><text xml:space="preserve" font-family="ArialRoundedMTBold,Arial Rounded MT Bold" font-size="72.0" fill="#331E05" transform="matrix(1.00, 0.00, -0.00, -1.00, -3.2, 100.3)">(</text><text xml:space="preserve" font-family="ArialRoundedMTBold,Arial Rounded MT Bold" font-size="72.0" fill="#331E05" transform="matrix(1.00, 0.00, -0.00, -1.00, 22.3, 100.3)">1</text><text xml:space="preserve" font-family="ArialRoundedMTBold,Arial Rounded MT Bold" font-size="72.0" fill="#331E05" transform="matrix(1.00, 0.00, -0.00, -1.00, 65.1, 100.3)">)</text><text xml:space="preserve" font-family="ArialRoundedMTBold,Arial Rounded MT Bold" font-size="72.0" fill="#331E05" transform="matrix(1.00, 0.00, -0.00, -1.00, 90.6, 100.3)"> </text><text xml:space="preserve" font-family="ArialRoundedMTBold,Arial Rounded MT Bold" font-size="72.0" fill="#331E05" transform="matrix(1.00, 0.00, -0.00, -1.00, 108.6, 100.3)"> </text><text xml:space="preserve" font-family="ArialRoundedMTBold,Arial Rounded MT Bold" font-size="72.0" fill="#331E05" transform="matrix(1.00, 0.00, -0.00, -1.00, 126.6, 100.3)">r</text><text xml:space="preserve" font-family="ArialRoundedMTBold,Arial Rounded MT Bold" font-size="72.0" fill="#331E05" transform="matrix(1.00, 0.00, -0.00, -1.00, 156.4, 100.3)">e</text><text xml:space="preserve" font-family="ArialRoundedMTBold,Arial Rounded MT Bold" font-size="72.0" fill="#331E05" transform="matrix(1.00, 0.00, -0.00, -1.00, 199.2, 100.3)">d</text><text xml:space="preserve" font-family="ArialRoundedMTBold,Arial Rounded MT Bold" font-size="72.0" fill="#331E05" transform="matrix(1.00, 0.00, -0.00, -1.00, 244.2, 100.3)">o</text><text xml:space="preserve" font-family="ArialRoundedMTBold,Arial Rounded MT Bold" font-size="72.0" fill="#331E05" transform="matrix(1.00, 0.00, -0.00, -1.00, 287.6, 100.3)">n</text><text xml:space="preserve" font-family="ArialRoundedMTBold,Arial Rounded MT Bold" font-size="72.0" fill="#331E05" transform="matrix(1.00, 0.00, -0.00, -1.00, 331.1, 100.3)">d</text><text xml:space="preserve" font-family="ArialRoundedMTBold,Arial Rounded MT Bold" font-size="72.0" fill="#331E05" transform="matrix(1.00, 0.00, -0.00, -1.00, 376.1, 100.3)">e</text><text xml:space="preserve" font-family="ArialRoundedMTBold,Arial Rounded MT Bold" font-size="72.0" fill="#331E05" transform="matrix(1.00, 0.00, -0.00, -1.00, 418.9, 100.3)">a</text><text xml:space="preserve" font-family="ArialRoundedMTBold,Arial Rounded MT Bold" font-size="72.0" fill="#331E05" transform="matrix(1.00, 0.00, -0.00, -1.00, 461.7, 100.3)">r</text><text xml:space="preserve" font-family="ArialRoundedMTBold,Arial Rounded MT Bold" font-size="72.0" fill="#331E05" transform="matrix(1.00, 0.00, -0.00, -1.00, 493.3, 100.3)"> </text><text xml:space="preserve" font-family="ArialRoundedMTBold,Arial Rounded MT Bold" font-size="72.0" fill="#331E05" transform="matrix(1.00, 0.00, -0.00, -1.00, 511.3, 100.3)">–</text><text xml:space="preserve" font-family="ArialRoundedMTBold,Arial Rounded MT Bold" font-size="72.0" fill="#331E05" transform="matrix(1.00, 0.00, -0.00, -1.00, 547.3, 100.3)"> </text><text xml:space="preserve" font-family="ArialRoundedMTBold,Arial Rounded MT Bold" font-size="72.0" fill="#331E05" transform="matrix(1.00, 0.00, -0.00, -1.00, 565.3, 100.3)">r</text><text xml:space="preserve" font-family="ArialRoundedMTBold,Arial Rounded MT Bold" font-size="72.0" fill="#331E05" transform="matrix(1.00, 0.00, -0.00, -1.00, 595.0, 100.3)">e</text><text xml:space="preserve" font-family="ArialRoundedMTBold,Arial Rounded MT Bold" font-size="72.0" fill="#331E05" transform="matrix(1.00, 0.00, -0.00, -1.00, 636.9, 100.3)">g</text><text xml:space="preserve" font-family="ArialRoundedMTBold,Arial Rounded MT Bold" font-size="72.0" fill="#331E05" transform="matrix(1.00, 0.00, -0.00, -1.00, 680.9, 100.3)">l</text><text xml:space="preserve" font-family="ArialRoundedMTBold,Arial Rounded MT Bold" font-size="72.0" fill="#331E05" transform="matrix(1.00, 0.00, -0.00, -1.00, 700.4, 100.3)">a</text><text xml:space="preserve" font-family="ArialRoundedMTBold,Arial Rounded MT Bold" font-size="72.0" fill="#331E05" transform="matrix(1.00, 0.00, -0.00, -1.00, 743.2, 100.3)">s</text><text xml:space="preserve" font-family="ArialRoundedMTBold,Arial Rounded MT Bold" font-size="72.0" fill="#331E05" transform="matrix(1.00, 0.00, -0.00, -1.00, 782.3, 100.3)"> </text><text xml:space="preserve" font-family="ArialRoundedMTBold,Arial Rounded MT Bold" font-size="72.0" fill="#331E05" transform="matrix(1.00, 0.00, -0.00, -1.00, -3.2, 17.3)">(</text><text xml:space="preserve" font-family="ArialRoundedMTBold,Arial Rounded MT Bold" font-size="72.0" fill="#331E05" transform="matrix(1.00, 0.00, -0.00, -1.00, 22.3, 17.3)">2</text><text xml:space="preserve" font-family="ArialRoundedMTBold,Arial Rounded MT Bold" font-size="72.0" fill="#331E05" transform="matrix(1.00, 0.00, -0.00, -1.00, 65.1, 17.3)">)</text><text xml:space="preserve" font-family="ArialRoundedMTBold,Arial Rounded MT Bold" font-size="72.0" fill="#331E05" transform="matrix(1.00, 0.00, -0.00, -1.00, 90.6, 17.3)"> </text><text xml:space="preserve" font-family="ArialRoundedMTBold,Arial Rounded MT Bold" font-size="72.0" fill="#331E05" transform="matrix(1.00, 0.00, -0.00, -1.00, 108.6, 17.3)"> </text><text xml:space="preserve" font-family="ArialRoundedMTBold,Arial Rounded MT Bold" font-size="72.0" fill="#331E05" transform="matrix(1.00, 0.00, -0.00, -1.00, 126.6, 17.3)">r</text><text xml:space="preserve" font-family="ArialRoundedMTBold,Arial Rounded MT Bold" font-size="72.0" fill="#331E05" transform="matrix(1.00, 0.00, -0.00, -1.00, 156.4, 17.3)">e</text><text xml:space="preserve" font-family="ArialRoundedMTBold,Arial Rounded MT Bold" font-size="72.0" fill="#331E05" transform="matrix(1.00, 0.00, -0.00, -1.00, 199.2, 17.3)">d</text><text xml:space="preserve" font-family="ArialRoundedMTBold,Arial Rounded MT Bold" font-size="72.0" fill="#331E05" transform="matrix(1.00, 0.00, -0.00, -1.00, 244.2, 17.3)">o</text><text xml:space="preserve" font-family="ArialRoundedMTBold,Arial Rounded MT Bold" font-size="72.0" fill="#331E05" transform="matrix(1.00, 0.00, -0.00, -1.00, 287.6, 17.3)">n</text><text xml:space="preserve" font-family="ArialRoundedMTBold,Arial Rounded MT Bold" font-size="72.0" fill="#331E05" transform="matrix(1.00, 0.00, -0.00, -1.00, 331.1, 17.3)">d</text><text xml:space="preserve" font-family="ArialRoundedMTBold,Arial Rounded MT Bold" font-size="72.0" fill="#331E05" transform="matrix(1.00, 0.00, -0.00, -1.00, 376.1, 17.3)">e</text><text xml:space="preserve" font-family="ArialRoundedMTBold,Arial Rounded MT Bold" font-size="72.0" fill="#331E05" transform="matrix(1.00, 0.00, -0.00, -1.00, 418.9, 17.3)">a</text><text xml:space="preserve" font-family="ArialRoundedMTBold,Arial Rounded MT Bold" font-size="72.0" fill="#331E05" transform="matrix(1.00, 0.00, -0.00, -1.00, 461.7, 17.3)">r</text><text xml:space="preserve" font-family="ArialRoundedMTBold,Arial Rounded MT Bold" font-size="72.0" fill="#331E05" transform="matrix(1.00, 0.00, -0.00, -1.00, 493.3, 17.3)"> </text><text xml:space="preserve" font-family="ArialRoundedMTBold,Arial Rounded MT Bold" font-size="72.0" fill="#331E05" transform="matrix(1.00, 0.00, -0.00, -1.00, 511.3, 17.3)">–</text><text xml:space="preserve" font-family="ArialRoundedMTBold,Arial Rounded MT Bold" font-size="72.0" fill="#331E05" transform="matrix(1.00, 0.00, -0.00, -1.00, 547.3, 17.3)"> </text><text xml:space="preserve" font-family="ArialRoundedMTBold,Arial Rounded MT Bold" font-size="72.0" fill="#331E05" transform="matrix(1.00, 0.00, -0.00, -1.00, 565.3, 17.3)">3</text><text xml:space="preserve" font-family="ArialRoundedMTBold,Arial Rounded MT Bold" font-size="72.0" fill="#331E05" transform="matrix(1.00, 0.00, -0.00, -1.00, 608.1, 17.3)">4</text><text xml:space="preserve" font-family="ArialRoundedMTBold,Arial Rounded MT Bold" font-size="72.0" fill="#331E05" transform="matrix(1.00, 0.00, -0.00, -1.00, 650.9, 17.3)"> </text></g></svg>