<?xml version="1.0" encoding="UTF-8" standalone="no"?><svg xmlns="http://www.w3.org/2000/svg" xmlns:xlink="http://www.w3.org/1999/xlink" clip-rule="evenodd" stroke-miterlimit="10" viewBox="0 0 1334 135"><desc>SVG generated by Keynote</desc><defs><linearGradient id="gradSh1.20" x1="0.0" y1="0.0" x2="100.0" y2="0.0" gradientUnits="userSpaceOnUse" gradientTransform="matrix(0.00, 1.12, 13.18, 0.00, 666.5, 11.5)"><stop offset="0.00000" stop-color="#C8B2E9"></stop><stop offset="0.00147" stop-color="#C8B3E9"></stop><stop offset="1.00000" stop-color="#F0EAF9"></stop></linearGradient></defs><g transform="matrix(1.00, 0.00, -0.00, -1.00, 0.0, 135.0)"><image xlink:href="83552A3726382EB82113D0A46FF598AF.png" width="1331.00" height="125.00" transform="matrix(1.00, 0.00, -0.00, -1.00, 1.1, 127.3)" opacity="0.38"></image><g><clipPath id="clip0x7f875f20c9a0"><path d="M 8.5 122.5 L 1324.5 122.5 L 1324.5 12.5 L 8.5 12.5 Z M 8.6 122.8 "></path></clipPath><g clip-path="url(#clip0x7f875f20c9a0)"><path d="M 8.5 122.5 L 1324.5 122.5 L 1324.5 12.5 L 8.5 12.5 Z M 8.6 122.8 " fill="url(#gradSh1.20)"></path></g></g><path d="M -0.1 0.3 L 1315.9 0.3 L 1315.9 110.3 L -0.1 110.3 Z M 0.0 0.0 " fill="none" stroke="#7C609F" stroke-width="1.00" stroke-linejoin="bevel" transform="matrix(1.00, 0.00, 0.00, -1.00, 8.6, 122.8)"></path><g><clipPath id="clip0x7f8741b94ce0"><path d="M -5.3 -1.4 L 1338.4 -1.4 L 1338.4 136.6 L -5.3 136.6 Z M -5.3 -1.4 "></path></clipPath><g clip-path="url(#clip0x7f8741b94ce0)"><text xml:space="preserve" font-family="ComicSansMS-Bold,Comic Sans MS" font-weight="bold" font-size="66.0" fill="#000000" transform="matrix(1.00, 0.00, -0.00, -1.00, 162.6, 40.9)">8</text><text xml:space="preserve" font-family="ComicSansMS-Bold,Comic Sans MS" font-weight="bold" font-size="66.0" fill="#000000" transform="matrix(1.00, 0.00, -0.00, -1.00, 202.9, 40.9)"> </text><text xml:space="preserve" font-family="ComicSansMS-Bold,Comic Sans MS" font-weight="bold" font-size="66.0" fill="#000000" transform="matrix(1.00, 0.00, -0.00, -1.00, 231.5, 40.9)">e</text><text xml:space="preserve" font-family="ComicSansMS-Bold,Comic Sans MS" font-weight="bold" font-size="66.0" fill="#000000" transform="matrix(1.00, 0.00, -0.00, -1.00, 268.4, 40.9)">s</text><text xml:space="preserve" font-family="ComicSansMS-Bold,Comic Sans MS" font-weight="bold" font-size="66.0" fill="#000000" transform="matrix(1.00, 0.00, -0.00, -1.00, 300.5, 40.9)">t</text><text xml:space="preserve" font-family="ComicSansMS-Bold,Comic Sans MS" font-weight="bold" font-size="66.0" fill="#000000" transform="matrix(1.00, 0.00, -0.00, -1.00, 331.6, 40.9)">รก</text><text xml:space="preserve" font-family="ComicSansMS-Bold,Comic Sans MS" font-weight="bold" font-size="66.0" fill="#000000" transform="matrix(1.00, 0.00, -0.00, -1.00, 368.3, 40.9)"> </text><text xml:space="preserve" font-family="ComicSansMS-Bold,Comic Sans MS" font-weight="bold" font-size="66.0" fill="#000000" transform="matrix(1.00, 0.00, -0.00, -1.00, 396.9, 40.9)">e</text><text xml:space="preserve" font-family="ComicSansMS-Bold,Comic Sans MS" font-weight="bold" font-size="66.0" fill="#000000" transform="matrix(1.00, 0.00, -0.00, -1.00, 433.8, 40.9)">n</text><text xml:space="preserve" font-family="ComicSansMS-Bold,Comic Sans MS" font-weight="bold" font-size="66.0" fill="#000000" transform="matrix(1.00, 0.00, -0.00, -1.00, 468.3, 40.9)"> </text><text xml:space="preserve" font-family="ComicSansMS-Bold,Comic Sans MS" font-weight="bold" font-size="66.0" fill="#000000" transform="matrix(1.00, 0.00, -0.00, -1.00, 496.9, 40.9)">e</text><text xml:space="preserve" font-family="ComicSansMS-Bold,Comic Sans MS" font-weight="bold" font-size="66.0" fill="#000000" transform="matrix(1.00, 0.00, -0.00, -1.00, 533.8, 40.9)">l</text><text xml:space="preserve" font-family="ComicSansMS-Bold,Comic Sans MS" font-weight="bold" font-size="66.0" fill="#000000" transform="matrix(1.00, 0.00, -0.00, -1.00, 551.9, 40.9)"> </text><text xml:space="preserve" font-family="ComicSansMS-Bold,Comic Sans MS" font-weight="bold" font-size="66.0" fill="#000000" transform="matrix(1.00, 0.00, -0.00, -1.00, 580.5, 40.9)">l</text><text xml:space="preserve" font-family="ComicSansMS-Bold,Comic Sans MS" font-weight="bold" font-size="66.0" fill="#000000" transform="matrix(1.00, 0.00, -0.00, -1.00, 598.6, 40.9)">u</text><text xml:space="preserve" font-family="ComicSansMS-Bold,Comic Sans MS" font-weight="bold" font-size="66.0" fill="#000000" transform="matrix(1.00, 0.00, -0.00, -1.00, 632.9, 40.9)">g</text><text xml:space="preserve" font-family="ComicSansMS-Bold,Comic Sans MS" font-weight="bold" font-size="66.0" fill="#000000" transform="matrix(1.00, 0.00, -0.00, -1.00, 667.9, 40.9)">a</text><text xml:space="preserve" font-family="ComicSansMS-Bold,Comic Sans MS" font-weight="bold" font-size="66.0" fill="#000000" transform="matrix(1.00, 0.00, -0.00, -1.00, 704.6, 40.9)">r</text><text xml:space="preserve" font-family="ComicSansMS-Bold,Comic Sans MS" font-weight="bold" font-size="66.0" fill="#000000" transform="matrix(1.00, 0.00, -0.00, -1.00, 736.3, 40.9)"> </text><text xml:space="preserve" font-family="ComicSansMS-Bold,Comic Sans MS" font-weight="bold" font-size="66.0" fill="#000000" transform="matrix(1.00, 0.00, -0.00, -1.00, 764.9, 40.9)">d</text><text xml:space="preserve" font-family="ComicSansMS-Bold,Comic Sans MS" font-weight="bold" font-size="66.0" fill="#000000" transform="matrix(1.00, 0.00, -0.00, -1.00, 803.7, 40.9)">e</text><text xml:space="preserve" font-family="ComicSansMS-Bold,Comic Sans MS" font-weight="bold" font-size="66.0" fill="#000000" transform="matrix(1.00, 0.00, -0.00, -1.00, 840.6, 40.9)"> </text><text xml:space="preserve" font-family="ComicSansMS-Bold,Comic Sans MS" font-weight="bold" font-size="66.0" fill="#000000" transform="matrix(1.00, 0.00, -0.00, -1.00, 869.2, 40.9)">u</text><text xml:space="preserve" font-family="ComicSansMS-Bold,Comic Sans MS" font-weight="bold" font-size="66.0" fill="#000000" transform="matrix(1.00, 0.00, -0.00, -1.00, 903.5, 40.9)">n</text><text xml:space="preserve" font-family="ComicSansMS-Bold,Comic Sans MS" font-weight="bold" font-size="66.0" fill="#000000" transform="matrix(1.00, 0.00, -0.00, -1.00, 938.1, 40.9)"> </text><text xml:space="preserve" font-family="ComicSansMS-Bold,Comic Sans MS" font-weight="bold" font-size="66.0" fill="#000000" transform="matrix(1.00, 0.00, -0.00, -1.00, 966.7, 40.9)">m</text><text xml:space="preserve" font-family="ComicSansMS-Bold,Comic Sans MS" font-weight="bold" font-size="66.0" fill="#000000" transform="matrix(1.00, 0.00, -0.00, -1.00, 1017.9, 40.9)">i</text><text xml:space="preserve" font-family="ComicSansMS-Bold,Comic Sans MS" font-weight="bold" font-size="66.0" fill="#000000" transform="matrix(1.00, 0.00, -0.00, -1.00, 1036.5, 40.9)">l</text><text xml:space="preserve" font-family="ComicSansMS-Bold,Comic Sans MS" font-weight="bold" font-size="66.0" fill="#000000" transform="matrix(1.00, 0.00, -0.00, -1.00, 1054.5, 40.9)">l</text><text xml:space="preserve" font-family="ComicSansMS-Bold,Comic Sans MS" font-weight="bold" font-size="66.0" fill="#000000" transform="matrix(1.00, 0.00, -0.00, -1.00, 1072.6, 40.9)">รณ</text><text xml:space="preserve" font-family="ComicSansMS-Bold,Comic Sans MS" font-weight="bold" font-size="66.0" fill="#000000" transform="matrix(1.00, 0.00, -0.00, -1.00, 1107.3, 40.9)">n</text><text xml:space="preserve" font-family="ComicSansMS-Bold,Comic Sans MS" font-weight="bold" font-size="66.0" fill="#000000" transform="matrix(1.00, 0.00, -0.00, -1.00, 1141.9, 40.9)">.</text></g></g></g></svg>