<?xml version="1.0" encoding="UTF-8" standalone="no"?><svg xmlns="http://www.w3.org/2000/svg" xmlns:xlink="http://www.w3.org/1999/xlink" clip-rule="evenodd" stroke-miterlimit="10" viewBox="0 0 902 557"><desc>SVG generated by Keynote</desc><defs></defs><g transform="matrix(1.00, 0.00, -0.00, -1.00, 0.0, 557.0)"><text xml:space="preserve" font-family="Avenir-Light,Avenir" font-size="86.0" fill="#000000" transform="matrix(1.00, 0.00, -0.00, -1.00, 93.0, 489.8)">C</text><text xml:space="preserve" font-family="Avenir-Light,Avenir" font-size="86.0" fill="#000000" transform="matrix(1.00, 0.00, -0.00, -1.00, 153.5, 489.8)">u</text><text xml:space="preserve" font-family="Avenir-Light,Avenir" font-size="86.0" fill="#000000" transform="matrix(1.00, 0.00, -0.00, -1.00, 201.3, 489.8)">a</text><text xml:space="preserve" font-family="Avenir-Light,Avenir" font-size="86.0" fill="#000000" transform="matrix(1.00, 0.00, -0.00, -1.00, 246.0, 489.8)">l</text><text xml:space="preserve" font-family="Avenir-Light,Avenir" font-size="86.0" fill="#000000" transform="matrix(1.00, 0.00, -0.00, -1.00, 266.6, 489.8)">q</text><text xml:space="preserve" font-family="Avenir-Light,Avenir" font-size="86.0" fill="#000000" transform="matrix(1.00, 0.00, -0.00, -1.00, 319.1, 489.8)">u</text><text xml:space="preserve" font-family="Avenir-Light,Avenir" font-size="86.0" fill="#000000" transform="matrix(1.00, 0.00, -0.00, -1.00, 367.0, 489.8)">i</text><text xml:space="preserve" font-family="Avenir-Light,Avenir" font-size="86.0" fill="#000000" transform="matrix(1.00, 0.00, -0.00, -1.00, 387.6, 489.8)">e</text><text xml:space="preserve" font-family="Avenir-Light,Avenir" font-size="86.0" fill="#000000" transform="matrix(1.00, 0.00, -0.00, -1.00, 435.4, 489.8)">r</text><text xml:space="preserve" font-family="Avenir-Light,Avenir" font-size="86.0" fill="#000000" transform="matrix(1.00, 0.00, -0.00, -1.00, 464.0, 489.8)"> </text><text xml:space="preserve" font-family="Avenir-Light,Avenir" font-size="86.0" fill="#000000" transform="matrix(1.00, 0.00, -0.00, -1.00, 486.4, 489.8)">n</text><text xml:space="preserve" font-family="Avenir-Light,Avenir" font-size="86.0" fill="#000000" transform="matrix(1.00, 0.00, -0.00, -1.00, 534.2, 489.8)">ú</text><text xml:space="preserve" font-family="Avenir-Light,Avenir" font-size="86.0" fill="#000000" transform="matrix(1.00, 0.00, -0.00, -1.00, 582.0, 489.8)">m</text><text xml:space="preserve" font-family="Avenir-Light,Avenir" font-size="86.0" fill="#000000" transform="matrix(1.00, 0.00, -0.00, -1.00, 655.3, 489.8)">e</text><text xml:space="preserve" font-family="Avenir-Light,Avenir" font-size="86.0" fill="#000000" transform="matrix(1.00, 0.00, -0.00, -1.00, 703.1, 489.8)">r</text><text xml:space="preserve" font-family="Avenir-Light,Avenir" font-size="86.0" fill="#000000" transform="matrix(1.00, 0.00, -0.00, -1.00, 730.2, 489.8)">o</text><text xml:space="preserve" font-family="Avenir-Light,Avenir" font-size="86.0" fill="#000000" transform="matrix(1.00, 0.00, -0.00, -1.00, 781.3, 489.8)"> </text><text xml:space="preserve" font-family="Avenir-Light,Avenir" font-size="86.0" fill="#000000" transform="matrix(1.00, 0.00, -0.00, -1.00, 803.7, 489.8)"> </text><text xml:space="preserve" font-family="Avenir-Light,Avenir" font-size="86.0" fill="#000000" transform="matrix(1.00, 0.00, -0.00, -1.00, -3.5, 372.8)">p</text><text xml:space="preserve" font-family="Avenir-Light,Avenir" font-size="86.0" fill="#000000" transform="matrix(1.00, 0.00, -0.00, -1.00, 49.0, 372.8)">u</text><text xml:space="preserve" font-family="Avenir-Light,Avenir" font-size="86.0" fill="#000000" transform="matrix(1.00, 0.00, -0.00, -1.00, 96.8, 372.8)">e</text><text xml:space="preserve" font-family="Avenir-Light,Avenir" font-size="86.0" fill="#000000" transform="matrix(1.00, 0.00, -0.00, -1.00, 144.6, 372.8)">d</text><text xml:space="preserve" font-family="Avenir-Light,Avenir" font-size="86.0" fill="#000000" transform="matrix(1.00, 0.00, -0.00, -1.00, 197.2, 372.8)">e</text><text xml:space="preserve" font-family="Avenir-Light,Avenir" font-size="86.0" fill="#000000" transform="matrix(1.00, 0.00, -0.00, -1.00, 245.0, 372.8)"> </text><text xml:space="preserve" font-family="Avenir-Light,Avenir" font-size="86.0" fill="#000000" transform="matrix(1.00, 0.00, -0.00, -1.00, 267.4, 372.8)">s</text><text xml:space="preserve" font-family="Avenir-Light,Avenir" font-size="86.0" fill="#000000" transform="matrix(1.00, 0.00, -0.00, -1.00, 304.0, 372.8)">e</text><text xml:space="preserve" font-family="Avenir-Light,Avenir" font-size="86.0" fill="#000000" transform="matrix(1.00, 0.00, -0.00, -1.00, 351.8, 372.8)">r</text><text xml:space="preserve" font-family="Avenir-Light,Avenir" font-size="86.0" fill="#000000" transform="matrix(1.00, 0.00, -0.00, -1.00, 380.5, 372.8)"> </text><text xml:space="preserve" font-family="Avenir-Light,Avenir" font-size="86.0" fill="#000000" transform="matrix(1.00, 0.00, -0.00, -1.00, 402.8, 372.8)">r</text><text xml:space="preserve" font-family="Avenir-Light,Avenir" font-size="86.0" fill="#000000" transform="matrix(1.00, 0.00, -0.00, -1.00, 429.9, 372.8)">e</text><text xml:space="preserve" font-family="Avenir-Light,Avenir" font-size="86.0" fill="#000000" transform="matrix(1.00, 0.00, -0.00, -1.00, 477.7, 372.8)">d</text><text xml:space="preserve" font-family="Avenir-Light,Avenir" font-size="86.0" fill="#000000" transform="matrix(1.00, 0.00, -0.00, -1.00, 530.3, 372.8)">o</text><text xml:space="preserve" font-family="Avenir-Light,Avenir" font-size="86.0" fill="#000000" transform="matrix(1.00, 0.00, -0.00, -1.00, 581.4, 372.8)">n</text><text xml:space="preserve" font-family="Avenir-Light,Avenir" font-size="86.0" fill="#000000" transform="matrix(1.00, 0.00, -0.00, -1.00, 629.2, 372.8)">d</text><text xml:space="preserve" font-family="Avenir-Light,Avenir" font-size="86.0" fill="#000000" transform="matrix(1.00, 0.00, -0.00, -1.00, 681.7, 372.8)">e</text><text xml:space="preserve" font-family="Avenir-Light,Avenir" font-size="86.0" fill="#000000" transform="matrix(1.00, 0.00, -0.00, -1.00, 729.5, 372.8)">a</text><text xml:space="preserve" font-family="Avenir-Light,Avenir" font-size="86.0" fill="#000000" transform="matrix(1.00, 0.00, -0.00, -1.00, 774.2, 372.8)">d</text><text xml:space="preserve" font-family="Avenir-Light,Avenir" font-size="86.0" fill="#000000" transform="matrix(1.00, 0.00, -0.00, -1.00, 826.7, 372.8)">o</text><text xml:space="preserve" font-family="Avenir-Light,Avenir" font-size="86.0" fill="#000000" transform="matrix(1.00, 0.00, -0.00, -1.00, 877.8, 372.8)"> </text><text xml:space="preserve" font-family="Avenir-Light,Avenir" font-size="86.0" fill="#000000" transform="matrix(1.00, 0.00, -0.00, -1.00, 900.2, 372.8)"> </text><text xml:space="preserve" font-family="Avenir-Light,Avenir" font-size="86.0" fill="#000000" transform="matrix(1.00, 0.00, -0.00, -1.00, 216.5, 255.8)">h</text><text xml:space="preserve" font-family="Avenir-Light,Avenir" font-size="86.0" fill="#000000" transform="matrix(1.00, 0.00, -0.00, -1.00, 264.4, 255.8)">a</text><text xml:space="preserve" font-family="Avenir-Light,Avenir" font-size="86.0" fill="#000000" transform="matrix(1.00, 0.00, -0.00, -1.00, 309.0, 255.8)">c</text><text xml:space="preserve" font-family="Avenir-Light,Avenir" font-size="86.0" fill="#000000" transform="matrix(1.00, 0.00, -0.00, -1.00, 350.4, 255.8)">i</text><text xml:space="preserve" font-family="Avenir-Light,Avenir" font-size="86.0" fill="#000000" transform="matrix(1.00, 0.00, -0.00, -1.00, 371.0, 255.8)">a</text><text xml:space="preserve" font-family="Avenir-Light,Avenir" font-size="86.0" fill="#000000" transform="matrix(1.00, 0.00, -0.00, -1.00, 415.6, 255.8)"> </text><text xml:space="preserve" font-family="Avenir-Light,Avenir" font-size="86.0" fill="#000000" transform="matrix(1.00, 0.00, -0.00, -1.00, 438.0, 255.8)">a</text><text xml:space="preserve" font-family="Avenir-Light,Avenir" font-size="86.0" fill="#000000" transform="matrix(1.00, 0.00, -0.00, -1.00, 482.6, 255.8)">r</text><text xml:space="preserve" font-family="Avenir-Light,Avenir" font-size="86.0" fill="#000000" transform="matrix(1.00, 0.00, -0.00, -1.00, 511.3, 255.8)">r</text><text xml:space="preserve" font-family="Avenir-Light,Avenir" font-size="86.0" fill="#000000" transform="matrix(1.00, 0.00, -0.00, -1.00, 539.9, 255.8)">i</text><text xml:space="preserve" font-family="Avenir-Light,Avenir" font-size="86.0" fill="#000000" transform="matrix(1.00, 0.00, -0.00, -1.00, 560.5, 255.8)">b</text><text xml:space="preserve" font-family="Avenir-Light,Avenir" font-size="86.0" fill="#000000" transform="matrix(1.00, 0.00, -0.00, -1.00, 613.1, 255.8)">a</text><text xml:space="preserve" font-family="Avenir-Light,Avenir" font-size="86.0" fill="#000000" transform="matrix(1.00, 0.00, -0.00, -1.00, 657.7, 255.8)"> </text><text xml:space="preserve" font-family="Avenir-Light,Avenir" font-size="86.0" fill="#000000" transform="matrix(1.00, 0.00, -0.00, -1.00, 680.1, 255.8)"> </text><text xml:space="preserve" font-family="Avenir-Light,Avenir" font-size="86.0" fill="#000000" transform="matrix(1.00, 0.00, -0.00, -1.00, 411.6, 138.8)">o</text><text xml:space="preserve" font-family="Avenir-Light,Avenir" font-size="86.0" fill="#000000" transform="matrix(1.00, 0.00, -0.00, -1.00, 462.7, 138.8)"> </text><text xml:space="preserve" font-family="Avenir-Light,Avenir" font-size="86.0" fill="#000000" transform="matrix(1.00, 0.00, -0.00, -1.00, 485.0, 138.8)"> </text><text xml:space="preserve" font-family="Avenir-Light,Avenir" font-size="86.0" fill="#000000" transform="matrix(1.00, 0.00, -0.00, -1.00, 208.5, 21.8)">h</text><text xml:space="preserve" font-family="Avenir-Light,Avenir" font-size="86.0" fill="#000000" transform="matrix(1.00, 0.00, -0.00, -1.00, 256.3, 21.8)">a</text><text xml:space="preserve" font-family="Avenir-Light,Avenir" font-size="86.0" fill="#000000" transform="matrix(1.00, 0.00, -0.00, -1.00, 300.9, 21.8)">c</text><text xml:space="preserve" font-family="Avenir-Light,Avenir" font-size="86.0" fill="#000000" transform="matrix(1.00, 0.00, -0.00, -1.00, 342.3, 21.8)">i</text><text xml:space="preserve" font-family="Avenir-Light,Avenir" font-size="86.0" fill="#000000" transform="matrix(1.00, 0.00, -0.00, -1.00, 362.9, 21.8)">a</text><text xml:space="preserve" font-family="Avenir-Light,Avenir" font-size="86.0" fill="#000000" transform="matrix(1.00, 0.00, -0.00, -1.00, 407.5, 21.8)"> </text><text xml:space="preserve" font-family="Avenir-Light,Avenir" font-size="86.0" fill="#000000" transform="matrix(1.00, 0.00, -0.00, -1.00, 429.9, 21.8)">a</text><text xml:space="preserve" font-family="Avenir-Light,Avenir" font-size="86.0" fill="#000000" transform="matrix(1.00, 0.00, -0.00, -1.00, 474.5, 21.8)">b</text><text xml:space="preserve" font-family="Avenir-Light,Avenir" font-size="86.0" fill="#000000" transform="matrix(1.00, 0.00, -0.00, -1.00, 527.1, 21.8)">a</text><text xml:space="preserve" font-family="Avenir-Light,Avenir" font-size="86.0" fill="#000000" transform="matrix(1.00, 0.00, -0.00, -1.00, 571.7, 21.8)">j</text><text xml:space="preserve" font-family="Avenir-Light,Avenir" font-size="86.0" fill="#000000" transform="matrix(1.00, 0.00, -0.00, -1.00, 592.4, 21.8)">o</text><text xml:space="preserve" font-family="Avenir-Light,Avenir" font-size="86.0" fill="#000000" transform="matrix(1.00, 0.00, -0.00, -1.00, 643.4, 21.8)">.</text></g></svg>