<?xml version="1.0" encoding="UTF-8" standalone="no"?><svg xmlns="http://www.w3.org/2000/svg" xmlns:xlink="http://www.w3.org/1999/xlink" clip-rule="evenodd" stroke-miterlimit="10" viewBox="0 0 1920 1080"><desc>SVG generated by Keynote</desc><defs></defs><g transform="matrix(1.00, 0.00, -0.00, -1.00, 0.0, 1080.0)"><path d="M 0.0 1080.0 L 1920.0 1080.0 L 1920.0 0.0 L 0.0 0.0 Z M 0.0 1080.0 " fill="#FFFFFF"></path><text xml:space="preserve" font-family="ArialRoundedMTBold,Arial Rounded MT Bold" font-size="76.0" fill="#000000" transform="matrix(1.00, 0.00, -0.00, -1.00, 533.0, 963.4)">o</text><text xml:space="preserve" font-family="ArialRoundedMTBold,Arial Rounded MT Bold" font-size="76.0" fill="#000000" transform="matrix(1.00, 0.00, -0.00, -1.00, 638.3, 963.4)">b</text><text xml:space="preserve" font-family="ArialRoundedMTBold,Arial Rounded MT Bold" font-size="76.0" fill="#000000" transform="matrix(1.00, 0.00, -0.00, -1.00, 745.2, 963.4)">j</text><text xml:space="preserve" font-family="ArialRoundedMTBold,Arial Rounded MT Bold" font-size="76.0" fill="#000000" transform="matrix(1.00, 0.00, -0.00, -1.00, 825.2, 963.4)">e</text><text xml:space="preserve" font-family="ArialRoundedMTBold,Arial Rounded MT Bold" font-size="76.0" fill="#000000" transform="matrix(1.00, 0.00, -0.00, -1.00, 929.7, 963.4)">t</text><text xml:space="preserve" font-family="ArialRoundedMTBold,Arial Rounded MT Bold" font-size="76.0" fill="#000000" transform="matrix(1.00, 0.00, -0.00, -1.00, 1016.0, 963.4)">i</text><text xml:space="preserve" font-family="ArialRoundedMTBold,Arial Rounded MT Bold" font-size="76.0" fill="#000000" transform="matrix(1.00, 0.00, -0.00, -1.00, 1096.0, 963.4)">v</text><text xml:space="preserve" font-family="ArialRoundedMTBold,Arial Rounded MT Bold" font-size="76.0" fill="#000000" transform="matrix(1.00, 0.00, -0.00, -1.00, 1195.6, 963.4)">o</text><text xml:space="preserve" font-family="ArialRoundedMTBold,Arial Rounded MT Bold" font-size="76.0" fill="#000000" transform="matrix(1.00, 0.00, -0.00, -1.00, 1300.8, 963.4)">s</text><image xlink:href="7DE3009F83AB8ED4BF31EF3CC630B728.png" width="1310.00" height="21.00" transform="matrix(1.00, 0.00, -0.00, -1.00, 305.0, 893.1)" opacity="0.38"></image><path d="M 0.0 0.1 L 1296.0 0.1 " fill="none" stroke="#000000" stroke-width="7.00" stroke-linejoin="bevel" transform="matrix(1.00, 0.00, 0.00, -1.00, 312.0, 885.6)"></path></g></svg>