<?xml version="1.0" encoding="UTF-8" standalone="no"?><svg xmlns="http://www.w3.org/2000/svg" xmlns:xlink="http://www.w3.org/1999/xlink" clip-rule="evenodd" stroke-miterlimit="10" viewBox="0 0 667 68"><desc>SVG generated by Keynote</desc><defs></defs><g transform="matrix(1.00, 0.00, -0.00, -1.00, 0.0, 68.0)"><text xml:space="preserve" font-family="ArialRoundedMTBold,Arial Rounded MT Bold" font-size="56.0" fill="#000000" transform="matrix(1.00, 0.00, -0.00, -1.00, -1.9, 14.2)">R</text><text xml:space="preserve" font-family="ArialRoundedMTBold,Arial Rounded MT Bold" font-size="56.0" fill="#000000" transform="matrix(1.00, 0.00, -0.00, -1.00, 37.0, 14.2)">e</text><text xml:space="preserve" font-family="ArialRoundedMTBold,Arial Rounded MT Bold" font-size="56.0" fill="#000000" transform="matrix(1.00, 0.00, -0.00, -1.00, 70.3, 14.2)">d</text><text xml:space="preserve" font-family="ArialRoundedMTBold,Arial Rounded MT Bold" font-size="56.0" fill="#000000" transform="matrix(1.00, 0.00, -0.00, -1.00, 105.3, 14.2)">o</text><text xml:space="preserve" font-family="ArialRoundedMTBold,Arial Rounded MT Bold" font-size="56.0" fill="#000000" transform="matrix(1.00, 0.00, -0.00, -1.00, 139.1, 14.2)">n</text><text xml:space="preserve" font-family="ArialRoundedMTBold,Arial Rounded MT Bold" font-size="56.0" fill="#000000" transform="matrix(1.00, 0.00, -0.00, -1.00, 173.0, 14.2)">d</text><text xml:space="preserve" font-family="ArialRoundedMTBold,Arial Rounded MT Bold" font-size="56.0" fill="#000000" transform="matrix(1.00, 0.00, -0.00, -1.00, 208.0, 14.2)">a</text><text xml:space="preserve" font-family="ArialRoundedMTBold,Arial Rounded MT Bold" font-size="56.0" fill="#000000" transform="matrix(1.00, 0.00, -0.00, -1.00, 241.2, 14.2)"> </text><text xml:space="preserve" font-family="ArialRoundedMTBold,Arial Rounded MT Bold" font-size="56.0" fill="#000000" transform="matrix(1.00, 0.00, -0.00, -1.00, 255.2, 14.2)">a</text><text xml:space="preserve" font-family="ArialRoundedMTBold,Arial Rounded MT Bold" font-size="56.0" fill="#000000" transform="matrix(1.00, 0.00, -0.00, -1.00, 288.5, 14.2)">l</text><text xml:space="preserve" font-family="ArialRoundedMTBold,Arial Rounded MT Bold" font-size="56.0" fill="#000000" transform="matrix(1.00, 0.00, -0.00, -1.00, 303.7, 14.2)"> </text><text xml:space="preserve" font-family="ArialRoundedMTBold,Arial Rounded MT Bold" font-size="56.0" fill="#000000" transform="matrix(1.00, 0.00, -0.00, -1.00, 317.7, 14.2)">l</text><text xml:space="preserve" font-family="ArialRoundedMTBold,Arial Rounded MT Bold" font-size="56.0" fill="#000000" transform="matrix(1.00, 0.00, -0.00, -1.00, 332.9, 14.2)">u</text><text xml:space="preserve" font-family="ArialRoundedMTBold,Arial Rounded MT Bold" font-size="56.0" fill="#000000" transform="matrix(1.00, 0.00, -0.00, -1.00, 366.7, 14.2)">g</text><text xml:space="preserve" font-family="ArialRoundedMTBold,Arial Rounded MT Bold" font-size="56.0" fill="#000000" transform="matrix(1.00, 0.00, -0.00, -1.00, 400.3, 14.2)">a</text><text xml:space="preserve" font-family="ArialRoundedMTBold,Arial Rounded MT Bold" font-size="56.0" fill="#000000" transform="matrix(1.00, 0.00, -0.00, -1.00, 433.6, 14.2)">r</text><text xml:space="preserve" font-family="ArialRoundedMTBold,Arial Rounded MT Bold" font-size="56.0" fill="#000000" transform="matrix(1.00, 0.00, -0.00, -1.00, 458.1, 14.2)"> </text><text xml:space="preserve" font-family="ArialRoundedMTBold,Arial Rounded MT Bold" font-size="56.0" fill="#000000" transform="matrix(1.00, 0.00, -0.00, -1.00, 472.1, 14.2)">d</text><text xml:space="preserve" font-family="ArialRoundedMTBold,Arial Rounded MT Bold" font-size="56.0" fill="#000000" transform="matrix(1.00, 0.00, -0.00, -1.00, 507.1, 14.2)">e</text><text xml:space="preserve" font-family="ArialRoundedMTBold,Arial Rounded MT Bold" font-size="56.0" fill="#000000" transform="matrix(1.00, 0.00, -0.00, -1.00, 540.4, 14.2)"> </text><text xml:space="preserve" font-family="ArialRoundedMTBold,Arial Rounded MT Bold" font-size="56.0" fill="#000000" transform="matrix(1.00, 0.00, -0.00, -1.00, 554.3, 14.2)">M</text><text xml:space="preserve" font-family="ArialRoundedMTBold,Arial Rounded MT Bold" font-size="56.0" fill="#000000" transform="matrix(1.00, 0.00, -0.00, -1.00, 601.0, 14.2)">I</text><text xml:space="preserve" font-family="ArialRoundedMTBold,Arial Rounded MT Bold" font-size="56.0" fill="#000000" transform="matrix(1.00, 0.00, -0.00, -1.00, 618.5, 14.2)">L</text><text xml:space="preserve" font-family="ArialRoundedMTBold,Arial Rounded MT Bold" font-size="56.0" fill="#000000" transform="matrix(1.00, 0.00, -0.00, -1.00, 652.3, 14.2)">.</text><g><clipPath id="clip0x7f8757f80520"><path d="M 553.3 6.2 L 652.3 6.2 L 652.3 11.0 L 553.3 11.0 Z M 553.3 6.2 "></path></clipPath><g clip-path="url(#clip0x7f8757f80520)"><path d="M 904.3 67.4 L 1002.4 67.4 " fill="none" stroke="#000000" stroke-width="2.79" transform="matrix(1.00, 0.00, 0.00, -1.00, -350.0, 76.0)"></path></g></g></g></svg>