<?xml version="1.0" encoding="UTF-8" standalone="no"?><svg xmlns="http://www.w3.org/2000/svg" xmlns:xlink="http://www.w3.org/1999/xlink" clip-rule="evenodd" stroke-miterlimit="10" viewBox="0 0 326 44"><desc>SVG generated by Keynote</desc><defs></defs><g transform="matrix(1.00, 0.00, -0.00, -1.00, 0.0, 44.0)"><text xml:space="preserve" font-family="Avenir-Medium,Avenir" font-size="46.0" fill="#008E4A" transform="matrix(1.00, 0.00, -0.00, -1.00, 2.0, 41.9)">_</text><text xml:space="preserve" font-family="Avenir-Medium,Avenir" font-size="46.0" fill="#008E4A" transform="matrix(1.00, 0.00, -0.00, -1.00, 25.0, 41.9)">_</text><text xml:space="preserve" font-family="Avenir-Medium,Avenir" font-size="46.0" fill="#008E4A" transform="matrix(1.00, 0.00, -0.00, -1.00, 48.0, 41.9)">_</text><text xml:space="preserve" font-family="Avenir-Medium,Avenir" font-size="46.0" fill="#008E4A" transform="matrix(1.00, 0.00, -0.00, -1.00, 71.0, 41.9)">_</text><text xml:space="preserve" font-family="Avenir-Medium,Avenir" font-size="46.0" fill="#008E4A" transform="matrix(1.00, 0.00, -0.00, -1.00, 94.0, 41.9)">_</text><text xml:space="preserve" font-family="Avenir-Medium,Avenir" font-size="46.0" fill="#008E4A" transform="matrix(1.00, 0.00, -0.00, -1.00, 117.0, 41.9)">_</text><text xml:space="preserve" font-family="Avenir-Medium,Avenir" font-size="46.0" fill="#008E4A" transform="matrix(1.00, 0.00, -0.00, -1.00, 140.0, 41.9)">_</text><text xml:space="preserve" font-family="Avenir-Medium,Avenir" font-size="46.0" fill="#008E4A" transform="matrix(1.00, 0.00, -0.00, -1.00, 163.0, 41.9)">_</text><text xml:space="preserve" font-family="Avenir-Medium,Avenir" font-size="46.0" fill="#008E4A" transform="matrix(1.00, 0.00, -0.00, -1.00, 186.0, 41.9)">_</text><text xml:space="preserve" font-family="Avenir-Medium,Avenir" font-size="46.0" fill="#008E4A" transform="matrix(1.00, 0.00, -0.00, -1.00, 209.0, 41.9)">_</text><text xml:space="preserve" font-family="Avenir-Medium,Avenir" font-size="46.0" fill="#008E4A" transform="matrix(1.00, 0.00, -0.00, -1.00, 232.0, 41.9)">_</text><text xml:space="preserve" font-family="Avenir-Medium,Avenir" font-size="46.0" fill="#008E4A" transform="matrix(1.00, 0.00, -0.00, -1.00, 255.0, 41.9)">_</text><text xml:space="preserve" font-family="Avenir-Medium,Avenir" font-size="46.0" fill="#008E4A" transform="matrix(1.00, 0.00, -0.00, -1.00, 278.0, 41.9)">_</text><text xml:space="preserve" font-family="Avenir-Medium,Avenir" font-size="46.0" fill="#008E4A" transform="matrix(1.00, 0.00, -0.00, -1.00, 301.0, 41.9)">_</text><text xml:space="preserve" font-family="Avenir-Medium,Avenir" font-size="46.0" fill="#008E4A" transform="matrix(1.00, 0.00, -0.00, -1.00, 324.0, 41.9)"> </text><text xml:space="preserve" font-family="Avenir-Medium,Avenir" font-size="18.0" fill="#008E4A" transform="matrix(1.00, 0.00, -0.00, -1.00, 133.6, 6.6)">s</text><text xml:space="preserve" font-family="Avenir-Medium,Avenir" font-size="18.0" fill="#008E4A" transform="matrix(1.00, 0.00, -0.00, -1.00, 141.6, 6.6)">u</text><text xml:space="preserve" font-family="Avenir-Medium,Avenir" font-size="18.0" fill="#008E4A" transform="matrix(1.00, 0.00, -0.00, -1.00, 151.6, 6.6)">b</text><text xml:space="preserve" font-family="Avenir-Medium,Avenir" font-size="18.0" fill="#008E4A" transform="matrix(1.00, 0.00, -0.00, -1.00, 162.6, 6.6)">j</text><text xml:space="preserve" font-family="Avenir-Medium,Avenir" font-size="18.0" fill="#008E4A" transform="matrix(1.00, 0.00, -0.00, -1.00, 166.9, 6.6)">e</text><text xml:space="preserve" font-family="Avenir-Medium,Avenir" font-size="18.0" fill="#008E4A" transform="matrix(1.00, 0.00, -0.00, -1.00, 177.0, 6.6)">c</text><text xml:space="preserve" font-family="Avenir-Medium,Avenir" font-size="18.0" fill="#008E4A" transform="matrix(1.00, 0.00, -0.00, -1.00, 185.6, 6.6)">t</text></g></svg>