<?xml version="1.0" encoding="UTF-8" standalone="no"?><svg xmlns="http://www.w3.org/2000/svg" xmlns:xlink="http://www.w3.org/1999/xlink" clip-rule="evenodd" stroke-miterlimit="10" viewBox="0 0 1920 1080"><desc>SVG generated by Keynote</desc><defs></defs><g transform="matrix(1.00, 0.00, -0.00, -1.00, 0.0, 1080.0)"><path d="M 0.0 1080.0 L 1920.0 1080.0 L 1920.0 0.0 L 0.0 0.0 Z M 0.0 1080.0 " fill="#FFFFFF"></path><path d="M 290.5 899.5 L 1622.5 899.5 L 1622.5 809.5 L 290.5 809.5 Z M 290.4 900.0 " fill="#FFFFFF"></path><path d="M 0.1 0.5 L 1332.1 0.5 L 1332.1 90.5 L 0.1 90.5 Z M 0.0 0.0 " fill="none" stroke="#000000" stroke-width="3.00" stroke-linejoin="bevel" transform="matrix(1.00, 0.00, 0.00, -1.00, 290.4, 900.0)"></path><g><clipPath id="clip0x7f875a1cf210"><path d="M 283.1 802.4 L 1629.7 802.4 L 1629.7 907.3 L 283.1 907.3 Z M 283.1 802.4 "></path></clipPath><g clip-path="url(#clip0x7f875a1cf210)"><text xml:space="preserve" font-family="ComicSansMS,Comic Sans MS" font-size="50.0" fill="#000000" transform="matrix(1.00, 0.00, -0.00, -1.00, 526.6, 834.4)">c</text><text xml:space="preserve" font-family="ComicSansMS,Comic Sans MS" font-size="50.0" fill="#000000" transform="matrix(1.00, 0.00, -0.00, -1.00, 552.3, 834.4)">i</text><text xml:space="preserve" font-family="ComicSansMS,Comic Sans MS" font-size="50.0" fill="#000000" transform="matrix(1.00, 0.00, -0.00, -1.00, 566.3, 834.4)">n</text><text xml:space="preserve" font-family="ComicSansMS,Comic Sans MS" font-size="50.0" fill="#000000" transform="matrix(1.00, 0.00, -0.00, -1.00, 592.6, 834.4)">c</text><text xml:space="preserve" font-family="ComicSansMS,Comic Sans MS" font-size="50.0" fill="#000000" transform="matrix(1.00, 0.00, -0.00, -1.00, 618.2, 834.4)">o</text><text xml:space="preserve" font-family="ComicSansMS,Comic Sans MS" font-size="50.0" fill="#000000" transform="matrix(1.00, 0.00, -0.00, -1.00, 644.5, 834.4)"> </text><text xml:space="preserve" font-family="ComicSansMS-Bold,Comic Sans MS" font-weight="bold" font-size="50.0" fill="#000000" transform="matrix(1.00, 0.00, -0.00, -1.00, 659.4, 834.4)">m</text><text xml:space="preserve" font-family="ComicSansMS-Bold,Comic Sans MS" font-weight="bold" font-size="50.0" fill="#000000" transform="matrix(1.00, 0.00, -0.00, -1.00, 698.3, 834.4)">i</text><text xml:space="preserve" font-family="ComicSansMS-Bold,Comic Sans MS" font-weight="bold" font-size="50.0" fill="#000000" transform="matrix(1.00, 0.00, -0.00, -1.00, 712.3, 834.4)">l</text><text xml:space="preserve" font-family="ComicSansMS-Bold,Comic Sans MS" font-weight="bold" font-size="50.0" fill="#000000" transform="matrix(1.00, 0.00, -0.00, -1.00, 726.0, 834.4)">l</text><text xml:space="preserve" font-family="ComicSansMS-Bold,Comic Sans MS" font-weight="bold" font-size="50.0" fill="#000000" transform="matrix(1.00, 0.00, -0.00, -1.00, 739.6, 834.4)">ó</text><text xml:space="preserve" font-family="ComicSansMS-Bold,Comic Sans MS" font-weight="bold" font-size="50.0" fill="#000000" transform="matrix(1.00, 0.00, -0.00, -1.00, 765.9, 834.4)">n</text><text xml:space="preserve" font-family="ComicSansMS,Comic Sans MS" font-size="50.0" fill="#000000" transform="matrix(1.00, 0.00, -0.00, -1.00, 792.1, 834.4)"> </text><text xml:space="preserve" font-family="ComicSansMS,Comic Sans MS" font-size="50.0" fill="#000000" transform="matrix(1.00, 0.00, -0.00, -1.00, 807.1, 834.4)">s</text><text xml:space="preserve" font-family="ComicSansMS,Comic Sans MS" font-size="50.0" fill="#000000" transform="matrix(1.00, 0.00, -0.00, -1.00, 831.4, 834.4)">e</text><text xml:space="preserve" font-family="ComicSansMS,Comic Sans MS" font-size="50.0" fill="#000000" transform="matrix(1.00, 0.00, -0.00, -1.00, 858.8, 834.4)">s</text><text xml:space="preserve" font-family="ComicSansMS,Comic Sans MS" font-size="50.0" fill="#000000" transform="matrix(1.00, 0.00, -0.00, -1.00, 883.1, 834.4)">e</text><text xml:space="preserve" font-family="ComicSansMS,Comic Sans MS" font-size="50.0" fill="#000000" transform="matrix(1.00, 0.00, -0.00, -1.00, 910.5, 834.4)">n</text><text xml:space="preserve" font-family="ComicSansMS,Comic Sans MS" font-size="50.0" fill="#000000" transform="matrix(1.00, 0.00, -0.00, -1.00, 936.7, 834.4)">t</text><text xml:space="preserve" font-family="ComicSansMS,Comic Sans MS" font-size="50.0" fill="#000000" transform="matrix(1.00, 0.00, -0.00, -1.00, 960.2, 834.4)">a</text><text xml:space="preserve" font-family="ComicSansMS,Comic Sans MS" font-size="50.0" fill="#000000" transform="matrix(1.00, 0.00, -0.00, -1.00, 985.8, 834.4)"> </text><text xml:space="preserve" font-family="ComicSansMS,Comic Sans MS" font-size="50.0" fill="#000000" transform="matrix(1.00, 0.00, -0.00, -1.00, 1000.8, 834.4)">y</text><text xml:space="preserve" font-family="ComicSansMS,Comic Sans MS" font-size="50.0" fill="#000000" transform="matrix(1.00, 0.00, -0.00, -1.00, 1026.8, 834.4)"> </text><text xml:space="preserve" font-family="ComicSansMS,Comic Sans MS" font-size="50.0" fill="#000000" transform="matrix(1.00, 0.00, -0.00, -1.00, 1041.7, 834.4)">s</text><text xml:space="preserve" font-family="ComicSansMS,Comic Sans MS" font-size="50.0" fill="#000000" transform="matrix(1.00, 0.00, -0.00, -1.00, 1066.0, 834.4)">i</text><text xml:space="preserve" font-family="ComicSansMS,Comic Sans MS" font-size="50.0" fill="#000000" transform="matrix(1.00, 0.00, -0.00, -1.00, 1080.1, 834.4)">e</text><text xml:space="preserve" font-family="ComicSansMS,Comic Sans MS" font-size="50.0" fill="#000000" transform="matrix(1.00, 0.00, -0.00, -1.00, 1107.5, 834.4)">t</text><text xml:space="preserve" font-family="ComicSansMS,Comic Sans MS" font-size="50.0" fill="#000000" transform="matrix(1.00, 0.00, -0.00, -1.00, 1131.0, 834.4)">e</text><text xml:space="preserve" font-family="ComicSansMS,Comic Sans MS" font-size="50.0" fill="#000000" transform="matrix(1.00, 0.00, -0.00, -1.00, 1158.4, 834.4)"> </text><text xml:space="preserve" font-family="ComicSansMS-Bold,Comic Sans MS" font-weight="bold" font-size="50.0" fill="#000000" transform="matrix(1.00, 0.00, -0.00, -1.00, 1173.4, 834.4)">m</text><text xml:space="preserve" font-family="ComicSansMS-Bold,Comic Sans MS" font-weight="bold" font-size="50.0" fill="#000000" transform="matrix(1.00, 0.00, -0.00, -1.00, 1212.2, 834.4)">i</text><text xml:space="preserve" font-family="ComicSansMS-Bold,Comic Sans MS" font-weight="bold" font-size="50.0" fill="#000000" transform="matrix(1.00, 0.00, -0.00, -1.00, 1226.3, 834.4)">l</text><text xml:space="preserve" font-family="ComicSansMS,Comic Sans MS" font-size="50.0" fill="#000000" transform="matrix(1.00, 0.00, -0.00, -1.00, 1240.0, 834.4)"> </text><text xml:space="preserve" font-family="ComicSansMS,Comic Sans MS" font-size="50.0" fill="#000000" transform="matrix(1.00, 0.00, -0.00, -1.00, 1254.9, 834.4)">n</text><text xml:space="preserve" font-family="ComicSansMS,Comic Sans MS" font-size="50.0" fill="#000000" transform="matrix(1.00, 0.00, -0.00, -1.00, 1281.1, 834.4)">u</text><text xml:space="preserve" font-family="ComicSansMS,Comic Sans MS" font-size="50.0" fill="#000000" transform="matrix(1.00, 0.00, -0.00, -1.00, 1307.1, 834.4)">e</text><text xml:space="preserve" font-family="ComicSansMS,Comic Sans MS" font-size="50.0" fill="#000000" transform="matrix(1.00, 0.00, -0.00, -1.00, 1334.5, 834.4)">v</text><text xml:space="preserve" font-family="ComicSansMS,Comic Sans MS" font-size="50.0" fill="#000000" transform="matrix(1.00, 0.00, -0.00, -1.00, 1358.8, 834.4)">e</text><path d="M 367.5 70.7 L 500.2 70.7 " fill="none" stroke="#000000" stroke-width="4.27" transform="matrix(1.00, 0.00, 0.00, -1.00, 291.9, 898.5)"></path><path d="M 881.5 70.7 L 948.1 70.7 " fill="none" stroke="#000000" stroke-width="4.27" transform="matrix(1.00, 0.00, 0.00, -1.00, 291.9, 898.5)"></path></g></g><path d="M -0.1 0.5 L 1338.9 0.5 L 1338.9 280.5 L -0.1 280.5 Z M 0.0 0.0 " fill="none" stroke="#000000" stroke-width="9.00" stroke-linejoin="bevel" transform="matrix(1.00, 0.00, 0.00, -1.00, 297.6, 468.0)"></path><text xml:space="preserve" font-family="ComicSansMS,Comic Sans MS" font-size="170.0" fill="#0033CC" transform="matrix(1.00, 0.00, -0.00, -1.00, 399.6, 244.9)">5</text><text xml:space="preserve" font-family="ComicSansMS,Comic Sans MS" font-size="170.0" fill="#0033CC" transform="matrix(1.00, 0.00, -0.00, -1.00, 557.8, 244.9)">,</text><text xml:space="preserve" font-family="ComicSansMS,Comic Sans MS" font-size="170.0" fill="#0033CC" transform="matrix(1.00, 0.00, -0.00, -1.00, 659.2, 244.9)">0</text><text xml:space="preserve" font-family="ComicSansMS,Comic Sans MS" font-size="170.0" fill="#0033CC" transform="matrix(1.00, 0.00, -0.00, -1.00, 789.0, 244.9)">6</text><text xml:space="preserve" font-family="ComicSansMS,Comic Sans MS" font-size="170.0" fill="#0033CC" transform="matrix(1.00, 0.00, -0.00, -1.00, 918.8, 244.9)">7</text><text xml:space="preserve" font-family="ComicSansMS,Comic Sans MS" font-size="170.0" fill="#0033CC" transform="matrix(1.00, 0.00, -0.00, -1.00, 1077.0, 244.9)">,</text><text xml:space="preserve" font-family="ComicSansMS,Comic Sans MS" font-size="170.0" fill="#0033CC" transform="matrix(1.00, 0.00, -0.00, -1.00, 1178.4, 244.9)">0</text><text xml:space="preserve" font-family="ComicSansMS,Comic Sans MS" font-size="170.0" fill="#0033CC" transform="matrix(1.00, 0.00, -0.00, -1.00, 1308.2, 244.9)">0</text><text xml:space="preserve" font-family="ComicSansMS,Comic Sans MS" font-size="170.0" fill="#0033CC" transform="matrix(1.00, 0.00, -0.00, -1.00, 1438.0, 244.9)">9</text><path d="M 445.1 538.8 L 450.9 526.4 L 464.0 524.4 L 454.6 514.7 L 456.8 501.0 L 445.1 507.5 L 433.4 501.0 L 435.7 514.7 L 426.2 524.4 L 439.3 526.4 Z M 445.1 538.8 " fill="#000000"></path><path d="M 19.9 0.0 L 25.7 12.4 L 38.8 14.4 L 29.3 24.1 L 31.6 37.8 L 19.9 31.3 L 8.2 37.8 L 10.4 24.1 L 1.0 14.4 L 14.0 12.4 Z M 19.9 0.0 " fill="none" stroke="#000000" stroke-width="1.00" stroke-linejoin="bevel" transform="matrix(1.00, 0.00, 0.00, -1.00, 425.2, 538.8)"></path><path d="M 575.7 538.8 L 581.5 526.4 L 594.6 524.4 L 585.2 514.7 L 587.4 501.0 L 575.7 507.5 L 564.0 501.0 L 566.3 514.7 L 556.8 524.4 L 569.9 526.4 Z M 575.7 538.8 " fill="#000000"></path><path d="M 19.9 0.0 L 25.7 12.4 L 38.8 14.4 L 29.3 24.1 L 31.6 37.8 L 19.9 31.3 L 8.2 37.8 L 10.4 24.1 L 1.0 14.4 L 14.0 12.4 Z M 19.9 0.0 " fill="none" stroke="#000000" stroke-width="1.00" stroke-linejoin="bevel" transform="matrix(1.00, 0.00, 0.00, -1.00, 555.8, 538.8)"></path><path d="M 706.3 538.8 L 712.1 526.4 L 725.2 524.4 L 715.8 514.7 L 718.0 501.0 L 706.3 507.5 L 694.6 501.0 L 696.9 514.7 L 687.4 524.4 L 700.5 526.4 Z M 706.3 538.8 " fill="#000000"></path><path d="M 19.9 0.0 L 25.7 12.4 L 38.8 14.4 L 29.3 24.1 L 31.6 37.8 L 19.9 31.3 L 8.2 37.8 L 10.4 24.1 L 1.0 14.4 L 14.0 12.4 Z M 19.9 0.0 " fill="none" stroke="#000000" stroke-width="1.00" stroke-linejoin="bevel" transform="matrix(1.00, 0.00, 0.00, -1.00, 686.4, 538.8)"></path><path d="M 836.9 538.8 L 842.7 526.4 L 855.8 524.4 L 846.4 514.7 L 848.6 501.0 L 836.9 507.5 L 825.2 501.0 L 827.5 514.7 L 818.0 524.4 L 831.1 526.4 Z M 836.9 538.8 " fill="#000000"></path><path d="M 19.9 0.0 L 25.7 12.4 L 38.8 14.4 L 29.3 24.1 L 31.6 37.8 L 19.9 31.3 L 8.2 37.8 L 10.4 24.1 L 1.0 14.4 L 14.0 12.4 Z M 19.9 0.0 " fill="none" stroke="#000000" stroke-width="1.00" stroke-linejoin="bevel" transform="matrix(1.00, 0.00, 0.00, -1.00, 817.0, 538.8)"></path><path d="M 967.5 538.8 L 973.3 526.4 L 986.4 524.4 L 977.0 514.7 L 979.2 501.0 L 967.5 507.5 L 955.8 501.0 L 958.1 514.7 L 948.6 524.4 L 961.7 526.4 Z M 967.5 538.8 " fill="#000000"></path><path d="M 19.9 0.0 L 25.7 12.4 L 38.8 14.4 L 29.3 24.1 L 31.6 37.8 L 19.9 31.3 L 8.2 37.8 L 10.4 24.1 L 1.0 14.4 L 14.0 12.4 Z M 19.9 0.0 " fill="none" stroke="#000000" stroke-width="1.00" stroke-linejoin="bevel" transform="matrix(1.00, 0.00, 0.00, -1.00, 947.6, 538.8)"></path><path d="M 1098.1 538.8 L 1103.9 526.4 L 1117.0 524.4 L 1107.6 514.7 L 1109.8 501.0 L 1098.1 507.5 L 1086.4 501.0 L 1088.7 514.7 L 1079.2 524.4 L 1092.3 526.4 Z M 1098.1 538.8 " fill="#000000"></path><path d="M 19.9 0.0 L 25.7 12.4 L 38.8 14.4 L 29.3 24.1 L 31.6 37.8 L 19.9 31.3 L 8.2 37.8 L 10.4 24.1 L 1.0 14.4 L 14.0 12.4 Z M 19.9 0.0 " fill="none" stroke="#000000" stroke-width="1.00" stroke-linejoin="bevel" transform="matrix(1.00, 0.00, 0.00, -1.00, 1078.2, 538.8)"></path><path d="M 1228.7 538.8 L 1234.5 526.4 L 1247.6 524.4 L 1238.2 514.7 L 1240.4 501.0 L 1228.7 507.5 L 1217.0 501.0 L 1219.3 514.7 L 1209.8 524.4 L 1222.9 526.4 Z M 1228.7 538.8 " fill="#000000"></path><path d="M 19.9 0.0 L 25.7 12.4 L 38.8 14.4 L 29.3 24.1 L 31.6 37.8 L 19.9 31.3 L 8.2 37.8 L 10.4 24.1 L 1.0 14.4 L 14.0 12.4 Z M 19.9 0.0 " fill="none" stroke="#000000" stroke-width="1.00" stroke-linejoin="bevel" transform="matrix(1.00, 0.00, 0.00, -1.00, 1208.8, 538.8)"></path><path d="M 1359.3 538.8 L 1365.1 526.4 L 1378.2 524.4 L 1368.8 514.7 L 1371.0 501.0 L 1359.3 507.5 L 1347.6 501.0 L 1349.9 514.7 L 1340.4 524.4 L 1353.5 526.4 Z M 1359.3 538.8 " fill="#000000"></path><path d="M 19.9 0.0 L 25.7 12.4 L 38.8 14.4 L 29.3 24.1 L 31.6 37.8 L 19.9 31.3 L 8.2 37.8 L 10.4 24.1 L 1.0 14.4 L 14.0 12.4 Z M 19.9 0.0 " fill="none" stroke="#000000" stroke-width="1.00" stroke-linejoin="bevel" transform="matrix(1.00, 0.00, 0.00, -1.00, 1339.4, 538.8)"></path><path d="M 1489.9 538.8 L 1495.7 526.4 L 1508.8 524.4 L 1499.4 514.7 L 1501.6 501.0 L 1489.9 507.5 L 1478.2 501.0 L 1480.5 514.7 L 1471.0 524.4 L 1484.1 526.4 Z M 1489.9 538.8 " fill="#000000"></path><path d="M 19.9 0.0 L 25.7 12.4 L 38.8 14.4 L 29.3 24.1 L 31.6 37.8 L 19.9 31.3 L 8.2 37.8 L 10.4 24.1 L 1.0 14.4 L 14.0 12.4 Z M 19.9 0.0 " fill="none" stroke="#000000" stroke-width="1.00" stroke-linejoin="bevel" transform="matrix(1.00, 0.00, 0.00, -1.00, 1470.0, 538.8)"></path><path d="M 434.0 1030.0 L 1466.0 1030.0 L 1466.0 922.0 L 434.0 922.0 Z M 434.4 1029.6 " fill="#FFFFFF"></path><g><clipPath id="clip0x7f875a184820"><path d="M 420.7 908.7 L 1479.5 908.7 L 1479.5 1043.3 L 420.7 1043.3 Z M 420.7 908.7 "></path></clipPath><g clip-path="url(#clip0x7f875a184820)"><text xml:space="preserve" font-family="ComicSansMS,Comic Sans MS" font-size="64.0" fill="#000000" transform="matrix(1.00, 0.00, -0.00, -1.00, 533.4, 949.6)">E</text><text xml:space="preserve" font-family="ComicSansMS,Comic Sans MS" font-size="64.0" fill="#000000" transform="matrix(1.00, 0.00, -0.00, -1.00, 573.4, 949.6)">s</text><text xml:space="preserve" font-family="ComicSansMS,Comic Sans MS" font-size="64.0" fill="#000000" transform="matrix(1.00, 0.00, -0.00, -1.00, 604.5, 949.6)">c</text><text xml:space="preserve" font-family="ComicSansMS,Comic Sans MS" font-size="64.0" fill="#000000" transform="matrix(1.00, 0.00, -0.00, -1.00, 637.4, 949.6)">r</text><text xml:space="preserve" font-family="ComicSansMS,Comic Sans MS" font-size="64.0" fill="#000000" transform="matrix(1.00, 0.00, -0.00, -1.00, 668.1, 949.6)">i</text><text xml:space="preserve" font-family="ComicSansMS,Comic Sans MS" font-size="64.0" fill="#000000" transform="matrix(1.00, 0.00, -0.00, -1.00, 686.1, 949.6)">b</text><text xml:space="preserve" font-family="ComicSansMS,Comic Sans MS" font-size="64.0" fill="#000000" transform="matrix(1.00, 0.00, -0.00, -1.00, 724.1, 949.6)">a</text><text xml:space="preserve" font-family="ComicSansMS,Comic Sans MS" font-size="64.0" fill="#000000" transform="matrix(1.00, 0.00, -0.00, -1.00, 756.8, 949.6)"> </text><text xml:space="preserve" font-family="ComicSansMS,Comic Sans MS" font-size="64.0" fill="#000000" transform="matrix(1.00, 0.00, -0.00, -1.00, 775.9, 949.6)">e</text><text xml:space="preserve" font-family="ComicSansMS,Comic Sans MS" font-size="64.0" fill="#000000" transform="matrix(1.00, 0.00, -0.00, -1.00, 811.0, 949.6)">l</text><text xml:space="preserve" font-family="ComicSansMS,Comic Sans MS" font-size="64.0" fill="#000000" transform="matrix(1.00, 0.00, -0.00, -1.00, 828.5, 949.6)"> </text><text xml:space="preserve" font-family="ComicSansMS,Comic Sans MS" font-size="64.0" fill="#000000" transform="matrix(1.00, 0.00, -0.00, -1.00, 847.6, 949.6)">n</text><text xml:space="preserve" font-family="ComicSansMS,Comic Sans MS" font-size="64.0" fill="#000000" transform="matrix(1.00, 0.00, -0.00, -1.00, 881.2, 949.6)">ú</text><text xml:space="preserve" font-family="ComicSansMS,Comic Sans MS" font-size="64.0" fill="#000000" transform="matrix(1.00, 0.00, -0.00, -1.00, 914.4, 949.6)">m</text><text xml:space="preserve" font-family="ComicSansMS,Comic Sans MS" font-size="64.0" fill="#000000" transform="matrix(1.00, 0.00, -0.00, -1.00, 964.1, 949.6)">e</text><text xml:space="preserve" font-family="ComicSansMS,Comic Sans MS" font-size="64.0" fill="#000000" transform="matrix(1.00, 0.00, -0.00, -1.00, 999.2, 949.6)">r</text><text xml:space="preserve" font-family="ComicSansMS,Comic Sans MS" font-size="64.0" fill="#000000" transform="matrix(1.00, 0.00, -0.00, -1.00, 1030.0, 949.6)">o</text><text xml:space="preserve" font-family="ComicSansMS,Comic Sans MS" font-size="64.0" fill="#000000" transform="matrix(1.00, 0.00, -0.00, -1.00, 1063.6, 949.6)"> </text><text xml:space="preserve" font-family="ComicSansMS,Comic Sans MS" font-size="64.0" fill="#000000" transform="matrix(1.00, 0.00, -0.00, -1.00, 1082.7, 949.6)">s</text><text xml:space="preserve" font-family="ComicSansMS,Comic Sans MS" font-size="64.0" fill="#000000" transform="matrix(1.00, 0.00, -0.00, -1.00, 1113.9, 949.6)">i</text><text xml:space="preserve" font-family="ComicSansMS,Comic Sans MS" font-size="64.0" fill="#000000" transform="matrix(1.00, 0.00, -0.00, -1.00, 1131.8, 949.6)">g</text><text xml:space="preserve" font-family="ComicSansMS,Comic Sans MS" font-size="64.0" fill="#000000" transform="matrix(1.00, 0.00, -0.00, -1.00, 1165.8, 949.6)">u</text><text xml:space="preserve" font-family="ComicSansMS,Comic Sans MS" font-size="64.0" fill="#000000" transform="matrix(1.00, 0.00, -0.00, -1.00, 1199.1, 949.6)">i</text><text xml:space="preserve" font-family="ComicSansMS,Comic Sans MS" font-size="64.0" fill="#000000" transform="matrix(1.00, 0.00, -0.00, -1.00, 1217.0, 949.6)">e</text><text xml:space="preserve" font-family="ComicSansMS,Comic Sans MS" font-size="64.0" fill="#000000" transform="matrix(1.00, 0.00, -0.00, -1.00, 1252.1, 949.6)">n</text><text xml:space="preserve" font-family="ComicSansMS,Comic Sans MS" font-size="64.0" fill="#000000" transform="matrix(1.00, 0.00, -0.00, -1.00, 1285.6, 949.6)">t</text><text xml:space="preserve" font-family="ComicSansMS,Comic Sans MS" font-size="64.0" fill="#000000" transform="matrix(1.00, 0.00, -0.00, -1.00, 1315.8, 949.6)">e</text><text xml:space="preserve" font-family="ComicSansMS,Comic Sans MS" font-size="64.0" fill="#000000" transform="matrix(1.00, 0.00, -0.00, -1.00, 1350.8, 949.6)">.</text></g></g><g><clipPath id="clip0x7f875a183ab0"><path d="M 1484.0 166.0 L 1639.0 166.0 L 1639.0 65.0 L 1484.0 65.0 Z M 1483.7 165.6 "></path></clipPath><g clip-path="url(#clip0x7f875a183ab0)"><g><clipPath id="clip0x7f875a179260"><path d="M 1483.7 64.8 L 1638.8 64.8 L 1638.8 165.6 L 1483.7 165.6 Z M 1483.7 64.8 "></path></clipPath><g clip-path="url(#clip0x7f875a179260)"><image xlink:href="../../BF6DC8B6-E505-4222-AA15-A9E26ADAED33/assets/80853EFD8D24BCE501047C376B8C7833.png" width="260.00" height="194.00" transform="matrix(0.66, 0.00, -0.00, -0.66, 1468.2, 165.6)"></image></g></g></g></g><g><clipPath id="clip0x7f875a17aac0"><path d="M 1448.2 38.0 L 1488.8 38.0 L 1488.8 78.4 L 1448.2 78.4 Z M 1448.2 38.0 "></path></clipPath><g clip-path="url(#clip0x7f875a17aac0)"><path d="M 1468.5 77.2 L 1474.3 64.8 L 1487.4 62.8 L 1478.0 53.1 L 1480.2 39.4 L 1468.5 45.9 L 1456.8 39.4 L 1459.0 53.1 L 1449.6 62.8 L 1462.7 64.8 Z M 1468.5 77.2 " fill="#C3D69B"></path><path d="M 19.9 0.0 L 25.7 12.4 L 38.8 14.4 L 29.3 24.1 L 31.6 37.8 L 19.9 31.3 L 8.2 37.8 L 10.4 24.1 L 1.0 14.4 L 14.0 12.4 Z M 19.9 0.0 " fill="none" stroke="#000000" stroke-width="1.00" stroke-linejoin="bevel" transform="matrix(1.00, 0.00, 0.00, -1.00, 1448.6, 77.2)"></path></g></g></g></svg>