<?xml version="1.0" encoding="UTF-8" standalone="no"?><svg xmlns="http://www.w3.org/2000/svg" xmlns:xlink="http://www.w3.org/1999/xlink" clip-rule="evenodd" stroke-miterlimit="10" viewBox="0 0 1338 96"><desc>SVG generated by Keynote</desc><defs></defs><g transform="matrix(1.00, 0.00, -0.00, -1.00, 0.0, 96.0)"><path d="M 3.5 92.5 L 1335.5 92.5 L 1335.5 2.5 L 3.5 2.5 Z M 3.4 93.0 " fill="#FFFFFF"></path><path d="M 0.1 0.5 L 1332.1 0.5 L 1332.1 90.5 L 0.1 90.5 Z M 0.0 0.0 " fill="none" stroke="#000000" stroke-width="3.00" stroke-linejoin="bevel" transform="matrix(1.00, 0.00, 0.00, -1.00, 3.4, 93.0)"></path><g><clipPath id="clip0x7f8757f1f010"><path d="M -3.9 -4.6 L 1342.7 -4.6 L 1342.7 100.3 L -3.9 100.3 Z M -3.9 -4.6 "></path></clipPath><g clip-path="url(#clip0x7f8757f1f010)"><text xml:space="preserve" font-family="ComicSansMS,Comic Sans MS" font-size="50.0" fill="#000000" transform="matrix(1.00, 0.00, -0.00, -1.00, 239.6, 27.4)">c</text><text xml:space="preserve" font-family="ComicSansMS,Comic Sans MS" font-size="50.0" fill="#000000" transform="matrix(1.00, 0.00, -0.00, -1.00, 265.3, 27.4)">i</text><text xml:space="preserve" font-family="ComicSansMS,Comic Sans MS" font-size="50.0" fill="#000000" transform="matrix(1.00, 0.00, -0.00, -1.00, 279.3, 27.4)">n</text><text xml:space="preserve" font-family="ComicSansMS,Comic Sans MS" font-size="50.0" fill="#000000" transform="matrix(1.00, 0.00, -0.00, -1.00, 305.6, 27.4)">c</text><text xml:space="preserve" font-family="ComicSansMS,Comic Sans MS" font-size="50.0" fill="#000000" transform="matrix(1.00, 0.00, -0.00, -1.00, 331.2, 27.4)">o</text><text xml:space="preserve" font-family="ComicSansMS,Comic Sans MS" font-size="50.0" fill="#000000" transform="matrix(1.00, 0.00, -0.00, -1.00, 357.5, 27.4)"> </text><text xml:space="preserve" font-family="ComicSansMS-Bold,Comic Sans MS" font-weight="bold" font-size="50.0" fill="#000000" transform="matrix(1.00, 0.00, -0.00, -1.00, 372.4, 27.4)">m</text><text xml:space="preserve" font-family="ComicSansMS-Bold,Comic Sans MS" font-weight="bold" font-size="50.0" fill="#000000" transform="matrix(1.00, 0.00, -0.00, -1.00, 411.3, 27.4)">i</text><text xml:space="preserve" font-family="ComicSansMS-Bold,Comic Sans MS" font-weight="bold" font-size="50.0" fill="#000000" transform="matrix(1.00, 0.00, -0.00, -1.00, 425.3, 27.4)">l</text><text xml:space="preserve" font-family="ComicSansMS-Bold,Comic Sans MS" font-weight="bold" font-size="50.0" fill="#000000" transform="matrix(1.00, 0.00, -0.00, -1.00, 439.0, 27.4)">l</text><text xml:space="preserve" font-family="ComicSansMS-Bold,Comic Sans MS" font-weight="bold" font-size="50.0" fill="#000000" transform="matrix(1.00, 0.00, -0.00, -1.00, 452.6, 27.4)">รณ</text><text xml:space="preserve" font-family="ComicSansMS-Bold,Comic Sans MS" font-weight="bold" font-size="50.0" fill="#000000" transform="matrix(1.00, 0.00, -0.00, -1.00, 478.9, 27.4)">n</text><text xml:space="preserve" font-family="ComicSansMS,Comic Sans MS" font-size="50.0" fill="#000000" transform="matrix(1.00, 0.00, -0.00, -1.00, 505.1, 27.4)"> </text><text xml:space="preserve" font-family="ComicSansMS,Comic Sans MS" font-size="50.0" fill="#000000" transform="matrix(1.00, 0.00, -0.00, -1.00, 520.1, 27.4)">s</text><text xml:space="preserve" font-family="ComicSansMS,Comic Sans MS" font-size="50.0" fill="#000000" transform="matrix(1.00, 0.00, -0.00, -1.00, 544.4, 27.4)">e</text><text xml:space="preserve" font-family="ComicSansMS,Comic Sans MS" font-size="50.0" fill="#000000" transform="matrix(1.00, 0.00, -0.00, -1.00, 571.8, 27.4)">s</text><text xml:space="preserve" font-family="ComicSansMS,Comic Sans MS" font-size="50.0" fill="#000000" transform="matrix(1.00, 0.00, -0.00, -1.00, 596.1, 27.4)">e</text><text xml:space="preserve" font-family="ComicSansMS,Comic Sans MS" font-size="50.0" fill="#000000" transform="matrix(1.00, 0.00, -0.00, -1.00, 623.5, 27.4)">n</text><text xml:space="preserve" font-family="ComicSansMS,Comic Sans MS" font-size="50.0" fill="#000000" transform="matrix(1.00, 0.00, -0.00, -1.00, 649.7, 27.4)">t</text><text xml:space="preserve" font-family="ComicSansMS,Comic Sans MS" font-size="50.0" fill="#000000" transform="matrix(1.00, 0.00, -0.00, -1.00, 673.2, 27.4)">a</text><text xml:space="preserve" font-family="ComicSansMS,Comic Sans MS" font-size="50.0" fill="#000000" transform="matrix(1.00, 0.00, -0.00, -1.00, 698.8, 27.4)"> </text><text xml:space="preserve" font-family="ComicSansMS,Comic Sans MS" font-size="50.0" fill="#000000" transform="matrix(1.00, 0.00, -0.00, -1.00, 713.8, 27.4)">y</text><text xml:space="preserve" font-family="ComicSansMS,Comic Sans MS" font-size="50.0" fill="#000000" transform="matrix(1.00, 0.00, -0.00, -1.00, 739.8, 27.4)"> </text><text xml:space="preserve" font-family="ComicSansMS,Comic Sans MS" font-size="50.0" fill="#000000" transform="matrix(1.00, 0.00, -0.00, -1.00, 754.7, 27.4)">s</text><text xml:space="preserve" font-family="ComicSansMS,Comic Sans MS" font-size="50.0" fill="#000000" transform="matrix(1.00, 0.00, -0.00, -1.00, 779.0, 27.4)">i</text><text xml:space="preserve" font-family="ComicSansMS,Comic Sans MS" font-size="50.0" fill="#000000" transform="matrix(1.00, 0.00, -0.00, -1.00, 793.1, 27.4)">e</text><text xml:space="preserve" font-family="ComicSansMS,Comic Sans MS" font-size="50.0" fill="#000000" transform="matrix(1.00, 0.00, -0.00, -1.00, 820.5, 27.4)">t</text><text xml:space="preserve" font-family="ComicSansMS,Comic Sans MS" font-size="50.0" fill="#000000" transform="matrix(1.00, 0.00, -0.00, -1.00, 844.0, 27.4)">e</text><text xml:space="preserve" font-family="ComicSansMS,Comic Sans MS" font-size="50.0" fill="#000000" transform="matrix(1.00, 0.00, -0.00, -1.00, 871.4, 27.4)"> </text><text xml:space="preserve" font-family="ComicSansMS-Bold,Comic Sans MS" font-weight="bold" font-size="50.0" fill="#000000" transform="matrix(1.00, 0.00, -0.00, -1.00, 886.4, 27.4)">m</text><text xml:space="preserve" font-family="ComicSansMS-Bold,Comic Sans MS" font-weight="bold" font-size="50.0" fill="#000000" transform="matrix(1.00, 0.00, -0.00, -1.00, 925.2, 27.4)">i</text><text xml:space="preserve" font-family="ComicSansMS-Bold,Comic Sans MS" font-weight="bold" font-size="50.0" fill="#000000" transform="matrix(1.00, 0.00, -0.00, -1.00, 939.3, 27.4)">l</text><text xml:space="preserve" font-family="ComicSansMS,Comic Sans MS" font-size="50.0" fill="#000000" transform="matrix(1.00, 0.00, -0.00, -1.00, 953.0, 27.4)"> </text><text xml:space="preserve" font-family="ComicSansMS,Comic Sans MS" font-size="50.0" fill="#000000" transform="matrix(1.00, 0.00, -0.00, -1.00, 967.9, 27.4)">n</text><text xml:space="preserve" font-family="ComicSansMS,Comic Sans MS" font-size="50.0" fill="#000000" transform="matrix(1.00, 0.00, -0.00, -1.00, 994.1, 27.4)">u</text><text xml:space="preserve" font-family="ComicSansMS,Comic Sans MS" font-size="50.0" fill="#000000" transform="matrix(1.00, 0.00, -0.00, -1.00, 1020.1, 27.4)">e</text><text xml:space="preserve" font-family="ComicSansMS,Comic Sans MS" font-size="50.0" fill="#000000" transform="matrix(1.00, 0.00, -0.00, -1.00, 1047.5, 27.4)">v</text><text xml:space="preserve" font-family="ComicSansMS,Comic Sans MS" font-size="50.0" fill="#000000" transform="matrix(1.00, 0.00, -0.00, -1.00, 1071.8, 27.4)">e</text><path d="M 367.5 70.7 L 500.2 70.7 " fill="none" stroke="#000000" stroke-width="4.27" transform="matrix(1.00, 0.00, 0.00, -1.00, 4.9, 91.5)"></path><path d="M 881.5 70.7 L 948.1 70.7 " fill="none" stroke="#000000" stroke-width="4.27" transform="matrix(1.00, 0.00, 0.00, -1.00, 4.9, 91.5)"></path></g></g></g></svg>