<?xml version="1.0" encoding="UTF-8" standalone="no"?><svg xmlns="http://www.w3.org/2000/svg" xmlns:xlink="http://www.w3.org/1999/xlink" clip-rule="evenodd" stroke-miterlimit="10" viewBox="0 0 173 44"><desc>SVG generated by Keynote</desc><defs></defs><g transform="matrix(1.00, 0.00, -0.00, -1.00, 0.0, 44.0)"><path d="M 2.5 42.5 L 171.5 42.5 L 171.5 1.5 L 2.5 1.5 Z M 2.2 42.2 " fill="#FFFFFF"></path><path d="M 0.3 -0.3 L 169.3 -0.3 L 169.3 40.7 L 0.3 40.7 Z M 0.0 0.0 " fill="none" stroke="#FFFFFF" stroke-width="1.00" stroke-linejoin="bevel" transform="matrix(1.00, 0.00, 0.00, -1.00, 2.2, 42.2)"></path><g><clipPath id="clip0x7f875c591bc0"><path d="M 2.7 2.1 L 170.9 2.1 L 170.9 41.7 L 2.7 41.7 Z M 2.7 2.1 "></path></clipPath><g clip-path="url(#clip0x7f875c591bc0)"><text xml:space="preserve" font-family="Arial-BoldMT,Arial" font-weight="bold" font-size="20.0" fill="#000000" transform="matrix(1.00, 0.00, -0.00, -1.00, 31.2, 15.0)">1</text><text xml:space="preserve" font-family="Arial-BoldMT,Arial" font-weight="bold" font-size="20.0" fill="#000000" transform="matrix(1.00, 0.00, -0.00, -1.00, 42.3, 15.0)">0</text><text xml:space="preserve" font-family="Arial-BoldMT,Arial" font-weight="bold" font-size="20.0" fill="#000000" transform="matrix(1.00, 0.00, -0.00, -1.00, 53.4, 15.0)">0</text><text xml:space="preserve" font-family="ArialMT,Arial" font-size="20.0" fill="#000000" transform="matrix(1.00, 0.00, -0.00, -1.00, 64.6, 15.0)">,</text><text xml:space="preserve" font-family="ArialMT,Arial" font-size="20.0" fill="#000000" transform="matrix(1.00, 0.00, -0.00, -1.00, 70.1, 15.0)">0</text><text xml:space="preserve" font-family="ArialMT,Arial" font-size="20.0" fill="#000000" transform="matrix(1.00, 0.00, -0.00, -1.00, 81.2, 15.0)">0</text><text xml:space="preserve" font-family="ArialMT,Arial" font-size="20.0" fill="#000000" transform="matrix(1.00, 0.00, -0.00, -1.00, 92.3, 15.0)">0</text><text xml:space="preserve" font-family="ArialMT,Arial" font-size="20.0" fill="#000000" transform="matrix(1.00, 0.00, -0.00, -1.00, 103.5, 15.0)">,</text><text xml:space="preserve" font-family="ArialMT,Arial" font-size="20.0" fill="#000000" transform="matrix(1.00, 0.00, -0.00, -1.00, 109.0, 15.0)">0</text><text xml:space="preserve" font-family="ArialMT,Arial" font-size="20.0" fill="#000000" transform="matrix(1.00, 0.00, -0.00, -1.00, 120.1, 15.0)">0</text><text xml:space="preserve" font-family="ArialMT,Arial" font-size="20.0" fill="#000000" transform="matrix(1.00, 0.00, -0.00, -1.00, 131.3, 15.0)">0</text></g></g></g></svg>