<?xml version="1.0" encoding="UTF-8" standalone="no"?><svg xmlns="http://www.w3.org/2000/svg" xmlns:xlink="http://www.w3.org/1999/xlink" clip-rule="evenodd" stroke-miterlimit="10" viewBox="0 0 655 122"><desc>SVG generated by Keynote</desc><defs></defs><g transform="matrix(1.00, 0.00, -0.00, -1.00, 0.0, 122.0)"><text xml:space="preserve" font-family="ComicSansMS,Comic Sans MS" font-size="126.0" fill="#000000" transform="matrix(1.00, 0.00, -0.00, -1.00, -7.8, 23.7)">1</text><text xml:space="preserve" font-family="ComicSansMS,Comic Sans MS" font-size="126.0" fill="#000000" transform="matrix(1.00, 0.00, -0.00, -1.00, 48.9, 23.7)">3</text><text xml:space="preserve" font-family="ComicSansMS,Comic Sans MS" font-size="126.0" fill="#000000" transform="matrix(1.00, 0.00, -0.00, -1.00, 125.9, 23.7)">,</text><text xml:space="preserve" font-family="ComicSansMS,Comic Sans MS" font-size="126.0" fill="#000000" transform="matrix(1.00, 0.00, -0.00, -1.00, 160.8, 23.7)">9</text><text xml:space="preserve" font-family="ComicSansMS,Comic Sans MS" font-size="126.0" fill="#000000" transform="matrix(1.00, 0.00, -0.00, -1.00, 237.7, 23.7)">7</text><text xml:space="preserve" font-family="ComicSansMS,Comic Sans MS" font-size="126.0" fill="#000000" transform="matrix(1.00, 0.00, -0.00, -1.00, 314.6, 23.7)">6</text><text xml:space="preserve" font-family="ComicSansMS,Comic Sans MS" font-size="126.0" fill="#000000" transform="matrix(1.00, 0.00, -0.00, -1.00, 391.6, 23.7)">,</text><text xml:space="preserve" font-family="ComicSansMS,Comic Sans MS" font-size="126.0" fill="#000000" transform="matrix(1.00, 0.00, -0.00, -1.00, 426.5, 23.7)">0</text><text xml:space="preserve" font-family="ComicSansMS,Comic Sans MS" font-size="126.0" fill="#000000" transform="matrix(1.00, 0.00, -0.00, -1.00, 503.4, 23.7)">8</text><text xml:space="preserve" font-family="ComicSansMS,Comic Sans MS" font-size="126.0" fill="#000000" transform="matrix(1.00, 0.00, -0.00, -1.00, 580.3, 23.7)">4</text></g></svg>