<?xml version="1.0" encoding="UTF-8" standalone="no"?><svg xmlns="http://www.w3.org/2000/svg" xmlns:xlink="http://www.w3.org/1999/xlink" clip-rule="evenodd" stroke-miterlimit="10" viewBox="0 0 1093 80"><desc>SVG generated by Keynote</desc><defs></defs><g transform="matrix(1.00, 0.00, -0.00, -1.00, 0.0, 80.0)"><text xml:space="preserve" font-family="ComicSansMS,Comic Sans MS" font-size="56.0" fill="#000000" transform="matrix(1.00, 0.00, -0.00, -1.00, 0.7, 17.7)">¿</text><text xml:space="preserve" font-family="ComicSansMS,Comic Sans MS" font-size="56.0" fill="#000000" transform="matrix(1.00, 0.00, -0.00, -1.00, 30.0, 17.7)">C</text><text xml:space="preserve" font-family="ComicSansMS,Comic Sans MS" font-size="56.0" fill="#000000" transform="matrix(1.00, 0.00, -0.00, -1.00, 63.7, 17.7)">u</text><text xml:space="preserve" font-family="ComicSansMS,Comic Sans MS" font-size="56.0" fill="#000000" transform="matrix(1.00, 0.00, -0.00, -1.00, 92.9, 17.7)">á</text><text xml:space="preserve" font-family="ComicSansMS,Comic Sans MS" font-size="56.0" fill="#000000" transform="matrix(1.00, 0.00, -0.00, -1.00, 121.5, 17.7)">l</text><text xml:space="preserve" font-family="ComicSansMS,Comic Sans MS" font-size="56.0" fill="#000000" transform="matrix(1.00, 0.00, -0.00, -1.00, 136.8, 17.7)"> </text><text xml:space="preserve" font-family="ComicSansMS,Comic Sans MS" font-size="56.0" fill="#000000" transform="matrix(1.00, 0.00, -0.00, -1.00, 153.6, 17.7)">n</text><text xml:space="preserve" font-family="ComicSansMS,Comic Sans MS" font-size="56.0" fill="#000000" transform="matrix(1.00, 0.00, -0.00, -1.00, 182.9, 17.7)">ú</text><text xml:space="preserve" font-family="ComicSansMS,Comic Sans MS" font-size="56.0" fill="#000000" transform="matrix(1.00, 0.00, -0.00, -1.00, 212.0, 17.7)">m</text><text xml:space="preserve" font-family="ComicSansMS,Comic Sans MS" font-size="56.0" fill="#000000" transform="matrix(1.00, 0.00, -0.00, -1.00, 255.5, 17.7)">e</text><text xml:space="preserve" font-family="ComicSansMS,Comic Sans MS" font-size="56.0" fill="#000000" transform="matrix(1.00, 0.00, -0.00, -1.00, 286.2, 17.7)">r</text><text xml:space="preserve" font-family="ComicSansMS,Comic Sans MS" font-size="56.0" fill="#000000" transform="matrix(1.00, 0.00, -0.00, -1.00, 313.1, 17.7)">o</text><text xml:space="preserve" font-family="ComicSansMS,Comic Sans MS" font-size="56.0" fill="#000000" transform="matrix(1.00, 0.00, -0.00, -1.00, 342.6, 17.7)"> </text><text xml:space="preserve" font-family="ComicSansMS,Comic Sans MS" font-size="56.0" fill="#000000" transform="matrix(1.00, 0.00, -0.00, -1.00, 359.3, 17.7)">e</text><text xml:space="preserve" font-family="ComicSansMS,Comic Sans MS" font-size="56.0" fill="#000000" transform="matrix(1.00, 0.00, -0.00, -1.00, 390.0, 17.7)">s</text><text xml:space="preserve" font-family="ComicSansMS,Comic Sans MS" font-size="56.0" fill="#000000" transform="matrix(1.00, 0.00, -0.00, -1.00, 417.2, 17.7)">t</text><text xml:space="preserve" font-family="ComicSansMS,Comic Sans MS" font-size="56.0" fill="#000000" transform="matrix(1.00, 0.00, -0.00, -1.00, 443.6, 17.7)">á</text><text xml:space="preserve" font-family="ComicSansMS,Comic Sans MS" font-size="56.0" fill="#000000" transform="matrix(1.00, 0.00, -0.00, -1.00, 472.2, 17.7)"> </text><text xml:space="preserve" font-family="ComicSansMS,Comic Sans MS" font-size="56.0" fill="#000000" transform="matrix(1.00, 0.00, -0.00, -1.00, 489.0, 17.7)">e</text><text xml:space="preserve" font-family="ComicSansMS,Comic Sans MS" font-size="56.0" fill="#000000" transform="matrix(1.00, 0.00, -0.00, -1.00, 519.6, 17.7)">n</text><text xml:space="preserve" font-family="ComicSansMS,Comic Sans MS" font-size="56.0" fill="#000000" transform="matrix(1.00, 0.00, -0.00, -1.00, 549.0, 17.7)"> </text><text xml:space="preserve" font-family="ComicSansMS,Comic Sans MS" font-size="56.0" fill="#000000" transform="matrix(1.00, 0.00, -0.00, -1.00, 565.7, 17.7)">e</text><text xml:space="preserve" font-family="ComicSansMS,Comic Sans MS" font-size="56.0" fill="#000000" transform="matrix(1.00, 0.00, -0.00, -1.00, 596.4, 17.7)">l</text><text xml:space="preserve" font-family="ComicSansMS,Comic Sans MS" font-size="56.0" fill="#000000" transform="matrix(1.00, 0.00, -0.00, -1.00, 611.7, 17.7)"> </text><text xml:space="preserve" font-family="ComicSansMS,Comic Sans MS" font-size="56.0" fill="#000000" transform="matrix(1.00, 0.00, -0.00, -1.00, 628.4, 17.7)">l</text><text xml:space="preserve" font-family="ComicSansMS,Comic Sans MS" font-size="56.0" fill="#000000" transform="matrix(1.00, 0.00, -0.00, -1.00, 643.8, 17.7)">u</text><text xml:space="preserve" font-family="ComicSansMS,Comic Sans MS" font-size="56.0" fill="#000000" transform="matrix(1.00, 0.00, -0.00, -1.00, 672.9, 17.7)">g</text><text xml:space="preserve" font-family="ComicSansMS,Comic Sans MS" font-size="56.0" fill="#000000" transform="matrix(1.00, 0.00, -0.00, -1.00, 702.6, 17.7)">a</text><text xml:space="preserve" font-family="ComicSansMS,Comic Sans MS" font-size="56.0" fill="#000000" transform="matrix(1.00, 0.00, -0.00, -1.00, 731.2, 17.7)">r</text><text xml:space="preserve" font-family="ComicSansMS,Comic Sans MS" font-size="56.0" fill="#000000" transform="matrix(1.00, 0.00, -0.00, -1.00, 758.2, 17.7)"> </text><text xml:space="preserve" font-family="ComicSansMS,Comic Sans MS" font-size="56.0" fill="#000000" transform="matrix(1.00, 0.00, -0.00, -1.00, 774.9, 17.7)">d</text><text xml:space="preserve" font-family="ComicSansMS,Comic Sans MS" font-size="56.0" fill="#000000" transform="matrix(1.00, 0.00, -0.00, -1.00, 807.8, 17.7)">e</text><text xml:space="preserve" font-family="ComicSansMS,Comic Sans MS" font-size="56.0" fill="#000000" transform="matrix(1.00, 0.00, -0.00, -1.00, 838.5, 17.7)"> </text><text xml:space="preserve" font-family="ComicSansMS-Bold,Comic Sans MS" font-weight="bold" font-size="56.0" fill="#000000" transform="matrix(1.00, 0.00, -0.00, -1.00, 855.3, 17.7)">d</text><text xml:space="preserve" font-family="ComicSansMS-Bold,Comic Sans MS" font-weight="bold" font-size="56.0" fill="#000000" transform="matrix(1.00, 0.00, -0.00, -1.00, 888.2, 17.7)">i</text><text xml:space="preserve" font-family="ComicSansMS-Bold,Comic Sans MS" font-weight="bold" font-size="56.0" fill="#000000" transform="matrix(1.00, 0.00, -0.00, -1.00, 904.0, 17.7)">e</text><text xml:space="preserve" font-family="ComicSansMS-Bold,Comic Sans MS" font-weight="bold" font-size="56.0" fill="#000000" transform="matrix(1.00, 0.00, -0.00, -1.00, 935.3, 17.7)">z</text><text xml:space="preserve" font-family="ComicSansMS-Bold,Comic Sans MS" font-weight="bold" font-size="56.0" fill="#000000" transform="matrix(1.00, 0.00, -0.00, -1.00, 965.4, 17.7)"> </text><text xml:space="preserve" font-family="ComicSansMS-Bold,Comic Sans MS" font-weight="bold" font-size="56.0" fill="#000000" transform="matrix(1.00, 0.00, -0.00, -1.00, 989.7, 17.7)">m</text><text xml:space="preserve" font-family="ComicSansMS-Bold,Comic Sans MS" font-weight="bold" font-size="56.0" fill="#000000" transform="matrix(1.00, 0.00, -0.00, -1.00, 1033.2, 17.7)">i</text><text xml:space="preserve" font-family="ComicSansMS-Bold,Comic Sans MS" font-weight="bold" font-size="56.0" fill="#000000" transform="matrix(1.00, 0.00, -0.00, -1.00, 1048.9, 17.7)">l</text><text xml:space="preserve" font-family="ComicSansMS,Comic Sans MS" font-size="56.0" fill="#000000" transform="matrix(1.00, 0.00, -0.00, -1.00, 1064.2, 17.7)">?</text><g><clipPath id="clip0x7f8760894b90"><path d="M 854.3 6.9 L 1064.2 6.9 L 1064.2 13.6 L 854.3 13.6 Z M 854.3 6.9 "></path></clipPath><g clip-path="url(#clip0x7f8760894b90)"><path d="M 985.9 77.8 L 1194.8 77.8 " fill="none" stroke="#000000" stroke-width="4.79" transform="matrix(1.00, 0.00, 0.00, -1.00, -130.6, 88.0)"></path></g></g></g></svg>