<?xml version="1.0" encoding="UTF-8" standalone="no"?><svg xmlns="http://www.w3.org/2000/svg" xmlns:xlink="http://www.w3.org/1999/xlink" clip-rule="evenodd" stroke-miterlimit="10" viewBox="0 0 766 43"><desc>SVG generated by Keynote</desc><defs></defs><g transform="matrix(1.00, 0.00, -0.00, -1.00, 0.0, 43.0)"><text xml:space="preserve" font-family="ArialRoundedMTBold,Arial Rounded MT Bold" font-size="52.0" fill="#000000" transform="matrix(1.00, 0.00, -0.00, -1.00, -2.2, 2.7)">R</text><text xml:space="preserve" font-family="ArialRoundedMTBold,Arial Rounded MT Bold" font-size="52.0" fill="#000000" transform="matrix(1.00, 0.00, -0.00, -1.00, 33.9, 2.7)">o</text><text xml:space="preserve" font-family="ArialRoundedMTBold,Arial Rounded MT Bold" font-size="52.0" fill="#000000" transform="matrix(1.00, 0.00, -0.00, -1.00, 65.3, 2.7)">u</text><text xml:space="preserve" font-family="ArialRoundedMTBold,Arial Rounded MT Bold" font-size="52.0" fill="#000000" transform="matrix(1.00, 0.00, -0.00, -1.00, 96.8, 2.7)">n</text><text xml:space="preserve" font-family="ArialRoundedMTBold,Arial Rounded MT Bold" font-size="52.0" fill="#000000" transform="matrix(1.00, 0.00, -0.00, -1.00, 128.2, 2.7)">d</text><text xml:space="preserve" font-family="ArialRoundedMTBold,Arial Rounded MT Bold" font-size="52.0" fill="#000000" transform="matrix(1.00, 0.00, -0.00, -1.00, 160.7, 2.7)"> </text><text xml:space="preserve" font-family="ArialRoundedMTBold,Arial Rounded MT Bold" font-size="52.0" fill="#000000" transform="matrix(1.00, 0.00, -0.00, -1.00, 173.7, 2.7)">t</text><text xml:space="preserve" font-family="ArialRoundedMTBold,Arial Rounded MT Bold" font-size="52.0" fill="#000000" transform="matrix(1.00, 0.00, -0.00, -1.00, 192.1, 2.7)">o</text><text xml:space="preserve" font-family="ArialRoundedMTBold,Arial Rounded MT Bold" font-size="52.0" fill="#000000" transform="matrix(1.00, 0.00, -0.00, -1.00, 223.5, 2.7)"> </text><text xml:space="preserve" font-family="ArialRoundedMTBold,Arial Rounded MT Bold" font-size="52.0" fill="#000000" transform="matrix(1.00, 0.00, -0.00, -1.00, 236.5, 2.7)">t</text><text xml:space="preserve" font-family="ArialRoundedMTBold,Arial Rounded MT Bold" font-size="52.0" fill="#000000" transform="matrix(1.00, 0.00, -0.00, -1.00, 254.9, 2.7)">h</text><text xml:space="preserve" font-family="ArialRoundedMTBold,Arial Rounded MT Bold" font-size="52.0" fill="#000000" transform="matrix(1.00, 0.00, -0.00, -1.00, 286.3, 2.7)">e</text><text xml:space="preserve" font-family="ArialRoundedMTBold,Arial Rounded MT Bold" font-size="52.0" fill="#000000" transform="matrix(1.00, 0.00, -0.00, -1.00, 317.2, 2.7)"> </text><text xml:space="preserve" font-family="ArialRoundedMTBold,Arial Rounded MT Bold" font-size="52.0" fill="#000000" transform="matrix(1.00, 0.00, -0.00, -1.00, 330.2, 2.7)">n</text><text xml:space="preserve" font-family="ArialRoundedMTBold,Arial Rounded MT Bold" font-size="52.0" fill="#000000" transform="matrix(1.00, 0.00, -0.00, -1.00, 361.6, 2.7)">e</text><text xml:space="preserve" font-family="ArialRoundedMTBold,Arial Rounded MT Bold" font-size="52.0" fill="#000000" transform="matrix(1.00, 0.00, -0.00, -1.00, 392.5, 2.7)">a</text><text xml:space="preserve" font-family="ArialRoundedMTBold,Arial Rounded MT Bold" font-size="52.0" fill="#000000" transform="matrix(1.00, 0.00, -0.00, -1.00, 423.4, 2.7)">r</text><text xml:space="preserve" font-family="ArialRoundedMTBold,Arial Rounded MT Bold" font-size="52.0" fill="#000000" transform="matrix(1.00, 0.00, -0.00, -1.00, 444.9, 2.7)">e</text><text xml:space="preserve" font-family="ArialRoundedMTBold,Arial Rounded MT Bold" font-size="52.0" fill="#000000" transform="matrix(1.00, 0.00, -0.00, -1.00, 475.8, 2.7)">s</text><text xml:space="preserve" font-family="ArialRoundedMTBold,Arial Rounded MT Bold" font-size="52.0" fill="#000000" transform="matrix(1.00, 0.00, -0.00, -1.00, 504.0, 2.7)">t</text><text xml:space="preserve" font-family="ArialRoundedMTBold,Arial Rounded MT Bold" font-size="52.0" fill="#000000" transform="matrix(1.00, 0.00, -0.00, -1.00, 522.4, 2.7)"> </text><text xml:space="preserve" font-family="ArialRoundedMTBold,Arial Rounded MT Bold" font-size="52.0" fill="#000000" transform="matrix(1.00, 0.00, -0.00, -1.00, 535.4, 2.7)">D</text><text xml:space="preserve" font-family="ArialRoundedMTBold,Arial Rounded MT Bold" font-size="52.0" fill="#000000" transform="matrix(1.00, 0.00, -0.00, -1.00, 573.9, 2.7)">O</text><text xml:space="preserve" font-family="ArialRoundedMTBold,Arial Rounded MT Bold" font-size="52.0" fill="#000000" transform="matrix(1.00, 0.00, -0.00, -1.00, 615.1, 2.7)">L</text><text xml:space="preserve" font-family="ArialRoundedMTBold,Arial Rounded MT Bold" font-size="52.0" fill="#000000" transform="matrix(1.00, 0.00, -0.00, -1.00, 646.5, 2.7)">L</text><text xml:space="preserve" font-family="ArialRoundedMTBold,Arial Rounded MT Bold" font-size="52.0" fill="#000000" transform="matrix(1.00, 0.00, -0.00, -1.00, 677.2, 2.7)">A</text><text xml:space="preserve" font-family="ArialRoundedMTBold,Arial Rounded MT Bold" font-size="52.0" fill="#000000" transform="matrix(1.00, 0.00, -0.00, -1.00, 714.6, 2.7)">R</text><text xml:space="preserve" font-family="ArialRoundedMTBold,Arial Rounded MT Bold" font-size="52.0" fill="#000000" transform="matrix(1.00, 0.00, -0.00, -1.00, 752.1, 2.7)">.</text></g></svg>