<?xml version="1.0" encoding="UTF-8" standalone="no"?><svg xmlns="http://www.w3.org/2000/svg" xmlns:xlink="http://www.w3.org/1999/xlink" clip-rule="evenodd" stroke-miterlimit="10" viewBox="0 0 378 576"><desc>SVG generated by Keynote</desc><defs><linearGradient id="gradSh1.18" x1="0.0" y1="0.0" x2="100.0" y2="0.0" gradientUnits="userSpaceOnUse" gradientTransform="matrix(0.00, 5.52, 3.62, 0.00, 189.5, 11.5)"><stop offset="0.00000" stop-color="#000000"></stop><stop offset="1.00000" stop-color="#000000"></stop></linearGradient></defs><g transform="matrix(1.00, 0.00, -0.00, -1.00, 0.0, 576.0)"><image xlink:href="../../F9073137-4FB7-4A24-9B9C-E529F8C42346/assets/B78F66140010E04D7BD3D52783D82EE8.png" width="375.00" height="565.00" transform="matrix(1.00, 0.00, -0.00, -1.00, 1.9, 566.0)" opacity="0.35"></image><g><clipPath id="clip0x7f875df84660"><path d="M 9.5 38.0 L 9.5 537.5 C 9.5 551.3 20.6 562.5 34.4 562.5 L 344.4 562.5 C 358.2 562.5 369.5 551.3 369.5 537.5 L 369.5 38.0 C 369.5 24.2 358.2 12.5 344.4 12.5 L 34.4 12.5 C 20.6 12.5 9.5 24.2 9.5 38.0 Z M 9.4 38.0 "></path></clipPath><g clip-path="url(#clip0x7f875df84660)"><path d="M 9.5 38.0 L 9.5 537.5 C 9.5 551.3 20.6 562.5 34.4 562.5 L 344.4 562.5 C 358.2 562.5 369.5 551.3 369.5 537.5 L 369.5 38.0 C 369.5 24.2 358.2 12.5 344.4 12.5 L 34.4 12.5 C 20.6 12.5 9.5 24.2 9.5 38.0 Z M 9.4 38.0 " fill="url(#gradSh1.18)"></path></g></g><path d="M 0.1 524.5 L 0.1 25.0 C 0.1 11.2 11.2 0.0 25.0 0.0 L 335.0 0.0 C 348.8 0.0 360.1 11.2 360.1 25.0 L 360.1 524.5 C 360.1 538.3 348.8 550.0 335.0 550.0 L 25.0 550.0 C 11.2 550.0 0.1 538.3 0.1 524.5 Z M 0.0 524.5 " fill="none" stroke="#000000" stroke-width="1.00" stroke-linejoin="bevel" transform="matrix(1.00, 0.00, 0.00, -1.00, 9.4, 562.5)"></path></g></svg>