<?xml version="1.0" encoding="UTF-8" standalone="no"?><svg xmlns="http://www.w3.org/2000/svg" xmlns:xlink="http://www.w3.org/1999/xlink" clip-rule="evenodd" stroke-miterlimit="10" viewBox="0 0 707 79"><desc>SVG generated by Keynote</desc><defs></defs><g transform="matrix(1.00, 0.00, -0.00, -1.00, 0.0, 79.0)"><text xml:space="preserve" font-family="ComicSansMS,Comic Sans MS" font-size="56.0" fill="#000000" transform="matrix(1.00, 0.00, -0.00, -1.00, 0.2, 17.1)">I</text><text xml:space="preserve" font-family="ComicSansMS,Comic Sans MS" font-size="56.0" fill="#000000" transform="matrix(1.00, 0.00, -0.00, -1.00, 30.9, 17.1)">d</text><text xml:space="preserve" font-family="ComicSansMS,Comic Sans MS" font-size="56.0" fill="#000000" transform="matrix(1.00, 0.00, -0.00, -1.00, 63.8, 17.1)">e</text><text xml:space="preserve" font-family="ComicSansMS,Comic Sans MS" font-size="56.0" fill="#000000" transform="matrix(1.00, 0.00, -0.00, -1.00, 94.5, 17.1)">n</text><text xml:space="preserve" font-family="ComicSansMS,Comic Sans MS" font-size="56.0" fill="#000000" transform="matrix(1.00, 0.00, -0.00, -1.00, 123.8, 17.1)">t</text><text xml:space="preserve" font-family="ComicSansMS,Comic Sans MS" font-size="56.0" fill="#000000" transform="matrix(1.00, 0.00, -0.00, -1.00, 150.2, 17.1)">i</text><text xml:space="preserve" font-family="ComicSansMS,Comic Sans MS" font-size="56.0" fill="#000000" transform="matrix(1.00, 0.00, -0.00, -1.00, 165.9, 17.1)">f</text><text xml:space="preserve" font-family="ComicSansMS,Comic Sans MS" font-size="56.0" fill="#000000" transform="matrix(1.00, 0.00, -0.00, -1.00, 194.4, 17.1)">i</text><text xml:space="preserve" font-family="ComicSansMS,Comic Sans MS" font-size="56.0" fill="#000000" transform="matrix(1.00, 0.00, -0.00, -1.00, 210.1, 17.1)">c</text><text xml:space="preserve" font-family="ComicSansMS,Comic Sans MS" font-size="56.0" fill="#000000" transform="matrix(1.00, 0.00, -0.00, -1.00, 238.8, 17.1)">a</text><text xml:space="preserve" font-family="ComicSansMS,Comic Sans MS" font-size="56.0" fill="#000000" transform="matrix(1.00, 0.00, -0.00, -1.00, 267.5, 17.1)"> </text><text xml:space="preserve" font-family="ComicSansMS,Comic Sans MS" font-size="56.0" fill="#000000" transform="matrix(1.00, 0.00, -0.00, -1.00, 284.2, 17.1)">e</text><text xml:space="preserve" font-family="ComicSansMS,Comic Sans MS" font-size="56.0" fill="#000000" transform="matrix(1.00, 0.00, -0.00, -1.00, 314.9, 17.1)">l</text><text xml:space="preserve" font-family="ComicSansMS,Comic Sans MS" font-size="56.0" fill="#000000" transform="matrix(1.00, 0.00, -0.00, -1.00, 330.2, 17.1)"> </text><text xml:space="preserve" font-family="ComicSansMS,Comic Sans MS" font-size="56.0" fill="#000000" transform="matrix(1.00, 0.00, -0.00, -1.00, 346.9, 17.1)">l</text><text xml:space="preserve" font-family="ComicSansMS,Comic Sans MS" font-size="56.0" fill="#000000" transform="matrix(1.00, 0.00, -0.00, -1.00, 362.3, 17.1)">u</text><text xml:space="preserve" font-family="ComicSansMS,Comic Sans MS" font-size="56.0" fill="#000000" transform="matrix(1.00, 0.00, -0.00, -1.00, 391.4, 17.1)">g</text><text xml:space="preserve" font-family="ComicSansMS,Comic Sans MS" font-size="56.0" fill="#000000" transform="matrix(1.00, 0.00, -0.00, -1.00, 421.1, 17.1)">a</text><text xml:space="preserve" font-family="ComicSansMS,Comic Sans MS" font-size="56.0" fill="#000000" transform="matrix(1.00, 0.00, -0.00, -1.00, 449.7, 17.1)">r</text><text xml:space="preserve" font-family="ComicSansMS,Comic Sans MS" font-size="56.0" fill="#000000" transform="matrix(1.00, 0.00, -0.00, -1.00, 476.7, 17.1)"> </text><text xml:space="preserve" font-family="ComicSansMS,Comic Sans MS" font-size="56.0" fill="#000000" transform="matrix(1.00, 0.00, -0.00, -1.00, 493.4, 17.1)">d</text><text xml:space="preserve" font-family="ComicSansMS,Comic Sans MS" font-size="56.0" fill="#000000" transform="matrix(1.00, 0.00, -0.00, -1.00, 526.3, 17.1)">e</text><text xml:space="preserve" font-family="ComicSansMS,Comic Sans MS" font-size="56.0" fill="#000000" transform="matrix(1.00, 0.00, -0.00, -1.00, 557.0, 17.1)"> </text><text xml:space="preserve" font-family="ComicSansMS-Bold,Comic Sans MS" font-weight="bold" font-size="56.0" fill="#000000" transform="matrix(1.00, 0.00, -0.00, -1.00, 573.7, 17.1)">c</text><text xml:space="preserve" font-family="ComicSansMS-Bold,Comic Sans MS" font-weight="bold" font-size="56.0" fill="#000000" transform="matrix(1.00, 0.00, -0.00, -1.00, 602.4, 17.1)">i</text><text xml:space="preserve" font-family="ComicSansMS-Bold,Comic Sans MS" font-weight="bold" font-size="56.0" fill="#000000" transform="matrix(1.00, 0.00, -0.00, -1.00, 618.1, 17.1)">e</text><text xml:space="preserve" font-family="ComicSansMS-Bold,Comic Sans MS" font-weight="bold" font-size="56.0" fill="#000000" transform="matrix(1.00, 0.00, -0.00, -1.00, 649.4, 17.1)">n</text><text xml:space="preserve" font-family="ComicSansMS,Comic Sans MS" font-size="56.0" fill="#000000" transform="matrix(1.00, 0.00, -0.00, -1.00, 678.7, 17.1)">?</text><g><clipPath id="clip0x7f875ee3ee10"><path d="M 572.7 6.3 L 678.7 6.3 L 678.7 13.0 L 572.7 13.0 Z M 572.7 6.3 "></path></clipPath><g clip-path="url(#clip0x7f875ee3ee10)"><path d="M 582.1 77.8 L 687.1 77.8 " fill="none" stroke="#000000" stroke-width="4.79" transform="matrix(1.00, 0.00, 0.00, -1.00, -8.4, 87.4)"></path></g></g></g></svg>