<?xml version="1.0" encoding="UTF-8" standalone="no"?><svg xmlns="http://www.w3.org/2000/svg" xmlns:xlink="http://www.w3.org/1999/xlink" clip-rule="evenodd" stroke-miterlimit="10" viewBox="0 0 1920 1080"><desc>SVG generated by Keynote</desc><defs></defs><g transform="matrix(1.00, 0.00, -0.00, -1.00, 0.0, 1080.0)"><path d="M 0.0 1080.0 L 1920.0 1080.0 L 1920.0 0.0 L 0.0 0.0 Z M 0.0 1080.0 " fill="#FFFFFF"></path><path d="M 240.5 1079.5 L 1680.5 1079.5 L 1680.5 -0.5 L 240.5 -0.5 Z M 240.0 1080.0 " fill="#000000"></path><path d="M 0.5 0.5 L 1440.5 0.5 L 1440.5 1080.5 L 0.5 1080.5 Z M 0.0 0.0 " fill="none" stroke="#800000" stroke-width="1.00" stroke-linejoin="bevel" transform="matrix(1.00, 0.00, 0.00, -1.00, 240.0, 1080.0)"></path><text xml:space="preserve" font-family="ComicSansMS,Comic Sans MS" font-size="128.0" fill="#FFFFFF" transform="matrix(1.00, 0.00, -0.00, -1.00, 859.3, 721.9)">L</text><text xml:space="preserve" font-family="ComicSansMS,Comic Sans MS" font-size="128.0" fill="#FFFFFF" transform="matrix(1.00, 0.00, -0.00, -1.00, 929.8, 721.9)">e</text><text xml:space="preserve" font-family="ComicSansMS,Comic Sans MS" font-size="128.0" fill="#FFFFFF" transform="matrix(1.00, 0.00, -0.00, -1.00, 999.9, 721.9)">a</text><text xml:space="preserve" font-family="ComicSansMS,Comic Sans MS" font-size="128.0" fill="#FFFFFF" transform="matrix(1.00, 0.00, -0.00, -1.00, 1065.4, 721.9)"> </text><text xml:space="preserve" font-family="ComicSansMS,Comic Sans MS" font-size="128.0" fill="#FFFFFF" transform="matrix(1.00, 0.00, -0.00, -1.00, 1103.6, 721.9)"> </text><text xml:space="preserve" font-family="ComicSansMS,Comic Sans MS" font-size="128.0" fill="#FFFFFF" transform="matrix(1.00, 0.00, -0.00, -1.00, 880.1, 543.9)">l</text><text xml:space="preserve" font-family="ComicSansMS,Comic Sans MS" font-size="128.0" fill="#FFFFFF" transform="matrix(1.00, 0.00, -0.00, -1.00, 915.1, 543.9)">o</text><text xml:space="preserve" font-family="ComicSansMS,Comic Sans MS" font-size="128.0" fill="#FFFFFF" transform="matrix(1.00, 0.00, -0.00, -1.00, 982.4, 543.9)">s</text><text xml:space="preserve" font-family="ComicSansMS,Comic Sans MS" font-size="128.0" fill="#FFFFFF" transform="matrix(1.00, 0.00, -0.00, -1.00, 1044.7, 543.9)"> </text><text xml:space="preserve" font-family="ComicSansMS,Comic Sans MS" font-size="128.0" fill="#FFFFFF" transform="matrix(1.00, 0.00, -0.00, -1.00, 1082.9, 543.9)"> </text><text xml:space="preserve" font-family="ComicSansMS,Comic Sans MS" font-size="128.0" fill="#FFFFFF" transform="matrix(1.00, 0.00, -0.00, -1.00, 398.9, 365.9)">n</text><text xml:space="preserve" font-family="ComicSansMS,Comic Sans MS" font-size="128.0" fill="#FFFFFF" transform="matrix(1.00, 0.00, -0.00, -1.00, 466.0, 365.9)">ú</text><text xml:space="preserve" font-family="ComicSansMS,Comic Sans MS" font-size="128.0" fill="#FFFFFF" transform="matrix(1.00, 0.00, -0.00, -1.00, 532.5, 365.9)">m</text><text xml:space="preserve" font-family="ComicSansMS,Comic Sans MS" font-size="128.0" fill="#FFFFFF" transform="matrix(1.00, 0.00, -0.00, -1.00, 632.0, 365.9)">e</text><text xml:space="preserve" font-family="ComicSansMS,Comic Sans MS" font-size="128.0" fill="#FFFFFF" transform="matrix(1.00, 0.00, -0.00, -1.00, 702.1, 365.9)">r</text><text xml:space="preserve" font-family="ComicSansMS,Comic Sans MS" font-size="128.0" fill="#FFFFFF" transform="matrix(1.00, 0.00, -0.00, -1.00, 763.6, 365.9)">o</text><text xml:space="preserve" font-family="ComicSansMS,Comic Sans MS" font-size="128.0" fill="#FFFFFF" transform="matrix(1.00, 0.00, -0.00, -1.00, 830.9, 365.9)">s</text><text xml:space="preserve" font-family="ComicSansMS,Comic Sans MS" font-size="128.0" fill="#FFFFFF" transform="matrix(1.00, 0.00, -0.00, -1.00, 893.2, 365.9)"> </text><text xml:space="preserve" font-family="ComicSansMS,Comic Sans MS" font-size="128.0" fill="#FFFFFF" transform="matrix(1.00, 0.00, -0.00, -1.00, 931.5, 365.9)">s</text><text xml:space="preserve" font-family="ComicSansMS,Comic Sans MS" font-size="128.0" fill="#FFFFFF" transform="matrix(1.00, 0.00, -0.00, -1.00, 993.7, 365.9)">i</text><text xml:space="preserve" font-family="ComicSansMS,Comic Sans MS" font-size="128.0" fill="#FFFFFF" transform="matrix(1.00, 0.00, -0.00, -1.00, 1029.7, 365.9)">g</text><text xml:space="preserve" font-family="ComicSansMS,Comic Sans MS" font-size="128.0" fill="#FFFFFF" transform="matrix(1.00, 0.00, -0.00, -1.00, 1097.6, 365.9)">u</text><text xml:space="preserve" font-family="ComicSansMS,Comic Sans MS" font-size="128.0" fill="#FFFFFF" transform="matrix(1.00, 0.00, -0.00, -1.00, 1164.1, 365.9)">e</text><text xml:space="preserve" font-family="ComicSansMS,Comic Sans MS" font-size="128.0" fill="#FFFFFF" transform="matrix(1.00, 0.00, -0.00, -1.00, 1234.2, 365.9)">n</text><text xml:space="preserve" font-family="ComicSansMS,Comic Sans MS" font-size="128.0" fill="#FFFFFF" transform="matrix(1.00, 0.00, -0.00, -1.00, 1301.3, 365.9)">t</text><text xml:space="preserve" font-family="ComicSansMS,Comic Sans MS" font-size="128.0" fill="#FFFFFF" transform="matrix(1.00, 0.00, -0.00, -1.00, 1361.6, 365.9)">e</text><text xml:space="preserve" font-family="ComicSansMS,Comic Sans MS" font-size="128.0" fill="#FFFFFF" transform="matrix(1.00, 0.00, -0.00, -1.00, 1431.7, 365.9)">s</text><text xml:space="preserve" font-family="ComicSansMS,Comic Sans MS" font-size="128.0" fill="#FFFFFF" transform="matrix(1.00, 0.00, -0.00, -1.00, 1494.0, 365.9)">.</text></g></svg>