<?xml version="1.0" encoding="UTF-8" standalone="no"?><svg xmlns="http://www.w3.org/2000/svg" xmlns:xlink="http://www.w3.org/1999/xlink" clip-rule="evenodd" stroke-miterlimit="10" viewBox="0 0 94 44"><desc>SVG generated by Keynote</desc><defs></defs><g transform="matrix(1.00, 0.00, -0.00, -1.00, 0.0, 44.0)"><path d="M 2.5 42.5 L 92.5 42.5 L 92.5 1.5 L 2.5 1.5 Z M 2.4 42.2 " fill="#FFFFFF"></path><path d="M 0.1 -0.3 L 90.1 -0.3 L 90.1 40.7 L 0.1 40.7 Z M 0.0 0.0 " fill="none" stroke="#FFFFFF" stroke-width="1.00" stroke-linejoin="bevel" transform="matrix(1.00, 0.00, 0.00, -1.00, 2.4, 42.2)"></path><g><clipPath id="clip0x7f87583d31f0"><path d="M 2.9 2.1 L 91.9 2.1 L 91.9 41.7 L 2.9 41.7 Z M 2.9 2.1 "></path></clipPath><g clip-path="url(#clip0x7f87583d31f0)"><text xml:space="preserve" font-family="Arial-BoldMT,Arial" font-weight="bold" font-size="20.0" fill="#000000" transform="matrix(1.00, 0.00, -0.00, -1.00, 30.7, 15.0)">1</text><text xml:space="preserve" font-family="Arial-BoldMT,Arial" font-weight="bold" font-size="20.0" fill="#000000" transform="matrix(1.00, 0.00, -0.00, -1.00, 41.8, 15.0)">0</text><text xml:space="preserve" font-family="Arial-BoldMT,Arial" font-weight="bold" font-size="20.0" fill="#000000" transform="matrix(1.00, 0.00, -0.00, -1.00, 53.0, 15.0)">0</text></g></g></g></svg>