<?xml version="1.0" encoding="UTF-8" standalone="no"?><svg xmlns="http://www.w3.org/2000/svg" xmlns:xlink="http://www.w3.org/1999/xlink" clip-rule="evenodd" stroke-miterlimit="10" viewBox="0 0 142 44"><desc>SVG generated by Keynote</desc><defs></defs><g transform="matrix(1.00, 0.00, -0.00, -1.00, 0.0, 44.0)"><text xml:space="preserve" font-family="Avenir-Medium,Avenir" font-size="46.0" fill="#008E4A" transform="matrix(1.00, 0.00, -0.00, -1.00, 1.8, 42.0)">_</text><text xml:space="preserve" font-family="Avenir-Medium,Avenir" font-size="46.0" fill="#008E4A" transform="matrix(1.00, 0.00, -0.00, -1.00, 24.8, 42.0)">_</text><text xml:space="preserve" font-family="Avenir-Medium,Avenir" font-size="46.0" fill="#008E4A" transform="matrix(1.00, 0.00, -0.00, -1.00, 47.8, 42.0)">_</text><text xml:space="preserve" font-family="Avenir-Medium,Avenir" font-size="46.0" fill="#008E4A" transform="matrix(1.00, 0.00, -0.00, -1.00, 70.8, 42.0)">_</text><text xml:space="preserve" font-family="Avenir-Medium,Avenir" font-size="46.0" fill="#008E4A" transform="matrix(1.00, 0.00, -0.00, -1.00, 93.8, 42.0)">_</text><text xml:space="preserve" font-family="Avenir-Medium,Avenir" font-size="46.0" fill="#008E4A" transform="matrix(1.00, 0.00, -0.00, -1.00, 116.8, 42.0)">_</text><text xml:space="preserve" font-family="Avenir-Medium,Avenir" font-size="46.0" fill="#008E4A" transform="matrix(1.00, 0.00, -0.00, -1.00, 139.8, 42.0)"> </text><text xml:space="preserve" font-family="Avenir-Medium,Avenir" font-size="18.0" fill="#008E4A" transform="matrix(1.00, 0.00, -0.00, -1.00, 41.5, 6.8)">s</text><text xml:space="preserve" font-family="Avenir-Medium,Avenir" font-size="18.0" fill="#008E4A" transform="matrix(1.00, 0.00, -0.00, -1.00, 49.5, 6.8)">u</text><text xml:space="preserve" font-family="Avenir-Medium,Avenir" font-size="18.0" fill="#008E4A" transform="matrix(1.00, 0.00, -0.00, -1.00, 59.5, 6.8)">b</text><text xml:space="preserve" font-family="Avenir-Medium,Avenir" font-size="18.0" fill="#008E4A" transform="matrix(1.00, 0.00, -0.00, -1.00, 70.5, 6.8)">j</text><text xml:space="preserve" font-family="Avenir-Medium,Avenir" font-size="18.0" fill="#008E4A" transform="matrix(1.00, 0.00, -0.00, -1.00, 74.8, 6.8)">e</text><text xml:space="preserve" font-family="Avenir-Medium,Avenir" font-size="18.0" fill="#008E4A" transform="matrix(1.00, 0.00, -0.00, -1.00, 84.8, 6.8)">c</text><text xml:space="preserve" font-family="Avenir-Medium,Avenir" font-size="18.0" fill="#008E4A" transform="matrix(1.00, 0.00, -0.00, -1.00, 93.5, 6.8)">t</text></g></svg>