<?xml version="1.0" encoding="UTF-8" standalone="no"?><svg xmlns="http://www.w3.org/2000/svg" xmlns:xlink="http://www.w3.org/1999/xlink" clip-rule="evenodd" stroke-miterlimit="10" viewBox="0 0 169 22"><desc>SVG generated by Keynote</desc><defs></defs><g transform="matrix(1.00, 0.00, -0.00, -1.00, 0.0, 22.0)"><text xml:space="preserve" font-family="Avenir-Medium,Avenir" font-size="18.0" fill="#008E4A" transform="matrix(1.00, 0.00, -0.00, -1.00, 0.9, 6.7)">p</text><text xml:space="preserve" font-family="Avenir-Medium,Avenir" font-size="18.0" fill="#008E4A" transform="matrix(1.00, 0.00, -0.00, -1.00, 11.8, 6.7)">r</text><text xml:space="preserve" font-family="Avenir-Medium,Avenir" font-size="18.0" fill="#008E4A" transform="matrix(1.00, 0.00, -0.00, -1.00, 18.2, 6.7)">e</text><text xml:space="preserve" font-family="Avenir-Medium,Avenir" font-size="18.0" fill="#008E4A" transform="matrix(1.00, 0.00, -0.00, -1.00, 28.2, 6.7)">p</text><text xml:space="preserve" font-family="Avenir-Medium,Avenir" font-size="18.0" fill="#008E4A" transform="matrix(1.00, 0.00, -0.00, -1.00, 39.2, 6.7)">o</text><text xml:space="preserve" font-family="Avenir-Medium,Avenir" font-size="18.0" fill="#008E4A" transform="matrix(1.00, 0.00, -0.00, -1.00, 49.9, 6.7)">s</text><text xml:space="preserve" font-family="Avenir-Medium,Avenir" font-size="18.0" fill="#008E4A" transform="matrix(1.00, 0.00, -0.00, -1.00, 57.9, 6.7)">i</text><text xml:space="preserve" font-family="Avenir-Medium,Avenir" font-size="18.0" fill="#008E4A" transform="matrix(1.00, 0.00, -0.00, -1.00, 62.2, 6.7)">t</text><text xml:space="preserve" font-family="Avenir-Medium,Avenir" font-size="18.0" fill="#008E4A" transform="matrix(1.00, 0.00, -0.00, -1.00, 68.9, 6.7)">i</text><text xml:space="preserve" font-family="Avenir-Medium,Avenir" font-size="18.0" fill="#008E4A" transform="matrix(1.00, 0.00, -0.00, -1.00, 73.2, 6.7)">o</text><text xml:space="preserve" font-family="Avenir-Medium,Avenir" font-size="18.0" fill="#008E4A" transform="matrix(1.00, 0.00, -0.00, -1.00, 83.9, 6.7)">n</text><text xml:space="preserve" font-family="Avenir-Medium,Avenir" font-size="18.0" fill="#008E4A" transform="matrix(1.00, 0.00, -0.00, -1.00, 93.9, 6.7)">a</text><text xml:space="preserve" font-family="Avenir-Medium,Avenir" font-size="18.0" fill="#008E4A" transform="matrix(1.00, 0.00, -0.00, -1.00, 103.2, 6.7)">l</text><text xml:space="preserve" font-family="Avenir-Medium,Avenir" font-size="18.0" fill="#008E4A" transform="matrix(1.00, 0.00, -0.00, -1.00, 107.5, 6.7)"> </text><text xml:space="preserve" font-family="Avenir-Medium,Avenir" font-size="18.0" fill="#008E4A" transform="matrix(1.00, 0.00, -0.00, -1.00, 112.5, 6.7)">p</text><text xml:space="preserve" font-family="Avenir-Medium,Avenir" font-size="18.0" fill="#008E4A" transform="matrix(1.00, 0.00, -0.00, -1.00, 123.5, 6.7)">h</text><text xml:space="preserve" font-family="Avenir-Medium,Avenir" font-size="18.0" fill="#008E4A" transform="matrix(1.00, 0.00, -0.00, -1.00, 133.5, 6.7)">r</text><text xml:space="preserve" font-family="Avenir-Medium,Avenir" font-size="18.0" fill="#008E4A" transform="matrix(1.00, 0.00, -0.00, -1.00, 140.2, 6.7)">a</text><text xml:space="preserve" font-family="Avenir-Medium,Avenir" font-size="18.0" fill="#008E4A" transform="matrix(1.00, 0.00, -0.00, -1.00, 149.5, 6.7)">s</text><text xml:space="preserve" font-family="Avenir-Medium,Avenir" font-size="18.0" fill="#008E4A" transform="matrix(1.00, 0.00, -0.00, -1.00, 157.5, 6.7)">e</text></g></svg>