<?xml version="1.0" encoding="UTF-8" standalone="no"?><svg xmlns="http://www.w3.org/2000/svg" xmlns:xlink="http://www.w3.org/1999/xlink" clip-rule="evenodd" stroke-miterlimit="10" viewBox="0 0 796 50"><desc>SVG generated by Keynote</desc><defs></defs><g transform="matrix(1.00, 0.00, -0.00, -1.00, 0.0, 50.0)"><text xml:space="preserve" font-family="Avenir-Medium,Avenir" font-size="46.0" fill="#000000" transform="matrix(1.00, 0.00, -0.00, -1.00, -0.1, 13.2)">O</text><text xml:space="preserve" font-family="Avenir-Medium,Avenir" font-size="46.0" fill="#000000" transform="matrix(1.00, 0.00, -0.00, -1.00, 38.2, 13.2)">n</text><text xml:space="preserve" font-family="Avenir-Medium,Avenir" font-size="46.0" fill="#000000" transform="matrix(1.00, 0.00, -0.00, -1.00, 63.7, 13.2)">e</text><text xml:space="preserve" font-family="Avenir-Medium,Avenir" font-size="46.0" fill="#000000" transform="matrix(1.00, 0.00, -0.00, -1.00, 89.3, 13.2)"> </text><text xml:space="preserve" font-family="Avenir-Medium,Avenir" font-size="46.0" fill="#000000" transform="matrix(1.00, 0.00, -0.00, -1.00, 102.1, 13.2)">o</text><text xml:space="preserve" font-family="Avenir-Medium,Avenir" font-size="46.0" fill="#000000" transform="matrix(1.00, 0.00, -0.00, -1.00, 129.4, 13.2)">f</text><text xml:space="preserve" font-family="Avenir-Medium,Avenir" font-size="46.0" fill="#000000" transform="matrix(1.00, 0.00, -0.00, -1.00, 144.7, 13.2)"> </text><text xml:space="preserve" font-family="Avenir-Medium,Avenir" font-size="46.0" fill="#000000" transform="matrix(1.00, 0.00, -0.00, -1.00, 157.5, 13.2)">t</text><text xml:space="preserve" font-family="Avenir-Medium,Avenir" font-size="46.0" fill="#000000" transform="matrix(1.00, 0.00, -0.00, -1.00, 174.5, 13.2)">h</text><text xml:space="preserve" font-family="Avenir-Medium,Avenir" font-size="46.0" fill="#000000" transform="matrix(1.00, 0.00, -0.00, -1.00, 200.1, 13.2)">e</text><text xml:space="preserve" font-family="Avenir-Medium,Avenir" font-size="46.0" fill="#000000" transform="matrix(1.00, 0.00, -0.00, -1.00, 225.7, 13.2)"> </text><text xml:space="preserve" font-family="Avenir-Medium,Avenir" font-size="46.0" fill="#000000" transform="matrix(1.00, 0.00, -0.00, -1.00, 238.5, 13.2)">g</text><text xml:space="preserve" font-family="Avenir-Medium,Avenir" font-size="46.0" fill="#000000" transform="matrix(1.00, 0.00, -0.00, -1.00, 266.6, 13.2)">i</text><text xml:space="preserve" font-family="Avenir-Medium,Avenir" font-size="46.0" fill="#000000" transform="matrix(1.00, 0.00, -0.00, -1.00, 277.6, 13.2)">r</text><text xml:space="preserve" font-family="Avenir-Medium,Avenir" font-size="46.0" fill="#000000" transform="matrix(1.00, 0.00, -0.00, -1.00, 294.6, 13.2)">l</text><text xml:space="preserve" font-family="Avenir-Medium,Avenir" font-size="46.0" fill="#000000" transform="matrix(1.00, 0.00, -0.00, -1.00, 305.7, 13.2)">s</text><text xml:space="preserve" font-family="Avenir-Medium,Avenir" font-size="46.0" fill="#000000" transform="matrix(1.00, 0.00, -0.00, -1.00, 326.1, 13.2)"> </text><text xml:space="preserve" font-family="Avenir-Medium,Avenir" font-size="46.0" fill="#000000" transform="matrix(1.00, 0.00, -0.00, -1.00, 338.9, 13.2)">_</text><text xml:space="preserve" font-family="Avenir-Medium,Avenir" font-size="46.0" fill="#000000" transform="matrix(1.00, 0.00, -0.00, -1.00, 361.9, 13.2)">_</text><text xml:space="preserve" font-family="Avenir-Medium,Avenir" font-size="46.0" fill="#000000" transform="matrix(1.00, 0.00, -0.00, -1.00, 384.9, 13.2)">_</text><text xml:space="preserve" font-family="Avenir-Medium,Avenir" font-size="46.0" fill="#000000" transform="matrix(1.00, 0.00, -0.00, -1.00, 407.9, 13.2)">_</text><text xml:space="preserve" font-family="Avenir-Medium,Avenir" font-size="46.0" fill="#000000" transform="matrix(1.00, 0.00, -0.00, -1.00, 430.9, 13.2)">_</text><text xml:space="preserve" font-family="Avenir-Medium,Avenir" font-size="46.0" fill="#000000" transform="matrix(1.00, 0.00, -0.00, -1.00, 453.9, 13.2)">_</text><text xml:space="preserve" font-family="Avenir-Medium,Avenir" font-size="46.0" fill="#000000" transform="matrix(1.00, 0.00, -0.00, -1.00, 476.9, 13.2)"> </text><text xml:space="preserve" font-family="Avenir-Medium,Avenir" font-size="46.0" fill="#000000" transform="matrix(1.00, 0.00, -0.00, -1.00, 489.7, 13.2)">t</text><text xml:space="preserve" font-family="Avenir-Medium,Avenir" font-size="46.0" fill="#000000" transform="matrix(1.00, 0.00, -0.00, -1.00, 506.7, 13.2)">o</text><text xml:space="preserve" font-family="Avenir-Medium,Avenir" font-size="46.0" fill="#000000" transform="matrix(1.00, 0.00, -0.00, -1.00, 534.0, 13.2)"> </text><text xml:space="preserve" font-family="Avenir-Medium,Avenir" font-size="46.0" fill="#000000" transform="matrix(1.00, 0.00, -0.00, -1.00, 546.8, 13.2)">b</text><text xml:space="preserve" font-family="Avenir-Medium,Avenir" font-size="46.0" fill="#000000" transform="matrix(1.00, 0.00, -0.00, -1.00, 574.9, 13.2)">e</text><text xml:space="preserve" font-family="Avenir-Medium,Avenir" font-size="46.0" fill="#000000" transform="matrix(1.00, 0.00, -0.00, -1.00, 600.5, 13.2)"> </text><text xml:space="preserve" font-family="Avenir-Medium,Avenir" font-size="46.0" fill="#000000" transform="matrix(1.00, 0.00, -0.00, -1.00, 613.3, 13.2)">a</text><text xml:space="preserve" font-family="Avenir-Medium,Avenir" font-size="46.0" fill="#000000" transform="matrix(1.00, 0.00, -0.00, -1.00, 637.2, 13.2)"> </text><text xml:space="preserve" font-family="Avenir-Medium,Avenir" font-size="46.0" fill="#000000" transform="matrix(1.00, 0.00, -0.00, -1.00, 650.0, 13.2)">d</text><text xml:space="preserve" font-family="Avenir-Medium,Avenir" font-size="46.0" fill="#000000" transform="matrix(1.00, 0.00, -0.00, -1.00, 678.1, 13.2)">o</text><text xml:space="preserve" font-family="Avenir-Medium,Avenir" font-size="46.0" fill="#000000" transform="matrix(1.00, 0.00, -0.00, -1.00, 705.4, 13.2)">c</text><text xml:space="preserve" font-family="Avenir-Medium,Avenir" font-size="46.0" fill="#000000" transform="matrix(1.00, 0.00, -0.00, -1.00, 727.6, 13.2)">t</text><text xml:space="preserve" font-family="Avenir-Medium,Avenir" font-size="46.0" fill="#000000" transform="matrix(1.00, 0.00, -0.00, -1.00, 744.6, 13.2)">o</text><text xml:space="preserve" font-family="Avenir-Medium,Avenir" font-size="46.0" fill="#000000" transform="matrix(1.00, 0.00, -0.00, -1.00, 771.9, 13.2)">r</text><text xml:space="preserve" font-family="Avenir-Medium,Avenir" font-size="46.0" fill="#000000" transform="matrix(1.00, 0.00, -0.00, -1.00, 784.7, 13.2)">.</text></g></svg>