<?xml version="1.0" encoding="UTF-8" standalone="no"?><svg xmlns="http://www.w3.org/2000/svg" xmlns:xlink="http://www.w3.org/1999/xlink" clip-rule="evenodd" stroke-miterlimit="10" viewBox="0 0 169 22"><desc>SVG generated by Keynote</desc><defs></defs><g transform="matrix(1.00, 0.00, -0.00, -1.00, 0.0, 22.0)"><text xml:space="preserve" font-family="Avenir-Medium,Avenir" font-size="18.0" fill="#008E4A" transform="matrix(1.00, 0.00, -0.00, -1.00, 1.3, 6.1)">p</text><text xml:space="preserve" font-family="Avenir-Medium,Avenir" font-size="18.0" fill="#008E4A" transform="matrix(1.00, 0.00, -0.00, -1.00, 12.2, 6.1)">r</text><text xml:space="preserve" font-family="Avenir-Medium,Avenir" font-size="18.0" fill="#008E4A" transform="matrix(1.00, 0.00, -0.00, -1.00, 18.6, 6.1)">e</text><text xml:space="preserve" font-family="Avenir-Medium,Avenir" font-size="18.0" fill="#008E4A" transform="matrix(1.00, 0.00, -0.00, -1.00, 28.6, 6.1)">p</text><text xml:space="preserve" font-family="Avenir-Medium,Avenir" font-size="18.0" fill="#008E4A" transform="matrix(1.00, 0.00, -0.00, -1.00, 39.6, 6.1)">o</text><text xml:space="preserve" font-family="Avenir-Medium,Avenir" font-size="18.0" fill="#008E4A" transform="matrix(1.00, 0.00, -0.00, -1.00, 50.3, 6.1)">s</text><text xml:space="preserve" font-family="Avenir-Medium,Avenir" font-size="18.0" fill="#008E4A" transform="matrix(1.00, 0.00, -0.00, -1.00, 58.3, 6.1)">i</text><text xml:space="preserve" font-family="Avenir-Medium,Avenir" font-size="18.0" fill="#008E4A" transform="matrix(1.00, 0.00, -0.00, -1.00, 62.6, 6.1)">t</text><text xml:space="preserve" font-family="Avenir-Medium,Avenir" font-size="18.0" fill="#008E4A" transform="matrix(1.00, 0.00, -0.00, -1.00, 69.3, 6.1)">i</text><text xml:space="preserve" font-family="Avenir-Medium,Avenir" font-size="18.0" fill="#008E4A" transform="matrix(1.00, 0.00, -0.00, -1.00, 73.6, 6.1)">o</text><text xml:space="preserve" font-family="Avenir-Medium,Avenir" font-size="18.0" fill="#008E4A" transform="matrix(1.00, 0.00, -0.00, -1.00, 84.3, 6.1)">n</text><text xml:space="preserve" font-family="Avenir-Medium,Avenir" font-size="18.0" fill="#008E4A" transform="matrix(1.00, 0.00, -0.00, -1.00, 94.3, 6.1)">a</text><text xml:space="preserve" font-family="Avenir-Medium,Avenir" font-size="18.0" fill="#008E4A" transform="matrix(1.00, 0.00, -0.00, -1.00, 103.6, 6.1)">l</text><text xml:space="preserve" font-family="Avenir-Medium,Avenir" font-size="18.0" fill="#008E4A" transform="matrix(1.00, 0.00, -0.00, -1.00, 107.9, 6.1)"> </text><text xml:space="preserve" font-family="Avenir-Medium,Avenir" font-size="18.0" fill="#008E4A" transform="matrix(1.00, 0.00, -0.00, -1.00, 112.9, 6.1)">p</text><text xml:space="preserve" font-family="Avenir-Medium,Avenir" font-size="18.0" fill="#008E4A" transform="matrix(1.00, 0.00, -0.00, -1.00, 123.9, 6.1)">h</text><text xml:space="preserve" font-family="Avenir-Medium,Avenir" font-size="18.0" fill="#008E4A" transform="matrix(1.00, 0.00, -0.00, -1.00, 133.9, 6.1)">r</text><text xml:space="preserve" font-family="Avenir-Medium,Avenir" font-size="18.0" fill="#008E4A" transform="matrix(1.00, 0.00, -0.00, -1.00, 140.6, 6.1)">a</text><text xml:space="preserve" font-family="Avenir-Medium,Avenir" font-size="18.0" fill="#008E4A" transform="matrix(1.00, 0.00, -0.00, -1.00, 149.9, 6.1)">s</text><text xml:space="preserve" font-family="Avenir-Medium,Avenir" font-size="18.0" fill="#008E4A" transform="matrix(1.00, 0.00, -0.00, -1.00, 157.9, 6.1)">e</text></g></svg>