<?xml version="1.0" encoding="UTF-8" standalone="no"?><svg xmlns="http://www.w3.org/2000/svg" xmlns:xlink="http://www.w3.org/1999/xlink" clip-rule="evenodd" stroke-miterlimit="10" viewBox="0 0 1920 1080"><desc>SVG generated by Keynote</desc><defs></defs><g transform="matrix(1.00, 0.00, -0.00, -1.00, 0.0, 1080.0)"><path d="M 285.0 1037.0 L 1633.0 1037.0 L 1633.0 43.0 L 285.0 43.0 Z M 285.0 1036.8 " fill="#000000"></path><path d="M 0.0 -0.2 L 1348.0 -0.2 L 1348.0 993.8 L 0.0 993.8 Z M 0.0 0.0 " fill="none" stroke="#2D2433" stroke-width="14.00" stroke-linejoin="bevel" transform="matrix(1.00, 0.00, 0.00, -1.00, 285.0, 1036.8)"></path><text xml:space="preserve" font-family="ComicSansMS,Comic Sans MS" font-size="172.0" fill="#FFFFFF" transform="matrix(1.00, 0.00, -0.00, -1.00, 759.0, 658.3)">l</text><text xml:space="preserve" font-family="ComicSansMS,Comic Sans MS" font-size="172.0" fill="#FFFFFF" transform="matrix(1.00, 0.00, -0.00, -1.00, 806.1, 658.3)">u</text><text xml:space="preserve" font-family="ComicSansMS,Comic Sans MS" font-size="172.0" fill="#FFFFFF" transform="matrix(1.00, 0.00, -0.00, -1.00, 895.6, 658.3)">g</text><text xml:space="preserve" font-family="ComicSansMS,Comic Sans MS" font-size="172.0" fill="#FFFFFF" transform="matrix(1.00, 0.00, -0.00, -1.00, 986.8, 658.3)">a</text><text xml:space="preserve" font-family="ComicSansMS,Comic Sans MS" font-size="172.0" fill="#FFFFFF" transform="matrix(1.00, 0.00, -0.00, -1.00, 1074.8, 658.3)">r</text><text xml:space="preserve" font-family="ComicSansMS,Comic Sans MS" font-size="172.0" fill="#FFFFFF" transform="matrix(1.00, 0.00, -0.00, -1.00, 1157.5, 658.3)"> </text><text xml:space="preserve" font-family="ComicSansMS,Comic Sans MS" font-size="172.0" fill="#FFFFFF" transform="matrix(1.00, 0.00, -0.00, -1.00, 1208.9, 658.3)"> </text><text xml:space="preserve" font-family="ComicSansMS,Comic Sans MS" font-size="172.0" fill="#FFFFFF" transform="matrix(1.00, 0.00, -0.00, -1.00, 860.7, 418.3)">d</text><text xml:space="preserve" font-family="ComicSansMS,Comic Sans MS" font-size="172.0" fill="#FFFFFF" transform="matrix(1.00, 0.00, -0.00, -1.00, 961.8, 418.3)">e</text><text xml:space="preserve" font-family="ComicSansMS,Comic Sans MS" font-size="172.0" fill="#FFFFFF" transform="matrix(1.00, 0.00, -0.00, -1.00, 1055.9, 418.3)"> </text><text xml:space="preserve" font-family="ComicSansMS,Comic Sans MS" font-size="172.0" fill="#FFFFFF" transform="matrix(1.00, 0.00, -0.00, -1.00, 1107.2, 418.3)"> </text><text xml:space="preserve" font-family="ComicSansMS,Comic Sans MS" font-size="172.0" fill="#FFFFFF" transform="matrix(1.00, 0.00, -0.00, -1.00, 642.6, 178.3)">p</text><text xml:space="preserve" font-family="ComicSansMS,Comic Sans MS" font-size="172.0" fill="#FFFFFF" transform="matrix(1.00, 0.00, -0.00, -1.00, 734.5, 178.3)">o</text><text xml:space="preserve" font-family="ComicSansMS,Comic Sans MS" font-size="172.0" fill="#FFFFFF" transform="matrix(1.00, 0.00, -0.00, -1.00, 824.9, 178.3)">s</text><text xml:space="preserve" font-family="ComicSansMS,Comic Sans MS" font-size="172.0" fill="#FFFFFF" transform="matrix(1.00, 0.00, -0.00, -1.00, 908.6, 178.3)">i</text><text xml:space="preserve" font-family="ComicSansMS,Comic Sans MS" font-size="172.0" fill="#FFFFFF" transform="matrix(1.00, 0.00, -0.00, -1.00, 956.9, 178.3)">c</text><text xml:space="preserve" font-family="ComicSansMS,Comic Sans MS" font-size="172.0" fill="#FFFFFF" transform="matrix(1.00, 0.00, -0.00, -1.00, 1045.2, 178.3)">i</text><text xml:space="preserve" font-family="ComicSansMS,Comic Sans MS" font-size="172.0" fill="#FFFFFF" transform="matrix(1.00, 0.00, -0.00, -1.00, 1093.5, 178.3)">รณ</text><text xml:space="preserve" font-family="ComicSansMS,Comic Sans MS" font-size="172.0" fill="#FFFFFF" transform="matrix(1.00, 0.00, -0.00, -1.00, 1183.9, 178.3)">n</text></g></svg>