<?xml version="1.0" encoding="UTF-8" standalone="no"?><svg xmlns="http://www.w3.org/2000/svg" xmlns:xlink="http://www.w3.org/1999/xlink" clip-rule="evenodd" stroke-miterlimit="10" viewBox="0 0 172 112"><desc>SVG generated by Keynote</desc><defs></defs><g transform="matrix(1.00, 0.00, -0.00, -1.00, 0.0, 112.0)"><g><clipPath id="clip0x7f875da40410"><path d="M 16.0 112.0 L 171.0 112.0 L 171.0 11.0 L 16.0 11.0 Z M 16.4 111.5 "></path></clipPath><g clip-path="url(#clip0x7f875da40410)"><g><clipPath id="clip0x7f875da279b0"><path d="M 16.4 10.7 L 171.4 10.7 L 171.4 111.5 L 16.4 111.5 Z M 16.4 10.7 "></path></clipPath><g clip-path="url(#clip0x7f875da279b0)"><image xlink:href="80853EFD8D24BCE501047C376B8C7833.png" width="260.00" height="194.00" transform="matrix(0.66, 0.00, -0.00, -0.66, 0.8, 111.5)"></image></g></g></g></g><g><clipPath id="clip0x7f876127a040"><path d="M 0.6 0.3 L 41.1 0.3 L 41.1 40.8 L 0.6 40.8 Z M 0.6 0.3 "></path></clipPath><g clip-path="url(#clip0x7f876127a040)"><path d="M 20.9 39.5 L 26.7 27.1 L 39.8 25.1 L 30.3 15.4 L 32.5 1.7 L 20.9 8.2 L 9.2 1.7 L 11.4 15.4 L 2.0 25.1 L 15.0 27.1 Z M 20.9 39.5 " fill="#C3D69B"></path><path d="M 19.9 0.0 L 25.7 12.4 L 38.8 14.4 L 29.3 24.1 L 31.6 37.8 L 19.9 31.3 L 8.2 37.8 L 10.4 24.1 L 1.0 14.4 L 14.0 12.4 Z M 19.9 0.0 " fill="none" stroke="#000000" stroke-width="1.00" stroke-linejoin="bevel" transform="matrix(1.00, 0.00, 0.00, -1.00, 1.0, 39.5)"></path></g></g></g></svg>