<?xml version="1.0" encoding="UTF-8" standalone="no"?><svg xmlns="http://www.w3.org/2000/svg" xmlns:xlink="http://www.w3.org/1999/xlink" clip-rule="evenodd" stroke-miterlimit="10" viewBox="0 0 762 52"><desc>SVG generated by Keynote</desc><defs></defs><g transform="matrix(1.00, 0.00, -0.00, -1.00, 0.0, 52.0)"><text xml:space="preserve" font-family="Avenir-Medium,Avenir" font-size="46.0" fill="#000000" transform="matrix(1.00, 0.00, -0.00, -1.00, -1.7, 14.4)">M</text><text xml:space="preserve" font-family="Avenir-Medium,Avenir" font-size="46.0" fill="#000000" transform="matrix(1.00, 0.00, -0.00, -1.00, 40.0, 14.4)">y</text><text xml:space="preserve" font-family="Avenir-Medium,Avenir" font-size="46.0" fill="#000000" transform="matrix(1.00, 0.00, -0.00, -1.00, 63.0, 14.4)"> </text><text xml:space="preserve" font-family="Avenir-Medium,Avenir" font-size="46.0" fill="#000000" transform="matrix(1.00, 0.00, -0.00, -1.00, 75.7, 14.4)">c</text><text xml:space="preserve" font-family="Avenir-Medium,Avenir" font-size="46.0" fill="#000000" transform="matrix(1.00, 0.00, -0.00, -1.00, 97.9, 14.4)">o</text><text xml:space="preserve" font-family="Avenir-Medium,Avenir" font-size="46.0" fill="#000000" transform="matrix(1.00, 0.00, -0.00, -1.00, 125.2, 14.4)">u</text><text xml:space="preserve" font-family="Avenir-Medium,Avenir" font-size="46.0" fill="#000000" transform="matrix(1.00, 0.00, -0.00, -1.00, 150.8, 14.4)">s</text><text xml:space="preserve" font-family="Avenir-Medium,Avenir" font-size="46.0" fill="#000000" transform="matrix(1.00, 0.00, -0.00, -1.00, 171.2, 14.4)">i</text><text xml:space="preserve" font-family="Avenir-Medium,Avenir" font-size="46.0" fill="#000000" transform="matrix(1.00, 0.00, -0.00, -1.00, 182.3, 14.4)">n</text><text xml:space="preserve" font-family="Avenir-Medium,Avenir" font-size="46.0" fill="#000000" transform="matrix(1.00, 0.00, -0.00, -1.00, 207.9, 14.4)">s</text><text xml:space="preserve" font-family="Avenir-Medium,Avenir" font-size="46.0" fill="#000000" transform="matrix(1.00, 0.00, -0.00, -1.00, 228.3, 14.4)"> </text><text xml:space="preserve" font-family="Avenir-Medium,Avenir" font-size="46.0" fill="#000000" transform="matrix(1.00, 0.00, -0.00, -1.00, 241.1, 14.4)">f</text><text xml:space="preserve" font-family="Avenir-Medium,Avenir" font-size="46.0" fill="#000000" transform="matrix(1.00, 0.00, -0.00, -1.00, 256.4, 14.4)">r</text><text xml:space="preserve" font-family="Avenir-Medium,Avenir" font-size="46.0" fill="#000000" transform="matrix(1.00, 0.00, -0.00, -1.00, 272.6, 14.4)">o</text><text xml:space="preserve" font-family="Avenir-Medium,Avenir" font-size="46.0" fill="#000000" transform="matrix(1.00, 0.00, -0.00, -1.00, 299.9, 14.4)">m</text><text xml:space="preserve" font-family="Avenir-Medium,Avenir" font-size="46.0" fill="#000000" transform="matrix(1.00, 0.00, -0.00, -1.00, 339.1, 14.4)"> </text><text xml:space="preserve" font-family="Avenir-Medium,Avenir" font-size="46.0" fill="#000000" transform="matrix(1.00, 0.00, -0.00, -1.00, 351.9, 14.4)">E</text><text xml:space="preserve" font-family="Avenir-Medium,Avenir" font-size="46.0" fill="#000000" transform="matrix(1.00, 0.00, -0.00, -1.00, 380.0, 14.4)">s</text><text xml:space="preserve" font-family="Avenir-Medium,Avenir" font-size="46.0" fill="#000000" transform="matrix(1.00, 0.00, -0.00, -1.00, 400.4, 14.4)">p</text><text xml:space="preserve" font-family="Avenir-Medium,Avenir" font-size="46.0" fill="#000000" transform="matrix(1.00, 0.00, -0.00, -1.00, 428.5, 14.4)">a</text><text xml:space="preserve" font-family="Avenir-Medium,Avenir" font-size="46.0" fill="#000000" transform="matrix(1.00, 0.00, -0.00, -1.00, 452.4, 14.4)">ñ</text><text xml:space="preserve" font-family="Avenir-Medium,Avenir" font-size="46.0" fill="#000000" transform="matrix(1.00, 0.00, -0.00, -1.00, 478.0, 14.4)">o</text><text xml:space="preserve" font-family="Avenir-Medium,Avenir" font-size="46.0" fill="#000000" transform="matrix(1.00, 0.00, -0.00, -1.00, 505.3, 14.4)">l</text><text xml:space="preserve" font-family="Avenir-Medium,Avenir" font-size="46.0" fill="#000000" transform="matrix(1.00, 0.00, -0.00, -1.00, 516.3, 14.4)">a</text><text xml:space="preserve" font-family="Avenir-Medium,Avenir" font-size="46.0" fill="#000000" transform="matrix(1.00, 0.00, -0.00, -1.00, 540.2, 14.4)"> </text><text xml:space="preserve" font-family="Avenir-Medium,Avenir" font-size="46.0" fill="#000000" transform="matrix(1.00, 0.00, -0.00, -1.00, 553.0, 14.4)">_</text><text xml:space="preserve" font-family="Avenir-Medium,Avenir" font-size="46.0" fill="#000000" transform="matrix(1.00, 0.00, -0.00, -1.00, 576.0, 14.4)">_</text><text xml:space="preserve" font-family="Avenir-Medium,Avenir" font-size="46.0" fill="#000000" transform="matrix(1.00, 0.00, -0.00, -1.00, 599.0, 14.4)">_</text><text xml:space="preserve" font-family="Avenir-Medium,Avenir" font-size="46.0" fill="#000000" transform="matrix(1.00, 0.00, -0.00, -1.00, 622.0, 14.4)">_</text><text xml:space="preserve" font-family="Avenir-Medium,Avenir" font-size="46.0" fill="#000000" transform="matrix(1.00, 0.00, -0.00, -1.00, 645.0, 14.4)"> </text><text xml:space="preserve" font-family="Avenir-Medium,Avenir" font-size="46.0" fill="#000000" transform="matrix(1.00, 0.00, -0.00, -1.00, 657.8, 14.4)">h</text><text xml:space="preserve" font-family="Avenir-Medium,Avenir" font-size="46.0" fill="#000000" transform="matrix(1.00, 0.00, -0.00, -1.00, 683.4, 14.4)">e</text><text xml:space="preserve" font-family="Avenir-Medium,Avenir" font-size="46.0" fill="#000000" transform="matrix(1.00, 0.00, -0.00, -1.00, 708.9, 14.4)">r</text><text xml:space="preserve" font-family="Avenir-Medium,Avenir" font-size="46.0" fill="#000000" transform="matrix(1.00, 0.00, -0.00, -1.00, 725.1, 14.4)">e</text><text xml:space="preserve" font-family="Avenir-Medium,Avenir" font-size="46.0" fill="#000000" transform="matrix(1.00, 0.00, -0.00, -1.00, 750.7, 14.4)">.</text></g></svg>