<?xml version="1.0" encoding="UTF-8" standalone="no"?><svg xmlns="http://www.w3.org/2000/svg" xmlns:xlink="http://www.w3.org/1999/xlink" clip-rule="evenodd" stroke-miterlimit="10" viewBox="0 0 1041 80"><desc>SVG generated by Keynote</desc><defs></defs><g transform="matrix(1.00, 0.00, -0.00, -1.00, 0.0, 80.0)"><text xml:space="preserve" font-family="ComicSansMS,Comic Sans MS" font-size="56.0" fill="#000000" transform="matrix(1.00, 0.00, -0.00, -1.00, 0.5, 17.7)">¿</text><text xml:space="preserve" font-family="ComicSansMS,Comic Sans MS" font-size="56.0" fill="#000000" transform="matrix(1.00, 0.00, -0.00, -1.00, 29.8, 17.7)">C</text><text xml:space="preserve" font-family="ComicSansMS,Comic Sans MS" font-size="56.0" fill="#000000" transform="matrix(1.00, 0.00, -0.00, -1.00, 63.5, 17.7)">u</text><text xml:space="preserve" font-family="ComicSansMS,Comic Sans MS" font-size="56.0" fill="#000000" transform="matrix(1.00, 0.00, -0.00, -1.00, 92.7, 17.7)">á</text><text xml:space="preserve" font-family="ComicSansMS,Comic Sans MS" font-size="56.0" fill="#000000" transform="matrix(1.00, 0.00, -0.00, -1.00, 121.3, 17.7)">l</text><text xml:space="preserve" font-family="ComicSansMS,Comic Sans MS" font-size="56.0" fill="#000000" transform="matrix(1.00, 0.00, -0.00, -1.00, 136.6, 17.7)"> </text><text xml:space="preserve" font-family="ComicSansMS,Comic Sans MS" font-size="56.0" fill="#000000" transform="matrix(1.00, 0.00, -0.00, -1.00, 153.4, 17.7)">n</text><text xml:space="preserve" font-family="ComicSansMS,Comic Sans MS" font-size="56.0" fill="#000000" transform="matrix(1.00, 0.00, -0.00, -1.00, 182.7, 17.7)">ú</text><text xml:space="preserve" font-family="ComicSansMS,Comic Sans MS" font-size="56.0" fill="#000000" transform="matrix(1.00, 0.00, -0.00, -1.00, 211.8, 17.7)">m</text><text xml:space="preserve" font-family="ComicSansMS,Comic Sans MS" font-size="56.0" fill="#000000" transform="matrix(1.00, 0.00, -0.00, -1.00, 255.3, 17.7)">e</text><text xml:space="preserve" font-family="ComicSansMS,Comic Sans MS" font-size="56.0" fill="#000000" transform="matrix(1.00, 0.00, -0.00, -1.00, 286.0, 17.7)">r</text><text xml:space="preserve" font-family="ComicSansMS,Comic Sans MS" font-size="56.0" fill="#000000" transform="matrix(1.00, 0.00, -0.00, -1.00, 312.9, 17.7)">o</text><text xml:space="preserve" font-family="ComicSansMS,Comic Sans MS" font-size="56.0" fill="#000000" transform="matrix(1.00, 0.00, -0.00, -1.00, 342.4, 17.7)"> </text><text xml:space="preserve" font-family="ComicSansMS,Comic Sans MS" font-size="56.0" fill="#000000" transform="matrix(1.00, 0.00, -0.00, -1.00, 359.1, 17.7)">e</text><text xml:space="preserve" font-family="ComicSansMS,Comic Sans MS" font-size="56.0" fill="#000000" transform="matrix(1.00, 0.00, -0.00, -1.00, 389.8, 17.7)">s</text><text xml:space="preserve" font-family="ComicSansMS,Comic Sans MS" font-size="56.0" fill="#000000" transform="matrix(1.00, 0.00, -0.00, -1.00, 417.0, 17.7)">t</text><text xml:space="preserve" font-family="ComicSansMS,Comic Sans MS" font-size="56.0" fill="#000000" transform="matrix(1.00, 0.00, -0.00, -1.00, 443.4, 17.7)">á</text><text xml:space="preserve" font-family="ComicSansMS,Comic Sans MS" font-size="56.0" fill="#000000" transform="matrix(1.00, 0.00, -0.00, -1.00, 472.0, 17.7)"> </text><text xml:space="preserve" font-family="ComicSansMS,Comic Sans MS" font-size="56.0" fill="#000000" transform="matrix(1.00, 0.00, -0.00, -1.00, 488.8, 17.7)">e</text><text xml:space="preserve" font-family="ComicSansMS,Comic Sans MS" font-size="56.0" fill="#000000" transform="matrix(1.00, 0.00, -0.00, -1.00, 519.4, 17.7)">n</text><text xml:space="preserve" font-family="ComicSansMS,Comic Sans MS" font-size="56.0" fill="#000000" transform="matrix(1.00, 0.00, -0.00, -1.00, 548.8, 17.7)"> </text><text xml:space="preserve" font-family="ComicSansMS,Comic Sans MS" font-size="56.0" fill="#000000" transform="matrix(1.00, 0.00, -0.00, -1.00, 565.5, 17.7)">e</text><text xml:space="preserve" font-family="ComicSansMS,Comic Sans MS" font-size="56.0" fill="#000000" transform="matrix(1.00, 0.00, -0.00, -1.00, 596.2, 17.7)">l</text><text xml:space="preserve" font-family="ComicSansMS,Comic Sans MS" font-size="56.0" fill="#000000" transform="matrix(1.00, 0.00, -0.00, -1.00, 611.5, 17.7)"> </text><text xml:space="preserve" font-family="ComicSansMS,Comic Sans MS" font-size="56.0" fill="#000000" transform="matrix(1.00, 0.00, -0.00, -1.00, 628.2, 17.7)">l</text><text xml:space="preserve" font-family="ComicSansMS,Comic Sans MS" font-size="56.0" fill="#000000" transform="matrix(1.00, 0.00, -0.00, -1.00, 643.6, 17.7)">u</text><text xml:space="preserve" font-family="ComicSansMS,Comic Sans MS" font-size="56.0" fill="#000000" transform="matrix(1.00, 0.00, -0.00, -1.00, 672.7, 17.7)">g</text><text xml:space="preserve" font-family="ComicSansMS,Comic Sans MS" font-size="56.0" fill="#000000" transform="matrix(1.00, 0.00, -0.00, -1.00, 702.4, 17.7)">a</text><text xml:space="preserve" font-family="ComicSansMS,Comic Sans MS" font-size="56.0" fill="#000000" transform="matrix(1.00, 0.00, -0.00, -1.00, 731.0, 17.7)">r</text><text xml:space="preserve" font-family="ComicSansMS,Comic Sans MS" font-size="56.0" fill="#000000" transform="matrix(1.00, 0.00, -0.00, -1.00, 758.0, 17.7)"> </text><text xml:space="preserve" font-family="ComicSansMS,Comic Sans MS" font-size="56.0" fill="#000000" transform="matrix(1.00, 0.00, -0.00, -1.00, 774.7, 17.7)">d</text><text xml:space="preserve" font-family="ComicSansMS,Comic Sans MS" font-size="56.0" fill="#000000" transform="matrix(1.00, 0.00, -0.00, -1.00, 807.6, 17.7)">e</text><text xml:space="preserve" font-family="ComicSansMS,Comic Sans MS" font-size="56.0" fill="#000000" transform="matrix(1.00, 0.00, -0.00, -1.00, 838.3, 17.7)"> </text><text xml:space="preserve" font-family="ComicSansMS-Bold,Comic Sans MS" font-weight="bold" font-size="56.0" fill="#000000" transform="matrix(1.00, 0.00, -0.00, -1.00, 855.1, 17.7)">u</text><text xml:space="preserve" font-family="ComicSansMS-Bold,Comic Sans MS" font-weight="bold" font-size="56.0" fill="#000000" transform="matrix(1.00, 0.00, -0.00, -1.00, 884.2, 17.7)">n</text><text xml:space="preserve" font-family="ComicSansMS-Bold,Comic Sans MS" font-weight="bold" font-size="56.0" fill="#000000" transform="matrix(1.00, 0.00, -0.00, -1.00, 913.6, 17.7)"> </text><text xml:space="preserve" font-family="ComicSansMS-Bold,Comic Sans MS" font-weight="bold" font-size="56.0" fill="#000000" transform="matrix(1.00, 0.00, -0.00, -1.00, 937.8, 17.7)">m</text><text xml:space="preserve" font-family="ComicSansMS-Bold,Comic Sans MS" font-weight="bold" font-size="56.0" fill="#000000" transform="matrix(1.00, 0.00, -0.00, -1.00, 981.3, 17.7)">i</text><text xml:space="preserve" font-family="ComicSansMS-Bold,Comic Sans MS" font-weight="bold" font-size="56.0" fill="#000000" transform="matrix(1.00, 0.00, -0.00, -1.00, 997.0, 17.7)">l</text><text xml:space="preserve" font-family="ComicSansMS,Comic Sans MS" font-size="56.0" fill="#000000" transform="matrix(1.00, 0.00, -0.00, -1.00, 1012.4, 17.7)">?</text><g><clipPath id="clip0x7f875aed0ff0"><path d="M 854.1 6.9 L 1012.4 6.9 L 1012.4 13.6 L 854.1 13.6 Z M 854.1 6.9 "></path></clipPath><g clip-path="url(#clip0x7f875aed0ff0)"><path d="M 1011.7 77.8 L 1169.0 77.8 " fill="none" stroke="#000000" stroke-width="4.79" transform="matrix(1.00, 0.00, 0.00, -1.00, -156.6, 88.0)"></path></g></g></g></svg>