<?xml version="1.0" encoding="UTF-8" standalone="no"?><svg xmlns="http://www.w3.org/2000/svg" xmlns:xlink="http://www.w3.org/1999/xlink" clip-rule="evenodd" stroke-miterlimit="10" viewBox="0 0 582 50"><desc>SVG generated by Keynote</desc><defs></defs><g transform="matrix(1.00, 0.00, -0.00, -1.00, 0.0, 50.0)"><text xml:space="preserve" font-family="Avenir-Medium,Avenir" font-size="46.0" fill="#000000" transform="matrix(1.00, 0.00, -0.00, -1.00, -0.1, 12.8)">O</text><text xml:space="preserve" font-family="Avenir-Medium,Avenir" font-size="46.0" fill="#000000" transform="matrix(1.00, 0.00, -0.00, -1.00, 38.2, 12.8)">n</text><text xml:space="preserve" font-family="Avenir-Medium,Avenir" font-size="46.0" fill="#000000" transform="matrix(1.00, 0.00, -0.00, -1.00, 63.7, 12.8)">e</text><text xml:space="preserve" font-family="Avenir-Medium,Avenir" font-size="46.0" fill="#000000" transform="matrix(1.00, 0.00, -0.00, -1.00, 89.3, 12.8)"> </text><text xml:space="preserve" font-family="Avenir-Medium,Avenir" font-size="46.0" fill="#000000" transform="matrix(1.00, 0.00, -0.00, -1.00, 102.1, 12.8)">o</text><text xml:space="preserve" font-family="Avenir-Medium,Avenir" font-size="46.0" fill="#000000" transform="matrix(1.00, 0.00, -0.00, -1.00, 129.4, 12.8)">f</text><text xml:space="preserve" font-family="Avenir-Medium,Avenir" font-size="46.0" fill="#000000" transform="matrix(1.00, 0.00, -0.00, -1.00, 144.7, 12.8)"> </text><text xml:space="preserve" font-family="Avenir-Medium,Avenir" font-size="46.0" fill="#000000" transform="matrix(1.00, 0.00, -0.00, -1.00, 157.5, 12.8)">t</text><text xml:space="preserve" font-family="Avenir-Medium,Avenir" font-size="46.0" fill="#000000" transform="matrix(1.00, 0.00, -0.00, -1.00, 174.5, 12.8)">h</text><text xml:space="preserve" font-family="Avenir-Medium,Avenir" font-size="46.0" fill="#000000" transform="matrix(1.00, 0.00, -0.00, -1.00, 200.1, 12.8)">e</text><text xml:space="preserve" font-family="Avenir-Medium,Avenir" font-size="46.0" fill="#000000" transform="matrix(1.00, 0.00, -0.00, -1.00, 225.7, 12.8)"> </text><text xml:space="preserve" font-family="Avenir-Medium,Avenir" font-size="46.0" fill="#000000" transform="matrix(1.00, 0.00, -0.00, -1.00, 238.5, 12.8)">b</text><text xml:space="preserve" font-family="Avenir-Medium,Avenir" font-size="46.0" fill="#000000" transform="matrix(1.00, 0.00, -0.00, -1.00, 266.6, 12.8)">o</text><text xml:space="preserve" font-family="Avenir-Medium,Avenir" font-size="46.0" fill="#000000" transform="matrix(1.00, 0.00, -0.00, -1.00, 293.9, 12.8)">y</text><text xml:space="preserve" font-family="Avenir-Medium,Avenir" font-size="46.0" fill="#000000" transform="matrix(1.00, 0.00, -0.00, -1.00, 316.9, 12.8)">s</text><text xml:space="preserve" font-family="Avenir-Medium,Avenir" font-size="46.0" fill="#000000" transform="matrix(1.00, 0.00, -0.00, -1.00, 337.3, 12.8)"> </text><text xml:space="preserve" font-family="Avenir-Medium,Avenir" font-size="46.0" fill="#000000" transform="matrix(1.00, 0.00, -0.00, -1.00, 350.1, 12.8)">_</text><text xml:space="preserve" font-family="Avenir-Medium,Avenir" font-size="46.0" fill="#000000" transform="matrix(1.00, 0.00, -0.00, -1.00, 373.1, 12.8)">_</text><text xml:space="preserve" font-family="Avenir-Medium,Avenir" font-size="46.0" fill="#000000" transform="matrix(1.00, 0.00, -0.00, -1.00, 396.1, 12.8)">_</text><text xml:space="preserve" font-family="Avenir-Medium,Avenir" font-size="46.0" fill="#000000" transform="matrix(1.00, 0.00, -0.00, -1.00, 419.1, 12.8)">_</text><text xml:space="preserve" font-family="Avenir-Medium,Avenir" font-size="46.0" fill="#000000" transform="matrix(1.00, 0.00, -0.00, -1.00, 442.1, 12.8)">_</text><text xml:space="preserve" font-family="Avenir-Medium,Avenir" font-size="46.0" fill="#000000" transform="matrix(1.00, 0.00, -0.00, -1.00, 465.1, 12.8)"> </text><text xml:space="preserve" font-family="Avenir-Medium,Avenir" font-size="46.0" fill="#000000" transform="matrix(1.00, 0.00, -0.00, -1.00, 477.9, 12.8)">h</text><text xml:space="preserve" font-family="Avenir-Medium,Avenir" font-size="46.0" fill="#000000" transform="matrix(1.00, 0.00, -0.00, -1.00, 503.5, 12.8)">e</text><text xml:space="preserve" font-family="Avenir-Medium,Avenir" font-size="46.0" fill="#000000" transform="matrix(1.00, 0.00, -0.00, -1.00, 529.1, 12.8)">r</text><text xml:space="preserve" font-family="Avenir-Medium,Avenir" font-size="46.0" fill="#000000" transform="matrix(1.00, 0.00, -0.00, -1.00, 545.3, 12.8)">e</text><text xml:space="preserve" font-family="Avenir-Medium,Avenir" font-size="46.0" fill="#000000" transform="matrix(1.00, 0.00, -0.00, -1.00, 570.8, 12.8)">.</text></g></svg>