<?xml version="1.0" encoding="UTF-8" standalone="no"?><svg xmlns="http://www.w3.org/2000/svg" xmlns:xlink="http://www.w3.org/1999/xlink" clip-rule="evenodd" stroke-miterlimit="10" viewBox="0 0 1920 1080"><desc>SVG generated by Keynote</desc><defs></defs><g transform="matrix(1.00, 0.00, -0.00, -1.00, 0.0, 1080.0)"><path d="M 0.0 1080.0 L 1920.0 1080.0 L 1920.0 0.0 L 0.0 0.0 Z M 0.0 1080.0 " fill="#FFFFFF"></path><path d="M 1510.5 752.5 L 1618.5 752.5 L 1618.5 750.5 L 1510.5 750.5 Z M 1510.8 752.4 " fill="#FFAA00"></path><path d="M -0.3 -0.1 L 107.7 -0.1 L 107.7 1.9 L -0.3 1.9 Z M 0.0 0.0 " fill="none" stroke="#000000" stroke-width="5.00" stroke-linejoin="bevel" transform="matrix(1.00, 0.00, 0.00, -1.00, 1510.8, 752.4)"></path><path d="M 1230.5 752.5 L 1338.5 752.5 L 1338.5 750.5 L 1230.5 750.5 Z M 1230.0 752.4 " fill="#FFAA00"></path><path d="M 0.5 -0.1 L 108.5 -0.1 L 108.5 1.9 L 0.5 1.9 Z M 0.0 0.0 " fill="none" stroke="#000000" stroke-width="5.00" stroke-linejoin="bevel" transform="matrix(1.00, 0.00, 0.00, -1.00, 1230.0, 752.4)"></path><path d="M 1370.5 752.5 L 1478.5 752.5 L 1478.5 750.5 L 1370.5 750.5 Z M 1370.4 752.4 " fill="#FFAA00"></path><path d="M 0.1 -0.1 L 108.1 -0.1 L 108.1 1.9 L 0.1 1.9 Z M 0.0 0.0 " fill="none" stroke="#000000" stroke-width="5.00" stroke-linejoin="bevel" transform="matrix(1.00, 0.00, 0.00, -1.00, 1370.4, 752.4)"></path><path d="M 704.5 818.5 L 785.5 818.5 L 785.5 728.5 L 704.5 728.5 Z M 704.4 819.0 " fill="#FFFFFF"></path><path d="M 0.1 0.5 L 81.1 0.5 L 81.1 90.5 L 0.1 90.5 Z M 0.0 0.0 " fill="none" stroke="#FFFFFF" stroke-width="1.00" stroke-linejoin="bevel" transform="matrix(1.00, 0.00, 0.00, -1.00, 704.4, 819.0)"></path><g><clipPath id="clip0x7f875c04ba70"><path d="M 695.7 718.0 L 794.1 718.0 L 794.1 827.7 L 695.7 827.7 Z M 695.7 718.0 "></path></clipPath><g clip-path="url(#clip0x7f875c04ba70)"><text xml:space="preserve" font-family="Arial-BoldMT,Arial" font-weight="bold" font-size="64.0" fill="#000000" transform="matrix(1.00, 0.00, -0.00, -1.00, 736.0, 751.5)">,</text></g></g><path d="M 1163.5 818.5 L 1244.5 818.5 L 1244.5 728.5 L 1163.5 728.5 Z M 1163.4 819.0 " fill="#FFFFFF"></path><path d="M 0.1 0.5 L 81.1 0.5 L 81.1 90.5 L 0.1 90.5 Z M 0.0 0.0 " fill="none" stroke="#FFFFFF" stroke-width="1.00" stroke-linejoin="bevel" transform="matrix(1.00, 0.00, 0.00, -1.00, 1163.4, 819.0)"></path><g><clipPath id="clip0x7f875c05c2c0"><path d="M 1154.7 718.0 L 1253.1 718.0 L 1253.1 827.7 L 1154.7 827.7 Z M 1154.7 718.0 "></path></clipPath><g clip-path="url(#clip0x7f875c05c2c0)"><text xml:space="preserve" font-family="Arial-BoldMT,Arial" font-weight="bold" font-size="64.0" fill="#000000" transform="matrix(1.00, 0.00, -0.00, -1.00, 1195.0, 751.5)">,</text></g></g><path d="M 1545.5 727.5 L 1584.5 727.5 L 1584.5 686.5 L 1545.5 686.5 Z M 1545.0 727.2 " fill="#FFFFFF"></path><path d="M 0.5 -0.3 L 39.5 -0.3 L 39.5 40.7 L 0.5 40.7 Z M 0.0 0.0 " fill="none" stroke="#FFFFFF" stroke-width="1.00" stroke-linejoin="bevel" transform="matrix(1.00, 0.00, 0.00, -1.00, 1545.0, 727.2)"></path><g><clipPath id="clip0x7f875c05e500"><path d="M 1545.5 687.1 L 1584.1 687.1 L 1584.1 726.7 L 1545.5 726.7 Z M 1545.5 687.1 "></path></clipPath><g clip-path="url(#clip0x7f875c05e500)"><text xml:space="preserve" font-family="Arial-BoldMT,Arial" font-weight="bold" font-size="20.0" fill="#000000" transform="matrix(1.00, 0.00, -0.00, -1.00, 1559.2, 700.0)">1</text></g></g><path d="M 1393.5 727.5 L 1464.5 727.5 L 1464.5 686.5 L 1393.5 686.5 Z M 1393.8 727.2 " fill="#FFFFFF"></path><path d="M -0.3 -0.3 L 70.7 -0.3 L 70.7 40.7 L -0.3 40.7 Z M 0.0 0.0 " fill="none" stroke="#FFFFFF" stroke-width="1.00" stroke-linejoin="bevel" transform="matrix(1.00, 0.00, 0.00, -1.00, 1393.8, 727.2)"></path><g><clipPath id="clip0x7f875c060800"><path d="M 1394.3 687.1 L 1463.5 687.1 L 1463.5 726.7 L 1394.3 726.7 Z M 1394.3 687.1 "></path></clipPath><g clip-path="url(#clip0x7f875c060800)"><text xml:space="preserve" font-family="Arial-BoldMT,Arial" font-weight="bold" font-size="20.0" fill="#000000" transform="matrix(1.00, 0.00, -0.00, -1.00, 1417.8, 700.0)">1</text><text xml:space="preserve" font-family="Arial-BoldMT,Arial" font-weight="bold" font-size="20.0" fill="#000000" transform="matrix(1.00, 0.00, -0.00, -1.00, 1428.9, 700.0)">0</text></g></g><path d="M 1240.5 727.5 L 1330.5 727.5 L 1330.5 686.5 L 1240.5 686.5 Z M 1240.8 727.2 " fill="#FFFFFF"></path><path d="M -0.3 -0.3 L 89.7 -0.3 L 89.7 40.7 L -0.3 40.7 Z M 0.0 0.0 " fill="none" stroke="#FFFFFF" stroke-width="1.00" stroke-linejoin="bevel" transform="matrix(1.00, 0.00, 0.00, -1.00, 1240.8, 727.2)"></path><g><clipPath id="clip0x7f875c063190"><path d="M 1241.3 687.1 L 1330.3 687.1 L 1330.3 726.7 L 1241.3 726.7 Z M 1241.3 687.1 "></path></clipPath><g clip-path="url(#clip0x7f875c063190)"><text xml:space="preserve" font-family="Arial-BoldMT,Arial" font-weight="bold" font-size="20.0" fill="#000000" transform="matrix(1.00, 0.00, -0.00, -1.00, 1269.1, 700.0)">1</text><text xml:space="preserve" font-family="Arial-BoldMT,Arial" font-weight="bold" font-size="20.0" fill="#000000" transform="matrix(1.00, 0.00, -0.00, -1.00, 1280.2, 700.0)">0</text><text xml:space="preserve" font-family="Arial-BoldMT,Arial" font-weight="bold" font-size="20.0" fill="#000000" transform="matrix(1.00, 0.00, -0.00, -1.00, 1291.4, 700.0)">0</text></g></g><path d="M 1217.5 1007.5 L 1613.5 1007.5 L 1613.5 871.5 L 1217.5 871.5 Z M 1217.4 1008.0 " fill="#FF99CC" fill-opacity="0.38"></path><path d="M 0.1 0.5 L 396.1 0.5 L 396.1 136.5 L 0.1 136.5 Z M 0.0 0.0 " fill="none" stroke="#000000" stroke-width="1.00" stroke-linejoin="bevel" transform="matrix(1.00, 0.00, 0.00, -1.00, 1217.4, 1008.0)"></path><text xml:space="preserve" font-family="Arial-BoldMT,Arial" font-weight="bold" font-size="48.0" fill="#000000" transform="matrix(1.00, 0.00, -0.00, -1.00, 1310.0, 930.9)">u</text><text xml:space="preserve" font-family="Arial-BoldMT,Arial" font-weight="bold" font-size="48.0" fill="#000000" transform="matrix(1.00, 0.00, -0.00, -1.00, 1339.4, 930.9)">n</text><text xml:space="preserve" font-family="Arial-BoldMT,Arial" font-weight="bold" font-size="48.0" fill="#000000" transform="matrix(1.00, 0.00, -0.00, -1.00, 1368.7, 930.9)">i</text><text xml:space="preserve" font-family="Arial-BoldMT,Arial" font-weight="bold" font-size="48.0" fill="#000000" transform="matrix(1.00, 0.00, -0.00, -1.00, 1382.0, 930.9)">d</text><text xml:space="preserve" font-family="Arial-BoldMT,Arial" font-weight="bold" font-size="48.0" fill="#000000" transform="matrix(1.00, 0.00, -0.00, -1.00, 1411.3, 930.9)">a</text><text xml:space="preserve" font-family="Arial-BoldMT,Arial" font-weight="bold" font-size="48.0" fill="#000000" transform="matrix(1.00, 0.00, -0.00, -1.00, 1438.0, 930.9)">d</text><text xml:space="preserve" font-family="Arial-BoldMT,Arial" font-weight="bold" font-size="48.0" fill="#000000" transform="matrix(1.00, 0.00, -0.00, -1.00, 1467.3, 930.9)">e</text><text xml:space="preserve" font-family="Arial-BoldMT,Arial" font-weight="bold" font-size="48.0" fill="#000000" transform="matrix(1.00, 0.00, -0.00, -1.00, 1494.0, 930.9)">s</text><path d="M 1062.5 754.5 L 1170.5 754.5 L 1170.5 752.5 L 1062.5 752.5 Z M 1062.6 754.2 " fill="#FFAA00"></path><path d="M -0.1 -0.3 L 107.9 -0.3 L 107.9 1.7 L -0.1 1.7 Z M 0.0 0.0 " fill="none" stroke="#000000" stroke-width="5.00" stroke-linejoin="bevel" transform="matrix(1.00, 0.00, 0.00, -1.00, 1062.6, 754.2)"></path><path d="M 781.5 754.5 L 889.5 754.5 L 889.5 752.5 L 781.5 752.5 Z M 781.8 754.2 " fill="#FFAA00"></path><path d="M -0.3 -0.3 L 107.7 -0.3 L 107.7 1.7 L -0.3 1.7 Z M 0.0 0.0 " fill="none" stroke="#000000" stroke-width="5.00" stroke-linejoin="bevel" transform="matrix(1.00, 0.00, 0.00, -1.00, 781.8, 754.2)"></path><path d="M 922.5 754.5 L 1030.5 754.5 L 1030.5 752.5 L 922.5 752.5 Z M 922.2 754.2 " fill="#FFAA00"></path><path d="M 0.3 -0.3 L 108.3 -0.3 L 108.3 1.7 L 0.3 1.7 Z M 0.0 0.0 " fill="none" stroke="#000000" stroke-width="5.00" stroke-linejoin="bevel" transform="matrix(1.00, 0.00, 0.00, -1.00, 922.2, 754.2)"></path><path d="M 1069.5 727.5 L 1176.5 727.5 L 1176.5 686.5 L 1069.5 686.5 Z M 1069.8 727.2 " fill="#FFFFFF"></path><path d="M -0.3 -0.3 L 106.7 -0.3 L 106.7 40.7 L -0.3 40.7 Z M 0.0 0.0 " fill="none" stroke="#FFFFFF" stroke-width="1.00" stroke-linejoin="bevel" transform="matrix(1.00, 0.00, 0.00, -1.00, 1069.8, 727.2)"></path><g><clipPath id="clip0x7f875c06d7a0"><path d="M 1070.3 687.1 L 1175.5 687.1 L 1175.5 726.7 L 1070.3 726.7 Z M 1070.3 687.1 "></path></clipPath><g clip-path="url(#clip0x7f875c06d7a0)"><text xml:space="preserve" font-family="Arial-BoldMT,Arial" font-weight="bold" font-size="20.0" fill="#000000" transform="matrix(1.00, 0.00, -0.00, -1.00, 1097.9, 700.0)">1</text><text xml:space="preserve" font-family="ArialMT,Arial" font-size="20.0" fill="#000000" transform="matrix(1.00, 0.00, -0.00, -1.00, 1109.0, 700.0)">,</text><text xml:space="preserve" font-family="ArialMT,Arial" font-size="20.0" fill="#000000" transform="matrix(1.00, 0.00, -0.00, -1.00, 1114.6, 700.0)">0</text><text xml:space="preserve" font-family="ArialMT,Arial" font-size="20.0" fill="#000000" transform="matrix(1.00, 0.00, -0.00, -1.00, 1125.7, 700.0)">0</text><text xml:space="preserve" font-family="ArialMT,Arial" font-size="20.0" fill="#000000" transform="matrix(1.00, 0.00, -0.00, -1.00, 1136.8, 700.0)">0</text></g></g><path d="M 909.5 727.5 L 1046.5 727.5 L 1046.5 686.5 L 909.5 686.5 Z M 909.6 727.2 " fill="#FFFFFF"></path><path d="M -0.1 -0.3 L 136.9 -0.3 L 136.9 40.7 L -0.1 40.7 Z M 0.0 0.0 " fill="none" stroke="#FFFFFF" stroke-width="1.00" stroke-linejoin="bevel" transform="matrix(1.00, 0.00, 0.00, -1.00, 909.6, 727.2)"></path><g><clipPath id="clip0x7f875c071bd0"><path d="M 910.1 687.1 L 1045.9 687.1 L 1045.9 726.7 L 910.1 726.7 Z M 910.1 687.1 "></path></clipPath><g clip-path="url(#clip0x7f875c071bd0)"><text xml:space="preserve" font-family="Arial-BoldMT,Arial" font-weight="bold" font-size="20.0" fill="#000000" transform="matrix(1.00, 0.00, -0.00, -1.00, 947.4, 700.0)">1</text><text xml:space="preserve" font-family="Arial-BoldMT,Arial" font-weight="bold" font-size="20.0" fill="#000000" transform="matrix(1.00, 0.00, -0.00, -1.00, 958.5, 700.0)">0</text><text xml:space="preserve" font-family="ArialMT,Arial" font-size="20.0" fill="#000000" transform="matrix(1.00, 0.00, -0.00, -1.00, 969.7, 700.0)">,</text><text xml:space="preserve" font-family="ArialMT,Arial" font-size="20.0" fill="#000000" transform="matrix(1.00, 0.00, -0.00, -1.00, 975.2, 700.0)">0</text><text xml:space="preserve" font-family="ArialMT,Arial" font-size="20.0" fill="#000000" transform="matrix(1.00, 0.00, -0.00, -1.00, 986.3, 700.0)">0</text><text xml:space="preserve" font-family="ArialMT,Arial" font-size="20.0" fill="#000000" transform="matrix(1.00, 0.00, -0.00, -1.00, 997.5, 700.0)">0</text></g></g><path d="M 762.5 727.5 L 913.5 727.5 L 913.5 686.5 L 762.5 686.5 Z M 762.0 727.2 " fill="#FFFFFF"></path><path d="M 0.5 -0.3 L 151.5 -0.3 L 151.5 40.7 L 0.5 40.7 Z M 0.0 0.0 " fill="none" stroke="#FFFFFF" stroke-width="1.00" stroke-linejoin="bevel" transform="matrix(1.00, 0.00, 0.00, -1.00, 762.0, 727.2)"></path><g><clipPath id="clip0x7f875c076230"><path d="M 762.5 687.1 L 912.7 687.1 L 912.7 726.7 L 762.5 726.7 Z M 762.5 687.1 "></path></clipPath><g clip-path="url(#clip0x7f875c076230)"><text xml:space="preserve" font-family="Arial-BoldMT,Arial" font-weight="bold" font-size="20.0" fill="#000000" transform="matrix(1.00, 0.00, -0.00, -1.00, 801.5, 700.0)">1</text><text xml:space="preserve" font-family="Arial-BoldMT,Arial" font-weight="bold" font-size="20.0" fill="#000000" transform="matrix(1.00, 0.00, -0.00, -1.00, 812.6, 700.0)">0</text><text xml:space="preserve" font-family="Arial-BoldMT,Arial" font-weight="bold" font-size="20.0" fill="#000000" transform="matrix(1.00, 0.00, -0.00, -1.00, 823.7, 700.0)">0</text><text xml:space="preserve" font-family="ArialMT,Arial" font-size="20.0" fill="#000000" transform="matrix(1.00, 0.00, -0.00, -1.00, 834.8, 700.0)">,</text><text xml:space="preserve" font-family="ArialMT,Arial" font-size="20.0" fill="#000000" transform="matrix(1.00, 0.00, -0.00, -1.00, 840.4, 700.0)">0</text><text xml:space="preserve" font-family="ArialMT,Arial" font-size="20.0" fill="#000000" transform="matrix(1.00, 0.00, -0.00, -1.00, 851.5, 700.0)">0</text><text xml:space="preserve" font-family="ArialMT,Arial" font-size="20.0" fill="#000000" transform="matrix(1.00, 0.00, -0.00, -1.00, 862.6, 700.0)">0</text></g></g><path d="M 763.5 1006.5 L 1159.5 1006.5 L 1159.5 871.5 L 763.5 871.5 Z M 763.8 1006.2 " fill="#993366" fill-opacity="0.48"></path><path d="M -0.3 -0.3 L 395.7 -0.3 L 395.7 134.7 L -0.3 134.7 Z M 0.0 0.0 " fill="none" stroke="#000000" stroke-width="1.00" stroke-linejoin="bevel" transform="matrix(1.00, 0.00, 0.00, -1.00, 763.8, 1006.2)"></path><text xml:space="preserve" font-family="ComicSansMS-Bold,Comic Sans MS" font-weight="bold" font-size="48.0" fill="#000000" transform="matrix(1.00, 0.00, -0.00, -1.00, 899.4, 921.2)">m</text><text xml:space="preserve" font-family="ComicSansMS-Bold,Comic Sans MS" font-weight="bold" font-size="48.0" fill="#000000" transform="matrix(1.00, 0.00, -0.00, -1.00, 936.6, 921.2)">i</text><text xml:space="preserve" font-family="ComicSansMS-Bold,Comic Sans MS" font-weight="bold" font-size="48.0" fill="#000000" transform="matrix(1.00, 0.00, -0.00, -1.00, 950.1, 921.2)">l</text><text xml:space="preserve" font-family="ComicSansMS-Bold,Comic Sans MS" font-weight="bold" font-size="48.0" fill="#000000" transform="matrix(1.00, 0.00, -0.00, -1.00, 963.2, 921.2)">e</text><text xml:space="preserve" font-family="ComicSansMS-Bold,Comic Sans MS" font-weight="bold" font-size="48.0" fill="#000000" transform="matrix(1.00, 0.00, -0.00, -1.00, 990.1, 921.2)">s</text><path d="M 601.5 754.5 L 709.5 754.5 L 709.5 752.5 L 601.5 752.5 Z M 601.8 754.2 " fill="#FFAA00"></path><path d="M -0.3 -0.3 L 107.7 -0.3 L 107.7 1.7 L -0.3 1.7 Z M 0.0 0.0 " fill="none" stroke="#000000" stroke-width="5.00" stroke-linejoin="bevel" transform="matrix(1.00, 0.00, 0.00, -1.00, 601.8, 754.2)"></path><path d="M 328.5 754.5 L 436.5 754.5 L 436.5 752.5 L 328.5 752.5 Z M 328.2 754.2 " fill="#FFAA00"></path><path d="M 0.3 -0.3 L 108.3 -0.3 L 108.3 1.7 L 0.3 1.7 Z M 0.0 0.0 " fill="none" stroke="#000000" stroke-width="5.00" stroke-linejoin="bevel" transform="matrix(1.00, 0.00, 0.00, -1.00, 328.2, 754.2)"></path><path d="M 463.5 754.5 L 571.5 754.5 L 571.5 752.5 L 463.5 752.5 Z M 463.2 754.2 " fill="#FFAA00"></path><path d="M 0.3 -0.3 L 108.3 -0.3 L 108.3 1.7 L 0.3 1.7 Z M 0.0 0.0 " fill="none" stroke="#000000" stroke-width="5.00" stroke-linejoin="bevel" transform="matrix(1.00, 0.00, 0.00, -1.00, 463.2, 754.2)"></path><path d="M 582.5 727.5 L 722.5 727.5 L 722.5 686.5 L 582.5 686.5 Z M 582.0 727.2 " fill="#FFFFFF"></path><path d="M 0.5 -0.3 L 140.5 -0.3 L 140.5 40.7 L 0.5 40.7 Z M 0.0 0.0 " fill="none" stroke="#FFFFFF" stroke-width="1.00" stroke-linejoin="bevel" transform="matrix(1.00, 0.00, 0.00, -1.00, 582.0, 727.2)"></path><g><clipPath id="clip0x7f875c040960"><path d="M 582.5 687.1 L 721.9 687.1 L 721.9 726.7 L 582.5 726.7 Z M 582.5 687.1 "></path></clipPath><g clip-path="url(#clip0x7f875c040960)"><text xml:space="preserve" font-family="Arial-BoldMT,Arial" font-weight="bold" font-size="20.0" fill="#000000" transform="matrix(1.00, 0.00, -0.00, -1.00, 607.7, 700.0)">1</text><text xml:space="preserve" font-family="ArialMT,Arial" font-size="20.0" fill="#000000" transform="matrix(1.00, 0.00, -0.00, -1.00, 618.8, 700.0)">,</text><text xml:space="preserve" font-family="ArialMT,Arial" font-size="20.0" fill="#000000" transform="matrix(1.00, 0.00, -0.00, -1.00, 624.4, 700.0)">0</text><text xml:space="preserve" font-family="ArialMT,Arial" font-size="20.0" fill="#000000" transform="matrix(1.00, 0.00, -0.00, -1.00, 635.5, 700.0)">0</text><text xml:space="preserve" font-family="ArialMT,Arial" font-size="20.0" fill="#000000" transform="matrix(1.00, 0.00, -0.00, -1.00, 646.6, 700.0)">0</text><text xml:space="preserve" font-family="ArialMT,Arial" font-size="20.0" fill="#000000" transform="matrix(1.00, 0.00, -0.00, -1.00, 657.7, 700.0)">,</text><text xml:space="preserve" font-family="ArialMT,Arial" font-size="20.0" fill="#000000" transform="matrix(1.00, 0.00, -0.00, -1.00, 663.3, 700.0)">0</text><text xml:space="preserve" font-family="ArialMT,Arial" font-size="20.0" fill="#000000" transform="matrix(1.00, 0.00, -0.00, -1.00, 674.4, 700.0)">0</text><text xml:space="preserve" font-family="ArialMT,Arial" font-size="20.0" fill="#000000" transform="matrix(1.00, 0.00, -0.00, -1.00, 685.5, 700.0)">0</text></g></g><path d="M 441.5 727.5 L 583.5 727.5 L 583.5 686.5 L 441.5 686.5 Z M 441.6 727.2 " fill="#FFFFFF"></path><path d="M -0.1 -0.3 L 141.9 -0.3 L 141.9 40.7 L -0.1 40.7 Z M 0.0 0.0 " fill="none" stroke="#FFFFFF" stroke-width="1.00" stroke-linejoin="bevel" transform="matrix(1.00, 0.00, 0.00, -1.00, 441.6, 727.2)"></path><g><clipPath id="clip0x7f875c0393f0"><path d="M 442.1 687.1 L 583.3 687.1 L 583.3 726.7 L 442.1 726.7 Z M 442.1 687.1 "></path></clipPath><g clip-path="url(#clip0x7f875c0393f0)"><text xml:space="preserve" font-family="Arial-BoldMT,Arial" font-weight="bold" font-size="20.0" fill="#000000" transform="matrix(1.00, 0.00, -0.00, -1.00, 462.7, 700.0)">1</text><text xml:space="preserve" font-family="Arial-BoldMT,Arial" font-weight="bold" font-size="20.0" fill="#000000" transform="matrix(1.00, 0.00, -0.00, -1.00, 473.8, 700.0)">0</text><text xml:space="preserve" font-family="ArialMT,Arial" font-size="20.0" fill="#000000" transform="matrix(1.00, 0.00, -0.00, -1.00, 484.9, 700.0)">,</text><text xml:space="preserve" font-family="ArialMT,Arial" font-size="20.0" fill="#000000" transform="matrix(1.00, 0.00, -0.00, -1.00, 490.4, 700.0)">0</text><text xml:space="preserve" font-family="ArialMT,Arial" font-size="20.0" fill="#000000" transform="matrix(1.00, 0.00, -0.00, -1.00, 501.6, 700.0)">0</text><text xml:space="preserve" font-family="ArialMT,Arial" font-size="20.0" fill="#000000" transform="matrix(1.00, 0.00, -0.00, -1.00, 512.7, 700.0)">0</text><text xml:space="preserve" font-family="ArialMT,Arial" font-size="20.0" fill="#000000" transform="matrix(1.00, 0.00, -0.00, -1.00, 523.8, 700.0)">,</text><text xml:space="preserve" font-family="ArialMT,Arial" font-size="20.0" fill="#000000" transform="matrix(1.00, 0.00, -0.00, -1.00, 529.4, 700.0)">0</text><text xml:space="preserve" font-family="ArialMT,Arial" font-size="20.0" fill="#000000" transform="matrix(1.00, 0.00, -0.00, -1.00, 540.5, 700.0)">0</text><text xml:space="preserve" font-family="ArialMT,Arial" font-size="20.0" fill="#000000" transform="matrix(1.00, 0.00, -0.00, -1.00, 551.6, 700.0)">0</text></g></g><path d="M 288.5 727.5 L 457.5 727.5 L 457.5 686.5 L 288.5 686.5 Z M 288.6 727.2 " fill="#FFFFFF"></path><path d="M -0.1 -0.3 L 168.9 -0.3 L 168.9 40.7 L -0.1 40.7 Z M 0.0 0.0 " fill="none" stroke="#FFFFFF" stroke-width="1.00" stroke-linejoin="bevel" transform="matrix(1.00, 0.00, 0.00, -1.00, 288.6, 727.2)"></path><g><clipPath id="clip0x7f875c004c50"><path d="M 289.1 687.1 L 457.3 687.1 L 457.3 726.7 L 289.1 726.7 Z M 289.1 687.1 "></path></clipPath><g clip-path="url(#clip0x7f875c004c50)"><text xml:space="preserve" font-family="Arial-BoldMT,Arial" font-weight="bold" font-size="20.0" fill="#000000" transform="matrix(1.00, 0.00, -0.00, -1.00, 317.6, 700.0)">1</text><text xml:space="preserve" font-family="Arial-BoldMT,Arial" font-weight="bold" font-size="20.0" fill="#000000" transform="matrix(1.00, 0.00, -0.00, -1.00, 328.7, 700.0)">0</text><text xml:space="preserve" font-family="Arial-BoldMT,Arial" font-weight="bold" font-size="20.0" fill="#000000" transform="matrix(1.00, 0.00, -0.00, -1.00, 339.8, 700.0)">0</text><text xml:space="preserve" font-family="ArialMT,Arial" font-size="20.0" fill="#000000" transform="matrix(1.00, 0.00, -0.00, -1.00, 351.0, 700.0)">,</text><text xml:space="preserve" font-family="ArialMT,Arial" font-size="20.0" fill="#000000" transform="matrix(1.00, 0.00, -0.00, -1.00, 356.5, 700.0)">0</text><text xml:space="preserve" font-family="ArialMT,Arial" font-size="20.0" fill="#000000" transform="matrix(1.00, 0.00, -0.00, -1.00, 367.6, 700.0)">0</text><text xml:space="preserve" font-family="ArialMT,Arial" font-size="20.0" fill="#000000" transform="matrix(1.00, 0.00, -0.00, -1.00, 378.7, 700.0)">0</text><text xml:space="preserve" font-family="ArialMT,Arial" font-size="20.0" fill="#000000" transform="matrix(1.00, 0.00, -0.00, -1.00, 389.9, 700.0)">,</text><text xml:space="preserve" font-family="ArialMT,Arial" font-size="20.0" fill="#000000" transform="matrix(1.00, 0.00, -0.00, -1.00, 395.4, 700.0)">0</text><text xml:space="preserve" font-family="ArialMT,Arial" font-size="20.0" fill="#000000" transform="matrix(1.00, 0.00, -0.00, -1.00, 406.5, 700.0)">0</text><text xml:space="preserve" font-family="ArialMT,Arial" font-size="20.0" fill="#000000" transform="matrix(1.00, 0.00, -0.00, -1.00, 417.7, 700.0)">0</text></g></g><path d="M 306.5 1006.5 L 702.5 1006.5 L 702.5 871.5 L 306.5 871.5 Z M 306.6 1006.2 " fill="#666699" fill-opacity="0.63"></path><path d="M -0.1 -0.3 L 395.9 -0.3 L 395.9 134.7 L -0.1 134.7 Z M 0.0 0.0 " fill="none" stroke="#000000" stroke-width="1.00" stroke-linejoin="bevel" transform="matrix(1.00, 0.00, 0.00, -1.00, 306.6, 1006.2)"></path><text xml:space="preserve" font-family="ComicSansMS-Bold,Comic Sans MS" font-weight="bold" font-size="48.0" fill="#000000" transform="matrix(1.00, 0.00, -0.00, -1.00, 421.2, 923.0)">m</text><text xml:space="preserve" font-family="ComicSansMS-Bold,Comic Sans MS" font-weight="bold" font-size="48.0" fill="#000000" transform="matrix(1.00, 0.00, -0.00, -1.00, 458.5, 923.0)">i</text><text xml:space="preserve" font-family="ComicSansMS-Bold,Comic Sans MS" font-weight="bold" font-size="48.0" fill="#000000" transform="matrix(1.00, 0.00, -0.00, -1.00, 471.9, 923.0)">l</text><text xml:space="preserve" font-family="ComicSansMS-Bold,Comic Sans MS" font-weight="bold" font-size="48.0" fill="#000000" transform="matrix(1.00, 0.00, -0.00, -1.00, 485.1, 923.0)">l</text><text xml:space="preserve" font-family="ComicSansMS-Bold,Comic Sans MS" font-weight="bold" font-size="48.0" fill="#000000" transform="matrix(1.00, 0.00, -0.00, -1.00, 498.2, 923.0)">o</text><text xml:space="preserve" font-family="ComicSansMS-Bold,Comic Sans MS" font-weight="bold" font-size="48.0" fill="#000000" transform="matrix(1.00, 0.00, -0.00, -1.00, 523.5, 923.0)">n</text><text xml:space="preserve" font-family="ComicSansMS-Bold,Comic Sans MS" font-weight="bold" font-size="48.0" fill="#000000" transform="matrix(1.00, 0.00, -0.00, -1.00, 548.6, 923.0)">e</text><text xml:space="preserve" font-family="ComicSansMS-Bold,Comic Sans MS" font-weight="bold" font-size="48.0" fill="#000000" transform="matrix(1.00, 0.00, -0.00, -1.00, 575.5, 923.0)">s</text><text xml:space="preserve" font-family="Helvetica-Bold,Helvetica" font-weight="bold" font-size="78.0" fill="#000000" transform="matrix(1.00, 0.00, -0.00, -1.00, 623.3, 772.1)">8</text></g></svg>