<?xml version="1.0" encoding="UTF-8" standalone="no"?><svg xmlns="http://www.w3.org/2000/svg" xmlns:xlink="http://www.w3.org/1999/xlink" clip-rule="evenodd" stroke-miterlimit="10" viewBox="0 0 1920 1080"><desc>SVG generated by Keynote</desc><defs><linearGradient id="gradSh1.18" x1="0.0" y1="0.0" x2="100.0" y2="0.0" gradientUnits="userSpaceOnUse" gradientTransform="matrix(0.00, 1.13, 13.18, 0.00, 955.5, 301.5)"><stop offset="0.00000" stop-color="#C8B2E9"></stop><stop offset="0.00147" stop-color="#C8B3E9"></stop><stop offset="1.00000" stop-color="#F0EAF9"></stop></linearGradient><linearGradient id="gradSh2.19" x1="0.0" y1="0.0" x2="100.0" y2="0.0" gradientUnits="userSpaceOnUse" gradientTransform="matrix(0.00, 1.12, 13.18, 0.00, 955.5, 421.5)"><stop offset="0.00000" stop-color="#C8B2E9"></stop><stop offset="0.00147" stop-color="#C8B3E9"></stop><stop offset="1.00000" stop-color="#F0EAF9"></stop></linearGradient></defs><g transform="matrix(1.00, 0.00, -0.00, -1.00, 0.0, 1080.0)"><path d="M 0.0 1080.0 L 1920.0 1080.0 L 1920.0 0.0 L 0.0 0.0 Z M 0.0 1080.0 " fill="#FFFFFF"></path><image xlink:href="../../2FF5EBC4-4A51-455F-A3A4-DF2653ABA628/assets/9BFE3BD5CF4AB5399E589817EA28AF49.png" width="1331.00" height="125.00" transform="matrix(1.00, 0.00, -0.00, -1.00, 290.1, 417.7)" opacity="0.38"></image><g><clipPath id="clip0x7f875ec11ce0"><path d="M 297.5 413.5 L 1613.5 413.5 L 1613.5 302.5 L 297.5 302.5 Z M 297.6 413.2 "></path></clipPath><g clip-path="url(#clip0x7f875ec11ce0)"><path d="M 297.5 413.5 L 1613.5 413.5 L 1613.5 302.5 L 297.5 302.5 Z M 297.6 413.2 " fill="url(#gradSh1.18)"></path></g></g><path d="M -0.1 -0.3 L 1315.9 -0.3 L 1315.9 110.7 L -0.1 110.7 Z M 0.0 0.0 " fill="none" stroke="#7C609F" stroke-width="1.00" stroke-linejoin="bevel" transform="matrix(1.00, 0.00, 0.00, -1.00, 297.6, 413.2)"></path><g><clipPath id="clip0x7f875c0f1010"><path d="M 283.7 289.1 L 1627.4 289.1 L 1627.4 427.1 L 283.7 427.1 Z M 283.7 289.1 "></path></clipPath><g clip-path="url(#clip0x7f875c0f1010)"><text xml:space="preserve" font-family="ComicSansMS-Bold,Comic Sans MS" font-weight="bold" font-size="66.0" fill="#000000" transform="matrix(1.00, 0.00, -0.00, -1.00, 526.0, 331.3)">8</text><text xml:space="preserve" font-family="ComicSansMS-Bold,Comic Sans MS" font-weight="bold" font-size="66.0" fill="#000000" transform="matrix(1.00, 0.00, -0.00, -1.00, 566.3, 331.3)"> </text><text xml:space="preserve" font-family="ComicSansMS-Bold,Comic Sans MS" font-weight="bold" font-size="66.0" fill="#000000" transform="matrix(1.00, 0.00, -0.00, -1.00, 594.9, 331.3)">e</text><text xml:space="preserve" font-family="ComicSansMS-Bold,Comic Sans MS" font-weight="bold" font-size="66.0" fill="#000000" transform="matrix(1.00, 0.00, -0.00, -1.00, 631.8, 331.3)">s</text><text xml:space="preserve" font-family="ComicSansMS-Bold,Comic Sans MS" font-weight="bold" font-size="66.0" fill="#000000" transform="matrix(1.00, 0.00, -0.00, -1.00, 663.9, 331.3)">t</text><text xml:space="preserve" font-family="ComicSansMS-Bold,Comic Sans MS" font-weight="bold" font-size="66.0" fill="#000000" transform="matrix(1.00, 0.00, -0.00, -1.00, 695.0, 331.3)">á</text><text xml:space="preserve" font-family="ComicSansMS-Bold,Comic Sans MS" font-weight="bold" font-size="66.0" fill="#000000" transform="matrix(1.00, 0.00, -0.00, -1.00, 731.7, 331.3)"> </text><text xml:space="preserve" font-family="ComicSansMS-Bold,Comic Sans MS" font-weight="bold" font-size="66.0" fill="#000000" transform="matrix(1.00, 0.00, -0.00, -1.00, 760.3, 331.3)">e</text><text xml:space="preserve" font-family="ComicSansMS-Bold,Comic Sans MS" font-weight="bold" font-size="66.0" fill="#000000" transform="matrix(1.00, 0.00, -0.00, -1.00, 797.2, 331.3)">n</text><text xml:space="preserve" font-family="ComicSansMS-Bold,Comic Sans MS" font-weight="bold" font-size="66.0" fill="#000000" transform="matrix(1.00, 0.00, -0.00, -1.00, 831.8, 331.3)"> </text><text xml:space="preserve" font-family="ComicSansMS-Bold,Comic Sans MS" font-weight="bold" font-size="66.0" fill="#000000" transform="matrix(1.00, 0.00, -0.00, -1.00, 860.3, 331.3)">e</text><text xml:space="preserve" font-family="ComicSansMS-Bold,Comic Sans MS" font-weight="bold" font-size="66.0" fill="#000000" transform="matrix(1.00, 0.00, -0.00, -1.00, 897.2, 331.3)">l</text><text xml:space="preserve" font-family="ComicSansMS-Bold,Comic Sans MS" font-weight="bold" font-size="66.0" fill="#000000" transform="matrix(1.00, 0.00, -0.00, -1.00, 915.3, 331.3)"> </text><text xml:space="preserve" font-family="ComicSansMS-Bold,Comic Sans MS" font-weight="bold" font-size="66.0" fill="#000000" transform="matrix(1.00, 0.00, -0.00, -1.00, 943.9, 331.3)">l</text><text xml:space="preserve" font-family="ComicSansMS-Bold,Comic Sans MS" font-weight="bold" font-size="66.0" fill="#000000" transform="matrix(1.00, 0.00, -0.00, -1.00, 962.0, 331.3)">u</text><text xml:space="preserve" font-family="ComicSansMS-Bold,Comic Sans MS" font-weight="bold" font-size="66.0" fill="#000000" transform="matrix(1.00, 0.00, -0.00, -1.00, 996.3, 331.3)">g</text><text xml:space="preserve" font-family="ComicSansMS-Bold,Comic Sans MS" font-weight="bold" font-size="66.0" fill="#000000" transform="matrix(1.00, 0.00, -0.00, -1.00, 1031.3, 331.3)">a</text><text xml:space="preserve" font-family="ComicSansMS-Bold,Comic Sans MS" font-weight="bold" font-size="66.0" fill="#000000" transform="matrix(1.00, 0.00, -0.00, -1.00, 1068.0, 331.3)">r</text><text xml:space="preserve" font-family="ComicSansMS-Bold,Comic Sans MS" font-weight="bold" font-size="66.0" fill="#000000" transform="matrix(1.00, 0.00, -0.00, -1.00, 1099.7, 331.3)"> </text><text xml:space="preserve" font-family="ComicSansMS-Bold,Comic Sans MS" font-weight="bold" font-size="66.0" fill="#000000" transform="matrix(1.00, 0.00, -0.00, -1.00, 1128.3, 331.3)">d</text><text xml:space="preserve" font-family="ComicSansMS-Bold,Comic Sans MS" font-weight="bold" font-size="66.0" fill="#000000" transform="matrix(1.00, 0.00, -0.00, -1.00, 1167.1, 331.3)">e</text><text xml:space="preserve" font-family="ComicSansMS-Bold,Comic Sans MS" font-weight="bold" font-size="66.0" fill="#000000" transform="matrix(1.00, 0.00, -0.00, -1.00, 1204.0, 331.3)"> </text><text xml:space="preserve" font-family="ComicSansMS-Bold,Comic Sans MS" font-weight="bold" font-size="66.0" fill="#000000" transform="matrix(1.00, 0.00, -0.00, -1.00, 1232.6, 331.3)">c</text><text xml:space="preserve" font-family="ComicSansMS-Bold,Comic Sans MS" font-weight="bold" font-size="66.0" fill="#000000" transform="matrix(1.00, 0.00, -0.00, -1.00, 1266.5, 331.3)">i</text><text xml:space="preserve" font-family="ComicSansMS-Bold,Comic Sans MS" font-weight="bold" font-size="66.0" fill="#000000" transform="matrix(1.00, 0.00, -0.00, -1.00, 1285.0, 331.3)">e</text><text xml:space="preserve" font-family="ComicSansMS-Bold,Comic Sans MS" font-weight="bold" font-size="66.0" fill="#000000" transform="matrix(1.00, 0.00, -0.00, -1.00, 1321.9, 331.3)">n</text><text xml:space="preserve" font-family="ComicSansMS-Bold,Comic Sans MS" font-weight="bold" font-size="66.0" fill="#000000" transform="matrix(1.00, 0.00, -0.00, -1.00, 1356.5, 331.3)">.</text></g></g><path d="M 1510.5 752.5 L 1618.5 752.5 L 1618.5 750.5 L 1510.5 750.5 Z M 1510.8 752.4 " fill="#FFAA00"></path><path d="M -0.3 -0.1 L 107.7 -0.1 L 107.7 1.9 L -0.3 1.9 Z M 0.0 0.0 " fill="none" stroke="#000000" stroke-width="5.00" stroke-linejoin="bevel" transform="matrix(1.00, 0.00, 0.00, -1.00, 1510.8, 752.4)"></path><path d="M 1230.5 752.5 L 1338.5 752.5 L 1338.5 750.5 L 1230.5 750.5 Z M 1230.0 752.4 " fill="#FFAA00"></path><path d="M 0.5 -0.1 L 108.5 -0.1 L 108.5 1.9 L 0.5 1.9 Z M 0.0 0.0 " fill="none" stroke="#000000" stroke-width="5.00" stroke-linejoin="bevel" transform="matrix(1.00, 0.00, 0.00, -1.00, 1230.0, 752.4)"></path><path d="M 1370.5 752.5 L 1478.5 752.5 L 1478.5 750.5 L 1370.5 750.5 Z M 1370.4 752.4 " fill="#FFAA00"></path><path d="M 0.1 -0.1 L 108.1 -0.1 L 108.1 1.9 L 0.1 1.9 Z M 0.0 0.0 " fill="none" stroke="#000000" stroke-width="5.00" stroke-linejoin="bevel" transform="matrix(1.00, 0.00, 0.00, -1.00, 1370.4, 752.4)"></path><path d="M 704.5 818.5 L 785.5 818.5 L 785.5 728.5 L 704.5 728.5 Z M 704.4 819.0 " fill="#FFFFFF"></path><path d="M 0.1 0.5 L 81.1 0.5 L 81.1 90.5 L 0.1 90.5 Z M 0.0 0.0 " fill="none" stroke="#FFFFFF" stroke-width="1.00" stroke-linejoin="bevel" transform="matrix(1.00, 0.00, 0.00, -1.00, 704.4, 819.0)"></path><g><clipPath id="clip0x7f875c0c6120"><path d="M 695.7 718.0 L 794.1 718.0 L 794.1 827.7 L 695.7 827.7 Z M 695.7 718.0 "></path></clipPath><g clip-path="url(#clip0x7f875c0c6120)"><text xml:space="preserve" font-family="Arial-BoldMT,Arial" font-weight="bold" font-size="64.0" fill="#000000" transform="matrix(1.00, 0.00, -0.00, -1.00, 736.0, 751.5)">,</text></g></g><path d="M 1163.5 818.5 L 1244.5 818.5 L 1244.5 728.5 L 1163.5 728.5 Z M 1163.4 819.0 " fill="#FFFFFF"></path><path d="M 0.1 0.5 L 81.1 0.5 L 81.1 90.5 L 0.1 90.5 Z M 0.0 0.0 " fill="none" stroke="#FFFFFF" stroke-width="1.00" stroke-linejoin="bevel" transform="matrix(1.00, 0.00, 0.00, -1.00, 1163.4, 819.0)"></path><g><clipPath id="clip0x7f875c0c0020"><path d="M 1154.7 718.0 L 1253.1 718.0 L 1253.1 827.7 L 1154.7 827.7 Z M 1154.7 718.0 "></path></clipPath><g clip-path="url(#clip0x7f875c0c0020)"><text xml:space="preserve" font-family="Arial-BoldMT,Arial" font-weight="bold" font-size="64.0" fill="#000000" transform="matrix(1.00, 0.00, -0.00, -1.00, 1195.0, 751.5)">,</text></g></g><path d="M 1545.5 727.5 L 1584.5 727.5 L 1584.5 686.5 L 1545.5 686.5 Z M 1545.0 727.2 " fill="#FFFFFF"></path><path d="M 0.5 -0.3 L 39.5 -0.3 L 39.5 40.7 L 0.5 40.7 Z M 0.0 0.0 " fill="none" stroke="#FFFFFF" stroke-width="1.00" stroke-linejoin="bevel" transform="matrix(1.00, 0.00, 0.00, -1.00, 1545.0, 727.2)"></path><g><clipPath id="clip0x7f875c0c2310"><path d="M 1545.5 687.1 L 1584.1 687.1 L 1584.1 726.7 L 1545.5 726.7 Z M 1545.5 687.1 "></path></clipPath><g clip-path="url(#clip0x7f875c0c2310)"><text xml:space="preserve" font-family="Arial-BoldMT,Arial" font-weight="bold" font-size="20.0" fill="#000000" transform="matrix(1.00, 0.00, -0.00, -1.00, 1559.2, 700.0)">1</text></g></g><path d="M 1393.5 727.5 L 1464.5 727.5 L 1464.5 686.5 L 1393.5 686.5 Z M 1393.8 727.2 " fill="#FFFFFF"></path><path d="M -0.3 -0.3 L 70.7 -0.3 L 70.7 40.7 L -0.3 40.7 Z M 0.0 0.0 " fill="none" stroke="#FFFFFF" stroke-width="1.00" stroke-linejoin="bevel" transform="matrix(1.00, 0.00, 0.00, -1.00, 1393.8, 727.2)"></path><g><clipPath id="clip0x7f875c0bf070"><path d="M 1394.3 687.1 L 1463.5 687.1 L 1463.5 726.7 L 1394.3 726.7 Z M 1394.3 687.1 "></path></clipPath><g clip-path="url(#clip0x7f875c0bf070)"><text xml:space="preserve" font-family="Arial-BoldMT,Arial" font-weight="bold" font-size="20.0" fill="#000000" transform="matrix(1.00, 0.00, -0.00, -1.00, 1417.8, 700.0)">1</text><text xml:space="preserve" font-family="Arial-BoldMT,Arial" font-weight="bold" font-size="20.0" fill="#000000" transform="matrix(1.00, 0.00, -0.00, -1.00, 1428.9, 700.0)">0</text></g></g><path d="M 1240.5 727.5 L 1330.5 727.5 L 1330.5 686.5 L 1240.5 686.5 Z M 1240.8 727.2 " fill="#FFFFFF"></path><path d="M -0.3 -0.3 L 89.7 -0.3 L 89.7 40.7 L -0.3 40.7 Z M 0.0 0.0 " fill="none" stroke="#FFFFFF" stroke-width="1.00" stroke-linejoin="bevel" transform="matrix(1.00, 0.00, 0.00, -1.00, 1240.8, 727.2)"></path><g><clipPath id="clip0x7f875c0bc710"><path d="M 1241.3 687.1 L 1330.3 687.1 L 1330.3 726.7 L 1241.3 726.7 Z M 1241.3 687.1 "></path></clipPath><g clip-path="url(#clip0x7f875c0bc710)"><text xml:space="preserve" font-family="Arial-BoldMT,Arial" font-weight="bold" font-size="20.0" fill="#000000" transform="matrix(1.00, 0.00, -0.00, -1.00, 1269.1, 700.0)">1</text><text xml:space="preserve" font-family="Arial-BoldMT,Arial" font-weight="bold" font-size="20.0" fill="#000000" transform="matrix(1.00, 0.00, -0.00, -1.00, 1280.2, 700.0)">0</text><text xml:space="preserve" font-family="Arial-BoldMT,Arial" font-weight="bold" font-size="20.0" fill="#000000" transform="matrix(1.00, 0.00, -0.00, -1.00, 1291.4, 700.0)">0</text></g></g><path d="M 1217.5 1006.5 L 1613.5 1006.5 L 1613.5 871.5 L 1217.5 871.5 Z M 1217.4 1006.2 " fill="#FF99CC" fill-opacity="0.38"></path><path d="M 0.1 -0.3 L 396.1 -0.3 L 396.1 134.7 L 0.1 134.7 Z M 0.0 0.0 " fill="none" stroke="#000000" stroke-width="1.00" stroke-linejoin="bevel" transform="matrix(1.00, 0.00, 0.00, -1.00, 1217.4, 1006.2)"></path><text xml:space="preserve" font-family="ComicSansMS-Bold,Comic Sans MS" font-weight="bold" font-size="48.0" fill="#000000" transform="matrix(1.00, 0.00, -0.00, -1.00, 1317.0, 921.2)">u</text><text xml:space="preserve" font-family="ComicSansMS-Bold,Comic Sans MS" font-weight="bold" font-size="48.0" fill="#000000" transform="matrix(1.00, 0.00, -0.00, -1.00, 1342.0, 921.2)">n</text><text xml:space="preserve" font-family="ComicSansMS-Bold,Comic Sans MS" font-weight="bold" font-size="48.0" fill="#000000" transform="matrix(1.00, 0.00, -0.00, -1.00, 1367.1, 921.2)">i</text><text xml:space="preserve" font-family="ComicSansMS-Bold,Comic Sans MS" font-weight="bold" font-size="48.0" fill="#000000" transform="matrix(1.00, 0.00, -0.00, -1.00, 1380.6, 921.2)">d</text><text xml:space="preserve" font-family="ComicSansMS-Bold,Comic Sans MS" font-weight="bold" font-size="48.0" fill="#000000" transform="matrix(1.00, 0.00, -0.00, -1.00, 1408.8, 921.2)">a</text><text xml:space="preserve" font-family="ComicSansMS-Bold,Comic Sans MS" font-weight="bold" font-size="48.0" fill="#000000" transform="matrix(1.00, 0.00, -0.00, -1.00, 1435.4, 921.2)">d</text><text xml:space="preserve" font-family="ComicSansMS-Bold,Comic Sans MS" font-weight="bold" font-size="48.0" fill="#000000" transform="matrix(1.00, 0.00, -0.00, -1.00, 1463.7, 921.2)">e</text><text xml:space="preserve" font-family="ComicSansMS-Bold,Comic Sans MS" font-weight="bold" font-size="48.0" fill="#000000" transform="matrix(1.00, 0.00, -0.00, -1.00, 1490.5, 921.2)">s</text><path d="M 1062.5 754.5 L 1170.5 754.5 L 1170.5 752.5 L 1062.5 752.5 Z M 1062.6 754.2 " fill="#FFAA00"></path><path d="M -0.1 -0.3 L 107.9 -0.3 L 107.9 1.7 L -0.1 1.7 Z M 0.0 0.0 " fill="none" stroke="#000000" stroke-width="5.00" stroke-linejoin="bevel" transform="matrix(1.00, 0.00, 0.00, -1.00, 1062.6, 754.2)"></path><path d="M 781.5 754.5 L 889.5 754.5 L 889.5 752.5 L 781.5 752.5 Z M 781.8 754.2 " fill="#FFAA00"></path><path d="M -0.3 -0.3 L 107.7 -0.3 L 107.7 1.7 L -0.3 1.7 Z M 0.0 0.0 " fill="none" stroke="#000000" stroke-width="5.00" stroke-linejoin="bevel" transform="matrix(1.00, 0.00, 0.00, -1.00, 781.8, 754.2)"></path><path d="M 922.5 754.5 L 1030.5 754.5 L 1030.5 752.5 L 922.5 752.5 Z M 922.2 754.2 " fill="#FFAA00"></path><path d="M 0.3 -0.3 L 108.3 -0.3 L 108.3 1.7 L 0.3 1.7 Z M 0.0 0.0 " fill="none" stroke="#000000" stroke-width="5.00" stroke-linejoin="bevel" transform="matrix(1.00, 0.00, 0.00, -1.00, 922.2, 754.2)"></path><path d="M 1069.5 727.5 L 1176.5 727.5 L 1176.5 686.5 L 1069.5 686.5 Z M 1069.8 727.2 " fill="#FFFFFF"></path><path d="M -0.3 -0.3 L 106.7 -0.3 L 106.7 40.7 L -0.3 40.7 Z M 0.0 0.0 " fill="none" stroke="#FFFFFF" stroke-width="1.00" stroke-linejoin="bevel" transform="matrix(1.00, 0.00, 0.00, -1.00, 1069.8, 727.2)"></path><g><clipPath id="clip0x7f875c0b26c0"><path d="M 1070.3 687.1 L 1175.5 687.1 L 1175.5 726.7 L 1070.3 726.7 Z M 1070.3 687.1 "></path></clipPath><g clip-path="url(#clip0x7f875c0b26c0)"><text xml:space="preserve" font-family="Arial-BoldMT,Arial" font-weight="bold" font-size="20.0" fill="#000000" transform="matrix(1.00, 0.00, -0.00, -1.00, 1097.9, 700.0)">1</text><text xml:space="preserve" font-family="ArialMT,Arial" font-size="20.0" fill="#000000" transform="matrix(1.00, 0.00, -0.00, -1.00, 1109.0, 700.0)">,</text><text xml:space="preserve" font-family="ArialMT,Arial" font-size="20.0" fill="#000000" transform="matrix(1.00, 0.00, -0.00, -1.00, 1114.6, 700.0)">0</text><text xml:space="preserve" font-family="ArialMT,Arial" font-size="20.0" fill="#000000" transform="matrix(1.00, 0.00, -0.00, -1.00, 1125.7, 700.0)">0</text><text xml:space="preserve" font-family="ArialMT,Arial" font-size="20.0" fill="#000000" transform="matrix(1.00, 0.00, -0.00, -1.00, 1136.8, 700.0)">0</text></g></g><path d="M 909.5 727.5 L 1046.5 727.5 L 1046.5 686.5 L 909.5 686.5 Z M 909.6 727.2 " fill="#FFFFFF"></path><path d="M -0.1 -0.3 L 136.9 -0.3 L 136.9 40.7 L -0.1 40.7 Z M 0.0 0.0 " fill="none" stroke="#FFFFFF" stroke-width="1.00" stroke-linejoin="bevel" transform="matrix(1.00, 0.00, 0.00, -1.00, 909.6, 727.2)"></path><g><clipPath id="clip0x7f875c0a7100"><path d="M 910.1 687.1 L 1045.9 687.1 L 1045.9 726.7 L 910.1 726.7 Z M 910.1 687.1 "></path></clipPath><g clip-path="url(#clip0x7f875c0a7100)"><text xml:space="preserve" font-family="Arial-BoldMT,Arial" font-weight="bold" font-size="20.0" fill="#000000" transform="matrix(1.00, 0.00, -0.00, -1.00, 947.4, 700.0)">1</text><text xml:space="preserve" font-family="Arial-BoldMT,Arial" font-weight="bold" font-size="20.0" fill="#000000" transform="matrix(1.00, 0.00, -0.00, -1.00, 958.5, 700.0)">0</text><text xml:space="preserve" font-family="ArialMT,Arial" font-size="20.0" fill="#000000" transform="matrix(1.00, 0.00, -0.00, -1.00, 969.7, 700.0)">,</text><text xml:space="preserve" font-family="ArialMT,Arial" font-size="20.0" fill="#000000" transform="matrix(1.00, 0.00, -0.00, -1.00, 975.2, 700.0)">0</text><text xml:space="preserve" font-family="ArialMT,Arial" font-size="20.0" fill="#000000" transform="matrix(1.00, 0.00, -0.00, -1.00, 986.3, 700.0)">0</text><text xml:space="preserve" font-family="ArialMT,Arial" font-size="20.0" fill="#000000" transform="matrix(1.00, 0.00, -0.00, -1.00, 997.5, 700.0)">0</text></g></g><path d="M 762.5 727.5 L 913.5 727.5 L 913.5 686.5 L 762.5 686.5 Z M 762.0 727.2 " fill="#FFFFFF"></path><path d="M 0.5 -0.3 L 151.5 -0.3 L 151.5 40.7 L 0.5 40.7 Z M 0.0 0.0 " fill="none" stroke="#FFFFFF" stroke-width="1.00" stroke-linejoin="bevel" transform="matrix(1.00, 0.00, 0.00, -1.00, 762.0, 727.2)"></path><g><clipPath id="clip0x7f875c0ab780"><path d="M 762.5 687.1 L 912.7 687.1 L 912.7 726.7 L 762.5 726.7 Z M 762.5 687.1 "></path></clipPath><g clip-path="url(#clip0x7f875c0ab780)"><text xml:space="preserve" font-family="Arial-BoldMT,Arial" font-weight="bold" font-size="20.0" fill="#000000" transform="matrix(1.00, 0.00, -0.00, -1.00, 801.5, 700.0)">1</text><text xml:space="preserve" font-family="Arial-BoldMT,Arial" font-weight="bold" font-size="20.0" fill="#000000" transform="matrix(1.00, 0.00, -0.00, -1.00, 812.6, 700.0)">0</text><text xml:space="preserve" font-family="Arial-BoldMT,Arial" font-weight="bold" font-size="20.0" fill="#000000" transform="matrix(1.00, 0.00, -0.00, -1.00, 823.7, 700.0)">0</text><text xml:space="preserve" font-family="ArialMT,Arial" font-size="20.0" fill="#000000" transform="matrix(1.00, 0.00, -0.00, -1.00, 834.8, 700.0)">,</text><text xml:space="preserve" font-family="ArialMT,Arial" font-size="20.0" fill="#000000" transform="matrix(1.00, 0.00, -0.00, -1.00, 840.4, 700.0)">0</text><text xml:space="preserve" font-family="ArialMT,Arial" font-size="20.0" fill="#000000" transform="matrix(1.00, 0.00, -0.00, -1.00, 851.5, 700.0)">0</text><text xml:space="preserve" font-family="ArialMT,Arial" font-size="20.0" fill="#000000" transform="matrix(1.00, 0.00, -0.00, -1.00, 862.6, 700.0)">0</text></g></g><path d="M 763.5 1006.5 L 1159.5 1006.5 L 1159.5 871.5 L 763.5 871.5 Z M 763.8 1006.2 " fill="#993366" fill-opacity="0.48"></path><path d="M -0.3 -0.3 L 395.7 -0.3 L 395.7 134.7 L -0.3 134.7 Z M 0.0 0.0 " fill="none" stroke="#000000" stroke-width="1.00" stroke-linejoin="bevel" transform="matrix(1.00, 0.00, 0.00, -1.00, 763.8, 1006.2)"></path><text xml:space="preserve" font-family="ComicSansMS-Bold,Comic Sans MS" font-weight="bold" font-size="48.0" fill="#000000" transform="matrix(1.00, 0.00, -0.00, -1.00, 899.4, 921.2)">m</text><text xml:space="preserve" font-family="ComicSansMS-Bold,Comic Sans MS" font-weight="bold" font-size="48.0" fill="#000000" transform="matrix(1.00, 0.00, -0.00, -1.00, 936.6, 921.2)">i</text><text xml:space="preserve" font-family="ComicSansMS-Bold,Comic Sans MS" font-weight="bold" font-size="48.0" fill="#000000" transform="matrix(1.00, 0.00, -0.00, -1.00, 950.1, 921.2)">l</text><text xml:space="preserve" font-family="ComicSansMS-Bold,Comic Sans MS" font-weight="bold" font-size="48.0" fill="#000000" transform="matrix(1.00, 0.00, -0.00, -1.00, 963.2, 921.2)">e</text><text xml:space="preserve" font-family="ComicSansMS-Bold,Comic Sans MS" font-weight="bold" font-size="48.0" fill="#000000" transform="matrix(1.00, 0.00, -0.00, -1.00, 990.1, 921.2)">s</text><path d="M 601.5 754.5 L 709.5 754.5 L 709.5 752.5 L 601.5 752.5 Z M 601.8 754.2 " fill="#FFAA00"></path><path d="M -0.3 -0.3 L 107.7 -0.3 L 107.7 1.7 L -0.3 1.7 Z M 0.0 0.0 " fill="none" stroke="#000000" stroke-width="5.00" stroke-linejoin="bevel" transform="matrix(1.00, 0.00, 0.00, -1.00, 601.8, 754.2)"></path><path d="M 328.5 754.5 L 436.5 754.5 L 436.5 752.5 L 328.5 752.5 Z M 328.2 754.2 " fill="#FFAA00"></path><path d="M 0.3 -0.3 L 108.3 -0.3 L 108.3 1.7 L 0.3 1.7 Z M 0.0 0.0 " fill="none" stroke="#000000" stroke-width="5.00" stroke-linejoin="bevel" transform="matrix(1.00, 0.00, 0.00, -1.00, 328.2, 754.2)"></path><path d="M 463.5 754.5 L 571.5 754.5 L 571.5 752.5 L 463.5 752.5 Z M 463.2 754.2 " fill="#FFAA00"></path><path d="M 0.3 -0.3 L 108.3 -0.3 L 108.3 1.7 L 0.3 1.7 Z M 0.0 0.0 " fill="none" stroke="#000000" stroke-width="5.00" stroke-linejoin="bevel" transform="matrix(1.00, 0.00, 0.00, -1.00, 463.2, 754.2)"></path><path d="M 582.5 727.5 L 722.5 727.5 L 722.5 686.5 L 582.5 686.5 Z M 582.0 727.2 " fill="#FFFFFF"></path><path d="M 0.5 -0.3 L 140.5 -0.3 L 140.5 40.7 L 0.5 40.7 Z M 0.0 0.0 " fill="none" stroke="#FFFFFF" stroke-width="1.00" stroke-linejoin="bevel" transform="matrix(1.00, 0.00, 0.00, -1.00, 582.0, 727.2)"></path><g><clipPath id="clip0x7f875c0906e0"><path d="M 582.5 687.1 L 721.9 687.1 L 721.9 726.7 L 582.5 726.7 Z M 582.5 687.1 "></path></clipPath><g clip-path="url(#clip0x7f875c0906e0)"><text xml:space="preserve" font-family="Arial-BoldMT,Arial" font-weight="bold" font-size="20.0" fill="#000000" transform="matrix(1.00, 0.00, -0.00, -1.00, 607.7, 700.0)">1</text><text xml:space="preserve" font-family="ArialMT,Arial" font-size="20.0" fill="#000000" transform="matrix(1.00, 0.00, -0.00, -1.00, 618.8, 700.0)">,</text><text xml:space="preserve" font-family="ArialMT,Arial" font-size="20.0" fill="#000000" transform="matrix(1.00, 0.00, -0.00, -1.00, 624.4, 700.0)">0</text><text xml:space="preserve" font-family="ArialMT,Arial" font-size="20.0" fill="#000000" transform="matrix(1.00, 0.00, -0.00, -1.00, 635.5, 700.0)">0</text><text xml:space="preserve" font-family="ArialMT,Arial" font-size="20.0" fill="#000000" transform="matrix(1.00, 0.00, -0.00, -1.00, 646.6, 700.0)">0</text><text xml:space="preserve" font-family="ArialMT,Arial" font-size="20.0" fill="#000000" transform="matrix(1.00, 0.00, -0.00, -1.00, 657.7, 700.0)">,</text><text xml:space="preserve" font-family="ArialMT,Arial" font-size="20.0" fill="#000000" transform="matrix(1.00, 0.00, -0.00, -1.00, 663.3, 700.0)">0</text><text xml:space="preserve" font-family="ArialMT,Arial" font-size="20.0" fill="#000000" transform="matrix(1.00, 0.00, -0.00, -1.00, 674.4, 700.0)">0</text><text xml:space="preserve" font-family="ArialMT,Arial" font-size="20.0" fill="#000000" transform="matrix(1.00, 0.00, -0.00, -1.00, 685.5, 700.0)">0</text></g></g><path d="M 441.5 727.5 L 583.5 727.5 L 583.5 686.5 L 441.5 686.5 Z M 441.6 727.2 " fill="#FFFFFF"></path><path d="M -0.1 -0.3 L 141.9 -0.3 L 141.9 40.7 L -0.1 40.7 Z M 0.0 0.0 " fill="none" stroke="#FFFFFF" stroke-width="1.00" stroke-linejoin="bevel" transform="matrix(1.00, 0.00, 0.00, -1.00, 441.6, 727.2)"></path><g><clipPath id="clip0x7f875c096170"><path d="M 442.1 687.1 L 583.3 687.1 L 583.3 726.7 L 442.1 726.7 Z M 442.1 687.1 "></path></clipPath><g clip-path="url(#clip0x7f875c096170)"><text xml:space="preserve" font-family="Arial-BoldMT,Arial" font-weight="bold" font-size="20.0" fill="#000000" transform="matrix(1.00, 0.00, -0.00, -1.00, 462.7, 700.0)">1</text><text xml:space="preserve" font-family="Arial-BoldMT,Arial" font-weight="bold" font-size="20.0" fill="#000000" transform="matrix(1.00, 0.00, -0.00, -1.00, 473.8, 700.0)">0</text><text xml:space="preserve" font-family="ArialMT,Arial" font-size="20.0" fill="#000000" transform="matrix(1.00, 0.00, -0.00, -1.00, 484.9, 700.0)">,</text><text xml:space="preserve" font-family="ArialMT,Arial" font-size="20.0" fill="#000000" transform="matrix(1.00, 0.00, -0.00, -1.00, 490.4, 700.0)">0</text><text xml:space="preserve" font-family="ArialMT,Arial" font-size="20.0" fill="#000000" transform="matrix(1.00, 0.00, -0.00, -1.00, 501.6, 700.0)">0</text><text xml:space="preserve" font-family="ArialMT,Arial" font-size="20.0" fill="#000000" transform="matrix(1.00, 0.00, -0.00, -1.00, 512.7, 700.0)">0</text><text xml:space="preserve" font-family="ArialMT,Arial" font-size="20.0" fill="#000000" transform="matrix(1.00, 0.00, -0.00, -1.00, 523.8, 700.0)">,</text><text xml:space="preserve" font-family="ArialMT,Arial" font-size="20.0" fill="#000000" transform="matrix(1.00, 0.00, -0.00, -1.00, 529.4, 700.0)">0</text><text xml:space="preserve" font-family="ArialMT,Arial" font-size="20.0" fill="#000000" transform="matrix(1.00, 0.00, -0.00, -1.00, 540.5, 700.0)">0</text><text xml:space="preserve" font-family="ArialMT,Arial" font-size="20.0" fill="#000000" transform="matrix(1.00, 0.00, -0.00, -1.00, 551.6, 700.0)">0</text></g></g><path d="M 288.5 727.5 L 457.5 727.5 L 457.5 686.5 L 288.5 686.5 Z M 288.6 727.2 " fill="#FFFFFF"></path><path d="M -0.1 -0.3 L 168.9 -0.3 L 168.9 40.7 L -0.1 40.7 Z M 0.0 0.0 " fill="none" stroke="#FFFFFF" stroke-width="1.00" stroke-linejoin="bevel" transform="matrix(1.00, 0.00, 0.00, -1.00, 288.6, 727.2)"></path><g><clipPath id="clip0x7f875c09c140"><path d="M 289.1 687.1 L 457.3 687.1 L 457.3 726.7 L 289.1 726.7 Z M 289.1 687.1 "></path></clipPath><g clip-path="url(#clip0x7f875c09c140)"><text xml:space="preserve" font-family="Arial-BoldMT,Arial" font-weight="bold" font-size="20.0" fill="#000000" transform="matrix(1.00, 0.00, -0.00, -1.00, 317.6, 700.0)">1</text><text xml:space="preserve" font-family="Arial-BoldMT,Arial" font-weight="bold" font-size="20.0" fill="#000000" transform="matrix(1.00, 0.00, -0.00, -1.00, 328.7, 700.0)">0</text><text xml:space="preserve" font-family="Arial-BoldMT,Arial" font-weight="bold" font-size="20.0" fill="#000000" transform="matrix(1.00, 0.00, -0.00, -1.00, 339.8, 700.0)">0</text><text xml:space="preserve" font-family="ArialMT,Arial" font-size="20.0" fill="#000000" transform="matrix(1.00, 0.00, -0.00, -1.00, 351.0, 700.0)">,</text><text xml:space="preserve" font-family="ArialMT,Arial" font-size="20.0" fill="#000000" transform="matrix(1.00, 0.00, -0.00, -1.00, 356.5, 700.0)">0</text><text xml:space="preserve" font-family="ArialMT,Arial" font-size="20.0" fill="#000000" transform="matrix(1.00, 0.00, -0.00, -1.00, 367.6, 700.0)">0</text><text xml:space="preserve" font-family="ArialMT,Arial" font-size="20.0" fill="#000000" transform="matrix(1.00, 0.00, -0.00, -1.00, 378.7, 700.0)">0</text><text xml:space="preserve" font-family="ArialMT,Arial" font-size="20.0" fill="#000000" transform="matrix(1.00, 0.00, -0.00, -1.00, 389.9, 700.0)">,</text><text xml:space="preserve" font-family="ArialMT,Arial" font-size="20.0" fill="#000000" transform="matrix(1.00, 0.00, -0.00, -1.00, 395.4, 700.0)">0</text><text xml:space="preserve" font-family="ArialMT,Arial" font-size="20.0" fill="#000000" transform="matrix(1.00, 0.00, -0.00, -1.00, 406.5, 700.0)">0</text><text xml:space="preserve" font-family="ArialMT,Arial" font-size="20.0" fill="#000000" transform="matrix(1.00, 0.00, -0.00, -1.00, 417.7, 700.0)">0</text></g></g><path d="M 306.5 1006.5 L 702.5 1006.5 L 702.5 871.5 L 306.5 871.5 Z M 306.6 1006.2 " fill="#666699" fill-opacity="0.63"></path><path d="M -0.1 -0.3 L 395.9 -0.3 L 395.9 134.7 L -0.1 134.7 Z M 0.0 0.0 " fill="none" stroke="#000000" stroke-width="1.00" stroke-linejoin="bevel" transform="matrix(1.00, 0.00, 0.00, -1.00, 306.6, 1006.2)"></path><text xml:space="preserve" font-family="ComicSansMS-Bold,Comic Sans MS" font-weight="bold" font-size="48.0" fill="#000000" transform="matrix(1.00, 0.00, -0.00, -1.00, 421.2, 923.0)">m</text><text xml:space="preserve" font-family="ComicSansMS-Bold,Comic Sans MS" font-weight="bold" font-size="48.0" fill="#000000" transform="matrix(1.00, 0.00, -0.00, -1.00, 458.5, 923.0)">i</text><text xml:space="preserve" font-family="ComicSansMS-Bold,Comic Sans MS" font-weight="bold" font-size="48.0" fill="#000000" transform="matrix(1.00, 0.00, -0.00, -1.00, 471.9, 923.0)">l</text><text xml:space="preserve" font-family="ComicSansMS-Bold,Comic Sans MS" font-weight="bold" font-size="48.0" fill="#000000" transform="matrix(1.00, 0.00, -0.00, -1.00, 485.1, 923.0)">l</text><text xml:space="preserve" font-family="ComicSansMS-Bold,Comic Sans MS" font-weight="bold" font-size="48.0" fill="#000000" transform="matrix(1.00, 0.00, -0.00, -1.00, 498.2, 923.0)">o</text><text xml:space="preserve" font-family="ComicSansMS-Bold,Comic Sans MS" font-weight="bold" font-size="48.0" fill="#000000" transform="matrix(1.00, 0.00, -0.00, -1.00, 523.5, 923.0)">n</text><text xml:space="preserve" font-family="ComicSansMS-Bold,Comic Sans MS" font-weight="bold" font-size="48.0" fill="#000000" transform="matrix(1.00, 0.00, -0.00, -1.00, 548.6, 923.0)">e</text><text xml:space="preserve" font-family="ComicSansMS-Bold,Comic Sans MS" font-weight="bold" font-size="48.0" fill="#000000" transform="matrix(1.00, 0.00, -0.00, -1.00, 575.5, 923.0)">s</text><text xml:space="preserve" font-family="Helvetica-Bold,Helvetica" font-weight="bold" font-size="78.0" fill="#000000" transform="matrix(1.00, 0.00, -0.00, -1.00, 1266.5, 770.3)">8</text><image xlink:href="../../2FF5EBC4-4A51-455F-A3A4-DF2653ABA628/assets/8FA3BB83DE5D4211A2FA5120D098484C.png" width="1331.00" height="125.00" transform="matrix(1.00, 0.00, -0.00, -1.00, 290.1, 537.2)" opacity="0.38"></image><g><clipPath id="clip0x7f875ffa06a0"><path d="M 297.5 532.5 L 1613.5 532.5 L 1613.5 422.5 L 297.5 422.5 Z M 297.6 532.7 "></path></clipPath><g clip-path="url(#clip0x7f875ffa06a0)"><path d="M 297.5 532.5 L 1613.5 532.5 L 1613.5 422.5 L 297.5 422.5 Z M 297.6 532.7 " fill="url(#gradSh2.19)"></path></g></g><path d="M -0.1 0.2 L 1315.9 0.2 L 1315.9 110.2 L -0.1 110.2 Z M 0.0 0.0 " fill="none" stroke="#7C609F" stroke-width="1.00" stroke-linejoin="bevel" transform="matrix(1.00, 0.00, 0.00, -1.00, 297.6, 532.7)"></path><g><clipPath id="clip0x7f875f2be0d0"><path d="M 283.7 408.6 L 1627.2 408.6 L 1627.2 546.6 L 283.7 546.6 Z M 283.7 408.6 "></path></clipPath><g clip-path="url(#clip0x7f875f2be0d0)"><text xml:space="preserve" font-family="ComicSansMS-Bold,Comic Sans MS" font-weight="bold" font-size="66.0" fill="#000000" transform="matrix(1.00, 0.00, -0.00, -1.00, 405.5, 450.8)">¿</text><text xml:space="preserve" font-family="ComicSansMS-Bold,Comic Sans MS" font-weight="bold" font-size="66.0" fill="#000000" transform="matrix(1.00, 0.00, -0.00, -1.00, 442.9, 450.8)">Q</text><text xml:space="preserve" font-family="ComicSansMS-Bold,Comic Sans MS" font-weight="bold" font-size="66.0" fill="#000000" transform="matrix(1.00, 0.00, -0.00, -1.00, 500.7, 450.8)">u</text><text xml:space="preserve" font-family="ComicSansMS-Bold,Comic Sans MS" font-weight="bold" font-size="66.0" fill="#000000" transform="matrix(1.00, 0.00, -0.00, -1.00, 535.1, 450.8)">é</text><text xml:space="preserve" font-family="ComicSansMS-Bold,Comic Sans MS" font-weight="bold" font-size="66.0" fill="#000000" transform="matrix(1.00, 0.00, -0.00, -1.00, 572.0, 450.8)"> </text><text xml:space="preserve" font-family="ComicSansMS-Bold,Comic Sans MS" font-weight="bold" font-size="66.0" fill="#000000" transform="matrix(1.00, 0.00, -0.00, -1.00, 600.6, 450.8)">v</text><text xml:space="preserve" font-family="ComicSansMS-Bold,Comic Sans MS" font-weight="bold" font-size="66.0" fill="#000000" transform="matrix(1.00, 0.00, -0.00, -1.00, 632.7, 450.8)">a</text><text xml:space="preserve" font-family="ComicSansMS-Bold,Comic Sans MS" font-weight="bold" font-size="66.0" fill="#000000" transform="matrix(1.00, 0.00, -0.00, -1.00, 669.3, 450.8)">l</text><text xml:space="preserve" font-family="ComicSansMS-Bold,Comic Sans MS" font-weight="bold" font-size="66.0" fill="#000000" transform="matrix(1.00, 0.00, -0.00, -1.00, 687.4, 450.8)">o</text><text xml:space="preserve" font-family="ComicSansMS-Bold,Comic Sans MS" font-weight="bold" font-size="66.0" fill="#000000" transform="matrix(1.00, 0.00, -0.00, -1.00, 722.1, 450.8)">r</text><text xml:space="preserve" font-family="ComicSansMS-Bold,Comic Sans MS" font-weight="bold" font-size="66.0" fill="#000000" transform="matrix(1.00, 0.00, -0.00, -1.00, 753.8, 450.8)"> </text><text xml:space="preserve" font-family="ComicSansMS-Bold,Comic Sans MS" font-weight="bold" font-size="66.0" fill="#000000" transform="matrix(1.00, 0.00, -0.00, -1.00, 782.4, 450.8)">d</text><text xml:space="preserve" font-family="ComicSansMS-Bold,Comic Sans MS" font-weight="bold" font-size="66.0" fill="#000000" transform="matrix(1.00, 0.00, -0.00, -1.00, 821.2, 450.8)">e</text><text xml:space="preserve" font-family="ComicSansMS-Bold,Comic Sans MS" font-weight="bold" font-size="66.0" fill="#000000" transform="matrix(1.00, 0.00, -0.00, -1.00, 858.1, 450.8)"> </text><text xml:space="preserve" font-family="ComicSansMS-Bold,Comic Sans MS" font-weight="bold" font-size="66.0" fill="#000000" transform="matrix(1.00, 0.00, -0.00, -1.00, 886.7, 450.8)">p</text><text xml:space="preserve" font-family="ComicSansMS-Bold,Comic Sans MS" font-weight="bold" font-size="66.0" fill="#000000" transform="matrix(1.00, 0.00, -0.00, -1.00, 922.0, 450.8)">o</text><text xml:space="preserve" font-family="ComicSansMS-Bold,Comic Sans MS" font-weight="bold" font-size="66.0" fill="#000000" transform="matrix(1.00, 0.00, -0.00, -1.00, 956.7, 450.8)">s</text><text xml:space="preserve" font-family="ComicSansMS-Bold,Comic Sans MS" font-weight="bold" font-size="66.0" fill="#000000" transform="matrix(1.00, 0.00, -0.00, -1.00, 988.8, 450.8)">i</text><text xml:space="preserve" font-family="ComicSansMS-Bold,Comic Sans MS" font-weight="bold" font-size="66.0" fill="#000000" transform="matrix(1.00, 0.00, -0.00, -1.00, 1007.3, 450.8)">c</text><text xml:space="preserve" font-family="ComicSansMS-Bold,Comic Sans MS" font-weight="bold" font-size="66.0" fill="#000000" transform="matrix(1.00, 0.00, -0.00, -1.00, 1041.2, 450.8)">i</text><text xml:space="preserve" font-family="ComicSansMS-Bold,Comic Sans MS" font-weight="bold" font-size="66.0" fill="#000000" transform="matrix(1.00, 0.00, -0.00, -1.00, 1059.7, 450.8)">ó</text><text xml:space="preserve" font-family="ComicSansMS-Bold,Comic Sans MS" font-weight="bold" font-size="66.0" fill="#000000" transform="matrix(1.00, 0.00, -0.00, -1.00, 1094.4, 450.8)">n</text><text xml:space="preserve" font-family="ComicSansMS-Bold,Comic Sans MS" font-weight="bold" font-size="66.0" fill="#000000" transform="matrix(1.00, 0.00, -0.00, -1.00, 1129.0, 450.8)"> </text><text xml:space="preserve" font-family="ComicSansMS-Bold,Comic Sans MS" font-weight="bold" font-size="66.0" fill="#000000" transform="matrix(1.00, 0.00, -0.00, -1.00, 1157.6, 450.8)">t</text><text xml:space="preserve" font-family="ComicSansMS-Bold,Comic Sans MS" font-weight="bold" font-size="66.0" fill="#000000" transform="matrix(1.00, 0.00, -0.00, -1.00, 1188.7, 450.8)">i</text><text xml:space="preserve" font-family="ComicSansMS-Bold,Comic Sans MS" font-weight="bold" font-size="66.0" fill="#000000" transform="matrix(1.00, 0.00, -0.00, -1.00, 1207.2, 450.8)">e</text><text xml:space="preserve" font-family="ComicSansMS-Bold,Comic Sans MS" font-weight="bold" font-size="66.0" fill="#000000" transform="matrix(1.00, 0.00, -0.00, -1.00, 1244.1, 450.8)">n</text><text xml:space="preserve" font-family="ComicSansMS-Bold,Comic Sans MS" font-weight="bold" font-size="66.0" fill="#000000" transform="matrix(1.00, 0.00, -0.00, -1.00, 1278.7, 450.8)">e</text><text xml:space="preserve" font-family="ComicSansMS-Bold,Comic Sans MS" font-weight="bold" font-size="66.0" fill="#000000" transform="matrix(1.00, 0.00, -0.00, -1.00, 1315.6, 450.8)"> </text><text xml:space="preserve" font-family="ComicSansMS-Bold,Comic Sans MS" font-weight="bold" font-size="66.0" fill="#000000" transform="matrix(1.00, 0.00, -0.00, -1.00, 1344.2, 450.8)">e</text><text xml:space="preserve" font-family="ComicSansMS-Bold,Comic Sans MS" font-weight="bold" font-size="66.0" fill="#000000" transform="matrix(1.00, 0.00, -0.00, -1.00, 1381.1, 450.8)">l</text><text xml:space="preserve" font-family="ComicSansMS-Bold,Comic Sans MS" font-weight="bold" font-size="66.0" fill="#000000" transform="matrix(1.00, 0.00, -0.00, -1.00, 1399.2, 450.8)"> </text><text xml:space="preserve" font-family="ComicSansMS-Bold,Comic Sans MS" font-weight="bold" font-size="66.0" fill="#000000" transform="matrix(1.00, 0.00, -0.00, -1.00, 1427.8, 450.8)">8</text><text xml:space="preserve" font-family="ComicSansMS-Bold,Comic Sans MS" font-weight="bold" font-size="66.0" fill="#000000" transform="matrix(1.00, 0.00, -0.00, -1.00, 1468.1, 450.8)">?</text></g></g><g><clipPath id="clip0x7f875f2bed00"><path d="M 1441.0 180.0 L 1596.0 180.0 L 1596.0 79.0 L 1441.0 79.0 Z M 1440.5 180.0 "></path></clipPath><g clip-path="url(#clip0x7f875f2bed00)"><g><clipPath id="clip0x7f875f2bf4a0"><path d="M 1440.5 79.2 L 1595.6 79.2 L 1595.6 180.0 L 1440.5 180.0 Z M 1440.5 79.2 "></path></clipPath><g clip-path="url(#clip0x7f875f2bf4a0)"><image xlink:href="../../BF6DC8B6-E505-4222-AA15-A9E26ADAED33/assets/80853EFD8D24BCE501047C376B8C7833.png" width="260.00" height="194.00" transform="matrix(0.66, 0.00, -0.00, -0.66, 1425.0, 180.0)"></image></g></g></g></g><g><clipPath id="clip0x7f875c08d200"><path d="M 1405.0 52.4 L 1445.6 52.4 L 1445.6 92.8 L 1405.0 92.8 Z M 1405.0 52.4 "></path></clipPath><g clip-path="url(#clip0x7f875c08d200)"><path d="M 1425.3 91.6 L 1431.1 79.2 L 1444.2 77.2 L 1434.8 67.5 L 1437.0 53.8 L 1425.3 60.3 L 1413.6 53.8 L 1415.9 67.5 L 1406.4 77.2 L 1419.5 79.2 Z M 1425.3 91.6 " fill="#C3D69B"></path><path d="M 19.9 0.0 L 25.7 12.4 L 38.8 14.4 L 29.3 24.1 L 31.6 37.8 L 19.9 31.3 L 8.2 37.8 L 10.4 24.1 L 1.0 14.4 L 14.0 12.4 Z M 19.9 0.0 " fill="none" stroke="#000000" stroke-width="1.00" stroke-linejoin="bevel" transform="matrix(1.00, 0.00, 0.00, -1.00, 1405.4, 91.6)"></path></g></g></g></svg>