<?xml version="1.0" encoding="UTF-8" standalone="no"?><svg xmlns="http://www.w3.org/2000/svg" xmlns:xlink="http://www.w3.org/1999/xlink" clip-rule="evenodd" stroke-miterlimit="10" viewBox="0 0 1920 1080"><desc>SVG generated by Keynote</desc><defs></defs><g transform="matrix(1.00, 0.00, -0.00, -1.00, 0.0, 1080.0)"><path d="M 0.0 1080.0 L 1920.0 1080.0 L 1920.0 0.0 L 0.0 0.0 Z M 0.0 1080.0 " fill="#FFFFFF"></path><path d="M 285.0 1037.0 L 1633.0 1037.0 L 1633.0 43.0 L 285.0 43.0 Z M 285.0 1036.8 " fill="#000000"></path><path d="M 0.0 -0.2 L 1348.0 -0.2 L 1348.0 993.8 L 0.0 993.8 Z M 0.0 0.0 " fill="none" stroke="#2D2433" stroke-width="14.00" stroke-linejoin="bevel" transform="matrix(1.00, 0.00, 0.00, -1.00, 285.0, 1036.8)"></path><text xml:space="preserve" font-family="ComicSansMS,Comic Sans MS" font-size="76.0" fill="#FFFFFF" transform="matrix(1.00, 0.00, -0.00, -1.00, 572.8, 872.3)">C</text><text xml:space="preserve" font-family="ComicSansMS,Comic Sans MS" font-size="76.0" fill="#FFFFFF" transform="matrix(1.00, 0.00, -0.00, -1.00, 625.7, 872.3)">u</text><text xml:space="preserve" font-family="ComicSansMS,Comic Sans MS" font-size="76.0" fill="#FFFFFF" transform="matrix(1.00, 0.00, -0.00, -1.00, 672.4, 872.3)">a</text><text xml:space="preserve" font-family="ComicSansMS,Comic Sans MS" font-size="76.0" fill="#FFFFFF" transform="matrix(1.00, 0.00, -0.00, -1.00, 718.4, 872.3)">n</text><text xml:space="preserve" font-family="ComicSansMS,Comic Sans MS" font-size="76.0" fill="#FFFFFF" transform="matrix(1.00, 0.00, -0.00, -1.00, 765.3, 872.3)">d</text><text xml:space="preserve" font-family="ComicSansMS,Comic Sans MS" font-size="76.0" fill="#FFFFFF" transform="matrix(1.00, 0.00, -0.00, -1.00, 817.1, 872.3)">o</text><text xml:space="preserve" font-family="ComicSansMS,Comic Sans MS" font-size="76.0" fill="#FFFFFF" transform="matrix(1.00, 0.00, -0.00, -1.00, 864.2, 872.3)"> </text><text xml:space="preserve" font-family="ComicSansMS,Comic Sans MS" font-size="76.0" fill="#FFFFFF" transform="matrix(1.00, 0.00, -0.00, -1.00, 894.0, 872.3)">t</text><text xml:space="preserve" font-family="ComicSansMS,Comic Sans MS" font-size="76.0" fill="#FFFFFF" transform="matrix(1.00, 0.00, -0.00, -1.00, 937.0, 872.3)">ú</text><text xml:space="preserve" font-family="ComicSansMS,Comic Sans MS" font-size="76.0" fill="#FFFFFF" transform="matrix(1.00, 0.00, -0.00, -1.00, 983.7, 872.3)"> </text><text xml:space="preserve" font-family="ComicSansMS,Comic Sans MS" font-size="76.0" fill="#FFFFFF" transform="matrix(1.00, 0.00, -0.00, -1.00, 1013.5, 872.3)">c</text><text xml:space="preserve" font-family="ComicSansMS,Comic Sans MS" font-size="76.0" fill="#FFFFFF" transform="matrix(1.00, 0.00, -0.00, -1.00, 1059.6, 872.3)">a</text><text xml:space="preserve" font-family="ComicSansMS,Comic Sans MS" font-size="76.0" fill="#FFFFFF" transform="matrix(1.00, 0.00, -0.00, -1.00, 1105.6, 872.3)">m</text><text xml:space="preserve" font-family="ComicSansMS,Comic Sans MS" font-size="76.0" fill="#FFFFFF" transform="matrix(1.00, 0.00, -0.00, -1.00, 1171.7, 872.3)">b</text><text xml:space="preserve" font-family="ComicSansMS,Comic Sans MS" font-size="76.0" fill="#FFFFFF" transform="matrix(1.00, 0.00, -0.00, -1.00, 1224.0, 872.3)">i</text><text xml:space="preserve" font-family="ComicSansMS,Comic Sans MS" font-size="76.0" fill="#FFFFFF" transform="matrix(1.00, 0.00, -0.00, -1.00, 1252.4, 872.3)">a</text><text xml:space="preserve" font-family="ComicSansMS,Comic Sans MS" font-size="76.0" fill="#FFFFFF" transform="matrix(1.00, 0.00, -0.00, -1.00, 1298.4, 872.3)">s</text><text xml:space="preserve" font-family="ComicSansMS,Comic Sans MS" font-size="76.0" fill="#FFFFFF" transform="matrix(1.00, 0.00, -0.00, -1.00, 1342.5, 872.3)"> </text><text xml:space="preserve" font-family="ComicSansMS,Comic Sans MS" font-size="76.0" fill="#FFFFFF" transform="matrix(1.00, 0.00, -0.00, -1.00, 1372.3, 872.3)"> </text><text xml:space="preserve" font-family="ComicSansMS,Comic Sans MS" font-size="76.0" fill="#FFFFFF" transform="matrix(1.00, 0.00, -0.00, -1.00, 737.8, 713.3)">l</text><text xml:space="preserve" font-family="ComicSansMS,Comic Sans MS" font-size="76.0" fill="#FFFFFF" transform="matrix(1.00, 0.00, -0.00, -1.00, 765.7, 713.3)">a</text><text xml:space="preserve" font-family="ComicSansMS,Comic Sans MS" font-size="76.0" fill="#FFFFFF" transform="matrix(1.00, 0.00, -0.00, -1.00, 811.8, 713.3)"> </text><text xml:space="preserve" font-family="ComicSansMS,Comic Sans MS" font-size="76.0" fill="#FFFFFF" transform="matrix(1.00, 0.00, -0.00, -1.00, 841.6, 713.3)">p</text><text xml:space="preserve" font-family="ComicSansMS,Comic Sans MS" font-size="76.0" fill="#FFFFFF" transform="matrix(1.00, 0.00, -0.00, -1.00, 889.3, 713.3)">o</text><text xml:space="preserve" font-family="ComicSansMS,Comic Sans MS" font-size="76.0" fill="#FFFFFF" transform="matrix(1.00, 0.00, -0.00, -1.00, 936.4, 713.3)">s</text><text xml:space="preserve" font-family="ComicSansMS,Comic Sans MS" font-size="76.0" fill="#FFFFFF" transform="matrix(1.00, 0.00, -0.00, -1.00, 980.5, 713.3)">i</text><text xml:space="preserve" font-family="ComicSansMS,Comic Sans MS" font-size="76.0" fill="#FFFFFF" transform="matrix(1.00, 0.00, -0.00, -1.00, 1009.0, 713.3)">c</text><text xml:space="preserve" font-family="ComicSansMS,Comic Sans MS" font-size="76.0" fill="#FFFFFF" transform="matrix(1.00, 0.00, -0.00, -1.00, 1055.1, 713.3)">i</text><text xml:space="preserve" font-family="ComicSansMS,Comic Sans MS" font-size="76.0" fill="#FFFFFF" transform="matrix(1.00, 0.00, -0.00, -1.00, 1083.6, 713.3)">ó</text><text xml:space="preserve" font-family="ComicSansMS,Comic Sans MS" font-size="76.0" fill="#FFFFFF" transform="matrix(1.00, 0.00, -0.00, -1.00, 1130.6, 713.3)">n</text><text xml:space="preserve" font-family="ComicSansMS,Comic Sans MS" font-size="76.0" fill="#FFFFFF" transform="matrix(1.00, 0.00, -0.00, -1.00, 1177.6, 713.3)"> </text><text xml:space="preserve" font-family="ComicSansMS,Comic Sans MS" font-size="76.0" fill="#FFFFFF" transform="matrix(1.00, 0.00, -0.00, -1.00, 1207.4, 713.3)"> </text><g><clipPath id="clip0x7f875ba999d0"><path d="M 840.6 699.0 L 1177.6 699.0 L 1177.6 707.5 L 840.6 707.5 Z M 840.6 699.0 "></path></clipPath><g clip-path="url(#clip0x7f875ba999d0)"><path d="M 552.6 261.6 L 888.6 261.6 " fill="none" stroke="#FFFFFF" stroke-width="6.49" transform="matrix(1.00, 0.00, 0.00, -1.00, 289.0, 964.8)"></path></g></g><text xml:space="preserve" font-family="ComicSansMS,Comic Sans MS" font-size="76.0" fill="#FFFFFF" transform="matrix(1.00, 0.00, -0.00, -1.00, 667.1, 554.3)">d</text><text xml:space="preserve" font-family="ComicSansMS,Comic Sans MS" font-size="76.0" fill="#FFFFFF" transform="matrix(1.00, 0.00, -0.00, -1.00, 718.9, 554.3)">e</text><text xml:space="preserve" font-family="ComicSansMS,Comic Sans MS" font-size="76.0" fill="#FFFFFF" transform="matrix(1.00, 0.00, -0.00, -1.00, 767.6, 554.3)"> </text><text xml:space="preserve" font-family="ComicSansMS,Comic Sans MS" font-size="76.0" fill="#FFFFFF" transform="matrix(1.00, 0.00, -0.00, -1.00, 797.4, 554.3)">u</text><text xml:space="preserve" font-family="ComicSansMS,Comic Sans MS" font-size="76.0" fill="#FFFFFF" transform="matrix(1.00, 0.00, -0.00, -1.00, 844.1, 554.3)">n</text><text xml:space="preserve" font-family="ComicSansMS,Comic Sans MS" font-size="76.0" fill="#FFFFFF" transform="matrix(1.00, 0.00, -0.00, -1.00, 891.1, 554.3)"> </text><text xml:space="preserve" font-family="ComicSansMS,Comic Sans MS" font-size="76.0" fill="#FFFFFF" transform="matrix(1.00, 0.00, -0.00, -1.00, 920.9, 554.3)">n</text><text xml:space="preserve" font-family="ComicSansMS,Comic Sans MS" font-size="76.0" fill="#FFFFFF" transform="matrix(1.00, 0.00, -0.00, -1.00, 967.8, 554.3)">ú</text><text xml:space="preserve" font-family="ComicSansMS,Comic Sans MS" font-size="76.0" fill="#FFFFFF" transform="matrix(1.00, 0.00, -0.00, -1.00, 1014.5, 554.3)">m</text><text xml:space="preserve" font-family="ComicSansMS,Comic Sans MS" font-size="76.0" fill="#FFFFFF" transform="matrix(1.00, 0.00, -0.00, -1.00, 1080.6, 554.3)">e</text><text xml:space="preserve" font-family="ComicSansMS,Comic Sans MS" font-size="76.0" fill="#FFFFFF" transform="matrix(1.00, 0.00, -0.00, -1.00, 1129.3, 554.3)">r</text><text xml:space="preserve" font-family="ComicSansMS,Comic Sans MS" font-size="76.0" fill="#FFFFFF" transform="matrix(1.00, 0.00, -0.00, -1.00, 1173.0, 554.3)">o</text><text xml:space="preserve" font-family="ComicSansMS,Comic Sans MS" font-size="76.0" fill="#FFFFFF" transform="matrix(1.00, 0.00, -0.00, -1.00, 1220.0, 554.3)">,</text><text xml:space="preserve" font-family="ComicSansMS,Comic Sans MS" font-size="76.0" fill="#FFFFFF" transform="matrix(1.00, 0.00, -0.00, -1.00, 1248.2, 554.3)"> </text><text xml:space="preserve" font-family="ComicSansMS,Comic Sans MS" font-size="76.0" fill="#FFFFFF" transform="matrix(1.00, 0.00, -0.00, -1.00, 1278.0, 554.3)"> </text><text xml:space="preserve" font-family="ComicSansMS,Comic Sans MS" font-size="76.0" fill="#FFFFFF" transform="matrix(1.00, 0.00, -0.00, -1.00, 793.1, 395.3)">c</text><text xml:space="preserve" font-family="ComicSansMS,Comic Sans MS" font-size="76.0" fill="#FFFFFF" transform="matrix(1.00, 0.00, -0.00, -1.00, 839.3, 395.3)">a</text><text xml:space="preserve" font-family="ComicSansMS,Comic Sans MS" font-size="76.0" fill="#FFFFFF" transform="matrix(1.00, 0.00, -0.00, -1.00, 885.3, 395.3)">m</text><text xml:space="preserve" font-family="ComicSansMS,Comic Sans MS" font-size="76.0" fill="#FFFFFF" transform="matrix(1.00, 0.00, -0.00, -1.00, 951.4, 395.3)">b</text><text xml:space="preserve" font-family="ComicSansMS,Comic Sans MS" font-size="76.0" fill="#FFFFFF" transform="matrix(1.00, 0.00, -0.00, -1.00, 1003.7, 395.3)">i</text><text xml:space="preserve" font-family="ComicSansMS,Comic Sans MS" font-size="76.0" fill="#FFFFFF" transform="matrix(1.00, 0.00, -0.00, -1.00, 1032.1, 395.3)">a</text><text xml:space="preserve" font-family="ComicSansMS,Comic Sans MS" font-size="76.0" fill="#FFFFFF" transform="matrix(1.00, 0.00, -0.00, -1.00, 1078.1, 395.3)">s</text><text xml:space="preserve" font-family="ComicSansMS,Comic Sans MS" font-size="76.0" fill="#FFFFFF" transform="matrix(1.00, 0.00, -0.00, -1.00, 1122.2, 395.3)"> </text><text xml:space="preserve" font-family="ComicSansMS,Comic Sans MS" font-size="76.0" fill="#FFFFFF" transform="matrix(1.00, 0.00, -0.00, -1.00, 1152.0, 395.3)"> </text><text xml:space="preserve" font-family="ComicSansMS,Comic Sans MS" font-size="76.0" fill="#FFFFFF" transform="matrix(1.00, 0.00, -0.00, -1.00, 800.0, 236.3)">e</text><text xml:space="preserve" font-family="ComicSansMS,Comic Sans MS" font-size="76.0" fill="#FFFFFF" transform="matrix(1.00, 0.00, -0.00, -1.00, 848.8, 236.3)">l</text><text xml:space="preserve" font-family="ComicSansMS,Comic Sans MS" font-size="76.0" fill="#FFFFFF" transform="matrix(1.00, 0.00, -0.00, -1.00, 876.7, 236.3)"> </text><text xml:space="preserve" font-family="ComicSansMS,Comic Sans MS" font-size="76.0" fill="#FFFFFF" transform="matrix(1.00, 0.00, -0.00, -1.00, 906.6, 236.3)">v</text><text xml:space="preserve" font-family="ComicSansMS,Comic Sans MS" font-size="76.0" fill="#FFFFFF" transform="matrix(1.00, 0.00, -0.00, -1.00, 950.7, 236.3)">a</text><text xml:space="preserve" font-family="ComicSansMS,Comic Sans MS" font-size="76.0" fill="#FFFFFF" transform="matrix(1.00, 0.00, -0.00, -1.00, 996.7, 236.3)">l</text><text xml:space="preserve" font-family="ComicSansMS,Comic Sans MS" font-size="76.0" fill="#FFFFFF" transform="matrix(1.00, 0.00, -0.00, -1.00, 1024.6, 236.3)">o</text><text xml:space="preserve" font-family="ComicSansMS,Comic Sans MS" font-size="76.0" fill="#FFFFFF" transform="matrix(1.00, 0.00, -0.00, -1.00, 1071.7, 236.3)">r</text><text xml:space="preserve" font-family="ComicSansMS,Comic Sans MS" font-size="76.0" fill="#FFFFFF" transform="matrix(1.00, 0.00, -0.00, -1.00, 1115.4, 236.3)"> </text><text xml:space="preserve" font-family="ComicSansMS,Comic Sans MS" font-size="76.0" fill="#FFFFFF" transform="matrix(1.00, 0.00, -0.00, -1.00, 1145.2, 236.3)"> </text><g><clipPath id="clip0x7f875ba85d70"><path d="M 905.6 222.0 L 1115.4 222.0 L 1115.4 230.5 L 905.6 230.5 Z M 905.6 222.0 "></path></clipPath><g clip-path="url(#clip0x7f875ba85d70)"><path d="M 617.6 738.6 L 826.4 738.6 " fill="none" stroke="#FFFFFF" stroke-width="6.49" transform="matrix(1.00, 0.00, 0.00, -1.00, 289.0, 964.8)"></path></g></g><text xml:space="preserve" font-family="ComicSansMS,Comic Sans MS" font-size="76.0" fill="#FFFFFF" transform="matrix(1.00, 0.00, -0.00, -1.00, 644.1, 77.3)">d</text><text xml:space="preserve" font-family="ComicSansMS,Comic Sans MS" font-size="76.0" fill="#FFFFFF" transform="matrix(1.00, 0.00, -0.00, -1.00, 695.9, 77.3)">e</text><text xml:space="preserve" font-family="ComicSansMS,Comic Sans MS" font-size="76.0" fill="#FFFFFF" transform="matrix(1.00, 0.00, -0.00, -1.00, 744.7, 77.3)"> </text><text xml:space="preserve" font-family="ComicSansMS,Comic Sans MS" font-size="76.0" fill="#FFFFFF" transform="matrix(1.00, 0.00, -0.00, -1.00, 774.5, 77.3)">e</text><text xml:space="preserve" font-family="ComicSansMS,Comic Sans MS" font-size="76.0" fill="#FFFFFF" transform="matrix(1.00, 0.00, -0.00, -1.00, 823.2, 77.3)">s</text><text xml:space="preserve" font-family="ComicSansMS,Comic Sans MS" font-size="76.0" fill="#FFFFFF" transform="matrix(1.00, 0.00, -0.00, -1.00, 867.3, 77.3)">e</text><text xml:space="preserve" font-family="ComicSansMS,Comic Sans MS" font-size="76.0" fill="#FFFFFF" transform="matrix(1.00, 0.00, -0.00, -1.00, 916.0, 77.3)"> </text><text xml:space="preserve" font-family="ComicSansMS,Comic Sans MS" font-size="76.0" fill="#FFFFFF" transform="matrix(1.00, 0.00, -0.00, -1.00, 945.8, 77.3)">n</text><text xml:space="preserve" font-family="ComicSansMS,Comic Sans MS" font-size="76.0" fill="#FFFFFF" transform="matrix(1.00, 0.00, -0.00, -1.00, 992.7, 77.3)">ú</text><text xml:space="preserve" font-family="ComicSansMS,Comic Sans MS" font-size="76.0" fill="#FFFFFF" transform="matrix(1.00, 0.00, -0.00, -1.00, 1039.4, 77.3)">m</text><text xml:space="preserve" font-family="ComicSansMS,Comic Sans MS" font-size="76.0" fill="#FFFFFF" transform="matrix(1.00, 0.00, -0.00, -1.00, 1105.5, 77.3)">e</text><text xml:space="preserve" font-family="ComicSansMS,Comic Sans MS" font-size="76.0" fill="#FFFFFF" transform="matrix(1.00, 0.00, -0.00, -1.00, 1154.2, 77.3)">r</text><text xml:space="preserve" font-family="ComicSansMS,Comic Sans MS" font-size="76.0" fill="#FFFFFF" transform="matrix(1.00, 0.00, -0.00, -1.00, 1197.9, 77.3)">o</text><text xml:space="preserve" font-family="ComicSansMS,Comic Sans MS" font-size="76.0" fill="#FFFFFF" transform="matrix(1.00, 0.00, -0.00, -1.00, 1245.0, 77.3)">.</text><g><clipPath id="clip0x7f875ba87180"><path d="M 1441.0 209.0 L 1596.0 209.0 L 1596.0 108.0 L 1441.0 108.0 Z M 1440.5 208.8 "></path></clipPath><g clip-path="url(#clip0x7f875ba87180)"><g><clipPath id="clip0x7f875ba8d790"><path d="M 1440.5 108.0 L 1595.6 108.0 L 1595.6 208.8 L 1440.5 208.8 Z M 1440.5 108.0 "></path></clipPath><g clip-path="url(#clip0x7f875ba8d790)"><image xlink:href="../../BF6DC8B6-E505-4222-AA15-A9E26ADAED33/assets/80853EFD8D24BCE501047C376B8C7833.png" width="260.00" height="194.00" transform="matrix(0.66, 0.00, -0.00, -0.66, 1425.0, 208.8)"></image></g></g></g></g><g><clipPath id="clip0x7f875ba8efb0"><path d="M 1405.0 81.2 L 1445.6 81.2 L 1445.6 121.6 L 1405.0 121.6 Z M 1405.0 81.2 "></path></clipPath><g clip-path="url(#clip0x7f875ba8efb0)"><path d="M 1425.3 120.4 L 1431.1 108.0 L 1444.2 106.0 L 1434.8 96.3 L 1437.0 82.6 L 1425.3 89.1 L 1413.6 82.6 L 1415.9 96.3 L 1406.4 106.0 L 1419.5 108.0 Z M 1425.3 120.4 " fill="#C3D69B"></path><path d="M 19.9 0.0 L 25.7 12.4 L 38.8 14.4 L 29.3 24.1 L 31.6 37.8 L 19.9 31.3 L 8.2 37.8 L 10.4 24.1 L 1.0 14.4 L 14.0 12.4 Z M 19.9 0.0 " fill="none" stroke="#000000" stroke-width="1.00" stroke-linejoin="bevel" transform="matrix(1.00, 0.00, 0.00, -1.00, 1405.4, 120.4)"></path></g></g></g></svg>