<?xml version="1.0" encoding="UTF-8" standalone="no"?><svg xmlns="http://www.w3.org/2000/svg" xmlns:xlink="http://www.w3.org/1999/xlink" clip-rule="evenodd" stroke-miterlimit="10" viewBox="0 0 800 866"><desc>SVG generated by Keynote</desc><defs></defs><g transform="matrix(1.00, 0.00, -0.00, -1.00, 0.0, 866.0)"><text xml:space="preserve" font-family="ComicSansMS,Comic Sans MS" font-size="76.0" fill="#FFFFFF" transform="matrix(1.00, 0.00, -0.00, -1.00, -1.2, 802.3)">C</text><text xml:space="preserve" font-family="ComicSansMS,Comic Sans MS" font-size="76.0" fill="#FFFFFF" transform="matrix(1.00, 0.00, -0.00, -1.00, 51.7, 802.3)">u</text><text xml:space="preserve" font-family="ComicSansMS,Comic Sans MS" font-size="76.0" fill="#FFFFFF" transform="matrix(1.00, 0.00, -0.00, -1.00, 98.4, 802.3)">a</text><text xml:space="preserve" font-family="ComicSansMS,Comic Sans MS" font-size="76.0" fill="#FFFFFF" transform="matrix(1.00, 0.00, -0.00, -1.00, 144.4, 802.3)">n</text><text xml:space="preserve" font-family="ComicSansMS,Comic Sans MS" font-size="76.0" fill="#FFFFFF" transform="matrix(1.00, 0.00, -0.00, -1.00, 191.3, 802.3)">d</text><text xml:space="preserve" font-family="ComicSansMS,Comic Sans MS" font-size="76.0" fill="#FFFFFF" transform="matrix(1.00, 0.00, -0.00, -1.00, 243.1, 802.3)">o</text><text xml:space="preserve" font-family="ComicSansMS,Comic Sans MS" font-size="76.0" fill="#FFFFFF" transform="matrix(1.00, 0.00, -0.00, -1.00, 290.2, 802.3)"> </text><text xml:space="preserve" font-family="ComicSansMS,Comic Sans MS" font-size="76.0" fill="#FFFFFF" transform="matrix(1.00, 0.00, -0.00, -1.00, 320.0, 802.3)">t</text><text xml:space="preserve" font-family="ComicSansMS,Comic Sans MS" font-size="76.0" fill="#FFFFFF" transform="matrix(1.00, 0.00, -0.00, -1.00, 363.0, 802.3)">ú</text><text xml:space="preserve" font-family="ComicSansMS,Comic Sans MS" font-size="76.0" fill="#FFFFFF" transform="matrix(1.00, 0.00, -0.00, -1.00, 409.7, 802.3)"> </text><text xml:space="preserve" font-family="ComicSansMS,Comic Sans MS" font-size="76.0" fill="#FFFFFF" transform="matrix(1.00, 0.00, -0.00, -1.00, 439.5, 802.3)">c</text><text xml:space="preserve" font-family="ComicSansMS,Comic Sans MS" font-size="76.0" fill="#FFFFFF" transform="matrix(1.00, 0.00, -0.00, -1.00, 485.6, 802.3)">a</text><text xml:space="preserve" font-family="ComicSansMS,Comic Sans MS" font-size="76.0" fill="#FFFFFF" transform="matrix(1.00, 0.00, -0.00, -1.00, 531.6, 802.3)">m</text><text xml:space="preserve" font-family="ComicSansMS,Comic Sans MS" font-size="76.0" fill="#FFFFFF" transform="matrix(1.00, 0.00, -0.00, -1.00, 597.7, 802.3)">b</text><text xml:space="preserve" font-family="ComicSansMS,Comic Sans MS" font-size="76.0" fill="#FFFFFF" transform="matrix(1.00, 0.00, -0.00, -1.00, 650.0, 802.3)">i</text><text xml:space="preserve" font-family="ComicSansMS,Comic Sans MS" font-size="76.0" fill="#FFFFFF" transform="matrix(1.00, 0.00, -0.00, -1.00, 678.4, 802.3)">a</text><text xml:space="preserve" font-family="ComicSansMS,Comic Sans MS" font-size="76.0" fill="#FFFFFF" transform="matrix(1.00, 0.00, -0.00, -1.00, 724.4, 802.3)">s</text><text xml:space="preserve" font-family="ComicSansMS,Comic Sans MS" font-size="76.0" fill="#FFFFFF" transform="matrix(1.00, 0.00, -0.00, -1.00, 768.5, 802.3)"> </text><text xml:space="preserve" font-family="ComicSansMS,Comic Sans MS" font-size="76.0" fill="#FFFFFF" transform="matrix(1.00, 0.00, -0.00, -1.00, 798.3, 802.3)"> </text><text xml:space="preserve" font-family="ComicSansMS,Comic Sans MS" font-size="76.0" fill="#FFFFFF" transform="matrix(1.00, 0.00, -0.00, -1.00, 163.8, 643.3)">l</text><text xml:space="preserve" font-family="ComicSansMS,Comic Sans MS" font-size="76.0" fill="#FFFFFF" transform="matrix(1.00, 0.00, -0.00, -1.00, 191.7, 643.3)">a</text><text xml:space="preserve" font-family="ComicSansMS,Comic Sans MS" font-size="76.0" fill="#FFFFFF" transform="matrix(1.00, 0.00, -0.00, -1.00, 237.8, 643.3)"> </text><text xml:space="preserve" font-family="ComicSansMS,Comic Sans MS" font-size="76.0" fill="#FFFFFF" transform="matrix(1.00, 0.00, -0.00, -1.00, 267.6, 643.3)">p</text><text xml:space="preserve" font-family="ComicSansMS,Comic Sans MS" font-size="76.0" fill="#FFFFFF" transform="matrix(1.00, 0.00, -0.00, -1.00, 315.3, 643.3)">o</text><text xml:space="preserve" font-family="ComicSansMS,Comic Sans MS" font-size="76.0" fill="#FFFFFF" transform="matrix(1.00, 0.00, -0.00, -1.00, 362.4, 643.3)">s</text><text xml:space="preserve" font-family="ComicSansMS,Comic Sans MS" font-size="76.0" fill="#FFFFFF" transform="matrix(1.00, 0.00, -0.00, -1.00, 406.5, 643.3)">i</text><text xml:space="preserve" font-family="ComicSansMS,Comic Sans MS" font-size="76.0" fill="#FFFFFF" transform="matrix(1.00, 0.00, -0.00, -1.00, 435.0, 643.3)">c</text><text xml:space="preserve" font-family="ComicSansMS,Comic Sans MS" font-size="76.0" fill="#FFFFFF" transform="matrix(1.00, 0.00, -0.00, -1.00, 481.1, 643.3)">i</text><text xml:space="preserve" font-family="ComicSansMS,Comic Sans MS" font-size="76.0" fill="#FFFFFF" transform="matrix(1.00, 0.00, -0.00, -1.00, 509.6, 643.3)">ó</text><text xml:space="preserve" font-family="ComicSansMS,Comic Sans MS" font-size="76.0" fill="#FFFFFF" transform="matrix(1.00, 0.00, -0.00, -1.00, 556.6, 643.3)">n</text><text xml:space="preserve" font-family="ComicSansMS,Comic Sans MS" font-size="76.0" fill="#FFFFFF" transform="matrix(1.00, 0.00, -0.00, -1.00, 603.6, 643.3)"> </text><text xml:space="preserve" font-family="ComicSansMS,Comic Sans MS" font-size="76.0" fill="#FFFFFF" transform="matrix(1.00, 0.00, -0.00, -1.00, 633.4, 643.3)"> </text><g><clipPath id="clip0x7f875ad45070"><path d="M 266.6 629.0 L 603.6 629.0 L 603.6 637.5 L 266.6 637.5 Z M 266.6 629.0 "></path></clipPath><g clip-path="url(#clip0x7f875ad45070)"><path d="M 552.6 261.6 L 888.6 261.6 " fill="none" stroke="#FFFFFF" stroke-width="6.49" transform="matrix(1.00, 0.00, 0.00, -1.00, -285.0, 894.8)"></path></g></g><text xml:space="preserve" font-family="ComicSansMS,Comic Sans MS" font-size="76.0" fill="#FFFFFF" transform="matrix(1.00, 0.00, -0.00, -1.00, 93.1, 484.3)">d</text><text xml:space="preserve" font-family="ComicSansMS,Comic Sans MS" font-size="76.0" fill="#FFFFFF" transform="matrix(1.00, 0.00, -0.00, -1.00, 144.9, 484.3)">e</text><text xml:space="preserve" font-family="ComicSansMS,Comic Sans MS" font-size="76.0" fill="#FFFFFF" transform="matrix(1.00, 0.00, -0.00, -1.00, 193.6, 484.3)"> </text><text xml:space="preserve" font-family="ComicSansMS,Comic Sans MS" font-size="76.0" fill="#FFFFFF" transform="matrix(1.00, 0.00, -0.00, -1.00, 223.4, 484.3)">u</text><text xml:space="preserve" font-family="ComicSansMS,Comic Sans MS" font-size="76.0" fill="#FFFFFF" transform="matrix(1.00, 0.00, -0.00, -1.00, 270.1, 484.3)">n</text><text xml:space="preserve" font-family="ComicSansMS,Comic Sans MS" font-size="76.0" fill="#FFFFFF" transform="matrix(1.00, 0.00, -0.00, -1.00, 317.1, 484.3)"> </text><text xml:space="preserve" font-family="ComicSansMS,Comic Sans MS" font-size="76.0" fill="#FFFFFF" transform="matrix(1.00, 0.00, -0.00, -1.00, 346.9, 484.3)">n</text><text xml:space="preserve" font-family="ComicSansMS,Comic Sans MS" font-size="76.0" fill="#FFFFFF" transform="matrix(1.00, 0.00, -0.00, -1.00, 393.8, 484.3)">ú</text><text xml:space="preserve" font-family="ComicSansMS,Comic Sans MS" font-size="76.0" fill="#FFFFFF" transform="matrix(1.00, 0.00, -0.00, -1.00, 440.5, 484.3)">m</text><text xml:space="preserve" font-family="ComicSansMS,Comic Sans MS" font-size="76.0" fill="#FFFFFF" transform="matrix(1.00, 0.00, -0.00, -1.00, 506.6, 484.3)">e</text><text xml:space="preserve" font-family="ComicSansMS,Comic Sans MS" font-size="76.0" fill="#FFFFFF" transform="matrix(1.00, 0.00, -0.00, -1.00, 555.3, 484.3)">r</text><text xml:space="preserve" font-family="ComicSansMS,Comic Sans MS" font-size="76.0" fill="#FFFFFF" transform="matrix(1.00, 0.00, -0.00, -1.00, 599.0, 484.3)">o</text><text xml:space="preserve" font-family="ComicSansMS,Comic Sans MS" font-size="76.0" fill="#FFFFFF" transform="matrix(1.00, 0.00, -0.00, -1.00, 646.0, 484.3)">,</text><text xml:space="preserve" font-family="ComicSansMS,Comic Sans MS" font-size="76.0" fill="#FFFFFF" transform="matrix(1.00, 0.00, -0.00, -1.00, 674.2, 484.3)"> </text><text xml:space="preserve" font-family="ComicSansMS,Comic Sans MS" font-size="76.0" fill="#FFFFFF" transform="matrix(1.00, 0.00, -0.00, -1.00, 704.0, 484.3)"> </text><text xml:space="preserve" font-family="ComicSansMS,Comic Sans MS" font-size="76.0" fill="#FFFFFF" transform="matrix(1.00, 0.00, -0.00, -1.00, 219.1, 325.3)">c</text><text xml:space="preserve" font-family="ComicSansMS,Comic Sans MS" font-size="76.0" fill="#FFFFFF" transform="matrix(1.00, 0.00, -0.00, -1.00, 265.3, 325.3)">a</text><text xml:space="preserve" font-family="ComicSansMS,Comic Sans MS" font-size="76.0" fill="#FFFFFF" transform="matrix(1.00, 0.00, -0.00, -1.00, 311.3, 325.3)">m</text><text xml:space="preserve" font-family="ComicSansMS,Comic Sans MS" font-size="76.0" fill="#FFFFFF" transform="matrix(1.00, 0.00, -0.00, -1.00, 377.4, 325.3)">b</text><text xml:space="preserve" font-family="ComicSansMS,Comic Sans MS" font-size="76.0" fill="#FFFFFF" transform="matrix(1.00, 0.00, -0.00, -1.00, 429.7, 325.3)">i</text><text xml:space="preserve" font-family="ComicSansMS,Comic Sans MS" font-size="76.0" fill="#FFFFFF" transform="matrix(1.00, 0.00, -0.00, -1.00, 458.1, 325.3)">a</text><text xml:space="preserve" font-family="ComicSansMS,Comic Sans MS" font-size="76.0" fill="#FFFFFF" transform="matrix(1.00, 0.00, -0.00, -1.00, 504.1, 325.3)">s</text><text xml:space="preserve" font-family="ComicSansMS,Comic Sans MS" font-size="76.0" fill="#FFFFFF" transform="matrix(1.00, 0.00, -0.00, -1.00, 548.2, 325.3)"> </text><text xml:space="preserve" font-family="ComicSansMS,Comic Sans MS" font-size="76.0" fill="#FFFFFF" transform="matrix(1.00, 0.00, -0.00, -1.00, 578.0, 325.3)"> </text><text xml:space="preserve" font-family="ComicSansMS,Comic Sans MS" font-size="76.0" fill="#FFFFFF" transform="matrix(1.00, 0.00, -0.00, -1.00, 226.0, 166.3)">e</text><text xml:space="preserve" font-family="ComicSansMS,Comic Sans MS" font-size="76.0" fill="#FFFFFF" transform="matrix(1.00, 0.00, -0.00, -1.00, 274.8, 166.3)">l</text><text xml:space="preserve" font-family="ComicSansMS,Comic Sans MS" font-size="76.0" fill="#FFFFFF" transform="matrix(1.00, 0.00, -0.00, -1.00, 302.7, 166.3)"> </text><text xml:space="preserve" font-family="ComicSansMS,Comic Sans MS" font-size="76.0" fill="#FFFFFF" transform="matrix(1.00, 0.00, -0.00, -1.00, 332.6, 166.3)">v</text><text xml:space="preserve" font-family="ComicSansMS,Comic Sans MS" font-size="76.0" fill="#FFFFFF" transform="matrix(1.00, 0.00, -0.00, -1.00, 376.7, 166.3)">a</text><text xml:space="preserve" font-family="ComicSansMS,Comic Sans MS" font-size="76.0" fill="#FFFFFF" transform="matrix(1.00, 0.00, -0.00, -1.00, 422.7, 166.3)">l</text><text xml:space="preserve" font-family="ComicSansMS,Comic Sans MS" font-size="76.0" fill="#FFFFFF" transform="matrix(1.00, 0.00, -0.00, -1.00, 450.6, 166.3)">o</text><text xml:space="preserve" font-family="ComicSansMS,Comic Sans MS" font-size="76.0" fill="#FFFFFF" transform="matrix(1.00, 0.00, -0.00, -1.00, 497.7, 166.3)">r</text><text xml:space="preserve" font-family="ComicSansMS,Comic Sans MS" font-size="76.0" fill="#FFFFFF" transform="matrix(1.00, 0.00, -0.00, -1.00, 541.4, 166.3)"> </text><text xml:space="preserve" font-family="ComicSansMS,Comic Sans MS" font-size="76.0" fill="#FFFFFF" transform="matrix(1.00, 0.00, -0.00, -1.00, 571.2, 166.3)"> </text><g><clipPath id="clip0x7f8759de45f0"><path d="M 331.6 152.0 L 541.4 152.0 L 541.4 160.5 L 331.6 160.5 Z M 331.6 152.0 "></path></clipPath><g clip-path="url(#clip0x7f8759de45f0)"><path d="M 617.6 738.6 L 826.4 738.6 " fill="none" stroke="#FFFFFF" stroke-width="6.49" transform="matrix(1.00, 0.00, 0.00, -1.00, -285.0, 894.8)"></path></g></g><text xml:space="preserve" font-family="ComicSansMS,Comic Sans MS" font-size="76.0" fill="#FFFFFF" transform="matrix(1.00, 0.00, -0.00, -1.00, 70.1, 7.3)">d</text><text xml:space="preserve" font-family="ComicSansMS,Comic Sans MS" font-size="76.0" fill="#FFFFFF" transform="matrix(1.00, 0.00, -0.00, -1.00, 121.9, 7.3)">e</text><text xml:space="preserve" font-family="ComicSansMS,Comic Sans MS" font-size="76.0" fill="#FFFFFF" transform="matrix(1.00, 0.00, -0.00, -1.00, 170.7, 7.3)"> </text><text xml:space="preserve" font-family="ComicSansMS,Comic Sans MS" font-size="76.0" fill="#FFFFFF" transform="matrix(1.00, 0.00, -0.00, -1.00, 200.5, 7.3)">e</text><text xml:space="preserve" font-family="ComicSansMS,Comic Sans MS" font-size="76.0" fill="#FFFFFF" transform="matrix(1.00, 0.00, -0.00, -1.00, 249.2, 7.3)">s</text><text xml:space="preserve" font-family="ComicSansMS,Comic Sans MS" font-size="76.0" fill="#FFFFFF" transform="matrix(1.00, 0.00, -0.00, -1.00, 293.3, 7.3)">e</text><text xml:space="preserve" font-family="ComicSansMS,Comic Sans MS" font-size="76.0" fill="#FFFFFF" transform="matrix(1.00, 0.00, -0.00, -1.00, 342.0, 7.3)"> </text><text xml:space="preserve" font-family="ComicSansMS,Comic Sans MS" font-size="76.0" fill="#FFFFFF" transform="matrix(1.00, 0.00, -0.00, -1.00, 371.8, 7.3)">n</text><text xml:space="preserve" font-family="ComicSansMS,Comic Sans MS" font-size="76.0" fill="#FFFFFF" transform="matrix(1.00, 0.00, -0.00, -1.00, 418.7, 7.3)">ú</text><text xml:space="preserve" font-family="ComicSansMS,Comic Sans MS" font-size="76.0" fill="#FFFFFF" transform="matrix(1.00, 0.00, -0.00, -1.00, 465.4, 7.3)">m</text><text xml:space="preserve" font-family="ComicSansMS,Comic Sans MS" font-size="76.0" fill="#FFFFFF" transform="matrix(1.00, 0.00, -0.00, -1.00, 531.5, 7.3)">e</text><text xml:space="preserve" font-family="ComicSansMS,Comic Sans MS" font-size="76.0" fill="#FFFFFF" transform="matrix(1.00, 0.00, -0.00, -1.00, 580.2, 7.3)">r</text><text xml:space="preserve" font-family="ComicSansMS,Comic Sans MS" font-size="76.0" fill="#FFFFFF" transform="matrix(1.00, 0.00, -0.00, -1.00, 623.9, 7.3)">o</text><text xml:space="preserve" font-family="ComicSansMS,Comic Sans MS" font-size="76.0" fill="#FFFFFF" transform="matrix(1.00, 0.00, -0.00, -1.00, 671.0, 7.3)">.</text></g></svg>