<?xml version="1.0" encoding="UTF-8" standalone="no"?><svg xmlns="http://www.w3.org/2000/svg" xmlns:xlink="http://www.w3.org/1999/xlink" clip-rule="evenodd" stroke-miterlimit="10" viewBox="0 0 1920 1080"><desc>SVG generated by Keynote</desc><defs></defs><g transform="matrix(1.00, 0.00, -0.00, -1.00, 0.0, 1080.0)"><path d="M 0.0 1080.0 L 1920.0 1080.0 L 1920.0 0.0 L 0.0 0.0 Z M 0.0 1080.0 " fill="#FFFFFF"></path><text xml:space="preserve" font-family="ArialRoundedMTBold,Arial Rounded MT Bold" font-size="104.0" fill="#000000" transform="matrix(1.00, 0.00, -0.00, -1.00, 733.2, 600.7)">8</text><text xml:space="preserve" font-family="ArialRoundedMTBold,Arial Rounded MT Bold" font-size="104.0" fill="#000000" transform="matrix(1.00, 0.00, -0.00, -1.00, 795.0, 600.7)"> </text><text xml:space="preserve" font-family="ArialRoundedMTBold,Arial Rounded MT Bold" font-size="104.0" fill="#000000" transform="matrix(1.00, 0.00, -0.00, -1.00, 821.0, 600.7)">4</text><text xml:space="preserve" font-family="ArialRoundedMTBold,Arial Rounded MT Bold" font-size="104.0" fill="#000000" transform="matrix(1.00, 0.00, -0.00, -1.00, 882.9, 600.7)"> </text><text xml:space="preserve" font-family="ArialRoundedMTBold,Arial Rounded MT Bold" font-size="104.0" fill="#000000" transform="matrix(1.00, 0.00, -0.00, -1.00, 908.9, 600.7)">,</text><text xml:space="preserve" font-family="ArialRoundedMTBold,Arial Rounded MT Bold" font-size="104.0" fill="#000000" transform="matrix(1.00, 0.00, -0.00, -1.00, 941.4, 600.7)"> </text><text xml:space="preserve" font-family="ArialRoundedMTBold,Arial Rounded MT Bold" font-size="104.0" fill="#000000" transform="matrix(1.00, 0.00, -0.00, -1.00, 967.4, 600.7)">7</text><text xml:space="preserve" font-family="ArialRoundedMTBold,Arial Rounded MT Bold" font-size="104.0" fill="#000000" transform="matrix(1.00, 0.00, -0.00, -1.00, 1029.2, 600.7)"> </text><text xml:space="preserve" font-family="ArialRoundedMTBold,Arial Rounded MT Bold" font-size="104.0" fill="#000000" transform="matrix(1.00, 0.00, -0.00, -1.00, 1055.2, 600.7)">2</text><text xml:space="preserve" font-family="ArialRoundedMTBold,Arial Rounded MT Bold" font-size="104.0" fill="#000000" transform="matrix(1.00, 0.00, -0.00, -1.00, 1117.1, 600.7)"> </text><text xml:space="preserve" font-family="ArialRoundedMTBold,Arial Rounded MT Bold" font-size="104.0" fill="#000000" transform="matrix(1.00, 0.00, -0.00, -1.00, 1143.1, 600.7)">9</text><path d="M 959.5 577.5 L 1038.5 577.5 L 1038.5 569.5 L 959.5 569.5 Z M 959.4 577.4 " fill="#FFAA00"></path><path d="M 0.1 -0.1 L 79.1 -0.1 L 79.1 7.9 L 0.1 7.9 Z M 0.0 0.0 " fill="none" stroke="#000000" stroke-width="9.00" stroke-linejoin="bevel" transform="matrix(1.00, 0.00, 0.00, -1.00, 959.4, 577.4)"></path><text xml:space="preserve" font-family="ArialRoundedMTBold,Arial Rounded MT Bold" font-size="68.0" fill="#000000" transform="matrix(1.00, 0.00, -0.00, -1.00, 540.3, 928.5)">R</text><text xml:space="preserve" font-family="ArialRoundedMTBold,Arial Rounded MT Bold" font-size="68.0" fill="#000000" transform="matrix(1.00, 0.00, -0.00, -1.00, 587.5, 928.5)">e</text><text xml:space="preserve" font-family="ArialRoundedMTBold,Arial Rounded MT Bold" font-size="68.0" fill="#000000" transform="matrix(1.00, 0.00, -0.00, -1.00, 627.9, 928.5)">d</text><text xml:space="preserve" font-family="ArialRoundedMTBold,Arial Rounded MT Bold" font-size="68.0" fill="#000000" transform="matrix(1.00, 0.00, -0.00, -1.00, 670.4, 928.5)">o</text><text xml:space="preserve" font-family="ArialRoundedMTBold,Arial Rounded MT Bold" font-size="68.0" fill="#000000" transform="matrix(1.00, 0.00, -0.00, -1.00, 711.5, 928.5)">n</text><text xml:space="preserve" font-family="ArialRoundedMTBold,Arial Rounded MT Bold" font-size="68.0" fill="#000000" transform="matrix(1.00, 0.00, -0.00, -1.00, 752.6, 928.5)">d</text><text xml:space="preserve" font-family="ArialRoundedMTBold,Arial Rounded MT Bold" font-size="68.0" fill="#000000" transform="matrix(1.00, 0.00, -0.00, -1.00, 795.1, 928.5)">a</text><text xml:space="preserve" font-family="ArialRoundedMTBold,Arial Rounded MT Bold" font-size="68.0" fill="#000000" transform="matrix(1.00, 0.00, -0.00, -1.00, 835.5, 928.5)"> </text><text xml:space="preserve" font-family="ArialRoundedMTBold,Arial Rounded MT Bold" font-size="68.0" fill="#000000" transform="matrix(1.00, 0.00, -0.00, -1.00, 852.5, 928.5)">a</text><text xml:space="preserve" font-family="ArialRoundedMTBold,Arial Rounded MT Bold" font-size="68.0" fill="#000000" transform="matrix(1.00, 0.00, -0.00, -1.00, 892.9, 928.5)">l</text><text xml:space="preserve" font-family="ArialRoundedMTBold,Arial Rounded MT Bold" font-size="68.0" fill="#000000" transform="matrix(1.00, 0.00, -0.00, -1.00, 911.4, 928.5)"> </text><text xml:space="preserve" font-family="ArialRoundedMTBold,Arial Rounded MT Bold" font-size="68.0" fill="#000000" transform="matrix(1.00, 0.00, -0.00, -1.00, 928.4, 928.5)">l</text><text xml:space="preserve" font-family="ArialRoundedMTBold,Arial Rounded MT Bold" font-size="68.0" fill="#000000" transform="matrix(1.00, 0.00, -0.00, -1.00, 946.8, 928.5)">u</text><text xml:space="preserve" font-family="ArialRoundedMTBold,Arial Rounded MT Bold" font-size="68.0" fill="#000000" transform="matrix(1.00, 0.00, -0.00, -1.00, 987.9, 928.5)">g</text><text xml:space="preserve" font-family="ArialRoundedMTBold,Arial Rounded MT Bold" font-size="68.0" fill="#000000" transform="matrix(1.00, 0.00, -0.00, -1.00, 1028.7, 928.5)">a</text><text xml:space="preserve" font-family="ArialRoundedMTBold,Arial Rounded MT Bold" font-size="68.0" fill="#000000" transform="matrix(1.00, 0.00, -0.00, -1.00, 1069.1, 928.5)">r</text><text xml:space="preserve" font-family="ArialRoundedMTBold,Arial Rounded MT Bold" font-size="68.0" fill="#000000" transform="matrix(1.00, 0.00, -0.00, -1.00, 1098.9, 928.5)"> </text><text xml:space="preserve" font-family="ArialRoundedMTBold,Arial Rounded MT Bold" font-size="68.0" fill="#000000" transform="matrix(1.00, 0.00, -0.00, -1.00, 1115.9, 928.5)">d</text><text xml:space="preserve" font-family="ArialRoundedMTBold,Arial Rounded MT Bold" font-size="68.0" fill="#000000" transform="matrix(1.00, 0.00, -0.00, -1.00, 1158.4, 928.5)">e</text><text xml:space="preserve" font-family="ArialRoundedMTBold,Arial Rounded MT Bold" font-size="68.0" fill="#000000" transform="matrix(1.00, 0.00, -0.00, -1.00, 1198.8, 928.5)"> </text><text xml:space="preserve" font-family="ArialRoundedMTBold,Arial Rounded MT Bold" font-size="68.0" fill="#000000" transform="matrix(1.00, 0.00, -0.00, -1.00, 1215.7, 928.5)">c</text><text xml:space="preserve" font-family="ArialRoundedMTBold,Arial Rounded MT Bold" font-size="68.0" fill="#000000" transform="matrix(1.00, 0.00, -0.00, -1.00, 1256.1, 928.5)">i</text><text xml:space="preserve" font-family="ArialRoundedMTBold,Arial Rounded MT Bold" font-size="68.0" fill="#000000" transform="matrix(1.00, 0.00, -0.00, -1.00, 1274.6, 928.5)">e</text><text xml:space="preserve" font-family="ArialRoundedMTBold,Arial Rounded MT Bold" font-size="68.0" fill="#000000" transform="matrix(1.00, 0.00, -0.00, -1.00, 1315.0, 928.5)">n</text><text xml:space="preserve" font-family="ArialRoundedMTBold,Arial Rounded MT Bold" font-size="68.0" fill="#000000" transform="matrix(1.00, 0.00, -0.00, -1.00, 1356.0, 928.5)">.</text><g><clipPath id="clip0x7f875fe0eb20"><path d="M 1214.7 919.0 L 1356.0 919.0 L 1356.0 924.4 L 1214.7 924.4 Z M 1214.7 919.0 "></path></clipPath><g clip-path="url(#clip0x7f875fe0eb20)"><path d="M 922.9 79.1 L 1063.2 79.1 " fill="none" stroke="#000000" stroke-width="3.39" transform="matrix(1.00, 0.00, 0.00, -1.00, 292.8, 1000.8)"></path></g></g><path d="M 1092.6 521.9 L 1098.4 509.4 L 1111.6 507.4 L 1102.1 497.6 L 1104.3 483.9 L 1092.6 490.4 L 1080.8 483.9 L 1083.1 497.6 L 1073.5 507.4 L 1086.7 509.4 Z M 1092.6 521.9 " fill="#000000"></path><path d="M 20.0 0.0 L 25.9 12.5 L 39.0 14.5 L 29.5 24.3 L 31.7 38.0 L 20.0 31.5 L 8.2 38.0 L 10.5 24.3 L 1.0 14.5 L 14.1 12.5 Z M 20.0 0.0 " fill="none" stroke="#000000" stroke-width="1.00" stroke-linejoin="bevel" transform="matrix(1.00, 0.00, 0.00, -1.00, 1072.6, 521.9)"></path><path d="M 1174.0 521.9 L 1179.9 509.4 L 1193.1 507.4 L 1183.5 497.6 L 1185.8 483.9 L 1174.0 490.4 L 1162.3 483.9 L 1164.5 497.6 L 1155.0 507.4 L 1168.2 509.4 Z M 1174.0 521.9 " fill="#000000"></path><path d="M 20.0 0.0 L 25.9 12.5 L 39.0 14.5 L 29.5 24.3 L 31.7 38.0 L 20.0 31.5 L 8.2 38.0 L 10.5 24.3 L 1.0 14.5 L 14.1 12.5 Z M 20.0 0.0 " fill="none" stroke="#000000" stroke-width="1.00" stroke-linejoin="bevel" transform="matrix(1.00, 0.00, 0.00, -1.00, 1154.1, 521.9)"></path><path d="M 1011.1 521.9 L 1016.9 509.4 L 1030.1 507.4 L 1020.6 497.6 L 1022.8 483.9 L 1011.1 490.4 L 999.3 483.9 L 1001.6 497.6 L 992.1 507.4 L 1005.2 509.4 Z M 1011.1 521.9 " fill="#000000"></path><path d="M 20.0 0.0 L 25.9 12.5 L 39.0 14.5 L 29.5 24.3 L 31.7 38.0 L 20.0 31.5 L 8.2 38.0 L 10.5 24.3 L 1.0 14.5 L 14.1 12.5 Z M 20.0 0.0 " fill="none" stroke="#000000" stroke-width="1.00" stroke-linejoin="bevel" transform="matrix(1.00, 0.00, 0.00, -1.00, 991.1, 521.9)"></path><path d="M 929.6 521.9 L 935.5 509.4 L 948.6 507.4 L 939.1 497.6 L 941.3 483.9 L 929.6 490.4 L 917.8 483.9 L 920.1 497.6 L 910.6 507.4 L 923.7 509.4 Z M 929.6 521.9 " fill="#000000"></path><path d="M 20.0 0.0 L 25.9 12.5 L 39.0 14.5 L 29.5 24.3 L 31.7 38.0 L 20.0 31.5 L 8.2 38.0 L 10.5 24.3 L 1.0 14.5 L 14.1 12.5 Z M 20.0 0.0 " fill="none" stroke="#000000" stroke-width="1.00" stroke-linejoin="bevel" transform="matrix(1.00, 0.00, 0.00, -1.00, 909.6, 521.9)"></path><path d="M 848.1 521.9 L 854.0 509.4 L 867.1 507.4 L 857.6 497.6 L 859.8 483.9 L 848.1 490.4 L 836.3 483.9 L 838.6 497.6 L 829.1 507.4 L 842.2 509.4 Z M 848.1 521.9 " fill="#000000"></path><path d="M 20.0 0.0 L 25.9 12.5 L 39.0 14.5 L 29.5 24.3 L 31.7 38.0 L 20.0 31.5 L 8.2 38.0 L 10.5 24.3 L 1.0 14.5 L 14.1 12.5 Z M 20.0 0.0 " fill="none" stroke="#000000" stroke-width="1.00" stroke-linejoin="bevel" transform="matrix(1.00, 0.00, 0.00, -1.00, 828.1, 521.9)"></path><path d="M 766.6 521.9 L 772.5 509.4 L 785.6 507.4 L 776.1 497.6 L 778.4 483.9 L 766.6 490.4 L 754.9 483.9 L 757.1 497.6 L 747.6 507.4 L 760.7 509.4 Z M 766.6 521.9 " fill="#000000"></path><path d="M 20.0 0.0 L 25.9 12.5 L 39.0 14.5 L 29.5 24.3 L 31.7 38.0 L 20.0 31.5 L 8.2 38.0 L 10.5 24.3 L 1.0 14.5 L 14.1 12.5 Z M 20.0 0.0 " fill="none" stroke="#000000" stroke-width="1.00" stroke-linejoin="bevel" transform="matrix(1.00, 0.00, 0.00, -1.00, 746.6, 521.9)"></path><path d="M 1125.0 555.0 L 1212.0 555.0 L 1212.0 417.0 L 1125.0 417.0 Z M 1125.2 554.6 " fill="#FFFFFF"></path><g><clipPath id="clip0x7f875fe029b0"><path d="M 1103.8 395.8 L 1233.0 395.8 L 1233.0 576.0 L 1103.8 576.0 Z M 1103.8 395.8 "></path></clipPath><g clip-path="url(#clip0x7f875fe029b0)"><text xml:space="preserve" font-family="ArialRoundedMTBold,Arial Rounded MT Bold" font-size="104.0" fill="#000000" transform="matrix(1.00, 0.00, -0.00, -1.00, 1137.5, 447.9)">0</text></g></g><path d="M 716.0 555.0 L 802.0 555.0 L 802.0 417.0 L 716.0 417.0 Z M 715.8 554.6 " fill="#FFFFFF"></path><g><clipPath id="clip0x7f875fe04350"><path d="M 694.3 395.8 L 823.6 395.8 L 823.6 576.0 L 694.3 576.0 Z M 694.3 395.8 "></path></clipPath><g clip-path="url(#clip0x7f875fe04350)"><text xml:space="preserve" font-family="ArialRoundedMTBold,Arial Rounded MT Bold" font-size="104.0" fill="#000000" transform="matrix(1.00, 0.00, -0.00, -1.00, 728.1, 447.9)">8</text></g></g><path d="M 882.0 556.0 L 969.0 556.0 L 969.0 419.0 L 882.0 419.0 Z M 882.4 556.0 " fill="#FFFFFF"></path><g><clipPath id="clip0x7f875fe05ce0"><path d="M 861.0 397.3 L 990.3 397.3 L 990.3 577.4 L 861.0 577.4 Z M 861.0 397.3 "></path></clipPath><g clip-path="url(#clip0x7f875fe05ce0)"><text xml:space="preserve" font-family="ArialRoundedMTBold,Arial Rounded MT Bold" font-size="104.0" fill="#000000" transform="matrix(1.00, 0.00, -0.00, -1.00, 909.3, 449.3)">,</text><text xml:space="preserve" font-family="ArialRoundedMTBold,Arial Rounded MT Bold" font-size="104.0" fill="#000000" transform="matrix(1.00, 0.00, -0.00, -1.00, 941.9, 449.3)"> </text></g></g><path d="M 952.0 555.0 L 1039.0 555.0 L 1039.0 417.0 L 952.0 417.0 Z M 952.1 554.6 " fill="#FFFFFF"></path><g><clipPath id="clip0x7f875c4fbc40"><path d="M 930.7 395.8 L 1060.0 395.8 L 1060.0 576.0 L 930.7 576.0 Z M 930.7 395.8 "></path></clipPath><g clip-path="url(#clip0x7f875c4fbc40)"><text xml:space="preserve" font-family="ArialRoundedMTBold,Arial Rounded MT Bold" font-size="104.0" fill="#000000" transform="matrix(1.00, 0.00, -0.00, -1.00, 964.4, 447.9)">7</text></g></g><path d="M 1043.0 555.0 L 1129.0 555.0 L 1129.0 417.0 L 1043.0 417.0 Z M 1042.7 554.6 " fill="#FFFFFF"></path><g><clipPath id="clip0x7f875c4f4dd0"><path d="M 1021.2 395.8 L 1150.5 395.8 L 1150.5 576.0 L 1021.2 576.0 Z M 1021.2 395.8 "></path></clipPath><g clip-path="url(#clip0x7f875c4f4dd0)"><text xml:space="preserve" font-family="ArialRoundedMTBold,Arial Rounded MT Bold" font-size="104.0" fill="#000000" transform="matrix(1.00, 0.00, -0.00, -1.00, 1055.0, 447.9)">0</text></g></g><path d="M 802.0 555.0 L 888.0 555.0 L 888.0 417.0 L 802.0 417.0 Z M 801.5 554.6 " fill="#FFFFFF"></path><g><clipPath id="clip0x7f875c4f67f0"><path d="M 780.0 395.8 L 909.3 395.8 L 909.3 576.0 L 780.0 576.0 Z M 780.0 395.8 "></path></clipPath><g clip-path="url(#clip0x7f875c4f67f0)"><text xml:space="preserve" font-family="ArialRoundedMTBold,Arial Rounded MT Bold" font-size="104.0" fill="#000000" transform="matrix(1.00, 0.00, -0.00, -1.00, 813.8, 447.9)">4</text></g></g><g><clipPath id="clip0x7f875c4f7ae0"><path d="M 1493.0 151.0 L 1648.0 151.0 L 1648.0 50.0 L 1493.0 50.0 Z M 1492.8 151.2 "></path></clipPath><g clip-path="url(#clip0x7f875c4f7ae0)"><g><clipPath id="clip0x7f875c4f8240"><path d="M 1492.8 50.4 L 1647.9 50.4 L 1647.9 151.2 L 1492.8 151.2 Z M 1492.8 50.4 "></path></clipPath><g clip-path="url(#clip0x7f875c4f8240)"><image xlink:href="../../3B3F4AB4-FD2B-40DB-A32E-96238FDE2279/assets/E7D0403A97A29682D38DB5ABD2A1FFCE.png" width="260.00" height="194.00" transform="matrix(0.66, 0.00, -0.00, -0.66, 1477.3, 151.2)"></image></g></g></g></g><g><clipPath id="clip0x7f875c4f9a60"><path d="M 1477.0 40.0 L 1517.6 40.0 L 1517.6 80.4 L 1477.0 80.4 Z M 1477.0 40.0 "></path></clipPath><g clip-path="url(#clip0x7f875c4f9a60)"><path d="M 1497.3 79.2 L 1503.1 66.8 L 1516.2 64.8 L 1506.8 55.1 L 1509.0 41.4 L 1497.3 47.9 L 1485.6 41.4 L 1487.9 55.1 L 1478.4 64.8 L 1491.5 66.8 Z M 1497.3 79.2 " fill="#E36C09"></path><path d="M 19.9 0.0 L 25.7 12.4 L 38.8 14.4 L 29.3 24.1 L 31.6 37.8 L 19.9 31.3 L 8.2 37.8 L 10.4 24.1 L 1.0 14.4 L 14.0 12.4 Z M 19.9 0.0 " fill="none" stroke="#000000" stroke-width="1.00" stroke-linejoin="bevel" transform="matrix(1.00, 0.00, 0.00, -1.00, 1477.4, 79.2)"></path></g></g></g></svg>