<?xml version="1.0" encoding="UTF-8" standalone="no"?><svg xmlns="http://www.w3.org/2000/svg" xmlns:xlink="http://www.w3.org/1999/xlink" clip-rule="evenodd" stroke-miterlimit="10" viewBox="0 0 465 96"><desc>SVG generated by Keynote</desc><defs></defs><g transform="matrix(1.00, 0.00, -0.00, -1.00, 0.0, 96.0)"><text xml:space="preserve" font-family="ArialRoundedMTBold,Arial Rounded MT Bold" font-size="104.0" fill="#000000" transform="matrix(1.00, 0.00, -0.00, -1.00, -2.8, 18.7)">8</text><text xml:space="preserve" font-family="ArialRoundedMTBold,Arial Rounded MT Bold" font-size="104.0" fill="#000000" transform="matrix(1.00, 0.00, -0.00, -1.00, 59.0, 18.7)"> </text><text xml:space="preserve" font-family="ArialRoundedMTBold,Arial Rounded MT Bold" font-size="104.0" fill="#000000" transform="matrix(1.00, 0.00, -0.00, -1.00, 85.0, 18.7)">4</text><text xml:space="preserve" font-family="ArialRoundedMTBold,Arial Rounded MT Bold" font-size="104.0" fill="#000000" transform="matrix(1.00, 0.00, -0.00, -1.00, 146.9, 18.7)"> </text><text xml:space="preserve" font-family="ArialRoundedMTBold,Arial Rounded MT Bold" font-size="104.0" fill="#000000" transform="matrix(1.00, 0.00, -0.00, -1.00, 172.9, 18.7)">,</text><text xml:space="preserve" font-family="ArialRoundedMTBold,Arial Rounded MT Bold" font-size="104.0" fill="#000000" transform="matrix(1.00, 0.00, -0.00, -1.00, 205.4, 18.7)"> </text><text xml:space="preserve" font-family="ArialRoundedMTBold,Arial Rounded MT Bold" font-size="104.0" fill="#000000" transform="matrix(1.00, 0.00, -0.00, -1.00, 231.4, 18.7)">7</text><text xml:space="preserve" font-family="ArialRoundedMTBold,Arial Rounded MT Bold" font-size="104.0" fill="#000000" transform="matrix(1.00, 0.00, -0.00, -1.00, 293.2, 18.7)"> </text><text xml:space="preserve" font-family="ArialRoundedMTBold,Arial Rounded MT Bold" font-size="104.0" fill="#000000" transform="matrix(1.00, 0.00, -0.00, -1.00, 319.2, 18.7)">2</text><text xml:space="preserve" font-family="ArialRoundedMTBold,Arial Rounded MT Bold" font-size="104.0" fill="#000000" transform="matrix(1.00, 0.00, -0.00, -1.00, 381.1, 18.7)"> </text><text xml:space="preserve" font-family="ArialRoundedMTBold,Arial Rounded MT Bold" font-size="104.0" fill="#000000" transform="matrix(1.00, 0.00, -0.00, -1.00, 407.1, 18.7)">9</text></g></svg>