<?xml version="1.0" encoding="UTF-8" standalone="no"?><svg xmlns="http://www.w3.org/2000/svg" xmlns:xlink="http://www.w3.org/1999/xlink" clip-rule="evenodd" stroke-miterlimit="10" viewBox="0 0 830 81"><desc>SVG generated by Keynote</desc><defs></defs><g transform="matrix(1.00, 0.00, -0.00, -1.00, 0.0, 81.0)"><text xml:space="preserve" font-family="ArialRoundedMTBold,Arial Rounded MT Bold" font-size="68.0" fill="#000000" transform="matrix(1.00, 0.00, -0.00, -1.00, -2.7, 16.5)">R</text><text xml:space="preserve" font-family="ArialRoundedMTBold,Arial Rounded MT Bold" font-size="68.0" fill="#000000" transform="matrix(1.00, 0.00, -0.00, -1.00, 44.5, 16.5)">e</text><text xml:space="preserve" font-family="ArialRoundedMTBold,Arial Rounded MT Bold" font-size="68.0" fill="#000000" transform="matrix(1.00, 0.00, -0.00, -1.00, 84.9, 16.5)">d</text><text xml:space="preserve" font-family="ArialRoundedMTBold,Arial Rounded MT Bold" font-size="68.0" fill="#000000" transform="matrix(1.00, 0.00, -0.00, -1.00, 127.4, 16.5)">o</text><text xml:space="preserve" font-family="ArialRoundedMTBold,Arial Rounded MT Bold" font-size="68.0" fill="#000000" transform="matrix(1.00, 0.00, -0.00, -1.00, 168.5, 16.5)">n</text><text xml:space="preserve" font-family="ArialRoundedMTBold,Arial Rounded MT Bold" font-size="68.0" fill="#000000" transform="matrix(1.00, 0.00, -0.00, -1.00, 209.6, 16.5)">d</text><text xml:space="preserve" font-family="ArialRoundedMTBold,Arial Rounded MT Bold" font-size="68.0" fill="#000000" transform="matrix(1.00, 0.00, -0.00, -1.00, 252.1, 16.5)">a</text><text xml:space="preserve" font-family="ArialRoundedMTBold,Arial Rounded MT Bold" font-size="68.0" fill="#000000" transform="matrix(1.00, 0.00, -0.00, -1.00, 292.5, 16.5)"> </text><text xml:space="preserve" font-family="ArialRoundedMTBold,Arial Rounded MT Bold" font-size="68.0" fill="#000000" transform="matrix(1.00, 0.00, -0.00, -1.00, 309.5, 16.5)">a</text><text xml:space="preserve" font-family="ArialRoundedMTBold,Arial Rounded MT Bold" font-size="68.0" fill="#000000" transform="matrix(1.00, 0.00, -0.00, -1.00, 349.9, 16.5)">l</text><text xml:space="preserve" font-family="ArialRoundedMTBold,Arial Rounded MT Bold" font-size="68.0" fill="#000000" transform="matrix(1.00, 0.00, -0.00, -1.00, 368.4, 16.5)"> </text><text xml:space="preserve" font-family="ArialRoundedMTBold,Arial Rounded MT Bold" font-size="68.0" fill="#000000" transform="matrix(1.00, 0.00, -0.00, -1.00, 385.4, 16.5)">l</text><text xml:space="preserve" font-family="ArialRoundedMTBold,Arial Rounded MT Bold" font-size="68.0" fill="#000000" transform="matrix(1.00, 0.00, -0.00, -1.00, 403.8, 16.5)">u</text><text xml:space="preserve" font-family="ArialRoundedMTBold,Arial Rounded MT Bold" font-size="68.0" fill="#000000" transform="matrix(1.00, 0.00, -0.00, -1.00, 444.9, 16.5)">g</text><text xml:space="preserve" font-family="ArialRoundedMTBold,Arial Rounded MT Bold" font-size="68.0" fill="#000000" transform="matrix(1.00, 0.00, -0.00, -1.00, 485.7, 16.5)">a</text><text xml:space="preserve" font-family="ArialRoundedMTBold,Arial Rounded MT Bold" font-size="68.0" fill="#000000" transform="matrix(1.00, 0.00, -0.00, -1.00, 526.1, 16.5)">r</text><text xml:space="preserve" font-family="ArialRoundedMTBold,Arial Rounded MT Bold" font-size="68.0" fill="#000000" transform="matrix(1.00, 0.00, -0.00, -1.00, 555.9, 16.5)"> </text><text xml:space="preserve" font-family="ArialRoundedMTBold,Arial Rounded MT Bold" font-size="68.0" fill="#000000" transform="matrix(1.00, 0.00, -0.00, -1.00, 572.9, 16.5)">d</text><text xml:space="preserve" font-family="ArialRoundedMTBold,Arial Rounded MT Bold" font-size="68.0" fill="#000000" transform="matrix(1.00, 0.00, -0.00, -1.00, 615.4, 16.5)">e</text><text xml:space="preserve" font-family="ArialRoundedMTBold,Arial Rounded MT Bold" font-size="68.0" fill="#000000" transform="matrix(1.00, 0.00, -0.00, -1.00, 655.8, 16.5)"> </text><text xml:space="preserve" font-family="ArialRoundedMTBold,Arial Rounded MT Bold" font-size="68.0" fill="#000000" transform="matrix(1.00, 0.00, -0.00, -1.00, 672.7, 16.5)">c</text><text xml:space="preserve" font-family="ArialRoundedMTBold,Arial Rounded MT Bold" font-size="68.0" fill="#000000" transform="matrix(1.00, 0.00, -0.00, -1.00, 713.1, 16.5)">i</text><text xml:space="preserve" font-family="ArialRoundedMTBold,Arial Rounded MT Bold" font-size="68.0" fill="#000000" transform="matrix(1.00, 0.00, -0.00, -1.00, 731.6, 16.5)">e</text><text xml:space="preserve" font-family="ArialRoundedMTBold,Arial Rounded MT Bold" font-size="68.0" fill="#000000" transform="matrix(1.00, 0.00, -0.00, -1.00, 772.0, 16.5)">n</text><text xml:space="preserve" font-family="ArialRoundedMTBold,Arial Rounded MT Bold" font-size="68.0" fill="#000000" transform="matrix(1.00, 0.00, -0.00, -1.00, 813.0, 16.5)">.</text><g><clipPath id="clip0x7f8760c34230"><path d="M 671.7 7.0 L 813.0 7.0 L 813.0 12.4 L 671.7 12.4 Z M 671.7 7.0 "></path></clipPath><g clip-path="url(#clip0x7f8760c34230)"><path d="M 922.9 79.1 L 1063.2 79.1 " fill="none" stroke="#000000" stroke-width="3.39" transform="matrix(1.00, 0.00, 0.00, -1.00, -250.2, 88.8)"></path></g></g></g></svg>