<?xml version="1.0" encoding="UTF-8" standalone="no"?><svg xmlns="http://www.w3.org/2000/svg" xmlns:xlink="http://www.w3.org/1999/xlink" clip-rule="evenodd" stroke-miterlimit="10" viewBox="0 0 510 118"><desc>SVG generated by Keynote</desc><defs></defs><g transform="matrix(1.00, 0.00, -0.00, -1.00, 0.0, 118.0)"><text xml:space="preserve" font-family="ComicSansMS,Comic Sans MS" font-size="64.0" fill="#FFFFFF" transform="matrix(1.00, 0.00, -0.00, -1.00, -0.9, 19.4)">L</text><text xml:space="preserve" font-family="ComicSansMS,Comic Sans MS" font-size="64.0" fill="#FFFFFF" transform="matrix(1.00, 0.00, -0.00, -1.00, 34.4, 19.4)">u</text><text xml:space="preserve" font-family="ComicSansMS,Comic Sans MS" font-size="64.0" fill="#FFFFFF" transform="matrix(1.00, 0.00, -0.00, -1.00, 67.6, 19.4)">g</text><text xml:space="preserve" font-family="ComicSansMS,Comic Sans MS" font-size="64.0" fill="#FFFFFF" transform="matrix(1.00, 0.00, -0.00, -1.00, 101.6, 19.4)">a</text><text xml:space="preserve" font-family="ComicSansMS,Comic Sans MS" font-size="64.0" fill="#FFFFFF" transform="matrix(1.00, 0.00, -0.00, -1.00, 134.3, 19.4)">r</text><text xml:space="preserve" font-family="ComicSansMS,Comic Sans MS" font-size="64.0" fill="#FFFFFF" transform="matrix(1.00, 0.00, -0.00, -1.00, 165.1, 19.4)"> </text><text xml:space="preserve" font-family="ComicSansMS,Comic Sans MS" font-size="64.0" fill="#FFFFFF" transform="matrix(1.00, 0.00, -0.00, -1.00, 184.2, 19.4)">d</text><text xml:space="preserve" font-family="ComicSansMS,Comic Sans MS" font-size="64.0" fill="#FFFFFF" transform="matrix(1.00, 0.00, -0.00, -1.00, 221.9, 19.4)">e</text><text xml:space="preserve" font-family="ComicSansMS,Comic Sans MS" font-size="64.0" fill="#FFFFFF" transform="matrix(1.00, 0.00, -0.00, -1.00, 256.9, 19.4)"> </text><text xml:space="preserve" font-family="ComicSansMS,Comic Sans MS" font-size="64.0" fill="#FFFFFF" transform="matrix(1.00, 0.00, -0.00, -1.00, 276.0, 19.4)">P</text><text xml:space="preserve" font-family="ComicSansMS,Comic Sans MS" font-size="64.0" fill="#FFFFFF" transform="matrix(1.00, 0.00, -0.00, -1.00, 309.3, 19.4)">o</text><text xml:space="preserve" font-family="ComicSansMS,Comic Sans MS" font-size="64.0" fill="#FFFFFF" transform="matrix(1.00, 0.00, -0.00, -1.00, 342.9, 19.4)">s</text><text xml:space="preserve" font-family="ComicSansMS,Comic Sans MS" font-size="64.0" fill="#FFFFFF" transform="matrix(1.00, 0.00, -0.00, -1.00, 374.1, 19.4)">i</text><text xml:space="preserve" font-family="ComicSansMS,Comic Sans MS" font-size="64.0" fill="#FFFFFF" transform="matrix(1.00, 0.00, -0.00, -1.00, 392.0, 19.4)">c</text><text xml:space="preserve" font-family="ComicSansMS,Comic Sans MS" font-size="64.0" fill="#FFFFFF" transform="matrix(1.00, 0.00, -0.00, -1.00, 424.9, 19.4)">i</text><text xml:space="preserve" font-family="ComicSansMS,Comic Sans MS" font-size="64.0" fill="#FFFFFF" transform="matrix(1.00, 0.00, -0.00, -1.00, 442.9, 19.4)">รณ</text><text xml:space="preserve" font-family="ComicSansMS,Comic Sans MS" font-size="64.0" fill="#FFFFFF" transform="matrix(1.00, 0.00, -0.00, -1.00, 476.5, 19.4)">n</text></g></svg>