<?xml version="1.0" encoding="UTF-8" standalone="no"?><svg xmlns="http://www.w3.org/2000/svg" xmlns:xlink="http://www.w3.org/1999/xlink" clip-rule="evenodd" stroke-miterlimit="10" viewBox="0 0 250 248"><desc>SVG generated by Keynote</desc><defs><linearGradient id="gradSh1.32" x1="0.0" y1="0.0" x2="100.0" y2="0.0" gradientUnits="userSpaceOnUse" gradientTransform="matrix(0.00, 2.32, 2.34, 0.00, 124.8, 11.8)"><stop offset="0.00000" stop-color="#9A2F2C"></stop><stop offset="0.00733" stop-color="#9B2F2C"></stop><stop offset="1.00000" stop-color="#CE3B37"></stop></linearGradient></defs><g transform="matrix(1.00, 0.00, -0.00, -1.00, 0.0, 248.0)"><g><clipPath id="clip0x7f8741ed3f10"><path d="M 0.5 0.3 L 249.1 0.3 L 249.1 247.7 L 0.5 247.7 Z M 0.5 0.3 "></path></clipPath><g clip-path="url(#clip0x7f8741ed3f10)"><image xlink:href="FC03A58B9FE6DA5207F5E53457999AFB.png" width="247.00" height="245.00" transform="matrix(1.00, 0.00, -0.00, -1.00, 1.5, 246.7)" opacity="0.35"></image></g></g><g><clipPath id="clip0x7f87431544d0"><path d="M 206.6 209.5 C 251.9 164.5 251.9 91.5 206.6 46.5 C 161.4 1.6 88.1 1.6 42.9 46.5 C -2.3 91.5 -2.3 164.5 42.9 209.5 C 88.1 254.4 161.4 254.4 206.6 209.5 Z M 206.6 209.5 "></path></clipPath><g clip-path="url(#clip0x7f87431544d0)"><g><clipPath id="clip0x7f8743154be0"><path d="M 0.5 0.3 L 249.1 0.3 L 249.1 247.7 L 0.5 247.7 Z M 0.5 0.3 "></path></clipPath><g clip-path="url(#clip0x7f8743154be0)"><path d="M 0.5 0.3 L 249.1 0.3 L 249.1 247.7 L 0.5 247.7 Z M 0.5 0.3 " fill="url(#gradSh1.32)"></path></g></g></g></g><g><clipPath id="clip0x7f87431a2b40"><path d="M 0.5 0.3 L 249.1 0.3 L 249.1 247.7 L 0.5 247.7 Z M 0.5 0.3 "></path></clipPath><g clip-path="url(#clip0x7f87431a2b40)"><path d="M 197.6 33.7 C 242.9 78.7 242.9 151.7 197.6 196.7 C 152.4 241.6 79.1 241.6 33.9 196.7 C -11.3 151.7 -11.3 78.7 33.9 33.7 C 79.1 -11.2 152.4 -11.2 197.6 33.7 Z M 197.6 33.7 " fill="none" stroke="#BE4B48" stroke-width="1.00" stroke-linejoin="bevel" transform="matrix(1.00, 0.00, 0.00, -1.00, 9.0, 243.2)"></path></g></g><g><clipPath id="clip0x7f87431a3db0"><path d="M 37.7 59.1 L 211.9 59.1 L 211.9 196.9 L 37.7 196.9 Z M 37.7 59.1 "></path></clipPath><g clip-path="url(#clip0x7f87431a3db0)"><text xml:space="preserve" font-family="ArialRoundedMTBold,Arial Rounded MT Bold" font-size="48.0" fill="#000000" transform="matrix(1.00, 0.00, -0.00, -1.00, 104.0, 138.1)">e</text><text xml:space="preserve" font-family="ArialRoundedMTBold,Arial Rounded MT Bold" font-size="48.0" fill="#000000" transform="matrix(1.00, 0.00, -0.00, -1.00, 132.5, 138.1)">l</text><text xml:space="preserve" font-family="ArialRoundedMTBold,Arial Rounded MT Bold" font-size="48.0" fill="#000000" transform="matrix(1.00, 0.00, -0.00, -1.00, 145.6, 138.1)"> </text><text xml:space="preserve" font-family="Calibri,Calibri" font-size="48.0" fill="#FFFFFF" transform="matrix(1.00, 0.00, -0.00, -1.00, 157.5, 138.1)">	</text><text xml:space="preserve" font-family="Calibri,Calibri" font-size="48.0" fill="#FFFFFF" transform="matrix(1.00, 0.00, -0.00, -1.00, 185.5, 138.1)"></text><text xml:space="preserve" font-family="Calibri,Calibri" font-size="48.0" fill="#FFFFFF" transform="matrix(1.00, 0.00, -0.00, -1.00, 185.5, 138.1)"> </text><text xml:space="preserve" font-family="Calibri,Calibri" font-size="48.0" fill="#FFFFFF" transform="matrix(1.00, 0.00, -0.00, -1.00, 196.4, 138.1)"> </text><text xml:space="preserve" font-family="ArialRoundedMTBold,Arial Rounded MT Bold" font-size="48.0" fill="#000000" transform="matrix(1.00, 0.00, -0.00, -1.00, 95.5, 83.1)">f</text><text xml:space="preserve" font-family="ArialRoundedMTBold,Arial Rounded MT Bold" font-size="48.0" fill="#000000" transform="matrix(1.00, 0.00, -0.00, -1.00, 112.1, 83.1)">i</text><text xml:space="preserve" font-family="ArialRoundedMTBold,Arial Rounded MT Bold" font-size="48.0" fill="#000000" transform="matrix(1.00, 0.00, -0.00, -1.00, 125.1, 83.1)">n</text></g></g></g></svg>