<?xml version="1.0" encoding="UTF-8" standalone="no"?><svg xmlns="http://www.w3.org/2000/svg" xmlns:xlink="http://www.w3.org/1999/xlink" clip-rule="evenodd" stroke-miterlimit="10" viewBox="0 0 1920 1080"><desc>SVG generated by Keynote</desc><defs></defs><g transform="matrix(1.00, 0.00, -0.00, -1.00, 0.0, 1080.0)"><path d="M 0.0 1080.0 L 1920.0 1080.0 L 1920.0 0.0 L 0.0 0.0 Z M 0.0 1080.0 " fill="#FFFFFF"></path><path d="M 1035.6 897.5 L 1038.8 890.6 L 1046.0 889.5 L 1040.8 884.2 L 1042.0 876.7 L 1035.6 880.3 L 1029.2 876.7 L 1030.4 884.2 L 1025.2 889.5 L 1032.4 890.6 Z M 1035.6 897.5 " fill="#000000"></path><path d="M 10.9 0.0 L 14.1 6.8 L 21.3 7.9 L 16.1 13.2 L 17.3 20.7 L 10.9 17.2 L 4.5 20.7 L 5.7 13.2 L 0.5 7.9 L 7.7 6.8 Z M 10.9 0.0 " fill="none" stroke="#000000" stroke-width="2.00" stroke-linejoin="bevel" transform="matrix(1.00, 0.00, 0.00, -1.00, 1024.7, 897.5)"></path><text xml:space="preserve" font-family="ArialRoundedMTBold,Arial Rounded MT Bold" font-size="60.0" fill="#000000" transform="matrix(1.00, 0.00, -0.00, -1.00, 575.5, 845.6)">c</text><text xml:space="preserve" font-family="ArialRoundedMTBold,Arial Rounded MT Bold" font-size="60.0" fill="#000000" transform="matrix(1.00, 0.00, -0.00, -1.00, 611.2, 845.6)">o</text><text xml:space="preserve" font-family="ArialRoundedMTBold,Arial Rounded MT Bold" font-size="60.0" fill="#000000" transform="matrix(1.00, 0.00, -0.00, -1.00, 647.4, 845.6)">m</text><text xml:space="preserve" font-family="ArialRoundedMTBold,Arial Rounded MT Bold" font-size="60.0" fill="#000000" transform="matrix(1.00, 0.00, -0.00, -1.00, 700.5, 845.6)">m</text><text xml:space="preserve" font-family="ArialRoundedMTBold,Arial Rounded MT Bold" font-size="60.0" fill="#000000" transform="matrix(1.00, 0.00, -0.00, -1.00, 753.6, 845.6)">o</text><text xml:space="preserve" font-family="ArialRoundedMTBold,Arial Rounded MT Bold" font-size="60.0" fill="#000000" transform="matrix(1.00, 0.00, -0.00, -1.00, 789.8, 845.6)">n</text><text xml:space="preserve" font-family="ArialRoundedMTBold,Arial Rounded MT Bold" font-size="60.0" fill="#000000" transform="matrix(1.00, 0.00, -0.00, -1.00, 826.1, 845.6)"> </text><text xml:space="preserve" font-family="ArialRoundedMTBold,Arial Rounded MT Bold" font-size="60.0" fill="#000000" transform="matrix(1.00, 0.00, -0.00, -1.00, 841.1, 845.6)"> </text><text xml:space="preserve" font-family="ArialRoundedMTBold,Arial Rounded MT Bold" font-size="60.0" fill="#000000" transform="matrix(1.00, 0.00, -0.00, -1.00, 519.7, 775.6)">p</text><text xml:space="preserve" font-family="ArialRoundedMTBold,Arial Rounded MT Bold" font-size="60.0" fill="#000000" transform="matrix(1.00, 0.00, -0.00, -1.00, 557.2, 775.6)">r</text><text xml:space="preserve" font-family="ArialRoundedMTBold,Arial Rounded MT Bold" font-size="60.0" fill="#000000" transform="matrix(1.00, 0.00, -0.00, -1.00, 582.0, 775.6)">e</text><text xml:space="preserve" font-family="ArialRoundedMTBold,Arial Rounded MT Bold" font-size="60.0" fill="#000000" transform="matrix(1.00, 0.00, -0.00, -1.00, 616.9, 775.6)">p</text><text xml:space="preserve" font-family="ArialRoundedMTBold,Arial Rounded MT Bold" font-size="60.0" fill="#000000" transform="matrix(1.00, 0.00, -0.00, -1.00, 654.4, 775.6)">o</text><text xml:space="preserve" font-family="ArialRoundedMTBold,Arial Rounded MT Bold" font-size="60.0" fill="#000000" transform="matrix(1.00, 0.00, -0.00, -1.00, 690.6, 775.6)">s</text><text xml:space="preserve" font-family="ArialRoundedMTBold,Arial Rounded MT Bold" font-size="60.0" fill="#000000" transform="matrix(1.00, 0.00, -0.00, -1.00, 723.1, 775.6)">i</text><text xml:space="preserve" font-family="ArialRoundedMTBold,Arial Rounded MT Bold" font-size="60.0" fill="#000000" transform="matrix(1.00, 0.00, -0.00, -1.00, 739.4, 775.6)">t</text><text xml:space="preserve" font-family="ArialRoundedMTBold,Arial Rounded MT Bold" font-size="60.0" fill="#000000" transform="matrix(1.00, 0.00, -0.00, -1.00, 760.6, 775.6)">i</text><text xml:space="preserve" font-family="ArialRoundedMTBold,Arial Rounded MT Bold" font-size="60.0" fill="#000000" transform="matrix(1.00, 0.00, -0.00, -1.00, 776.9, 775.6)">o</text><text xml:space="preserve" font-family="ArialRoundedMTBold,Arial Rounded MT Bold" font-size="60.0" fill="#000000" transform="matrix(1.00, 0.00, -0.00, -1.00, 813.1, 775.6)">n</text><text xml:space="preserve" font-family="ArialRoundedMTBold,Arial Rounded MT Bold" font-size="60.0" fill="#000000" transform="matrix(1.00, 0.00, -0.00, -1.00, 849.4, 775.6)">s</text><text xml:space="preserve" font-family="LucidaGrande,Lucida Grande" font-size="38.0" fill="#000000" transform="matrix(1.00, 0.00, -0.00, -1.00, 931.7, 873.7)">■</text><text xml:space="preserve" font-family="Wingdings-Regular,Wingdings" font-size="38.0" fill="#000000" transform="matrix(1.00, 0.00, -0.00, -1.00, 952.3, 873.7)"> </text><text xml:space="preserve" font-family="LucidaGrande,Lucida Grande" font-size="38.0" fill="#000000" transform="matrix(1.00, 0.00, -0.00, -1.00, 931.7, 815.2)">■</text><text xml:space="preserve" font-family="Wingdings-Regular,Wingdings" font-size="38.0" fill="#000000" transform="matrix(1.00, 0.00, -0.00, -1.00, 952.3, 815.2)"> </text><text xml:space="preserve" font-family="LucidaGrande,Lucida Grande" font-size="38.0" fill="#000000" transform="matrix(1.00, 0.00, -0.00, -1.00, 931.7, 756.7)">■</text><text xml:space="preserve" font-family="Wingdings-Regular,Wingdings" font-size="38.0" fill="#000000" transform="matrix(1.00, 0.00, -0.00, -1.00, 952.3, 756.7)"> </text><text xml:space="preserve" font-family="LucidaGrande,Lucida Grande" font-size="38.0" fill="#000000" transform="matrix(1.00, 0.00, -0.00, -1.00, 931.7, 698.2)">■</text><text xml:space="preserve" font-family="Wingdings-Regular,Wingdings" font-size="38.0" fill="#000000" transform="matrix(1.00, 0.00, -0.00, -1.00, 952.3, 698.2)"> </text><text xml:space="preserve" font-family="LucidaGrande,Lucida Grande" font-size="38.0" fill="#000000" transform="matrix(1.00, 0.00, -0.00, -1.00, 931.7, 639.7)">■</text><text xml:space="preserve" font-family="Wingdings-Regular,Wingdings" font-size="38.0" fill="#000000" transform="matrix(1.00, 0.00, -0.00, -1.00, 952.3, 639.7)"> </text><text xml:space="preserve" font-family="LucidaGrande,Lucida Grande" font-size="38.0" fill="#000000" transform="matrix(1.00, 0.00, -0.00, -1.00, 931.7, 581.2)">■</text><text xml:space="preserve" font-family="Wingdings-Regular,Wingdings" font-size="38.0" fill="#000000" transform="matrix(1.00, 0.00, -0.00, -1.00, 952.3, 581.2)"> </text><text xml:space="preserve" font-family="LucidaGrande,Lucida Grande" font-size="38.0" fill="#000000" transform="matrix(1.00, 0.00, -0.00, -1.00, 931.7, 522.7)">■</text><text xml:space="preserve" font-family="Wingdings-Regular,Wingdings" font-size="38.0" fill="#000000" transform="matrix(1.00, 0.00, -0.00, -1.00, 952.3, 522.7)"> </text><text xml:space="preserve" font-family="LucidaGrande,Lucida Grande" font-size="38.0" fill="#000000" transform="matrix(1.00, 0.00, -0.00, -1.00, 931.7, 464.2)">■</text><text xml:space="preserve" font-family="Wingdings-Regular,Wingdings" font-size="38.0" fill="#000000" transform="matrix(1.00, 0.00, -0.00, -1.00, 952.3, 464.2)"> </text><text xml:space="preserve" font-family="LucidaGrande,Lucida Grande" font-size="38.0" fill="#000000" transform="matrix(1.00, 0.00, -0.00, -1.00, 931.7, 405.7)">■</text><text xml:space="preserve" font-family="Wingdings-Regular,Wingdings" font-size="38.0" fill="#000000" transform="matrix(1.00, 0.00, -0.00, -1.00, 952.3, 405.7)"> </text><text xml:space="preserve" font-family="LucidaGrande,Lucida Grande" font-size="38.0" fill="#000000" transform="matrix(1.00, 0.00, -0.00, -1.00, 931.7, 347.2)">■</text><text xml:space="preserve" font-family="Wingdings-Regular,Wingdings" font-size="38.0" fill="#000000" transform="matrix(1.00, 0.00, -0.00, -1.00, 952.3, 347.2)"> </text><text xml:space="preserve" font-family="LucidaGrande,Lucida Grande" font-size="38.0" fill="#000000" transform="matrix(1.00, 0.00, -0.00, -1.00, 931.7, 288.7)">■</text><path d="M 1032.0 839.6 L 1035.2 832.8 L 1042.3 831.7 L 1037.2 826.4 L 1038.4 818.9 L 1032.0 822.4 L 1025.6 818.9 L 1026.8 826.4 L 1021.6 831.7 L 1028.8 832.8 Z M 1032.0 839.6 " fill="#000000"></path><path d="M 10.9 0.0 L 14.1 6.8 L 21.3 7.9 L 16.1 13.2 L 17.3 20.7 L 10.9 17.2 L 4.5 20.7 L 5.7 13.2 L 0.5 7.9 L 7.7 6.8 Z M 10.9 0.0 " fill="none" stroke="#000000" stroke-width="2.00" stroke-linejoin="bevel" transform="matrix(1.00, 0.00, 0.00, -1.00, 1021.1, 839.6)"></path><path d="M 1032.0 781.1 L 1035.2 774.2 L 1042.3 773.2 L 1037.2 767.8 L 1038.4 760.3 L 1032.0 763.9 L 1025.6 760.3 L 1026.8 767.8 L 1021.6 773.2 L 1028.8 774.2 Z M 1032.0 781.1 " fill="#000000"></path><path d="M 10.9 0.0 L 14.1 6.8 L 21.3 7.9 L 16.1 13.2 L 17.3 20.7 L 10.9 17.2 L 4.5 20.7 L 5.7 13.2 L 0.5 7.9 L 7.7 6.8 Z M 10.9 0.0 " fill="none" stroke="#000000" stroke-width="2.00" stroke-linejoin="bevel" transform="matrix(1.00, 0.00, 0.00, -1.00, 1021.1, 781.1)"></path><path d="M 1032.0 722.0 L 1035.2 715.2 L 1042.3 714.1 L 1037.2 708.8 L 1038.4 701.3 L 1032.0 704.8 L 1025.6 701.3 L 1026.8 708.8 L 1021.6 714.1 L 1028.8 715.2 Z M 1032.0 722.0 " fill="#000000"></path><path d="M 10.9 0.0 L 14.1 6.8 L 21.3 7.9 L 16.1 13.2 L 17.3 20.7 L 10.9 17.2 L 4.5 20.7 L 5.7 13.2 L 0.5 7.9 L 7.7 6.8 Z M 10.9 0.0 " fill="none" stroke="#000000" stroke-width="2.00" stroke-linejoin="bevel" transform="matrix(1.00, 0.00, 0.00, -1.00, 1021.1, 722.0)"></path><path d="M 1032.0 663.4 L 1035.2 656.6 L 1042.3 655.5 L 1037.2 650.1 L 1038.4 642.6 L 1032.0 646.2 L 1025.6 642.6 L 1026.8 650.1 L 1021.6 655.5 L 1028.8 656.6 Z M 1032.0 663.4 " fill="#000000"></path><path d="M 10.9 0.0 L 14.1 6.8 L 21.3 7.9 L 16.1 13.2 L 17.3 20.7 L 10.9 17.2 L 4.5 20.7 L 5.7 13.2 L 0.5 7.9 L 7.7 6.8 Z M 10.9 0.0 " fill="none" stroke="#000000" stroke-width="2.00" stroke-linejoin="bevel" transform="matrix(1.00, 0.00, 0.00, -1.00, 1021.1, 663.4)"></path><path d="M 1032.0 604.5 L 1035.2 597.7 L 1042.3 596.6 L 1037.2 591.3 L 1038.4 583.8 L 1032.0 587.4 L 1025.6 583.8 L 1026.8 591.3 L 1021.6 596.6 L 1028.8 597.7 Z M 1032.0 604.5 " fill="#000000"></path><path d="M 10.9 0.0 L 14.1 6.8 L 21.3 7.9 L 16.1 13.2 L 17.3 20.7 L 10.9 17.2 L 4.5 20.7 L 5.7 13.2 L 0.5 7.9 L 7.7 6.8 Z M 10.9 0.0 " fill="none" stroke="#000000" stroke-width="2.00" stroke-linejoin="bevel" transform="matrix(1.00, 0.00, 0.00, -1.00, 1021.1, 604.5)"></path><path d="M 1032.0 545.3 L 1035.2 538.5 L 1042.3 537.4 L 1037.2 532.1 L 1038.4 524.6 L 1032.0 528.1 L 1025.6 524.6 L 1026.8 532.1 L 1021.6 537.4 L 1028.8 538.5 Z M 1032.0 545.3 " fill="#000000"></path><path d="M 10.9 0.0 L 14.1 6.8 L 21.3 7.9 L 16.1 13.2 L 17.3 20.7 L 10.9 17.2 L 4.5 20.7 L 5.7 13.2 L 0.5 7.9 L 7.7 6.8 Z M 10.9 0.0 " fill="none" stroke="#000000" stroke-width="2.00" stroke-linejoin="bevel" transform="matrix(1.00, 0.00, 0.00, -1.00, 1021.1, 545.3)"></path><path d="M 1032.0 489.7 L 1035.2 482.8 L 1042.3 481.7 L 1037.2 476.4 L 1038.4 468.9 L 1032.0 472.5 L 1025.6 468.9 L 1026.8 476.4 L 1021.6 481.7 L 1028.8 482.8 Z M 1032.0 489.7 " fill="#000000"></path><path d="M 10.9 0.0 L 14.1 6.8 L 21.3 7.9 L 16.1 13.2 L 17.3 20.7 L 10.9 17.2 L 4.5 20.7 L 5.7 13.2 L 0.5 7.9 L 7.7 6.8 Z M 10.9 0.0 " fill="none" stroke="#000000" stroke-width="2.00" stroke-linejoin="bevel" transform="matrix(1.00, 0.00, 0.00, -1.00, 1021.1, 489.7)"></path><path d="M 1032.0 430.2 L 1035.2 423.4 L 1042.3 422.3 L 1037.2 417.0 L 1038.4 409.5 L 1032.0 413.0 L 1025.6 409.5 L 1026.8 417.0 L 1021.6 422.3 L 1028.8 423.4 Z M 1032.0 430.2 " fill="#000000"></path><path d="M 10.9 0.0 L 14.1 6.8 L 21.3 7.9 L 16.1 13.2 L 17.3 20.7 L 10.9 17.2 L 4.5 20.7 L 5.7 13.2 L 0.5 7.9 L 7.7 6.8 Z M 10.9 0.0 " fill="none" stroke="#000000" stroke-width="2.00" stroke-linejoin="bevel" transform="matrix(1.00, 0.00, 0.00, -1.00, 1021.1, 430.2)"></path><path d="M 1032.0 369.6 L 1035.2 362.8 L 1042.3 361.7 L 1037.2 356.4 L 1038.4 348.9 L 1032.0 352.4 L 1025.6 348.9 L 1026.8 356.4 L 1021.6 361.7 L 1028.8 362.8 Z M 1032.0 369.6 " fill="#000000"></path><path d="M 10.9 0.0 L 14.1 6.8 L 21.3 7.9 L 16.1 13.2 L 17.3 20.7 L 10.9 17.2 L 4.5 20.7 L 5.7 13.2 L 0.5 7.9 L 7.7 6.8 Z M 10.9 0.0 " fill="none" stroke="#000000" stroke-width="2.00" stroke-linejoin="bevel" transform="matrix(1.00, 0.00, 0.00, -1.00, 1021.1, 369.6)"></path><path d="M 1032.0 311.9 L 1035.2 305.1 L 1042.3 304.0 L 1037.2 298.7 L 1038.4 291.2 L 1032.0 294.7 L 1025.6 291.2 L 1026.8 298.7 L 1021.6 304.0 L 1028.8 305.1 Z M 1032.0 311.9 " fill="#000000"></path><path d="M 10.9 0.0 L 14.1 6.8 L 21.3 7.9 L 16.1 13.2 L 17.3 20.7 L 10.9 17.2 L 4.5 20.7 L 5.7 13.2 L 0.5 7.9 L 7.7 6.8 Z M 10.9 0.0 " fill="none" stroke="#000000" stroke-width="2.00" stroke-linejoin="bevel" transform="matrix(1.00, 0.00, 0.00, -1.00, 1021.1, 311.9)"></path></g></svg>