<?xml version="1.0" encoding="UTF-8" standalone="no"?><svg xmlns="http://www.w3.org/2000/svg" xmlns:xlink="http://www.w3.org/1999/xlink" clip-rule="evenodd" stroke-miterlimit="10" viewBox="0 0 840 50"><desc>SVG generated by Keynote</desc><defs></defs><g transform="matrix(1.00, 0.00, -0.00, -1.00, 0.0, 50.0)"><text xml:space="preserve" font-family="Avenir-Medium,Avenir" font-size="46.0" fill="#000000" transform="matrix(1.00, 0.00, -0.00, -1.00, -1.9, 12.6)">B</text><text xml:space="preserve" font-family="Avenir-Medium,Avenir" font-size="46.0" fill="#000000" transform="matrix(1.00, 0.00, -0.00, -1.00, 27.1, 12.6)">y</text><text xml:space="preserve" font-family="Avenir-Medium,Avenir" font-size="46.0" fill="#000000" transform="matrix(1.00, 0.00, -0.00, -1.00, 50.1, 12.6)"> </text><text xml:space="preserve" font-family="Avenir-Medium,Avenir" font-size="46.0" fill="#000000" transform="matrix(1.00, 0.00, -0.00, -1.00, 62.8, 12.6)">t</text><text xml:space="preserve" font-family="Avenir-Medium,Avenir" font-size="46.0" fill="#000000" transform="matrix(1.00, 0.00, -0.00, -1.00, 79.9, 12.6)">h</text><text xml:space="preserve" font-family="Avenir-Medium,Avenir" font-size="46.0" fill="#000000" transform="matrix(1.00, 0.00, -0.00, -1.00, 105.4, 12.6)">e</text><text xml:space="preserve" font-family="Avenir-Medium,Avenir" font-size="46.0" fill="#000000" transform="matrix(1.00, 0.00, -0.00, -1.00, 131.0, 12.6)"> </text><text xml:space="preserve" font-family="Avenir-Medium,Avenir" font-size="46.0" fill="#000000" transform="matrix(1.00, 0.00, -0.00, -1.00, 143.8, 12.6)">d</text><text xml:space="preserve" font-family="Avenir-Medium,Avenir" font-size="46.0" fill="#000000" transform="matrix(1.00, 0.00, -0.00, -1.00, 171.9, 12.6)">o</text><text xml:space="preserve" font-family="Avenir-Medium,Avenir" font-size="46.0" fill="#000000" transform="matrix(1.00, 0.00, -0.00, -1.00, 199.2, 12.6)">o</text><text xml:space="preserve" font-family="Avenir-Medium,Avenir" font-size="46.0" fill="#000000" transform="matrix(1.00, 0.00, -0.00, -1.00, 226.6, 12.6)">r</text><text xml:space="preserve" font-family="Avenir-Medium,Avenir" font-size="46.0" fill="#000000" transform="matrix(1.00, 0.00, -0.00, -1.00, 243.6, 12.6)"> </text><text xml:space="preserve" font-family="Avenir-Medium,Avenir" font-size="46.0" fill="#000000" transform="matrix(1.00, 0.00, -0.00, -1.00, 256.4, 12.6)">o</text><text xml:space="preserve" font-family="Avenir-Medium,Avenir" font-size="46.0" fill="#000000" transform="matrix(1.00, 0.00, -0.00, -1.00, 283.7, 12.6)">n</text><text xml:space="preserve" font-family="Avenir-Medium,Avenir" font-size="46.0" fill="#000000" transform="matrix(1.00, 0.00, -0.00, -1.00, 309.3, 12.6)"> </text><text xml:space="preserve" font-family="Avenir-Medium,Avenir" font-size="46.0" fill="#000000" transform="matrix(1.00, 0.00, -0.00, -1.00, 322.1, 12.6)">t</text><text xml:space="preserve" font-family="Avenir-Medium,Avenir" font-size="46.0" fill="#000000" transform="matrix(1.00, 0.00, -0.00, -1.00, 339.1, 12.6)">h</text><text xml:space="preserve" font-family="Avenir-Medium,Avenir" font-size="46.0" fill="#000000" transform="matrix(1.00, 0.00, -0.00, -1.00, 364.7, 12.6)">e</text><text xml:space="preserve" font-family="Avenir-Medium,Avenir" font-size="46.0" fill="#000000" transform="matrix(1.00, 0.00, -0.00, -1.00, 390.2, 12.6)"> </text><text xml:space="preserve" font-family="Avenir-Medium,Avenir" font-size="46.0" fill="#000000" transform="matrix(1.00, 0.00, -0.00, -1.00, 403.0, 12.6)">t</text><text xml:space="preserve" font-family="Avenir-Medium,Avenir" font-size="46.0" fill="#000000" transform="matrix(1.00, 0.00, -0.00, -1.00, 420.0, 12.6)">a</text><text xml:space="preserve" font-family="Avenir-Medium,Avenir" font-size="46.0" fill="#000000" transform="matrix(1.00, 0.00, -0.00, -1.00, 443.9, 12.6)">b</text><text xml:space="preserve" font-family="Avenir-Medium,Avenir" font-size="46.0" fill="#000000" transform="matrix(1.00, 0.00, -0.00, -1.00, 472.0, 12.6)">l</text><text xml:space="preserve" font-family="Avenir-Medium,Avenir" font-size="46.0" fill="#000000" transform="matrix(1.00, 0.00, -0.00, -1.00, 483.1, 12.6)">e</text><text xml:space="preserve" font-family="Avenir-Medium,Avenir" font-size="46.0" fill="#000000" transform="matrix(1.00, 0.00, -0.00, -1.00, 508.6, 12.6)"> </text><text xml:space="preserve" font-family="Avenir-Medium,Avenir" font-size="46.0" fill="#000000" transform="matrix(1.00, 0.00, -0.00, -1.00, 521.4, 12.6)">_</text><text xml:space="preserve" font-family="Avenir-Medium,Avenir" font-size="46.0" fill="#000000" transform="matrix(1.00, 0.00, -0.00, -1.00, 544.4, 12.6)">_</text><text xml:space="preserve" font-family="Avenir-Medium,Avenir" font-size="46.0" fill="#000000" transform="matrix(1.00, 0.00, -0.00, -1.00, 567.4, 12.6)">_</text><text xml:space="preserve" font-family="Avenir-Medium,Avenir" font-size="46.0" fill="#000000" transform="matrix(1.00, 0.00, -0.00, -1.00, 590.4, 12.6)">_</text><text xml:space="preserve" font-family="Avenir-Medium,Avenir" font-size="46.0" fill="#000000" transform="matrix(1.00, 0.00, -0.00, -1.00, 613.4, 12.6)"> </text><text xml:space="preserve" font-family="Avenir-Medium,Avenir" font-size="46.0" fill="#000000" transform="matrix(1.00, 0.00, -0.00, -1.00, 626.2, 12.6)">m</text><text xml:space="preserve" font-family="Avenir-Medium,Avenir" font-size="46.0" fill="#000000" transform="matrix(1.00, 0.00, -0.00, -1.00, 665.4, 12.6)">y</text><text xml:space="preserve" font-family="Avenir-Medium,Avenir" font-size="46.0" fill="#000000" transform="matrix(1.00, 0.00, -0.00, -1.00, 688.4, 12.6)"> </text><text xml:space="preserve" font-family="Avenir-Medium,Avenir" font-size="46.0" fill="#000000" transform="matrix(1.00, 0.00, -0.00, -1.00, 701.2, 12.6)">b</text><text xml:space="preserve" font-family="Avenir-Medium,Avenir" font-size="46.0" fill="#000000" transform="matrix(1.00, 0.00, -0.00, -1.00, 729.3, 12.6)">o</text><text xml:space="preserve" font-family="Avenir-Medium,Avenir" font-size="46.0" fill="#000000" transform="matrix(1.00, 0.00, -0.00, -1.00, 756.6, 12.6)">o</text><text xml:space="preserve" font-family="Avenir-Medium,Avenir" font-size="46.0" fill="#000000" transform="matrix(1.00, 0.00, -0.00, -1.00, 783.9, 12.6)">k</text><text xml:space="preserve" font-family="Avenir-Medium,Avenir" font-size="46.0" fill="#000000" transform="matrix(1.00, 0.00, -0.00, -1.00, 807.8, 12.6)">s</text><text xml:space="preserve" font-family="Avenir-Medium,Avenir" font-size="46.0" fill="#000000" transform="matrix(1.00, 0.00, -0.00, -1.00, 828.2, 12.6)">.</text></g></svg>