<?xml version="1.0" encoding="UTF-8" standalone="no"?><svg xmlns="http://www.w3.org/2000/svg" xmlns:xlink="http://www.w3.org/1999/xlink" clip-rule="evenodd" stroke-miterlimit="10" viewBox="0 0 1920 1080"><desc>SVG generated by Keynote</desc><defs></defs><g transform="matrix(1.00, 0.00, -0.00, -1.00, 0.0, 1080.0)"><path d="M 0.0 1080.0 L 1920.0 1080.0 L 1920.0 0.0 L 0.0 0.0 Z M 0.0 1080.0 " fill="#FFFFFF"></path><text xml:space="preserve" font-family="ArialRoundedMTBold,Arial Rounded MT Bold" font-size="172.0" fill="#000000" transform="matrix(1.00, 0.00, -0.00, -1.00, 739.5, 771.8)">¿</text><text xml:space="preserve" font-family="ArialRoundedMTBold,Arial Rounded MT Bold" font-size="172.0" fill="#000000" transform="matrix(1.00, 0.00, -0.00, -1.00, 838.2, 771.8)">Q</text><text xml:space="preserve" font-family="ArialRoundedMTBold,Arial Rounded MT Bold" font-size="172.0" fill="#000000" transform="matrix(1.00, 0.00, -0.00, -1.00, 974.4, 771.8)">u</text><text xml:space="preserve" font-family="ArialRoundedMTBold,Arial Rounded MT Bold" font-size="172.0" fill="#000000" transform="matrix(1.00, 0.00, -0.00, -1.00, 1078.3, 771.8)">é</text><text xml:space="preserve" font-family="ArialRoundedMTBold,Arial Rounded MT Bold" font-size="172.0" fill="#000000" transform="matrix(1.00, 0.00, -0.00, -1.00, 1180.5, 771.8)"> </text><text xml:space="preserve" font-family="ArialRoundedMTBold,Arial Rounded MT Bold" font-size="172.0" fill="#000000" transform="matrix(1.00, 0.00, -0.00, -1.00, 1223.5, 771.8)"> </text><text xml:space="preserve" font-family="ArialRoundedMTBold,Arial Rounded MT Bold" font-size="172.0" fill="#000000" transform="matrix(1.00, 0.00, -0.00, -1.00, 454.8, 533.0)">q</text><text xml:space="preserve" font-family="ArialRoundedMTBold,Arial Rounded MT Bold" font-size="172.0" fill="#000000" transform="matrix(1.00, 0.00, -0.00, -1.00, 562.3, 533.0)">u</text><text xml:space="preserve" font-family="ArialRoundedMTBold,Arial Rounded MT Bold" font-size="172.0" fill="#000000" transform="matrix(1.00, 0.00, -0.00, -1.00, 666.2, 533.0)">i</text><text xml:space="preserve" font-family="ArialRoundedMTBold,Arial Rounded MT Bold" font-size="172.0" fill="#000000" transform="matrix(1.00, 0.00, -0.00, -1.00, 712.8, 533.0)">e</text><text xml:space="preserve" font-family="ArialRoundedMTBold,Arial Rounded MT Bold" font-size="172.0" fill="#000000" transform="matrix(1.00, 0.00, -0.00, -1.00, 815.1, 533.0)">r</text><text xml:space="preserve" font-family="ArialRoundedMTBold,Arial Rounded MT Bold" font-size="172.0" fill="#000000" transform="matrix(1.00, 0.00, -0.00, -1.00, 886.1, 533.0)">e</text><text xml:space="preserve" font-family="ArialRoundedMTBold,Arial Rounded MT Bold" font-size="172.0" fill="#000000" transform="matrix(1.00, 0.00, -0.00, -1.00, 988.4, 533.0)"> </text><text xml:space="preserve" font-family="ArialRoundedMTBold,Arial Rounded MT Bold" font-size="172.0" fill="#000000" transform="matrix(1.00, 0.00, -0.00, -1.00, 1031.4, 533.0)">d</text><text xml:space="preserve" font-family="ArialRoundedMTBold,Arial Rounded MT Bold" font-size="172.0" fill="#000000" transform="matrix(1.00, 0.00, -0.00, -1.00, 1138.9, 533.0)">e</text><text xml:space="preserve" font-family="ArialRoundedMTBold,Arial Rounded MT Bold" font-size="172.0" fill="#000000" transform="matrix(1.00, 0.00, -0.00, -1.00, 1241.1, 533.0)">c</text><text xml:space="preserve" font-family="ArialRoundedMTBold,Arial Rounded MT Bold" font-size="172.0" fill="#000000" transform="matrix(1.00, 0.00, -0.00, -1.00, 1343.4, 533.0)">i</text><text xml:space="preserve" font-family="ArialRoundedMTBold,Arial Rounded MT Bold" font-size="172.0" fill="#000000" transform="matrix(1.00, 0.00, -0.00, -1.00, 1390.0, 533.0)">r</text><text xml:space="preserve" font-family="ArialRoundedMTBold,Arial Rounded MT Bold" font-size="172.0" fill="#000000" transform="matrix(1.00, 0.00, -0.00, -1.00, 1465.3, 533.0)"> </text><text xml:space="preserve" font-family="ArialRoundedMTBold,Arial Rounded MT Bold" font-size="172.0" fill="#000000" transform="matrix(1.00, 0.00, -0.00, -1.00, 1508.3, 533.0)"> </text><text xml:space="preserve" font-family="ArialRoundedMTBold,Arial Rounded MT Bold" font-size="172.0" fill="#000000" transform="matrix(1.00, 0.00, -0.00, -1.00, 472.8, 294.2)">r</text><text xml:space="preserve" font-family="ArialRoundedMTBold,Arial Rounded MT Bold" font-size="172.0" fill="#000000" transform="matrix(1.00, 0.00, -0.00, -1.00, 543.9, 294.2)">e</text><text xml:space="preserve" font-family="ArialRoundedMTBold,Arial Rounded MT Bold" font-size="172.0" fill="#000000" transform="matrix(1.00, 0.00, -0.00, -1.00, 646.1, 294.2)">d</text><text xml:space="preserve" font-family="ArialRoundedMTBold,Arial Rounded MT Bold" font-size="172.0" fill="#000000" transform="matrix(1.00, 0.00, -0.00, -1.00, 753.6, 294.2)">o</text><text xml:space="preserve" font-family="ArialRoundedMTBold,Arial Rounded MT Bold" font-size="172.0" fill="#000000" transform="matrix(1.00, 0.00, -0.00, -1.00, 857.5, 294.2)">n</text><text xml:space="preserve" font-family="ArialRoundedMTBold,Arial Rounded MT Bold" font-size="172.0" fill="#000000" transform="matrix(1.00, 0.00, -0.00, -1.00, 961.4, 294.2)">d</text><text xml:space="preserve" font-family="ArialRoundedMTBold,Arial Rounded MT Bold" font-size="172.0" fill="#000000" transform="matrix(1.00, 0.00, -0.00, -1.00, 1068.9, 294.2)">e</text><text xml:space="preserve" font-family="ArialRoundedMTBold,Arial Rounded MT Bold" font-size="172.0" fill="#000000" transform="matrix(1.00, 0.00, -0.00, -1.00, 1171.1, 294.2)">a</text><text xml:space="preserve" font-family="ArialRoundedMTBold,Arial Rounded MT Bold" font-size="172.0" fill="#000000" transform="matrix(1.00, 0.00, -0.00, -1.00, 1273.4, 294.2)">r</text><text xml:space="preserve" font-family="ArialRoundedMTBold,Arial Rounded MT Bold" font-size="172.0" fill="#000000" transform="matrix(1.00, 0.00, -0.00, -1.00, 1348.7, 294.2)">?</text><path d="M 964.5 109.8 L 970.3 97.4 L 983.4 95.4 L 974.0 85.7 L 976.2 72.0 L 964.5 78.5 L 952.8 72.0 L 955.1 85.7 L 945.6 95.4 L 958.7 97.4 Z M 964.5 109.8 " fill="#000000"></path><path d="M 19.9 0.0 L 25.7 12.4 L 38.8 14.4 L 29.3 24.1 L 31.6 37.8 L 19.9 31.3 L 8.2 37.8 L 10.4 24.1 L 1.0 14.4 L 14.0 12.4 Z M 19.9 0.0 " fill="none" stroke="#000000" stroke-width="1.00" stroke-linejoin="bevel" transform="matrix(1.00, 0.00, 0.00, -1.00, 944.6, 109.8)"></path><image xlink:href="../../3B3F4AB4-FD2B-40DB-A32E-96238FDE2279/assets/0C944A3D92FA9DC0BB6C13BD031BE2DB.png" width="1252.00" height="21.00" transform="matrix(1.00, 0.00, -0.00, -1.00, 319.4, 965.1)" opacity="0.38"></image><path d="M -0.4 0.1 L 1238.6 0.1 " fill="none" stroke="#000000" stroke-width="7.00" stroke-linejoin="bevel" transform="matrix(1.00, 0.00, 0.00, -1.00, 326.4, 957.6)"></path><image xlink:href="../../3B3F4AB4-FD2B-40DB-A32E-96238FDE2279/assets/E4EA2E42D8C84644101EE9A9A3D8622C.png" width="1252.00" height="21.00" transform="matrix(1.00, 0.00, -0.00, -1.00, 319.4, 144.3)" opacity="0.38"></image><path d="M -0.4 0.3 L 1238.6 0.3 " fill="none" stroke="#000000" stroke-width="7.00" stroke-linejoin="bevel" transform="matrix(1.00, 0.00, 0.00, -1.00, 326.4, 136.8)"></path></g></svg>