<?xml version="1.0" encoding="UTF-8" standalone="no"?><svg xmlns="http://www.w3.org/2000/svg" xmlns:xlink="http://www.w3.org/1999/xlink" clip-rule="evenodd" stroke-miterlimit="10" viewBox="0 0 1148 544"><desc>SVG generated by Keynote</desc><defs></defs><g transform="matrix(1.00, 0.00, -0.00, -1.00, 0.0, 544.0)"><text xml:space="preserve" font-family="ComicSansMS,Comic Sans MS" font-size="86.0" fill="#FFFFFF" transform="matrix(1.00, 0.00, -0.00, -1.00, 93.2, 474.8)">C</text><text xml:space="preserve" font-family="ComicSansMS,Comic Sans MS" font-size="86.0" fill="#FFFFFF" transform="matrix(1.00, 0.00, -0.00, -1.00, 149.7, 474.8)">a</text><text xml:space="preserve" font-family="ComicSansMS,Comic Sans MS" font-size="86.0" fill="#FFFFFF" transform="matrix(1.00, 0.00, -0.00, -1.00, 198.5, 474.8)">d</text><text xml:space="preserve" font-family="ComicSansMS,Comic Sans MS" font-size="86.0" fill="#FFFFFF" transform="matrix(1.00, 0.00, -0.00, -1.00, 253.8, 474.8)">a</text><text xml:space="preserve" font-family="ComicSansMS,Comic Sans MS" font-size="86.0" fill="#FFFFFF" transform="matrix(1.00, 0.00, -0.00, -1.00, 302.6, 474.8)"> </text><text xml:space="preserve" font-family="ComicSansMS,Comic Sans MS" font-size="86.0" fill="#FFFFFF" transform="matrix(1.00, 0.00, -0.00, -1.00, 333.0, 474.8)">v</text><text xml:space="preserve" font-family="ComicSansMS,Comic Sans MS" font-size="86.0" fill="#FFFFFF" transform="matrix(1.00, 0.00, -0.00, -1.00, 379.7, 474.8)">e</text><text xml:space="preserve" font-family="ComicSansMS,Comic Sans MS" font-size="86.0" fill="#FFFFFF" transform="matrix(1.00, 0.00, -0.00, -1.00, 431.5, 474.8)">z</text><text xml:space="preserve" font-family="ComicSansMS,Comic Sans MS" font-size="86.0" fill="#FFFFFF" transform="matrix(1.00, 0.00, -0.00, -1.00, 482.6, 474.8)"> </text><text xml:space="preserve" font-family="ComicSansMS,Comic Sans MS" font-size="86.0" fill="#FFFFFF" transform="matrix(1.00, 0.00, -0.00, -1.00, 513.0, 474.8)">q</text><text xml:space="preserve" font-family="ComicSansMS,Comic Sans MS" font-size="86.0" fill="#FFFFFF" transform="matrix(1.00, 0.00, -0.00, -1.00, 562.6, 474.8)">u</text><text xml:space="preserve" font-family="ComicSansMS,Comic Sans MS" font-size="86.0" fill="#FFFFFF" transform="matrix(1.00, 0.00, -0.00, -1.00, 612.1, 474.8)">e</text><text xml:space="preserve" font-family="ComicSansMS,Comic Sans MS" font-size="86.0" fill="#FFFFFF" transform="matrix(1.00, 0.00, -0.00, -1.00, 664.0, 474.8)"> </text><text xml:space="preserve" font-family="ComicSansMS,Comic Sans MS" font-size="86.0" fill="#FFFFFF" transform="matrix(1.00, 0.00, -0.00, -1.00, 694.4, 474.8)">u</text><text xml:space="preserve" font-family="ComicSansMS,Comic Sans MS" font-size="86.0" fill="#FFFFFF" transform="matrix(1.00, 0.00, -0.00, -1.00, 744.0, 474.8)">n</text><text xml:space="preserve" font-family="ComicSansMS,Comic Sans MS" font-size="86.0" fill="#FFFFFF" transform="matrix(1.00, 0.00, -0.00, -1.00, 793.8, 474.8)"> </text><text xml:space="preserve" font-family="ComicSansMS,Comic Sans MS" font-size="86.0" fill="#FFFFFF" transform="matrix(1.00, 0.00, -0.00, -1.00, 824.3, 474.8)">c</text><text xml:space="preserve" font-family="ComicSansMS,Comic Sans MS" font-size="86.0" fill="#FFFFFF" transform="matrix(1.00, 0.00, -0.00, -1.00, 873.2, 474.8)">e</text><text xml:space="preserve" font-family="ComicSansMS,Comic Sans MS" font-size="86.0" fill="#FFFFFF" transform="matrix(1.00, 0.00, -0.00, -1.00, 925.0, 474.8)">r</text><text xml:space="preserve" font-family="ComicSansMS,Comic Sans MS" font-size="86.0" fill="#FFFFFF" transform="matrix(1.00, 0.00, -0.00, -1.00, 971.2, 474.8)">o</text><text xml:space="preserve" font-family="ComicSansMS,Comic Sans MS" font-size="86.0" fill="#FFFFFF" transform="matrix(1.00, 0.00, -0.00, -1.00, 1021.1, 474.8)"> </text><text xml:space="preserve" font-family="ComicSansMS,Comic Sans MS" font-size="86.0" fill="#FFFFFF" transform="matrix(1.00, 0.00, -0.00, -1.00, 1051.6, 474.8)"> </text><text xml:space="preserve" font-family="ComicSansMS,Comic Sans MS" font-size="86.0" fill="#FFFFFF" transform="matrix(1.00, 0.00, -0.00, -1.00, -1.6, 318.8)">e</text><text xml:space="preserve" font-family="ComicSansMS,Comic Sans MS" font-size="86.0" fill="#FFFFFF" transform="matrix(1.00, 0.00, -0.00, -1.00, 50.2, 318.8)">s</text><text xml:space="preserve" font-family="ComicSansMS,Comic Sans MS" font-size="86.0" fill="#FFFFFF" transform="matrix(1.00, 0.00, -0.00, -1.00, 96.9, 318.8)"> </text><text xml:space="preserve" font-family="ComicSansMS,Comic Sans MS" font-size="86.0" fill="#FFFFFF" transform="matrix(1.00, 0.00, -0.00, -1.00, 127.3, 318.8)">a</text><text xml:space="preserve" font-family="ComicSansMS,Comic Sans MS" font-size="86.0" fill="#FFFFFF" transform="matrix(1.00, 0.00, -0.00, -1.00, 176.1, 318.8)">g</text><text xml:space="preserve" font-family="ComicSansMS,Comic Sans MS" font-size="86.0" fill="#FFFFFF" transform="matrix(1.00, 0.00, -0.00, -1.00, 226.5, 318.8)">r</text><text xml:space="preserve" font-family="ComicSansMS,Comic Sans MS" font-size="86.0" fill="#FFFFFF" transform="matrix(1.00, 0.00, -0.00, -1.00, 272.7, 318.8)">e</text><text xml:space="preserve" font-family="ComicSansMS,Comic Sans MS" font-size="86.0" fill="#FFFFFF" transform="matrix(1.00, 0.00, -0.00, -1.00, 324.6, 318.8)">g</text><text xml:space="preserve" font-family="ComicSansMS,Comic Sans MS" font-size="86.0" fill="#FFFFFF" transform="matrix(1.00, 0.00, -0.00, -1.00, 375.0, 318.8)">a</text><text xml:space="preserve" font-family="ComicSansMS,Comic Sans MS" font-size="86.0" fill="#FFFFFF" transform="matrix(1.00, 0.00, -0.00, -1.00, 423.7, 318.8)">d</text><text xml:space="preserve" font-family="ComicSansMS,Comic Sans MS" font-size="86.0" fill="#FFFFFF" transform="matrix(1.00, 0.00, -0.00, -1.00, 479.1, 318.8)">o</text><text xml:space="preserve" font-family="ComicSansMS,Comic Sans MS" font-size="86.0" fill="#FFFFFF" transform="matrix(1.00, 0.00, -0.00, -1.00, 529.1, 318.8)"> </text><text xml:space="preserve" font-family="ComicSansMS,Comic Sans MS" font-size="86.0" fill="#FFFFFF" transform="matrix(1.00, 0.00, -0.00, -1.00, 559.6, 318.8)">a</text><text xml:space="preserve" font-family="ComicSansMS,Comic Sans MS" font-size="86.0" fill="#FFFFFF" transform="matrix(1.00, 0.00, -0.00, -1.00, 608.3, 318.8)"> </text><text xml:space="preserve" font-family="ComicSansMS,Comic Sans MS" font-size="86.0" fill="#FFFFFF" transform="matrix(1.00, 0.00, -0.00, -1.00, 638.8, 318.8)">u</text><text xml:space="preserve" font-family="ComicSansMS,Comic Sans MS" font-size="86.0" fill="#FFFFFF" transform="matrix(1.00, 0.00, -0.00, -1.00, 688.3, 318.8)">n</text><text xml:space="preserve" font-family="ComicSansMS,Comic Sans MS" font-size="86.0" fill="#FFFFFF" transform="matrix(1.00, 0.00, -0.00, -1.00, 738.2, 318.8)"> </text><text xml:space="preserve" font-family="ComicSansMS,Comic Sans MS" font-size="86.0" fill="#FFFFFF" transform="matrix(1.00, 0.00, -0.00, -1.00, 768.6, 318.8)">n</text><text xml:space="preserve" font-family="ComicSansMS,Comic Sans MS" font-size="86.0" fill="#FFFFFF" transform="matrix(1.00, 0.00, -0.00, -1.00, 818.5, 318.8)">ú</text><text xml:space="preserve" font-family="ComicSansMS,Comic Sans MS" font-size="86.0" fill="#FFFFFF" transform="matrix(1.00, 0.00, -0.00, -1.00, 868.0, 318.8)">m</text><text xml:space="preserve" font-family="ComicSansMS,Comic Sans MS" font-size="86.0" fill="#FFFFFF" transform="matrix(1.00, 0.00, -0.00, -1.00, 939.5, 318.8)">e</text><text xml:space="preserve" font-family="ComicSansMS,Comic Sans MS" font-size="86.0" fill="#FFFFFF" transform="matrix(1.00, 0.00, -0.00, -1.00, 991.4, 318.8)">r</text><text xml:space="preserve" font-family="ComicSansMS,Comic Sans MS" font-size="86.0" fill="#FFFFFF" transform="matrix(1.00, 0.00, -0.00, -1.00, 1037.6, 318.8)">o</text><text xml:space="preserve" font-family="ComicSansMS,Comic Sans MS" font-size="86.0" fill="#FFFFFF" transform="matrix(1.00, 0.00, -0.00, -1.00, 1087.6, 318.8)">,</text><text xml:space="preserve" font-family="ComicSansMS,Comic Sans MS" font-size="86.0" fill="#FFFFFF" transform="matrix(1.00, 0.00, -0.00, -1.00, 1116.2, 318.8)"> </text><text xml:space="preserve" font-family="ComicSansMS,Comic Sans MS" font-size="86.0" fill="#FFFFFF" transform="matrix(1.00, 0.00, -0.00, -1.00, 1146.6, 318.8)"> </text><text xml:space="preserve" font-family="ComicSansMS,Comic Sans MS" font-size="86.0" fill="#FFFFFF" transform="matrix(1.00, 0.00, -0.00, -1.00, 391.9, 162.8)">e</text><text xml:space="preserve" font-family="ComicSansMS,Comic Sans MS" font-size="86.0" fill="#FFFFFF" transform="matrix(1.00, 0.00, -0.00, -1.00, 443.8, 162.8)">l</text><text xml:space="preserve" font-family="ComicSansMS,Comic Sans MS" font-size="86.0" fill="#FFFFFF" transform="matrix(1.00, 0.00, -0.00, -1.00, 472.1, 162.8)"> </text><text xml:space="preserve" font-family="ComicSansMS,Comic Sans MS" font-size="86.0" fill="#FFFFFF" transform="matrix(1.00, 0.00, -0.00, -1.00, 502.6, 162.8)">v</text><text xml:space="preserve" font-family="ComicSansMS,Comic Sans MS" font-size="86.0" fill="#FFFFFF" transform="matrix(1.00, 0.00, -0.00, -1.00, 549.3, 162.8)">a</text><text xml:space="preserve" font-family="ComicSansMS,Comic Sans MS" font-size="86.0" fill="#FFFFFF" transform="matrix(1.00, 0.00, -0.00, -1.00, 598.0, 162.8)">l</text><text xml:space="preserve" font-family="ComicSansMS,Comic Sans MS" font-size="86.0" fill="#FFFFFF" transform="matrix(1.00, 0.00, -0.00, -1.00, 626.4, 162.8)">o</text><text xml:space="preserve" font-family="ComicSansMS,Comic Sans MS" font-size="86.0" fill="#FFFFFF" transform="matrix(1.00, 0.00, -0.00, -1.00, 676.4, 162.8)">r</text><text xml:space="preserve" font-family="ComicSansMS,Comic Sans MS" font-size="86.0" fill="#FFFFFF" transform="matrix(1.00, 0.00, -0.00, -1.00, 722.5, 162.8)"> </text><text xml:space="preserve" font-family="ComicSansMS,Comic Sans MS" font-size="86.0" fill="#FFFFFF" transform="matrix(1.00, 0.00, -0.00, -1.00, 753.0, 162.8)"> </text><text xml:space="preserve" font-family="ComicSansMS,Comic Sans MS" font-size="86.0" fill="#FFFFFF" transform="matrix(1.00, 0.00, -0.00, -1.00, 58.7, 6.8)">d</text><text xml:space="preserve" font-family="ComicSansMS,Comic Sans MS" font-size="86.0" fill="#FFFFFF" transform="matrix(1.00, 0.00, -0.00, -1.00, 114.1, 6.8)">e</text><text xml:space="preserve" font-family="ComicSansMS,Comic Sans MS" font-size="86.0" fill="#FFFFFF" transform="matrix(1.00, 0.00, -0.00, -1.00, 165.9, 6.8)"> </text><text xml:space="preserve" font-family="ComicSansMS,Comic Sans MS" font-size="86.0" fill="#FFFFFF" transform="matrix(1.00, 0.00, -0.00, -1.00, 196.4, 6.8)">e</text><text xml:space="preserve" font-family="ComicSansMS,Comic Sans MS" font-size="86.0" fill="#FFFFFF" transform="matrix(1.00, 0.00, -0.00, -1.00, 248.2, 6.8)">s</text><text xml:space="preserve" font-family="ComicSansMS,Comic Sans MS" font-size="86.0" fill="#FFFFFF" transform="matrix(1.00, 0.00, -0.00, -1.00, 294.8, 6.8)">e</text><text xml:space="preserve" font-family="ComicSansMS,Comic Sans MS" font-size="86.0" fill="#FFFFFF" transform="matrix(1.00, 0.00, -0.00, -1.00, 346.6, 6.8)"> </text><text xml:space="preserve" font-family="ComicSansMS,Comic Sans MS" font-size="86.0" fill="#FFFFFF" transform="matrix(1.00, 0.00, -0.00, -1.00, 377.1, 6.8)">n</text><text xml:space="preserve" font-family="ComicSansMS,Comic Sans MS" font-size="86.0" fill="#FFFFFF" transform="matrix(1.00, 0.00, -0.00, -1.00, 426.9, 6.8)">ú</text><text xml:space="preserve" font-family="ComicSansMS,Comic Sans MS" font-size="86.0" fill="#FFFFFF" transform="matrix(1.00, 0.00, -0.00, -1.00, 476.4, 6.8)">m</text><text xml:space="preserve" font-family="ComicSansMS,Comic Sans MS" font-size="86.0" fill="#FFFFFF" transform="matrix(1.00, 0.00, -0.00, -1.00, 548.0, 6.8)">e</text><text xml:space="preserve" font-family="ComicSansMS,Comic Sans MS" font-size="86.0" fill="#FFFFFF" transform="matrix(1.00, 0.00, -0.00, -1.00, 599.8, 6.8)">r</text><text xml:space="preserve" font-family="ComicSansMS,Comic Sans MS" font-size="86.0" fill="#FFFFFF" transform="matrix(1.00, 0.00, -0.00, -1.00, 646.0, 6.8)">o</text><text xml:space="preserve" font-family="ComicSansMS,Comic Sans MS" font-size="86.0" fill="#FFFFFF" transform="matrix(1.00, 0.00, -0.00, -1.00, 695.9, 6.8)"> </text><text xml:space="preserve" font-family="ComicSansMS,Comic Sans MS" font-size="86.0" fill="#FFFFFF" transform="matrix(1.00, 0.00, -0.00, -1.00, 726.3, 6.8)">c</text><text xml:space="preserve" font-family="ComicSansMS,Comic Sans MS" font-size="86.0" fill="#FFFFFF" transform="matrix(1.00, 0.00, -0.00, -1.00, 775.2, 6.8)">a</text><text xml:space="preserve" font-family="ComicSansMS,Comic Sans MS" font-size="86.0" fill="#FFFFFF" transform="matrix(1.00, 0.00, -0.00, -1.00, 824.0, 6.8)">m</text><text xml:space="preserve" font-family="ComicSansMS,Comic Sans MS" font-size="86.0" fill="#FFFFFF" transform="matrix(1.00, 0.00, -0.00, -1.00, 895.5, 6.8)">b</text><text xml:space="preserve" font-family="ComicSansMS,Comic Sans MS" font-size="86.0" fill="#FFFFFF" transform="matrix(1.00, 0.00, -0.00, -1.00, 951.4, 6.8)">i</text><text xml:space="preserve" font-family="ComicSansMS,Comic Sans MS" font-size="86.0" fill="#FFFFFF" transform="matrix(1.00, 0.00, -0.00, -1.00, 980.3, 6.8)">a</text><text xml:space="preserve" font-family="ComicSansMS,Comic Sans MS" font-size="86.0" fill="#FFFFFF" transform="matrix(1.00, 0.00, -0.00, -1.00, 1029.0, 6.8)">.</text></g></svg>