<?xml version="1.0" encoding="UTF-8" standalone="no"?><svg xmlns="http://www.w3.org/2000/svg" xmlns:xlink="http://www.w3.org/1999/xlink" clip-rule="evenodd" stroke-miterlimit="10" viewBox="0 0 787 81"><desc>SVG generated by Keynote</desc><defs></defs><g transform="matrix(1.00, 0.00, -0.00, -1.00, 0.0, 81.0)"><text xml:space="preserve" font-family="ArialRoundedMTBold,Arial Rounded MT Bold" font-size="68.0" fill="#000000" transform="matrix(1.00, 0.00, -0.00, -1.00, -3.1, 16.5)">R</text><text xml:space="preserve" font-family="ArialRoundedMTBold,Arial Rounded MT Bold" font-size="68.0" fill="#000000" transform="matrix(1.00, 0.00, -0.00, -1.00, 44.2, 16.5)">e</text><text xml:space="preserve" font-family="ArialRoundedMTBold,Arial Rounded MT Bold" font-size="68.0" fill="#000000" transform="matrix(1.00, 0.00, -0.00, -1.00, 84.6, 16.5)">d</text><text xml:space="preserve" font-family="ArialRoundedMTBold,Arial Rounded MT Bold" font-size="68.0" fill="#000000" transform="matrix(1.00, 0.00, -0.00, -1.00, 127.1, 16.5)">o</text><text xml:space="preserve" font-family="ArialRoundedMTBold,Arial Rounded MT Bold" font-size="68.0" fill="#000000" transform="matrix(1.00, 0.00, -0.00, -1.00, 168.2, 16.5)">n</text><text xml:space="preserve" font-family="ArialRoundedMTBold,Arial Rounded MT Bold" font-size="68.0" fill="#000000" transform="matrix(1.00, 0.00, -0.00, -1.00, 209.2, 16.5)">d</text><text xml:space="preserve" font-family="ArialRoundedMTBold,Arial Rounded MT Bold" font-size="68.0" fill="#000000" transform="matrix(1.00, 0.00, -0.00, -1.00, 251.7, 16.5)">a</text><text xml:space="preserve" font-family="ArialRoundedMTBold,Arial Rounded MT Bold" font-size="68.0" fill="#000000" transform="matrix(1.00, 0.00, -0.00, -1.00, 292.2, 16.5)"> </text><text xml:space="preserve" font-family="ArialRoundedMTBold,Arial Rounded MT Bold" font-size="68.0" fill="#000000" transform="matrix(1.00, 0.00, -0.00, -1.00, 309.2, 16.5)">a</text><text xml:space="preserve" font-family="ArialRoundedMTBold,Arial Rounded MT Bold" font-size="68.0" fill="#000000" transform="matrix(1.00, 0.00, -0.00, -1.00, 349.6, 16.5)">l</text><text xml:space="preserve" font-family="ArialRoundedMTBold,Arial Rounded MT Bold" font-size="68.0" fill="#000000" transform="matrix(1.00, 0.00, -0.00, -1.00, 368.0, 16.5)"> </text><text xml:space="preserve" font-family="ArialRoundedMTBold,Arial Rounded MT Bold" font-size="68.0" fill="#000000" transform="matrix(1.00, 0.00, -0.00, -1.00, 385.0, 16.5)">l</text><text xml:space="preserve" font-family="ArialRoundedMTBold,Arial Rounded MT Bold" font-size="68.0" fill="#000000" transform="matrix(1.00, 0.00, -0.00, -1.00, 403.4, 16.5)">u</text><text xml:space="preserve" font-family="ArialRoundedMTBold,Arial Rounded MT Bold" font-size="68.0" fill="#000000" transform="matrix(1.00, 0.00, -0.00, -1.00, 444.5, 16.5)">g</text><text xml:space="preserve" font-family="ArialRoundedMTBold,Arial Rounded MT Bold" font-size="68.0" fill="#000000" transform="matrix(1.00, 0.00, -0.00, -1.00, 485.3, 16.5)">a</text><text xml:space="preserve" font-family="ArialRoundedMTBold,Arial Rounded MT Bold" font-size="68.0" fill="#000000" transform="matrix(1.00, 0.00, -0.00, -1.00, 525.7, 16.5)">r</text><text xml:space="preserve" font-family="ArialRoundedMTBold,Arial Rounded MT Bold" font-size="68.0" fill="#000000" transform="matrix(1.00, 0.00, -0.00, -1.00, 555.5, 16.5)"> </text><text xml:space="preserve" font-family="ArialRoundedMTBold,Arial Rounded MT Bold" font-size="68.0" fill="#000000" transform="matrix(1.00, 0.00, -0.00, -1.00, 572.5, 16.5)">d</text><text xml:space="preserve" font-family="ArialRoundedMTBold,Arial Rounded MT Bold" font-size="68.0" fill="#000000" transform="matrix(1.00, 0.00, -0.00, -1.00, 615.0, 16.5)">e</text><text xml:space="preserve" font-family="ArialRoundedMTBold,Arial Rounded MT Bold" font-size="68.0" fill="#000000" transform="matrix(1.00, 0.00, -0.00, -1.00, 655.4, 16.5)"> </text><text xml:space="preserve" font-family="ArialRoundedMTBold,Arial Rounded MT Bold" font-size="68.0" fill="#000000" transform="matrix(1.00, 0.00, -0.00, -1.00, 672.4, 16.5)">m</text><text xml:space="preserve" font-family="ArialRoundedMTBold,Arial Rounded MT Bold" font-size="68.0" fill="#000000" transform="matrix(1.00, 0.00, -0.00, -1.00, 732.5, 16.5)">i</text><text xml:space="preserve" font-family="ArialRoundedMTBold,Arial Rounded MT Bold" font-size="68.0" fill="#000000" transform="matrix(1.00, 0.00, -0.00, -1.00, 750.9, 16.5)">l</text><text xml:space="preserve" font-family="ArialRoundedMTBold,Arial Rounded MT Bold" font-size="68.0" fill="#000000" transform="matrix(1.00, 0.00, -0.00, -1.00, 769.4, 16.5)">.</text><g><clipPath id="clip0x7f8758145ac0"><path d="M 671.4 7.0 L 769.4 7.0 L 769.4 12.4 L 671.4 12.4 Z M 671.4 7.0 "></path></clipPath><g clip-path="url(#clip0x7f8758145ac0)"><path d="M 944.6 79.1 L 1041.6 79.1 " fill="none" stroke="#000000" stroke-width="3.39" transform="matrix(1.00, 0.00, 0.00, -1.00, -272.2, 88.8)"></path></g></g></g></svg>