<?xml version="1.0" encoding="UTF-8" standalone="no"?><svg xmlns="http://www.w3.org/2000/svg" xmlns:xlink="http://www.w3.org/1999/xlink" clip-rule="evenodd" stroke-miterlimit="10" viewBox="0 0 593 654"><desc>SVG generated by Keynote</desc><defs></defs><g transform="matrix(1.00, 0.00, -0.00, -1.00, 0.0, 654.0)"><text xml:space="preserve" font-family="ComicSansMS,Comic Sans MS" font-size="86.0" fill="#FFFFFF" transform="matrix(1.00, 0.00, -0.00, -1.00, 28.9, 582.3)">C</text><text xml:space="preserve" font-family="ComicSansMS,Comic Sans MS" font-size="86.0" fill="#FFFFFF" transform="matrix(1.00, 0.00, -0.00, -1.00, 80.6, 582.3)">a</text><text xml:space="preserve" font-family="ComicSansMS,Comic Sans MS" font-size="86.0" fill="#FFFFFF" transform="matrix(1.00, 0.00, -0.00, -1.00, 124.6, 582.3)">d</text><text xml:space="preserve" font-family="ComicSansMS,Comic Sans MS" font-size="86.0" fill="#FFFFFF" transform="matrix(1.00, 0.00, -0.00, -1.00, 175.2, 582.3)">a</text><text xml:space="preserve" font-family="ComicSansMS,Comic Sans MS" font-size="86.0" fill="#FFFFFF" transform="matrix(1.00, 0.00, -0.00, -1.00, 219.2, 582.3)"> </text><text xml:space="preserve" font-family="ComicSansMS,Comic Sans MS" font-size="86.0" fill="#FFFFFF" transform="matrix(1.00, 0.00, -0.00, -1.00, 244.8, 582.3)">n</text><text xml:space="preserve" font-family="ComicSansMS,Comic Sans MS" font-size="86.0" fill="#FFFFFF" transform="matrix(1.00, 0.00, -0.00, -1.00, 289.9, 582.3)">ú</text><text xml:space="preserve" font-family="ComicSansMS,Comic Sans MS" font-size="86.0" fill="#FFFFFF" transform="matrix(1.00, 0.00, -0.00, -1.00, 334.6, 582.3)">m</text><text xml:space="preserve" font-family="ComicSansMS,Comic Sans MS" font-size="86.0" fill="#FFFFFF" transform="matrix(1.00, 0.00, -0.00, -1.00, 401.4, 582.3)">e</text><text xml:space="preserve" font-family="ComicSansMS,Comic Sans MS" font-size="86.0" fill="#FFFFFF" transform="matrix(1.00, 0.00, -0.00, -1.00, 448.5, 582.3)">r</text><text xml:space="preserve" font-family="ComicSansMS,Comic Sans MS" font-size="86.0" fill="#FFFFFF" transform="matrix(1.00, 0.00, -0.00, -1.00, 489.9, 582.3)">o</text><text xml:space="preserve" font-family="ComicSansMS,Comic Sans MS" font-size="86.0" fill="#FFFFFF" transform="matrix(1.00, 0.00, -0.00, -1.00, 535.1, 582.3)"> </text><text xml:space="preserve" font-family="ComicSansMS,Comic Sans MS" font-size="86.0" fill="#FFFFFF" transform="matrix(1.00, 0.00, -0.00, -1.00, 560.8, 582.3)"> </text><text xml:space="preserve" font-family="ComicSansMS,Comic Sans MS" font-size="86.0" fill="#FFFFFF" transform="matrix(1.00, 0.00, -0.00, -1.00, 17.1, 438.3)">a</text><text xml:space="preserve" font-family="ComicSansMS,Comic Sans MS" font-size="86.0" fill="#FFFFFF" transform="matrix(1.00, 0.00, -0.00, -1.00, 61.1, 438.3)"> </text><text xml:space="preserve" font-family="ComicSansMS,Comic Sans MS" font-size="86.0" fill="#FFFFFF" transform="matrix(1.00, 0.00, -0.00, -1.00, 86.7, 438.3)">l</text><text xml:space="preserve" font-family="ComicSansMS,Comic Sans MS" font-size="86.0" fill="#FFFFFF" transform="matrix(1.00, 0.00, -0.00, -1.00, 110.3, 438.3)">a</text><text xml:space="preserve" font-family="ComicSansMS,Comic Sans MS" font-size="86.0" fill="#FFFFFF" transform="matrix(1.00, 0.00, -0.00, -1.00, 154.3, 438.3)"> </text><text xml:space="preserve" font-family="ComicSansMS,Comic Sans MS" font-size="86.0" fill="#FFFFFF" transform="matrix(1.00, 0.00, -0.00, -1.00, 179.9, 438.3)">i</text><text xml:space="preserve" font-family="ComicSansMS,Comic Sans MS" font-size="86.0" fill="#FFFFFF" transform="matrix(1.00, 0.00, -0.00, -1.00, 204.1, 438.3)">z</text><text xml:space="preserve" font-family="ComicSansMS,Comic Sans MS" font-size="86.0" fill="#FFFFFF" transform="matrix(1.00, 0.00, -0.00, -1.00, 250.4, 438.3)">q</text><text xml:space="preserve" font-family="ComicSansMS,Comic Sans MS" font-size="86.0" fill="#FFFFFF" transform="matrix(1.00, 0.00, -0.00, -1.00, 295.1, 438.3)">u</text><text xml:space="preserve" font-family="ComicSansMS,Comic Sans MS" font-size="86.0" fill="#FFFFFF" transform="matrix(1.00, 0.00, -0.00, -1.00, 339.8, 438.3)">i</text><text xml:space="preserve" font-family="ComicSansMS,Comic Sans MS" font-size="86.0" fill="#FFFFFF" transform="matrix(1.00, 0.00, -0.00, -1.00, 363.9, 438.3)">e</text><text xml:space="preserve" font-family="ComicSansMS,Comic Sans MS" font-size="86.0" fill="#FFFFFF" transform="matrix(1.00, 0.00, -0.00, -1.00, 411.0, 438.3)">r</text><text xml:space="preserve" font-family="ComicSansMS,Comic Sans MS" font-size="86.0" fill="#FFFFFF" transform="matrix(1.00, 0.00, -0.00, -1.00, 452.4, 438.3)">d</text><text xml:space="preserve" font-family="ComicSansMS,Comic Sans MS" font-size="86.0" fill="#FFFFFF" transform="matrix(1.00, 0.00, -0.00, -1.00, 503.0, 438.3)">a</text><text xml:space="preserve" font-family="ComicSansMS,Comic Sans MS" font-size="86.0" fill="#FFFFFF" transform="matrix(1.00, 0.00, -0.00, -1.00, 546.9, 438.3)"> </text><text xml:space="preserve" font-family="ComicSansMS,Comic Sans MS" font-size="86.0" fill="#FFFFFF" transform="matrix(1.00, 0.00, -0.00, -1.00, 572.6, 438.3)"> </text><text xml:space="preserve" font-family="ComicSansMS,Comic Sans MS" font-size="86.0" fill="#FFFFFF" transform="matrix(1.00, 0.00, -0.00, -1.00, -1.3, 294.3)">e</text><text xml:space="preserve" font-family="ComicSansMS,Comic Sans MS" font-size="86.0" fill="#FFFFFF" transform="matrix(1.00, 0.00, -0.00, -1.00, 45.8, 294.3)">s</text><text xml:space="preserve" font-family="ComicSansMS,Comic Sans MS" font-size="86.0" fill="#FFFFFF" transform="matrix(1.00, 0.00, -0.00, -1.00, 87.6, 294.3)"> </text><text xml:space="preserve" font-family="ComicSansMS,Comic Sans MS" font-size="86.0" fill="#FFFFFF" transform="matrix(1.00, 0.00, -0.00, -1.00, 113.3, 294.3)">m</text><text xml:space="preserve" font-family="ComicSansMS,Comic Sans MS" font-size="86.0" fill="#FFFFFF" transform="matrix(1.00, 0.00, -0.00, -1.00, 180.1, 294.3)">á</text><text xml:space="preserve" font-family="ComicSansMS,Comic Sans MS" font-size="86.0" fill="#FFFFFF" transform="matrix(1.00, 0.00, -0.00, -1.00, 224.1, 294.3)">s</text><text xml:space="preserve" font-family="ComicSansMS,Comic Sans MS" font-size="86.0" fill="#FFFFFF" transform="matrix(1.00, 0.00, -0.00, -1.00, 266.0, 294.3)"> </text><text xml:space="preserve" font-family="ComicSansMS,Comic Sans MS" font-size="86.0" fill="#FFFFFF" transform="matrix(1.00, 0.00, -0.00, -1.00, 291.7, 294.3)">g</text><text xml:space="preserve" font-family="ComicSansMS,Comic Sans MS" font-size="86.0" fill="#FFFFFF" transform="matrix(1.00, 0.00, -0.00, -1.00, 337.3, 294.3)">r</text><text xml:space="preserve" font-family="ComicSansMS,Comic Sans MS" font-size="86.0" fill="#FFFFFF" transform="matrix(1.00, 0.00, -0.00, -1.00, 378.7, 294.3)">a</text><text xml:space="preserve" font-family="ComicSansMS,Comic Sans MS" font-size="86.0" fill="#FFFFFF" transform="matrix(1.00, 0.00, -0.00, -1.00, 422.7, 294.3)">n</text><text xml:space="preserve" font-family="ComicSansMS,Comic Sans MS" font-size="86.0" fill="#FFFFFF" transform="matrix(1.00, 0.00, -0.00, -1.00, 467.8, 294.3)">d</text><text xml:space="preserve" font-family="ComicSansMS,Comic Sans MS" font-size="86.0" fill="#FFFFFF" transform="matrix(1.00, 0.00, -0.00, -1.00, 518.4, 294.3)">e</text><text xml:space="preserve" font-family="ComicSansMS,Comic Sans MS" font-size="86.0" fill="#FFFFFF" transform="matrix(1.00, 0.00, -0.00, -1.00, 565.5, 294.3)"> </text><text xml:space="preserve" font-family="ComicSansMS,Comic Sans MS" font-size="86.0" fill="#FFFFFF" transform="matrix(1.00, 0.00, -0.00, -1.00, 591.2, 294.3)"> </text><text xml:space="preserve" font-family="ComicSansMS,Comic Sans MS" font-size="86.0" fill="#FFFFFF" transform="matrix(1.00, 0.00, -0.00, -1.00, 7.6, 150.3)">q</text><text xml:space="preserve" font-family="ComicSansMS,Comic Sans MS" font-size="86.0" fill="#FFFFFF" transform="matrix(1.00, 0.00, -0.00, -1.00, 52.3, 150.3)">u</text><text xml:space="preserve" font-family="ComicSansMS,Comic Sans MS" font-size="86.0" fill="#FFFFFF" transform="matrix(1.00, 0.00, -0.00, -1.00, 97.0, 150.3)">e</text><text xml:space="preserve" font-family="ComicSansMS,Comic Sans MS" font-size="86.0" fill="#FFFFFF" transform="matrix(1.00, 0.00, -0.00, -1.00, 144.1, 150.3)"> </text><text xml:space="preserve" font-family="ComicSansMS,Comic Sans MS" font-size="86.0" fill="#FFFFFF" transform="matrix(1.00, 0.00, -0.00, -1.00, 169.8, 150.3)">e</text><text xml:space="preserve" font-family="ComicSansMS,Comic Sans MS" font-size="86.0" fill="#FFFFFF" transform="matrix(1.00, 0.00, -0.00, -1.00, 216.9, 150.3)">l</text><text xml:space="preserve" font-family="ComicSansMS,Comic Sans MS" font-size="86.0" fill="#FFFFFF" transform="matrix(1.00, 0.00, -0.00, -1.00, 240.5, 150.3)"> </text><text xml:space="preserve" font-family="ComicSansMS,Comic Sans MS" font-size="86.0" fill="#FFFFFF" transform="matrix(1.00, 0.00, -0.00, -1.00, 266.2, 150.3)">n</text><text xml:space="preserve" font-family="ComicSansMS,Comic Sans MS" font-size="86.0" fill="#FFFFFF" transform="matrix(1.00, 0.00, -0.00, -1.00, 311.2, 150.3)">ú</text><text xml:space="preserve" font-family="ComicSansMS,Comic Sans MS" font-size="86.0" fill="#FFFFFF" transform="matrix(1.00, 0.00, -0.00, -1.00, 355.9, 150.3)">m</text><text xml:space="preserve" font-family="ComicSansMS,Comic Sans MS" font-size="86.0" fill="#FFFFFF" transform="matrix(1.00, 0.00, -0.00, -1.00, 422.7, 150.3)">e</text><text xml:space="preserve" font-family="ComicSansMS,Comic Sans MS" font-size="86.0" fill="#FFFFFF" transform="matrix(1.00, 0.00, -0.00, -1.00, 469.8, 150.3)">r</text><text xml:space="preserve" font-family="ComicSansMS,Comic Sans MS" font-size="86.0" fill="#FFFFFF" transform="matrix(1.00, 0.00, -0.00, -1.00, 511.2, 150.3)">o</text><text xml:space="preserve" font-family="ComicSansMS,Comic Sans MS" font-size="86.0" fill="#FFFFFF" transform="matrix(1.00, 0.00, -0.00, -1.00, 556.4, 150.3)"> </text><text xml:space="preserve" font-family="ComicSansMS,Comic Sans MS" font-size="86.0" fill="#FFFFFF" transform="matrix(1.00, 0.00, -0.00, -1.00, 582.1, 150.3)"> </text><text xml:space="preserve" font-family="ComicSansMS,Comic Sans MS" font-size="86.0" fill="#FFFFFF" transform="matrix(1.00, 0.00, -0.00, -1.00, 18.3, 6.3)">a</text><text xml:space="preserve" font-family="ComicSansMS,Comic Sans MS" font-size="86.0" fill="#FFFFFF" transform="matrix(1.00, 0.00, -0.00, -1.00, 62.3, 6.3)"> </text><text xml:space="preserve" font-family="ComicSansMS,Comic Sans MS" font-size="86.0" fill="#FFFFFF" transform="matrix(1.00, 0.00, -0.00, -1.00, 88.0, 6.3)">s</text><text xml:space="preserve" font-family="ComicSansMS,Comic Sans MS" font-size="86.0" fill="#FFFFFF" transform="matrix(1.00, 0.00, -0.00, -1.00, 129.8, 6.3)">u</text><text xml:space="preserve" font-family="ComicSansMS,Comic Sans MS" font-size="86.0" fill="#FFFFFF" transform="matrix(1.00, 0.00, -0.00, -1.00, 174.6, 6.3)"> </text><text xml:space="preserve" font-family="ComicSansMS,Comic Sans MS" font-size="86.0" fill="#FFFFFF" transform="matrix(1.00, 0.00, -0.00, -1.00, 200.2, 6.3)">d</text><text xml:space="preserve" font-family="ComicSansMS,Comic Sans MS" font-size="86.0" fill="#FFFFFF" transform="matrix(1.00, 0.00, -0.00, -1.00, 250.8, 6.3)">e</text><text xml:space="preserve" font-family="ComicSansMS,Comic Sans MS" font-size="86.0" fill="#FFFFFF" transform="matrix(1.00, 0.00, -0.00, -1.00, 297.9, 6.3)">r</text><text xml:space="preserve" font-family="ComicSansMS,Comic Sans MS" font-size="86.0" fill="#FFFFFF" transform="matrix(1.00, 0.00, -0.00, -1.00, 339.3, 6.3)">e</text><text xml:space="preserve" font-family="ComicSansMS,Comic Sans MS" font-size="86.0" fill="#FFFFFF" transform="matrix(1.00, 0.00, -0.00, -1.00, 386.4, 6.3)">c</text><text xml:space="preserve" font-family="ComicSansMS,Comic Sans MS" font-size="86.0" fill="#FFFFFF" transform="matrix(1.00, 0.00, -0.00, -1.00, 430.5, 6.3)">h</text><text xml:space="preserve" font-family="ComicSansMS,Comic Sans MS" font-size="86.0" fill="#FFFFFF" transform="matrix(1.00, 0.00, -0.00, -1.00, 480.2, 6.3)">a</text><text xml:space="preserve" font-family="ComicSansMS,Comic Sans MS" font-size="86.0" fill="#FFFFFF" transform="matrix(1.00, 0.00, -0.00, -1.00, 524.1, 6.3)">.</text><text xml:space="preserve" font-family="ComicSansMS,Comic Sans MS" font-size="86.0" fill="#FFFFFF" transform="matrix(1.00, 0.00, -0.00, -1.00, 545.6, 6.3)"> </text></g></svg>