<?xml version="1.0" encoding="UTF-8" standalone="no"?><svg xmlns="http://www.w3.org/2000/svg" xmlns:xlink="http://www.w3.org/1999/xlink" clip-rule="evenodd" stroke-miterlimit="10" viewBox="0 0 1920 1080"><desc>SVG generated by Keynote</desc><defs></defs><g transform="matrix(1.00, 0.00, -0.00, -1.00, 0.0, 1080.0)"><path d="M 0.0 1080.0 L 1920.0 1080.0 L 1920.0 0.0 L 0.0 0.0 Z M 0.0 1080.0 " fill="#FFFFFF"></path><path d="M 258.5 1061.5 L 1663.5 1061.5 L 1663.5 17.5 L 258.5 17.5 Z M 258.5 1061.5 " fill="#000000"></path><path d="M -0.0 -0.0 L 1405.0 -0.0 L 1405.0 1044.0 L -0.0 1044.0 Z M 0.0 0.0 " fill="none" stroke="#800000" stroke-width="1.00" stroke-linejoin="bevel" transform="matrix(1.00, 0.00, 0.00, -1.00, 258.5, 1061.5)"></path><text xml:space="preserve" font-family="ComicSansMS,Comic Sans MS" font-size="86.0" fill="#FFFFFF" transform="matrix(1.00, 0.00, -0.00, -1.00, 706.9, 689.3)">C</text><text xml:space="preserve" font-family="ComicSansMS,Comic Sans MS" font-size="86.0" fill="#FFFFFF" transform="matrix(1.00, 0.00, -0.00, -1.00, 758.6, 689.3)">a</text><text xml:space="preserve" font-family="ComicSansMS,Comic Sans MS" font-size="86.0" fill="#FFFFFF" transform="matrix(1.00, 0.00, -0.00, -1.00, 802.6, 689.3)">d</text><text xml:space="preserve" font-family="ComicSansMS,Comic Sans MS" font-size="86.0" fill="#FFFFFF" transform="matrix(1.00, 0.00, -0.00, -1.00, 853.2, 689.3)">a</text><text xml:space="preserve" font-family="ComicSansMS,Comic Sans MS" font-size="86.0" fill="#FFFFFF" transform="matrix(1.00, 0.00, -0.00, -1.00, 897.2, 689.3)"> </text><text xml:space="preserve" font-family="ComicSansMS,Comic Sans MS" font-size="86.0" fill="#FFFFFF" transform="matrix(1.00, 0.00, -0.00, -1.00, 922.8, 689.3)">n</text><text xml:space="preserve" font-family="ComicSansMS,Comic Sans MS" font-size="86.0" fill="#FFFFFF" transform="matrix(1.00, 0.00, -0.00, -1.00, 967.9, 689.3)">ú</text><text xml:space="preserve" font-family="ComicSansMS,Comic Sans MS" font-size="86.0" fill="#FFFFFF" transform="matrix(1.00, 0.00, -0.00, -1.00, 1012.6, 689.3)">m</text><text xml:space="preserve" font-family="ComicSansMS,Comic Sans MS" font-size="86.0" fill="#FFFFFF" transform="matrix(1.00, 0.00, -0.00, -1.00, 1079.4, 689.3)">e</text><text xml:space="preserve" font-family="ComicSansMS,Comic Sans MS" font-size="86.0" fill="#FFFFFF" transform="matrix(1.00, 0.00, -0.00, -1.00, 1126.5, 689.3)">r</text><text xml:space="preserve" font-family="ComicSansMS,Comic Sans MS" font-size="86.0" fill="#FFFFFF" transform="matrix(1.00, 0.00, -0.00, -1.00, 1167.9, 689.3)">o</text><text xml:space="preserve" font-family="ComicSansMS,Comic Sans MS" font-size="86.0" fill="#FFFFFF" transform="matrix(1.00, 0.00, -0.00, -1.00, 1213.1, 689.3)"> </text><text xml:space="preserve" font-family="ComicSansMS,Comic Sans MS" font-size="86.0" fill="#FFFFFF" transform="matrix(1.00, 0.00, -0.00, -1.00, 1238.8, 689.3)"> </text><text xml:space="preserve" font-family="ComicSansMS,Comic Sans MS" font-size="86.0" fill="#FFFFFF" transform="matrix(1.00, 0.00, -0.00, -1.00, 695.1, 545.3)">a</text><text xml:space="preserve" font-family="ComicSansMS,Comic Sans MS" font-size="86.0" fill="#FFFFFF" transform="matrix(1.00, 0.00, -0.00, -1.00, 739.1, 545.3)"> </text><text xml:space="preserve" font-family="ComicSansMS,Comic Sans MS" font-size="86.0" fill="#FFFFFF" transform="matrix(1.00, 0.00, -0.00, -1.00, 764.7, 545.3)">l</text><text xml:space="preserve" font-family="ComicSansMS,Comic Sans MS" font-size="86.0" fill="#FFFFFF" transform="matrix(1.00, 0.00, -0.00, -1.00, 788.3, 545.3)">a</text><text xml:space="preserve" font-family="ComicSansMS,Comic Sans MS" font-size="86.0" fill="#FFFFFF" transform="matrix(1.00, 0.00, -0.00, -1.00, 832.3, 545.3)"> </text><text xml:space="preserve" font-family="ComicSansMS,Comic Sans MS" font-size="86.0" fill="#FFFFFF" transform="matrix(1.00, 0.00, -0.00, -1.00, 857.9, 545.3)">i</text><text xml:space="preserve" font-family="ComicSansMS,Comic Sans MS" font-size="86.0" fill="#FFFFFF" transform="matrix(1.00, 0.00, -0.00, -1.00, 882.1, 545.3)">z</text><text xml:space="preserve" font-family="ComicSansMS,Comic Sans MS" font-size="86.0" fill="#FFFFFF" transform="matrix(1.00, 0.00, -0.00, -1.00, 928.4, 545.3)">q</text><text xml:space="preserve" font-family="ComicSansMS,Comic Sans MS" font-size="86.0" fill="#FFFFFF" transform="matrix(1.00, 0.00, -0.00, -1.00, 973.1, 545.3)">u</text><text xml:space="preserve" font-family="ComicSansMS,Comic Sans MS" font-size="86.0" fill="#FFFFFF" transform="matrix(1.00, 0.00, -0.00, -1.00, 1017.8, 545.3)">i</text><text xml:space="preserve" font-family="ComicSansMS,Comic Sans MS" font-size="86.0" fill="#FFFFFF" transform="matrix(1.00, 0.00, -0.00, -1.00, 1041.9, 545.3)">e</text><text xml:space="preserve" font-family="ComicSansMS,Comic Sans MS" font-size="86.0" fill="#FFFFFF" transform="matrix(1.00, 0.00, -0.00, -1.00, 1089.0, 545.3)">r</text><text xml:space="preserve" font-family="ComicSansMS,Comic Sans MS" font-size="86.0" fill="#FFFFFF" transform="matrix(1.00, 0.00, -0.00, -1.00, 1130.4, 545.3)">d</text><text xml:space="preserve" font-family="ComicSansMS,Comic Sans MS" font-size="86.0" fill="#FFFFFF" transform="matrix(1.00, 0.00, -0.00, -1.00, 1181.0, 545.3)">a</text><text xml:space="preserve" font-family="ComicSansMS,Comic Sans MS" font-size="86.0" fill="#FFFFFF" transform="matrix(1.00, 0.00, -0.00, -1.00, 1224.9, 545.3)"> </text><text xml:space="preserve" font-family="ComicSansMS,Comic Sans MS" font-size="86.0" fill="#FFFFFF" transform="matrix(1.00, 0.00, -0.00, -1.00, 1250.6, 545.3)"> </text><text xml:space="preserve" font-family="ComicSansMS,Comic Sans MS" font-size="86.0" fill="#FFFFFF" transform="matrix(1.00, 0.00, -0.00, -1.00, 676.7, 401.3)">e</text><text xml:space="preserve" font-family="ComicSansMS,Comic Sans MS" font-size="86.0" fill="#FFFFFF" transform="matrix(1.00, 0.00, -0.00, -1.00, 723.8, 401.3)">s</text><text xml:space="preserve" font-family="ComicSansMS,Comic Sans MS" font-size="86.0" fill="#FFFFFF" transform="matrix(1.00, 0.00, -0.00, -1.00, 765.6, 401.3)"> </text><text xml:space="preserve" font-family="ComicSansMS,Comic Sans MS" font-size="86.0" fill="#FFFFFF" transform="matrix(1.00, 0.00, -0.00, -1.00, 791.3, 401.3)">m</text><text xml:space="preserve" font-family="ComicSansMS,Comic Sans MS" font-size="86.0" fill="#FFFFFF" transform="matrix(1.00, 0.00, -0.00, -1.00, 858.1, 401.3)">á</text><text xml:space="preserve" font-family="ComicSansMS,Comic Sans MS" font-size="86.0" fill="#FFFFFF" transform="matrix(1.00, 0.00, -0.00, -1.00, 902.1, 401.3)">s</text><text xml:space="preserve" font-family="ComicSansMS,Comic Sans MS" font-size="86.0" fill="#FFFFFF" transform="matrix(1.00, 0.00, -0.00, -1.00, 944.0, 401.3)"> </text><text xml:space="preserve" font-family="ComicSansMS,Comic Sans MS" font-size="86.0" fill="#FFFFFF" transform="matrix(1.00, 0.00, -0.00, -1.00, 969.7, 401.3)">g</text><text xml:space="preserve" font-family="ComicSansMS,Comic Sans MS" font-size="86.0" fill="#FFFFFF" transform="matrix(1.00, 0.00, -0.00, -1.00, 1015.3, 401.3)">r</text><text xml:space="preserve" font-family="ComicSansMS,Comic Sans MS" font-size="86.0" fill="#FFFFFF" transform="matrix(1.00, 0.00, -0.00, -1.00, 1056.7, 401.3)">a</text><text xml:space="preserve" font-family="ComicSansMS,Comic Sans MS" font-size="86.0" fill="#FFFFFF" transform="matrix(1.00, 0.00, -0.00, -1.00, 1100.7, 401.3)">n</text><text xml:space="preserve" font-family="ComicSansMS,Comic Sans MS" font-size="86.0" fill="#FFFFFF" transform="matrix(1.00, 0.00, -0.00, -1.00, 1145.8, 401.3)">d</text><text xml:space="preserve" font-family="ComicSansMS,Comic Sans MS" font-size="86.0" fill="#FFFFFF" transform="matrix(1.00, 0.00, -0.00, -1.00, 1196.4, 401.3)">e</text><text xml:space="preserve" font-family="ComicSansMS,Comic Sans MS" font-size="86.0" fill="#FFFFFF" transform="matrix(1.00, 0.00, -0.00, -1.00, 1243.5, 401.3)"> </text><text xml:space="preserve" font-family="ComicSansMS,Comic Sans MS" font-size="86.0" fill="#FFFFFF" transform="matrix(1.00, 0.00, -0.00, -1.00, 1269.2, 401.3)"> </text><text xml:space="preserve" font-family="ComicSansMS,Comic Sans MS" font-size="86.0" fill="#FFFFFF" transform="matrix(1.00, 0.00, -0.00, -1.00, 685.6, 257.3)">q</text><text xml:space="preserve" font-family="ComicSansMS,Comic Sans MS" font-size="86.0" fill="#FFFFFF" transform="matrix(1.00, 0.00, -0.00, -1.00, 730.3, 257.3)">u</text><text xml:space="preserve" font-family="ComicSansMS,Comic Sans MS" font-size="86.0" fill="#FFFFFF" transform="matrix(1.00, 0.00, -0.00, -1.00, 775.0, 257.3)">e</text><text xml:space="preserve" font-family="ComicSansMS,Comic Sans MS" font-size="86.0" fill="#FFFFFF" transform="matrix(1.00, 0.00, -0.00, -1.00, 822.1, 257.3)"> </text><text xml:space="preserve" font-family="ComicSansMS,Comic Sans MS" font-size="86.0" fill="#FFFFFF" transform="matrix(1.00, 0.00, -0.00, -1.00, 847.8, 257.3)">e</text><text xml:space="preserve" font-family="ComicSansMS,Comic Sans MS" font-size="86.0" fill="#FFFFFF" transform="matrix(1.00, 0.00, -0.00, -1.00, 894.9, 257.3)">l</text><text xml:space="preserve" font-family="ComicSansMS,Comic Sans MS" font-size="86.0" fill="#FFFFFF" transform="matrix(1.00, 0.00, -0.00, -1.00, 918.5, 257.3)"> </text><text xml:space="preserve" font-family="ComicSansMS,Comic Sans MS" font-size="86.0" fill="#FFFFFF" transform="matrix(1.00, 0.00, -0.00, -1.00, 944.2, 257.3)">n</text><text xml:space="preserve" font-family="ComicSansMS,Comic Sans MS" font-size="86.0" fill="#FFFFFF" transform="matrix(1.00, 0.00, -0.00, -1.00, 989.2, 257.3)">ú</text><text xml:space="preserve" font-family="ComicSansMS,Comic Sans MS" font-size="86.0" fill="#FFFFFF" transform="matrix(1.00, 0.00, -0.00, -1.00, 1033.9, 257.3)">m</text><text xml:space="preserve" font-family="ComicSansMS,Comic Sans MS" font-size="86.0" fill="#FFFFFF" transform="matrix(1.00, 0.00, -0.00, -1.00, 1100.7, 257.3)">e</text><text xml:space="preserve" font-family="ComicSansMS,Comic Sans MS" font-size="86.0" fill="#FFFFFF" transform="matrix(1.00, 0.00, -0.00, -1.00, 1147.8, 257.3)">r</text><text xml:space="preserve" font-family="ComicSansMS,Comic Sans MS" font-size="86.0" fill="#FFFFFF" transform="matrix(1.00, 0.00, -0.00, -1.00, 1189.2, 257.3)">o</text><text xml:space="preserve" font-family="ComicSansMS,Comic Sans MS" font-size="86.0" fill="#FFFFFF" transform="matrix(1.00, 0.00, -0.00, -1.00, 1234.4, 257.3)"> </text><text xml:space="preserve" font-family="ComicSansMS,Comic Sans MS" font-size="86.0" fill="#FFFFFF" transform="matrix(1.00, 0.00, -0.00, -1.00, 1260.1, 257.3)"> </text><text xml:space="preserve" font-family="ComicSansMS,Comic Sans MS" font-size="86.0" fill="#FFFFFF" transform="matrix(1.00, 0.00, -0.00, -1.00, 696.3, 113.3)">a</text><text xml:space="preserve" font-family="ComicSansMS,Comic Sans MS" font-size="86.0" fill="#FFFFFF" transform="matrix(1.00, 0.00, -0.00, -1.00, 740.3, 113.3)"> </text><text xml:space="preserve" font-family="ComicSansMS,Comic Sans MS" font-size="86.0" fill="#FFFFFF" transform="matrix(1.00, 0.00, -0.00, -1.00, 766.0, 113.3)">s</text><text xml:space="preserve" font-family="ComicSansMS,Comic Sans MS" font-size="86.0" fill="#FFFFFF" transform="matrix(1.00, 0.00, -0.00, -1.00, 807.8, 113.3)">u</text><text xml:space="preserve" font-family="ComicSansMS,Comic Sans MS" font-size="86.0" fill="#FFFFFF" transform="matrix(1.00, 0.00, -0.00, -1.00, 852.6, 113.3)"> </text><text xml:space="preserve" font-family="ComicSansMS,Comic Sans MS" font-size="86.0" fill="#FFFFFF" transform="matrix(1.00, 0.00, -0.00, -1.00, 878.2, 113.3)">d</text><text xml:space="preserve" font-family="ComicSansMS,Comic Sans MS" font-size="86.0" fill="#FFFFFF" transform="matrix(1.00, 0.00, -0.00, -1.00, 928.8, 113.3)">e</text><text xml:space="preserve" font-family="ComicSansMS,Comic Sans MS" font-size="86.0" fill="#FFFFFF" transform="matrix(1.00, 0.00, -0.00, -1.00, 975.9, 113.3)">r</text><text xml:space="preserve" font-family="ComicSansMS,Comic Sans MS" font-size="86.0" fill="#FFFFFF" transform="matrix(1.00, 0.00, -0.00, -1.00, 1017.3, 113.3)">e</text><text xml:space="preserve" font-family="ComicSansMS,Comic Sans MS" font-size="86.0" fill="#FFFFFF" transform="matrix(1.00, 0.00, -0.00, -1.00, 1064.4, 113.3)">c</text><text xml:space="preserve" font-family="ComicSansMS,Comic Sans MS" font-size="86.0" fill="#FFFFFF" transform="matrix(1.00, 0.00, -0.00, -1.00, 1108.5, 113.3)">h</text><text xml:space="preserve" font-family="ComicSansMS,Comic Sans MS" font-size="86.0" fill="#FFFFFF" transform="matrix(1.00, 0.00, -0.00, -1.00, 1158.2, 113.3)">a</text><text xml:space="preserve" font-family="ComicSansMS,Comic Sans MS" font-size="86.0" fill="#FFFFFF" transform="matrix(1.00, 0.00, -0.00, -1.00, 1202.1, 113.3)">.</text><text xml:space="preserve" font-family="ComicSansMS,Comic Sans MS" font-size="86.0" fill="#FFFFFF" transform="matrix(1.00, 0.00, -0.00, -1.00, 1223.6, 113.3)"> </text><text xml:space="preserve" font-family="ComicSansMS,Comic Sans MS" font-size="128.0" fill="#FFFFFF" transform="matrix(1.00, 0.00, -0.00, -1.00, 812.9, 899.5)">N</text><text xml:space="preserve" font-family="ComicSansMS,Comic Sans MS" font-size="128.0" fill="#FFFFFF" transform="matrix(1.00, 0.00, -0.00, -1.00, 914.9, 899.5)">o</text><text xml:space="preserve" font-family="ComicSansMS,Comic Sans MS" font-size="128.0" fill="#FFFFFF" transform="matrix(1.00, 0.00, -0.00, -1.00, 982.2, 899.5)">t</text><text xml:space="preserve" font-family="ComicSansMS,Comic Sans MS" font-size="128.0" fill="#FFFFFF" transform="matrix(1.00, 0.00, -0.00, -1.00, 1042.5, 899.5)">a</text><g><clipPath id="clip0x7f875c4bc590"><path d="M 1441.0 180.0 L 1596.0 180.0 L 1596.0 79.0 L 1441.0 79.0 Z M 1440.5 180.0 "></path></clipPath><g clip-path="url(#clip0x7f875c4bc590)"><g><clipPath id="clip0x7f875c4bccf0"><path d="M 1440.5 79.2 L 1595.6 79.2 L 1595.6 180.0 L 1440.5 180.0 Z M 1440.5 79.2 "></path></clipPath><g clip-path="url(#clip0x7f875c4bccf0)"><image xlink:href="../../BF6DC8B6-E505-4222-AA15-A9E26ADAED33/assets/80853EFD8D24BCE501047C376B8C7833.png" width="260.00" height="194.00" transform="matrix(0.66, 0.00, -0.00, -0.66, 1425.0, 180.0)"></image></g></g></g></g><g><clipPath id="clip0x7f875c4be520"><path d="M 1405.0 52.4 L 1445.6 52.4 L 1445.6 92.8 L 1405.0 92.8 Z M 1405.0 52.4 "></path></clipPath><g clip-path="url(#clip0x7f875c4be520)"><path d="M 1425.3 91.6 L 1431.1 79.2 L 1444.2 77.2 L 1434.8 67.5 L 1437.0 53.8 L 1425.3 60.3 L 1413.6 53.8 L 1415.9 67.5 L 1406.4 77.2 L 1419.5 79.2 Z M 1425.3 91.6 " fill="#C3D69B"></path><path d="M 19.9 0.0 L 25.7 12.4 L 38.8 14.4 L 29.3 24.1 L 31.6 37.8 L 19.9 31.3 L 8.2 37.8 L 10.4 24.1 L 1.0 14.4 L 14.0 12.4 Z M 19.9 0.0 " fill="none" stroke="#000000" stroke-width="1.00" stroke-linejoin="bevel" transform="matrix(1.00, 0.00, 0.00, -1.00, 1405.4, 91.6)"></path></g></g></g></svg>