<?xml version="1.0" encoding="UTF-8" standalone="no"?><svg xmlns="http://www.w3.org/2000/svg" xmlns:xlink="http://www.w3.org/1999/xlink" clip-rule="evenodd" stroke-miterlimit="10" viewBox="0 0 1920 1080"><desc>SVG generated by Keynote</desc><defs></defs><g transform="matrix(1.00, 0.00, -0.00, -1.00, 0.0, 1080.0)"><path d="M 0.0 1080.0 L 1920.0 1080.0 L 1920.0 0.0 L 0.0 0.0 Z M 0.0 1080.0 " fill="#FFFFFF"></path><path d="M 778.9 890.6 C 964.4 705.0 964.4 404.3 778.9 218.7 C 593.5 33.2 292.8 33.2 107.3 218.7 C -78.2 404.3 -78.2 705.0 107.3 890.6 C 292.8 1076.1 593.5 1076.1 778.9 890.6 Z M 778.9 890.6 " fill="#E6DC2B"></path><path d="M 810.7 139.1 C 996.2 324.7 996.2 625.4 810.7 811.0 C 625.3 996.5 324.6 996.5 139.1 811.0 C -46.4 625.4 -46.4 324.7 139.1 139.1 C 324.6 -46.4 625.3 -46.4 810.7 139.1 Z M 810.7 139.1 " fill="none" stroke="#485866" stroke-width="21.00" stroke-linejoin="bevel" transform="matrix(1.00, 0.00, 0.00, -1.00, -31.8, 1029.7)"></path><text xml:space="preserve" font-family="ArialRoundedMTBold,Arial Rounded MT Bold" font-size="126.0" fill="#0D6D99" transform="matrix(1.00, 0.00, -0.00, -1.00, 607.1, 584.7)">r</text><text xml:space="preserve" font-family="ArialRoundedMTBold,Arial Rounded MT Bold" font-size="126.0" fill="#0D6D99" transform="matrix(1.00, 0.00, -0.00, -1.00, 666.3, 584.7)">e</text><text xml:space="preserve" font-family="ArialRoundedMTBold,Arial Rounded MT Bold" font-size="126.0" fill="#0D6D99" transform="matrix(1.00, 0.00, -0.00, -1.00, 748.3, 584.7)">d</text><text xml:space="preserve" font-family="ArialRoundedMTBold,Arial Rounded MT Bold" font-size="126.0" fill="#0D6D99" transform="matrix(1.00, 0.00, -0.00, -1.00, 834.2, 584.7)">o</text><text xml:space="preserve" font-family="ArialRoundedMTBold,Arial Rounded MT Bold" font-size="126.0" fill="#0D6D99" transform="matrix(1.00, 0.00, -0.00, -1.00, 917.5, 584.7)">n</text><text xml:space="preserve" font-family="ArialRoundedMTBold,Arial Rounded MT Bold" font-size="126.0" fill="#0D6D99" transform="matrix(1.00, 0.00, -0.00, -1.00, 1000.7, 584.7)">d</text><text xml:space="preserve" font-family="ArialRoundedMTBold,Arial Rounded MT Bold" font-size="126.0" fill="#0D6D99" transform="matrix(1.00, 0.00, -0.00, -1.00, 1086.6, 584.7)">e</text><text xml:space="preserve" font-family="ArialRoundedMTBold,Arial Rounded MT Bold" font-size="126.0" fill="#0D6D99" transform="matrix(1.00, 0.00, -0.00, -1.00, 1168.6, 584.7)">a</text><text xml:space="preserve" font-family="ArialRoundedMTBold,Arial Rounded MT Bold" font-size="126.0" fill="#0D6D99" transform="matrix(1.00, 0.00, -0.00, -1.00, 1250.6, 584.7)">r</text><text xml:space="preserve" font-family="ArialRoundedMTBold,Arial Rounded MT Bold" font-size="126.0" fill="#0D6D99" transform="matrix(1.00, 0.00, -0.00, -1.00, 1313.0, 584.7)"> </text><text xml:space="preserve" font-family="ArialRoundedMTBold,Arial Rounded MT Bold" font-size="126.0" fill="#0D6D99" transform="matrix(1.00, 0.00, -0.00, -1.00, 1351.6, 584.7)"> </text><text xml:space="preserve" font-family="ArialRoundedMTBold,Arial Rounded MT Bold" font-size="126.0" fill="#0D6D99" transform="matrix(1.00, 0.00, -0.00, -1.00, 668.4, 438.7)">n</text><text xml:space="preserve" font-family="ArialRoundedMTBold,Arial Rounded MT Bold" font-size="126.0" fill="#0D6D99" transform="matrix(1.00, 0.00, -0.00, -1.00, 751.6, 438.7)">ú</text><text xml:space="preserve" font-family="ArialRoundedMTBold,Arial Rounded MT Bold" font-size="126.0" fill="#0D6D99" transform="matrix(1.00, 0.00, -0.00, -1.00, 834.8, 438.7)">m</text><text xml:space="preserve" font-family="ArialRoundedMTBold,Arial Rounded MT Bold" font-size="126.0" fill="#0D6D99" transform="matrix(1.00, 0.00, -0.00, -1.00, 953.4, 438.7)">e</text><text xml:space="preserve" font-family="ArialRoundedMTBold,Arial Rounded MT Bold" font-size="126.0" fill="#0D6D99" transform="matrix(1.00, 0.00, -0.00, -1.00, 1035.5, 438.7)">r</text><text xml:space="preserve" font-family="ArialRoundedMTBold,Arial Rounded MT Bold" font-size="126.0" fill="#0D6D99" transform="matrix(1.00, 0.00, -0.00, -1.00, 1093.0, 438.7)">o</text><text xml:space="preserve" font-family="ArialRoundedMTBold,Arial Rounded MT Bold" font-size="126.0" fill="#0D6D99" transform="matrix(1.00, 0.00, -0.00, -1.00, 1176.2, 438.7)">s</text><g><clipPath id="clip0x7f875a07f060"><path d="M 1493.0 137.0 L 1648.0 137.0 L 1648.0 36.0 L 1493.0 36.0 Z M 1492.8 136.8 "></path></clipPath><g clip-path="url(#clip0x7f875a07f060)"><g><clipPath id="clip0x7f875a07f730"><path d="M 1492.8 36.0 L 1647.9 36.0 L 1647.9 136.8 L 1492.8 136.8 Z M 1492.8 36.0 "></path></clipPath><g clip-path="url(#clip0x7f875a07f730)"><image xlink:href="../../3B3F4AB4-FD2B-40DB-A32E-96238FDE2279/assets/E7D0403A97A29682D38DB5ABD2A1FFCE.png" width="260.00" height="194.00" transform="matrix(0.66, 0.00, -0.00, -0.66, 1477.3, 136.8)"></image></g></g></g></g><g><clipPath id="clip0x7f875a080f80"><path d="M 1477.0 25.6 L 1517.6 25.6 L 1517.6 66.0 L 1477.0 66.0 Z M 1477.0 25.6 "></path></clipPath><g clip-path="url(#clip0x7f875a080f80)"><path d="M 1497.3 64.8 L 1503.1 52.4 L 1516.2 50.4 L 1506.8 40.7 L 1509.0 27.0 L 1497.3 33.5 L 1485.6 27.0 L 1487.9 40.7 L 1478.4 50.4 L 1491.5 52.4 Z M 1497.3 64.8 " fill="#E36C09"></path><path d="M 19.9 0.0 L 25.7 12.4 L 38.8 14.4 L 29.3 24.1 L 31.6 37.8 L 19.9 31.3 L 8.2 37.8 L 10.4 24.1 L 1.0 14.4 L 14.0 12.4 Z M 19.9 0.0 " fill="none" stroke="#000000" stroke-width="1.00" stroke-linejoin="bevel" transform="matrix(1.00, 0.00, 0.00, -1.00, 1477.4, 64.8)"></path></g></g></g></svg>