<?xml version="1.0" encoding="UTF-8" standalone="no"?><svg xmlns="http://www.w3.org/2000/svg" xmlns:xlink="http://www.w3.org/1999/xlink" clip-rule="evenodd" stroke-miterlimit="10" viewBox="0 0 974 974"><desc>SVG generated by Keynote</desc><defs></defs><g transform="matrix(1.00, 0.00, -0.00, -1.00, 0.0, 974.0)"><path d="M 822.5 823.0 C 1008.0 637.4 1008.0 336.7 822.5 151.1 C 637.1 -34.4 336.4 -34.4 150.9 151.1 C -34.6 336.7 -34.6 637.4 150.9 823.0 C 336.4 1008.5 637.1 1008.5 822.5 823.0 Z M 822.5 823.0 " fill="#E6DC2B"></path><path d="M 810.7 139.1 C 996.2 324.7 996.2 625.4 810.7 811.0 C 625.3 996.5 324.6 996.5 139.1 811.0 C -46.4 625.4 -46.4 324.7 139.1 139.1 C 324.6 -46.4 625.3 -46.4 810.7 139.1 Z M 810.7 139.1 " fill="none" stroke="#485866" stroke-width="21.00" stroke-linejoin="bevel" transform="matrix(1.00, 0.00, 0.00, -1.00, 11.8, 962.1)"></path></g></svg>