<?xml version="1.0" encoding="UTF-8" standalone="no"?><svg xmlns="http://www.w3.org/2000/svg" xmlns:xlink="http://www.w3.org/1999/xlink" clip-rule="evenodd" stroke-miterlimit="10" viewBox="0 0 739 243"><desc>SVG generated by Keynote</desc><defs></defs><g transform="matrix(1.00, 0.00, -0.00, -1.00, 0.0, 243.0)"><text xml:space="preserve" font-family="ArialRoundedMTBold,Arial Rounded MT Bold" font-size="126.0" fill="#0D6D99" transform="matrix(1.00, 0.00, -0.00, -1.00, -6.9, 149.7)">r</text><text xml:space="preserve" font-family="ArialRoundedMTBold,Arial Rounded MT Bold" font-size="126.0" fill="#0D6D99" transform="matrix(1.00, 0.00, -0.00, -1.00, 52.3, 149.7)">e</text><text xml:space="preserve" font-family="ArialRoundedMTBold,Arial Rounded MT Bold" font-size="126.0" fill="#0D6D99" transform="matrix(1.00, 0.00, -0.00, -1.00, 134.3, 149.7)">d</text><text xml:space="preserve" font-family="ArialRoundedMTBold,Arial Rounded MT Bold" font-size="126.0" fill="#0D6D99" transform="matrix(1.00, 0.00, -0.00, -1.00, 220.2, 149.7)">o</text><text xml:space="preserve" font-family="ArialRoundedMTBold,Arial Rounded MT Bold" font-size="126.0" fill="#0D6D99" transform="matrix(1.00, 0.00, -0.00, -1.00, 303.5, 149.7)">n</text><text xml:space="preserve" font-family="ArialRoundedMTBold,Arial Rounded MT Bold" font-size="126.0" fill="#0D6D99" transform="matrix(1.00, 0.00, -0.00, -1.00, 386.7, 149.7)">d</text><text xml:space="preserve" font-family="ArialRoundedMTBold,Arial Rounded MT Bold" font-size="126.0" fill="#0D6D99" transform="matrix(1.00, 0.00, -0.00, -1.00, 472.6, 149.7)">e</text><text xml:space="preserve" font-family="ArialRoundedMTBold,Arial Rounded MT Bold" font-size="126.0" fill="#0D6D99" transform="matrix(1.00, 0.00, -0.00, -1.00, 554.6, 149.7)">a</text><text xml:space="preserve" font-family="ArialRoundedMTBold,Arial Rounded MT Bold" font-size="126.0" fill="#0D6D99" transform="matrix(1.00, 0.00, -0.00, -1.00, 636.6, 149.7)">r</text><text xml:space="preserve" font-family="ArialRoundedMTBold,Arial Rounded MT Bold" font-size="126.0" fill="#0D6D99" transform="matrix(1.00, 0.00, -0.00, -1.00, 699.0, 149.7)"> </text><text xml:space="preserve" font-family="ArialRoundedMTBold,Arial Rounded MT Bold" font-size="126.0" fill="#0D6D99" transform="matrix(1.00, 0.00, -0.00, -1.00, 737.6, 149.7)"> </text><text xml:space="preserve" font-family="ArialRoundedMTBold,Arial Rounded MT Bold" font-size="126.0" fill="#0D6D99" transform="matrix(1.00, 0.00, -0.00, -1.00, 54.4, 3.7)">n</text><text xml:space="preserve" font-family="ArialRoundedMTBold,Arial Rounded MT Bold" font-size="126.0" fill="#0D6D99" transform="matrix(1.00, 0.00, -0.00, -1.00, 137.6, 3.7)">ú</text><text xml:space="preserve" font-family="ArialRoundedMTBold,Arial Rounded MT Bold" font-size="126.0" fill="#0D6D99" transform="matrix(1.00, 0.00, -0.00, -1.00, 220.8, 3.7)">m</text><text xml:space="preserve" font-family="ArialRoundedMTBold,Arial Rounded MT Bold" font-size="126.0" fill="#0D6D99" transform="matrix(1.00, 0.00, -0.00, -1.00, 339.4, 3.7)">e</text><text xml:space="preserve" font-family="ArialRoundedMTBold,Arial Rounded MT Bold" font-size="126.0" fill="#0D6D99" transform="matrix(1.00, 0.00, -0.00, -1.00, 421.5, 3.7)">r</text><text xml:space="preserve" font-family="ArialRoundedMTBold,Arial Rounded MT Bold" font-size="126.0" fill="#0D6D99" transform="matrix(1.00, 0.00, -0.00, -1.00, 479.0, 3.7)">o</text><text xml:space="preserve" font-family="ArialRoundedMTBold,Arial Rounded MT Bold" font-size="126.0" fill="#0D6D99" transform="matrix(1.00, 0.00, -0.00, -1.00, 562.2, 3.7)">s</text></g></svg>