<?xml version="1.0" encoding="UTF-8" standalone="no"?><svg xmlns="http://www.w3.org/2000/svg" xmlns:xlink="http://www.w3.org/1999/xlink" clip-rule="evenodd" stroke-miterlimit="10" viewBox="0 0 620 668"><desc>SVG generated by Keynote</desc><defs></defs><g transform="matrix(1.00, 0.00, -0.00, -1.00, 0.0, 668.0)"><text xml:space="preserve" font-family="ComicSansMS,Comic Sans MS" font-size="172.0" fill="#FFFFFF" transform="matrix(1.00, 0.00, -0.00, -1.00, 108.0, 531.3)">l</text><text xml:space="preserve" font-family="ComicSansMS,Comic Sans MS" font-size="172.0" fill="#FFFFFF" transform="matrix(1.00, 0.00, -0.00, -1.00, 155.1, 531.3)">u</text><text xml:space="preserve" font-family="ComicSansMS,Comic Sans MS" font-size="172.0" fill="#FFFFFF" transform="matrix(1.00, 0.00, -0.00, -1.00, 244.6, 531.3)">g</text><text xml:space="preserve" font-family="ComicSansMS,Comic Sans MS" font-size="172.0" fill="#FFFFFF" transform="matrix(1.00, 0.00, -0.00, -1.00, 335.8, 531.3)">a</text><text xml:space="preserve" font-family="ComicSansMS,Comic Sans MS" font-size="172.0" fill="#FFFFFF" transform="matrix(1.00, 0.00, -0.00, -1.00, 423.8, 531.3)">r</text><text xml:space="preserve" font-family="ComicSansMS,Comic Sans MS" font-size="172.0" fill="#FFFFFF" transform="matrix(1.00, 0.00, -0.00, -1.00, 506.5, 531.3)"> </text><text xml:space="preserve" font-family="ComicSansMS,Comic Sans MS" font-size="172.0" fill="#FFFFFF" transform="matrix(1.00, 0.00, -0.00, -1.00, 557.9, 531.3)"> </text><text xml:space="preserve" font-family="ComicSansMS,Comic Sans MS" font-size="172.0" fill="#FFFFFF" transform="matrix(1.00, 0.00, -0.00, -1.00, 209.7, 291.3)">d</text><text xml:space="preserve" font-family="ComicSansMS,Comic Sans MS" font-size="172.0" fill="#FFFFFF" transform="matrix(1.00, 0.00, -0.00, -1.00, 310.8, 291.3)">e</text><text xml:space="preserve" font-family="ComicSansMS,Comic Sans MS" font-size="172.0" fill="#FFFFFF" transform="matrix(1.00, 0.00, -0.00, -1.00, 404.9, 291.3)"> </text><text xml:space="preserve" font-family="ComicSansMS,Comic Sans MS" font-size="172.0" fill="#FFFFFF" transform="matrix(1.00, 0.00, -0.00, -1.00, 456.2, 291.3)"> </text><text xml:space="preserve" font-family="ComicSansMS,Comic Sans MS" font-size="172.0" fill="#FFFFFF" transform="matrix(1.00, 0.00, -0.00, -1.00, -8.4, 51.3)">p</text><text xml:space="preserve" font-family="ComicSansMS,Comic Sans MS" font-size="172.0" fill="#FFFFFF" transform="matrix(1.00, 0.00, -0.00, -1.00, 83.5, 51.3)">o</text><text xml:space="preserve" font-family="ComicSansMS,Comic Sans MS" font-size="172.0" fill="#FFFFFF" transform="matrix(1.00, 0.00, -0.00, -1.00, 173.9, 51.3)">s</text><text xml:space="preserve" font-family="ComicSansMS,Comic Sans MS" font-size="172.0" fill="#FFFFFF" transform="matrix(1.00, 0.00, -0.00, -1.00, 257.6, 51.3)">i</text><text xml:space="preserve" font-family="ComicSansMS,Comic Sans MS" font-size="172.0" fill="#FFFFFF" transform="matrix(1.00, 0.00, -0.00, -1.00, 305.9, 51.3)">c</text><text xml:space="preserve" font-family="ComicSansMS,Comic Sans MS" font-size="172.0" fill="#FFFFFF" transform="matrix(1.00, 0.00, -0.00, -1.00, 394.2, 51.3)">i</text><text xml:space="preserve" font-family="ComicSansMS,Comic Sans MS" font-size="172.0" fill="#FFFFFF" transform="matrix(1.00, 0.00, -0.00, -1.00, 442.5, 51.3)">รณ</text><text xml:space="preserve" font-family="ComicSansMS,Comic Sans MS" font-size="172.0" fill="#FFFFFF" transform="matrix(1.00, 0.00, -0.00, -1.00, 532.9, 51.3)">n</text></g></svg>