<?xml version="1.0" encoding="UTF-8" standalone="no"?><svg xmlns="http://www.w3.org/2000/svg" xmlns:xlink="http://www.w3.org/1999/xlink" clip-rule="evenodd" stroke-miterlimit="10" viewBox="0 0 1920 1080"><desc>SVG generated by Keynote</desc><defs></defs><g transform="matrix(1.00, 0.00, -0.00, -1.00, 0.0, 1080.0)"><path d="M 285.0 1037.0 L 1633.0 1037.0 L 1633.0 43.0 L 285.0 43.0 Z M 285.0 1036.8 " fill="#000000"></path><path d="M 0.0 -0.2 L 1348.0 -0.2 L 1348.0 993.8 L 0.0 993.8 Z M 0.0 0.0 " fill="none" stroke="#2D2433" stroke-width="14.00" stroke-linejoin="bevel" transform="matrix(1.00, 0.00, 0.00, -1.00, 285.0, 1036.8)"></path><text xml:space="preserve" font-family="ComicSansMS,Comic Sans MS" font-size="172.0" fill="#FFFFFF" transform="matrix(1.00, 0.00, -0.00, -1.00, 759.0, 658.3)">l</text><text xml:space="preserve" font-family="ComicSansMS,Comic Sans MS" font-size="172.0" fill="#FFFFFF" transform="matrix(1.00, 0.00, -0.00, -1.00, 806.1, 658.3)">u</text><text xml:space="preserve" font-family="ComicSansMS,Comic Sans MS" font-size="172.0" fill="#FFFFFF" transform="matrix(1.00, 0.00, -0.00, -1.00, 895.6, 658.3)">g</text><text xml:space="preserve" font-family="ComicSansMS,Comic Sans MS" font-size="172.0" fill="#FFFFFF" transform="matrix(1.00, 0.00, -0.00, -1.00, 986.8, 658.3)">a</text><text xml:space="preserve" font-family="ComicSansMS,Comic Sans MS" font-size="172.0" fill="#FFFFFF" transform="matrix(1.00, 0.00, -0.00, -1.00, 1074.8, 658.3)">r</text><text xml:space="preserve" font-family="ComicSansMS,Comic Sans MS" font-size="172.0" fill="#FFFFFF" transform="matrix(1.00, 0.00, -0.00, -1.00, 1157.5, 658.3)"> </text><text xml:space="preserve" font-family="ComicSansMS,Comic Sans MS" font-size="172.0" fill="#FFFFFF" transform="matrix(1.00, 0.00, -0.00, -1.00, 1208.9, 658.3)"> </text><text xml:space="preserve" font-family="ComicSansMS,Comic Sans MS" font-size="172.0" fill="#FFFFFF" transform="matrix(1.00, 0.00, -0.00, -1.00, 860.7, 418.3)">d</text><text xml:space="preserve" font-family="ComicSansMS,Comic Sans MS" font-size="172.0" fill="#FFFFFF" transform="matrix(1.00, 0.00, -0.00, -1.00, 961.8, 418.3)">e</text><text xml:space="preserve" font-family="ComicSansMS,Comic Sans MS" font-size="172.0" fill="#FFFFFF" transform="matrix(1.00, 0.00, -0.00, -1.00, 1055.9, 418.3)"> </text><text xml:space="preserve" font-family="ComicSansMS,Comic Sans MS" font-size="172.0" fill="#FFFFFF" transform="matrix(1.00, 0.00, -0.00, -1.00, 1107.2, 418.3)"> </text><text xml:space="preserve" font-family="ComicSansMS,Comic Sans MS" font-size="172.0" fill="#FFFFFF" transform="matrix(1.00, 0.00, -0.00, -1.00, 642.6, 178.3)">p</text><text xml:space="preserve" font-family="ComicSansMS,Comic Sans MS" font-size="172.0" fill="#FFFFFF" transform="matrix(1.00, 0.00, -0.00, -1.00, 734.5, 178.3)">o</text><text xml:space="preserve" font-family="ComicSansMS,Comic Sans MS" font-size="172.0" fill="#FFFFFF" transform="matrix(1.00, 0.00, -0.00, -1.00, 824.9, 178.3)">s</text><text xml:space="preserve" font-family="ComicSansMS,Comic Sans MS" font-size="172.0" fill="#FFFFFF" transform="matrix(1.00, 0.00, -0.00, -1.00, 908.6, 178.3)">i</text><text xml:space="preserve" font-family="ComicSansMS,Comic Sans MS" font-size="172.0" fill="#FFFFFF" transform="matrix(1.00, 0.00, -0.00, -1.00, 956.9, 178.3)">c</text><text xml:space="preserve" font-family="ComicSansMS,Comic Sans MS" font-size="172.0" fill="#FFFFFF" transform="matrix(1.00, 0.00, -0.00, -1.00, 1045.2, 178.3)">i</text><text xml:space="preserve" font-family="ComicSansMS,Comic Sans MS" font-size="172.0" fill="#FFFFFF" transform="matrix(1.00, 0.00, -0.00, -1.00, 1093.5, 178.3)">รณ</text><text xml:space="preserve" font-family="ComicSansMS,Comic Sans MS" font-size="172.0" fill="#FFFFFF" transform="matrix(1.00, 0.00, -0.00, -1.00, 1183.9, 178.3)">n</text><g><clipPath id="clip0x7f875ad28bf0"><path d="M 1441.0 209.0 L 1596.0 209.0 L 1596.0 108.0 L 1441.0 108.0 Z M 1440.5 208.8 "></path></clipPath><g clip-path="url(#clip0x7f875ad28bf0)"><g><clipPath id="clip0x7f875ad292f0"><path d="M 1440.5 108.0 L 1595.6 108.0 L 1595.6 208.8 L 1440.5 208.8 Z M 1440.5 108.0 "></path></clipPath><g clip-path="url(#clip0x7f875ad292f0)"><image xlink:href="../../BF6DC8B6-E505-4222-AA15-A9E26ADAED33/assets/80853EFD8D24BCE501047C376B8C7833.png" width="260.00" height="194.00" transform="matrix(0.66, 0.00, -0.00, -0.66, 1425.0, 208.8)"></image></g></g></g></g><g><clipPath id="clip0x7f875badc2c0"><path d="M 1405.0 81.2 L 1445.6 81.2 L 1445.6 121.6 L 1405.0 121.6 Z M 1405.0 81.2 "></path></clipPath><g clip-path="url(#clip0x7f875badc2c0)"><path d="M 1425.3 120.4 L 1431.1 108.0 L 1444.2 106.0 L 1434.8 96.3 L 1437.0 82.6 L 1425.3 89.1 L 1413.6 82.6 L 1415.9 96.3 L 1406.4 106.0 L 1419.5 108.0 Z M 1425.3 120.4 " fill="#C3D69B"></path><path d="M 19.9 0.0 L 25.7 12.4 L 38.8 14.4 L 29.3 24.1 L 31.6 37.8 L 19.9 31.3 L 8.2 37.8 L 10.4 24.1 L 1.0 14.4 L 14.0 12.4 Z M 19.9 0.0 " fill="none" stroke="#000000" stroke-width="1.00" stroke-linejoin="bevel" transform="matrix(1.00, 0.00, 0.00, -1.00, 1405.4, 120.4)"></path></g></g></g></svg>