<?xml version="1.0" encoding="UTF-8" standalone="no"?><svg xmlns="http://www.w3.org/2000/svg" xmlns:xlink="http://www.w3.org/1999/xlink" clip-rule="evenodd" stroke-miterlimit="10" viewBox="0 0 1920 1080"><desc>SVG generated by Keynote</desc><defs></defs><g transform="matrix(1.00, 0.00, -0.00, -1.00, 0.0, 1080.0)"><path d="M 0.0 1080.0 L 1920.0 1080.0 L 1920.0 0.0 L 0.0 0.0 Z M 0.0 1080.0 " fill="#FFFFFF"></path><path d="M 297.5 899.5 L 1629.5 899.5 L 1629.5 809.5 L 297.5 809.5 Z M 297.6 900.0 " fill="#FFFFFF"></path><path d="M -0.1 0.5 L 1331.9 0.5 L 1331.9 90.5 L -0.1 90.5 Z M 0.0 0.0 " fill="none" stroke="#000000" stroke-width="3.00" stroke-linejoin="bevel" transform="matrix(1.00, 0.00, 0.00, -1.00, 297.6, 900.0)"></path><g><clipPath id="clip0x7f876036cff0"><path d="M 290.3 802.4 L 1636.9 802.4 L 1636.9 907.3 L 290.3 907.3 Z M 290.3 802.4 "></path></clipPath><g clip-path="url(#clip0x7f876036cff0)"><text xml:space="preserve" font-family="ComicSansMS,Comic Sans MS" font-size="50.0" fill="#000000" transform="matrix(1.00, 0.00, -0.00, -1.00, 463.7, 834.4)">v</text><text xml:space="preserve" font-family="ComicSansMS,Comic Sans MS" font-size="50.0" fill="#000000" transform="matrix(1.00, 0.00, -0.00, -1.00, 488.0, 834.4)">e</text><text xml:space="preserve" font-family="ComicSansMS,Comic Sans MS" font-size="50.0" fill="#000000" transform="matrix(1.00, 0.00, -0.00, -1.00, 515.4, 834.4)">i</text><text xml:space="preserve" font-family="ComicSansMS,Comic Sans MS" font-size="50.0" fill="#000000" transform="matrix(1.00, 0.00, -0.00, -1.00, 529.5, 834.4)">n</text><text xml:space="preserve" font-family="ComicSansMS,Comic Sans MS" font-size="50.0" fill="#000000" transform="matrix(1.00, 0.00, -0.00, -1.00, 555.6, 834.4)">t</text><text xml:space="preserve" font-family="ComicSansMS,Comic Sans MS" font-size="50.0" fill="#000000" transform="matrix(1.00, 0.00, -0.00, -1.00, 579.2, 834.4)">i</text><text xml:space="preserve" font-family="ComicSansMS,Comic Sans MS" font-size="50.0" fill="#000000" transform="matrix(1.00, 0.00, -0.00, -1.00, 593.2, 834.4)">o</text><text xml:space="preserve" font-family="ComicSansMS,Comic Sans MS" font-size="50.0" fill="#000000" transform="matrix(1.00, 0.00, -0.00, -1.00, 619.6, 834.4)">c</text><text xml:space="preserve" font-family="ComicSansMS,Comic Sans MS" font-size="50.0" fill="#000000" transform="matrix(1.00, 0.00, -0.00, -1.00, 645.2, 834.4)">h</text><text xml:space="preserve" font-family="ComicSansMS,Comic Sans MS" font-size="50.0" fill="#000000" transform="matrix(1.00, 0.00, -0.00, -1.00, 674.0, 834.4)">o</text><text xml:space="preserve" font-family="ComicSansMS,Comic Sans MS" font-size="50.0" fill="#000000" transform="matrix(1.00, 0.00, -0.00, -1.00, 700.4, 834.4)"> </text><text xml:space="preserve" font-family="ComicSansMS-Bold,Comic Sans MS" font-weight="bold" font-size="50.0" fill="#000000" transform="matrix(1.00, 0.00, -0.00, -1.00, 715.2, 834.4)">m</text><text xml:space="preserve" font-family="ComicSansMS-Bold,Comic Sans MS" font-weight="bold" font-size="50.0" fill="#000000" transform="matrix(1.00, 0.00, -0.00, -1.00, 754.1, 834.4)">i</text><text xml:space="preserve" font-family="ComicSansMS-Bold,Comic Sans MS" font-weight="bold" font-size="50.0" fill="#000000" transform="matrix(1.00, 0.00, -0.00, -1.00, 768.1, 834.4)">l</text><text xml:space="preserve" font-family="ComicSansMS,Comic Sans MS" font-size="50.0" fill="#000000" transform="matrix(1.00, 0.00, -0.00, -1.00, 781.8, 834.4)"> </text><text xml:space="preserve" font-family="ComicSansMS,Comic Sans MS" font-size="50.0" fill="#000000" transform="matrix(1.00, 0.00, -0.00, -1.00, 796.7, 834.4)">c</text><text xml:space="preserve" font-family="ComicSansMS,Comic Sans MS" font-size="50.0" fill="#000000" transform="matrix(1.00, 0.00, -0.00, -1.00, 822.4, 834.4)">u</text><text xml:space="preserve" font-family="ComicSansMS,Comic Sans MS" font-size="50.0" fill="#000000" transform="matrix(1.00, 0.00, -0.00, -1.00, 848.4, 834.4)">a</text><text xml:space="preserve" font-family="ComicSansMS,Comic Sans MS" font-size="50.0" fill="#000000" transform="matrix(1.00, 0.00, -0.00, -1.00, 874.0, 834.4)">t</text><text xml:space="preserve" font-family="ComicSansMS,Comic Sans MS" font-size="50.0" fill="#000000" transform="matrix(1.00, 0.00, -0.00, -1.00, 897.5, 834.4)">r</text><text xml:space="preserve" font-family="ComicSansMS,Comic Sans MS" font-size="50.0" fill="#000000" transform="matrix(1.00, 0.00, -0.00, -1.00, 921.6, 834.4)">o</text><text xml:space="preserve" font-family="ComicSansMS,Comic Sans MS" font-size="50.0" fill="#000000" transform="matrix(1.00, 0.00, -0.00, -1.00, 947.9, 834.4)">c</text><text xml:space="preserve" font-family="ComicSansMS,Comic Sans MS" font-size="50.0" fill="#000000" transform="matrix(1.00, 0.00, -0.00, -1.00, 973.5, 834.4)">i</text><text xml:space="preserve" font-family="ComicSansMS,Comic Sans MS" font-size="50.0" fill="#000000" transform="matrix(1.00, 0.00, -0.00, -1.00, 987.6, 834.4)">e</text><text xml:space="preserve" font-family="ComicSansMS,Comic Sans MS" font-size="50.0" fill="#000000" transform="matrix(1.00, 0.00, -0.00, -1.00, 1015.0, 834.4)">n</text><text xml:space="preserve" font-family="ComicSansMS,Comic Sans MS" font-size="50.0" fill="#000000" transform="matrix(1.00, 0.00, -0.00, -1.00, 1041.2, 834.4)">t</text><text xml:space="preserve" font-family="ComicSansMS,Comic Sans MS" font-size="50.0" fill="#000000" transform="matrix(1.00, 0.00, -0.00, -1.00, 1064.7, 834.4)">o</text><text xml:space="preserve" font-family="ComicSansMS,Comic Sans MS" font-size="50.0" fill="#000000" transform="matrix(1.00, 0.00, -0.00, -1.00, 1091.0, 834.4)">s</text><text xml:space="preserve" font-family="ComicSansMS,Comic Sans MS" font-size="50.0" fill="#000000" transform="matrix(1.00, 0.00, -0.00, -1.00, 1115.3, 834.4)"> </text><text xml:space="preserve" font-family="ComicSansMS,Comic Sans MS" font-size="50.0" fill="#000000" transform="matrix(1.00, 0.00, -0.00, -1.00, 1130.3, 834.4)">s</text><text xml:space="preserve" font-family="ComicSansMS,Comic Sans MS" font-size="50.0" fill="#000000" transform="matrix(1.00, 0.00, -0.00, -1.00, 1154.6, 834.4)">e</text><text xml:space="preserve" font-family="ComicSansMS,Comic Sans MS" font-size="50.0" fill="#000000" transform="matrix(1.00, 0.00, -0.00, -1.00, 1182.0, 834.4)">t</text><text xml:space="preserve" font-family="ComicSansMS,Comic Sans MS" font-size="50.0" fill="#000000" transform="matrix(1.00, 0.00, -0.00, -1.00, 1205.6, 834.4)">e</text><text xml:space="preserve" font-family="ComicSansMS,Comic Sans MS" font-size="50.0" fill="#000000" transform="matrix(1.00, 0.00, -0.00, -1.00, 1233.0, 834.4)">n</text><text xml:space="preserve" font-family="ComicSansMS,Comic Sans MS" font-size="50.0" fill="#000000" transform="matrix(1.00, 0.00, -0.00, -1.00, 1259.1, 834.4)">t</text><text xml:space="preserve" font-family="ComicSansMS,Comic Sans MS" font-size="50.0" fill="#000000" transform="matrix(1.00, 0.00, -0.00, -1.00, 1282.7, 834.4)">a</text><text xml:space="preserve" font-family="ComicSansMS,Comic Sans MS" font-size="50.0" fill="#000000" transform="matrix(1.00, 0.00, -0.00, -1.00, 1308.3, 834.4)"> </text><text xml:space="preserve" font-family="ComicSansMS,Comic Sans MS" font-size="50.0" fill="#000000" transform="matrix(1.00, 0.00, -0.00, -1.00, 1323.2, 834.4)">y</text><text xml:space="preserve" font-family="ComicSansMS,Comic Sans MS" font-size="50.0" fill="#000000" transform="matrix(1.00, 0.00, -0.00, -1.00, 1349.2, 834.4)"> </text><text xml:space="preserve" font-family="ComicSansMS,Comic Sans MS" font-size="50.0" fill="#000000" transform="matrix(1.00, 0.00, -0.00, -1.00, 1364.1, 834.4)">t</text><text xml:space="preserve" font-family="ComicSansMS,Comic Sans MS" font-size="50.0" fill="#000000" transform="matrix(1.00, 0.00, -0.00, -1.00, 1387.7, 834.4)">r</text><text xml:space="preserve" font-family="ComicSansMS,Comic Sans MS" font-size="50.0" fill="#000000" transform="matrix(1.00, 0.00, -0.00, -1.00, 1411.8, 834.4)">e</text><text xml:space="preserve" font-family="ComicSansMS,Comic Sans MS" font-size="50.0" fill="#000000" transform="matrix(1.00, 0.00, -0.00, -1.00, 1439.2, 834.4)">s</text><path d="M 416.1 70.7 L 482.7 70.7 " fill="none" stroke="#000000" stroke-width="4.27" transform="matrix(1.00, 0.00, 0.00, -1.00, 299.1, 898.5)"></path></g></g><path d="M -0.1 0.5 L 1338.9 0.5 L 1338.9 280.5 L -0.1 280.5 Z M 0.0 0.0 " fill="none" stroke="#000000" stroke-width="9.00" stroke-linejoin="bevel" transform="matrix(1.00, 0.00, 0.00, -1.00, 297.6, 468.0)"></path><text xml:space="preserve" font-family="ComicSansMS,Comic Sans MS" font-size="170.0" fill="#0033CC" transform="matrix(1.00, 0.00, -0.00, -1.00, 601.8, 243.1)">2</text><text xml:space="preserve" font-family="ComicSansMS,Comic Sans MS" font-size="170.0" fill="#0033CC" transform="matrix(1.00, 0.00, -0.00, -1.00, 731.6, 243.1)">8</text><text xml:space="preserve" font-family="ComicSansMS,Comic Sans MS" font-size="170.0" fill="#0033CC" transform="matrix(1.00, 0.00, -0.00, -1.00, 889.8, 243.1)">,</text><text xml:space="preserve" font-family="ComicSansMS,Comic Sans MS" font-size="170.0" fill="#0033CC" transform="matrix(1.00, 0.00, -0.00, -1.00, 991.2, 243.1)">4</text><text xml:space="preserve" font-family="ComicSansMS,Comic Sans MS" font-size="170.0" fill="#0033CC" transform="matrix(1.00, 0.00, -0.00, -1.00, 1121.0, 243.1)">7</text><text xml:space="preserve" font-family="ComicSansMS,Comic Sans MS" font-size="170.0" fill="#0033CC" transform="matrix(1.00, 0.00, -0.00, -1.00, 1250.8, 243.1)">3</text><path d="M 647.3 537.0 L 653.1 524.6 L 666.2 522.6 L 656.8 512.9 L 659.0 499.2 L 647.3 505.7 L 635.6 499.2 L 637.9 512.9 L 628.4 522.6 L 641.5 524.6 Z M 647.3 537.0 " fill="#000000"></path><path d="M 19.9 0.0 L 25.7 12.4 L 38.8 14.4 L 29.3 24.1 L 31.6 37.8 L 19.9 31.3 L 8.2 37.8 L 10.4 24.1 L 1.0 14.4 L 14.0 12.4 Z M 19.9 0.0 " fill="none" stroke="#000000" stroke-width="1.00" stroke-linejoin="bevel" transform="matrix(1.00, 0.00, 0.00, -1.00, 627.4, 537.0)"></path><path d="M 777.9 537.0 L 783.7 524.6 L 796.8 522.6 L 787.4 512.9 L 789.6 499.2 L 777.9 505.7 L 766.2 499.2 L 768.5 512.9 L 759.0 522.6 L 772.1 524.6 Z M 777.9 537.0 " fill="#000000"></path><path d="M 19.9 0.0 L 25.7 12.4 L 38.8 14.4 L 29.3 24.1 L 31.6 37.8 L 19.9 31.3 L 8.2 37.8 L 10.4 24.1 L 1.0 14.4 L 14.0 12.4 Z M 19.9 0.0 " fill="none" stroke="#000000" stroke-width="1.00" stroke-linejoin="bevel" transform="matrix(1.00, 0.00, 0.00, -1.00, 758.0, 537.0)"></path><path d="M 908.5 537.0 L 914.3 524.6 L 927.4 522.6 L 918.0 512.9 L 920.2 499.2 L 908.5 505.7 L 896.8 499.2 L 899.1 512.9 L 889.6 522.6 L 902.7 524.6 Z M 908.5 537.0 " fill="#000000"></path><path d="M 19.9 0.0 L 25.7 12.4 L 38.8 14.4 L 29.3 24.1 L 31.6 37.8 L 19.9 31.3 L 8.2 37.8 L 10.4 24.1 L 1.0 14.4 L 14.0 12.4 Z M 19.9 0.0 " fill="none" stroke="#000000" stroke-width="1.00" stroke-linejoin="bevel" transform="matrix(1.00, 0.00, 0.00, -1.00, 888.6, 537.0)"></path><path d="M 1039.1 537.0 L 1044.9 524.6 L 1058.0 522.6 L 1048.6 512.9 L 1050.8 499.2 L 1039.1 505.7 L 1027.4 499.2 L 1029.7 512.9 L 1020.2 522.6 L 1033.3 524.6 Z M 1039.1 537.0 " fill="#000000"></path><path d="M 19.9 0.0 L 25.7 12.4 L 38.8 14.4 L 29.3 24.1 L 31.6 37.8 L 19.9 31.3 L 8.2 37.8 L 10.4 24.1 L 1.0 14.4 L 14.0 12.4 Z M 19.9 0.0 " fill="none" stroke="#000000" stroke-width="1.00" stroke-linejoin="bevel" transform="matrix(1.00, 0.00, 0.00, -1.00, 1019.2, 537.0)"></path><path d="M 1169.7 537.0 L 1175.5 524.6 L 1188.6 522.6 L 1179.2 512.9 L 1181.4 499.2 L 1169.7 505.7 L 1158.0 499.2 L 1160.3 512.9 L 1150.8 522.6 L 1163.9 524.6 Z M 1169.7 537.0 " fill="#000000"></path><path d="M 19.9 0.0 L 25.7 12.4 L 38.8 14.4 L 29.3 24.1 L 31.6 37.8 L 19.9 31.3 L 8.2 37.8 L 10.4 24.1 L 1.0 14.4 L 14.0 12.4 Z M 19.9 0.0 " fill="none" stroke="#000000" stroke-width="1.00" stroke-linejoin="bevel" transform="matrix(1.00, 0.00, 0.00, -1.00, 1149.8, 537.0)"></path><path d="M 1300.3 537.0 L 1306.1 524.6 L 1319.2 522.6 L 1309.8 512.9 L 1312.0 499.2 L 1300.3 505.7 L 1288.6 499.2 L 1290.9 512.9 L 1281.4 522.6 L 1294.5 524.6 Z M 1300.3 537.0 " fill="#000000"></path><path d="M 19.9 0.0 L 25.7 12.4 L 38.8 14.4 L 29.3 24.1 L 31.6 37.8 L 19.9 31.3 L 8.2 37.8 L 10.4 24.1 L 1.0 14.4 L 14.0 12.4 Z M 19.9 0.0 " fill="none" stroke="#000000" stroke-width="1.00" stroke-linejoin="bevel" transform="matrix(1.00, 0.00, 0.00, -1.00, 1280.4, 537.0)"></path><path d="M 442.0 1030.0 L 1473.0 1030.0 L 1473.0 922.0 L 442.0 922.0 Z M 441.6 1029.6 " fill="#FFFFFF"></path><g><clipPath id="clip0x7f875f1d4140"><path d="M 427.9 908.7 L 1486.7 908.7 L 1486.7 1043.3 L 427.9 1043.3 Z M 427.9 908.7 "></path></clipPath><g clip-path="url(#clip0x7f875f1d4140)"><text xml:space="preserve" font-family="ComicSansMS,Comic Sans MS" font-size="64.0" fill="#000000" transform="matrix(1.00, 0.00, -0.00, -1.00, 540.6, 949.6)">E</text><text xml:space="preserve" font-family="ComicSansMS,Comic Sans MS" font-size="64.0" fill="#000000" transform="matrix(1.00, 0.00, -0.00, -1.00, 580.6, 949.6)">s</text><text xml:space="preserve" font-family="ComicSansMS,Comic Sans MS" font-size="64.0" fill="#000000" transform="matrix(1.00, 0.00, -0.00, -1.00, 611.7, 949.6)">c</text><text xml:space="preserve" font-family="ComicSansMS,Comic Sans MS" font-size="64.0" fill="#000000" transform="matrix(1.00, 0.00, -0.00, -1.00, 644.6, 949.6)">r</text><text xml:space="preserve" font-family="ComicSansMS,Comic Sans MS" font-size="64.0" fill="#000000" transform="matrix(1.00, 0.00, -0.00, -1.00, 675.3, 949.6)">i</text><text xml:space="preserve" font-family="ComicSansMS,Comic Sans MS" font-size="64.0" fill="#000000" transform="matrix(1.00, 0.00, -0.00, -1.00, 693.3, 949.6)">b</text><text xml:space="preserve" font-family="ComicSansMS,Comic Sans MS" font-size="64.0" fill="#000000" transform="matrix(1.00, 0.00, -0.00, -1.00, 731.3, 949.6)">a</text><text xml:space="preserve" font-family="ComicSansMS,Comic Sans MS" font-size="64.0" fill="#000000" transform="matrix(1.00, 0.00, -0.00, -1.00, 764.0, 949.6)"> </text><text xml:space="preserve" font-family="ComicSansMS,Comic Sans MS" font-size="64.0" fill="#000000" transform="matrix(1.00, 0.00, -0.00, -1.00, 783.1, 949.6)">e</text><text xml:space="preserve" font-family="ComicSansMS,Comic Sans MS" font-size="64.0" fill="#000000" transform="matrix(1.00, 0.00, -0.00, -1.00, 818.2, 949.6)">l</text><text xml:space="preserve" font-family="ComicSansMS,Comic Sans MS" font-size="64.0" fill="#000000" transform="matrix(1.00, 0.00, -0.00, -1.00, 835.7, 949.6)"> </text><text xml:space="preserve" font-family="ComicSansMS,Comic Sans MS" font-size="64.0" fill="#000000" transform="matrix(1.00, 0.00, -0.00, -1.00, 854.8, 949.6)">n</text><text xml:space="preserve" font-family="ComicSansMS,Comic Sans MS" font-size="64.0" fill="#000000" transform="matrix(1.00, 0.00, -0.00, -1.00, 888.4, 949.6)">ú</text><text xml:space="preserve" font-family="ComicSansMS,Comic Sans MS" font-size="64.0" fill="#000000" transform="matrix(1.00, 0.00, -0.00, -1.00, 921.6, 949.6)">m</text><text xml:space="preserve" font-family="ComicSansMS,Comic Sans MS" font-size="64.0" fill="#000000" transform="matrix(1.00, 0.00, -0.00, -1.00, 971.3, 949.6)">e</text><text xml:space="preserve" font-family="ComicSansMS,Comic Sans MS" font-size="64.0" fill="#000000" transform="matrix(1.00, 0.00, -0.00, -1.00, 1006.4, 949.6)">r</text><text xml:space="preserve" font-family="ComicSansMS,Comic Sans MS" font-size="64.0" fill="#000000" transform="matrix(1.00, 0.00, -0.00, -1.00, 1037.2, 949.6)">o</text><text xml:space="preserve" font-family="ComicSansMS,Comic Sans MS" font-size="64.0" fill="#000000" transform="matrix(1.00, 0.00, -0.00, -1.00, 1070.8, 949.6)"> </text><text xml:space="preserve" font-family="ComicSansMS,Comic Sans MS" font-size="64.0" fill="#000000" transform="matrix(1.00, 0.00, -0.00, -1.00, 1089.9, 949.6)">s</text><text xml:space="preserve" font-family="ComicSansMS,Comic Sans MS" font-size="64.0" fill="#000000" transform="matrix(1.00, 0.00, -0.00, -1.00, 1121.1, 949.6)">i</text><text xml:space="preserve" font-family="ComicSansMS,Comic Sans MS" font-size="64.0" fill="#000000" transform="matrix(1.00, 0.00, -0.00, -1.00, 1139.0, 949.6)">g</text><text xml:space="preserve" font-family="ComicSansMS,Comic Sans MS" font-size="64.0" fill="#000000" transform="matrix(1.00, 0.00, -0.00, -1.00, 1173.0, 949.6)">u</text><text xml:space="preserve" font-family="ComicSansMS,Comic Sans MS" font-size="64.0" fill="#000000" transform="matrix(1.00, 0.00, -0.00, -1.00, 1206.3, 949.6)">i</text><text xml:space="preserve" font-family="ComicSansMS,Comic Sans MS" font-size="64.0" fill="#000000" transform="matrix(1.00, 0.00, -0.00, -1.00, 1224.2, 949.6)">e</text><text xml:space="preserve" font-family="ComicSansMS,Comic Sans MS" font-size="64.0" fill="#000000" transform="matrix(1.00, 0.00, -0.00, -1.00, 1259.3, 949.6)">n</text><text xml:space="preserve" font-family="ComicSansMS,Comic Sans MS" font-size="64.0" fill="#000000" transform="matrix(1.00, 0.00, -0.00, -1.00, 1292.8, 949.6)">t</text><text xml:space="preserve" font-family="ComicSansMS,Comic Sans MS" font-size="64.0" fill="#000000" transform="matrix(1.00, 0.00, -0.00, -1.00, 1323.0, 949.6)">e</text><text xml:space="preserve" font-family="ComicSansMS,Comic Sans MS" font-size="64.0" fill="#000000" transform="matrix(1.00, 0.00, -0.00, -1.00, 1358.0, 949.6)">.</text></g></g><g><clipPath id="clip0x7f875f1d4cd0"><path d="M 1441.0 180.0 L 1596.0 180.0 L 1596.0 79.0 L 1441.0 79.0 Z M 1440.5 180.0 "></path></clipPath><g clip-path="url(#clip0x7f875f1d4cd0)"><g><clipPath id="clip0x7f875f1e1050"><path d="M 1440.5 79.2 L 1595.6 79.2 L 1595.6 180.0 L 1440.5 180.0 Z M 1440.5 79.2 "></path></clipPath><g clip-path="url(#clip0x7f875f1e1050)"><image xlink:href="../../BF6DC8B6-E505-4222-AA15-A9E26ADAED33/assets/80853EFD8D24BCE501047C376B8C7833.png" width="260.00" height="194.00" transform="matrix(0.66, 0.00, -0.00, -0.66, 1425.0, 180.0)"></image></g></g></g></g><g><clipPath id="clip0x7f875ab11f60"><path d="M 1405.0 52.4 L 1445.6 52.4 L 1445.6 92.8 L 1405.0 92.8 Z M 1405.0 52.4 "></path></clipPath><g clip-path="url(#clip0x7f875ab11f60)"><path d="M 1425.3 91.6 L 1431.1 79.2 L 1444.2 77.2 L 1434.8 67.5 L 1437.0 53.8 L 1425.3 60.3 L 1413.6 53.8 L 1415.9 67.5 L 1406.4 77.2 L 1419.5 79.2 Z M 1425.3 91.6 " fill="#C3D69B"></path><path d="M 19.9 0.0 L 25.7 12.4 L 38.8 14.4 L 29.3 24.1 L 31.6 37.8 L 19.9 31.3 L 8.2 37.8 L 10.4 24.1 L 1.0 14.4 L 14.0 12.4 Z M 19.9 0.0 " fill="none" stroke="#000000" stroke-width="1.00" stroke-linejoin="bevel" transform="matrix(1.00, 0.00, 0.00, -1.00, 1405.4, 91.6)"></path></g></g></g></svg>