<?xml version="1.0" encoding="UTF-8" standalone="no"?><svg xmlns="http://www.w3.org/2000/svg" xmlns:xlink="http://www.w3.org/1999/xlink" clip-rule="evenodd" stroke-miterlimit="10" viewBox="0 0 192 129"><desc>SVG generated by Keynote</desc><defs></defs><g transform="matrix(1.00, 0.00, -0.00, -1.00, 0.0, 129.0)"><g><clipPath id="clip0x7f87433ad290"><path d="M 36.0 128.0 L 191.0 128.0 L 191.0 27.0 L 36.0 27.0 Z M 36.1 128.2 "></path></clipPath><g clip-path="url(#clip0x7f87433ad290)"><g><clipPath id="clip0x7f87433ada30"><path d="M 36.1 27.4 L 191.2 27.4 L 191.2 128.2 L 36.1 128.2 Z M 36.1 27.4 "></path></clipPath><g clip-path="url(#clip0x7f87433ada30)"><image xlink:href="../../BF6DC8B6-E505-4222-AA15-A9E26ADAED33/assets/80853EFD8D24BCE501047C376B8C7833.png" width="260.00" height="194.00" transform="matrix(0.66, 0.00, -0.00, -0.66, 20.6, 128.2)"></image></g></g></g></g><g><clipPath id="clip0x7f87433af240"><path d="M 0.6 0.6 L 41.2 0.6 L 41.2 41.0 L 0.6 41.0 Z M 0.6 0.6 "></path></clipPath><g clip-path="url(#clip0x7f87433af240)"><path d="M 20.9 39.8 L 26.7 27.4 L 39.8 25.4 L 30.4 15.7 L 32.6 2.0 L 20.9 8.5 L 9.2 2.0 L 11.5 15.7 L 2.0 25.4 L 15.1 27.4 Z M 20.9 39.8 " fill="#C3D69B"></path><path d="M 19.9 0.0 L 25.7 12.4 L 38.8 14.4 L 29.3 24.1 L 31.6 37.8 L 19.9 31.3 L 8.2 37.8 L 10.4 24.1 L 1.0 14.4 L 14.0 12.4 Z M 19.9 0.0 " fill="none" stroke="#000000" stroke-width="1.00" stroke-linejoin="bevel" transform="matrix(1.00, 0.00, 0.00, -1.00, 1.0, 39.8)"></path></g></g></g></svg>