<?xml version="1.0" encoding="UTF-8" standalone="no"?><svg xmlns="http://www.w3.org/2000/svg" xmlns:xlink="http://www.w3.org/1999/xlink" clip-rule="evenodd" stroke-miterlimit="10" viewBox="0 0 1920 1080"><desc>SVG generated by Keynote</desc><defs></defs><g transform="matrix(1.00, 0.00, -0.00, -1.00, 0.0, 1080.0)"><path d="M 0.0 1080.0 L 1920.0 1080.0 L 1920.0 0.0 L 0.0 0.0 Z M 0.0 1080.0 " fill="#FFFFFF"></path><path d="M 297.5 770.5 L 1629.5 770.5 L 1629.5 680.5 L 297.5 680.5 Z M 297.6 770.4 " fill="#FFFFFF"></path><path d="M -0.1 -0.1 L 1331.9 -0.1 L 1331.9 89.9 L -0.1 89.9 Z M 0.0 0.0 " fill="none" stroke="#000000" stroke-width="3.00" stroke-linejoin="bevel" transform="matrix(1.00, 0.00, 0.00, -1.00, 297.6, 770.4)"></path><g><clipPath id="clip0x7f87438db590"><path d="M 290.3 672.8 L 1636.9 672.8 L 1636.9 777.7 L 290.3 777.7 Z M 290.3 672.8 "></path></clipPath><g clip-path="url(#clip0x7f87438db590)"><text xml:space="preserve" font-family="ComicSansMS,Comic Sans MS" font-size="50.0" fill="#000000" transform="matrix(1.00, 0.00, -0.00, -1.00, 653.2, 704.8)">u</text><text xml:space="preserve" font-family="ComicSansMS,Comic Sans MS" font-size="50.0" fill="#000000" transform="matrix(1.00, 0.00, -0.00, -1.00, 679.2, 704.8)">n</text><text xml:space="preserve" font-family="ComicSansMS,Comic Sans MS" font-size="50.0" fill="#000000" transform="matrix(1.00, 0.00, -0.00, -1.00, 705.4, 704.8)"> </text><text xml:space="preserve" font-family="ComicSansMS-Bold,Comic Sans MS" font-weight="bold" font-size="50.0" fill="#000000" transform="matrix(1.00, 0.00, -0.00, -1.00, 720.3, 704.8)">m</text><text xml:space="preserve" font-family="ComicSansMS-Bold,Comic Sans MS" font-weight="bold" font-size="50.0" fill="#000000" transform="matrix(1.00, 0.00, -0.00, -1.00, 759.2, 704.8)">i</text><text xml:space="preserve" font-family="ComicSansMS-Bold,Comic Sans MS" font-weight="bold" font-size="50.0" fill="#000000" transform="matrix(1.00, 0.00, -0.00, -1.00, 773.2, 704.8)">l</text><text xml:space="preserve" font-family="ComicSansMS-Bold,Comic Sans MS" font-weight="bold" font-size="50.0" fill="#000000" transform="matrix(1.00, 0.00, -0.00, -1.00, 786.9, 704.8)">l</text><text xml:space="preserve" font-family="ComicSansMS-Bold,Comic Sans MS" font-weight="bold" font-size="50.0" fill="#000000" transform="matrix(1.00, 0.00, -0.00, -1.00, 800.6, 704.8)">ó</text><text xml:space="preserve" font-family="ComicSansMS-Bold,Comic Sans MS" font-weight="bold" font-size="50.0" fill="#000000" transform="matrix(1.00, 0.00, -0.00, -1.00, 826.9, 704.8)">n</text><text xml:space="preserve" font-family="ComicSansMS,Comic Sans MS" font-size="50.0" fill="#000000" transform="matrix(1.00, 0.00, -0.00, -1.00, 853.1, 704.8)"> </text><text xml:space="preserve" font-family="ComicSansMS,Comic Sans MS" font-size="50.0" fill="#000000" transform="matrix(1.00, 0.00, -0.00, -1.00, 868.0, 704.8)">u</text><text xml:space="preserve" font-family="ComicSansMS,Comic Sans MS" font-size="50.0" fill="#000000" transform="matrix(1.00, 0.00, -0.00, -1.00, 894.0, 704.8)">n</text><text xml:space="preserve" font-family="ComicSansMS,Comic Sans MS" font-size="50.0" fill="#000000" transform="matrix(1.00, 0.00, -0.00, -1.00, 920.2, 704.8)"> </text><text xml:space="preserve" font-family="ComicSansMS-Bold,Comic Sans MS" font-weight="bold" font-size="50.0" fill="#000000" transform="matrix(1.00, 0.00, -0.00, -1.00, 935.1, 704.8)">m</text><text xml:space="preserve" font-family="ComicSansMS-Bold,Comic Sans MS" font-weight="bold" font-size="50.0" fill="#000000" transform="matrix(1.00, 0.00, -0.00, -1.00, 973.9, 704.8)">i</text><text xml:space="preserve" font-family="ComicSansMS-Bold,Comic Sans MS" font-weight="bold" font-size="50.0" fill="#000000" transform="matrix(1.00, 0.00, -0.00, -1.00, 988.0, 704.8)">l</text><text xml:space="preserve" font-family="ComicSansMS,Comic Sans MS" font-size="50.0" fill="#000000" transform="matrix(1.00, 0.00, -0.00, -1.00, 1001.7, 704.8)"> </text><text xml:space="preserve" font-family="ComicSansMS,Comic Sans MS" font-size="50.0" fill="#000000" transform="matrix(1.00, 0.00, -0.00, -1.00, 1016.6, 704.8)">c</text><text xml:space="preserve" font-family="ComicSansMS,Comic Sans MS" font-size="50.0" fill="#000000" transform="matrix(1.00, 0.00, -0.00, -1.00, 1042.3, 704.8)">i</text><text xml:space="preserve" font-family="ComicSansMS,Comic Sans MS" font-size="50.0" fill="#000000" transform="matrix(1.00, 0.00, -0.00, -1.00, 1056.3, 704.8)">e</text><text xml:space="preserve" font-family="ComicSansMS,Comic Sans MS" font-size="50.0" fill="#000000" transform="matrix(1.00, 0.00, -0.00, -1.00, 1083.7, 704.8)">n</text><text xml:space="preserve" font-family="ComicSansMS,Comic Sans MS" font-size="50.0" fill="#000000" transform="matrix(1.00, 0.00, -0.00, -1.00, 1109.9, 704.8)">t</text><text xml:space="preserve" font-family="ComicSansMS,Comic Sans MS" font-size="50.0" fill="#000000" transform="matrix(1.00, 0.00, -0.00, -1.00, 1133.5, 704.8)">o</text><text xml:space="preserve" font-family="ComicSansMS,Comic Sans MS" font-size="50.0" fill="#000000" transform="matrix(1.00, 0.00, -0.00, -1.00, 1159.7, 704.8)"> </text><text xml:space="preserve" font-family="ComicSansMS,Comic Sans MS" font-size="50.0" fill="#000000" transform="matrix(1.00, 0.00, -0.00, -1.00, 1174.7, 704.8)">t</text><text xml:space="preserve" font-family="ComicSansMS,Comic Sans MS" font-size="50.0" fill="#000000" transform="matrix(1.00, 0.00, -0.00, -1.00, 1198.2, 704.8)">r</text><text xml:space="preserve" font-family="ComicSansMS,Comic Sans MS" font-size="50.0" fill="#000000" transform="matrix(1.00, 0.00, -0.00, -1.00, 1222.3, 704.8)">e</text><text xml:space="preserve" font-family="ComicSansMS,Comic Sans MS" font-size="50.0" fill="#000000" transform="matrix(1.00, 0.00, -0.00, -1.00, 1249.7, 704.8)">s</text><path d="M 421.2 70.7 L 554.0 70.7 " fill="none" stroke="#000000" stroke-width="4.27" transform="matrix(1.00, 0.00, 0.00, -1.00, 299.1, 768.9)"></path><path d="M 636.0 70.7 L 702.6 70.7 " fill="none" stroke="#000000" stroke-width="4.27" transform="matrix(1.00, 0.00, 0.00, -1.00, 299.1, 768.9)"></path></g></g><path d="M 0.1 0.1 L 1334.1 0.1 L 1334.1 281.1 L 0.1 281.1 Z M 0.0 0.0 " fill="none" stroke="#000000" stroke-width="9.00" stroke-linejoin="bevel" transform="matrix(1.00, 0.00, 0.00, -1.00, 290.4, 498.6)"></path><text xml:space="preserve" font-family="ComicSansMS,Comic Sans MS" font-size="170.0" fill="#0033CC" transform="matrix(1.00, 0.00, -0.00, -1.00, 384.3, 275.5)">1</text><text xml:space="preserve" font-family="ComicSansMS,Comic Sans MS" font-size="170.0" fill="#0033CC" transform="matrix(1.00, 0.00, -0.00, -1.00, 532.0, 275.5)">,</text><text xml:space="preserve" font-family="ComicSansMS,Comic Sans MS" font-size="170.0" fill="#0033CC" transform="matrix(1.00, 0.00, -0.00, -1.00, 636.6, 275.5)">0</text><text xml:space="preserve" font-family="ComicSansMS,Comic Sans MS" font-size="170.0" fill="#0033CC" transform="matrix(1.00, 0.00, -0.00, -1.00, 769.6, 275.5)">0</text><text xml:space="preserve" font-family="ComicSansMS,Comic Sans MS" font-size="170.0" fill="#0033CC" transform="matrix(1.00, 0.00, -0.00, -1.00, 916.2, 275.5)">1</text><text xml:space="preserve" font-family="ComicSansMS,Comic Sans MS" font-size="170.0" fill="#0033CC" transform="matrix(1.00, 0.00, -0.00, -1.00, 1063.9, 275.5)">,</text><text xml:space="preserve" font-family="ComicSansMS,Comic Sans MS" font-size="170.0" fill="#0033CC" transform="matrix(1.00, 0.00, -0.00, -1.00, 1182.1, 275.5)">1</text><text xml:space="preserve" font-family="ComicSansMS,Comic Sans MS" font-size="170.0" fill="#0033CC" transform="matrix(1.00, 0.00, -0.00, -1.00, 1301.5, 275.5)">0</text><text xml:space="preserve" font-family="ComicSansMS,Comic Sans MS" font-size="170.0" fill="#0033CC" transform="matrix(1.00, 0.00, -0.00, -1.00, 1434.4, 275.5)">3</text><path d="M 424.5 574.2 L 430.3 561.8 L 443.4 559.8 L 433.9 550.1 L 436.2 536.4 L 424.5 542.9 L 412.8 536.4 L 415.1 550.1 L 405.6 559.8 L 418.7 561.8 Z M 424.5 574.2 " fill="#000000"></path><path d="M 19.9 0.0 L 25.7 12.4 L 38.8 14.4 L 29.3 24.1 L 31.6 37.8 L 19.9 31.3 L 8.2 37.8 L 10.4 24.1 L 1.0 14.4 L 14.0 12.4 Z M 19.9 0.0 " fill="none" stroke="#000000" stroke-width="1.00" stroke-linejoin="bevel" transform="matrix(1.00, 0.00, 0.00, -1.00, 404.6, 574.2)"></path><path d="M 557.5 574.2 L 563.3 561.8 L 576.4 559.8 L 566.9 550.1 L 569.2 536.4 L 557.5 542.9 L 545.8 536.4 L 548.0 550.1 L 538.6 559.8 L 551.6 561.8 Z M 557.5 574.2 " fill="#000000"></path><path d="M 19.9 0.0 L 25.7 12.4 L 38.8 14.4 L 29.3 24.1 L 31.6 37.8 L 19.9 31.3 L 8.2 37.8 L 10.4 24.1 L 1.0 14.4 L 14.0 12.4 Z M 19.9 0.0 " fill="none" stroke="#000000" stroke-width="1.00" stroke-linejoin="bevel" transform="matrix(1.00, 0.00, 0.00, -1.00, 537.6, 574.2)"></path><path d="M 690.4 574.2 L 696.3 561.8 L 709.3 559.8 L 699.9 550.1 L 702.1 536.4 L 690.4 542.9 L 678.8 536.4 L 681.0 550.1 L 671.5 559.8 L 684.6 561.8 Z M 690.4 574.2 " fill="#000000"></path><path d="M 19.9 0.0 L 25.7 12.4 L 38.8 14.4 L 29.3 24.1 L 31.6 37.8 L 19.9 31.3 L 8.2 37.8 L 10.4 24.1 L 1.0 14.4 L 14.0 12.4 Z M 19.9 0.0 " fill="none" stroke="#000000" stroke-width="1.00" stroke-linejoin="bevel" transform="matrix(1.00, 0.00, 0.00, -1.00, 670.6, 574.2)"></path><path d="M 823.4 574.2 L 829.3 561.8 L 842.3 559.8 L 832.9 550.1 L 835.1 536.4 L 823.4 542.9 L 811.7 536.4 L 814.0 550.1 L 804.5 559.8 L 817.6 561.8 Z M 823.4 574.2 " fill="#000000"></path><path d="M 19.9 0.0 L 25.7 12.4 L 38.8 14.4 L 29.3 24.1 L 31.6 37.8 L 19.9 31.3 L 8.2 37.8 L 10.4 24.1 L 1.0 14.4 L 14.0 12.4 Z M 19.9 0.0 " fill="none" stroke="#000000" stroke-width="1.00" stroke-linejoin="bevel" transform="matrix(1.00, 0.00, 0.00, -1.00, 803.6, 574.2)"></path><path d="M 956.4 574.2 L 962.2 561.8 L 975.3 559.8 L 965.8 550.1 L 968.1 536.4 L 956.4 542.9 L 944.7 536.4 L 946.9 550.1 L 937.5 559.8 L 950.6 561.8 Z M 956.4 574.2 " fill="#000000"></path><path d="M 19.9 0.0 L 25.7 12.4 L 38.8 14.4 L 29.3 24.1 L 31.6 37.8 L 19.9 31.3 L 8.2 37.8 L 10.4 24.1 L 1.0 14.4 L 14.0 12.4 Z M 19.9 0.0 " fill="none" stroke="#000000" stroke-width="1.00" stroke-linejoin="bevel" transform="matrix(1.00, 0.00, 0.00, -1.00, 936.5, 574.2)"></path><path d="M 1089.4 574.2 L 1095.2 561.8 L 1108.3 559.8 L 1098.8 550.1 L 1101.1 536.4 L 1089.4 542.9 L 1077.7 536.4 L 1079.9 550.1 L 1070.5 559.8 L 1083.5 561.8 Z M 1089.4 574.2 " fill="#000000"></path><path d="M 19.9 0.0 L 25.7 12.4 L 38.8 14.4 L 29.3 24.1 L 31.6 37.8 L 19.9 31.3 L 8.2 37.8 L 10.4 24.1 L 1.0 14.4 L 14.0 12.4 Z M 19.9 0.0 " fill="none" stroke="#000000" stroke-width="1.00" stroke-linejoin="bevel" transform="matrix(1.00, 0.00, 0.00, -1.00, 1069.5, 574.2)"></path><path d="M 1222.4 574.2 L 1228.2 561.8 L 1241.2 559.8 L 1231.8 550.1 L 1234.0 536.4 L 1222.4 542.9 L 1210.7 536.4 L 1212.9 550.1 L 1203.5 559.8 L 1216.5 561.8 Z M 1222.4 574.2 " fill="#000000"></path><path d="M 19.9 0.0 L 25.7 12.4 L 38.8 14.4 L 29.3 24.1 L 31.6 37.8 L 19.9 31.3 L 8.2 37.8 L 10.4 24.1 L 1.0 14.4 L 14.0 12.4 Z M 19.9 0.0 " fill="none" stroke="#000000" stroke-width="1.00" stroke-linejoin="bevel" transform="matrix(1.00, 0.00, 0.00, -1.00, 1202.5, 574.2)"></path><path d="M 1355.3 574.2 L 1361.2 561.8 L 1374.2 559.8 L 1364.8 550.1 L 1367.0 536.4 L 1355.3 542.9 L 1343.6 536.4 L 1345.9 550.1 L 1336.4 559.8 L 1349.5 561.8 Z M 1355.3 574.2 " fill="#000000"></path><path d="M 19.9 0.0 L 25.7 12.4 L 38.8 14.4 L 29.3 24.1 L 31.6 37.8 L 19.9 31.3 L 8.2 37.8 L 10.4 24.1 L 1.0 14.4 L 14.0 12.4 Z M 19.9 0.0 " fill="none" stroke="#000000" stroke-width="1.00" stroke-linejoin="bevel" transform="matrix(1.00, 0.00, 0.00, -1.00, 1335.5, 574.2)"></path><path d="M 1488.3 574.2 L 1494.1 561.8 L 1507.2 559.8 L 1497.8 550.1 L 1500.0 536.4 L 1488.3 542.9 L 1476.6 536.4 L 1478.9 550.1 L 1469.4 559.8 L 1482.5 561.8 Z M 1488.3 574.2 " fill="#000000"></path><path d="M 19.9 0.0 L 25.7 12.4 L 38.8 14.4 L 29.3 24.1 L 31.6 37.8 L 19.9 31.3 L 8.2 37.8 L 10.4 24.1 L 1.0 14.4 L 14.0 12.4 Z M 19.9 0.0 " fill="none" stroke="#000000" stroke-width="1.00" stroke-linejoin="bevel" transform="matrix(1.00, 0.00, 0.00, -1.00, 1468.4, 574.2)"></path><path d="M 443.0 923.0 L 1475.0 923.0 L 1475.0 816.0 L 443.0 816.0 Z M 443.4 923.4 " fill="#FFFFFF"></path><g><clipPath id="clip0x7f8741e5ccb0"><path d="M 429.7 802.5 L 1488.5 802.5 L 1488.5 937.1 L 429.7 937.1 Z M 429.7 802.5 "></path></clipPath><g clip-path="url(#clip0x7f8741e5ccb0)"><text xml:space="preserve" font-family="ComicSansMS,Comic Sans MS" font-size="64.0" fill="#000000" transform="matrix(1.00, 0.00, -0.00, -1.00, 542.4, 843.4)">E</text><text xml:space="preserve" font-family="ComicSansMS,Comic Sans MS" font-size="64.0" fill="#000000" transform="matrix(1.00, 0.00, -0.00, -1.00, 582.4, 843.4)">s</text><text xml:space="preserve" font-family="ComicSansMS,Comic Sans MS" font-size="64.0" fill="#000000" transform="matrix(1.00, 0.00, -0.00, -1.00, 613.5, 843.4)">c</text><text xml:space="preserve" font-family="ComicSansMS,Comic Sans MS" font-size="64.0" fill="#000000" transform="matrix(1.00, 0.00, -0.00, -1.00, 646.4, 843.4)">r</text><text xml:space="preserve" font-family="ComicSansMS,Comic Sans MS" font-size="64.0" fill="#000000" transform="matrix(1.00, 0.00, -0.00, -1.00, 677.1, 843.4)">i</text><text xml:space="preserve" font-family="ComicSansMS,Comic Sans MS" font-size="64.0" fill="#000000" transform="matrix(1.00, 0.00, -0.00, -1.00, 695.1, 843.4)">b</text><text xml:space="preserve" font-family="ComicSansMS,Comic Sans MS" font-size="64.0" fill="#000000" transform="matrix(1.00, 0.00, -0.00, -1.00, 733.1, 843.4)">a</text><text xml:space="preserve" font-family="ComicSansMS,Comic Sans MS" font-size="64.0" fill="#000000" transform="matrix(1.00, 0.00, -0.00, -1.00, 765.8, 843.4)"> </text><text xml:space="preserve" font-family="ComicSansMS,Comic Sans MS" font-size="64.0" fill="#000000" transform="matrix(1.00, 0.00, -0.00, -1.00, 784.9, 843.4)">e</text><text xml:space="preserve" font-family="ComicSansMS,Comic Sans MS" font-size="64.0" fill="#000000" transform="matrix(1.00, 0.00, -0.00, -1.00, 820.0, 843.4)">l</text><text xml:space="preserve" font-family="ComicSansMS,Comic Sans MS" font-size="64.0" fill="#000000" transform="matrix(1.00, 0.00, -0.00, -1.00, 837.5, 843.4)"> </text><text xml:space="preserve" font-family="ComicSansMS,Comic Sans MS" font-size="64.0" fill="#000000" transform="matrix(1.00, 0.00, -0.00, -1.00, 856.6, 843.4)">n</text><text xml:space="preserve" font-family="ComicSansMS,Comic Sans MS" font-size="64.0" fill="#000000" transform="matrix(1.00, 0.00, -0.00, -1.00, 890.2, 843.4)">ú</text><text xml:space="preserve" font-family="ComicSansMS,Comic Sans MS" font-size="64.0" fill="#000000" transform="matrix(1.00, 0.00, -0.00, -1.00, 923.4, 843.4)">m</text><text xml:space="preserve" font-family="ComicSansMS,Comic Sans MS" font-size="64.0" fill="#000000" transform="matrix(1.00, 0.00, -0.00, -1.00, 973.1, 843.4)">e</text><text xml:space="preserve" font-family="ComicSansMS,Comic Sans MS" font-size="64.0" fill="#000000" transform="matrix(1.00, 0.00, -0.00, -1.00, 1008.2, 843.4)">r</text><text xml:space="preserve" font-family="ComicSansMS,Comic Sans MS" font-size="64.0" fill="#000000" transform="matrix(1.00, 0.00, -0.00, -1.00, 1039.0, 843.4)">o</text><text xml:space="preserve" font-family="ComicSansMS,Comic Sans MS" font-size="64.0" fill="#000000" transform="matrix(1.00, 0.00, -0.00, -1.00, 1072.6, 843.4)"> </text><text xml:space="preserve" font-family="ComicSansMS,Comic Sans MS" font-size="64.0" fill="#000000" transform="matrix(1.00, 0.00, -0.00, -1.00, 1091.7, 843.4)">s</text><text xml:space="preserve" font-family="ComicSansMS,Comic Sans MS" font-size="64.0" fill="#000000" transform="matrix(1.00, 0.00, -0.00, -1.00, 1122.9, 843.4)">i</text><text xml:space="preserve" font-family="ComicSansMS,Comic Sans MS" font-size="64.0" fill="#000000" transform="matrix(1.00, 0.00, -0.00, -1.00, 1140.8, 843.4)">g</text><text xml:space="preserve" font-family="ComicSansMS,Comic Sans MS" font-size="64.0" fill="#000000" transform="matrix(1.00, 0.00, -0.00, -1.00, 1174.8, 843.4)">u</text><text xml:space="preserve" font-family="ComicSansMS,Comic Sans MS" font-size="64.0" fill="#000000" transform="matrix(1.00, 0.00, -0.00, -1.00, 1208.1, 843.4)">i</text><text xml:space="preserve" font-family="ComicSansMS,Comic Sans MS" font-size="64.0" fill="#000000" transform="matrix(1.00, 0.00, -0.00, -1.00, 1226.0, 843.4)">e</text><text xml:space="preserve" font-family="ComicSansMS,Comic Sans MS" font-size="64.0" fill="#000000" transform="matrix(1.00, 0.00, -0.00, -1.00, 1261.1, 843.4)">n</text><text xml:space="preserve" font-family="ComicSansMS,Comic Sans MS" font-size="64.0" fill="#000000" transform="matrix(1.00, 0.00, -0.00, -1.00, 1294.6, 843.4)">t</text><text xml:space="preserve" font-family="ComicSansMS,Comic Sans MS" font-size="64.0" fill="#000000" transform="matrix(1.00, 0.00, -0.00, -1.00, 1324.8, 843.4)">e</text><text xml:space="preserve" font-family="ComicSansMS,Comic Sans MS" font-size="64.0" fill="#000000" transform="matrix(1.00, 0.00, -0.00, -1.00, 1359.8, 843.4)">.</text></g></g><g><clipPath id="clip0x7f87439cd550"><path d="M 1498.0 151.0 L 1653.0 151.0 L 1653.0 50.0 L 1498.0 50.0 Z M 1498.1 151.2 "></path></clipPath><g clip-path="url(#clip0x7f87439cd550)"><g><clipPath id="clip0x7f87439d2d30"><path d="M 1498.1 50.4 L 1653.2 50.4 L 1653.2 151.2 L 1498.1 151.2 Z M 1498.1 50.4 "></path></clipPath><g clip-path="url(#clip0x7f87439d2d30)"><image xlink:href="../../BF6DC8B6-E505-4222-AA15-A9E26ADAED33/assets/80853EFD8D24BCE501047C376B8C7833.png" width="260.00" height="194.00" transform="matrix(0.66, 0.00, -0.00, -0.66, 1482.6, 151.2)"></image></g></g></g></g><g><clipPath id="clip0x7f87439de6a0"><path d="M 1462.6 23.6 L 1503.2 23.6 L 1503.2 64.0 L 1462.6 64.0 Z M 1462.6 23.6 "></path></clipPath><g clip-path="url(#clip0x7f87439de6a0)"><path d="M 1482.9 62.8 L 1488.7 50.4 L 1501.8 48.4 L 1492.4 38.7 L 1494.6 25.0 L 1482.9 31.5 L 1471.2 25.0 L 1473.5 38.7 L 1464.0 48.4 L 1477.1 50.4 Z M 1482.9 62.8 " fill="#C3D69B"></path><path d="M 19.9 0.0 L 25.7 12.4 L 38.8 14.4 L 29.3 24.1 L 31.6 37.8 L 19.9 31.3 L 8.2 37.8 L 10.4 24.1 L 1.0 14.4 L 14.0 12.4 Z M 19.9 0.0 " fill="none" stroke="#000000" stroke-width="1.00" stroke-linejoin="bevel" transform="matrix(1.00, 0.00, 0.00, -1.00, 1463.0, 62.8)"></path></g></g></g></svg>