<?xml version="1.0" encoding="UTF-8" standalone="no"?><svg xmlns="http://www.w3.org/2000/svg" xmlns:xlink="http://www.w3.org/1999/xlink" clip-rule="evenodd" stroke-miterlimit="10" viewBox="0 0 1920 1080"><desc>SVG generated by Keynote</desc><defs></defs><g transform="matrix(1.00, 0.00, -0.00, -1.00, 0.0, 1080.0)"><path d="M 0.0 1080.0 L 1920.0 1080.0 L 1920.0 0.0 L 0.0 0.0 Z M 0.0 1080.0 " fill="#FFFFFF"></path><path d="M 258.5 1061.5 L 1663.5 1061.5 L 1663.5 17.5 L 258.5 17.5 Z M 258.5 1061.5 " fill="#000000"></path><path d="M -0.0 -0.0 L 1405.0 -0.0 L 1405.0 1044.0 L -0.0 1044.0 Z M 0.0 0.0 " fill="none" stroke="#800000" stroke-width="1.00" stroke-linejoin="bevel" transform="matrix(1.00, 0.00, 0.00, -1.00, 258.5, 1061.5)"></path><text xml:space="preserve" font-family="ComicSansMS,Comic Sans MS" font-size="114.0" fill="#FFFFFF" transform="matrix(1.00, 0.00, -0.00, -1.00, 682.7, 837.6)">I</text><text xml:space="preserve" font-family="ComicSansMS,Comic Sans MS" font-size="114.0" fill="#FFFFFF" transform="matrix(1.00, 0.00, -0.00, -1.00, 745.0, 837.6)">d</text><text xml:space="preserve" font-family="ComicSansMS,Comic Sans MS" font-size="114.0" fill="#FFFFFF" transform="matrix(1.00, 0.00, -0.00, -1.00, 812.0, 837.6)">e</text><text xml:space="preserve" font-family="ComicSansMS,Comic Sans MS" font-size="114.0" fill="#FFFFFF" transform="matrix(1.00, 0.00, -0.00, -1.00, 874.4, 837.6)">n</text><text xml:space="preserve" font-family="ComicSansMS,Comic Sans MS" font-size="114.0" fill="#FFFFFF" transform="matrix(1.00, 0.00, -0.00, -1.00, 934.1, 837.6)">t</text><text xml:space="preserve" font-family="ComicSansMS,Comic Sans MS" font-size="114.0" fill="#FFFFFF" transform="matrix(1.00, 0.00, -0.00, -1.00, 987.9, 837.6)">i</text><text xml:space="preserve" font-family="ComicSansMS,Comic Sans MS" font-size="114.0" fill="#FFFFFF" transform="matrix(1.00, 0.00, -0.00, -1.00, 1019.9, 837.6)">f</text><text xml:space="preserve" font-family="ComicSansMS,Comic Sans MS" font-size="114.0" fill="#FFFFFF" transform="matrix(1.00, 0.00, -0.00, -1.00, 1077.9, 837.6)">i</text><text xml:space="preserve" font-family="ComicSansMS,Comic Sans MS" font-size="114.0" fill="#FFFFFF" transform="matrix(1.00, 0.00, -0.00, -1.00, 1109.9, 837.6)">c</text><text xml:space="preserve" font-family="ComicSansMS,Comic Sans MS" font-size="114.0" fill="#FFFFFF" transform="matrix(1.00, 0.00, -0.00, -1.00, 1168.4, 837.6)">a</text><text xml:space="preserve" font-family="ComicSansMS,Comic Sans MS" font-size="114.0" fill="#FFFFFF" transform="matrix(1.00, 0.00, -0.00, -1.00, 1226.6, 837.6)"> </text><text xml:space="preserve" font-family="ComicSansMS,Comic Sans MS" font-size="114.0" fill="#FFFFFF" transform="matrix(1.00, 0.00, -0.00, -1.00, 1260.6, 837.6)"> </text><text xml:space="preserve" font-family="ComicSansMS,Comic Sans MS" font-size="114.0" fill="#FFFFFF" transform="matrix(1.00, 0.00, -0.00, -1.00, 450.6, 646.8)">e</text><text xml:space="preserve" font-family="ComicSansMS,Comic Sans MS" font-size="114.0" fill="#FFFFFF" transform="matrix(1.00, 0.00, -0.00, -1.00, 513.1, 646.8)">l</text><text xml:space="preserve" font-family="ComicSansMS,Comic Sans MS" font-size="114.0" fill="#FFFFFF" transform="matrix(1.00, 0.00, -0.00, -1.00, 544.3, 646.8)"> </text><text xml:space="preserve" font-family="ComicSansMS,Comic Sans MS" font-size="114.0" fill="#FFFFFF" transform="matrix(1.00, 0.00, -0.00, -1.00, 578.3, 646.8)">l</text><text xml:space="preserve" font-family="ComicSansMS,Comic Sans MS" font-size="114.0" fill="#FFFFFF" transform="matrix(1.00, 0.00, -0.00, -1.00, 609.6, 646.8)">u</text><text xml:space="preserve" font-family="ComicSansMS,Comic Sans MS" font-size="114.0" fill="#FFFFFF" transform="matrix(1.00, 0.00, -0.00, -1.00, 668.8, 646.8)">g</text><text xml:space="preserve" font-family="ComicSansMS,Comic Sans MS" font-size="114.0" fill="#FFFFFF" transform="matrix(1.00, 0.00, -0.00, -1.00, 729.3, 646.8)">a</text><text xml:space="preserve" font-family="ComicSansMS,Comic Sans MS" font-size="114.0" fill="#FFFFFF" transform="matrix(1.00, 0.00, -0.00, -1.00, 787.6, 646.8)">r</text><text xml:space="preserve" font-family="ComicSansMS,Comic Sans MS" font-size="114.0" fill="#FFFFFF" transform="matrix(1.00, 0.00, -0.00, -1.00, 842.5, 646.8)"> </text><text xml:space="preserve" font-family="ComicSansMS,Comic Sans MS" font-size="114.0" fill="#FFFFFF" transform="matrix(1.00, 0.00, -0.00, -1.00, 876.5, 646.8)">d</text><text xml:space="preserve" font-family="ComicSansMS,Comic Sans MS" font-size="114.0" fill="#FFFFFF" transform="matrix(1.00, 0.00, -0.00, -1.00, 943.5, 646.8)">e</text><text xml:space="preserve" font-family="ComicSansMS,Comic Sans MS" font-size="114.0" fill="#FFFFFF" transform="matrix(1.00, 0.00, -0.00, -1.00, 1006.0, 646.8)"> </text><text xml:space="preserve" font-family="ComicSansMS,Comic Sans MS" font-size="114.0" fill="#FFFFFF" transform="matrix(1.00, 0.00, -0.00, -1.00, 1040.0, 646.8)">p</text><text xml:space="preserve" font-family="ComicSansMS,Comic Sans MS" font-size="114.0" fill="#FFFFFF" transform="matrix(1.00, 0.00, -0.00, -1.00, 1100.9, 646.8)">o</text><text xml:space="preserve" font-family="ComicSansMS,Comic Sans MS" font-size="114.0" fill="#FFFFFF" transform="matrix(1.00, 0.00, -0.00, -1.00, 1160.9, 646.8)">s</text><text xml:space="preserve" font-family="ComicSansMS,Comic Sans MS" font-size="114.0" fill="#FFFFFF" transform="matrix(1.00, 0.00, -0.00, -1.00, 1216.3, 646.8)">i</text><text xml:space="preserve" font-family="ComicSansMS,Comic Sans MS" font-size="114.0" fill="#FFFFFF" transform="matrix(1.00, 0.00, -0.00, -1.00, 1248.3, 646.8)">c</text><text xml:space="preserve" font-family="ComicSansMS,Comic Sans MS" font-size="114.0" fill="#FFFFFF" transform="matrix(1.00, 0.00, -0.00, -1.00, 1306.8, 646.8)">i</text><text xml:space="preserve" font-family="ComicSansMS,Comic Sans MS" font-size="114.0" fill="#FFFFFF" transform="matrix(1.00, 0.00, -0.00, -1.00, 1338.8, 646.8)">ó</text><text xml:space="preserve" font-family="ComicSansMS,Comic Sans MS" font-size="114.0" fill="#FFFFFF" transform="matrix(1.00, 0.00, -0.00, -1.00, 1398.8, 646.8)">n</text><text xml:space="preserve" font-family="ComicSansMS,Comic Sans MS" font-size="114.0" fill="#FFFFFF" transform="matrix(1.00, 0.00, -0.00, -1.00, 1458.5, 646.8)"> </text><text xml:space="preserve" font-family="ComicSansMS,Comic Sans MS" font-size="114.0" fill="#FFFFFF" transform="matrix(1.00, 0.00, -0.00, -1.00, 723.2, 456.0)">c</text><text xml:space="preserve" font-family="ComicSansMS,Comic Sans MS" font-size="114.0" fill="#FFFFFF" transform="matrix(1.00, 0.00, -0.00, -1.00, 781.8, 456.0)">o</text><text xml:space="preserve" font-family="ComicSansMS,Comic Sans MS" font-size="114.0" fill="#FFFFFF" transform="matrix(1.00, 0.00, -0.00, -1.00, 841.7, 456.0)">r</text><text xml:space="preserve" font-family="ComicSansMS,Comic Sans MS" font-size="114.0" fill="#FFFFFF" transform="matrix(1.00, 0.00, -0.00, -1.00, 896.5, 456.0)">r</text><text xml:space="preserve" font-family="ComicSansMS,Comic Sans MS" font-size="114.0" fill="#FFFFFF" transform="matrix(1.00, 0.00, -0.00, -1.00, 951.4, 456.0)">e</text><text xml:space="preserve" font-family="ComicSansMS,Comic Sans MS" font-size="114.0" fill="#FFFFFF" transform="matrix(1.00, 0.00, -0.00, -1.00, 1013.8, 456.0)">c</text><text xml:space="preserve" font-family="ComicSansMS,Comic Sans MS" font-size="114.0" fill="#FFFFFF" transform="matrix(1.00, 0.00, -0.00, -1.00, 1072.3, 456.0)">t</text><text xml:space="preserve" font-family="ComicSansMS,Comic Sans MS" font-size="114.0" fill="#FFFFFF" transform="matrix(1.00, 0.00, -0.00, -1.00, 1126.1, 456.0)">o</text><text xml:space="preserve" font-family="ComicSansMS,Comic Sans MS" font-size="114.0" fill="#FFFFFF" transform="matrix(1.00, 0.00, -0.00, -1.00, 1186.0, 456.0)"> </text><text xml:space="preserve" font-family="ComicSansMS,Comic Sans MS" font-size="114.0" fill="#FFFFFF" transform="matrix(1.00, 0.00, -0.00, -1.00, 1220.1, 456.0)"> </text><text xml:space="preserve" font-family="ComicSansMS,Comic Sans MS" font-size="114.0" fill="#FFFFFF" transform="matrix(1.00, 0.00, -0.00, -1.00, 514.2, 265.2)">e</text><text xml:space="preserve" font-family="ComicSansMS,Comic Sans MS" font-size="114.0" fill="#FFFFFF" transform="matrix(1.00, 0.00, -0.00, -1.00, 576.7, 265.2)">n</text><text xml:space="preserve" font-family="ComicSansMS,Comic Sans MS" font-size="114.0" fill="#FFFFFF" transform="matrix(1.00, 0.00, -0.00, -1.00, 636.4, 265.2)"> </text><text xml:space="preserve" font-family="ComicSansMS,Comic Sans MS" font-size="114.0" fill="#FFFFFF" transform="matrix(1.00, 0.00, -0.00, -1.00, 670.4, 265.2)">l</text><text xml:space="preserve" font-family="ComicSansMS,Comic Sans MS" font-size="114.0" fill="#FFFFFF" transform="matrix(1.00, 0.00, -0.00, -1.00, 701.6, 265.2)">o</text><text xml:space="preserve" font-family="ComicSansMS,Comic Sans MS" font-size="114.0" fill="#FFFFFF" transform="matrix(1.00, 0.00, -0.00, -1.00, 761.6, 265.2)">s</text><text xml:space="preserve" font-family="ComicSansMS,Comic Sans MS" font-size="114.0" fill="#FFFFFF" transform="matrix(1.00, 0.00, -0.00, -1.00, 817.0, 265.2)"> </text><text xml:space="preserve" font-family="ComicSansMS,Comic Sans MS" font-size="114.0" fill="#FFFFFF" transform="matrix(1.00, 0.00, -0.00, -1.00, 851.1, 265.2)">9</text><text xml:space="preserve" font-family="ComicSansMS,Comic Sans MS" font-size="114.0" fill="#FFFFFF" transform="matrix(1.00, 0.00, -0.00, -1.00, 920.7, 265.2)"> </text><text xml:space="preserve" font-family="ComicSansMS,Comic Sans MS" font-size="114.0" fill="#FFFFFF" transform="matrix(1.00, 0.00, -0.00, -1.00, 954.8, 265.2)">n</text><text xml:space="preserve" font-family="ComicSansMS,Comic Sans MS" font-size="114.0" fill="#FFFFFF" transform="matrix(1.00, 0.00, -0.00, -1.00, 1014.5, 265.2)">ú</text><text xml:space="preserve" font-family="ComicSansMS,Comic Sans MS" font-size="114.0" fill="#FFFFFF" transform="matrix(1.00, 0.00, -0.00, -1.00, 1073.8, 265.2)">m</text><text xml:space="preserve" font-family="ComicSansMS,Comic Sans MS" font-size="114.0" fill="#FFFFFF" transform="matrix(1.00, 0.00, -0.00, -1.00, 1162.3, 265.2)">e</text><text xml:space="preserve" font-family="ComicSansMS,Comic Sans MS" font-size="114.0" fill="#FFFFFF" transform="matrix(1.00, 0.00, -0.00, -1.00, 1224.8, 265.2)">r</text><text xml:space="preserve" font-family="ComicSansMS,Comic Sans MS" font-size="114.0" fill="#FFFFFF" transform="matrix(1.00, 0.00, -0.00, -1.00, 1279.6, 265.2)">o</text><text xml:space="preserve" font-family="ComicSansMS,Comic Sans MS" font-size="114.0" fill="#FFFFFF" transform="matrix(1.00, 0.00, -0.00, -1.00, 1339.5, 265.2)">s</text><text xml:space="preserve" font-family="ComicSansMS,Comic Sans MS" font-size="114.0" fill="#FFFFFF" transform="matrix(1.00, 0.00, -0.00, -1.00, 1395.0, 265.2)"> </text><text xml:space="preserve" font-family="ComicSansMS,Comic Sans MS" font-size="114.0" fill="#FFFFFF" transform="matrix(1.00, 0.00, -0.00, -1.00, 673.9, 74.4)">s</text><text xml:space="preserve" font-family="ComicSansMS,Comic Sans MS" font-size="114.0" fill="#FFFFFF" transform="matrix(1.00, 0.00, -0.00, -1.00, 729.4, 74.4)">i</text><text xml:space="preserve" font-family="ComicSansMS,Comic Sans MS" font-size="114.0" fill="#FFFFFF" transform="matrix(1.00, 0.00, -0.00, -1.00, 761.4, 74.4)">g</text><text xml:space="preserve" font-family="ComicSansMS,Comic Sans MS" font-size="114.0" fill="#FFFFFF" transform="matrix(1.00, 0.00, -0.00, -1.00, 821.9, 74.4)">u</text><text xml:space="preserve" font-family="ComicSansMS,Comic Sans MS" font-size="114.0" fill="#FFFFFF" transform="matrix(1.00, 0.00, -0.00, -1.00, 881.1, 74.4)">i</text><text xml:space="preserve" font-family="ComicSansMS,Comic Sans MS" font-size="114.0" fill="#FFFFFF" transform="matrix(1.00, 0.00, -0.00, -1.00, 913.1, 74.4)">e</text><text xml:space="preserve" font-family="ComicSansMS,Comic Sans MS" font-size="114.0" fill="#FFFFFF" transform="matrix(1.00, 0.00, -0.00, -1.00, 975.6, 74.4)">n</text><text xml:space="preserve" font-family="ComicSansMS,Comic Sans MS" font-size="114.0" fill="#FFFFFF" transform="matrix(1.00, 0.00, -0.00, -1.00, 1035.3, 74.4)">t</text><text xml:space="preserve" font-family="ComicSansMS,Comic Sans MS" font-size="114.0" fill="#FFFFFF" transform="matrix(1.00, 0.00, -0.00, -1.00, 1089.0, 74.4)">e</text><text xml:space="preserve" font-family="ComicSansMS,Comic Sans MS" font-size="114.0" fill="#FFFFFF" transform="matrix(1.00, 0.00, -0.00, -1.00, 1151.5, 74.4)">s</text><text xml:space="preserve" font-family="ComicSansMS,Comic Sans MS" font-size="114.0" fill="#FFFFFF" transform="matrix(1.00, 0.00, -0.00, -1.00, 1206.9, 74.4)">.</text><g><clipPath id="clip0x7f8760b3b3e0"><path d="M 1441.0 180.0 L 1596.0 180.0 L 1596.0 79.0 L 1441.0 79.0 Z M 1440.5 180.0 "></path></clipPath><g clip-path="url(#clip0x7f8760b3b3e0)"><g><clipPath id="clip0x7f8760b3bae0"><path d="M 1440.5 79.2 L 1595.6 79.2 L 1595.6 180.0 L 1440.5 180.0 Z M 1440.5 79.2 "></path></clipPath><g clip-path="url(#clip0x7f8760b3bae0)"><image xlink:href="../../BF6DC8B6-E505-4222-AA15-A9E26ADAED33/assets/80853EFD8D24BCE501047C376B8C7833.png" width="260.00" height="194.00" transform="matrix(0.66, 0.00, -0.00, -0.66, 1425.0, 180.0)"></image></g></g></g></g><g><clipPath id="clip0x7f8760b3d310"><path d="M 1405.0 52.4 L 1445.6 52.4 L 1445.6 92.8 L 1405.0 92.8 Z M 1405.0 52.4 "></path></clipPath><g clip-path="url(#clip0x7f8760b3d310)"><path d="M 1425.3 91.6 L 1431.1 79.2 L 1444.2 77.2 L 1434.8 67.5 L 1437.0 53.8 L 1425.3 60.3 L 1413.6 53.8 L 1415.9 67.5 L 1406.4 77.2 L 1419.5 79.2 Z M 1425.3 91.6 " fill="#C3D69B"></path><path d="M 19.9 0.0 L 25.7 12.4 L 38.8 14.4 L 29.3 24.1 L 31.6 37.8 L 19.9 31.3 L 8.2 37.8 L 10.4 24.1 L 1.0 14.4 L 14.0 12.4 Z M 19.9 0.0 " fill="none" stroke="#000000" stroke-width="1.00" stroke-linejoin="bevel" transform="matrix(1.00, 0.00, 0.00, -1.00, 1405.4, 91.6)"></path></g></g></g></svg>