<?xml version="1.0" encoding="UTF-8" standalone="no"?><svg xmlns="http://www.w3.org/2000/svg" xmlns:xlink="http://www.w3.org/1999/xlink" clip-rule="evenodd" stroke-miterlimit="10" viewBox="0 0 463 104"><desc>SVG generated by Keynote</desc><defs></defs><g transform="matrix(1.00, 0.00, -0.00, -1.00, 0.0, 104.0)"><text xml:space="preserve" font-family="ArialRoundedMTBold,Arial Rounded MT Bold" font-size="48.0" fill="#FFFFFF" transform="matrix(1.00, 0.00, -0.00, -1.00, -0.2, 67.0)">e</text><text xml:space="preserve" font-family="ArialRoundedMTBold,Arial Rounded MT Bold" font-size="48.0" fill="#FFFFFF" transform="matrix(1.00, 0.00, -0.00, -1.00, 28.4, 67.0)">l</text><text xml:space="preserve" font-family="ArialRoundedMTBold,Arial Rounded MT Bold" font-size="48.0" fill="#FFFFFF" transform="matrix(1.00, 0.00, -0.00, -1.00, 41.4, 67.0)"> </text><text xml:space="preserve" font-family="ArialRoundedMTBold,Arial Rounded MT Bold" font-size="48.0" fill="#FFFFFF" transform="matrix(1.00, 0.00, -0.00, -1.00, 53.4, 67.0)">n</text><text xml:space="preserve" font-family="ArialRoundedMTBold,Arial Rounded MT Bold" font-size="48.0" fill="#FFFFFF" transform="matrix(1.00, 0.00, -0.00, -1.00, 82.4, 67.0)">ú</text><text xml:space="preserve" font-family="ArialRoundedMTBold,Arial Rounded MT Bold" font-size="48.0" fill="#FFFFFF" transform="matrix(1.00, 0.00, -0.00, -1.00, 111.4, 67.0)">m</text><text xml:space="preserve" font-family="ArialRoundedMTBold,Arial Rounded MT Bold" font-size="48.0" fill="#FFFFFF" transform="matrix(1.00, 0.00, -0.00, -1.00, 153.8, 67.0)">e</text><text xml:space="preserve" font-family="ArialRoundedMTBold,Arial Rounded MT Bold" font-size="48.0" fill="#FFFFFF" transform="matrix(1.00, 0.00, -0.00, -1.00, 182.4, 67.0)">r</text><text xml:space="preserve" font-family="ArialRoundedMTBold,Arial Rounded MT Bold" font-size="48.0" fill="#FFFFFF" transform="matrix(1.00, 0.00, -0.00, -1.00, 201.6, 67.0)">o</text><text xml:space="preserve" font-family="ArialRoundedMTBold,Arial Rounded MT Bold" font-size="48.0" fill="#FFFFFF" transform="matrix(1.00, 0.00, -0.00, -1.00, 230.6, 67.0)"> </text><text xml:space="preserve" font-family="ArialRoundedMTBold,Arial Rounded MT Bold" font-size="48.0" fill="#FFFFFF" transform="matrix(1.00, 0.00, -0.00, -1.00, 242.6, 67.0)">m</text><text xml:space="preserve" font-family="ArialRoundedMTBold,Arial Rounded MT Bold" font-size="48.0" fill="#FFFFFF" transform="matrix(1.00, 0.00, -0.00, -1.00, 285.0, 67.0)">a</text><text xml:space="preserve" font-family="ArialRoundedMTBold,Arial Rounded MT Bold" font-size="48.0" fill="#FFFFFF" transform="matrix(1.00, 0.00, -0.00, -1.00, 313.5, 67.0)">r</text><text xml:space="preserve" font-family="ArialRoundedMTBold,Arial Rounded MT Bold" font-size="48.0" fill="#FFFFFF" transform="matrix(1.00, 0.00, -0.00, -1.00, 333.3, 67.0)">c</text><text xml:space="preserve" font-family="ArialRoundedMTBold,Arial Rounded MT Bold" font-size="48.0" fill="#FFFFFF" transform="matrix(1.00, 0.00, -0.00, -1.00, 361.9, 67.0)">a</text><text xml:space="preserve" font-family="ArialRoundedMTBold,Arial Rounded MT Bold" font-size="48.0" fill="#FFFFFF" transform="matrix(1.00, 0.00, -0.00, -1.00, 390.4, 67.0)">d</text><text xml:space="preserve" font-family="ArialRoundedMTBold,Arial Rounded MT Bold" font-size="48.0" fill="#FFFFFF" transform="matrix(1.00, 0.00, -0.00, -1.00, 420.4, 67.0)">o</text><text xml:space="preserve" font-family="ArialRoundedMTBold,Arial Rounded MT Bold" font-size="48.0" fill="#FFFFFF" transform="matrix(1.00, 0.00, -0.00, -1.00, 449.4, 67.0)"> </text><text xml:space="preserve" font-family="ArialRoundedMTBold,Arial Rounded MT Bold" font-size="48.0" fill="#FFFFFF" transform="matrix(1.00, 0.00, -0.00, -1.00, 461.4, 67.0)"> </text><text xml:space="preserve" font-family="ArialRoundedMTBold,Arial Rounded MT Bold" font-size="48.0" fill="#FFFFFF" transform="matrix(1.00, 0.00, -0.00, -1.00, 2.5, 12.0)">s</text><text xml:space="preserve" font-family="ArialRoundedMTBold,Arial Rounded MT Bold" font-size="48.0" fill="#FFFFFF" transform="matrix(1.00, 0.00, -0.00, -1.00, 28.5, 12.0)">e</text><text xml:space="preserve" font-family="ArialRoundedMTBold,Arial Rounded MT Bold" font-size="48.0" fill="#FFFFFF" transform="matrix(1.00, 0.00, -0.00, -1.00, 57.1, 12.0)"> </text><text xml:space="preserve" font-family="ArialRoundedMTBold,Arial Rounded MT Bold" font-size="48.0" fill="#FFFFFF" transform="matrix(1.00, 0.00, -0.00, -1.00, 69.1, 12.0)">q</text><text xml:space="preserve" font-family="ArialRoundedMTBold,Arial Rounded MT Bold" font-size="48.0" fill="#FFFFFF" transform="matrix(1.00, 0.00, -0.00, -1.00, 99.1, 12.0)">u</text><text xml:space="preserve" font-family="ArialRoundedMTBold,Arial Rounded MT Bold" font-size="48.0" fill="#FFFFFF" transform="matrix(1.00, 0.00, -0.00, -1.00, 128.1, 12.0)">e</text><text xml:space="preserve" font-family="ArialRoundedMTBold,Arial Rounded MT Bold" font-size="48.0" fill="#FFFFFF" transform="matrix(1.00, 0.00, -0.00, -1.00, 156.6, 12.0)">d</text><text xml:space="preserve" font-family="ArialRoundedMTBold,Arial Rounded MT Bold" font-size="48.0" fill="#FFFFFF" transform="matrix(1.00, 0.00, -0.00, -1.00, 186.6, 12.0)">a</text><text xml:space="preserve" font-family="ArialRoundedMTBold,Arial Rounded MT Bold" font-size="48.0" fill="#FFFFFF" transform="matrix(1.00, 0.00, -0.00, -1.00, 215.1, 12.0)"> </text><text xml:space="preserve" font-family="ArialRoundedMTBold,Arial Rounded MT Bold" font-size="48.0" fill="#FFFFFF" transform="matrix(1.00, 0.00, -0.00, -1.00, 227.1, 12.0)">l</text><text xml:space="preserve" font-family="ArialRoundedMTBold,Arial Rounded MT Bold" font-size="48.0" fill="#FFFFFF" transform="matrix(1.00, 0.00, -0.00, -1.00, 240.1, 12.0)">o</text><text xml:space="preserve" font-family="ArialRoundedMTBold,Arial Rounded MT Bold" font-size="48.0" fill="#FFFFFF" transform="matrix(1.00, 0.00, -0.00, -1.00, 269.1, 12.0)"> </text><text xml:space="preserve" font-family="ArialRoundedMTBold,Arial Rounded MT Bold" font-size="48.0" fill="#FFFFFF" transform="matrix(1.00, 0.00, -0.00, -1.00, 281.1, 12.0)">m</text><text xml:space="preserve" font-family="ArialRoundedMTBold,Arial Rounded MT Bold" font-size="48.0" fill="#FFFFFF" transform="matrix(1.00, 0.00, -0.00, -1.00, 323.6, 12.0)">i</text><text xml:space="preserve" font-family="ArialRoundedMTBold,Arial Rounded MT Bold" font-size="48.0" fill="#FFFFFF" transform="matrix(1.00, 0.00, -0.00, -1.00, 336.6, 12.0)">s</text><text xml:space="preserve" font-family="ArialRoundedMTBold,Arial Rounded MT Bold" font-size="48.0" fill="#FFFFFF" transform="matrix(1.00, 0.00, -0.00, -1.00, 362.6, 12.0)">m</text><text xml:space="preserve" font-family="ArialRoundedMTBold,Arial Rounded MT Bold" font-size="48.0" fill="#FFFFFF" transform="matrix(1.00, 0.00, -0.00, -1.00, 405.1, 12.0)">o</text><text xml:space="preserve" font-family="ArialRoundedMTBold,Arial Rounded MT Bold" font-size="48.0" fill="#FFFFFF" transform="matrix(1.00, 0.00, -0.00, -1.00, 431.7, 12.0)">.</text></g></svg>