<?xml version="1.0" encoding="UTF-8" standalone="no"?><svg xmlns="http://www.w3.org/2000/svg" xmlns:xlink="http://www.w3.org/1999/xlink" clip-rule="evenodd" stroke-miterlimit="10" viewBox="0 0 1920 1080"><desc>SVG generated by Keynote</desc><defs></defs><g transform="matrix(1.00, 0.00, -0.00, -1.00, 0.0, 1080.0)"><path d="M 0.0 1080.0 L 1920.0 1080.0 L 1920.0 0.0 L 0.0 0.0 Z M 0.0 1080.0 " fill="#FFFFFF"></path><text xml:space="preserve" font-family="Calibri,Calibri" font-size="76.0" fill="#FFFFFF" transform="matrix(1.00, 0.00, -0.00, -1.00, 405.5, 819.8)">0</text><text xml:space="preserve" font-family="Calibri,Calibri" font-size="76.0" fill="#FFFFFF" transform="matrix(1.00, 0.00, -0.00, -1.00, 444.0, 819.8)">	</text><text xml:space="preserve" font-family="Calibri,Calibri" font-size="76.0" fill="#FFFFFF" transform="matrix(1.00, 0.00, -0.00, -1.00, 472.0, 819.8)"></text><text xml:space="preserve" font-family="Calibri,Calibri" font-size="76.0" fill="#FFFFFF" transform="matrix(1.00, 0.00, -0.00, -1.00, 472.0, 819.8)"> </text><text xml:space="preserve" font-family="Calibri,Calibri" font-size="76.0" fill="#FFFFFF" transform="matrix(1.00, 0.00, -0.00, -1.00, 489.2, 819.8)"> </text><text xml:space="preserve" font-family="Calibri,Calibri" font-size="76.0" fill="#FFFFFF" transform="matrix(1.00, 0.00, -0.00, -1.00, 506.4, 819.8)">	</text><text xml:space="preserve" font-family="Calibri,Calibri" font-size="76.0" fill="#FFFFFF" transform="matrix(1.00, 0.00, -0.00, -1.00, 534.4, 819.8)"></text><text xml:space="preserve" font-family="Calibri,Calibri" font-size="76.0" fill="#FFFFFF" transform="matrix(1.00, 0.00, -0.00, -1.00, 534.4, 819.8)"> </text><text xml:space="preserve" font-family="Calibri,Calibri" font-size="76.0" fill="#FFFFFF" transform="matrix(1.00, 0.00, -0.00, -1.00, 551.5, 819.8)"> </text><text xml:space="preserve" font-family="Calibri,Calibri" font-size="76.0" fill="#FFFFFF" transform="matrix(1.00, 0.00, -0.00, -1.00, 568.7, 819.8)">	</text><text xml:space="preserve" font-family="Calibri,Calibri" font-size="76.0" fill="#FFFFFF" transform="matrix(1.00, 0.00, -0.00, -1.00, 596.7, 819.8)"></text><text xml:space="preserve" font-family="Calibri,Calibri" font-size="76.0" fill="#FFFFFF" transform="matrix(1.00, 0.00, -0.00, -1.00, 596.7, 819.8)"> </text><text xml:space="preserve" font-family="Calibri,Calibri" font-size="76.0" fill="#FFFFFF" transform="matrix(1.00, 0.00, -0.00, -1.00, 613.9, 819.8)"> </text><text xml:space="preserve" font-family="Calibri,Calibri" font-size="76.0" fill="#FFFFFF" transform="matrix(1.00, 0.00, -0.00, -1.00, 631.0, 819.8)">1</text><text xml:space="preserve" font-family="Calibri,Calibri" font-size="76.0" fill="#FFFFFF" transform="matrix(1.00, 0.00, -0.00, -1.00, 669.5, 819.8)">	</text><text xml:space="preserve" font-family="Calibri,Calibri" font-size="76.0" fill="#FFFFFF" transform="matrix(1.00, 0.00, -0.00, -1.00, 697.5, 819.8)"></text><text xml:space="preserve" font-family="Calibri,Calibri" font-size="76.0" fill="#FFFFFF" transform="matrix(1.00, 0.00, -0.00, -1.00, 697.5, 819.8)"> </text><text xml:space="preserve" font-family="Calibri,Calibri" font-size="76.0" fill="#FFFFFF" transform="matrix(1.00, 0.00, -0.00, -1.00, 714.7, 819.8)"> </text><text xml:space="preserve" font-family="Calibri,Calibri" font-size="76.0" fill="#FFFFFF" transform="matrix(1.00, 0.00, -0.00, -1.00, 731.9, 819.8)">	</text><text xml:space="preserve" font-family="Calibri,Calibri" font-size="76.0" fill="#FFFFFF" transform="matrix(1.00, 0.00, -0.00, -1.00, 759.9, 819.8)"></text><text xml:space="preserve" font-family="Calibri,Calibri" font-size="76.0" fill="#FFFFFF" transform="matrix(1.00, 0.00, -0.00, -1.00, 759.9, 819.8)"> </text><text xml:space="preserve" font-family="Calibri,Calibri" font-size="76.0" fill="#FFFFFF" transform="matrix(1.00, 0.00, -0.00, -1.00, 777.0, 819.8)"> </text><text xml:space="preserve" font-family="Calibri,Calibri" font-size="76.0" fill="#FFFFFF" transform="matrix(1.00, 0.00, -0.00, -1.00, 794.2, 819.8)">	</text><text xml:space="preserve" font-family="Calibri,Calibri" font-size="76.0" fill="#FFFFFF" transform="matrix(1.00, 0.00, -0.00, -1.00, 822.2, 819.8)"></text><text xml:space="preserve" font-family="Calibri,Calibri" font-size="76.0" fill="#FFFFFF" transform="matrix(1.00, 0.00, -0.00, -1.00, 822.2, 819.8)"> </text><text xml:space="preserve" font-family="Calibri,Calibri" font-size="76.0" fill="#FFFFFF" transform="matrix(1.00, 0.00, -0.00, -1.00, 839.4, 819.8)"> </text><text xml:space="preserve" font-family="Calibri,Calibri" font-size="76.0" fill="#FFFFFF" transform="matrix(1.00, 0.00, -0.00, -1.00, 856.5, 819.8)">2</text><text xml:space="preserve" font-family="Calibri,Calibri" font-size="76.0" fill="#FFFFFF" transform="matrix(1.00, 0.00, -0.00, -1.00, 895.0, 819.8)">	</text><text xml:space="preserve" font-family="Calibri,Calibri" font-size="76.0" fill="#FFFFFF" transform="matrix(1.00, 0.00, -0.00, -1.00, 923.0, 819.8)"></text><text xml:space="preserve" font-family="Calibri,Calibri" font-size="76.0" fill="#FFFFFF" transform="matrix(1.00, 0.00, -0.00, -1.00, 923.0, 819.8)"> </text><text xml:space="preserve" font-family="Calibri,Calibri" font-size="76.0" fill="#FFFFFF" transform="matrix(1.00, 0.00, -0.00, -1.00, 940.2, 819.8)"> </text><text xml:space="preserve" font-family="Calibri,Calibri" font-size="76.0" fill="#FFFFFF" transform="matrix(1.00, 0.00, -0.00, -1.00, 957.4, 819.8)">	</text><text xml:space="preserve" font-family="Calibri,Calibri" font-size="76.0" fill="#FFFFFF" transform="matrix(1.00, 0.00, -0.00, -1.00, 985.4, 819.8)"></text><text xml:space="preserve" font-family="Calibri,Calibri" font-size="76.0" fill="#FFFFFF" transform="matrix(1.00, 0.00, -0.00, -1.00, 985.4, 819.8)"> </text><text xml:space="preserve" font-family="Calibri,Calibri" font-size="76.0" fill="#FFFFFF" transform="matrix(1.00, 0.00, -0.00, -1.00, 1002.5, 819.8)"> </text><text xml:space="preserve" font-family="Calibri,Calibri" font-size="76.0" fill="#FFFFFF" transform="matrix(1.00, 0.00, -0.00, -1.00, 1019.7, 819.8)">	</text><text xml:space="preserve" font-family="Calibri,Calibri" font-size="76.0" fill="#FFFFFF" transform="matrix(1.00, 0.00, -0.00, -1.00, 1047.7, 819.8)"></text><text xml:space="preserve" font-family="Calibri,Calibri" font-size="76.0" fill="#FFFFFF" transform="matrix(1.00, 0.00, -0.00, -1.00, 1047.7, 819.8)"> </text><text xml:space="preserve" font-family="Calibri,Calibri" font-size="76.0" fill="#FFFFFF" transform="matrix(1.00, 0.00, -0.00, -1.00, 1064.9, 819.8)"> </text><text xml:space="preserve" font-family="Calibri,Calibri" font-size="76.0" fill="#FFFFFF" transform="matrix(1.00, 0.00, -0.00, -1.00, 1082.0, 819.8)">3</text><text xml:space="preserve" font-family="Calibri,Calibri" font-size="76.0" fill="#FFFFFF" transform="matrix(1.00, 0.00, -0.00, -1.00, 1120.5, 819.8)">	</text><text xml:space="preserve" font-family="Calibri,Calibri" font-size="76.0" fill="#FFFFFF" transform="matrix(1.00, 0.00, -0.00, -1.00, 1148.5, 819.8)"></text><text xml:space="preserve" font-family="Calibri,Calibri" font-size="76.0" fill="#FFFFFF" transform="matrix(1.00, 0.00, -0.00, -1.00, 1148.5, 819.8)"> </text><text xml:space="preserve" font-family="Calibri,Calibri" font-size="76.0" fill="#FFFFFF" transform="matrix(1.00, 0.00, -0.00, -1.00, 1165.7, 819.8)"> </text><text xml:space="preserve" font-family="Calibri,Calibri" font-size="76.0" fill="#FFFFFF" transform="matrix(1.00, 0.00, -0.00, -1.00, 1182.9, 819.8)">	</text><text xml:space="preserve" font-family="Calibri,Calibri" font-size="76.0" fill="#FFFFFF" transform="matrix(1.00, 0.00, -0.00, -1.00, 1210.9, 819.8)"></text><text xml:space="preserve" font-family="Calibri,Calibri" font-size="76.0" fill="#FFFFFF" transform="matrix(1.00, 0.00, -0.00, -1.00, 1210.9, 819.8)"> </text><text xml:space="preserve" font-family="Calibri,Calibri" font-size="76.0" fill="#FFFFFF" transform="matrix(1.00, 0.00, -0.00, -1.00, 1228.0, 819.8)"> </text><text xml:space="preserve" font-family="Calibri,Calibri" font-size="76.0" fill="#FFFFFF" transform="matrix(1.00, 0.00, -0.00, -1.00, 1245.2, 819.8)">	</text><text xml:space="preserve" font-family="Calibri,Calibri" font-size="76.0" fill="#FFFFFF" transform="matrix(1.00, 0.00, -0.00, -1.00, 1273.2, 819.8)"></text><text xml:space="preserve" font-family="Calibri,Calibri" font-size="76.0" fill="#FFFFFF" transform="matrix(1.00, 0.00, -0.00, -1.00, 1273.2, 819.8)"> </text><text xml:space="preserve" font-family="Calibri,Calibri" font-size="76.0" fill="#FFFFFF" transform="matrix(1.00, 0.00, -0.00, -1.00, 1290.4, 819.8)"> </text><text xml:space="preserve" font-family="Calibri,Calibri" font-size="76.0" fill="#FFFFFF" transform="matrix(1.00, 0.00, -0.00, -1.00, 1307.5, 819.8)">4</text><text xml:space="preserve" font-family="ArialMT,Arial" font-size="50.0" fill="#000000" transform="matrix(1.00, 0.00, -0.00, -1.00, 405.5, 1002.2)">S</text><text xml:space="preserve" font-family="ArialMT,Arial" font-size="50.0" fill="#000000" transform="matrix(1.00, 0.00, -0.00, -1.00, 438.9, 1002.2)">i</text><text xml:space="preserve" font-family="ArialMT,Arial" font-size="50.0" fill="#000000" transform="matrix(1.00, 0.00, -0.00, -1.00, 450.0, 1002.2)"> </text><text xml:space="preserve" font-family="ArialMT,Arial" font-size="50.0" fill="#000000" transform="matrix(1.00, 0.00, -0.00, -1.00, 463.9, 1002.2)">e</text><text xml:space="preserve" font-family="ArialMT,Arial" font-size="50.0" fill="#000000" transform="matrix(1.00, 0.00, -0.00, -1.00, 491.7, 1002.2)">l</text><text xml:space="preserve" font-family="ArialMT,Arial" font-size="50.0" fill="#000000" transform="matrix(1.00, 0.00, -0.00, -1.00, 502.8, 1002.2)"> </text><text xml:space="preserve" font-family="ArialMT,Arial" font-size="50.0" fill="#000000" transform="matrix(1.00, 0.00, -0.00, -1.00, 516.7, 1002.2)">n</text><text xml:space="preserve" font-family="ArialMT,Arial" font-size="50.0" fill="#000000" transform="matrix(1.00, 0.00, -0.00, -1.00, 544.5, 1002.2)">ú</text><text xml:space="preserve" font-family="ArialMT,Arial" font-size="50.0" fill="#000000" transform="matrix(1.00, 0.00, -0.00, -1.00, 572.3, 1002.2)">m</text><text xml:space="preserve" font-family="ArialMT,Arial" font-size="50.0" fill="#000000" transform="matrix(1.00, 0.00, -0.00, -1.00, 614.0, 1002.2)">e</text><text xml:space="preserve" font-family="ArialMT,Arial" font-size="50.0" fill="#000000" transform="matrix(1.00, 0.00, -0.00, -1.00, 641.8, 1002.2)">r</text><text xml:space="preserve" font-family="ArialMT,Arial" font-size="50.0" fill="#000000" transform="matrix(1.00, 0.00, -0.00, -1.00, 658.5, 1002.2)">o</text><text xml:space="preserve" font-family="ArialMT,Arial" font-size="50.0" fill="#000000" transform="matrix(1.00, 0.00, -0.00, -1.00, 686.3, 1002.2)"> </text><text xml:space="preserve" font-family="ArialMT,Arial" font-size="50.0" fill="#000000" transform="matrix(1.00, 0.00, -0.00, -1.00, 700.2, 1002.2)">a</text><text xml:space="preserve" font-family="ArialMT,Arial" font-size="50.0" fill="#000000" transform="matrix(1.00, 0.00, -0.00, -1.00, 728.0, 1002.2)"> </text><text xml:space="preserve" font-family="ArialMT,Arial" font-size="50.0" fill="#000000" transform="matrix(1.00, 0.00, -0.00, -1.00, 741.9, 1002.2)">l</text><text xml:space="preserve" font-family="ArialMT,Arial" font-size="50.0" fill="#000000" transform="matrix(1.00, 0.00, -0.00, -1.00, 753.0, 1002.2)">a</text><text xml:space="preserve" font-family="ArialMT,Arial" font-size="50.0" fill="#000000" transform="matrix(1.00, 0.00, -0.00, -1.00, 780.8, 1002.2)"> </text><text xml:space="preserve" font-family="ArialMT,Arial" font-size="50.0" fill="#000000" transform="matrix(1.00, 0.00, -0.00, -1.00, 794.7, 1002.2)">d</text><text xml:space="preserve" font-family="ArialMT,Arial" font-size="50.0" fill="#000000" transform="matrix(1.00, 0.00, -0.00, -1.00, 822.5, 1002.2)">e</text><text xml:space="preserve" font-family="ArialMT,Arial" font-size="50.0" fill="#000000" transform="matrix(1.00, 0.00, -0.00, -1.00, 850.3, 1002.2)">r</text><text xml:space="preserve" font-family="ArialMT,Arial" font-size="50.0" fill="#000000" transform="matrix(1.00, 0.00, -0.00, -1.00, 867.0, 1002.2)">e</text><text xml:space="preserve" font-family="ArialMT,Arial" font-size="50.0" fill="#000000" transform="matrix(1.00, 0.00, -0.00, -1.00, 894.8, 1002.2)">c</text><text xml:space="preserve" font-family="ArialMT,Arial" font-size="50.0" fill="#000000" transform="matrix(1.00, 0.00, -0.00, -1.00, 919.8, 1002.2)">h</text><text xml:space="preserve" font-family="ArialMT,Arial" font-size="50.0" fill="#000000" transform="matrix(1.00, 0.00, -0.00, -1.00, 947.6, 1002.2)">a</text><text xml:space="preserve" font-family="ArialMT,Arial" font-size="50.0" fill="#000000" transform="matrix(1.00, 0.00, -0.00, -1.00, 975.4, 1002.2)"> </text><text xml:space="preserve" font-family="ArialMT,Arial" font-size="50.0" fill="#000000" transform="matrix(1.00, 0.00, -0.00, -1.00, 989.3, 1002.2)">d</text><text xml:space="preserve" font-family="ArialMT,Arial" font-size="50.0" fill="#000000" transform="matrix(1.00, 0.00, -0.00, -1.00, 1017.1, 1002.2)">e</text><text xml:space="preserve" font-family="ArialMT,Arial" font-size="50.0" fill="#000000" transform="matrix(1.00, 0.00, -0.00, -1.00, 1044.9, 1002.2)">l</text><text xml:space="preserve" font-family="ArialMT,Arial" font-size="50.0" fill="#000000" transform="matrix(1.00, 0.00, -0.00, -1.00, 1056.0, 1002.2)"> </text><text xml:space="preserve" font-family="ArialMT,Arial" font-size="50.0" fill="#000000" transform="matrix(1.00, 0.00, -0.00, -1.00, 1069.9, 1002.2)">n</text><text xml:space="preserve" font-family="ArialMT,Arial" font-size="50.0" fill="#000000" transform="matrix(1.00, 0.00, -0.00, -1.00, 1097.7, 1002.2)">ú</text><text xml:space="preserve" font-family="ArialMT,Arial" font-size="50.0" fill="#000000" transform="matrix(1.00, 0.00, -0.00, -1.00, 1125.6, 1002.2)">m</text><text xml:space="preserve" font-family="ArialMT,Arial" font-size="50.0" fill="#000000" transform="matrix(1.00, 0.00, -0.00, -1.00, 1167.2, 1002.2)">e</text><text xml:space="preserve" font-family="ArialMT,Arial" font-size="50.0" fill="#000000" transform="matrix(1.00, 0.00, -0.00, -1.00, 1195.0, 1002.2)">r</text><text xml:space="preserve" font-family="ArialMT,Arial" font-size="50.0" fill="#000000" transform="matrix(1.00, 0.00, -0.00, -1.00, 1211.7, 1002.2)">o</text><text xml:space="preserve" font-family="ArialMT,Arial" font-size="50.0" fill="#000000" transform="matrix(1.00, 0.00, -0.00, -1.00, 1239.5, 1002.2)"> </text><text xml:space="preserve" font-family="ArialMT,Arial" font-size="50.0" fill="#000000" transform="matrix(1.00, 0.00, -0.00, -1.00, 1253.4, 1002.2)">m</text><text xml:space="preserve" font-family="ArialMT,Arial" font-size="50.0" fill="#000000" transform="matrix(1.00, 0.00, -0.00, -1.00, 1295.0, 1002.2)">a</text><text xml:space="preserve" font-family="ArialMT,Arial" font-size="50.0" fill="#000000" transform="matrix(1.00, 0.00, -0.00, -1.00, 1322.8, 1002.2)">r</text><text xml:space="preserve" font-family="ArialMT,Arial" font-size="50.0" fill="#000000" transform="matrix(1.00, 0.00, -0.00, -1.00, 1339.5, 1002.2)">c</text><text xml:space="preserve" font-family="ArialMT,Arial" font-size="50.0" fill="#000000" transform="matrix(1.00, 0.00, -0.00, -1.00, 1364.5, 1002.2)">a</text><text xml:space="preserve" font-family="ArialMT,Arial" font-size="50.0" fill="#000000" transform="matrix(1.00, 0.00, -0.00, -1.00, 1392.3, 1002.2)">d</text><text xml:space="preserve" font-family="ArialMT,Arial" font-size="50.0" fill="#000000" transform="matrix(1.00, 0.00, -0.00, -1.00, 1420.1, 1002.2)">o</text><text xml:space="preserve" font-family="ArialMT,Arial" font-size="50.0" fill="#000000" transform="matrix(1.00, 0.00, -0.00, -1.00, 1447.9, 1002.2)"> </text><text xml:space="preserve" font-family="ArialMT,Arial" font-size="50.0" fill="#000000" transform="matrix(1.00, 0.00, -0.00, -1.00, 1461.8, 1002.2)">e</text><text xml:space="preserve" font-family="ArialMT,Arial" font-size="50.0" fill="#000000" transform="matrix(1.00, 0.00, -0.00, -1.00, 1489.6, 1002.2)">s</text><path d="M 0.4 -0.4 L 72.4 -0.4 L 72.4 82.6 L 0.4 82.6 Z M 0.0 0.0 " fill="none" stroke="#FFFFFF" stroke-width="6.00" stroke-linejoin="bevel" transform="matrix(1.00, 0.00, 0.00, -1.00, 1440.6, 894.6)"></path><text xml:space="preserve" font-family="Calibri,Calibri" font-size="76.0" fill="#FFFFFF" transform="matrix(1.00, 0.00, -0.00, -1.00, 1125.5, 819.8)">5</text><text xml:space="preserve" font-family="Calibri,Calibri" font-size="76.0" fill="#FFFFFF" transform="matrix(1.00, 0.00, -0.00, -1.00, 1164.0, 819.8)">	</text><text xml:space="preserve" font-family="Calibri,Calibri" font-size="76.0" fill="#FFFFFF" transform="matrix(1.00, 0.00, -0.00, -1.00, 1192.0, 819.8)"></text><text xml:space="preserve" font-family="Calibri,Calibri" font-size="76.0" fill="#FFFFFF" transform="matrix(1.00, 0.00, -0.00, -1.00, 1192.0, 819.8)"> </text><text xml:space="preserve" font-family="Calibri,Calibri" font-size="76.0" fill="#FFFFFF" transform="matrix(1.00, 0.00, -0.00, -1.00, 1209.2, 819.8)"> </text><text xml:space="preserve" font-family="Calibri,Calibri" font-size="76.0" fill="#FFFFFF" transform="matrix(1.00, 0.00, -0.00, -1.00, 1226.4, 819.8)">	</text><text xml:space="preserve" font-family="Calibri,Calibri" font-size="76.0" fill="#FFFFFF" transform="matrix(1.00, 0.00, -0.00, -1.00, 1254.4, 819.8)"></text><text xml:space="preserve" font-family="Calibri,Calibri" font-size="76.0" fill="#FFFFFF" transform="matrix(1.00, 0.00, -0.00, -1.00, 1254.4, 819.8)"> </text><text xml:space="preserve" font-family="Calibri,Calibri" font-size="76.0" fill="#FFFFFF" transform="matrix(1.00, 0.00, -0.00, -1.00, 1271.5, 819.8)"> </text><text xml:space="preserve" font-family="Calibri,Calibri" font-size="76.0" fill="#FFFFFF" transform="matrix(1.00, 0.00, -0.00, -1.00, 1288.7, 819.8)">	</text><text xml:space="preserve" font-family="Calibri,Calibri" font-size="76.0" fill="#FFFFFF" transform="matrix(1.00, 0.00, -0.00, -1.00, 1316.7, 819.8)"></text><text xml:space="preserve" font-family="Calibri,Calibri" font-size="76.0" fill="#FFFFFF" transform="matrix(1.00, 0.00, -0.00, -1.00, 1316.7, 819.8)"> </text><text xml:space="preserve" font-family="Calibri,Calibri" font-size="76.0" fill="#FFFFFF" transform="matrix(1.00, 0.00, -0.00, -1.00, 1333.9, 819.8)"> </text><text xml:space="preserve" font-family="Calibri,Calibri" font-size="76.0" fill="#FFFFFF" transform="matrix(1.00, 0.00, -0.00, -1.00, 1351.0, 819.8)">6</text><text xml:space="preserve" font-family="Calibri,Calibri" font-size="76.0" fill="#FFFFFF" transform="matrix(1.00, 0.00, -0.00, -1.00, 1389.5, 819.8)">	</text><text xml:space="preserve" font-family="Calibri,Calibri" font-size="76.0" fill="#FFFFFF" transform="matrix(1.00, 0.00, -0.00, -1.00, 1417.5, 819.8)"></text><text xml:space="preserve" font-family="Calibri,Calibri" font-size="76.0" fill="#FFFFFF" transform="matrix(1.00, 0.00, -0.00, -1.00, 1417.5, 819.8)"> </text><text xml:space="preserve" font-family="Calibri,Calibri" font-size="76.0" fill="#FFFFFF" transform="matrix(1.00, 0.00, -0.00, -1.00, 1434.7, 819.8)"> </text><text xml:space="preserve" font-family="Calibri,Calibri" font-size="76.0" fill="#FFFFFF" transform="matrix(1.00, 0.00, -0.00, -1.00, 1451.9, 819.8)">	</text><text xml:space="preserve" font-family="Calibri,Calibri" font-size="76.0" fill="#FFFFFF" transform="matrix(1.00, 0.00, -0.00, -1.00, 1479.9, 819.8)"></text><text xml:space="preserve" font-family="Calibri,Calibri" font-size="76.0" fill="#FFFFFF" transform="matrix(1.00, 0.00, -0.00, -1.00, 1479.9, 819.8)"> </text><text xml:space="preserve" font-family="Calibri,Calibri" font-size="76.0" fill="#FFFFFF" transform="matrix(1.00, 0.00, -0.00, -1.00, 1497.0, 819.8)"> </text><text xml:space="preserve" font-family="Calibri,Calibri" font-size="76.0" fill="#FFFFFF" transform="matrix(1.00, 0.00, -0.00, -1.00, 1514.2, 819.8)">	</text><text xml:space="preserve" font-family="Calibri,Calibri" font-size="76.0" fill="#FFFFFF" transform="matrix(1.00, 0.00, -0.00, -1.00, 1542.2, 819.8)"></text><text xml:space="preserve" font-family="Calibri,Calibri" font-size="76.0" fill="#FFFFFF" transform="matrix(1.00, 0.00, -0.00, -1.00, 1542.2, 819.8)"> </text><text xml:space="preserve" font-family="Calibri,Calibri" font-size="76.0" fill="#FFFFFF" transform="matrix(1.00, 0.00, -0.00, -1.00, 1559.4, 819.8)"> </text><text xml:space="preserve" font-family="Calibri,Calibri" font-size="76.0" fill="#FFFFFF" transform="matrix(1.00, 0.00, -0.00, -1.00, 1576.5, 819.8)">7</text><text xml:space="preserve" font-family="Calibri,Calibri" font-size="76.0" fill="#FFFFFF" transform="matrix(1.00, 0.00, -0.00, -1.00, 1615.0, 819.8)">	</text><text xml:space="preserve" font-family="Calibri,Calibri" font-size="76.0" fill="#FFFFFF" transform="matrix(1.00, 0.00, -0.00, -1.00, 1643.0, 819.8)"></text><text xml:space="preserve" font-family="Calibri,Calibri" font-size="76.0" fill="#FFFFFF" transform="matrix(1.00, 0.00, -0.00, -1.00, 1643.0, 819.8)"> </text><text xml:space="preserve" font-family="Calibri,Calibri" font-size="76.0" fill="#FFFFFF" transform="matrix(1.00, 0.00, -0.00, -1.00, 1660.2, 819.8)"> </text><text xml:space="preserve" font-family="Calibri,Calibri" font-size="76.0" fill="#FFFFFF" transform="matrix(1.00, 0.00, -0.00, -1.00, 1677.4, 819.8)">	</text><text xml:space="preserve" font-family="Calibri,Calibri" font-size="76.0" fill="#FFFFFF" transform="matrix(1.00, 0.00, -0.00, -1.00, 1705.4, 819.8)"></text><text xml:space="preserve" font-family="Calibri,Calibri" font-size="76.0" fill="#FFFFFF" transform="matrix(1.00, 0.00, -0.00, -1.00, 1705.4, 819.8)"> </text><text xml:space="preserve" font-family="Calibri,Calibri" font-size="76.0" fill="#FFFFFF" transform="matrix(1.00, 0.00, -0.00, -1.00, 1722.5, 819.8)"> </text><text xml:space="preserve" font-family="Calibri,Calibri" font-size="76.0" fill="#FFFFFF" transform="matrix(1.00, 0.00, -0.00, -1.00, 1739.7, 819.8)">	</text><text xml:space="preserve" font-family="Calibri,Calibri" font-size="76.0" fill="#FFFFFF" transform="matrix(1.00, 0.00, -0.00, -1.00, 1767.7, 819.8)"></text><text xml:space="preserve" font-family="Calibri,Calibri" font-size="76.0" fill="#FFFFFF" transform="matrix(1.00, 0.00, -0.00, -1.00, 1767.7, 819.8)"> </text><text xml:space="preserve" font-family="Calibri,Calibri" font-size="76.0" fill="#FFFFFF" transform="matrix(1.00, 0.00, -0.00, -1.00, 1784.9, 819.8)"> </text><text xml:space="preserve" font-family="Calibri,Calibri" font-size="76.0" fill="#FFFFFF" transform="matrix(1.00, 0.00, -0.00, -1.00, 1802.0, 819.8)">8</text><text xml:space="preserve" font-family="Calibri,Calibri" font-size="76.0" fill="#FFFFFF" transform="matrix(1.00, 0.00, -0.00, -1.00, 1840.5, 819.8)">	</text><text xml:space="preserve" font-family="Calibri,Calibri" font-size="76.0" fill="#FFFFFF" transform="matrix(1.00, 0.00, -0.00, -1.00, 1868.5, 819.8)"></text><text xml:space="preserve" font-family="Calibri,Calibri" font-size="76.0" fill="#FFFFFF" transform="matrix(1.00, 0.00, -0.00, -1.00, 1868.5, 819.8)"> </text><text xml:space="preserve" font-family="Calibri,Calibri" font-size="76.0" fill="#FFFFFF" transform="matrix(1.00, 0.00, -0.00, -1.00, 1885.7, 819.8)"> </text><text xml:space="preserve" font-family="Calibri,Calibri" font-size="76.0" fill="#FFFFFF" transform="matrix(1.00, 0.00, -0.00, -1.00, 1902.9, 819.8)">	</text><text xml:space="preserve" font-family="Calibri,Calibri" font-size="76.0" fill="#FFFFFF" transform="matrix(1.00, 0.00, -0.00, -1.00, 1930.9, 819.8)"></text><text xml:space="preserve" font-family="Calibri,Calibri" font-size="76.0" fill="#FFFFFF" transform="matrix(1.00, 0.00, -0.00, -1.00, 1930.9, 819.8)"> </text><text xml:space="preserve" font-family="Calibri,Calibri" font-size="76.0" fill="#FFFFFF" transform="matrix(1.00, 0.00, -0.00, -1.00, 1948.0, 819.8)"> </text><text xml:space="preserve" font-family="Calibri,Calibri" font-size="76.0" fill="#FFFFFF" transform="matrix(1.00, 0.00, -0.00, -1.00, 1965.2, 819.8)">	</text><text xml:space="preserve" font-family="Calibri,Calibri" font-size="76.0" fill="#FFFFFF" transform="matrix(1.00, 0.00, -0.00, -1.00, 1993.2, 819.8)"></text><text xml:space="preserve" font-family="Calibri,Calibri" font-size="76.0" fill="#FFFFFF" transform="matrix(1.00, 0.00, -0.00, -1.00, 1993.2, 819.8)"> </text><text xml:space="preserve" font-family="Calibri,Calibri" font-size="76.0" fill="#FFFFFF" transform="matrix(1.00, 0.00, -0.00, -1.00, 2010.4, 819.8)"> </text><text xml:space="preserve" font-family="Calibri,Calibri" font-size="76.0" fill="#FFFFFF" transform="matrix(1.00, 0.00, -0.00, -1.00, 2027.5, 819.8)">9</text></g></svg>