<?xml version="1.0" encoding="UTF-8" standalone="no"?><svg xmlns="http://www.w3.org/2000/svg" xmlns:xlink="http://www.w3.org/1999/xlink" clip-rule="evenodd" stroke-miterlimit="10" viewBox="0 0 1150 111"><desc>SVG generated by Keynote</desc><defs></defs><g transform="matrix(1.00, 0.00, -0.00, -1.00, 0.0, 111.0)"><path d="M 2.0 109.0 L 1148.0 109.0 L 1148.0 2.0 L 2.0 2.0 Z M 1.6 109.2 " fill="#FFFFFF"></path><g><clipPath id="clip0x7f875f458bd0"><path d="M -12.1 -11.7 L 1161.9 -11.7 L 1161.9 122.9 L -12.1 122.9 Z M -12.1 -11.7 "></path></clipPath><g clip-path="url(#clip0x7f875f458bd0)"><text xml:space="preserve" font-family="ComicSansMS,Comic Sans MS" font-size="64.0" fill="#000000" transform="matrix(1.00, 0.00, -0.00, -1.00, 322.6, 29.2)">L</text><text xml:space="preserve" font-family="ComicSansMS,Comic Sans MS" font-size="64.0" fill="#000000" transform="matrix(1.00, 0.00, -0.00, -1.00, 357.8, 29.2)">e</text><text xml:space="preserve" font-family="ComicSansMS,Comic Sans MS" font-size="64.0" fill="#000000" transform="matrix(1.00, 0.00, -0.00, -1.00, 392.9, 29.2)">a</text><text xml:space="preserve" font-family="ComicSansMS,Comic Sans MS" font-size="64.0" fill="#000000" transform="matrix(1.00, 0.00, -0.00, -1.00, 425.6, 29.2)"> </text><text xml:space="preserve" font-family="ComicSansMS,Comic Sans MS" font-size="64.0" fill="#000000" transform="matrix(1.00, 0.00, -0.00, -1.00, 444.7, 29.2)">e</text><text xml:space="preserve" font-family="ComicSansMS,Comic Sans MS" font-size="64.0" fill="#000000" transform="matrix(1.00, 0.00, -0.00, -1.00, 479.8, 29.2)">s</text><text xml:space="preserve" font-family="ComicSansMS,Comic Sans MS" font-size="64.0" fill="#000000" transform="matrix(1.00, 0.00, -0.00, -1.00, 510.9, 29.2)">t</text><text xml:space="preserve" font-family="ComicSansMS,Comic Sans MS" font-size="64.0" fill="#000000" transform="matrix(1.00, 0.00, -0.00, -1.00, 541.1, 29.2)">e</text><text xml:space="preserve" font-family="ComicSansMS,Comic Sans MS" font-size="64.0" fill="#000000" transform="matrix(1.00, 0.00, -0.00, -1.00, 576.1, 29.2)"> </text><text xml:space="preserve" font-family="ComicSansMS,Comic Sans MS" font-size="64.0" fill="#000000" transform="matrix(1.00, 0.00, -0.00, -1.00, 595.2, 29.2)">n</text><text xml:space="preserve" font-family="ComicSansMS,Comic Sans MS" font-size="64.0" fill="#000000" transform="matrix(1.00, 0.00, -0.00, -1.00, 628.8, 29.2)">ú</text><text xml:space="preserve" font-family="ComicSansMS,Comic Sans MS" font-size="64.0" fill="#000000" transform="matrix(1.00, 0.00, -0.00, -1.00, 662.1, 29.2)">m</text><text xml:space="preserve" font-family="ComicSansMS,Comic Sans MS" font-size="64.0" fill="#000000" transform="matrix(1.00, 0.00, -0.00, -1.00, 711.8, 29.2)">e</text><text xml:space="preserve" font-family="ComicSansMS,Comic Sans MS" font-size="64.0" fill="#000000" transform="matrix(1.00, 0.00, -0.00, -1.00, 746.8, 29.2)">r</text><text xml:space="preserve" font-family="ComicSansMS,Comic Sans MS" font-size="64.0" fill="#000000" transform="matrix(1.00, 0.00, -0.00, -1.00, 777.6, 29.2)">o</text><text xml:space="preserve" font-family="ComicSansMS,Comic Sans MS" font-size="64.0" fill="#000000" transform="matrix(1.00, 0.00, -0.00, -1.00, 811.3, 29.2)">.</text></g></g></g></svg>