<?xml version="1.0" encoding="UTF-8" standalone="no"?><svg xmlns="http://www.w3.org/2000/svg" xmlns:xlink="http://www.w3.org/1999/xlink" clip-rule="evenodd" stroke-miterlimit="10" viewBox="0 0 1920 1080"><desc>SVG generated by Keynote</desc><defs></defs><g transform="matrix(1.00, 0.00, -0.00, -1.00, 0.0, 1080.0)"><path d="M 0.0 1080.0 L 1920.0 1080.0 L 1920.0 0.0 L 0.0 0.0 Z M 0.0 1080.0 " fill="#FFFFFF"></path><path d="M 964.5 109.8 L 970.3 97.4 L 983.4 95.4 L 974.0 85.7 L 976.2 72.0 L 964.5 78.5 L 952.8 72.0 L 955.1 85.7 L 945.6 95.4 L 958.7 97.4 Z M 964.5 109.8 " fill="#000000"></path><path d="M 19.9 0.0 L 25.7 12.4 L 38.8 14.4 L 29.3 24.1 L 31.6 37.8 L 19.9 31.3 L 8.2 37.8 L 10.4 24.1 L 1.0 14.4 L 14.0 12.4 Z M 19.9 0.0 " fill="none" stroke="#000000" stroke-width="1.00" stroke-linejoin="bevel" transform="matrix(1.00, 0.00, 0.00, -1.00, 944.6, 109.8)"></path><image xlink:href="../../3B3F4AB4-FD2B-40DB-A32E-96238FDE2279/assets/0C944A3D92FA9DC0BB6C13BD031BE2DB.png" width="1252.00" height="21.00" transform="matrix(1.00, 0.00, -0.00, -1.00, 319.4, 965.1)" opacity="0.38"></image><path d="M -0.4 0.1 L 1238.6 0.1 " fill="none" stroke="#000000" stroke-width="7.00" stroke-linejoin="bevel" transform="matrix(1.00, 0.00, 0.00, -1.00, 326.4, 957.6)"></path><image xlink:href="../../3B3F4AB4-FD2B-40DB-A32E-96238FDE2279/assets/E4EA2E42D8C84644101EE9A9A3D8622C.png" width="1252.00" height="21.00" transform="matrix(1.00, 0.00, -0.00, -1.00, 319.4, 144.3)" opacity="0.38"></image><path d="M -0.4 0.3 L 1238.6 0.3 " fill="none" stroke="#000000" stroke-width="7.00" stroke-linejoin="bevel" transform="matrix(1.00, 0.00, 0.00, -1.00, 326.4, 136.8)"></path><text xml:space="preserve" font-family="Avenir-Light,Avenir" font-size="86.0" fill="#000000" transform="matrix(1.00, 0.00, -0.00, -1.00, 761.0, 680.5)">R</text><text xml:space="preserve" font-family="Avenir-Light,Avenir" font-size="86.0" fill="#000000" transform="matrix(1.00, 0.00, -0.00, -1.00, 812.0, 680.5)">e</text><text xml:space="preserve" font-family="Avenir-Light,Avenir" font-size="86.0" fill="#000000" transform="matrix(1.00, 0.00, -0.00, -1.00, 859.8, 680.5)">d</text><text xml:space="preserve" font-family="Avenir-Light,Avenir" font-size="86.0" fill="#000000" transform="matrix(1.00, 0.00, -0.00, -1.00, 912.3, 680.5)">o</text><text xml:space="preserve" font-family="Avenir-Light,Avenir" font-size="86.0" fill="#000000" transform="matrix(1.00, 0.00, -0.00, -1.00, 963.4, 680.5)">n</text><text xml:space="preserve" font-family="Avenir-Light,Avenir" font-size="86.0" fill="#000000" transform="matrix(1.00, 0.00, -0.00, -1.00, 1011.2, 680.5)">d</text><text xml:space="preserve" font-family="Avenir-Light,Avenir" font-size="86.0" fill="#000000" transform="matrix(1.00, 0.00, -0.00, -1.00, 1063.8, 680.5)">e</text><text xml:space="preserve" font-family="Avenir-Light,Avenir" font-size="86.0" fill="#000000" transform="matrix(1.00, 0.00, -0.00, -1.00, 1111.6, 680.5)">o</text><text xml:space="preserve" font-family="Avenir-Light,Avenir" font-size="86.0" fill="#000000" transform="matrix(1.00, 0.00, -0.00, -1.00, 1162.7, 680.5)"> </text><text xml:space="preserve" font-family="Avenir-Light,Avenir" font-size="86.0" fill="#000000" transform="matrix(1.00, 0.00, -0.00, -1.00, 1185.0, 680.5)"> </text><text xml:space="preserve" font-family="Avenir-Light,Avenir" font-size="86.0" fill="#000000" transform="matrix(1.00, 0.00, -0.00, -1.00, 563.4, 563.5)">e</text><text xml:space="preserve" font-family="Avenir-Light,Avenir" font-size="86.0" fill="#000000" transform="matrix(1.00, 0.00, -0.00, -1.00, 611.2, 563.5)">s</text><text xml:space="preserve" font-family="Avenir-Light,Avenir" font-size="86.0" fill="#000000" transform="matrix(1.00, 0.00, -0.00, -1.00, 647.9, 563.5)"> </text><text xml:space="preserve" font-family="Avenir-Light,Avenir" font-size="86.0" fill="#000000" transform="matrix(1.00, 0.00, -0.00, -1.00, 670.2, 563.5)">u</text><text xml:space="preserve" font-family="Avenir-Light,Avenir" font-size="86.0" fill="#000000" transform="matrix(1.00, 0.00, -0.00, -1.00, 718.1, 563.5)">n</text><text xml:space="preserve" font-family="Avenir-Light,Avenir" font-size="86.0" fill="#000000" transform="matrix(1.00, 0.00, -0.00, -1.00, 765.9, 563.5)">a</text><text xml:space="preserve" font-family="Avenir-Light,Avenir" font-size="86.0" fill="#000000" transform="matrix(1.00, 0.00, -0.00, -1.00, 810.5, 563.5)"> </text><text xml:space="preserve" font-family="Avenir-Light,Avenir" font-size="86.0" fill="#000000" transform="matrix(1.00, 0.00, -0.00, -1.00, 832.9, 563.5)">t</text><text xml:space="preserve" font-family="Avenir-Light,Avenir" font-size="86.0" fill="#000000" transform="matrix(1.00, 0.00, -0.00, -1.00, 861.5, 563.5)">é</text><text xml:space="preserve" font-family="Avenir-Light,Avenir" font-size="86.0" fill="#000000" transform="matrix(1.00, 0.00, -0.00, -1.00, 909.3, 563.5)">c</text><text xml:space="preserve" font-family="Avenir-Light,Avenir" font-size="86.0" fill="#000000" transform="matrix(1.00, 0.00, -0.00, -1.00, 950.7, 563.5)">n</text><text xml:space="preserve" font-family="Avenir-Light,Avenir" font-size="86.0" fill="#000000" transform="matrix(1.00, 0.00, -0.00, -1.00, 998.5, 563.5)">i</text><text xml:space="preserve" font-family="Avenir-Light,Avenir" font-size="86.0" fill="#000000" transform="matrix(1.00, 0.00, -0.00, -1.00, 1019.1, 563.5)">c</text><text xml:space="preserve" font-family="Avenir-Light,Avenir" font-size="86.0" fill="#000000" transform="matrix(1.00, 0.00, -0.00, -1.00, 1060.5, 563.5)">a</text><text xml:space="preserve" font-family="Avenir-Light,Avenir" font-size="86.0" fill="#000000" transform="matrix(1.00, 0.00, -0.00, -1.00, 1105.1, 563.5)"> </text><text xml:space="preserve" font-family="Avenir-Light,Avenir" font-size="86.0" fill="#000000" transform="matrix(1.00, 0.00, -0.00, -1.00, 1127.5, 563.5)">u</text><text xml:space="preserve" font-family="Avenir-Light,Avenir" font-size="86.0" fill="#000000" transform="matrix(1.00, 0.00, -0.00, -1.00, 1175.3, 563.5)">s</text><text xml:space="preserve" font-family="Avenir-Light,Avenir" font-size="86.0" fill="#000000" transform="matrix(1.00, 0.00, -0.00, -1.00, 1212.0, 563.5)">a</text><text xml:space="preserve" font-family="Avenir-Light,Avenir" font-size="86.0" fill="#000000" transform="matrix(1.00, 0.00, -0.00, -1.00, 1256.6, 563.5)">d</text><text xml:space="preserve" font-family="Avenir-Light,Avenir" font-size="86.0" fill="#000000" transform="matrix(1.00, 0.00, -0.00, -1.00, 1309.1, 563.5)">o</text><text xml:space="preserve" font-family="Avenir-Light,Avenir" font-size="86.0" fill="#000000" transform="matrix(1.00, 0.00, -0.00, -1.00, 1360.2, 563.5)"> </text><text xml:space="preserve" font-family="Avenir-Light,Avenir" font-size="86.0" fill="#000000" transform="matrix(1.00, 0.00, -0.00, -1.00, 1382.6, 563.5)"> </text><text xml:space="preserve" font-family="Avenir-Light,Avenir" font-size="86.0" fill="#000000" transform="matrix(1.00, 0.00, -0.00, -1.00, 485.4, 446.5)">p</text><text xml:space="preserve" font-family="Avenir-Light,Avenir" font-size="86.0" fill="#000000" transform="matrix(1.00, 0.00, -0.00, -1.00, 537.9, 446.5)">a</text><text xml:space="preserve" font-family="Avenir-Light,Avenir" font-size="86.0" fill="#000000" transform="matrix(1.00, 0.00, -0.00, -1.00, 582.6, 446.5)">r</text><text xml:space="preserve" font-family="Avenir-Light,Avenir" font-size="86.0" fill="#000000" transform="matrix(1.00, 0.00, -0.00, -1.00, 611.2, 446.5)">a</text><text xml:space="preserve" font-family="Avenir-Light,Avenir" font-size="86.0" fill="#000000" transform="matrix(1.00, 0.00, -0.00, -1.00, 655.8, 446.5)"> </text><text xml:space="preserve" font-family="Avenir-Light,Avenir" font-size="86.0" fill="#000000" transform="matrix(1.00, 0.00, -0.00, -1.00, 678.2, 446.5)">e</text><text xml:space="preserve" font-family="Avenir-Light,Avenir" font-size="86.0" fill="#000000" transform="matrix(1.00, 0.00, -0.00, -1.00, 726.0, 446.5)">s</text><text xml:space="preserve" font-family="Avenir-Light,Avenir" font-size="86.0" fill="#000000" transform="matrix(1.00, 0.00, -0.00, -1.00, 762.6, 446.5)">t</text><text xml:space="preserve" font-family="Avenir-Light,Avenir" font-size="86.0" fill="#000000" transform="matrix(1.00, 0.00, -0.00, -1.00, 791.4, 446.5)">i</text><text xml:space="preserve" font-family="Avenir-Light,Avenir" font-size="86.0" fill="#000000" transform="matrix(1.00, 0.00, -0.00, -1.00, 812.0, 446.5)">m</text><text xml:space="preserve" font-family="Avenir-Light,Avenir" font-size="86.0" fill="#000000" transform="matrix(1.00, 0.00, -0.00, -1.00, 885.3, 446.5)">a</text><text xml:space="preserve" font-family="Avenir-Light,Avenir" font-size="86.0" fill="#000000" transform="matrix(1.00, 0.00, -0.00, -1.00, 929.9, 446.5)">r</text><text xml:space="preserve" font-family="Avenir-Light,Avenir" font-size="86.0" fill="#000000" transform="matrix(1.00, 0.00, -0.00, -1.00, 958.6, 446.5)"> </text><text xml:space="preserve" font-family="Avenir-Light,Avenir" font-size="86.0" fill="#000000" transform="matrix(1.00, 0.00, -0.00, -1.00, 980.9, 446.5)">o</text><text xml:space="preserve" font-family="Avenir-Light,Avenir" font-size="86.0" fill="#000000" transform="matrix(1.00, 0.00, -0.00, -1.00, 1032.0, 446.5)"> </text><text xml:space="preserve" font-family="Avenir-Light,Avenir" font-size="86.0" fill="#000000" transform="matrix(1.00, 0.00, -0.00, -1.00, 1054.4, 446.5)">a</text><text xml:space="preserve" font-family="Avenir-Light,Avenir" font-size="86.0" fill="#000000" transform="matrix(1.00, 0.00, -0.00, -1.00, 1099.0, 446.5)">p</text><text xml:space="preserve" font-family="Avenir-Light,Avenir" font-size="86.0" fill="#000000" transform="matrix(1.00, 0.00, -0.00, -1.00, 1151.5, 446.5)">r</text><text xml:space="preserve" font-family="Avenir-Light,Avenir" font-size="86.0" fill="#000000" transform="matrix(1.00, 0.00, -0.00, -1.00, 1178.6, 446.5)">o</text><text xml:space="preserve" font-family="Avenir-Light,Avenir" font-size="86.0" fill="#000000" transform="matrix(1.00, 0.00, -0.00, -1.00, 1229.7, 446.5)">x</text><text xml:space="preserve" font-family="Avenir-Light,Avenir" font-size="86.0" fill="#000000" transform="matrix(1.00, 0.00, -0.00, -1.00, 1271.1, 446.5)">i</text><text xml:space="preserve" font-family="Avenir-Light,Avenir" font-size="86.0" fill="#000000" transform="matrix(1.00, 0.00, -0.00, -1.00, 1291.7, 446.5)">m</text><text xml:space="preserve" font-family="Avenir-Light,Avenir" font-size="86.0" fill="#000000" transform="matrix(1.00, 0.00, -0.00, -1.00, 1365.0, 446.5)">a</text><text xml:space="preserve" font-family="Avenir-Light,Avenir" font-size="86.0" fill="#000000" transform="matrix(1.00, 0.00, -0.00, -1.00, 1409.6, 446.5)">r</text><text xml:space="preserve" font-family="Avenir-Light,Avenir" font-size="86.0" fill="#000000" transform="matrix(1.00, 0.00, -0.00, -1.00, 1438.3, 446.5)"> </text><text xml:space="preserve" font-family="Avenir-Light,Avenir" font-size="86.0" fill="#000000" transform="matrix(1.00, 0.00, -0.00, -1.00, 1460.6, 446.5)"> </text><text xml:space="preserve" font-family="Avenir-Light,Avenir" font-size="86.0" fill="#000000" transform="matrix(1.00, 0.00, -0.00, -1.00, 533.8, 329.5)">e</text><text xml:space="preserve" font-family="Avenir-Light,Avenir" font-size="86.0" fill="#000000" transform="matrix(1.00, 0.00, -0.00, -1.00, 581.7, 329.5)">l</text><text xml:space="preserve" font-family="Avenir-Light,Avenir" font-size="86.0" fill="#000000" transform="matrix(1.00, 0.00, -0.00, -1.00, 602.3, 329.5)"> </text><text xml:space="preserve" font-family="Avenir-Light,Avenir" font-size="86.0" fill="#000000" transform="matrix(1.00, 0.00, -0.00, -1.00, 624.7, 329.5)">v</text><text xml:space="preserve" font-family="Avenir-Light,Avenir" font-size="86.0" fill="#000000" transform="matrix(1.00, 0.00, -0.00, -1.00, 664.5, 329.5)">a</text><text xml:space="preserve" font-family="Avenir-Light,Avenir" font-size="86.0" fill="#000000" transform="matrix(1.00, 0.00, -0.00, -1.00, 709.1, 329.5)">l</text><text xml:space="preserve" font-family="Avenir-Light,Avenir" font-size="86.0" fill="#000000" transform="matrix(1.00, 0.00, -0.00, -1.00, 729.8, 329.5)">o</text><text xml:space="preserve" font-family="Avenir-Light,Avenir" font-size="86.0" fill="#000000" transform="matrix(1.00, 0.00, -0.00, -1.00, 780.8, 329.5)">r</text><text xml:space="preserve" font-family="Avenir-Light,Avenir" font-size="86.0" fill="#000000" transform="matrix(1.00, 0.00, -0.00, -1.00, 809.5, 329.5)"> </text><text xml:space="preserve" font-family="Avenir-Light,Avenir" font-size="86.0" fill="#000000" transform="matrix(1.00, 0.00, -0.00, -1.00, 831.8, 329.5)">d</text><text xml:space="preserve" font-family="Avenir-Light,Avenir" font-size="86.0" fill="#000000" transform="matrix(1.00, 0.00, -0.00, -1.00, 884.4, 329.5)">e</text><text xml:space="preserve" font-family="Avenir-Light,Avenir" font-size="86.0" fill="#000000" transform="matrix(1.00, 0.00, -0.00, -1.00, 932.2, 329.5)"> </text><text xml:space="preserve" font-family="Avenir-Light,Avenir" font-size="86.0" fill="#000000" transform="matrix(1.00, 0.00, -0.00, -1.00, 954.6, 329.5)">u</text><text xml:space="preserve" font-family="Avenir-Light,Avenir" font-size="86.0" fill="#000000" transform="matrix(1.00, 0.00, -0.00, -1.00, 1002.4, 329.5)">n</text><text xml:space="preserve" font-family="Avenir-Light,Avenir" font-size="86.0" fill="#000000" transform="matrix(1.00, 0.00, -0.00, -1.00, 1050.2, 329.5)"> </text><text xml:space="preserve" font-family="Avenir-Light,Avenir" font-size="86.0" fill="#000000" transform="matrix(1.00, 0.00, -0.00, -1.00, 1072.5, 329.5)">n</text><text xml:space="preserve" font-family="Avenir-Light,Avenir" font-size="86.0" fill="#000000" transform="matrix(1.00, 0.00, -0.00, -1.00, 1120.4, 329.5)">ú</text><text xml:space="preserve" font-family="Avenir-Light,Avenir" font-size="86.0" fill="#000000" transform="matrix(1.00, 0.00, -0.00, -1.00, 1168.2, 329.5)">m</text><text xml:space="preserve" font-family="Avenir-Light,Avenir" font-size="86.0" fill="#000000" transform="matrix(1.00, 0.00, -0.00, -1.00, 1241.5, 329.5)">e</text><text xml:space="preserve" font-family="Avenir-Light,Avenir" font-size="86.0" fill="#000000" transform="matrix(1.00, 0.00, -0.00, -1.00, 1289.3, 329.5)">r</text><text xml:space="preserve" font-family="Avenir-Light,Avenir" font-size="86.0" fill="#000000" transform="matrix(1.00, 0.00, -0.00, -1.00, 1316.4, 329.5)">o</text><text xml:space="preserve" font-family="Avenir-Light,Avenir" font-size="86.0" fill="#000000" transform="matrix(1.00, 0.00, -0.00, -1.00, 1367.4, 329.5)">.</text></g></svg>