<?xml version="1.0" encoding="UTF-8" standalone="no"?><svg xmlns="http://www.w3.org/2000/svg" xmlns:xlink="http://www.w3.org/1999/xlink" clip-rule="evenodd" stroke-miterlimit="10" viewBox="0 0 974 421"><desc>SVG generated by Keynote</desc><defs></defs><g transform="matrix(1.00, 0.00, -0.00, -1.00, 0.0, 421.0)"><text xml:space="preserve" font-family="Avenir-Light,Avenir" font-size="86.0" fill="#000000" transform="matrix(1.00, 0.00, -0.00, -1.00, 272.0, 354.5)">R</text><text xml:space="preserve" font-family="Avenir-Light,Avenir" font-size="86.0" fill="#000000" transform="matrix(1.00, 0.00, -0.00, -1.00, 323.0, 354.5)">e</text><text xml:space="preserve" font-family="Avenir-Light,Avenir" font-size="86.0" fill="#000000" transform="matrix(1.00, 0.00, -0.00, -1.00, 370.8, 354.5)">d</text><text xml:space="preserve" font-family="Avenir-Light,Avenir" font-size="86.0" fill="#000000" transform="matrix(1.00, 0.00, -0.00, -1.00, 423.3, 354.5)">o</text><text xml:space="preserve" font-family="Avenir-Light,Avenir" font-size="86.0" fill="#000000" transform="matrix(1.00, 0.00, -0.00, -1.00, 474.4, 354.5)">n</text><text xml:space="preserve" font-family="Avenir-Light,Avenir" font-size="86.0" fill="#000000" transform="matrix(1.00, 0.00, -0.00, -1.00, 522.2, 354.5)">d</text><text xml:space="preserve" font-family="Avenir-Light,Avenir" font-size="86.0" fill="#000000" transform="matrix(1.00, 0.00, -0.00, -1.00, 574.8, 354.5)">e</text><text xml:space="preserve" font-family="Avenir-Light,Avenir" font-size="86.0" fill="#000000" transform="matrix(1.00, 0.00, -0.00, -1.00, 622.6, 354.5)">o</text><text xml:space="preserve" font-family="Avenir-Light,Avenir" font-size="86.0" fill="#000000" transform="matrix(1.00, 0.00, -0.00, -1.00, 673.7, 354.5)"> </text><text xml:space="preserve" font-family="Avenir-Light,Avenir" font-size="86.0" fill="#000000" transform="matrix(1.00, 0.00, -0.00, -1.00, 696.0, 354.5)"> </text><text xml:space="preserve" font-family="Avenir-Light,Avenir" font-size="86.0" fill="#000000" transform="matrix(1.00, 0.00, -0.00, -1.00, 74.4, 237.5)">e</text><text xml:space="preserve" font-family="Avenir-Light,Avenir" font-size="86.0" fill="#000000" transform="matrix(1.00, 0.00, -0.00, -1.00, 122.2, 237.5)">s</text><text xml:space="preserve" font-family="Avenir-Light,Avenir" font-size="86.0" fill="#000000" transform="matrix(1.00, 0.00, -0.00, -1.00, 158.9, 237.5)"> </text><text xml:space="preserve" font-family="Avenir-Light,Avenir" font-size="86.0" fill="#000000" transform="matrix(1.00, 0.00, -0.00, -1.00, 181.2, 237.5)">u</text><text xml:space="preserve" font-family="Avenir-Light,Avenir" font-size="86.0" fill="#000000" transform="matrix(1.00, 0.00, -0.00, -1.00, 229.1, 237.5)">n</text><text xml:space="preserve" font-family="Avenir-Light,Avenir" font-size="86.0" fill="#000000" transform="matrix(1.00, 0.00, -0.00, -1.00, 276.9, 237.5)">a</text><text xml:space="preserve" font-family="Avenir-Light,Avenir" font-size="86.0" fill="#000000" transform="matrix(1.00, 0.00, -0.00, -1.00, 321.5, 237.5)"> </text><text xml:space="preserve" font-family="Avenir-Light,Avenir" font-size="86.0" fill="#000000" transform="matrix(1.00, 0.00, -0.00, -1.00, 343.9, 237.5)">t</text><text xml:space="preserve" font-family="Avenir-Light,Avenir" font-size="86.0" fill="#000000" transform="matrix(1.00, 0.00, -0.00, -1.00, 372.5, 237.5)">é</text><text xml:space="preserve" font-family="Avenir-Light,Avenir" font-size="86.0" fill="#000000" transform="matrix(1.00, 0.00, -0.00, -1.00, 420.3, 237.5)">c</text><text xml:space="preserve" font-family="Avenir-Light,Avenir" font-size="86.0" fill="#000000" transform="matrix(1.00, 0.00, -0.00, -1.00, 461.7, 237.5)">n</text><text xml:space="preserve" font-family="Avenir-Light,Avenir" font-size="86.0" fill="#000000" transform="matrix(1.00, 0.00, -0.00, -1.00, 509.5, 237.5)">i</text><text xml:space="preserve" font-family="Avenir-Light,Avenir" font-size="86.0" fill="#000000" transform="matrix(1.00, 0.00, -0.00, -1.00, 530.1, 237.5)">c</text><text xml:space="preserve" font-family="Avenir-Light,Avenir" font-size="86.0" fill="#000000" transform="matrix(1.00, 0.00, -0.00, -1.00, 571.5, 237.5)">a</text><text xml:space="preserve" font-family="Avenir-Light,Avenir" font-size="86.0" fill="#000000" transform="matrix(1.00, 0.00, -0.00, -1.00, 616.1, 237.5)"> </text><text xml:space="preserve" font-family="Avenir-Light,Avenir" font-size="86.0" fill="#000000" transform="matrix(1.00, 0.00, -0.00, -1.00, 638.5, 237.5)">u</text><text xml:space="preserve" font-family="Avenir-Light,Avenir" font-size="86.0" fill="#000000" transform="matrix(1.00, 0.00, -0.00, -1.00, 686.3, 237.5)">s</text><text xml:space="preserve" font-family="Avenir-Light,Avenir" font-size="86.0" fill="#000000" transform="matrix(1.00, 0.00, -0.00, -1.00, 723.0, 237.5)">a</text><text xml:space="preserve" font-family="Avenir-Light,Avenir" font-size="86.0" fill="#000000" transform="matrix(1.00, 0.00, -0.00, -1.00, 767.6, 237.5)">d</text><text xml:space="preserve" font-family="Avenir-Light,Avenir" font-size="86.0" fill="#000000" transform="matrix(1.00, 0.00, -0.00, -1.00, 820.1, 237.5)">o</text><text xml:space="preserve" font-family="Avenir-Light,Avenir" font-size="86.0" fill="#000000" transform="matrix(1.00, 0.00, -0.00, -1.00, 871.2, 237.5)"> </text><text xml:space="preserve" font-family="Avenir-Light,Avenir" font-size="86.0" fill="#000000" transform="matrix(1.00, 0.00, -0.00, -1.00, 893.6, 237.5)"> </text><text xml:space="preserve" font-family="Avenir-Light,Avenir" font-size="86.0" fill="#000000" transform="matrix(1.00, 0.00, -0.00, -1.00, -3.6, 120.5)">p</text><text xml:space="preserve" font-family="Avenir-Light,Avenir" font-size="86.0" fill="#000000" transform="matrix(1.00, 0.00, -0.00, -1.00, 48.9, 120.5)">a</text><text xml:space="preserve" font-family="Avenir-Light,Avenir" font-size="86.0" fill="#000000" transform="matrix(1.00, 0.00, -0.00, -1.00, 93.6, 120.5)">r</text><text xml:space="preserve" font-family="Avenir-Light,Avenir" font-size="86.0" fill="#000000" transform="matrix(1.00, 0.00, -0.00, -1.00, 122.2, 120.5)">a</text><text xml:space="preserve" font-family="Avenir-Light,Avenir" font-size="86.0" fill="#000000" transform="matrix(1.00, 0.00, -0.00, -1.00, 166.8, 120.5)"> </text><text xml:space="preserve" font-family="Avenir-Light,Avenir" font-size="86.0" fill="#000000" transform="matrix(1.00, 0.00, -0.00, -1.00, 189.2, 120.5)">e</text><text xml:space="preserve" font-family="Avenir-Light,Avenir" font-size="86.0" fill="#000000" transform="matrix(1.00, 0.00, -0.00, -1.00, 237.0, 120.5)">s</text><text xml:space="preserve" font-family="Avenir-Light,Avenir" font-size="86.0" fill="#000000" transform="matrix(1.00, 0.00, -0.00, -1.00, 273.6, 120.5)">t</text><text xml:space="preserve" font-family="Avenir-Light,Avenir" font-size="86.0" fill="#000000" transform="matrix(1.00, 0.00, -0.00, -1.00, 302.4, 120.5)">i</text><text xml:space="preserve" font-family="Avenir-Light,Avenir" font-size="86.0" fill="#000000" transform="matrix(1.00, 0.00, -0.00, -1.00, 323.0, 120.5)">m</text><text xml:space="preserve" font-family="Avenir-Light,Avenir" font-size="86.0" fill="#000000" transform="matrix(1.00, 0.00, -0.00, -1.00, 396.3, 120.5)">a</text><text xml:space="preserve" font-family="Avenir-Light,Avenir" font-size="86.0" fill="#000000" transform="matrix(1.00, 0.00, -0.00, -1.00, 440.9, 120.5)">r</text><text xml:space="preserve" font-family="Avenir-Light,Avenir" font-size="86.0" fill="#000000" transform="matrix(1.00, 0.00, -0.00, -1.00, 469.6, 120.5)"> </text><text xml:space="preserve" font-family="Avenir-Light,Avenir" font-size="86.0" fill="#000000" transform="matrix(1.00, 0.00, -0.00, -1.00, 491.9, 120.5)">o</text><text xml:space="preserve" font-family="Avenir-Light,Avenir" font-size="86.0" fill="#000000" transform="matrix(1.00, 0.00, -0.00, -1.00, 543.0, 120.5)"> </text><text xml:space="preserve" font-family="Avenir-Light,Avenir" font-size="86.0" fill="#000000" transform="matrix(1.00, 0.00, -0.00, -1.00, 565.4, 120.5)">a</text><text xml:space="preserve" font-family="Avenir-Light,Avenir" font-size="86.0" fill="#000000" transform="matrix(1.00, 0.00, -0.00, -1.00, 610.0, 120.5)">p</text><text xml:space="preserve" font-family="Avenir-Light,Avenir" font-size="86.0" fill="#000000" transform="matrix(1.00, 0.00, -0.00, -1.00, 662.5, 120.5)">r</text><text xml:space="preserve" font-family="Avenir-Light,Avenir" font-size="86.0" fill="#000000" transform="matrix(1.00, 0.00, -0.00, -1.00, 689.6, 120.5)">o</text><text xml:space="preserve" font-family="Avenir-Light,Avenir" font-size="86.0" fill="#000000" transform="matrix(1.00, 0.00, -0.00, -1.00, 740.7, 120.5)">x</text><text xml:space="preserve" font-family="Avenir-Light,Avenir" font-size="86.0" fill="#000000" transform="matrix(1.00, 0.00, -0.00, -1.00, 782.1, 120.5)">i</text><text xml:space="preserve" font-family="Avenir-Light,Avenir" font-size="86.0" fill="#000000" transform="matrix(1.00, 0.00, -0.00, -1.00, 802.7, 120.5)">m</text><text xml:space="preserve" font-family="Avenir-Light,Avenir" font-size="86.0" fill="#000000" transform="matrix(1.00, 0.00, -0.00, -1.00, 876.0, 120.5)">a</text><text xml:space="preserve" font-family="Avenir-Light,Avenir" font-size="86.0" fill="#000000" transform="matrix(1.00, 0.00, -0.00, -1.00, 920.6, 120.5)">r</text><text xml:space="preserve" font-family="Avenir-Light,Avenir" font-size="86.0" fill="#000000" transform="matrix(1.00, 0.00, -0.00, -1.00, 949.3, 120.5)"> </text><text xml:space="preserve" font-family="Avenir-Light,Avenir" font-size="86.0" fill="#000000" transform="matrix(1.00, 0.00, -0.00, -1.00, 971.6, 120.5)"> </text><text xml:space="preserve" font-family="Avenir-Light,Avenir" font-size="86.0" fill="#000000" transform="matrix(1.00, 0.00, -0.00, -1.00, 44.8, 3.5)">e</text><text xml:space="preserve" font-family="Avenir-Light,Avenir" font-size="86.0" fill="#000000" transform="matrix(1.00, 0.00, -0.00, -1.00, 92.7, 3.5)">l</text><text xml:space="preserve" font-family="Avenir-Light,Avenir" font-size="86.0" fill="#000000" transform="matrix(1.00, 0.00, -0.00, -1.00, 113.3, 3.5)"> </text><text xml:space="preserve" font-family="Avenir-Light,Avenir" font-size="86.0" fill="#000000" transform="matrix(1.00, 0.00, -0.00, -1.00, 135.7, 3.5)">v</text><text xml:space="preserve" font-family="Avenir-Light,Avenir" font-size="86.0" fill="#000000" transform="matrix(1.00, 0.00, -0.00, -1.00, 175.5, 3.5)">a</text><text xml:space="preserve" font-family="Avenir-Light,Avenir" font-size="86.0" fill="#000000" transform="matrix(1.00, 0.00, -0.00, -1.00, 220.1, 3.5)">l</text><text xml:space="preserve" font-family="Avenir-Light,Avenir" font-size="86.0" fill="#000000" transform="matrix(1.00, 0.00, -0.00, -1.00, 240.8, 3.5)">o</text><text xml:space="preserve" font-family="Avenir-Light,Avenir" font-size="86.0" fill="#000000" transform="matrix(1.00, 0.00, -0.00, -1.00, 291.8, 3.5)">r</text><text xml:space="preserve" font-family="Avenir-Light,Avenir" font-size="86.0" fill="#000000" transform="matrix(1.00, 0.00, -0.00, -1.00, 320.5, 3.5)"> </text><text xml:space="preserve" font-family="Avenir-Light,Avenir" font-size="86.0" fill="#000000" transform="matrix(1.00, 0.00, -0.00, -1.00, 342.8, 3.5)">d</text><text xml:space="preserve" font-family="Avenir-Light,Avenir" font-size="86.0" fill="#000000" transform="matrix(1.00, 0.00, -0.00, -1.00, 395.4, 3.5)">e</text><text xml:space="preserve" font-family="Avenir-Light,Avenir" font-size="86.0" fill="#000000" transform="matrix(1.00, 0.00, -0.00, -1.00, 443.2, 3.5)"> </text><text xml:space="preserve" font-family="Avenir-Light,Avenir" font-size="86.0" fill="#000000" transform="matrix(1.00, 0.00, -0.00, -1.00, 465.6, 3.5)">u</text><text xml:space="preserve" font-family="Avenir-Light,Avenir" font-size="86.0" fill="#000000" transform="matrix(1.00, 0.00, -0.00, -1.00, 513.4, 3.5)">n</text><text xml:space="preserve" font-family="Avenir-Light,Avenir" font-size="86.0" fill="#000000" transform="matrix(1.00, 0.00, -0.00, -1.00, 561.2, 3.5)"> </text><text xml:space="preserve" font-family="Avenir-Light,Avenir" font-size="86.0" fill="#000000" transform="matrix(1.00, 0.00, -0.00, -1.00, 583.5, 3.5)">n</text><text xml:space="preserve" font-family="Avenir-Light,Avenir" font-size="86.0" fill="#000000" transform="matrix(1.00, 0.00, -0.00, -1.00, 631.4, 3.5)">ú</text><text xml:space="preserve" font-family="Avenir-Light,Avenir" font-size="86.0" fill="#000000" transform="matrix(1.00, 0.00, -0.00, -1.00, 679.2, 3.5)">m</text><text xml:space="preserve" font-family="Avenir-Light,Avenir" font-size="86.0" fill="#000000" transform="matrix(1.00, 0.00, -0.00, -1.00, 752.5, 3.5)">e</text><text xml:space="preserve" font-family="Avenir-Light,Avenir" font-size="86.0" fill="#000000" transform="matrix(1.00, 0.00, -0.00, -1.00, 800.3, 3.5)">r</text><text xml:space="preserve" font-family="Avenir-Light,Avenir" font-size="86.0" fill="#000000" transform="matrix(1.00, 0.00, -0.00, -1.00, 827.4, 3.5)">o</text><text xml:space="preserve" font-family="Avenir-Light,Avenir" font-size="86.0" fill="#000000" transform="matrix(1.00, 0.00, -0.00, -1.00, 878.4, 3.5)">.</text></g></svg>