<?xml version="1.0" encoding="UTF-8" standalone="no"?><svg xmlns="http://www.w3.org/2000/svg" xmlns:xlink="http://www.w3.org/1999/xlink" clip-rule="evenodd" stroke-miterlimit="10" viewBox="0 0 1920 1080"><desc>SVG generated by Keynote</desc><defs></defs><g transform="matrix(1.00, 0.00, -0.00, -1.00, 0.0, 1080.0)"><path d="M 0.0 1080.0 L 1920.0 1080.0 L 1920.0 0.0 L 0.0 0.0 Z M 0.0 1080.0 " fill="#FFFFFF"></path><text xml:space="preserve" font-family="ArialRoundedMTBold,Arial Rounded MT Bold" font-size="104.0" fill="#000000" transform="matrix(1.00, 0.00, -0.00, -1.00, 758.4, 600.7)">8</text><text xml:space="preserve" font-family="ArialRoundedMTBold,Arial Rounded MT Bold" font-size="104.0" fill="#000000" transform="matrix(1.00, 0.00, -0.00, -1.00, 820.2, 600.7)"> </text><text xml:space="preserve" font-family="ArialRoundedMTBold,Arial Rounded MT Bold" font-size="104.0" fill="#000000" transform="matrix(1.00, 0.00, -0.00, -1.00, 846.2, 600.7)">4</text><text xml:space="preserve" font-family="ArialRoundedMTBold,Arial Rounded MT Bold" font-size="104.0" fill="#000000" transform="matrix(1.00, 0.00, -0.00, -1.00, 908.1, 600.7)"> </text><text xml:space="preserve" font-family="ArialRoundedMTBold,Arial Rounded MT Bold" font-size="104.0" fill="#000000" transform="matrix(1.00, 0.00, -0.00, -1.00, 934.1, 600.7)">,</text><text xml:space="preserve" font-family="ArialRoundedMTBold,Arial Rounded MT Bold" font-size="104.0" fill="#000000" transform="matrix(1.00, 0.00, -0.00, -1.00, 966.6, 600.7)"> </text><text xml:space="preserve" font-family="ArialRoundedMTBold,Arial Rounded MT Bold" font-size="104.0" fill="#000000" transform="matrix(1.00, 0.00, -0.00, -1.00, 992.6, 600.7)">7</text><text xml:space="preserve" font-family="ArialRoundedMTBold,Arial Rounded MT Bold" font-size="104.0" fill="#000000" transform="matrix(1.00, 0.00, -0.00, -1.00, 1054.4, 600.7)"> </text><text xml:space="preserve" font-family="ArialRoundedMTBold,Arial Rounded MT Bold" font-size="104.0" fill="#000000" transform="matrix(1.00, 0.00, -0.00, -1.00, 1080.4, 600.7)">2</text><text xml:space="preserve" font-family="ArialRoundedMTBold,Arial Rounded MT Bold" font-size="104.0" fill="#000000" transform="matrix(1.00, 0.00, -0.00, -1.00, 1142.3, 600.7)"> </text><text xml:space="preserve" font-family="ArialRoundedMTBold,Arial Rounded MT Bold" font-size="104.0" fill="#000000" transform="matrix(1.00, 0.00, -0.00, -1.00, 1168.3, 600.7)">9</text><path d="M 1070.5 577.5 L 1149.5 577.5 L 1149.5 569.5 L 1070.5 569.5 Z M 1071.0 577.4 " fill="#FFAA00"></path><path d="M -0.5 -0.1 L 78.5 -0.1 L 78.5 7.9 L -0.5 7.9 Z M 0.0 0.0 " fill="none" stroke="#000000" stroke-width="9.00" stroke-linejoin="bevel" transform="matrix(1.00, 0.00, 0.00, -1.00, 1071.0, 577.4)"></path><text xml:space="preserve" font-family="ArialRoundedMTBold,Arial Rounded MT Bold" font-size="76.0" fill="#000000" transform="matrix(1.00, 0.00, -0.00, -1.00, 491.9, 920.2)">R</text><text xml:space="preserve" font-family="ArialRoundedMTBold,Arial Rounded MT Bold" font-size="76.0" fill="#000000" transform="matrix(1.00, 0.00, -0.00, -1.00, 544.7, 920.2)">e</text><text xml:space="preserve" font-family="ArialRoundedMTBold,Arial Rounded MT Bold" font-size="76.0" fill="#000000" transform="matrix(1.00, 0.00, -0.00, -1.00, 589.9, 920.2)">d</text><text xml:space="preserve" font-family="ArialRoundedMTBold,Arial Rounded MT Bold" font-size="76.0" fill="#000000" transform="matrix(1.00, 0.00, -0.00, -1.00, 637.4, 920.2)">o</text><text xml:space="preserve" font-family="ArialRoundedMTBold,Arial Rounded MT Bold" font-size="76.0" fill="#000000" transform="matrix(1.00, 0.00, -0.00, -1.00, 683.3, 920.2)">n</text><text xml:space="preserve" font-family="ArialRoundedMTBold,Arial Rounded MT Bold" font-size="76.0" fill="#000000" transform="matrix(1.00, 0.00, -0.00, -1.00, 729.2, 920.2)">d</text><text xml:space="preserve" font-family="ArialRoundedMTBold,Arial Rounded MT Bold" font-size="76.0" fill="#000000" transform="matrix(1.00, 0.00, -0.00, -1.00, 776.7, 920.2)">a</text><text xml:space="preserve" font-family="ArialRoundedMTBold,Arial Rounded MT Bold" font-size="76.0" fill="#000000" transform="matrix(1.00, 0.00, -0.00, -1.00, 821.9, 920.2)"> </text><text xml:space="preserve" font-family="ArialRoundedMTBold,Arial Rounded MT Bold" font-size="76.0" fill="#000000" transform="matrix(1.00, 0.00, -0.00, -1.00, 840.9, 920.2)">a</text><text xml:space="preserve" font-family="ArialRoundedMTBold,Arial Rounded MT Bold" font-size="76.0" fill="#000000" transform="matrix(1.00, 0.00, -0.00, -1.00, 886.1, 920.2)">l</text><text xml:space="preserve" font-family="ArialRoundedMTBold,Arial Rounded MT Bold" font-size="76.0" fill="#000000" transform="matrix(1.00, 0.00, -0.00, -1.00, 906.7, 920.2)"> </text><text xml:space="preserve" font-family="ArialRoundedMTBold,Arial Rounded MT Bold" font-size="76.0" fill="#000000" transform="matrix(1.00, 0.00, -0.00, -1.00, 925.7, 920.2)">l</text><text xml:space="preserve" font-family="ArialRoundedMTBold,Arial Rounded MT Bold" font-size="76.0" fill="#000000" transform="matrix(1.00, 0.00, -0.00, -1.00, 946.3, 920.2)">u</text><text xml:space="preserve" font-family="ArialRoundedMTBold,Arial Rounded MT Bold" font-size="76.0" fill="#000000" transform="matrix(1.00, 0.00, -0.00, -1.00, 992.2, 920.2)">g</text><text xml:space="preserve" font-family="ArialRoundedMTBold,Arial Rounded MT Bold" font-size="76.0" fill="#000000" transform="matrix(1.00, 0.00, -0.00, -1.00, 1037.8, 920.2)">a</text><text xml:space="preserve" font-family="ArialRoundedMTBold,Arial Rounded MT Bold" font-size="76.0" fill="#000000" transform="matrix(1.00, 0.00, -0.00, -1.00, 1082.9, 920.2)">r</text><text xml:space="preserve" font-family="ArialRoundedMTBold,Arial Rounded MT Bold" font-size="76.0" fill="#000000" transform="matrix(1.00, 0.00, -0.00, -1.00, 1116.2, 920.2)"> </text><text xml:space="preserve" font-family="ArialRoundedMTBold,Arial Rounded MT Bold" font-size="76.0" fill="#000000" transform="matrix(1.00, 0.00, -0.00, -1.00, 1135.2, 920.2)">d</text><text xml:space="preserve" font-family="ArialRoundedMTBold,Arial Rounded MT Bold" font-size="76.0" fill="#000000" transform="matrix(1.00, 0.00, -0.00, -1.00, 1182.7, 920.2)">e</text><text xml:space="preserve" font-family="ArialRoundedMTBold,Arial Rounded MT Bold" font-size="76.0" fill="#000000" transform="matrix(1.00, 0.00, -0.00, -1.00, 1227.9, 920.2)"> </text><text xml:space="preserve" font-family="ArialRoundedMTBold,Arial Rounded MT Bold" font-size="76.0" fill="#000000" transform="matrix(1.00, 0.00, -0.00, -1.00, 1246.8, 920.2)">d</text><text xml:space="preserve" font-family="ArialRoundedMTBold,Arial Rounded MT Bold" font-size="76.0" fill="#000000" transform="matrix(1.00, 0.00, -0.00, -1.00, 1294.3, 920.2)">i</text><text xml:space="preserve" font-family="ArialRoundedMTBold,Arial Rounded MT Bold" font-size="76.0" fill="#000000" transform="matrix(1.00, 0.00, -0.00, -1.00, 1314.9, 920.2)">e</text><text xml:space="preserve" font-family="ArialRoundedMTBold,Arial Rounded MT Bold" font-size="76.0" fill="#000000" transform="matrix(1.00, 0.00, -0.00, -1.00, 1359.1, 920.2)">z</text><text xml:space="preserve" font-family="ArialRoundedMTBold,Arial Rounded MT Bold" font-size="76.0" fill="#000000" transform="matrix(1.00, 0.00, -0.00, -1.00, 1398.7, 920.2)">.</text><g><clipPath id="clip0x7f8756a82700"><path d="M 1245.8 909.7 L 1398.7 909.7 L 1398.7 915.5 L 1245.8 915.5 Z M 1245.8 909.7 "></path></clipPath><g clip-path="url(#clip0x7f8756a82700)"><path d="M 955.6 88.2 L 1107.5 88.2 " fill="none" stroke="#000000" stroke-width="3.79" transform="matrix(1.00, 0.00, 0.00, -1.00, 291.2, 1000.8)"></path></g></g><path d="M 1118.6 521.9 L 1124.5 509.4 L 1137.6 507.4 L 1128.1 497.6 L 1130.4 483.9 L 1118.6 490.4 L 1106.9 483.9 L 1109.1 497.6 L 1099.6 507.4 L 1112.7 509.4 Z M 1118.6 521.9 " fill="#000000"></path><path d="M 20.0 0.0 L 25.9 12.5 L 39.0 14.5 L 29.5 24.3 L 31.7 38.0 L 20.0 31.5 L 8.2 38.0 L 10.5 24.3 L 1.0 14.5 L 14.1 12.5 Z M 20.0 0.0 " fill="none" stroke="#000000" stroke-width="1.00" stroke-linejoin="bevel" transform="matrix(1.00, 0.00, 0.00, -1.00, 1098.6, 521.9)"></path><path d="M 1199.2 521.9 L 1205.1 509.4 L 1218.3 507.4 L 1208.7 497.6 L 1211.0 483.9 L 1199.2 490.4 L 1187.5 483.9 L 1189.7 497.6 L 1180.2 507.4 L 1193.4 509.4 Z M 1199.2 521.9 " fill="#000000"></path><path d="M 20.0 0.0 L 25.9 12.5 L 39.0 14.5 L 29.5 24.3 L 31.7 38.0 L 20.0 31.5 L 8.2 38.0 L 10.5 24.3 L 1.0 14.5 L 14.1 12.5 Z M 20.0 0.0 " fill="none" stroke="#000000" stroke-width="1.00" stroke-linejoin="bevel" transform="matrix(1.00, 0.00, 0.00, -1.00, 1179.3, 521.9)"></path><path d="M 1038.0 521.9 L 1043.8 509.4 L 1057.0 507.4 L 1047.5 497.6 L 1049.7 483.9 L 1038.0 490.4 L 1026.2 483.9 L 1028.5 497.6 L 1019.0 507.4 L 1032.1 509.4 Z M 1038.0 521.9 " fill="#000000"></path><path d="M 20.0 0.0 L 25.9 12.5 L 39.0 14.5 L 29.5 24.3 L 31.7 38.0 L 20.0 31.5 L 8.2 38.0 L 10.5 24.3 L 1.0 14.5 L 14.1 12.5 Z M 20.0 0.0 " fill="none" stroke="#000000" stroke-width="1.00" stroke-linejoin="bevel" transform="matrix(1.00, 0.00, 0.00, -1.00, 1018.0, 521.9)"></path><path d="M 957.3 521.9 L 963.2 509.4 L 976.3 507.4 L 966.8 497.6 L 969.1 483.9 L 957.3 490.4 L 945.6 483.9 L 947.8 497.6 L 938.3 507.4 L 951.4 509.4 Z M 957.3 521.9 " fill="#000000"></path><path d="M 20.0 0.0 L 25.9 12.5 L 39.0 14.5 L 29.5 24.3 L 31.7 38.0 L 20.0 31.5 L 8.2 38.0 L 10.5 24.3 L 1.0 14.5 L 14.1 12.5 Z M 20.0 0.0 " fill="none" stroke="#000000" stroke-width="1.00" stroke-linejoin="bevel" transform="matrix(1.00, 0.00, 0.00, -1.00, 937.3, 521.9)"></path><path d="M 876.7 521.9 L 882.6 509.4 L 895.7 507.4 L 886.2 497.6 L 888.4 483.9 L 876.7 490.4 L 864.9 483.9 L 867.2 497.6 L 857.7 507.4 L 870.8 509.4 Z M 876.7 521.9 " fill="#000000"></path><path d="M 20.0 0.0 L 25.9 12.5 L 39.0 14.5 L 29.5 24.3 L 31.7 38.0 L 20.0 31.5 L 8.2 38.0 L 10.5 24.3 L 1.0 14.5 L 14.1 12.5 Z M 20.0 0.0 " fill="none" stroke="#000000" stroke-width="1.00" stroke-linejoin="bevel" transform="matrix(1.00, 0.00, 0.00, -1.00, 856.7, 521.9)"></path><path d="M 796.0 521.9 L 801.9 509.4 L 815.1 507.4 L 805.5 497.6 L 807.8 483.9 L 796.0 490.4 L 784.3 483.9 L 786.5 497.6 L 777.0 507.4 L 790.2 509.4 Z M 796.0 521.9 " fill="#000000"></path><path d="M 20.0 0.0 L 25.9 12.5 L 39.0 14.5 L 29.5 24.3 L 31.7 38.0 L 20.0 31.5 L 8.2 38.0 L 10.5 24.3 L 1.0 14.5 L 14.1 12.5 Z M 20.0 0.0 " fill="none" stroke="#000000" stroke-width="1.00" stroke-linejoin="bevel" transform="matrix(1.00, 0.00, 0.00, -1.00, 776.1, 521.9)"></path><path d="M 1156.0 556.0 L 1242.0 556.0 L 1242.0 419.0 L 1156.0 419.0 Z M 1155.7 555.8 " fill="#FFFFFF"></path><g><clipPath id="clip0x7f8756a8a650"><path d="M 1134.3 397.1 L 1263.6 397.1 L 1263.6 577.3 L 1134.3 577.3 Z M 1134.3 397.1 "></path></clipPath><g clip-path="url(#clip0x7f8756a8a650)"><text xml:space="preserve" font-family="ArialRoundedMTBold,Arial Rounded MT Bold" font-size="104.0" fill="#000000" transform="matrix(1.00, 0.00, -0.00, -1.00, 1168.0, 449.1)">0</text></g></g><path d="M 748.0 556.0 L 834.0 556.0 L 834.0 419.0 L 748.0 419.0 Z M 747.9 555.8 " fill="#FFFFFF"></path><g><clipPath id="clip0x7f8756a8bff0"><path d="M 726.4 397.1 L 855.7 397.1 L 855.7 577.3 L 726.4 577.3 Z M 726.4 397.1 "></path></clipPath><g clip-path="url(#clip0x7f8756a8bff0)"><text xml:space="preserve" font-family="ArialRoundedMTBold,Arial Rounded MT Bold" font-size="104.0" fill="#000000" transform="matrix(1.00, 0.00, -0.00, -1.00, 760.2, 449.1)">8</text></g></g><path d="M 913.0 557.0 L 999.0 557.0 L 999.0 420.0 L 913.0 420.0 Z M 912.9 557.2 " fill="#FFFFFF"></path><g><clipPath id="clip0x7f8756a8d980"><path d="M 891.5 398.5 L 1020.8 398.5 L 1020.8 578.7 L 891.5 578.7 Z M 891.5 398.5 "></path></clipPath><g clip-path="url(#clip0x7f8756a8d980)"><text xml:space="preserve" font-family="ArialRoundedMTBold,Arial Rounded MT Bold" font-size="104.0" fill="#000000" transform="matrix(1.00, 0.00, -0.00, -1.00, 939.9, 450.5)">,</text><text xml:space="preserve" font-family="ArialRoundedMTBold,Arial Rounded MT Bold" font-size="104.0" fill="#000000" transform="matrix(1.00, 0.00, -0.00, -1.00, 972.4, 450.5)"> </text></g></g><path d="M 979.0 556.0 L 1066.0 556.0 L 1066.0 419.0 L 979.0 419.0 Z M 979.2 555.8 " fill="#FFFFFF"></path><g><clipPath id="clip0x7f8756a8f9f0"><path d="M 957.7 397.1 L 1087.0 397.1 L 1087.0 577.3 L 957.7 577.3 Z M 957.7 397.1 "></path></clipPath><g clip-path="url(#clip0x7f8756a8f9f0)"><text xml:space="preserve" font-family="ArialRoundedMTBold,Arial Rounded MT Bold" font-size="104.0" fill="#000000" transform="matrix(1.00, 0.00, -0.00, -1.00, 991.5, 449.1)">7</text></g></g><path d="M 1072.0 556.0 L 1158.0 556.0 L 1158.0 419.0 L 1072.0 419.0 Z M 1071.6 555.8 " fill="#FFFFFF"></path><g><clipPath id="clip0x7f8756a91380"><path d="M 1050.1 397.1 L 1179.4 397.1 L 1179.4 577.3 L 1050.1 577.3 Z M 1050.1 397.1 "></path></clipPath><g clip-path="url(#clip0x7f8756a91380)"><text xml:space="preserve" font-family="ArialRoundedMTBold,Arial Rounded MT Bold" font-size="104.0" fill="#000000" transform="matrix(1.00, 0.00, -0.00, -1.00, 1083.9, 449.1)">3</text></g></g><path d="M 832.0 556.0 L 918.0 556.0 L 918.0 419.0 L 832.0 419.0 Z M 832.0 555.8 " fill="#FFFFFF"></path><g><clipPath id="clip0x7f8756a92da0"><path d="M 810.6 397.1 L 939.8 397.1 L 939.8 577.3 L 810.6 577.3 Z M 810.6 397.1 "></path></clipPath><g clip-path="url(#clip0x7f8756a92da0)"><text xml:space="preserve" font-family="ArialRoundedMTBold,Arial Rounded MT Bold" font-size="104.0" fill="#000000" transform="matrix(1.00, 0.00, -0.00, -1.00, 844.3, 449.1)">4</text></g></g><g><clipPath id="clip0x7f8756a94090"><path d="M 1493.0 151.0 L 1648.0 151.0 L 1648.0 50.0 L 1493.0 50.0 Z M 1492.8 151.2 "></path></clipPath><g clip-path="url(#clip0x7f8756a94090)"><g><clipPath id="clip0x7f8756a947f0"><path d="M 1492.8 50.4 L 1647.9 50.4 L 1647.9 151.2 L 1492.8 151.2 Z M 1492.8 50.4 "></path></clipPath><g clip-path="url(#clip0x7f8756a947f0)"><image xlink:href="../../3B3F4AB4-FD2B-40DB-A32E-96238FDE2279/assets/E7D0403A97A29682D38DB5ABD2A1FFCE.png" width="260.00" height="194.00" transform="matrix(0.66, 0.00, -0.00, -0.66, 1477.3, 151.2)"></image></g></g></g></g><g><clipPath id="clip0x7f8756a96010"><path d="M 1477.0 40.0 L 1517.6 40.0 L 1517.6 80.4 L 1477.0 80.4 Z M 1477.0 40.0 "></path></clipPath><g clip-path="url(#clip0x7f8756a96010)"><path d="M 1497.3 79.2 L 1503.1 66.8 L 1516.2 64.8 L 1506.8 55.1 L 1509.0 41.4 L 1497.3 47.9 L 1485.6 41.4 L 1487.9 55.1 L 1478.4 64.8 L 1491.5 66.8 Z M 1497.3 79.2 " fill="#E36C09"></path><path d="M 19.9 0.0 L 25.7 12.4 L 38.8 14.4 L 29.3 24.1 L 31.6 37.8 L 19.9 31.3 L 8.2 37.8 L 10.4 24.1 L 1.0 14.4 L 14.0 12.4 Z M 19.9 0.0 " fill="none" stroke="#000000" stroke-width="1.00" stroke-linejoin="bevel" transform="matrix(1.00, 0.00, 0.00, -1.00, 1477.4, 79.2)"></path></g></g></g></svg>