<?xml version="1.0" encoding="UTF-8" standalone="no"?><svg xmlns="http://www.w3.org/2000/svg" xmlns:xlink="http://www.w3.org/1999/xlink" clip-rule="evenodd" stroke-miterlimit="10" viewBox="0 0 1920 1080"><desc>SVG generated by Keynote</desc><defs></defs><g transform="matrix(1.00, 0.00, -0.00, -1.00, 0.0, 1080.0)"><path d="M 0.0 1080.0 L 1920.0 1080.0 L 1920.0 0.0 L 0.0 0.0 Z M 0.0 1080.0 " fill="#FFFFFF"></path><text xml:space="preserve" font-family="ArialRoundedMTBold,Arial Rounded MT Bold" font-size="126.0" fill="#0D6D99" transform="matrix(1.00, 0.00, -0.00, -1.00, 607.1, 584.7)">r</text><text xml:space="preserve" font-family="ArialRoundedMTBold,Arial Rounded MT Bold" font-size="126.0" fill="#0D6D99" transform="matrix(1.00, 0.00, -0.00, -1.00, 666.3, 584.7)">e</text><text xml:space="preserve" font-family="ArialRoundedMTBold,Arial Rounded MT Bold" font-size="126.0" fill="#0D6D99" transform="matrix(1.00, 0.00, -0.00, -1.00, 748.3, 584.7)">d</text><text xml:space="preserve" font-family="ArialRoundedMTBold,Arial Rounded MT Bold" font-size="126.0" fill="#0D6D99" transform="matrix(1.00, 0.00, -0.00, -1.00, 834.2, 584.7)">o</text><text xml:space="preserve" font-family="ArialRoundedMTBold,Arial Rounded MT Bold" font-size="126.0" fill="#0D6D99" transform="matrix(1.00, 0.00, -0.00, -1.00, 917.5, 584.7)">n</text><text xml:space="preserve" font-family="ArialRoundedMTBold,Arial Rounded MT Bold" font-size="126.0" fill="#0D6D99" transform="matrix(1.00, 0.00, -0.00, -1.00, 1000.7, 584.7)">d</text><text xml:space="preserve" font-family="ArialRoundedMTBold,Arial Rounded MT Bold" font-size="126.0" fill="#0D6D99" transform="matrix(1.00, 0.00, -0.00, -1.00, 1086.6, 584.7)">e</text><text xml:space="preserve" font-family="ArialRoundedMTBold,Arial Rounded MT Bold" font-size="126.0" fill="#0D6D99" transform="matrix(1.00, 0.00, -0.00, -1.00, 1168.6, 584.7)">a</text><text xml:space="preserve" font-family="ArialRoundedMTBold,Arial Rounded MT Bold" font-size="126.0" fill="#0D6D99" transform="matrix(1.00, 0.00, -0.00, -1.00, 1250.6, 584.7)">r</text><text xml:space="preserve" font-family="ArialRoundedMTBold,Arial Rounded MT Bold" font-size="126.0" fill="#0D6D99" transform="matrix(1.00, 0.00, -0.00, -1.00, 1313.0, 584.7)"> </text><text xml:space="preserve" font-family="ArialRoundedMTBold,Arial Rounded MT Bold" font-size="126.0" fill="#0D6D99" transform="matrix(1.00, 0.00, -0.00, -1.00, 1351.6, 584.7)"> </text><text xml:space="preserve" font-family="ArialRoundedMTBold,Arial Rounded MT Bold" font-size="126.0" fill="#0D6D99" transform="matrix(1.00, 0.00, -0.00, -1.00, 668.4, 438.7)">n</text><text xml:space="preserve" font-family="ArialRoundedMTBold,Arial Rounded MT Bold" font-size="126.0" fill="#0D6D99" transform="matrix(1.00, 0.00, -0.00, -1.00, 751.6, 438.7)">ú</text><text xml:space="preserve" font-family="ArialRoundedMTBold,Arial Rounded MT Bold" font-size="126.0" fill="#0D6D99" transform="matrix(1.00, 0.00, -0.00, -1.00, 834.8, 438.7)">m</text><text xml:space="preserve" font-family="ArialRoundedMTBold,Arial Rounded MT Bold" font-size="126.0" fill="#0D6D99" transform="matrix(1.00, 0.00, -0.00, -1.00, 953.4, 438.7)">e</text><text xml:space="preserve" font-family="ArialRoundedMTBold,Arial Rounded MT Bold" font-size="126.0" fill="#0D6D99" transform="matrix(1.00, 0.00, -0.00, -1.00, 1035.5, 438.7)">r</text><text xml:space="preserve" font-family="ArialRoundedMTBold,Arial Rounded MT Bold" font-size="126.0" fill="#0D6D99" transform="matrix(1.00, 0.00, -0.00, -1.00, 1093.0, 438.7)">o</text><text xml:space="preserve" font-family="ArialRoundedMTBold,Arial Rounded MT Bold" font-size="126.0" fill="#0D6D99" transform="matrix(1.00, 0.00, -0.00, -1.00, 1176.2, 438.7)">s</text></g></svg>