<?xml version="1.0" encoding="UTF-8" standalone="no"?><svg xmlns="http://www.w3.org/2000/svg" xmlns:xlink="http://www.w3.org/1999/xlink" clip-rule="evenodd" stroke-miterlimit="10" viewBox="0 0 807 75"><desc>SVG generated by Keynote</desc><defs></defs><g transform="matrix(1.00, 0.00, -0.00, -1.00, 0.0, 75.0)"><text xml:space="preserve" font-family="ArialRoundedMTBold,Arial Rounded MT Bold" font-size="76.0" fill="#000000" transform="matrix(1.00, 0.00, -0.00, -1.00, -1.0, 17.4)">o</text><text xml:space="preserve" font-family="ArialRoundedMTBold,Arial Rounded MT Bold" font-size="76.0" fill="#000000" transform="matrix(1.00, 0.00, -0.00, -1.00, 104.3, 17.4)">b</text><text xml:space="preserve" font-family="ArialRoundedMTBold,Arial Rounded MT Bold" font-size="76.0" fill="#000000" transform="matrix(1.00, 0.00, -0.00, -1.00, 211.2, 17.4)">j</text><text xml:space="preserve" font-family="ArialRoundedMTBold,Arial Rounded MT Bold" font-size="76.0" fill="#000000" transform="matrix(1.00, 0.00, -0.00, -1.00, 291.2, 17.4)">e</text><text xml:space="preserve" font-family="ArialRoundedMTBold,Arial Rounded MT Bold" font-size="76.0" fill="#000000" transform="matrix(1.00, 0.00, -0.00, -1.00, 395.7, 17.4)">t</text><text xml:space="preserve" font-family="ArialRoundedMTBold,Arial Rounded MT Bold" font-size="76.0" fill="#000000" transform="matrix(1.00, 0.00, -0.00, -1.00, 482.0, 17.4)">i</text><text xml:space="preserve" font-family="ArialRoundedMTBold,Arial Rounded MT Bold" font-size="76.0" fill="#000000" transform="matrix(1.00, 0.00, -0.00, -1.00, 562.0, 17.4)">v</text><text xml:space="preserve" font-family="ArialRoundedMTBold,Arial Rounded MT Bold" font-size="76.0" fill="#000000" transform="matrix(1.00, 0.00, -0.00, -1.00, 661.6, 17.4)">o</text><text xml:space="preserve" font-family="ArialRoundedMTBold,Arial Rounded MT Bold" font-size="76.0" fill="#000000" transform="matrix(1.00, 0.00, -0.00, -1.00, 766.8, 17.4)">s</text></g></svg>