<?xml version="1.0" encoding="UTF-8" standalone="no"?><svg xmlns="http://www.w3.org/2000/svg" xmlns:xlink="http://www.w3.org/1999/xlink" clip-rule="evenodd" stroke-miterlimit="10" viewBox="0 0 1920 1080"><desc>SVG generated by Keynote</desc><defs></defs><g transform="matrix(1.00, 0.00, -0.00, -1.00, 0.0, 1080.0)"><path d="M 0.0 1080.0 L 1920.0 1080.0 L 1920.0 0.0 L 0.0 0.0 Z M 0.0 1080.0 " fill="#FFFFFF"></path><text xml:space="preserve" font-family="ArialRoundedMTBold,Arial Rounded MT Bold" font-size="76.0" fill="#000000" transform="matrix(1.00, 0.00, -0.00, -1.00, 533.0, 963.4)">o</text><text xml:space="preserve" font-family="ArialRoundedMTBold,Arial Rounded MT Bold" font-size="76.0" fill="#000000" transform="matrix(1.00, 0.00, -0.00, -1.00, 638.3, 963.4)">b</text><text xml:space="preserve" font-family="ArialRoundedMTBold,Arial Rounded MT Bold" font-size="76.0" fill="#000000" transform="matrix(1.00, 0.00, -0.00, -1.00, 745.2, 963.4)">j</text><text xml:space="preserve" font-family="ArialRoundedMTBold,Arial Rounded MT Bold" font-size="76.0" fill="#000000" transform="matrix(1.00, 0.00, -0.00, -1.00, 825.2, 963.4)">e</text><text xml:space="preserve" font-family="ArialRoundedMTBold,Arial Rounded MT Bold" font-size="76.0" fill="#000000" transform="matrix(1.00, 0.00, -0.00, -1.00, 929.7, 963.4)">t</text><text xml:space="preserve" font-family="ArialRoundedMTBold,Arial Rounded MT Bold" font-size="76.0" fill="#000000" transform="matrix(1.00, 0.00, -0.00, -1.00, 1016.0, 963.4)">i</text><text xml:space="preserve" font-family="ArialRoundedMTBold,Arial Rounded MT Bold" font-size="76.0" fill="#000000" transform="matrix(1.00, 0.00, -0.00, -1.00, 1096.0, 963.4)">v</text><text xml:space="preserve" font-family="ArialRoundedMTBold,Arial Rounded MT Bold" font-size="76.0" fill="#000000" transform="matrix(1.00, 0.00, -0.00, -1.00, 1195.6, 963.4)">o</text><text xml:space="preserve" font-family="ArialRoundedMTBold,Arial Rounded MT Bold" font-size="76.0" fill="#000000" transform="matrix(1.00, 0.00, -0.00, -1.00, 1300.8, 963.4)">s</text><text xml:space="preserve" font-family="Avenir-Light,Avenir" font-size="76.0" fill="#000000" transform="matrix(1.00, 0.00, -0.00, -1.00, 551.0, 748.1)">d</text><text xml:space="preserve" font-family="Avenir-Light,Avenir" font-size="76.0" fill="#000000" transform="matrix(1.00, 0.00, -0.00, -1.00, 597.5, 748.1)">e</text><text xml:space="preserve" font-family="Avenir-Light,Avenir" font-size="76.0" fill="#000000" transform="matrix(1.00, 0.00, -0.00, -1.00, 639.7, 748.1)">c</text><text xml:space="preserve" font-family="Avenir-Light,Avenir" font-size="76.0" fill="#000000" transform="matrix(1.00, 0.00, -0.00, -1.00, 676.3, 748.1)">i</text><text xml:space="preserve" font-family="Avenir-Light,Avenir" font-size="76.0" fill="#000000" transform="matrix(1.00, 0.00, -0.00, -1.00, 694.5, 748.1)">d</text><text xml:space="preserve" font-family="Avenir-Light,Avenir" font-size="76.0" fill="#000000" transform="matrix(1.00, 0.00, -0.00, -1.00, 741.0, 748.1)">e</text><text xml:space="preserve" font-family="Avenir-Light,Avenir" font-size="76.0" fill="#000000" transform="matrix(1.00, 0.00, -0.00, -1.00, 783.2, 748.1)"> </text><text xml:space="preserve" font-family="Avenir-Light,Avenir" font-size="76.0" fill="#000000" transform="matrix(1.00, 0.00, -0.00, -1.00, 803.0, 748.1)">s</text><text xml:space="preserve" font-family="Avenir-Light,Avenir" font-size="76.0" fill="#000000" transform="matrix(1.00, 0.00, -0.00, -1.00, 835.4, 748.1)">i</text><text xml:space="preserve" font-family="Avenir-Light,Avenir" font-size="76.0" fill="#000000" transform="matrix(1.00, 0.00, -0.00, -1.00, 853.6, 748.1)"> </text><text xml:space="preserve" font-family="Avenir-Light,Avenir" font-size="76.0" fill="#000000" transform="matrix(1.00, 0.00, -0.00, -1.00, 873.4, 748.1)">u</text><text xml:space="preserve" font-family="Avenir-Light,Avenir" font-size="76.0" fill="#000000" transform="matrix(1.00, 0.00, -0.00, -1.00, 915.6, 748.1)">n</text><text xml:space="preserve" font-family="Avenir-Light,Avenir" font-size="76.0" fill="#000000" transform="matrix(1.00, 0.00, -0.00, -1.00, 957.9, 748.1)"> </text><text xml:space="preserve" font-family="Avenir-Light,Avenir" font-size="76.0" fill="#000000" transform="matrix(1.00, 0.00, -0.00, -1.00, 977.6, 748.1)">n</text><text xml:space="preserve" font-family="Avenir-Light,Avenir" font-size="76.0" fill="#000000" transform="matrix(1.00, 0.00, -0.00, -1.00, 1019.9, 748.1)">ú</text><text xml:space="preserve" font-family="Avenir-Light,Avenir" font-size="76.0" fill="#000000" transform="matrix(1.00, 0.00, -0.00, -1.00, 1062.1, 748.1)">m</text><text xml:space="preserve" font-family="Avenir-Light,Avenir" font-size="76.0" fill="#000000" transform="matrix(1.00, 0.00, -0.00, -1.00, 1126.9, 748.1)">e</text><text xml:space="preserve" font-family="Avenir-Light,Avenir" font-size="76.0" fill="#000000" transform="matrix(1.00, 0.00, -0.00, -1.00, 1169.1, 748.1)">r</text><text xml:space="preserve" font-family="Avenir-Light,Avenir" font-size="76.0" fill="#000000" transform="matrix(1.00, 0.00, -0.00, -1.00, 1193.1, 748.1)">o</text><text xml:space="preserve" font-family="Avenir-Light,Avenir" font-size="76.0" fill="#000000" transform="matrix(1.00, 0.00, -0.00, -1.00, 1238.2, 748.1)"> </text><text xml:space="preserve" font-family="Avenir-Light,Avenir" font-size="76.0" fill="#000000" transform="matrix(1.00, 0.00, -0.00, -1.00, 1258.0, 748.1)"> </text><text xml:space="preserve" font-family="Avenir-Light,Avenir" font-size="76.0" fill="#000000" transform="matrix(1.00, 0.00, -0.00, -1.00, 551.0, 644.1)">s</text><text xml:space="preserve" font-family="Avenir-Light,Avenir" font-size="76.0" fill="#000000" transform="matrix(1.00, 0.00, -0.00, -1.00, 583.4, 644.1)">e</text><text xml:space="preserve" font-family="Avenir-Light,Avenir" font-size="76.0" fill="#000000" transform="matrix(1.00, 0.00, -0.00, -1.00, 625.7, 644.1)"> </text><text xml:space="preserve" font-family="Avenir-Light,Avenir" font-size="76.0" fill="#000000" transform="matrix(1.00, 0.00, -0.00, -1.00, 645.4, 644.1)">r</text><text xml:space="preserve" font-family="Avenir-Light,Avenir" font-size="76.0" fill="#000000" transform="matrix(1.00, 0.00, -0.00, -1.00, 669.4, 644.1)">e</text><text xml:space="preserve" font-family="Avenir-Light,Avenir" font-size="76.0" fill="#000000" transform="matrix(1.00, 0.00, -0.00, -1.00, 711.6, 644.1)">d</text><text xml:space="preserve" font-family="Avenir-Light,Avenir" font-size="76.0" fill="#000000" transform="matrix(1.00, 0.00, -0.00, -1.00, 758.1, 644.1)">o</text><text xml:space="preserve" font-family="Avenir-Light,Avenir" font-size="76.0" fill="#000000" transform="matrix(1.00, 0.00, -0.00, -1.00, 803.2, 644.1)">n</text><text xml:space="preserve" font-family="Avenir-Light,Avenir" font-size="76.0" fill="#000000" transform="matrix(1.00, 0.00, -0.00, -1.00, 845.5, 644.1)">d</text><text xml:space="preserve" font-family="Avenir-Light,Avenir" font-size="76.0" fill="#000000" transform="matrix(1.00, 0.00, -0.00, -1.00, 891.9, 644.1)">e</text><text xml:space="preserve" font-family="Avenir-Light,Avenir" font-size="76.0" fill="#000000" transform="matrix(1.00, 0.00, -0.00, -1.00, 934.2, 644.1)">a</text><text xml:space="preserve" font-family="Avenir-Light,Avenir" font-size="76.0" fill="#000000" transform="matrix(1.00, 0.00, -0.00, -1.00, 973.6, 644.1)">r</text><text xml:space="preserve" font-family="Avenir-Light,Avenir" font-size="76.0" fill="#000000" transform="matrix(1.00, 0.00, -0.00, -1.00, 998.9, 644.1)">á</text><text xml:space="preserve" font-family="Avenir-Light,Avenir" font-size="76.0" fill="#000000" transform="matrix(1.00, 0.00, -0.00, -1.00, 1038.4, 644.1)"> </text><text xml:space="preserve" font-family="Avenir-Light,Avenir" font-size="76.0" fill="#000000" transform="matrix(1.00, 0.00, -0.00, -1.00, 1058.1, 644.1)">h</text><text xml:space="preserve" font-family="Avenir-Light,Avenir" font-size="76.0" fill="#000000" transform="matrix(1.00, 0.00, -0.00, -1.00, 1100.4, 644.1)">a</text><text xml:space="preserve" font-family="Avenir-Light,Avenir" font-size="76.0" fill="#000000" transform="matrix(1.00, 0.00, -0.00, -1.00, 1139.8, 644.1)">c</text><text xml:space="preserve" font-family="Avenir-Light,Avenir" font-size="76.0" fill="#000000" transform="matrix(1.00, 0.00, -0.00, -1.00, 1176.4, 644.1)">i</text><text xml:space="preserve" font-family="Avenir-Light,Avenir" font-size="76.0" fill="#000000" transform="matrix(1.00, 0.00, -0.00, -1.00, 1194.6, 644.1)">a</text><text xml:space="preserve" font-family="Avenir-Light,Avenir" font-size="76.0" fill="#000000" transform="matrix(1.00, 0.00, -0.00, -1.00, 1234.1, 644.1)"> </text><text xml:space="preserve" font-family="Avenir-Light,Avenir" font-size="76.0" fill="#000000" transform="matrix(1.00, 0.00, -0.00, -1.00, 1253.8, 644.1)">a</text><text xml:space="preserve" font-family="Avenir-Light,Avenir" font-size="76.0" fill="#000000" transform="matrix(1.00, 0.00, -0.00, -1.00, 1293.3, 644.1)">r</text><text xml:space="preserve" font-family="Avenir-Light,Avenir" font-size="76.0" fill="#000000" transform="matrix(1.00, 0.00, -0.00, -1.00, 1318.6, 644.1)">r</text><text xml:space="preserve" font-family="Avenir-Light,Avenir" font-size="76.0" fill="#000000" transform="matrix(1.00, 0.00, -0.00, -1.00, 1343.9, 644.1)">i</text><text xml:space="preserve" font-family="Avenir-Light,Avenir" font-size="76.0" fill="#000000" transform="matrix(1.00, 0.00, -0.00, -1.00, 1362.1, 644.1)">b</text><text xml:space="preserve" font-family="Avenir-Light,Avenir" font-size="76.0" fill="#000000" transform="matrix(1.00, 0.00, -0.00, -1.00, 1408.5, 644.1)">a</text><text xml:space="preserve" font-family="Avenir-Light,Avenir" font-size="76.0" fill="#000000" transform="matrix(1.00, 0.00, -0.00, -1.00, 1448.0, 644.1)"> </text><text xml:space="preserve" font-family="Avenir-Light,Avenir" font-size="76.0" fill="#000000" transform="matrix(1.00, 0.00, -0.00, -1.00, 1467.8, 644.1)">o</text><text xml:space="preserve" font-family="Avenir-Light,Avenir" font-size="76.0" fill="#000000" transform="matrix(1.00, 0.00, -0.00, -1.00, 1512.9, 644.1)"> </text><text xml:space="preserve" font-family="Avenir-Light,Avenir" font-size="76.0" fill="#000000" transform="matrix(1.00, 0.00, -0.00, -1.00, 1532.7, 644.1)"> </text><text xml:space="preserve" font-family="Avenir-Light,Avenir" font-size="76.0" fill="#000000" transform="matrix(1.00, 0.00, -0.00, -1.00, 551.0, 540.1)">h</text><text xml:space="preserve" font-family="Avenir-Light,Avenir" font-size="76.0" fill="#000000" transform="matrix(1.00, 0.00, -0.00, -1.00, 593.3, 540.1)">a</text><text xml:space="preserve" font-family="Avenir-Light,Avenir" font-size="76.0" fill="#000000" transform="matrix(1.00, 0.00, -0.00, -1.00, 632.7, 540.1)">c</text><text xml:space="preserve" font-family="Avenir-Light,Avenir" font-size="76.0" fill="#000000" transform="matrix(1.00, 0.00, -0.00, -1.00, 669.3, 540.1)">i</text><text xml:space="preserve" font-family="Avenir-Light,Avenir" font-size="76.0" fill="#000000" transform="matrix(1.00, 0.00, -0.00, -1.00, 687.5, 540.1)">a</text><text xml:space="preserve" font-family="Avenir-Light,Avenir" font-size="76.0" fill="#000000" transform="matrix(1.00, 0.00, -0.00, -1.00, 727.0, 540.1)"> </text><text xml:space="preserve" font-family="Avenir-Light,Avenir" font-size="76.0" fill="#000000" transform="matrix(1.00, 0.00, -0.00, -1.00, 746.7, 540.1)">a</text><text xml:space="preserve" font-family="Avenir-Light,Avenir" font-size="76.0" fill="#000000" transform="matrix(1.00, 0.00, -0.00, -1.00, 786.2, 540.1)">b</text><text xml:space="preserve" font-family="Avenir-Light,Avenir" font-size="76.0" fill="#000000" transform="matrix(1.00, 0.00, -0.00, -1.00, 832.6, 540.1)">a</text><text xml:space="preserve" font-family="Avenir-Light,Avenir" font-size="76.0" fill="#000000" transform="matrix(1.00, 0.00, -0.00, -1.00, 872.1, 540.1)">j</text><text xml:space="preserve" font-family="Avenir-Light,Avenir" font-size="76.0" fill="#000000" transform="matrix(1.00, 0.00, -0.00, -1.00, 890.3, 540.1)">o</text><g><clipPath id="clip0x7f875dde5f10"><path d="M 1493.0 137.0 L 1648.0 137.0 L 1648.0 36.0 L 1493.0 36.0 Z M 1492.8 136.8 "></path></clipPath><g clip-path="url(#clip0x7f875dde5f10)"><g><clipPath id="clip0x7f875dde6670"><path d="M 1492.8 36.0 L 1647.9 36.0 L 1647.9 136.8 L 1492.8 136.8 Z M 1492.8 36.0 "></path></clipPath><g clip-path="url(#clip0x7f875dde6670)"><image xlink:href="../../3B3F4AB4-FD2B-40DB-A32E-96238FDE2279/assets/E7D0403A97A29682D38DB5ABD2A1FFCE.png" width="260.00" height="194.00" transform="matrix(0.66, 0.00, -0.00, -0.66, 1477.3, 136.8)"></image></g></g></g></g><g><clipPath id="clip0x7f875a0bdf90"><path d="M 1477.0 25.6 L 1517.6 25.6 L 1517.6 66.0 L 1477.0 66.0 Z M 1477.0 25.6 "></path></clipPath><g clip-path="url(#clip0x7f875a0bdf90)"><path d="M 1497.3 64.8 L 1503.1 52.4 L 1516.2 50.4 L 1506.8 40.7 L 1509.0 27.0 L 1497.3 33.5 L 1485.6 27.0 L 1487.9 40.7 L 1478.4 50.4 L 1491.5 52.4 Z M 1497.3 64.8 " fill="#E36C09"></path><path d="M 19.9 0.0 L 25.7 12.4 L 38.8 14.4 L 29.3 24.1 L 31.6 37.8 L 19.9 31.3 L 8.2 37.8 L 10.4 24.1 L 1.0 14.4 L 14.0 12.4 Z M 19.9 0.0 " fill="none" stroke="#000000" stroke-width="1.00" stroke-linejoin="bevel" transform="matrix(1.00, 0.00, 0.00, -1.00, 1477.4, 64.8)"></path></g></g><image xlink:href="../../D18F4917-4541-4811-8BFB-180740CEE999/assets/7DE3009F83AB8ED4BF31EF3CC630B728.png" width="1310.00" height="21.00" transform="matrix(1.00, 0.00, -0.00, -1.00, 305.0, 893.1)" opacity="0.38"></image><path d="M 0.0 0.1 L 1296.0 0.1 " fill="none" stroke="#000000" stroke-width="7.00" stroke-linejoin="bevel" transform="matrix(1.00, 0.00, 0.00, -1.00, 312.0, 885.6)"></path><text xml:space="preserve" font-family="Avenir-Light,Avenir" font-size="76.0" fill="#000000" transform="matrix(1.00, 0.00, -0.00, -1.00, 551.0, 380.9)">r</text><text xml:space="preserve" font-family="Avenir-Light,Avenir" font-size="76.0" fill="#000000" transform="matrix(1.00, 0.00, -0.00, -1.00, 575.0, 380.9)">o</text><text xml:space="preserve" font-family="Avenir-Light,Avenir" font-size="76.0" fill="#000000" transform="matrix(1.00, 0.00, -0.00, -1.00, 620.1, 380.9)">d</text><text xml:space="preserve" font-family="Avenir-Light,Avenir" font-size="76.0" fill="#000000" transform="matrix(1.00, 0.00, -0.00, -1.00, 666.6, 380.9)">o</text><text xml:space="preserve" font-family="Avenir-Light,Avenir" font-size="76.0" fill="#000000" transform="matrix(1.00, 0.00, -0.00, -1.00, 711.7, 380.9)">n</text><text xml:space="preserve" font-family="Avenir-Light,Avenir" font-size="76.0" fill="#000000" transform="matrix(1.00, 0.00, -0.00, -1.00, 754.0, 380.9)">d</text><text xml:space="preserve" font-family="Avenir-Light,Avenir" font-size="76.0" fill="#000000" transform="matrix(1.00, 0.00, -0.00, -1.00, 800.4, 380.9)">e</text><text xml:space="preserve" font-family="Avenir-Light,Avenir" font-size="76.0" fill="#000000" transform="matrix(1.00, 0.00, -0.00, -1.00, 842.7, 380.9)">a</text><text xml:space="preserve" font-family="Avenir-Light,Avenir" font-size="76.0" fill="#000000" transform="matrix(1.00, 0.00, -0.00, -1.00, 882.1, 380.9)"> </text><text xml:space="preserve" font-family="Avenir-Light,Avenir" font-size="76.0" fill="#000000" transform="matrix(1.00, 0.00, -0.00, -1.00, 901.9, 380.9)">h</text><text xml:space="preserve" font-family="Avenir-Light,Avenir" font-size="76.0" fill="#000000" transform="matrix(1.00, 0.00, -0.00, -1.00, 944.1, 380.9)">a</text><text xml:space="preserve" font-family="Avenir-Light,Avenir" font-size="76.0" fill="#000000" transform="matrix(1.00, 0.00, -0.00, -1.00, 983.6, 380.9)">c</text><text xml:space="preserve" font-family="Avenir-Light,Avenir" font-size="76.0" fill="#000000" transform="matrix(1.00, 0.00, -0.00, -1.00, 1020.1, 380.9)">i</text><text xml:space="preserve" font-family="Avenir-Light,Avenir" font-size="76.0" fill="#000000" transform="matrix(1.00, 0.00, -0.00, -1.00, 1038.4, 380.9)">a</text><text xml:space="preserve" font-family="Avenir-Light,Avenir" font-size="76.0" fill="#000000" transform="matrix(1.00, 0.00, -0.00, -1.00, 1077.8, 380.9)"> </text><text xml:space="preserve" font-family="Avenir-Light,Avenir" font-size="76.0" fill="#000000" transform="matrix(1.00, 0.00, -0.00, -1.00, 1097.6, 380.9)">a</text><text xml:space="preserve" font-family="Avenir-Light,Avenir" font-size="76.0" fill="#000000" transform="matrix(1.00, 0.00, -0.00, -1.00, 1137.0, 380.9)">r</text><text xml:space="preserve" font-family="Avenir-Light,Avenir" font-size="76.0" fill="#000000" transform="matrix(1.00, 0.00, -0.00, -1.00, 1162.3, 380.9)">r</text><text xml:space="preserve" font-family="Avenir-Light,Avenir" font-size="76.0" fill="#000000" transform="matrix(1.00, 0.00, -0.00, -1.00, 1187.6, 380.9)">i</text><text xml:space="preserve" font-family="Avenir-Light,Avenir" font-size="76.0" fill="#000000" transform="matrix(1.00, 0.00, -0.00, -1.00, 1205.9, 380.9)">b</text><text xml:space="preserve" font-family="Avenir-Light,Avenir" font-size="76.0" fill="#000000" transform="matrix(1.00, 0.00, -0.00, -1.00, 1252.3, 380.9)">a</text><text xml:space="preserve" font-family="Avenir-Light,Avenir" font-size="76.0" fill="#000000" transform="matrix(1.00, 0.00, -0.00, -1.00, 551.0, 148.1)">r</text><text xml:space="preserve" font-family="Avenir-Light,Avenir" font-size="76.0" fill="#000000" transform="matrix(1.00, 0.00, -0.00, -1.00, 575.0, 148.1)">e</text><text xml:space="preserve" font-family="Avenir-Light,Avenir" font-size="76.0" fill="#000000" transform="matrix(1.00, 0.00, -0.00, -1.00, 617.2, 148.1)">d</text><text xml:space="preserve" font-family="Avenir-Light,Avenir" font-size="76.0" fill="#000000" transform="matrix(1.00, 0.00, -0.00, -1.00, 663.7, 148.1)">o</text><text xml:space="preserve" font-family="Avenir-Light,Avenir" font-size="76.0" fill="#000000" transform="matrix(1.00, 0.00, -0.00, -1.00, 708.8, 148.1)">n</text><text xml:space="preserve" font-family="Avenir-Light,Avenir" font-size="76.0" fill="#000000" transform="matrix(1.00, 0.00, -0.00, -1.00, 751.1, 148.1)">d</text><text xml:space="preserve" font-family="Avenir-Light,Avenir" font-size="76.0" fill="#000000" transform="matrix(1.00, 0.00, -0.00, -1.00, 797.5, 148.1)">e</text><text xml:space="preserve" font-family="Avenir-Light,Avenir" font-size="76.0" fill="#000000" transform="matrix(1.00, 0.00, -0.00, -1.00, 839.8, 148.1)">a</text><text xml:space="preserve" font-family="Avenir-Light,Avenir" font-size="76.0" fill="#000000" transform="matrix(1.00, 0.00, -0.00, -1.00, 879.2, 148.1)"> </text><text xml:space="preserve" font-family="Avenir-Light,Avenir" font-size="76.0" fill="#000000" transform="matrix(1.00, 0.00, -0.00, -1.00, 899.0, 148.1)">h</text><text xml:space="preserve" font-family="Avenir-Light,Avenir" font-size="76.0" fill="#000000" transform="matrix(1.00, 0.00, -0.00, -1.00, 941.2, 148.1)">a</text><text xml:space="preserve" font-family="Avenir-Light,Avenir" font-size="76.0" fill="#000000" transform="matrix(1.00, 0.00, -0.00, -1.00, 980.7, 148.1)">c</text><text xml:space="preserve" font-family="Avenir-Light,Avenir" font-size="76.0" fill="#000000" transform="matrix(1.00, 0.00, -0.00, -1.00, 1017.2, 148.1)">i</text><text xml:space="preserve" font-family="Avenir-Light,Avenir" font-size="76.0" fill="#000000" transform="matrix(1.00, 0.00, -0.00, -1.00, 1035.5, 148.1)">a</text><text xml:space="preserve" font-family="Avenir-Light,Avenir" font-size="76.0" fill="#000000" transform="matrix(1.00, 0.00, -0.00, -1.00, 1074.9, 148.1)"> </text><text xml:space="preserve" font-family="Avenir-Light,Avenir" font-size="76.0" fill="#000000" transform="matrix(1.00, 0.00, -0.00, -1.00, 1094.7, 148.1)">a</text><text xml:space="preserve" font-family="Avenir-Light,Avenir" font-size="76.0" fill="#000000" transform="matrix(1.00, 0.00, -0.00, -1.00, 1134.1, 148.1)">b</text><text xml:space="preserve" font-family="Avenir-Light,Avenir" font-size="76.0" fill="#000000" transform="matrix(1.00, 0.00, -0.00, -1.00, 1180.5, 148.1)">a</text><text xml:space="preserve" font-family="Avenir-Light,Avenir" font-size="76.0" fill="#000000" transform="matrix(1.00, 0.00, -0.00, -1.00, 1220.0, 148.1)">j</text><text xml:space="preserve" font-family="Avenir-Light,Avenir" font-size="76.0" fill="#000000" transform="matrix(1.00, 0.00, -0.00, -1.00, 1238.2, 148.1)">o</text><path d="M 0.5 0.1 L 144.5 0.1 L 144.5 140.1 L 0.5 140.1 Z M 0.0 0.0 " fill="none" stroke="#000000" stroke-width="1.00" stroke-linejoin="bevel" transform="matrix(1.00, 0.00, 0.00, -1.00, 312.0, 797.6)"></path><g><clipPath id="clip0x7f875ddc9e40"><path d="M 303.8 649.8 L 464.2 649.8 L 464.2 805.7 L 303.8 805.7 Z M 303.8 649.8 "></path></clipPath><g clip-path="url(#clip0x7f875ddc9e40)"><text xml:space="preserve" font-family="Avenir-Light,Avenir" font-size="76.0" fill="#000000" transform="matrix(1.00, 0.00, -0.00, -1.00, 364.2, 703.6)">1</text></g></g><path d="M 0.5 0.1 L 144.5 0.1 L 144.5 140.1 L 0.5 140.1 Z M 0.0 0.0 " fill="none" stroke="#000000" stroke-width="1.00" stroke-linejoin="bevel" transform="matrix(1.00, 0.00, 0.00, -1.00, 312.0, 473.6)"></path><g><clipPath id="clip0x7f875ddcbab0"><path d="M 303.8 325.8 L 464.2 325.8 L 464.2 481.7 L 303.8 481.7 Z M 303.8 325.8 "></path></clipPath><g clip-path="url(#clip0x7f875ddcbab0)"><text xml:space="preserve" font-family="Avenir-Light,Avenir" font-size="76.0" fill="#000000" transform="matrix(1.00, 0.00, -0.00, -1.00, 364.2, 379.6)">2</text></g></g><path d="M 0.5 0.5 L 144.5 0.5 L 144.5 139.5 L 0.5 139.5 Z M 0.0 0.0 " fill="none" stroke="#000000" stroke-width="1.00" stroke-linejoin="bevel" transform="matrix(1.00, 0.00, 0.00, -1.00, 312.0, 236.0)"></path><g><clipPath id="clip0x7f875ddcd730"><path d="M 303.8 88.2 L 464.2 88.2 L 464.2 244.1 L 303.8 244.1 Z M 303.8 88.2 "></path></clipPath><g clip-path="url(#clip0x7f875ddcd730)"><text xml:space="preserve" font-family="Avenir-Light,Avenir" font-size="76.0" fill="#000000" transform="matrix(1.00, 0.00, -0.00, -1.00, 364.2, 142.0)">3</text></g></g></g></svg>