<?xml version="1.0" encoding="UTF-8" standalone="no"?><svg xmlns="http://www.w3.org/2000/svg" xmlns:xlink="http://www.w3.org/1999/xlink" clip-rule="evenodd" stroke-miterlimit="10" viewBox="0 0 733 62"><desc>SVG generated by Keynote</desc><defs></defs><g transform="matrix(1.00, 0.00, -0.00, -1.00, 0.0, 62.0)"><text xml:space="preserve" font-family="Avenir-Light,Avenir" font-size="76.0" fill="#000000" transform="matrix(1.00, 0.00, -0.00, -1.00, -4.0, 2.9)">r</text><text xml:space="preserve" font-family="Avenir-Light,Avenir" font-size="76.0" fill="#000000" transform="matrix(1.00, 0.00, -0.00, -1.00, 20.0, 2.9)">o</text><text xml:space="preserve" font-family="Avenir-Light,Avenir" font-size="76.0" fill="#000000" transform="matrix(1.00, 0.00, -0.00, -1.00, 65.1, 2.9)">d</text><text xml:space="preserve" font-family="Avenir-Light,Avenir" font-size="76.0" fill="#000000" transform="matrix(1.00, 0.00, -0.00, -1.00, 111.6, 2.9)">o</text><text xml:space="preserve" font-family="Avenir-Light,Avenir" font-size="76.0" fill="#000000" transform="matrix(1.00, 0.00, -0.00, -1.00, 156.7, 2.9)">n</text><text xml:space="preserve" font-family="Avenir-Light,Avenir" font-size="76.0" fill="#000000" transform="matrix(1.00, 0.00, -0.00, -1.00, 199.0, 2.9)">d</text><text xml:space="preserve" font-family="Avenir-Light,Avenir" font-size="76.0" fill="#000000" transform="matrix(1.00, 0.00, -0.00, -1.00, 245.4, 2.9)">e</text><text xml:space="preserve" font-family="Avenir-Light,Avenir" font-size="76.0" fill="#000000" transform="matrix(1.00, 0.00, -0.00, -1.00, 287.7, 2.9)">a</text><text xml:space="preserve" font-family="Avenir-Light,Avenir" font-size="76.0" fill="#000000" transform="matrix(1.00, 0.00, -0.00, -1.00, 327.1, 2.9)"> </text><text xml:space="preserve" font-family="Avenir-Light,Avenir" font-size="76.0" fill="#000000" transform="matrix(1.00, 0.00, -0.00, -1.00, 346.9, 2.9)">h</text><text xml:space="preserve" font-family="Avenir-Light,Avenir" font-size="76.0" fill="#000000" transform="matrix(1.00, 0.00, -0.00, -1.00, 389.1, 2.9)">a</text><text xml:space="preserve" font-family="Avenir-Light,Avenir" font-size="76.0" fill="#000000" transform="matrix(1.00, 0.00, -0.00, -1.00, 428.6, 2.9)">c</text><text xml:space="preserve" font-family="Avenir-Light,Avenir" font-size="76.0" fill="#000000" transform="matrix(1.00, 0.00, -0.00, -1.00, 465.1, 2.9)">i</text><text xml:space="preserve" font-family="Avenir-Light,Avenir" font-size="76.0" fill="#000000" transform="matrix(1.00, 0.00, -0.00, -1.00, 483.4, 2.9)">a</text><text xml:space="preserve" font-family="Avenir-Light,Avenir" font-size="76.0" fill="#000000" transform="matrix(1.00, 0.00, -0.00, -1.00, 522.8, 2.9)"> </text><text xml:space="preserve" font-family="Avenir-Light,Avenir" font-size="76.0" fill="#000000" transform="matrix(1.00, 0.00, -0.00, -1.00, 542.6, 2.9)">a</text><text xml:space="preserve" font-family="Avenir-Light,Avenir" font-size="76.0" fill="#000000" transform="matrix(1.00, 0.00, -0.00, -1.00, 582.0, 2.9)">r</text><text xml:space="preserve" font-family="Avenir-Light,Avenir" font-size="76.0" fill="#000000" transform="matrix(1.00, 0.00, -0.00, -1.00, 607.3, 2.9)">r</text><text xml:space="preserve" font-family="Avenir-Light,Avenir" font-size="76.0" fill="#000000" transform="matrix(1.00, 0.00, -0.00, -1.00, 632.6, 2.9)">i</text><text xml:space="preserve" font-family="Avenir-Light,Avenir" font-size="76.0" fill="#000000" transform="matrix(1.00, 0.00, -0.00, -1.00, 650.9, 2.9)">b</text><text xml:space="preserve" font-family="Avenir-Light,Avenir" font-size="76.0" fill="#000000" transform="matrix(1.00, 0.00, -0.00, -1.00, 697.3, 2.9)">a</text></g></svg>