<?xml version="1.0" encoding="UTF-8" standalone="no"?><svg xmlns="http://www.w3.org/2000/svg" xmlns:xlink="http://www.w3.org/1999/xlink" clip-rule="evenodd" stroke-miterlimit="10" viewBox="0 0 1920 1080"><desc>SVG generated by Keynote</desc><defs></defs><g transform="matrix(1.00, 0.00, -0.00, -1.00, 0.0, 1080.0)"><path d="M 0.0 1080.0 L 1920.0 1080.0 L 1920.0 0.0 L 0.0 0.0 Z M 0.0 1080.0 " fill="#FFFFFF"></path><text xml:space="preserve" font-family="ArialRoundedMTBold,Arial Rounded MT Bold" font-size="74.0" fill="#000000" transform="matrix(1.00, 0.00, -0.00, -1.00, 612.4, 788.8)">S</text><text xml:space="preserve" font-family="ArialRoundedMTBold,Arial Rounded MT Bold" font-size="74.0" fill="#000000" transform="matrix(1.00, 0.00, -0.00, -1.00, 661.8, 788.8)">u</text><text xml:space="preserve" font-family="ArialRoundedMTBold,Arial Rounded MT Bold" font-size="74.0" fill="#000000" transform="matrix(1.00, 0.00, -0.00, -1.00, 706.5, 788.8)">b</text><text xml:space="preserve" font-family="ArialRoundedMTBold,Arial Rounded MT Bold" font-size="74.0" fill="#000000" transform="matrix(1.00, 0.00, -0.00, -1.00, 752.7, 788.8)">j</text><text xml:space="preserve" font-family="ArialRoundedMTBold,Arial Rounded MT Bold" font-size="74.0" fill="#000000" transform="matrix(1.00, 0.00, -0.00, -1.00, 772.8, 788.8)">e</text><text xml:space="preserve" font-family="ArialRoundedMTBold,Arial Rounded MT Bold" font-size="74.0" fill="#000000" transform="matrix(1.00, 0.00, -0.00, -1.00, 816.8, 788.8)">c</text><text xml:space="preserve" font-family="ArialRoundedMTBold,Arial Rounded MT Bold" font-size="74.0" fill="#000000" transform="matrix(1.00, 0.00, -0.00, -1.00, 860.8, 788.8)">t</text><text xml:space="preserve" font-family="ArialRoundedMTBold,Arial Rounded MT Bold" font-size="74.0" fill="#000000" transform="matrix(1.00, 0.00, -0.00, -1.00, 887.0, 788.8)">s</text><text xml:space="preserve" font-family="ArialRoundedMTBold,Arial Rounded MT Bold" font-size="74.0" fill="#000000" transform="matrix(1.00, 0.00, -0.00, -1.00, 927.1, 788.8)"> </text><text xml:space="preserve" font-family="ArialRoundedMTBold,Arial Rounded MT Bold" font-size="74.0" fill="#000000" transform="matrix(1.00, 0.00, -0.00, -1.00, 945.6, 788.8)">a</text><text xml:space="preserve" font-family="ArialRoundedMTBold,Arial Rounded MT Bold" font-size="74.0" fill="#000000" transform="matrix(1.00, 0.00, -0.00, -1.00, 989.6, 788.8)">n</text><text xml:space="preserve" font-family="ArialRoundedMTBold,Arial Rounded MT Bold" font-size="74.0" fill="#000000" transform="matrix(1.00, 0.00, -0.00, -1.00, 1034.2, 788.8)">d</text><text xml:space="preserve" font-family="ArialRoundedMTBold,Arial Rounded MT Bold" font-size="74.0" fill="#000000" transform="matrix(1.00, 0.00, -0.00, -1.00, 1080.5, 788.8)"> </text><text xml:space="preserve" font-family="ArialRoundedMTBold,Arial Rounded MT Bold" font-size="74.0" fill="#000000" transform="matrix(1.00, 0.00, -0.00, -1.00, 1099.0, 788.8)">V</text><text xml:space="preserve" font-family="ArialRoundedMTBold,Arial Rounded MT Bold" font-size="74.0" fill="#000000" transform="matrix(1.00, 0.00, -0.00, -1.00, 1146.2, 788.8)">e</text><text xml:space="preserve" font-family="ArialRoundedMTBold,Arial Rounded MT Bold" font-size="74.0" fill="#000000" transform="matrix(1.00, 0.00, -0.00, -1.00, 1190.2, 788.8)">r</text><text xml:space="preserve" font-family="ArialRoundedMTBold,Arial Rounded MT Bold" font-size="74.0" fill="#000000" transform="matrix(1.00, 0.00, -0.00, -1.00, 1222.6, 788.8)">b</text><text xml:space="preserve" font-family="ArialRoundedMTBold,Arial Rounded MT Bold" font-size="74.0" fill="#000000" transform="matrix(1.00, 0.00, -0.00, -1.00, 1268.9, 788.8)">s</text><text xml:space="preserve" font-family="ArialRoundedMTBold,Arial Rounded MT Bold" font-size="74.0" fill="#000000" transform="matrix(1.00, 0.00, -0.00, -1.00, 1309.0, 788.8)"> </text><text xml:space="preserve" font-family="ArialRoundedMTBold,Arial Rounded MT Bold" font-size="74.0" fill="#000000" transform="matrix(1.00, 0.00, -0.00, -1.00, 1327.5, 788.8)"> </text><text xml:space="preserve" font-family="ArialRoundedMTBold,Arial Rounded MT Bold" font-size="74.0" fill="#000000" transform="matrix(1.00, 0.00, -0.00, -1.00, 1346.0, 788.8)"> </text><text xml:space="preserve" font-family="ArialRoundedMTBold,Arial Rounded MT Bold" font-size="56.0" fill="#000000" transform="matrix(1.00, 0.00, -0.00, -1.00, 876.5, 720.0)">R</text><text xml:space="preserve" font-family="ArialRoundedMTBold,Arial Rounded MT Bold" font-size="56.0" fill="#000000" transform="matrix(1.00, 0.00, -0.00, -1.00, 915.4, 720.0)">u</text><text xml:space="preserve" font-family="ArialRoundedMTBold,Arial Rounded MT Bold" font-size="56.0" fill="#000000" transform="matrix(1.00, 0.00, -0.00, -1.00, 949.2, 720.0)">l</text><text xml:space="preserve" font-family="ArialRoundedMTBold,Arial Rounded MT Bold" font-size="56.0" fill="#000000" transform="matrix(1.00, 0.00, -0.00, -1.00, 964.4, 720.0)">e</text><text xml:space="preserve" font-family="ArialRoundedMTBold,Arial Rounded MT Bold" font-size="56.0" fill="#000000" transform="matrix(1.00, 0.00, -0.00, -1.00, 997.6, 720.0)"> </text><text xml:space="preserve" font-family="ArialRoundedMTBold,Arial Rounded MT Bold" font-size="56.0" fill="#000000" transform="matrix(1.00, 0.00, -0.00, -1.00, 1011.6, 720.0)">3</text><text xml:space="preserve" font-family="ArialRoundedMTBold,Arial Rounded MT Bold" font-size="56.0" fill="#000000" transform="matrix(1.00, 0.00, -0.00, -1.00, 1044.9, 720.0)"> </text></g></svg>