<?xml version="1.0" encoding="UTF-8" standalone="no"?><svg xmlns="http://www.w3.org/2000/svg" xmlns:xlink="http://www.w3.org/1999/xlink" clip-rule="evenodd" stroke-miterlimit="10" viewBox="0 0 879 484"><desc>SVG generated by Keynote</desc><defs></defs><g transform="matrix(1.00, 0.00, -0.00, -1.00, 0.0, 484.0)"><text xml:space="preserve" font-family="ArialRoundedMTBold,Arial Rounded MT Bold" font-size="174.0" fill="#000000" transform="matrix(1.00, 0.00, -0.00, -1.00, 75.0, 355.8)">R</text><text xml:space="preserve" font-family="ArialRoundedMTBold,Arial Rounded MT Bold" font-size="174.0" fill="#000000" transform="matrix(1.00, 0.00, -0.00, -1.00, 200.2, 355.8)">E</text><text xml:space="preserve" font-family="ArialRoundedMTBold,Arial Rounded MT Bold" font-size="174.0" fill="#000000" transform="matrix(1.00, 0.00, -0.00, -1.00, 316.2, 355.8)">G</text><text xml:space="preserve" font-family="ArialRoundedMTBold,Arial Rounded MT Bold" font-size="174.0" fill="#000000" transform="matrix(1.00, 0.00, -0.00, -1.00, 454.0, 355.8)">L</text><text xml:space="preserve" font-family="ArialRoundedMTBold,Arial Rounded MT Bold" font-size="174.0" fill="#000000" transform="matrix(1.00, 0.00, -0.00, -1.00, 556.8, 355.8)">A</text><text xml:space="preserve" font-family="ArialRoundedMTBold,Arial Rounded MT Bold" font-size="174.0" fill="#000000" transform="matrix(1.00, 0.00, -0.00, -1.00, 682.0, 355.8)">S</text><text xml:space="preserve" font-family="ArialRoundedMTBold,Arial Rounded MT Bold" font-size="174.0" fill="#000000" transform="matrix(1.00, 0.00, -0.00, -1.00, 798.1, 355.8)"> </text><text xml:space="preserve" font-family="ArialRoundedMTBold,Arial Rounded MT Bold" font-size="92.0" fill="#000000" transform="matrix(1.00, 0.00, -0.00, -1.00, 334.1, 151.7)">p</text><text xml:space="preserve" font-family="ArialRoundedMTBold,Arial Rounded MT Bold" font-size="92.0" fill="#000000" transform="matrix(1.00, 0.00, -0.00, -1.00, 391.6, 151.7)">a</text><text xml:space="preserve" font-family="ArialRoundedMTBold,Arial Rounded MT Bold" font-size="92.0" fill="#000000" transform="matrix(1.00, 0.00, -0.00, -1.00, 446.3, 151.7)">r</text><text xml:space="preserve" font-family="ArialRoundedMTBold,Arial Rounded MT Bold" font-size="92.0" fill="#000000" transform="matrix(1.00, 0.00, -0.00, -1.00, 484.3, 151.7)">a</text><text xml:space="preserve" font-family="ArialRoundedMTBold,Arial Rounded MT Bold" font-size="92.0" fill="#000000" transform="matrix(1.00, 0.00, -0.00, -1.00, 539.0, 151.7)"> </text><text xml:space="preserve" font-family="ArialRoundedMTBold,Arial Rounded MT Bold" font-size="92.0" fill="#000000" transform="matrix(1.00, 0.00, -0.00, -1.00, 562.0, 151.7)"> </text><text xml:space="preserve" font-family="ArialRoundedMTBold,Arial Rounded MT Bold" font-size="92.0" fill="#000000" transform="matrix(1.00, 0.00, -0.00, -1.00, -3.9, 3.3)">r</text><text xml:space="preserve" font-family="ArialRoundedMTBold,Arial Rounded MT Bold" font-size="92.0" fill="#000000" transform="matrix(1.00, 0.00, -0.00, -1.00, 34.1, 3.3)">e</text><text xml:space="preserve" font-family="ArialRoundedMTBold,Arial Rounded MT Bold" font-size="92.0" fill="#000000" transform="matrix(1.00, 0.00, -0.00, -1.00, 88.8, 3.3)">d</text><text xml:space="preserve" font-family="ArialRoundedMTBold,Arial Rounded MT Bold" font-size="92.0" fill="#000000" transform="matrix(1.00, 0.00, -0.00, -1.00, 146.3, 3.3)">o</text><text xml:space="preserve" font-family="ArialRoundedMTBold,Arial Rounded MT Bold" font-size="92.0" fill="#000000" transform="matrix(1.00, 0.00, -0.00, -1.00, 201.8, 3.3)">n</text><text xml:space="preserve" font-family="ArialRoundedMTBold,Arial Rounded MT Bold" font-size="92.0" fill="#000000" transform="matrix(1.00, 0.00, -0.00, -1.00, 257.4, 3.3)">d</text><text xml:space="preserve" font-family="ArialRoundedMTBold,Arial Rounded MT Bold" font-size="92.0" fill="#000000" transform="matrix(1.00, 0.00, -0.00, -1.00, 314.9, 3.3)">e</text><text xml:space="preserve" font-family="ArialRoundedMTBold,Arial Rounded MT Bold" font-size="92.0" fill="#000000" transform="matrix(1.00, 0.00, -0.00, -1.00, 369.6, 3.3)">a</text><text xml:space="preserve" font-family="ArialRoundedMTBold,Arial Rounded MT Bold" font-size="92.0" fill="#000000" transform="matrix(1.00, 0.00, -0.00, -1.00, 424.3, 3.3)">r</text><text xml:space="preserve" font-family="ArialRoundedMTBold,Arial Rounded MT Bold" font-size="92.0" fill="#000000" transform="matrix(1.00, 0.00, -0.00, -1.00, 464.6, 3.3)"> </text><text xml:space="preserve" font-family="ArialRoundedMTBold,Arial Rounded MT Bold" font-size="92.0" fill="#000000" transform="matrix(1.00, 0.00, -0.00, -1.00, 487.6, 3.3)">n</text><text xml:space="preserve" font-family="ArialRoundedMTBold,Arial Rounded MT Bold" font-size="92.0" fill="#000000" transform="matrix(1.00, 0.00, -0.00, -1.00, 543.1, 3.3)">ú</text><text xml:space="preserve" font-family="ArialRoundedMTBold,Arial Rounded MT Bold" font-size="92.0" fill="#000000" transform="matrix(1.00, 0.00, -0.00, -1.00, 598.7, 3.3)">m</text><text xml:space="preserve" font-family="ArialRoundedMTBold,Arial Rounded MT Bold" font-size="92.0" fill="#000000" transform="matrix(1.00, 0.00, -0.00, -1.00, 680.1, 3.3)">e</text><text xml:space="preserve" font-family="ArialRoundedMTBold,Arial Rounded MT Bold" font-size="92.0" fill="#000000" transform="matrix(1.00, 0.00, -0.00, -1.00, 734.8, 3.3)">r</text><text xml:space="preserve" font-family="ArialRoundedMTBold,Arial Rounded MT Bold" font-size="92.0" fill="#000000" transform="matrix(1.00, 0.00, -0.00, -1.00, 771.6, 3.3)">o</text><text xml:space="preserve" font-family="ArialRoundedMTBold,Arial Rounded MT Bold" font-size="92.0" fill="#000000" transform="matrix(1.00, 0.00, -0.00, -1.00, 827.1, 3.3)">s</text><text xml:space="preserve" font-family="ArialRoundedMTBold,Arial Rounded MT Bold" font-size="92.0" fill="#000000" transform="matrix(1.00, 0.00, -0.00, -1.00, 877.0, 3.3)"> </text></g></svg>